<svg xmlns="http://www.w3.org/2000/svg" viewBox="0 0 845.49 110.92"><defs><style>.cls-1{fill:#7fbe26;}.cls-2{fill:#fff;}</style></defs><g id="圖層_2" data-name="圖層 2"><g id="Back"><rect class="cls-1" width="845.49" height="110.92"/><path class="cls-2" d="M30.47,24.47H32.1V19.22H30.8v-.59a4.22,4.22,0,0,0,1.52-.52H33v6.36h1.47v.76h-4Z"/><path class="cls-2" d="M35.63,21.64c0-2.38.87-3.66,2.29-3.66s2.28,1.29,2.28,3.66-.86,3.72-2.28,3.72S35.63,24,35.63,21.64Zm3.68,0c0-2.08-.56-2.93-1.39-2.93s-1.4.85-1.4,2.93.56,3,1.4,3S39.31,23.73,39.31,21.64Z"/><path class="cls-2" d="M41.18,21.64c0-2.38.87-3.66,2.29-3.66s2.28,1.29,2.28,3.66-.86,3.72-2.28,3.72S41.18,24,41.18,21.64Zm3.68,0c0-2.08-.56-2.93-1.39-2.93s-1.4.85-1.4,2.93.56,3,1.4,3S44.86,23.73,44.86,21.64Z"/><path class="cls-2" d="M46.73,21.64c0-2.38.87-3.66,2.29-3.66s2.28,1.29,2.28,3.66-.86,3.72-2.28,3.72S46.73,24,46.73,21.64Zm3.68,0c0-2.08-.56-2.93-1.39-2.93s-1.4.85-1.4,2.93.56,3,1.4,3S50.41,23.73,50.41,21.64Z"/><path class="cls-2" d="M52.28,21.64c0-2.38.87-3.66,2.29-3.66s2.28,1.29,2.28,3.66-.86,3.72-2.28,3.72S52.28,24,52.28,21.64Zm3.68,0c0-2.08-.56-2.93-1.39-2.93s-1.4.85-1.4,2.93.56,3,1.4,3S56,23.73,56,21.64Z"/><path class="cls-2" d="M60.74,23.26h-3.2v-.6l3.05-4.55h1v4.42h1v.73h-1v2h-.86Zm0-.73V20.44c0-.36,0-1,0-1.35h0c-.18.34-.38.65-.59,1l-1.67,2.44Z"/><path class="cls-2" d="M69.74,18h-4v-.52h4v-.59h.73v.59h4V18h-4v.52h3.29V19H66.51V18.5h3.23Zm4.76,7.24v.55H65.78v-.55h4v-.53h-3V24.2h3v-.49a13.58,13.58,0,0,0-2.43.13,5.44,5.44,0,0,0-.17-.54,1.82,1.82,0,0,0,.54-.13,7.12,7.12,0,0,0,1-.49H66.94v-.46h6.34v.46H72.14a10.44,10.44,0,0,1,1.42,1l-.46.39a6.17,6.17,0,0,0-.49-.41l-2.14.05v.51H73.6v.49H70.47v.53Zm-.9-2.53v-.9h-7v.9H66V21.27H74.3v1.42Zm-.26-3.28v1.44H67V19.41Zm-.73.43h-5v.58h5Zm-3.07,2.84a7.84,7.84,0,0,1-1.05.58L72,23.21c-.26-.17-.53-.32-.77-.45l.09-.08Z"/><path class="cls-2" d="M79.85,23.53l.13.64c-1.43.62-3,1.27-4.13,1.72l-.34-.73c.72-.25,1.75-.63,2.83-1.05v-4H75.81V19.4h2.53V17.06h.76v6.76Zm3.33,1.34c.45,0,.51-.48.57-2.39a2.07,2.07,0,0,0,.71.36c-.08,2.05-.26,2.76-1.22,2.76H81.9c-.86,0-1.11-.29-1.11-1.33v-7.2h.75v2.32h2.79v.73H81.54v4.16c0,.5.07.59.45.59Z"/><path class="cls-2" d="M90.47,19.06v1.35h3.24V23.9c0,.43-.1.65-.42.78a6.25,6.25,0,0,1-1.75.13,2.84,2.84,0,0,0-.26-.74c.68,0,1.28,0,1.45,0s.23-.06.23-.2V21.13H90.47V26h-.75V21.13H87.38v3.71h-.74V20.41h3.08V19.06h-4v-.73h4.26A12.37,12.37,0,0,0,89.27,17L90,16.8a8.55,8.55,0,0,1,.78,1.48l-.13,0h4v.73Z"/><path class="cls-2" d="M104.12,18.65v4.67h-.76v-.57h-2.87V26h-.77V22.75H96.86v.62h-.73V18.65h3.59V16.87h.77v1.78ZM99.72,22V19.38H96.86V22Zm3.64,0V19.38h-2.87V22Z"/><path class="cls-2" d="M114.59,24.83v.73h-8.9v-.73h1.36V20.16h.75v4.67H110v-6.5h-3.93v-.72h8.19v.72h-3.5V21h3.12v.73h-3.12v3.12Z"/><path class="cls-2" d="M122.84,24.84a11.23,11.23,0,0,0,1.66-.11c0,.21.08.55.12.71a9.72,9.72,0,0,1-1.79.09h-4.4c-1.53,0-2.27-.48-2.27-1.94V18h-.41v-.67h8.38V18h-7.24v5.64c0,.85.39,1.2,1.46,1.2Zm-5.16-3.31h2.6v2.56h-2.6Zm.62,2h1.33V22.07H118.3Zm4.17-2.7h-3.71v-2.2h3.71Zm-.73-1.67h-2.28v1.13h2.28Zm1.9,4.91H121V21.53h2.69Zm-.66-2h-1.39v1.48H123Z"/><path class="cls-2" d="M134.59,25.07v.61h-8.9v-.61h4v-.86h-3.29v-.6h3.29v-.69h-3V19.84h3v-.59h-4v-.61h4v-.72c-1,.07-2.1.11-3.08.13a2,2,0,0,0-.16-.59,51.72,51.72,0,0,0,6.68-.53l.4.58a30.58,30.58,0,0,1-3.11.36v.77h4.07v.61h-4.07v.59h3.13v3.08h-3.13v.69H134v.6h-3.5v.86Zm-7.12-3.94h2.26v-.75h-2.26Zm2.26,1.26v-.76h-2.26v.76Zm.73-2v.75h2.38v-.75Zm2.38,1.25h-2.38v.76h2.38Z"/><path class="cls-2" d="M137,21.39A10.79,10.79,0,0,1,136,26a2,2,0,0,0-.57-.41,11.06,11.06,0,0,0,.87-5v-3h3.86c-.06-.21-.14-.43-.2-.62l.71-.13a6.83,6.83,0,0,1,.29.75h3.53v.59h-2.8v.61h2.39v1.68H137v.45h7.11l.11,0,.49.13a10.68,10.68,0,0,1-.7,1.28l-.59-.14a4.24,4.24,0,0,0,.39-.74h-3.45c.34.19.71.39.94.54l-.35.44c-.3-.2-.84-.54-1.23-.74l.2-.24Zm6.24,2.29a5.08,5.08,0,0,1-1.76,1.25,18.88,18.88,0,0,0,3,.45,2.53,2.53,0,0,0-.38.6,16.39,16.39,0,0,1-3.52-.69,17.59,17.59,0,0,1-3.49.73,2.06,2.06,0,0,0-.3-.54,18.87,18.87,0,0,0,2.93-.5,8.7,8.7,0,0,1-1.25-.67,11.14,11.14,0,0,1-1.2.57,1.75,1.75,0,0,0-.42-.44A10,10,0,0,0,138,24a3.79,3.79,0,0,1-.61-.59l.57-.25a3.45,3.45,0,0,0,.59.54,6.57,6.57,0,0,0,.87-.66c-.48,0-.61-.23-.61-.69v-.62h.61v.62c0,.2.07.23.48.23h1.47c.28,0,.34-.06.37-.51a1.45,1.45,0,0,0,.52.17c-.06.65-.24.82-.8.82h-1.25a4.26,4.26,0,0,1-.43.41h2.94l.13,0ZM137,18.14v.61h1.69v-.61Zm0,1.8h1.69v-.7H137Zm.13,2.73a6.86,6.86,0,0,0,.88-1.13l.5.3a11.8,11.8,0,0,1-.86,1.18ZM139,24a8.49,8.49,0,0,0,1.61.7,5.7,5.7,0,0,0,1.54-.79h-3Zm2-5.84h-1.67v.61h1.67Zm-1.67,1.8h1.67v-.7h-1.67Zm2.35-.7v.7h1.7v-.7Zm.79,2.3a14.86,14.86,0,0,1,1.19,1.14l-.46.35a13.13,13.13,0,0,0-1.18-1.2Z"/><path class="cls-2" d="M150.53,18.57v1.06H154v5.5c0,.44-.11.64-.43.75a6,6,0,0,1-1.69.12,3.48,3.48,0,0,0-.27-.67c.63,0,1.24,0,1.41,0s.23-.06.23-.22V20.31H147V26h-.73V19.63h3.41V18.57h-3.95v-.7h3.95v-1h.81v1h4v.7Zm-.07,5.51V25.8h-.71V24.08H147.6v-.62h2.15v-1h-1.94v-.61h2.85a10.67,10.67,0,0,0,.69-1.4l.64.19c-.22.42-.45.86-.68,1.21h1.21v.61h-2.06v1h2.23v.62Zm-1.56-3.62a4.44,4.44,0,0,1,.63,1.16l-.61.22a5.28,5.28,0,0,0-.61-1.21Z"/><path class="cls-2" d="M164,18.07a7.47,7.47,0,0,1-1.46,2.65,6.69,6.69,0,0,0,2.28,1.47,2.79,2.79,0,0,0-.46.61l-.32-.15V26h-.71v-.33h-2.5V26h-.69V22.64c-.2.11-.4.2-.6.29a2,2,0,0,0-.36-.5h-1.05v1.79l1.31-.31.07.67-3.83.93-.14-.72.51-.11V21.27h.63v3.28l.77-.18v-4h-1.4V17.29h3.23v2.65a7.27,7.27,0,0,0,1.81-3.07l.71.17c-.1.29-.21.58-.32.85h1.93l.13,0Zm-7.29,1.62h1.88V17.94h-1.88Zm2.65,2.56a7.16,7.16,0,0,0,2.27-1.56,8.57,8.57,0,0,1-.92-1.36,7.11,7.11,0,0,1-.91,1.14,5.18,5.18,0,0,0-.52-.43v.3h-1.15v1.43h1.23Zm4.21.14a7.87,7.87,0,0,1-1.48-1.17,8.31,8.31,0,0,1-1.5,1.17ZM163.33,25V23h-2.5V25Zm-2.16-6.42-.1.19a7.7,7.7,0,0,0,1,1.49,6.27,6.27,0,0,0,1-1.68Z"/><path class="cls-2" d="M174.69,20.93v.81h-9.08v-.81Z"/><path class="cls-2" d="M179.49,23.72l-2.43.4v1.73h-.72V24.23l-.72.12-.11-.7.83-.11V17.76h0a14.31,14.31,0,0,0,2.62-.94l.6.56a17.32,17.32,0,0,1-2.52.83V19.3h2.24V20h-2.24v1.36h2.23V22h-2.23v1.45l2.4-.35Zm4.48-2.2a5.91,5.91,0,0,1-1.47,2.79,5.88,5.88,0,0,0,2.2,1,2.49,2.49,0,0,0-.46.64,6.29,6.29,0,0,1-2.26-1.2A7.11,7.11,0,0,1,179.46,26a2.17,2.17,0,0,0-.38-.64,6.2,6.2,0,0,0,2.38-1.1,6.4,6.4,0,0,1-1.32-2.18l.37-.1h-.7v-.64h3.57l.13,0Zm-2.77-3.06a3.08,3.08,0,0,1-1.31,2.72,2.85,2.85,0,0,0-.51-.47,2.53,2.53,0,0,0,1.13-2.27v-1.2h2.77v2.53c0,.26,0,.34.17.34h.67a3.28,3.28,0,0,0,.46,0c0,.17,0,.41.06.57a1.88,1.88,0,0,1-.51,0h-.75c-.66,0-.79-.25-.79-.93V17.89H181.2ZM180.76,22A5.27,5.27,0,0,0,182,23.85,4.83,4.83,0,0,0,183.09,22Z"/><path class="cls-2" d="M186,24.47h1.63V19.22h-1.3v-.59a4.22,4.22,0,0,0,1.52-.52h.7v6.36H190v.76h-4Z"/><path class="cls-2" d="M191.17,21.64c0-2.38.87-3.66,2.29-3.66s2.28,1.29,2.28,3.66-.86,3.72-2.28,3.72S191.17,24,191.17,21.64Zm3.68,0c0-2.08-.56-2.93-1.39-2.93s-1.4.85-1.4,2.93.56,3,1.4,3S194.85,23.73,194.85,21.64Z"/><path class="cls-2" d="M196.81,24.61l.51-.57a1.51,1.51,0,0,0,1.17.56c1,0,1.85-.78,1.89-3.06a2.27,2.27,0,0,1-1.67.92,1.94,1.94,0,0,1-2-2.2,2.15,2.15,0,0,1,2.1-2.28c1.41,0,2.46,1.14,2.46,3.42,0,2.86-1.29,4-2.71,4A2.24,2.24,0,0,1,196.81,24.61Zm2.05-2.83a1.93,1.93,0,0,0,1.5-1c-.12-1.37-.68-2.11-1.59-2.11-.7,0-1.24.62-1.24,1.56S198,21.78,198.86,21.78Z"/><path class="cls-2" d="M205.41,22.37s0,.2,0,.3c-.14,1.92-.28,2.68-.54,2.95a.74.74,0,0,1-.58.26,6.53,6.53,0,0,1-1,0,1.7,1.7,0,0,0-.18-.62c.38,0,.75,0,.89,0a.4.4,0,0,0,.32-.1c.16-.16.28-.76.4-2.22h-2a15.41,15.41,0,0,0,.38-1.61h-.86v-.65h3.59v.65h-2.09c-.06.34-.14.7-.2,1Zm.16-2.44h-2.88V17.31h2.88ZM205,17.87h-1.72v1.5H205Zm1.92,3.5a8.89,8.89,0,0,1-1,4.64,2.61,2.61,0,0,0-.56-.41,7.85,7.85,0,0,0,.91-4.24V18.84h2v-2h.7v.7h2v.61h-2v.66h1.93l.12,0,.45.12c-.12.59-.29,1.28-.42,1.72l-.56-.14a8.84,8.84,0,0,0,.22-1.06H206.9Zm1.43,1.25c-.08,1.59-.32,2.71-1.4,3.37a1.83,1.83,0,0,0-.43-.49c.94-.55,1.13-1.51,1.19-2.88Zm1.77-1.08a3.67,3.67,0,0,0,.61-.05c0,.18,0,.38.06.55a2.36,2.36,0,0,1-.64.05h-1.2c-.64,0-.78-.27-.78-.91v-.3l-1,.09-.07-.53,1.05-.1v-.83h.64v.75l1.29-.13.07.54-1.36.13v.38c0,.27,0,.36.25.36Zm.33,3.57a.59.59,0,0,0,.26,0,.29.29,0,0,0,.13-.21,6.18,6.18,0,0,0,0-1,1.47,1.47,0,0,0,.55.3,6.37,6.37,0,0,1-.1,1.14.65.65,0,0,1-.3.38,1.42,1.42,0,0,1-.52.1H210a.93.93,0,0,1-.59-.16c-.16-.13-.19-.27-.19-.73V22.62h.63v2.29a.15.15,0,0,0,.08.16.39.39,0,0,0,.21,0Z"/><path class="cls-2" d="M30,35.41a2.27,2.27,0,0,1,1.35-1.93v0a2,2,0,0,1-1-1.64,1.85,1.85,0,0,1,2-1.82,1.83,1.83,0,0,1,2,1.89,2.35,2.35,0,0,1-1,1.71v.05a2.09,2.09,0,0,1,1.24,1.83,2,2,0,0,1-2.3,1.9A2.1,2.1,0,0,1,30,35.41Zm3.77,0c0-.93-.9-1.26-1.94-1.67a1.89,1.89,0,0,0-1,1.56,1.41,1.41,0,0,0,1.53,1.35A1.27,1.27,0,0,0,33.81,35.44Zm-.17-3.52a1.19,1.19,0,0,0-1.24-1.26,1.1,1.1,0,0,0-1.17,1.14c0,.85.79,1.21,1.65,1.55A1.92,1.92,0,0,0,33.64,31.92Z"/><path class="cls-2" d="M35.63,33.64c0-2.38.87-3.66,2.29-3.66s2.28,1.29,2.28,3.66-.86,3.72-2.28,3.72S35.63,36,35.63,33.64Zm3.68,0c0-2.08-.56-2.93-1.39-2.93s-1.4.85-1.4,2.93.56,3,1.4,3S39.31,35.73,39.31,33.64Z"/><path class="cls-2" d="M44.73,30.89H41.18v-.78h4.59v.56c-1.68,2.15-2,3.78-2.15,6.56h-.95A10.5,10.5,0,0,1,44.73,30.89Z"/><path class="cls-2" d="M46.73,33.64c0-2.38.87-3.66,2.29-3.66s2.28,1.29,2.28,3.66-.86,3.72-2.28,3.72S46.73,36,46.73,33.64Zm3.68,0c0-2.08-.56-2.93-1.39-2.93s-1.4.85-1.4,2.93.56,3,1.4,3S50.41,35.73,50.41,33.64Z"/><path class="cls-2" d="M55.19,35.26H52v-.6l3-4.55h1v4.42h1v.73h-1v2h-.86Zm0-.73V32.44c0-.36,0-1,.05-1.35h0c-.18.34-.38.65-.59,1l-1.67,2.44Z"/><path class="cls-2" d="M57.88,33.94c0-2.86,1.29-4,2.72-4a2.25,2.25,0,0,1,1.71.75l-.51.57a1.55,1.55,0,0,0-1.17-.56c-1,0-1.85.77-1.89,3a2.3,2.3,0,0,1,1.67-.89,1.93,1.93,0,0,1,2,2.19,2.15,2.15,0,0,1-2.1,2.29C58.93,37.36,57.88,36.22,57.88,33.94Zm.88.57c.12,1.39.67,2.14,1.57,2.14.71,0,1.25-.63,1.25-1.58s-.44-1.51-1.32-1.51A1.87,1.87,0,0,0,58.76,34.51Z"/><path class="cls-2" d="M74.47,29.92v.64H65.76v-.64h4.09c-.09-.29-.21-.63-.31-.91l.72-.17c.14.34.29.76.4,1.08Zm-.32,7.29c0,.36-.09.51-.36.61a4.5,4.5,0,0,1-1.32.09,2.24,2.24,0,0,0-.24-.55c.43,0,.89,0,1,0s.17,0,.17-.16V34.28H66.84V38h-.72V33.65h8Zm-1.08-6.09v2h-5.8v-2Zm-.9,5.8H68.65v.49H68V34.87h4.21Zm.14-5.25H68v.89h4.31Zm-3.66,3.76v.93H71.5v-.93Z"/><path class="cls-2" d="M77.65,31.3A12.57,12.57,0,0,1,76,36.06a4.15,4.15,0,0,0-.61-.44,10.71,10.71,0,0,0,1.53-4.32H75.76v-.71h1.29c.08-.56.14-1.13.2-1.72l.72.06c-.06.57-.13,1.11-.21,1.66h2v.71Zm1.51,3.06a23.6,23.6,0,0,1,.81,3l-.61.21c0-.22-.08-.48-.13-.74a12.59,12.59,0,0,0-2.59.58,3.4,3.4,0,0,0-.22-.66c.17,0,.32-.36.53-.8a19.56,19.56,0,0,0,1.14-3.59l.71.18a22.67,22.67,0,0,1-1.44,4l1.72-.29c-.15-.59-.32-1.21-.49-1.74Zm5.44,3.12H81V38h-.67V32a8.43,8.43,0,0,1-.71,1,3.2,3.2,0,0,0-.45-.55A10.32,10.32,0,0,0,81,28.92l.64.16A14.12,14.12,0,0,1,81,30.76h3.5v.66H83.11v1.35h1.34v.65H83.11v1.36h1.35v.64H83.11V36.8H84.6ZM81,31.42v1.35h1.42V31.42Zm1.42,2H81v1.36h1.42ZM81,36.8h1.42V35.42H81Zm1.64-6.08A8.1,8.1,0,0,0,82,29.23l.63-.22a7.79,7.79,0,0,1,.72,1.45Z"/><path class="cls-2" d="M90.47,31.06v1.35h3.24V35.9c0,.43-.1.65-.42.78a6.25,6.25,0,0,1-1.75.13,2.84,2.84,0,0,0-.26-.74c.68,0,1.28,0,1.45,0s.23-.06.23-.2V33.13H90.47V38h-.75V33.13H87.38v3.71h-.74V32.41h3.08V31.06h-4v-.73h4.26A12.37,12.37,0,0,0,89.27,29L90,28.8a8.55,8.55,0,0,1,.78,1.48l-.13,0h4v.73Z"/><path class="cls-2" d="M104.43,36.52v.75H95.82v-.75Zm-.54-6.68v.74h-7.5v-.74Zm-.78,3.23v.75H97v-.75Z"/><path class="cls-2" d="M110.86,34.48c.52,1.59,1.44,2.68,2.33,2.67.3,0,.41-.41.47-1.46a1.87,1.87,0,0,0,.65.35c-.12,1.46-.42,1.84-1.15,1.84-1.35,0-2.49-1.41-3.07-3.4h-3V37l2.7-.76a4.45,4.45,0,0,0,.09.69,21.6,21.6,0,0,0-3.64,1.17,2.57,2.57,0,0,0-.35-.68.8.8,0,0,0,.44-.73V29.39h7.07v2.89h-2.93a9,9,0,0,0,.22,1.5h3.45v.7Zm-3.78-4.39v1.49h5.57V30.09Zm2.83,3.69a11.8,11.8,0,0,1-.2-1.5h-2.63v1.5Z"/><path class="cls-2" d="M122.84,36.84a11.23,11.23,0,0,0,1.66-.11c0,.21.08.55.12.71a9.72,9.72,0,0,1-1.79.09h-4.4c-1.53,0-2.27-.48-2.27-1.94V30h-.41v-.67h8.38V30h-7.24v5.64c0,.85.39,1.2,1.46,1.2Zm-5.16-3.31h2.6v2.56h-2.6Zm.62,2h1.33V34.07H118.3Zm4.17-2.7h-3.71v-2.2h3.71Zm-.73-1.67h-2.28v1.13h2.28Zm1.9,4.91H121V33.53h2.69Zm-.66-2h-1.39v1.48H123Z"/><path class="cls-2" d="M134.59,34.49h-4.1V38h-.76v-3.5h-4v-.73h4V30.28h-3.52v-.73H134v.73h-3.54v3.48h4.1Zm-7-3.72a9.7,9.7,0,0,1,.95,2.24l-.7.24a11.88,11.88,0,0,0-.9-2.28Zm4,2.3a14.41,14.41,0,0,0,1.08-2.35l.78.22a19.46,19.46,0,0,1-1.23,2.34Z"/><path class="cls-2" d="M137.1,30.24a6,6,0,0,1-1,1.19,3.65,3.65,0,0,0-.53-.49,5.76,5.76,0,0,0,1.54-2.13l.66.18c-.09.2-.18.4-.28.6h2.57v.65H138.2a9.62,9.62,0,0,1,1,.91l-.49.43a7.86,7.86,0,0,0-1-1l.36-.29Zm5.42,4.66h2v.63h-2v1.69c0,.43-.11.6-.44.69a7.81,7.81,0,0,1-1.78.1,2.19,2.19,0,0,0-.2-.63c.67,0,1.28,0,1.45,0s.22-.06.22-.2V35.53h-6V34.9h6v-.7h.75Zm2.17-5.3v.65h-2.2a8.24,8.24,0,0,1,.93,1l-.51.43a7.34,7.34,0,0,0-.95-1.08l.44-.33h-1a6.82,6.82,0,0,1-.84,1.2l-.09-.08v.47h3.66v.64h-3.66v.89h3.1V34h-7v-.6h3.13v-.89h-3.63v-.64h3.63v-.62h.56L140,31a5.21,5.21,0,0,0,1.24-2.2l.69.16a4.75,4.75,0,0,1-.23.63Zm-6.77,6a16.55,16.55,0,0,1,1.7,1.48l-.55.44A16.53,16.53,0,0,0,137.39,36Z"/><path class="cls-2" d="M154,30.07a7.47,7.47,0,0,1-1.46,2.65,6.69,6.69,0,0,0,2.28,1.47,2.79,2.79,0,0,0-.46.61l-.32-.15V38h-.71v-.33h-2.5V38h-.69V34.64c-.2.11-.4.2-.6.29a2,2,0,0,0-.36-.5h-1.05v1.79l1.31-.31.07.67-3.83.93-.14-.72.51-.11V33.27h.63v3.28l.77-.18v-4h-1.4V29.29h3.23v2.65a7.27,7.27,0,0,0,1.81-3.07l.71.17c-.1.29-.21.58-.32.85h1.93l.13,0Zm-7.29,1.62h1.88V29.94h-1.88Zm2.65,2.56a7.16,7.16,0,0,0,2.27-1.56,8.57,8.57,0,0,1-.92-1.36,7.11,7.11,0,0,1-.91,1.14,5.18,5.18,0,0,0-.52-.43v.3h-1.15v1.43h1.23Zm4.21.14a7.87,7.87,0,0,1-1.48-1.17,8.31,8.31,0,0,1-1.5,1.17ZM153.33,37V35h-2.5V37Zm-2.16-6.42-.1.19a7.7,7.7,0,0,0,1,1.49,6.27,6.27,0,0,0,1-1.68Z"/><path class="cls-2" d="M158.53,35.26h-3.2v-.6l3-4.55h1v4.42h1v.73h-1v2h-.86Zm0-.73V32.44c0-.36,0-1,.05-1.35h0c-.18.34-.38.65-.59,1l-1.67,2.44Z"/><path class="cls-2" d="M161,36.39l.45-.6a2.41,2.41,0,0,0,1.8.81A1.53,1.53,0,0,0,164.77,35a1.44,1.44,0,0,0-1.52-1.58,2,2,0,0,0-1.22.44l-.49-.31.23-3.42h3.57v.78h-2.77L162.39,33a2.23,2.23,0,0,1,1.09-.29A2,2,0,0,1,165.69,35a2.33,2.33,0,0,1-2.4,2.41A3.11,3.11,0,0,1,161,36.39Z"/><path class="cls-2" d="M169.86,34.37s0,.2,0,.3c-.14,1.92-.28,2.68-.54,2.95a.74.74,0,0,1-.58.26,6.53,6.53,0,0,1-1,0,1.7,1.7,0,0,0-.18-.62c.38,0,.75,0,.89,0a.4.4,0,0,0,.32-.1c.16-.16.28-.76.4-2.22h-2a15.41,15.41,0,0,0,.38-1.61h-.86v-.65h3.59v.65h-2.09c-.06.34-.14.7-.2,1Zm.16-2.44h-2.88V29.31H170Zm-.59-2.06h-1.72v1.5h1.72Zm1.92,3.5a8.89,8.89,0,0,1-1,4.64,2.61,2.61,0,0,0-.56-.41,7.85,7.85,0,0,0,.91-4.24V30.84h2v-2h.7v.7h2v.61h-2v.66h1.93l.12,0,.45.12c-.12.59-.29,1.28-.42,1.72l-.56-.14a8.84,8.84,0,0,0,.22-1.06h-3.74Zm1.43,1.25c-.08,1.59-.32,2.71-1.4,3.37a1.83,1.83,0,0,0-.43-.49c.94-.55,1.13-1.51,1.19-2.88Zm1.77-1.08a3.67,3.67,0,0,0,.61,0c0,.18,0,.38.06.55a2.36,2.36,0,0,1-.64.05h-1.2c-.64,0-.78-.27-.78-.91v-.3l-1,.09-.07-.53,1-.1v-.83h.64v.75l1.29-.13.07.54-1.36.13v.38c0,.27,0,.36.25.36Zm.33,3.57a.59.59,0,0,0,.26,0,.29.29,0,0,0,.13-.21,6.18,6.18,0,0,0,0-1,1.47,1.47,0,0,0,.55.3,6.37,6.37,0,0,1-.1,1.14.65.65,0,0,1-.3.38,1.42,1.42,0,0,1-.52.1h-.54a.93.93,0,0,1-.59-.16c-.16-.13-.19-.27-.19-.73V34.62h.63v2.29a.15.15,0,0,0,.08.16.39.39,0,0,0,.21,0Z"/><path class="cls-2" d="M177.11,36.47h1.63V31.22h-1.3v-.59a4.22,4.22,0,0,0,1.52-.52h.7v6.36h1.47v.76h-4Z"/><path class="cls-2" d="M184.78,34.31a14.64,14.64,0,0,0-.72-1.39V38h-.68V33.13a14.65,14.65,0,0,1-.93,2.81,5,5,0,0,0-.37-.73,14.39,14.39,0,0,0,1.19-3.72h-1.05v-.7h1.16V28.87h.68v1.92h1v.7h-1V32c.26.34,1,1.5,1.17,1.77Zm5.33,1.24a3.25,3.25,0,0,1-.88,1.21,18.16,18.16,0,0,1,2,.74l-.55.47a14.75,14.75,0,0,0-2-.8,9.23,9.23,0,0,1-3.17.85,1.91,1.91,0,0,0-.28-.55,10.34,10.34,0,0,0,2.63-.57c-.66-.19-1.32-.37-1.93-.51.23-.24.5-.53.75-.84h-1.34V35h1.79a7.42,7.42,0,0,0,.5-.74h-1.92V32.6h2.26v-.49h-2.05v-1h-.58V30.5h.58v-1h2.05v-.64h.7v.64h2.05v1h.62v.58h-.62v1H188.6v.49h2.3v1.62h-2.57c-.14.24-.31.49-.49.74h1.79c0-.14.08-.29.11-.43h.67c0,.14-.07.29-.09.43h1v.59Zm-3.8-1.83h1.59v-.61h-1.59ZM186.5,30v.55h1.4V30Zm1.4,1.6V31h-1.4v.6Zm-.5,3.94-.47.56c.51.12,1,.26,1.59.42a2.64,2.64,0,0,0,.88-1ZM188.6,30v.55H190V30Zm1.38,1.6V31H188.6v.6Zm-1.38,1.5v.61h1.6v-.61Z"/><path class="cls-2" d="M35.18,53.08l-.14.19a9.78,9.78,0,0,0,4.23,2.08,2.91,2.91,0,0,0-.47.58,11.42,11.42,0,0,1-2.45-1v.31H32.88V55a12,12,0,0,1-2.45,1,4.8,4.8,0,0,0-.42-.56,8.64,8.64,0,0,0,4.52-2.57Zm-3.93,2.64h6.68v2.51H31.25Zm.58,3h5.62V62H36.7v-.3H32.56V62h-.73Zm.06-1h2.36V56.24H31.89ZM33,56.34a4,4,0,0,1,.6,1.13l-.57.21a4.26,4.26,0,0,0-.56-1.17Zm-.46,2.89v.68H36.7v-.68Zm4.14,1.89v-.68H32.56v.68ZM36,54.69a8.37,8.37,0,0,1-1.31-1,7.23,7.23,0,0,1-1.3,1Zm1.31,1.55H34.88v1.48h2.38ZM35.52,57.5a8.08,8.08,0,0,0,.55-1.2l.63.21A11.78,11.78,0,0,1,36,57.68Z"/><path class="cls-2" d="M43,60.34l.67.43A12.69,12.69,0,0,1,40.56,62a5.7,5.7,0,0,0-.55-.55,10.78,10.78,0,0,0,3-1.11H41.09V56.07h7v4.27Zm4.75-4.84H41.51V53.26h6.24Zm-5.92,1.81h5.55v-.7H41.83Zm0,1.23h5.55v-.7H41.83Zm0,1.25h5.55v-.72H41.83ZM47,53.86H42.25v1H47ZM46,60.36c1,.3,2.36.79,3.14,1.11l-.64.54a26.25,26.25,0,0,0-3.14-1.17Z"/><path class="cls-2" d="M53.58,61.11c0,.4-.08.62-.34.75a3.27,3.27,0,0,1-1.33.14,2.13,2.13,0,0,0-.21-.71h1c.14,0,.19,0,.19-.19V58.64H51.32A9.91,9.91,0,0,1,50.57,62a2.45,2.45,0,0,0-.61-.36,11.71,11.71,0,0,0,.74-4.85V53.24h2.88Zm-.69-3.18V56.26H51.38v.54c0,.34,0,.73,0,1.13Zm-1.51-4v1.64h1.51V53.93ZM59,56.76a8.55,8.55,0,0,1-1.37,3.37,5.39,5.39,0,0,0,1.67,1.31,2.6,2.6,0,0,0-.48.57,6.07,6.07,0,0,1-1.62-1.35,5.85,5.85,0,0,1-1.51,1.28,2.59,2.59,0,0,0-.44-.55,5.48,5.48,0,0,0,1.53-1.27,10.65,10.65,0,0,1-1.33-2.8h-.25V62h-.7V53.27h4.22v1.92c0,.38-.09.57-.39.68a6.25,6.25,0,0,1-1.57.1,2.1,2.1,0,0,0-.24-.63h1.28c.16,0,.2,0,.2-.16V54h-2.8v2.67H58.4l.13,0Zm-2.9.56a8.63,8.63,0,0,0,1.09,2.24,7.52,7.52,0,0,0,1-2.24Z"/><path class="cls-2" d="M63,58.62A10.42,10.42,0,0,0,63.5,57h-1v4.12c0,.38-.08.58-.33.71A3.92,3.92,0,0,1,61,62a2.73,2.73,0,0,0-.23-.68h1c.12,0,.16,0,.16-.15V57.92a8,8,0,0,1-1.46,2.46,3.93,3.93,0,0,0-.39-.69A7.53,7.53,0,0,0,61.6,57H60.09v-.64h2.68A10.21,10.21,0,0,0,60.55,55l.46-.48c.31.13.65.29,1,.46A7,7,0,0,0,63,54H60.2v-.65h3.36l.13,0,.48.3a7.49,7.49,0,0,1-1.63,1.7,5.74,5.74,0,0,1,.84.6l-.38.43h.74l.11,0,.45.15-.15.53a6.61,6.61,0,0,0,1.79-.76,6,6,0,0,1-1-1.22,8,8,0,0,1-.72.71,4.72,4.72,0,0,0-.61-.43,6.15,6.15,0,0,0,1.9-2.44l.71.19a7.94,7.94,0,0,1-.46.86h3.32v.63h-.77a4.64,4.64,0,0,1-1.2,1.7,6.84,6.84,0,0,0,2.17.86,3.3,3.3,0,0,0-.47.64,7.18,7.18,0,0,1-2.27-1.06,7.82,7.82,0,0,1-2.18,1,2.8,2.8,0,0,0-.27-.39,8.66,8.66,0,0,1-.59,1.56Zm5.87-.18s0,.2,0,.32c-.18,1.86-.37,2.62-.66,2.91a.9.9,0,0,1-.62.26,10.57,10.57,0,0,1-1.11,0,1.94,1.94,0,0,0-.2-.69c.43,0,.83.05,1,.05a.42.42,0,0,0,.34-.1c.19-.19.34-.75.49-2.12H66.36A4.06,4.06,0,0,1,63.71,62a2.42,2.42,0,0,0-.44-.57,3.43,3.43,0,0,0,2.32-2.36H64v-.62h1.72c.06-.32.1-.65.13-1h.75c0,.34-.08.67-.14,1Zm-3.46-3.89a4.44,4.44,0,0,0,1.13,1.29,3.75,3.75,0,0,0,1-1.29Z"/><path class="cls-2" d="M79.1,59.77H76.72V61.2c0,.38-.08.58-.4.68a5.79,5.79,0,0,1-1.61.11,2.27,2.27,0,0,0-.24-.64c.61,0,1.17,0,1.33,0s.2,0,.2-.18V59.77H72.21A8.34,8.34,0,0,1,73.85,61l-.53.49a8.63,8.63,0,0,0-1.65-1.3l.49-.42H70.09v-.61H76v-.62c-2,.06-4,.1-5.49.12l0-.58,3.73,0V57.5H71.15V54.8h3.06v-.56H70.38v-.6h3.83v-.75h.72v.75H78.7v.6H74.93v.56h3.16v2.7H76.93a8.17,8.17,0,0,1,1.79,1l-.44.42a6.75,6.75,0,0,0-.57-.4l-1,0v.64H79.1Zm-7.25-3.86h2.36v-.6H71.85ZM74.21,57v-.63H71.85V57Zm.72-1.7v.6h2.43v-.6Zm2.43,1.07H74.93V57h2.43Zm-2.43,1.67,1.89,0a7.61,7.61,0,0,0-.76-.31l.24-.21H74.93Z"/><path class="cls-2" d="M82.86,58.93c0-.17-.06-.37-.1-.57a10.54,10.54,0,0,0-2.48.46,7.45,7.45,0,0,0-.24-.71c.21,0,.43-.29.73-.66a10.22,10.22,0,0,0,.82-1.11,5.42,5.42,0,0,0-1.37.24,6.12,6.12,0,0,0-.24-.67c.17,0,.34-.25.53-.55a12.37,12.37,0,0,0,1.28-2.5l.69.28A16,16,0,0,1,81,55.79l1-.1a13.26,13.26,0,0,0,.74-1.33l.66.38A20.41,20.41,0,0,1,81.18,58l1.44-.19c-.09-.34-.19-.69-.3-1l.57-.15a14.32,14.32,0,0,1,.58,2.12Zm-1.8.42a13.25,13.25,0,0,1-.51,2.46,4.23,4.23,0,0,0-.57-.22,10.17,10.17,0,0,0,.48-2.34Zm.93-.12c.11.68.22,1.55.25,2.13l-.59.1a17.13,17.13,0,0,0-.22-2.13Zm.89-.24a11.13,11.13,0,0,1,.5,1.6l-.55.18a12.5,12.5,0,0,0-.47-1.63Zm3-.61a4.81,4.81,0,0,1-2.24,3.15,2.77,2.77,0,0,0-.43-.53,3.94,3.94,0,0,0,1.83-2.13H83.76v-.62h1.58l.12,0ZM89,58.22c-.45.41-1,.87-1.4,1.2A4.33,4.33,0,0,0,89.2,61a2.85,2.85,0,0,0-.49.59,5.35,5.35,0,0,1-1.89-2.27v1.88c0,.38-.08.58-.35.7a3.61,3.61,0,0,1-1.32.13,2.92,2.92,0,0,0-.22-.69c.47,0,.89,0,1,0s.17,0,.17-.16V57.42h-2V53.93h1.53A7.19,7.19,0,0,0,86,52.87l.83.17-.42.89h2.25v3.49H86.82v.36a6,6,0,0,0,.47,1.15,12,12,0,0,0,1.12-1.16Zm-4.15-2.83h3.11v-.87H84.82Zm0,1.45h3.11V56H84.82Z"/><path class="cls-2" d="M94.8,62.43h-.42v-10h.42Z"/><path class="cls-2" d="M100.51,58.12A9.33,9.33,0,0,1,102,53.06l.57.26a9.66,9.66,0,0,0,0,9.61l-.57.27A9.37,9.37,0,0,1,100.51,58.12Z"/><path class="cls-2" d="M103.46,57.64c0-2.38.87-3.66,2.29-3.66S108,55.27,108,57.64s-.86,3.72-2.28,3.72S103.46,60,103.46,57.64Zm3.68,0c0-2.08-.56-2.93-1.39-2.93s-1.4.85-1.4,2.93.56,3,1.4,3S107.14,59.73,107.14,57.64Z"/><path class="cls-2" d="M109,60.69c2.15-2.14,3.36-3.42,3.36-4.58A1.26,1.26,0,0,0,111,54.72a2.08,2.08,0,0,0-1.52.85l-.53-.51A2.8,2.8,0,0,1,111.08,54a2,2,0,0,1,2.13,2.09c0,1.33-1.22,2.66-2.91,4.44.38,0,.82-.07,1.2-.07h2.07v.79H109Z"/><path class="cls-2" d="M114.5,62.93a9.66,9.66,0,0,0,0-9.61l.56-.26a9.42,9.42,0,0,1,0,10.14Z"/><path class="cls-2" d="M120.13,60.69c2.15-2.14,3.36-3.42,3.36-4.58a1.26,1.26,0,0,0-1.35-1.39,2.08,2.08,0,0,0-1.52.85l-.53-.51A2.8,2.8,0,0,1,122.25,54a2,2,0,0,1,2.13,2.09c0,1.33-1.22,2.66-2.91,4.44.38,0,.82-.07,1.2-.07h2.07v.79h-4.61Z"/><path class="cls-2" d="M125.53,60.36l.46-.6a2.42,2.42,0,0,0,1.82.84,1.34,1.34,0,0,0,1.49-1.31c0-.85-.59-1.41-2.28-1.41v-.7c1.51,0,2-.59,2-1.34a1.11,1.11,0,0,0-1.24-1.12,2.15,2.15,0,0,0-1.52.72l-.49-.57a2.9,2.9,0,0,1,2-.89c1.23,0,2.13.65,2.13,1.81a1.75,1.75,0,0,1-1.3,1.68v0a1.87,1.87,0,0,1,1.55,1.82,2.11,2.11,0,0,1-2.35,2A3,3,0,0,1,125.53,60.36Z"/><path class="cls-2" d="M131.33,57.94c0-2.86,1.29-4,2.72-4a2.25,2.25,0,0,1,1.71.75l-.51.57a1.55,1.55,0,0,0-1.17-.56c-1,0-1.85.77-1.89,3a2.3,2.3,0,0,1,1.67-.89,1.93,1.93,0,0,1,2,2.19,2.15,2.15,0,0,1-2.1,2.29C132.38,61.36,131.33,60.22,131.33,57.94Zm.88.57c.12,1.39.67,2.14,1.57,2.14.71,0,1.25-.63,1.25-1.58s-.44-1.51-1.32-1.51A1.87,1.87,0,0,0,132.21,58.51Z"/><path class="cls-2" d="M137.22,60.47h1.63V55.22h-1.3v-.59a4.22,4.22,0,0,0,1.52-.52h.7v6.36h1.47v.76h-4Z"/><path class="cls-2" d="M144.57,60.69c2.15-2.14,3.36-3.42,3.36-4.58a1.26,1.26,0,0,0-1.35-1.39,2.08,2.08,0,0,0-1.52.85l-.53-.51A2.8,2.8,0,0,1,146.69,54a2,2,0,0,1,2.13,2.09c0,1.33-1.22,2.66-2.91,4.44.38,0,.82-.07,1.2-.07h2.07v.79h-4.61Z"/><path class="cls-2" d="M150.17,57.64c0-2.38.87-3.66,2.29-3.66s2.28,1.29,2.28,3.66-.86,3.72-2.28,3.72S150.17,60,150.17,57.64Zm3.68,0c0-2.08-.56-2.93-1.39-2.93s-1.4.85-1.4,2.93.56,3,1.4,3S153.85,59.73,153.85,57.64Z"/><path class="cls-2" d="M155.67,60.69c2.15-2.14,3.36-3.42,3.36-4.58a1.26,1.26,0,0,0-1.35-1.39,2.08,2.08,0,0,0-1.52.85l-.53-.51A2.8,2.8,0,0,1,157.79,54a2,2,0,0,1,2.13,2.09c0,1.33-1.22,2.66-2.91,4.44.38,0,.82-.07,1.2-.07h2.07v.79h-4.61Z"/><path class="cls-2" d="M161.06,60.39l.45-.6a2.41,2.41,0,0,0,1.8.81A1.53,1.53,0,0,0,164.87,59a1.44,1.44,0,0,0-1.52-1.58,2,2,0,0,0-1.22.44l-.49-.31.23-3.42h3.57v.78h-2.77L162.49,57a2.23,2.23,0,0,1,1.09-.29A2,2,0,0,1,165.79,59a2.33,2.33,0,0,1-2.4,2.41A3.11,3.11,0,0,1,161.06,60.39Z"/><path class="cls-2" d="M34.2,67H31.09v1.61h-.71V66.44H34.2V65.8H30.81v-.53h7.54v.53H34.92v.64h3.89v2.14h-.73V67H34.92v2.26H34.2Zm3.65,6.29c.53,0,.63-.17.68-1.16a2,2,0,0,0,.65.24c-.11,1.21-.33,1.52-1.28,1.52H35.6c-1.11,0-1.43-.2-1.43-1v-.31H32v.52h-.72V69.6H38v3H34.89v.31c0,.34.12.4.74.4Zm-6.58-4.58c.63-.05,1.49-.18,2.37-.33l0,.47c-.77.16-1.53.32-2.18.44Zm.48-1.51a9.65,9.65,0,0,1,1.92.52l-.22.45a10.4,10.4,0,0,0-1.93-.57Zm.21,3v.68h2.21v-.68ZM34.17,72v-.69H32V72Zm3.08-1.87H34.89v.68h2.36Zm0,1.87v-.69H34.89V72Zm.42-2.72a14.14,14.14,0,0,0-2.33-.54l.18-.45a12.27,12.27,0,0,1,2.32.48Zm0-1.75a11.68,11.68,0,0,1-2,.57l-.26-.39a17.5,17.5,0,0,0,1.89-.6Z"/><path class="cls-2" d="M49.09,70H45v3c0,.5-.13.73-.51.84a7.16,7.16,0,0,1-2,.14,2.93,2.93,0,0,0-.32-.76c.81,0,1.54,0,1.76,0s.27-.06.27-.24V70H40.13v-.74h4.12V67.86a12.27,12.27,0,0,0,2.5-1.58H41.12v-.73h6.44l.16,0,.56.42A14.14,14.14,0,0,1,45,68.24v1.05h4.08Z"/><path class="cls-2" d="M52.84,65.11a15.54,15.54,0,0,1-.84,2v7h-.69V68.28a11.2,11.2,0,0,1-1,1.28,4.55,4.55,0,0,0-.41-.68,11.52,11.52,0,0,0,2.23-4ZM59,66.52v.63H52.71v-.63Zm-5.75,4.27h5.06V74h-.66v-.36H53.94V74h-.65Zm5-2.24H53.43V68h4.82Zm-4.82.79h4.82V70H53.43Zm.51,2.07V73h3.75V71.41Zm1.76-5A9.47,9.47,0,0,0,55,65.13l.63-.26a7.66,7.66,0,0,1,.73,1.3Z"/><path class="cls-2" d="M61.54,66.34a7.64,7.64,0,0,1-1,1.28,4.69,4.69,0,0,0-.57-.49,6,6,0,0,0,1.57-2.29l.7.19a5.86,5.86,0,0,1-.32.67h2.58v.64Zm1.13,3.54c.41.36,1.36,1.25,1.6,1.49l-.48.58c-.22-.29-.71-.85-1.12-1.3V74H62V70.67a10.6,10.6,0,0,1-1.53,2.26,2.5,2.5,0,0,0-.47-.57,9.07,9.07,0,0,0,1.85-2.85H60.22v-.69H62V67.7h.71v1.12h1.58v.69H62.67Zm.47-2.06a8.07,8.07,0,0,0-1-1.09l.45-.39a7.17,7.17,0,0,1,1,1Zm5.92-2.11v.65h-2a12.44,12.44,0,0,1,1,1l-.47.46a10.17,10.17,0,0,0-1.08-1.18l.38-.33H65.81a7,7,0,0,1-.94,1.25,4.66,4.66,0,0,0-.63-.43,5.34,5.34,0,0,0,1.46-2.34l.72.16a4.76,4.76,0,0,1-.28.71Zm-4.5,2.34h4.12v5.88h-.74v-.37H65.28V74h-.72Zm.72.67v1h2.66v-1Zm2.66,2.59v-1H65.28v1Zm0,1.62v-1H65.28v1Z"/><path class="cls-2" d="M74.8,74.43h-.42v-10h.42Z"/><path class="cls-2" d="M80.12,70.52c0-1.76,1.11-2.85,2.35-2.85A2.24,2.24,0,0,1,84,68.3l0-.93V65.28h.9v8h-.74L84,72.59h0a2.42,2.42,0,0,1-1.65.77C81,73.36,80.12,72.33,80.12,70.52ZM84,71.85V69a1.92,1.92,0,0,0-1.33-.58c-.88,0-1.57.84-1.57,2.08s.54,2.09,1.5,2.09A1.9,1.9,0,0,0,84,71.85Z"/><path class="cls-2" d="M86.3,70.52a2.54,2.54,0,1,1,2.52,2.84A2.6,2.6,0,0,1,86.3,70.52Zm4.1,0c0-1.25-.64-2.09-1.58-2.09s-1.57.84-1.57,2.09.63,2.08,1.57,2.08S90.4,71.77,90.4,70.52Z"/><path class="cls-2" d="M92.77,67.8h.75l.08.79h0a2.6,2.6,0,0,1,1.82-.92c1.14,0,1.66.74,1.66,2.12v3.44H96.2V69.91c0-1-.31-1.44-1-1.44a2.08,2.08,0,0,0-1.49.82v3.94h-.91Z"/><path class="cls-2" d="M98.47,70.52A2.54,2.54,0,1,1,101,73.36,2.6,2.6,0,0,1,98.47,70.52Zm4.1,0c0-1.25-.64-2.09-1.58-2.09s-1.57.84-1.57,2.09.63,2.08,1.57,2.08S102.57,71.77,102.57,70.52Z"/><path class="cls-2" d="M104.94,67.8h.75l.08,1h0a1.87,1.87,0,0,1,1.54-1.13,1.16,1.16,0,0,1,.58.12l-.17.8a1.14,1.14,0,0,0-.53-.09c-.45,0-1,.31-1.37,1.24v3.49h-.91Z"/><path class="cls-2" d="M108,72.67a.66.66,0,1,1,1.32,0,.66.66,0,1,1-1.32,0Z"/><path class="cls-2" d="M110.36,72.61l.45-.6a2.46,2.46,0,0,0,1.61.64c.72,0,1.07-.38,1.07-.85s-.64-.8-1.24-1c-.76-.28-1.59-.65-1.59-1.57s.7-1.53,1.88-1.53a2.76,2.76,0,0,1,1.68.61l-.44.58a2,2,0,0,0-1.23-.48c-.69,0-1,.37-1,.78s.56.71,1.17.94c.79.3,1.66.62,1.66,1.65,0,.88-.7,1.61-2,1.61A3.28,3.28,0,0,1,110.36,72.61Z"/><path class="cls-2" d="M115.24,70.52a2.62,2.62,0,0,1,2.45-2.85c1.38,0,2.16,1,2.16,2.54a3.55,3.55,0,0,1,0,.52h-3.66a1.8,1.8,0,0,0,1.8,1.9,2.34,2.34,0,0,0,1.36-.43l.33.6a3.23,3.23,0,0,1-1.8.56A2.6,2.6,0,0,1,115.24,70.52Zm3.81-.45c0-1.09-.5-1.68-1.35-1.68a1.67,1.67,0,0,0-1.56,1.68Z"/><path class="cls-2" d="M121.19,67.8h.75l.08,1h0a1.87,1.87,0,0,1,1.54-1.13,1.16,1.16,0,0,1,.58.12l-.17.8a1.14,1.14,0,0,0-.53-.09c-.45,0-1,.31-1.37,1.24v3.49h-.91Z"/><path class="cls-2" d="M124.57,67.8h1l1,3.09c.17.53.34,1.09.51,1.6h0c.17-.51.34-1.07.5-1.6l1-3.09h.9l-1.93,5.43h-1.06Z"/><path class="cls-2" d="M130.42,66.08a.61.61,0,1,1,.61.61A.57.57,0,0,1,130.42,66.08Zm.15,1.72h.91v5.43h-.91Z"/><path class="cls-2" d="M132.91,70.52a2.64,2.64,0,0,1,2.62-2.85,2.36,2.36,0,0,1,1.59.63l-.47.6a1.64,1.64,0,0,0-1.08-.47c-1,0-1.71.84-1.71,2.09s.68,2.08,1.68,2.08a1.91,1.91,0,0,0,1.28-.54l.4.61a2.63,2.63,0,0,1-1.76.69A2.55,2.55,0,0,1,132.91,70.52Z"/><path class="cls-2" d="M137.76,70.52a2.62,2.62,0,0,1,2.45-2.85c1.38,0,2.16,1,2.16,2.54a3.55,3.55,0,0,1,0,.52h-3.66a1.8,1.8,0,0,0,1.8,1.9,2.34,2.34,0,0,0,1.36-.43l.33.6a3.23,3.23,0,0,1-1.8.56A2.6,2.6,0,0,1,137.76,70.52Zm3.81-.45c0-1.09-.5-1.68-1.35-1.68a1.67,1.67,0,0,0-1.56,1.68Z"/><path class="cls-2" d="M143.1,72.61l.45-.6a2.46,2.46,0,0,0,1.61.64c.72,0,1.07-.38,1.07-.85s-.64-.8-1.24-1c-.76-.28-1.59-.65-1.59-1.57s.7-1.53,1.88-1.53a2.76,2.76,0,0,1,1.68.61l-.44.58a2,2,0,0,0-1.23-.48c-.69,0-1,.37-1,.78s.56.71,1.17.94c.79.3,1.66.62,1.66,1.65,0,.88-.7,1.61-2,1.61A3.28,3.28,0,0,1,143.1,72.61Z"/><path class="cls-2" d="M148.2,72.67a.66.66,0,1,1,1.32,0,.66.66,0,1,1-1.32,0Z"/><path class="cls-2" d="M150.82,71.55v-3H150v-.69l.85-.06.11-1.52h.76V67.8h1.47v.75h-1.47v3c0,.67.21,1.05.84,1.05a1.92,1.92,0,0,0,.62-.14l.18.68a3.42,3.42,0,0,1-1,.2C151.21,73.36,150.82,72.63,150.82,71.55Z"/><path class="cls-2" d="M153.78,67.8h.93l.81,3.14c.11.52.22,1,.32,1.52h0c.12-.51.23-1,.37-1.52l.84-3.14H158l.85,3.14.38,1.52h0c.12-.51.22-1,.34-1.52l.8-3.14h.86l-1.46,5.43h-1.1l-.79-2.93c-.14-.51-.24-1-.37-1.55h0c-.12.54-.23,1-.37,1.57l-.76,2.91h-1.07Z"/><path class="cls-2" d="M162.09,71A4.7,4.7,0,0,1,166.75,66a3.46,3.46,0,0,1,3.67,3.69c0,2-1.22,3-2.23,3a1,1,0,0,1-1.15-.85h0a1.94,1.94,0,0,1-1.36.77c-.76,0-1.34-.57-1.34-1.59a2.46,2.46,0,0,1,2.15-2.58,1,1,0,0,1,.89.54h0l.13-.46h.6l-.44,2.23c-.21.9,0,1.31.61,1.31s1.51-.85,1.51-2.3a2.89,2.89,0,0,0-3.1-3.12,4.09,4.09,0,0,0-3.91,4.3,3.17,3.17,0,0,0,3.32,3.42,3.68,3.68,0,0,0,1.82-.5l.24.54A4,4,0,0,1,166,75,3.74,3.74,0,0,1,162.09,71Zm4.78.35.31-1.78a.77.77,0,0,0-.72-.47c-.88,0-1.42,1.06-1.42,1.9s.34,1,.79,1A1.48,1.48,0,0,0,166.87,71.31Z"/><path class="cls-2" d="M171.5,74.27a1.52,1.52,0,0,1,.8-1.23v0a1,1,0,0,1-.5-.89,1.32,1.32,0,0,1,.61-1v0a1.91,1.91,0,0,1-.71-1.46,1.93,1.93,0,0,1,2-1.93,2.54,2.54,0,0,1,.76.13h1.89v.71h-1.11a1.53,1.53,0,0,1,.44,1.11,1.86,1.86,0,0,1-2,1.89,1.89,1.89,0,0,1-.81-.19.81.81,0,0,0-.35.65c0,.35.22.59.95.59h1.06c1.26,0,1.9.4,1.9,1.29s-1.07,1.88-2.75,1.88C172.41,75.73,171.5,75.21,171.5,74.27Zm4.1-.28c0-.5-.39-.67-1.11-.67h-.94a3.05,3.05,0,0,1-.7-.09,1.13,1.13,0,0,0-.55.92c0,.58.59,1,1.57,1S175.6,74.56,175.6,74Zm-.7-4.39a1.16,1.16,0,1,0-2.32,0,1.17,1.17,0,1,0,2.32,0Z"/><path class="cls-2" d="M177.54,67.8h.75l.08,1h0a1.87,1.87,0,0,1,1.54-1.13,1.16,1.16,0,0,1,.58.12l-.17.8a1.14,1.14,0,0,0-.53-.09c-.45,0-1,.31-1.37,1.24v3.49h-.91Z"/><path class="cls-2" d="M180.9,70.52a2.62,2.62,0,0,1,2.45-2.85c1.38,0,2.16,1,2.16,2.54a3.55,3.55,0,0,1,0,.52h-3.66a1.8,1.8,0,0,0,1.8,1.9A2.34,2.34,0,0,0,185,72.2l.33.6a3.23,3.23,0,0,1-1.8.56A2.6,2.6,0,0,1,180.9,70.52Zm3.81-.45c0-1.09-.5-1.68-1.35-1.68a1.67,1.67,0,0,0-1.56,1.68Z"/><path class="cls-2" d="M186.44,70.52a2.62,2.62,0,0,1,2.45-2.85c1.38,0,2.16,1,2.16,2.54a3.55,3.55,0,0,1,0,.52h-3.66a1.8,1.8,0,0,0,1.8,1.9,2.34,2.34,0,0,0,1.36-.43l.33.6a3.23,3.23,0,0,1-1.8.56A2.6,2.6,0,0,1,186.44,70.52Zm3.81-.45c0-1.09-.5-1.68-1.35-1.68a1.67,1.67,0,0,0-1.56,1.68Z"/><path class="cls-2" d="M192.39,67.8h.75l.08.79h0a2.6,2.6,0,0,1,1.82-.92c1.14,0,1.66.74,1.66,2.12v3.44h-.91V69.91c0-1-.31-1.44-1-1.44a2.08,2.08,0,0,0-1.49.82v3.94h-.91Z"/><path class="cls-2" d="M198.5,67.8h.75l.08.63h0a2.9,2.9,0,0,1,1.73-.76c1.4,0,2.16,1.09,2.16,2.76,0,1.86-1.11,2.93-2.36,2.93a2.45,2.45,0,0,1-1.5-.63l0,1v1.84h-.91Zm3.8,2.64c0-1.2-.4-2-1.43-2a2.26,2.26,0,0,0-1.46.75V72a2.1,2.1,0,0,0,1.33.57C201.64,72.6,202.3,71.79,202.3,70.44Z"/><path class="cls-2" d="M204.29,70.52a2.62,2.62,0,0,1,2.45-2.85c1.38,0,2.16,1,2.16,2.54a3.55,3.55,0,0,1,0,.52H205.2a1.8,1.8,0,0,0,1.8,1.9,2.34,2.34,0,0,0,1.36-.43l.33.6a3.23,3.23,0,0,1-1.8.56A2.6,2.6,0,0,1,204.29,70.52Zm3.81-.45c0-1.09-.5-1.68-1.35-1.68a1.67,1.67,0,0,0-1.56,1.68Z"/><path class="cls-2" d="M209.74,71.82c0-1.18,1-1.77,3.34-2,0-.7-.23-1.36-1.12-1.36a3,3,0,0,0-1.63.58l-.36-.63a4,4,0,0,1,2.14-.71c1.32,0,1.88.88,1.88,2.22v3.34h-.75l-.08-.65h0a2.91,2.91,0,0,1-1.8.78A1.47,1.47,0,0,1,209.74,71.82Zm3.34.09V70.39c-1.83.22-2.45.67-2.45,1.37s.42.87,1,.87A2.22,2.22,0,0,0,213.08,71.91Z"/><path class="cls-2" d="M215.31,70.52a2.64,2.64,0,0,1,2.62-2.85,2.36,2.36,0,0,1,1.59.63l-.47.6a1.64,1.64,0,0,0-1.08-.47c-1,0-1.71.84-1.71,2.09s.68,2.08,1.68,2.08a1.91,1.91,0,0,0,1.28-.54l.4.61a2.63,2.63,0,0,1-1.76.69A2.55,2.55,0,0,1,215.31,70.52Z"/><path class="cls-2" d="M220.16,70.52a2.62,2.62,0,0,1,2.45-2.85c1.38,0,2.16,1,2.16,2.54a3.55,3.55,0,0,1,0,.52h-3.66a1.8,1.8,0,0,0,1.8,1.9,2.34,2.34,0,0,0,1.36-.43l.33.6a3.23,3.23,0,0,1-1.8.56A2.6,2.6,0,0,1,220.16,70.52Zm3.81-.45c0-1.09-.5-1.68-1.35-1.68a1.67,1.67,0,0,0-1.56,1.68Z"/><path class="cls-2" d="M225.92,72.67a.66.66,0,1,1,1.32,0,.66.66,0,1,1-1.32,0Z"/><path class="cls-2" d="M228.35,70.52a2.54,2.54,0,1,1,2.52,2.84A2.6,2.6,0,0,1,228.35,70.52Zm4.1,0c0-1.25-.64-2.09-1.58-2.09s-1.57.84-1.57,2.09.63,2.08,1.57,2.08S232.45,71.77,232.45,70.52Z"/><path class="cls-2" d="M234.82,67.8h.75l.08,1h0a1.87,1.87,0,0,1,1.54-1.13,1.16,1.16,0,0,1,.58.12l-.17.8a1.14,1.14,0,0,0-.53-.09c-.45,0-1,.31-1.37,1.24v3.49h-.91Z"/><path class="cls-2" d="M238.18,74.27A1.52,1.52,0,0,1,239,73v0a1,1,0,0,1-.5-.89,1.32,1.32,0,0,1,.61-1v0a1.91,1.91,0,0,1-.71-1.46,1.93,1.93,0,0,1,2-1.93,2.54,2.54,0,0,1,.76.13h1.89v.71H242a1.53,1.53,0,0,1,.44,1.11,1.86,1.86,0,0,1-2,1.89,1.89,1.89,0,0,1-.81-.19.81.81,0,0,0-.35.65c0,.35.22.59,1,.59h1.06c1.26,0,1.9.4,1.9,1.29s-1.07,1.88-2.75,1.88C239.09,75.73,238.18,75.21,238.18,74.27Zm4.1-.28c0-.5-.39-.67-1.11-.67h-.94a3.05,3.05,0,0,1-.7-.09,1.13,1.13,0,0,0-.55.92c0,.58.59,1,1.57,1S242.28,74.56,242.28,74Zm-.7-4.39a1.16,1.16,0,1,0-2.32,0,1.17,1.17,0,1,0,2.32,0Z"/><path class="cls-2" d="M32.45,79.11a13.82,13.82,0,0,1-.68,1.23V86h-.68V81.31a11.5,11.5,0,0,1-.86,1,5,5,0,0,0-.44-.65,9.87,9.87,0,0,0,2-2.82l.64.23h1c.06-.26.12-.57.17-.87h-.93v-.56h1c0-.27.09-.54.11-.77l.64,0c0,.23-.07.48-.11.73H36v1.43h.64v.59H32.45Zm-.17-2a10,10,0,0,1-2,2.28,5.12,5.12,0,0,0-.4-.55,7.37,7.37,0,0,0,1.69-2Zm2.92,7.66V86h-.68V84.79h-2c.09-.41.19-1,.26-1.51h-.41v-.56h2.17v-.58H32.81v-2h3.46v2H35.2v.58h1.35v.56H35.2v.94h1.59v.57Zm-.68-.57v-.94H33.37c0,.31-.09.64-.14.94Zm-1.13-2.61h2.26v-.93H33.39Zm.93-3.4-.17.87H35.4v-.87Zm4.86,2.63h-.87V85c0,.41-.07.61-.35.74a3.9,3.9,0,0,1-1.37.13,2.7,2.7,0,0,0-.2-.71h1c.14,0,.17,0,.17-.17v-4.2H36.53v-.68h2.65ZM39,78.17H36.7v-.68H39Z"/><path class="cls-2" d="M44.67,79c-.23.58-.5,1.26-.75,1.77h1.41v.68H40.14v-.68H43.2a13.35,13.35,0,0,0,.73-1.93Zm.44-.22H40.43v-.68H42.5c-.11-.33-.27-.72-.41-1l.65-.19a9.41,9.41,0,0,1,.53,1.22h1.84Zm-4.4,3.58h4.16v3.54h-.73v-.4H41.41v.48h-.7Zm.95-1.63A7.7,7.7,0,0,0,41,79l.63-.16a6.2,6.2,0,0,1,.66,1.69ZM41.41,83v1.81h2.73V83ZM49,77.71c-.36.91-.82,2.05-1.24,3a3.33,3.33,0,0,1,1.11,2.4,1.49,1.49,0,0,1-.45,1.27,1.27,1.27,0,0,1-.62.21,5.93,5.93,0,0,1-.85,0,1.77,1.77,0,0,0-.2-.71,5.22,5.22,0,0,0,.77,0,1,1,0,0,0,.4-.1.89.89,0,0,0,.26-.78,3.18,3.18,0,0,0-1.14-2.25c.37-.84.76-1.9,1-2.67H46.52V86h-.67V77.41h2.56l.12,0Z"/><path class="cls-2" d="M54.42,83.89A12.46,12.46,0,0,0,53,82.55v2.54c0,.43-.11.61-.38.73a4.14,4.14,0,0,1-1.43.12,2.81,2.81,0,0,0-.23-.65H52c.16,0,.21-.05.21-.2V82.87c-.66.54-1.32,1.08-1.88,1.51L50,83.79c.56-.41,1.42-1.07,2.24-1.74V79.29H50.11V78.6h2.13V76.88H53V78.6h2v.69H53v1.93a12.78,12.78,0,0,0,1.17-1.44l.64.27a14.43,14.43,0,0,1-1.63,1.82,14,14,0,0,1,1.79,1.53ZM50.92,80a7.2,7.2,0,0,1,1.13,1.61l-.57.31a7.77,7.77,0,0,0-1.12-1.65Zm3.38-1.49a5,5,0,0,0-1-1.16l.52-.33a5.28,5.28,0,0,1,1,1.13Zm4.21,1a12.06,12.06,0,0,1-1.11,4,5.43,5.43,0,0,0,1.8,1.88,3.39,3.39,0,0,0-.54.64A5.72,5.72,0,0,1,57,84.14,5,5,0,0,1,54.73,86a2.79,2.79,0,0,0-.54-.61,4.77,4.77,0,0,0,2.4-2,13.37,13.37,0,0,1-.92-2.61,6.56,6.56,0,0,1-.6,1,5,5,0,0,0-.58-.52A10,10,0,0,0,56,76.88l.73.11a17,17,0,0,1-.36,1.81h2.77v.69Zm-2.34,0a2.29,2.29,0,0,1-.09.31A12.6,12.6,0,0,0,57,82.66a11,11,0,0,0,.84-3.17Z"/><path class="cls-2" d="M68.85,82.93H65v2.15c0,.44-.11.66-.46.77a6,6,0,0,1-1.7.13,3,3,0,0,0-.34-.73c.68,0,1.32,0,1.49,0s.24-.05.24-.19V82.93H60.3v-.71h3.9V81.6a7.93,7.93,0,0,0,1.74-1.17h-4v-.69h4.75l.16,0,.51.38A10.3,10.3,0,0,1,65,81.85v.37h3.88Zm-7.7-3h-.73v-2h3.94a6,6,0,0,0-.52-.88l.71-.24a5.53,5.53,0,0,1,.67,1.12h3.53v2H68V78.63H61.15Z"/><path class="cls-2" d="M71.62,78.19a6.83,6.83,0,0,1-1,1.29,3.52,3.52,0,0,0-.52-.49,6.22,6.22,0,0,0,1.51-2.18l.65.18q-.12.3-.27.6h2.56v.6H72.64a6.92,6.92,0,0,1,.9.9l-.49.41a7.24,7.24,0,0,0-1-1l.38-.29Zm7,4.59s0,.2,0,.31c-.14,1.38-.27,2-.53,2.23a.79.79,0,0,1-.62.25c-.26,0-.75,0-1.26,0a1.67,1.67,0,0,0-.2-.69,11.27,11.27,0,0,0,1.13.05.54.54,0,0,0,.36-.08,3.07,3.07,0,0,0,.34-1.43H74.9V86h-.73V83.7A9.16,9.16,0,0,1,70.81,86a2.7,2.7,0,0,0-.48-.59,8.5,8.5,0,0,0,3.25-2H70.94c.13-.6.27-1.49.35-2.2h2.88V80.3H70.94v-.62h7.31v2.17H74.9v.93Zm-6.66-.93c0,.31-.1.64-.15.93h2.4v-.93Zm7.19-4.25v.59H77a8.2,8.2,0,0,1,1,.9l-.49.42a9.89,9.89,0,0,0-1-1l.43-.35H75.74a5.4,5.4,0,0,1-.76.92,3.51,3.51,0,0,0-.56-.44,4.22,4.22,0,0,0,1.24-1.86l.69.16c-.08.22-.17.42-.26.63ZM74.9,81.22h2.62V80.3H74.9Z"/><path class="cls-2" d="M80.47,84.47H82.1V79.22H80.8v-.59a4.22,4.22,0,0,0,1.52-.52H83v6.36h1.47v.76h-4Z"/><path class="cls-2" d="M86,84.47h1.63V79.22h-1.3v-.59a4.22,4.22,0,0,0,1.52-.52h.7v6.36H90v.76H86Z"/><path class="cls-2" d="M91.57,84.47H93.2V79.22H91.9v-.59a4.22,4.22,0,0,0,1.52-.52h.7v6.36h1.47v.76h-4Z"/><path class="cls-2" d="M97.12,84.47h1.63V79.22h-1.3v-.59A4.22,4.22,0,0,0,99,78.11h.7v6.36h1.47v.76h-4Z"/><path class="cls-2" d="M102.08,84.36l.46-.6a2.42,2.42,0,0,0,1.82.84,1.34,1.34,0,0,0,1.49-1.31c0-.85-.59-1.41-2.28-1.41v-.7c1.51,0,2-.59,2-1.34a1.11,1.11,0,0,0-1.24-1.12,2.15,2.15,0,0,0-1.52.72l-.49-.57A2.9,2.9,0,0,1,104.4,78c1.23,0,2.13.65,2.13,1.81a1.75,1.75,0,0,1-1.3,1.68v0a1.87,1.87,0,0,1,1.55,1.82,2.11,2.11,0,0,1-2.35,2A3,3,0,0,1,102.08,84.36Z"/><path class="cls-2" d="M107.88,81.94c0-2.86,1.29-4,2.72-4a2.25,2.25,0,0,1,1.71.75l-.51.57a1.55,1.55,0,0,0-1.17-.56c-1,0-1.85.77-1.89,3a2.3,2.3,0,0,1,1.67-.89,1.93,1.93,0,0,1,2,2.19,2.15,2.15,0,0,1-2.1,2.29C108.93,85.36,107.88,84.22,107.88,81.94Zm.88.57c.12,1.39.67,2.14,1.57,2.14.71,0,1.25-.63,1.25-1.58s-.44-1.51-1.32-1.51A1.87,1.87,0,0,0,108.76,82.51Z"/><path class="cls-2" d="M113.33,84.69c2.15-2.14,3.36-3.42,3.36-4.58a1.26,1.26,0,0,0-1.35-1.39,2.08,2.08,0,0,0-1.52.85l-.53-.51A2.8,2.8,0,0,1,115.45,78a2,2,0,0,1,2.13,2.09c0,1.33-1.22,2.66-2.91,4.44.38,0,.82-.07,1.2-.07h2.07v.79h-4.61Z"/><path class="cls-2" d="M119,84.61l.51-.57a1.51,1.51,0,0,0,1.17.56c1,0,1.85-.78,1.89-3.06a2.27,2.27,0,0,1-1.67.92,1.94,1.94,0,0,1-2-2.2A2.15,2.15,0,0,1,121,78c1.41,0,2.46,1.14,2.46,3.42,0,2.86-1.29,4-2.71,4A2.24,2.24,0,0,1,119,84.61Zm2-2.83a1.93,1.93,0,0,0,1.5-1c-.12-1.37-.68-2.11-1.59-2.11-.7,0-1.24.62-1.24,1.56S120.18,81.78,121.07,81.78Z"/><path class="cls-2" d="M127.39,83.26h-3.2v-.6l3-4.55h1v4.42h1v.73h-1v2h-.86Zm0-.73V80.44c0-.36,0-1,0-1.35h0c-.18.34-.38.65-.59,1l-1.67,2.44Z"/><path class="cls-2" d="M130,81.64c0-2.38.87-3.66,2.29-3.66s2.28,1.29,2.28,3.66-.86,3.72-2.28,3.72S130,84,130,81.64Zm3.68,0c0-2.08-.56-2.93-1.39-2.93s-1.4.85-1.4,2.93.56,3,1.4,3S133.71,83.73,133.71,81.64Z"/><path class="cls-2" d="M138.72,82.37s0,.2,0,.3c-.14,1.92-.28,2.68-.54,3a.74.74,0,0,1-.58.26,6.53,6.53,0,0,1-1,0,1.7,1.7,0,0,0-.18-.62c.38,0,.75,0,.89,0a.4.4,0,0,0,.32-.1c.16-.16.28-.76.4-2.22h-2a15.41,15.41,0,0,0,.38-1.61h-.86v-.65h3.59v.65H137c-.06.34-.14.7-.2,1Zm.16-2.44H136V77.31h2.88Zm-.59-2.06h-1.72v1.5h1.72Zm1.92,3.5a8.89,8.89,0,0,1-1,4.64,2.61,2.61,0,0,0-.56-.41,7.85,7.85,0,0,0,.91-4.24V78.84h2v-2h.7v.7h2v.61h-2v.66h1.93l.12,0,.45.12c-.12.59-.29,1.28-.42,1.72l-.56-.14a8.84,8.84,0,0,0,.22-1.06h-3.74Zm1.43,1.25c-.08,1.59-.32,2.71-1.4,3.37a1.83,1.83,0,0,0-.43-.49c.94-.55,1.13-1.51,1.19-2.88Zm1.77-1.08a3.67,3.67,0,0,0,.61-.05c0,.18,0,.38.06.55a2.36,2.36,0,0,1-.64,0h-1.2c-.64,0-.78-.27-.78-.91v-.3l-1,.09-.07-.53,1.05-.1v-.83h.64v.75l1.29-.13.07.54-1.36.13v.38c0,.27,0,.36.25.36Zm.33,3.57a.59.59,0,0,0,.26,0,.29.29,0,0,0,.13-.21,6.18,6.18,0,0,0,0-1,1.47,1.47,0,0,0,.55.3,6.37,6.37,0,0,1-.1,1.14.65.65,0,0,1-.3.38,1.42,1.42,0,0,1-.52.1h-.54a.93.93,0,0,1-.59-.16c-.16-.13-.19-.27-.19-.73V82.62h.63v2.29a.15.15,0,0,0,.08.16.39.39,0,0,0,.21,0Z"/><path class="cls-2" d="M31,95.36a13.06,13.06,0,0,1-.5,2.41,4.23,4.23,0,0,0-.57-.22,11.22,11.22,0,0,0,.48-2.3Zm2-.58q0-.23-.12-.51a11.14,11.14,0,0,0-2.69.55,5.06,5.06,0,0,0-.23-.69c.21,0,.44-.3.74-.67a10.32,10.32,0,0,0,.82-1.12,4.51,4.51,0,0,0-1.39.25c0-.16-.16-.5-.23-.69.16,0,.34-.24.54-.54a12.63,12.63,0,0,0,1.36-2.52l.68.29a17.28,17.28,0,0,1-1.6,2.71l1-.1c.28-.45.56-.94.8-1.43l.62.38A18.6,18.6,0,0,1,31.14,94l1.63-.23c-.12-.33-.24-.66-.38-1l.54-.19a9.9,9.9,0,0,1,.71,2Zm-1,.42a19.51,19.51,0,0,1,.27,2.1l-.59.14a17.21,17.21,0,0,0-.24-2.12Zm1.07,1.73a13.18,13.18,0,0,0-.53-1.81l.52-.17a12.27,12.27,0,0,1,.57,1.8Zm5.12.23c.21,0,.25-.19.27-1.32a2.18,2.18,0,0,0,.66.29c-.07,1.34-.25,1.69-.86,1.69h-.85c-.7,0-.87-.22-.87-1v-3.5l-.94.11c-.08,2.36-.38,3.75-2.14,4.57a1.69,1.69,0,0,0-.45-.58c1.57-.67,1.81-1.84,1.87-3.9a4,4,0,0,0-1,.2,6.68,6.68,0,0,0-.26-.74c.2,0,.42-.31.69-.72a15.78,15.78,0,0,0,.86-1.46H33.76v-.7h1.82c.2-.41.39-.84.55-1.26l.8.24c-.15.34-.32.69-.49,1H39v.7H36.08a16.7,16.7,0,0,1-1.28,2l2.94-.28c-.22-.38-.45-.76-.67-1.1l.61-.26a18,18,0,0,1,1.4,2.39l-.66.32a8.22,8.22,0,0,0-.36-.76l-.76.08v3.58c0,.26,0,.31.25.31Z"/><path class="cls-2" d="M49.15,92.93v.81H40.07v-.81Z"/><path class="cls-2" d="M51,95.35a12.76,12.76,0,0,1-.49,2.41,3.27,3.27,0,0,0-.55-.2,11.91,11.91,0,0,0,.47-2.31ZM50,92c.16,0,.33-.25.53-.55a12.16,12.16,0,0,0,1.28-2.52l.63.27a17.82,17.82,0,0,1-1.49,2.67l1-.1a14.85,14.85,0,0,0,.73-1.37l.59.34A20.6,20.6,0,0,1,51.05,94l1.73-.24c-.11-.35-.25-.69-.38-1l.52-.18a10.35,10.35,0,0,1,.68,1.91l-.56.22a4,4,0,0,0-.1-.41,13,13,0,0,0-2.7.51c0-.14-.15-.46-.22-.64.2,0,.42-.3.71-.67a12.75,12.75,0,0,0,.82-1.17,4.31,4.31,0,0,0-1.38.25A4.87,4.87,0,0,0,50,92Zm2,3.26a18.38,18.38,0,0,1,.27,2.05l-.57.14c0-.57-.13-1.42-.23-2.08Zm2.52-2.33A15.67,15.67,0,0,1,53.73,98a2.36,2.36,0,0,0-.6-.35,7.33,7.33,0,0,0,.34-1.12l-.53.2a11.4,11.4,0,0,0-.44-1.6L53,95a13.56,13.56,0,0,1,.48,1.56,21,21,0,0,0,.34-4.26V89.58A23.5,23.5,0,0,0,58,88.89l.58.5a22.87,22.87,0,0,1-4,.69v.62h4v2.18Zm0-1.58v1h3.39v-1Zm4.27,6c0,.28,0,.41-.21.52a1.69,1.69,0,0,1-.74.09,2.11,2.11,0,0,0-.17-.52h.44c.07,0,.09,0,.09-.09V95.92h-.71v1.89H57V95.92h-.7v1.94h-.46V95.92h-.68V98h-.58V93.57h4.19Zm-2.93-2V94.19h-.68v1.13Zm1.16,0V94.19h-.7v1.13Zm1.18,0V94.19h-.71v1.13Z"/><path class="cls-2" d="M63.22,94.37s0,.2,0,.3c-.14,1.92-.28,2.68-.54,3a.74.74,0,0,1-.58.26,6.53,6.53,0,0,1-1,0,1.7,1.7,0,0,0-.18-.62c.38,0,.75,0,.89,0a.4.4,0,0,0,.32-.1c.16-.16.28-.76.4-2.22h-2a15.41,15.41,0,0,0,.38-1.61H60v-.65h3.59v.65H61.53c-.06.34-.14.7-.2,1Zm.16-2.44H60.5V89.31h2.88Zm-.59-2.06H61.07v1.5h1.72Zm1.92,3.5a8.89,8.89,0,0,1-1,4.64,2.61,2.61,0,0,0-.56-.41,7.85,7.85,0,0,0,.91-4.24V90.84h2v-2h.7v.7h2v.61h-2v.66h1.93l.12,0,.45.12c-.12.59-.29,1.28-.42,1.72l-.56-.14a8.84,8.84,0,0,0,.22-1.06H64.71Zm1.43,1.25c-.08,1.59-.32,2.71-1.4,3.37a1.83,1.83,0,0,0-.43-.49c.94-.55,1.13-1.51,1.19-2.88Zm1.77-1.08a3.67,3.67,0,0,0,.61-.05c0,.18,0,.38.06.55a2.36,2.36,0,0,1-.64,0h-1.2c-.64,0-.78-.27-.78-.91v-.3L65,93l-.07-.53,1-.1v-.83h.64v.75l1.29-.13.07.54-1.36.13v.38c0,.27,0,.36.25.36Zm.33,3.57a.59.59,0,0,0,.26,0,.29.29,0,0,0,.13-.21,6.18,6.18,0,0,0,0-1,1.47,1.47,0,0,0,.55.3,6.37,6.37,0,0,1-.1,1.14.65.65,0,0,1-.3.38,1.42,1.42,0,0,1-.52.1h-.54a.93.93,0,0,1-.59-.16c-.16-.13-.19-.27-.19-.73V94.62h.63v2.29a.15.15,0,0,0,.08.16.39.39,0,0,0,.21,0Z"/><path class="cls-2" d="M71.34,91.05a.73.73,0,0,1,.75-.75.75.75,0,1,1,0,1.5A.73.73,0,0,1,71.34,91.05Zm0,4.89a.74.74,0,0,1,.75-.76.76.76,0,1,1,0,1.51A.74.74,0,0,1,71.34,95.94Z"/><path class="cls-2" d="M75,96.69c2.15-2.14,3.36-3.42,3.36-4.58A1.26,1.26,0,0,0,77,90.72a2.08,2.08,0,0,0-1.52.85L75,91.06A2.8,2.8,0,0,1,77.15,90a2,2,0,0,1,2.13,2.09c0,1.33-1.22,2.66-2.91,4.44.38,0,.82-.07,1.2-.07h2.07v.79H75Z"/><path class="cls-2" d="M80.68,93.94c0-2.86,1.29-4,2.72-4a2.25,2.25,0,0,1,1.71.75l-.51.57a1.55,1.55,0,0,0-1.17-.56c-1,0-1.85.77-1.89,3a2.3,2.3,0,0,1,1.67-.89,1.93,1.93,0,0,1,2,2.19,2.15,2.15,0,0,1-2.1,2.29C81.73,97.36,80.68,96.22,80.68,93.94Zm.88.57c.12,1.39.67,2.14,1.57,2.14.71,0,1.25-.63,1.25-1.58s-.44-1.51-1.32-1.51A1.87,1.87,0,0,0,81.56,94.51Z"/><path class="cls-2" d="M86,96.36l.46-.6a2.42,2.42,0,0,0,1.82.84,1.34,1.34,0,0,0,1.49-1.31c0-.85-.59-1.41-2.28-1.41v-.7c1.51,0,2-.59,2-1.34a1.11,1.11,0,0,0-1.24-1.12,2.15,2.15,0,0,0-1.52.72l-.49-.57a2.9,2.9,0,0,1,2-.89c1.23,0,2.13.65,2.13,1.81a1.75,1.75,0,0,1-1.3,1.68v0a1.87,1.87,0,0,1,1.55,1.82,2.11,2.11,0,0,1-2.35,2A3,3,0,0,1,86,96.36Z"/><path class="cls-2" d="M91.68,96.69C93.83,94.55,95,93.27,95,92.11a1.26,1.26,0,0,0-1.35-1.39,2.08,2.08,0,0,0-1.52.85l-.53-.51A2.8,2.8,0,0,1,93.8,90a2,2,0,0,1,2.13,2.09c0,1.33-1.22,2.66-2.91,4.44.38,0,.82-.07,1.2-.07h2.07v.79H91.68Z"/><path class="cls-2" d="M100.19,95.26H97v-.6L100,90.11h1v4.42h1v.73h-1v2h-.86Zm0-.73V92.44c0-.36,0-1,0-1.35h0c-.18.34-.38.65-.59,1l-1.67,2.44Z"/><path class="cls-2" d="M102.88,93.94c0-2.86,1.29-4,2.72-4a2.25,2.25,0,0,1,1.71.75l-.51.57a1.55,1.55,0,0,0-1.17-.56c-1,0-1.85.77-1.89,3a2.3,2.3,0,0,1,1.67-.89,1.93,1.93,0,0,1,2,2.19,2.15,2.15,0,0,1-2.1,2.29C103.93,97.36,102.88,96.22,102.88,93.94Zm.88.57c.12,1.39.67,2.14,1.57,2.14.71,0,1.25-.63,1.25-1.58s-.44-1.51-1.32-1.51A1.87,1.87,0,0,0,103.76,94.51Z"/><path class="cls-2" d="M111.93,90.89h-3.55v-.78H113v.56c-1.68,2.15-2,3.78-2.15,6.56h-.95A10.5,10.5,0,0,1,111.93,90.89Z"/><path class="cls-2" d="M114.32,96.47H116V91.22h-1.3v-.59a4.22,4.22,0,0,0,1.52-.52h.7v6.36h1.47v.76h-4Z"/><path class="cls-2" d="M614.1,49c-.42.35-1.12.44-4.78,1.08a2.91,2.91,0,0,0-.73.3,7.11,7.11,0,0,0-2.65.86c-.17.1-.38.58-.45,1.47a.68.68,0,0,0,.69.27,32.53,32.53,0,0,0,4.56-.83c1.14.26,1.67,2,1.67,2.92a7.07,7.07,0,0,1-.14.72c-.14.38-.83.7-1.66.77-3.94.36-5.78.67-6.23,1a1.44,1.44,0,0,0-.23.74c0,.93,2,1.17,2.31,1.17,1.22,0,1.83-.65,2.28-.65s1.63,1.29,1.63,2.75c0,1-.56,2.52-3,2.52a11.64,11.64,0,0,1-5.25-1.82s.06-.4-.75-1a9,9,0,0,1-.77-3.38c0-2.8,1.39-4.66,1.58-5.75l-.92-1.27a1.33,1.33,0,0,1-.3-1.05c0-2.19,1.43-2.6,1.5-2.6h.5a6.42,6.42,0,0,0,1.21-.69l.78,0c.46-.06,5.71-1.42,6.76-1.42.83,0,1.16.14,1.49.65a8.71,8.71,0,0,1,1.11,2.55A1.6,1.6,0,0,1,614.1,49Z"/><path class="cls-2" d="M616.7,57.46a1.93,1.93,0,0,0-.28.82c0,.34,1.18.87,2.29.93,3.25.16,2.83-1.33,3.78-.86.62.31,1.17,1.87,1.17,2.79,0,2.1-2,2.69-3.86,2.69a11.48,11.48,0,0,1-4.71-1.16s-1.91-2.38-1.91-4.1a22.72,22.72,0,0,1,2.19-8.47s.17-1.13.27-1.86.68-1,1.14-1.51a67.78,67.78,0,0,1,8.88-1.59c.75-.08,1.68,1,2.18,2.52.09.28-.06,1.38-.43,1.5-.22.07-.82.13-5.61.63a5.54,5.54,0,0,0-2,.47,5.47,5.47,0,0,0-1.22,1.9c-.11.42.1.65.64.59a14.21,14.21,0,0,0,4.42-1.37c.91,0,1.76,1.2,2,2.51a1.68,1.68,0,0,1-.3,1.57,9.6,9.6,0,0,1-3.17,1,4.22,4.22,0,0,1-1.15.07c-.1,0-.37.17-.52.19C618.66,57,617,57.15,616.7,57.46Z"/><path class="cls-2" d="M671.17,47.19c0,1-.29,1.62-.64,1.76-1.54.59-6.72,1.33-9.11,2.12a3.24,3.24,0,0,0-1.21,2c0,.26.3.35.74.29a15.08,15.08,0,0,0,5.5-1.4,1.13,1.13,0,0,1,.79.26,3.81,3.81,0,0,1,.83,2.59,1.7,1.7,0,0,1-1.69,1.79c-1.79.28-5.9.88-7.11,1a2.12,2.12,0,0,0-1,.3c-.54.79-.33,2.42,3.36,1.62,1.55-.34,1.86-.91,2.74-.91a.83.83,0,0,1,.22,0,2.8,2.8,0,0,1,.92,2.43,2.7,2.7,0,0,1-1.62,2.62c-.09,0-.5.12-.53.13a8.46,8.46,0,0,1-.78.35,5.31,5.31,0,0,1-1.38.21c-2.53,0-6.56-1.16-6.56-5.84,0-4.24,2.88-7.21,3.65-10a3,3,0,0,0,.38-.49c.06-.48.49-1.61,1-1.67a61,61,0,0,0,9.19-2.24.9.9,0,0,1,.82.1A4.06,4.06,0,0,1,671.17,47.19Z"/><path class="cls-2" d="M600.08,59.42c-.75-.84-3.17-2.18-4-3,.36-.4,2.31-3.14,2.31-5.3,0-3.06-2.22-6.72-5.2-6.72,0,0-.87,0-1.93.1-.19.29-.82.23-.82.23-1,.47-2,1.25-2,3.78,0,.46.63.92,1,1.28a13.46,13.46,0,0,1-.73,3.16c-.14.34-1.1.47-1.1.47l-.51.66c-.33,2,0,2.2.68,3.08.09,1-.31,2.83-.31,3.85,0,.73.28.65.13,1.41a.75.75,0,0,1,.17.3,2.27,2.27,0,0,0,2,1.46,1.16,1.16,0,0,0,1.24-1c0-.88-.22-3.54-.2-3.78a2.64,2.64,0,0,1,.42-1.3c.57,0,3.12,2.31,5.3,4.53a2.42,2.42,0,0,0,1.56.68c1.33,0,1.87-1.5,2.25-1.84A2.29,2.29,0,0,0,600.08,59.42Zm-7.6-5.89a.79.79,0,0,1-.55-.11s.67-3.93.73-4.77a1.65,1.65,0,0,1,2.19,1.5A3.78,3.78,0,0,1,592.48,53.53Z"/><path class="cls-2" d="M654.67,45.44l-.95-.28-.49-.25a27.53,27.53,0,0,0-5.38-.19,7.71,7.71,0,0,1-1.13-.21,8.06,8.06,0,0,1-1.45.65,3.12,3.12,0,0,1-.66-.2,11.1,11.1,0,0,0-3.51,1,2.29,2.29,0,0,0-.79.94l0,0c0,.07-.15.19-.16,0h0a3.5,3.5,0,0,0-.09-.52,2.44,2.44,0,0,0-2-1.59c-.27,0-.85.31-.9.64s-.11,2.26-.3,4.06a29.66,29.66,0,0,1-.37,4.71c-.07,0-.31.1-.39,0-.85-1.29-3.08-3.51-3.27-5s.05-3.49-.65-4a5.45,5.45,0,0,0-1.94-.58,1.47,1.47,0,0,0-1.21.57l-.05.41-.39.58a10,10,0,0,0-.22,2.44l.32,1.67a1.27,1.27,0,0,1-.3.72l.09,1.29c0,1.45-1.33,6.43-1.33,7.93,0,3.37,2.95,3.1,3.12,3a3,3,0,0,0,.65-1.1c.2-2,.41-5.4,1-6.4.1-.2.39-.3.53-.16a8.54,8.54,0,0,1,1.06,1.54c.52.74,2.05,2.6,2.34,4.26,0,.14,0,.48,0,.74A3,3,0,0,0,636.9,64a2.85,2.85,0,0,0,1.61.18c.56-.09,1.58-.2,1.58-2.84a19.18,19.18,0,0,0-.26-2.72,76.71,76.71,0,0,0,.4-7.8,6,6,0,0,1-.28-.63,4.72,4.72,0,0,0,.18-.86h0c0-.11.08-.19.12-.1h0l.11.2a1.57,1.57,0,0,0,1.3.64c.94,0,2.16-1.09,3-.9.12,0,.24-.17.91-.23a21.68,21.68,0,0,1-.09,2.5c0,.57-.31.69-1.36.69a.83.83,0,0,0-.73.55,10.53,10.53,0,0,0-.41,2.18A2.73,2.73,0,0,0,645,57c.07.34-.26,3-.26,4.34a3.89,3.89,0,0,0,.37,2,3.58,3.58,0,0,0,1.76.77,1.74,1.74,0,0,0,1.27-.53,2.67,2.67,0,0,0,.23-1.15c.07-3.06.42-6.28.8-6.4a16.94,16.94,0,0,0,5.44-2.55A5,5,0,0,0,656.76,50,6.32,6.32,0,0,0,654.67,45.44Zm-5.4,6.13a.4.4,0,0,1-.44-.27,12.34,12.34,0,0,1-.31-2.88c.8-.17,4.32,0,4.32,1S650.47,51.57,649.27,51.57Z"/><path class="cls-2" d="M586.56,56.35a7.23,7.23,0,0,0-.92-2.8,2.15,2.15,0,0,0-1.78-.68c-.46,0-8.32,1.21-9.31,1.82-.47.29-.65,1-.65,1.93a1.89,1.89,0,0,0,1.15,2c.58,0,4.57-.77,6-1,.3,0,.41.07.41.19a1.56,1.56,0,0,1-.26.93,4.9,4.9,0,0,1-2.11,1.24c-1.14-.22-2.09.74-3.23.18-.49,0-1.19.35-1.53-.2a7.22,7.22,0,0,1-3.27-1.09,1.46,1.46,0,0,1-.44-1.18c0-1.23,1.85-4.4,5-7.35.65-.61,3-2.32,4-2.32.68,0,.92,1.53,1.47,2.11a1.27,1.27,0,0,0,1,0c.6-.26,1.07-.59,1.07-1.3a5.75,5.75,0,0,0-1.14-3.5,5,5,0,0,0-2.48-1.07c-1.32,0-1.94.79-2.42.8a16.69,16.69,0,0,0-3.28,2.66.9.9,0,0,1-.35.19,2.9,2.9,0,0,1-.31.71l-.76.5c-.9.87-4.79,5.73-4.79,7.54a8.94,8.94,0,0,0,1.55,4.47,10.66,10.66,0,0,0,7,2.27,10.83,10.83,0,0,0,4.61-1.15h0c.14-.08.24-.07.22.09s0,.42-.06.61-.11,1.22-.11,1.91a2.86,2.86,0,0,0,.66,2.15,4.53,4.53,0,0,0,1.84.4,1.64,1.64,0,0,0,1.37-1.58c0-.62-.07-1.47-.06-1.67C585,58.73,586.56,57.25,586.56,56.35Z"/><path class="cls-2" d="M715.05,47.31a3.67,3.67,0,0,0-2.15-2.69c-.76.17-7.06,1.38-11.2,1.92-.57.08-1.27.1-1.27.1l-.47.24a3,3,0,0,0-1.22.36,3.62,3.62,0,0,0-1.45,2.35l.08,1.08c-1.28,2.54-2.14,4.58-2.14,7.35a1,1,0,0,0,0,.17c0,.21,0,.31-.08.26a3.19,3.19,0,0,0-.23-.32c-.5-.56-.66-.64-.89-.64-.68,0-1.19,1.28-3.48,1.28-2,0-5.91-2.16-5.91-3.28,0-2.48,3.29-5.57,5.74-5.57.43,0,.54.12.54.42,0,.49-.36,1.25-.36,1.74,0,1.18,1.77,2,2.71,2,.27,0,2.18-.71,2.18-3.49,0-1.64-1.19-4.34-3.15-4.34a17.44,17.44,0,0,0-8.64,3,1.67,1.67,0,0,1-.35.5,7.89,7.89,0,0,1-.81.61,10.92,10.92,0,0,0-1.22,2.13c0,.11-.1.25-.15.39h0c-.1.28-.28.38-.31.21s0-.32-.05-.55a19.17,19.17,0,0,0-.34-2.47s-.27-.75-.34-1.09c0-.1,0-.51,0-.51a7.58,7.58,0,0,0-2.11-3.72c-.9-.33-1.12-.41-1.51-.16-1.53,1-3.33,3.94-6.09,9a4.89,4.89,0,0,1-1.07.87,3.77,3.77,0,0,1,0,1.42c-.55,1.75-2.14,3.95-2.07,4.41l.09.53-.06.64a3.16,3.16,0,0,0,2.31,1.87.9.9,0,0,0,.24,0c1.06-.94,1.36-2.76,2.3-4.29.11-.17.14-.2.4-.3a14.57,14.57,0,0,1,2.37-.5,3.33,3.33,0,0,1,1,.05l.47-.15c.44,0,.67.1.67.46a24.36,24.36,0,0,0,.16,3.66c.18.83,1,1.4,2.47,1.52a1.62,1.62,0,0,0,1-.93,9.71,9.71,0,0,0,.11-3c0-1.43,0-2.28.08-2.75,0-.15.15-.2.2-.06h0a5.24,5.24,0,0,0,.75,1.38,13.77,13.77,0,0,0,9.6,5.19,3.62,3.62,0,0,0,3.8-2.55c.15-.38.25-.72.31-.91s.1,0,.15.06h0a5.23,5.23,0,0,0,.48.7c1.54,1.94,3.73,2.54,6.49,2.13,3.08-.47,3.5-.78,3.76-1.12A4.1,4.1,0,0,0,707,60a1.76,1.76,0,0,0-.31-1.5c-.48-.48-2,0-3.9.33-2.58.44-3.67-.65-3.64-1s.12-.61.39-.68a2.93,2.93,0,0,1,1,.1,21,21,0,0,1,2.61-.27c.4,0,.86.06,1,.06,0,0,1.69-.12,2.7-.32a1.68,1.68,0,0,0,1.23-1,3.3,3.3,0,0,0-.15-2c-.71-1.46-1.55-1.63-1.73-1.59a17.5,17.5,0,0,1-5.11.6.56.56,0,0,1-.45-.59,2.49,2.49,0,0,1,1.58-1.79c1.93-.37,7.67-.94,9.77-1,1.32-.06,2.71.34,3-.11A3.41,3.41,0,0,0,715.05,47.31Zm-37.92,6c-.15.31-1.07.54-2.62.56-.07,0-.14-.14-.11-.23a30.54,30.54,0,0,1,2.05-4.23.69.69,0,0,1,.54.21A8.86,8.86,0,0,1,677.13,53.27Z"/><path class="cls-2" d="M722.67,57.88c.83.91,1.51.15,2.49-.38l.9-.38a.45.45,0,0,0,.07.24c.24.3.56.11,1,0a1.2,1.2,0,0,0,.68-.35,3.76,3.76,0,0,0,.33-.51c.11-.21,0-.75,0-.75a1.9,1.9,0,0,0-.22-.92.89.89,0,0,0-.73-.35c-.26,0-.28-.08-.51-.1a.41.41,0,0,0-.36.11s0,.44-.08.84l-.14,0c-.42.15-.48.19-1.19.4l1.22-1.45,1.22-1.43c.54-.78.55-.77.54-1.11,0-.59-.3-1.09-1.48-1.17a4.2,4.2,0,0,1-1.14-.2c.23-.33,1.53-1.45,2.26-2.18A5.2,5.2,0,0,0,728.78,46s-.09-.35-.1-.37-.28-1-1-1.19a1.17,1.17,0,0,0-1.22.11l-.06.07v.09s-.35.9-.62,1.41a11.94,11.94,0,0,1-1.63,2.4s-1.13,1.26-1.54,1.6-.44.69-.31,1.29.49.57.86.6a10.79,10.79,0,0,1,2,.18,8.79,8.79,0,0,1-1.07,1.65c-.76,1-1.39,1.65-1.94,2.29a1,1,0,0,0,0,1A3.64,3.64,0,0,0,722.67,57.88Zm19.3,3.7c-.23-.68-.1-.56-.59-1L740.8,60a10.1,10.1,0,0,0-1.49-1.1l-.48-.11c-.28-.16-.69.08-.81.11s-.72-.1-.73.1-.31.18.38.73A26,26,0,0,1,739.39,62l.79,1.09a.76.76,0,0,0,.75,0l.51-.32C741.66,62.45,742.05,61.83,742,61.58Zm-7.63-1.82c.22-.32,0-.85,0-1l0-.38-.39-.08a19.61,19.61,0,0,1-1.94,1.16,13.66,13.66,0,0,1-2,.88s-.8.14-.83.38a2.38,2.38,0,0,0,.74,1.36,2.92,2.92,0,0,0,1.43.36c.29,0,.28-.2,1.07-.79l.73-.83C733.68,60.38,734.12,60.08,734.34,59.76ZM738,58.12l.57-.09c.13,0,.33-.27.9-.63l1.1-.59c.34-.35,1-.8.92-1.12a1.31,1.31,0,0,0-.79-.86l-.48-.27a1.36,1.36,0,0,0-1-.14l-.08,0s-.26.43-.28.49a11,11,0,0,1-1.5,1.54l-.19.14.12-1.31a7.43,7.43,0,0,1,.07-.83c.4-.13,1.69-.31,1.86-.34.54-.08,1-.12,1.57-.24,0,0,.79-.1.79-.77,0-.4-.78-1.25-.87-1.41-.25-.43-1.69,0-2.23,0l-1.76.44c.35-.36.27-.4,1.23-1.43a15.76,15.76,0,0,0,2-1.94c.19-.27,0-.57-.34-.93a7.54,7.54,0,0,1-.5-.6,4.23,4.23,0,0,1-.24-.47c-.26-.38-.62-.61-.85-.54a10.51,10.51,0,0,1-1.41.41h-.11a4.68,4.68,0,0,0,.31-1.38s-.11-.35-.12-.37-.84-1.32-1.09-1.37a.88.88,0,0,0-1.06.43l-.06.07v.09s-.27.93-.49,1.46a12.13,12.13,0,0,1-1.38,2.51s-1.14,1.64-1.5,2-.37.72-.21,1.32.44.68.8.68c1.39-.32,2.12-.53,2.49-.59,0,0,.26-.06.55-.15l-.25.34c-.07.13-.5.65-.88,1.11l-.9.18c-1.57.27-2.31.55-3.59.68a1.78,1.78,0,0,0-.55.66c-.41.63.71,1.37,1,1.67l1.27-.3a.28.28,0,0,0-.11.08l-.22.49,0,.16a1.05,1.05,0,0,0,0,.72c.08.29.36.4.62.51l.39.19a2.88,2.88,0,0,0,1.21.47,1.54,1.54,0,0,0,1.18-.56,1,1,0,0,0,.22-.73c0-.16.17-.16-2.73-1.34h0a.77.77,0,0,0-.24-.06l1.48-.35a20.21,20.21,0,0,1,2.59-.6c.31-.27-.06,1.35,0,2.1s-.3,2.81-.51,4.48a5,5,0,0,1-.28.92,1.9,1.9,0,0,1-.86.64,2.61,2.61,0,0,1-.53.14,6.85,6.85,0,0,0,.91,1.1s.54.48,1,.26a3.69,3.69,0,0,0,1.41-1c.18-.37.38-1,.38-1l.24-2.68a15.1,15.1,0,0,1,.16-1.81C737.08,57.45,737.52,58.22,738,58.12Zm-1.72-8.75a2.31,2.31,0,0,1-1.18.39,3,3,0,0,1-1,.06,9.15,9.15,0,0,1,.84-1.08.53.53,0,0,0,.57,0,6.57,6.57,0,0,1,1.21-.28c.14,0,0,.2,0,.32A6.3,6.3,0,0,1,736.27,49.37ZM723.65,61.55a.4.4,0,0,0-.13-.39l-.08.15a.36.36,0,0,1-.21.11c-.12,0-.14-.18-.14-.18l-.26-.84-.15-.68a.36.36,0,0,0-.19-.35c-.22-.12-.5.08-.5.08a6.81,6.81,0,0,0-.72,1.27,6.53,6.53,0,0,0-.23,1.43.91.91,0,0,0,.64.9,6.74,6.74,0,0,0,1.15.09l.71,0c.23,0,.21-.33.13-.64A1.75,1.75,0,0,1,723.65,61.55Zm2.23-2.46c-.14-.16-1.07-.19-1.07-.19l-.2.44s-.42.36-.42.67.14,1.21.14,1.21a.85.85,0,0,0,.55.53,1.43,1.43,0,0,0,.9-.16h.41s.48.07.41-.46A8.09,8.09,0,0,0,725.88,59.09Zm2.44-1c-.26,0-.36,0-.68-.1a1.4,1.4,0,0,0-.7.11v.11a.56.56,0,0,1,.19.38c0,.22-.13,1.15-.13,1.15s0,.49.16.63a2.58,2.58,0,0,0,.8.24l.54-.09a1.72,1.72,0,0,0,.47-.18c.16-.11.12-.9,0-1.45S728.57,58.2,728.32,58.14Z"/><path class="cls-2" d="M767.7,56.65l-1.48-.71-.36-.36,0-.41.45-1.14-.1-.56,2.29-1,.13-.06.07-.83v0s-.27-.34-.72-1-1.6.29-1.76.39l-.09,0,0-.42.07-1.05a3.81,3.81,0,0,0,0-.78c0-.18-.3-.39-.46-.5.83-.34,2.62-1.08,2.78-1.5s-1.07-1.57-1.85-2.07a1.66,1.66,0,0,0-.82-.18l-.58.18L764,45.81c-1,.7-2.79,1.95-3.3,2.27a1.49,1.49,0,0,0-.52.46l0,.18.1.23c.26.2,1,.95,1.45.95a10.65,10.65,0,0,0,1.86-.69c0,.59-.11,1.6-.17,2.72-2,.8-3.93,1.46-4.63,1.67s-1.07.27-1.7.45c-.2.06-.3.93-.3.93a3.24,3.24,0,0,0,.15.89c.18.51,1,.59,1.42.78.61.27,2.52-.82,3.85-1.4l.63-.27a44.7,44.7,0,0,1-2.7,3.74,10.33,10.33,0,0,1-1.25,1.34c-.23.19-.72.5-.77.53s-.11.35.06.52l.65.38a3.6,3.6,0,0,0,1.26.24,3,3,0,0,0,1.37-.68l.78-.78a12.72,12.72,0,0,0,.82-1.15c-.12,2-.32,4.41-.32,4.44l-.09.57.17.09a1.71,1.71,0,0,0,2.64-1.63l.26-4,1.69,1.5a1,1,0,0,0,.6.12,2.83,2.83,0,0,0,.89-1.28C769.16,57.85,768.69,57.37,767.7,56.65Z"/><path class="cls-2" d="M776.44,51.79a2.1,2.1,0,0,0-2.08-.35l-3.21.87a.89.89,0,0,0-.3-.27l-.76-.59-.37-.11-1.19.17,0,.54c0,.05.59,4.31.61,5s.28,2.73.29,2.82v0l0,.31a.84.84,0,0,0,1,.37c.31-.09,1.13-.25,1.41-.7l.06-.1a4,4,0,0,0,1.39.81,2.61,2.61,0,0,0,1.55-.42l.9-.53c1.53-.87,2.55-3.62,2.7-4.66S777.57,52.53,776.44,51.79Zm-1.35,4.57a4.31,4.31,0,0,1-2,1.36l-1,.14c-.11-.94-.28-2.1-.43-3,.59-.19,1.59-.51,1.84-.64a1.69,1.69,0,0,1,1.67-.07,4.76,4.76,0,0,1,.56.73C776,55.38,775.46,55.82,775.09,56.36Z"/><path class="cls-2" d="M780.36,50l-.37.51,0,.5.82,2.17c.17.43,1,1.45,1.44,1.45s2.11-.9,1.92-1.12c0-.09-1.25-3.28-1.25-3.28l0-.05a1.62,1.62,0,0,0-1.07-.56A5.77,5.77,0,0,0,780.36,50Z"/><path class="cls-2" d="M792,47.73,792,48l-1.22,1.74a7.9,7.9,0,0,1-1.37,1.56l-.07.06-.33.94.43.67a3.15,3.15,0,0,0,1.44.4c.63-.08,2.11-1.72,2.43-1.93,1-.72,1.65-1.27,1.62-1.8,0,0,.42-.9-1.46-1.6A4.23,4.23,0,0,0,792,47.73Z"/><path class="cls-2" d="M796.4,55.06l-.44-.53a2.35,2.35,0,0,0-1.36-1l-.9.39-1.4.24c-.25,0-2.2.26-3.88.49v-.36l0-.75v-1l0-1,.06-1.44-.07-.37v-.91a6.78,6.78,0,0,0-.36-1.27c2.08-.37,4.38-.84,4.8-.92h.07l.06-.05s.66,0,.5-.87A5.22,5.22,0,0,0,792,44.05c-.54-.3-.72,0-2.68.4-.58.13-3,.62-4.1.79-1.69.27-4.52.47-4.55.47l-.38,0,.15.3a9.74,9.74,0,0,0,1,1.79c.43.47,2,.19,3.09.29a5.6,5.6,0,0,0,1-.07l0,.57s.07.86,0,1.74a10.66,10.66,0,0,1,0,1.86,14.32,14.32,0,0,0-.1,1.45c0,.83,0,.88,0,1.3a.75.75,0,0,1,0,.15c-1.38.2-5.16.65-5.2.65l-1,.13a2.48,2.48,0,0,0-.91.4c-.26.28-.13.77,0,1.25l.06.24c.13.52.7,1,1,1l1.07.09c.69-.19,3.6-.9,4.73-1.12-.06.72-.12,1.58-.14,2.61,0,1.52-.28,3.45-.29,3.56a1.62,1.62,0,0,0,.17.91l.3.4.93.36a1.69,1.69,0,0,0,1.07,0c.63-.48.61-1.54.65-1.76s.36-2.69.43-4.61V57.35l3-.34,3.75-.1c.08,0,1.37.2,1.46-.3A3.28,3.28,0,0,0,796.4,55.06Z"/><path class="cls-2" d="M747.15,59.26c0,.16.83.41,1.1.37.81-.11.16-.06.75-.33a14.28,14.28,0,0,1,1.52-.45s1-.19,1.16-.27a14.3,14.3,0,0,0,1.7-.44l.07,0,.33.31c.37.39.94-.55,1.31-.91a3.79,3.79,0,0,0,.75-1.3,23.18,23.18,0,0,0,.93-3.23,2.9,2.9,0,0,0,0-.35,2.21,2.21,0,0,0-.86-1.34c-.19-.12-.54-.69-.83-.62l-3.79,1.12.73-.66A12.42,12.42,0,0,0,753,50c.17-.21.68-.7.67-1a4.26,4.26,0,0,0-.75-1.8c-.18-.31-.94-.23-1.47.06-.82.17-1.34.52-2.06.63.24-.4,1-1.35,1-1.35a.61.61,0,0,0,.13-.44,5.13,5.13,0,0,0-.26-.73c0-.06-.31-.28-.74-.72-.8-.8-1.19-.45-1.31-.43l-.17.19-1,2c-.21.49-1.41,2.44-1.81,3.13-.3.53-.8,1.22-1.13,1.71s.1.48.6.84a2.26,2.26,0,0,0,1.82,0A11.48,11.48,0,0,0,748.12,50a18.61,18.61,0,0,1,2.66-.69c.13,0-.33.58-.84,1.08A15.65,15.65,0,0,1,746,53.12l-1.32.68-.56.18-1.12.35s-.66.15-.67.39a2.5,2.5,0,0,0,.7,1.44,5.7,5.7,0,0,0,1,.57l1.32-.57a9.4,9.4,0,0,0-.35,1.06c-.15.53-.12.78-.31,1.68a7,7,0,0,0-.28,1.87c.11.89,1,1.44,1.33,2a4,4,0,0,0,1.66,1,8.5,8.5,0,0,0,4.82.19,7.79,7.79,0,0,0,3.17-1.3,4,4,0,0,0,.41-2.23c-.09-.27-.81-1.69-.94-1.37a2.48,2.48,0,0,1-1.08,1,9.17,9.17,0,0,1-1.94.81c-1.11.36-2.7.78-3.55.42-1.17-.48-1.42-.91-1.4-1.8a4.32,4.32,0,0,1,.07-.66A.92.92,0,0,1,747.15,59.26Zm2.39-3.8c-.13.38-.32,1.16-.43,1.64l-.27.1a14.33,14.33,0,0,0-1.65.64c.17-.87.4-1.87.61-2.63l0-.06,1.88-.57A3.23,3.23,0,0,1,749.54,55.46ZM751.7,54l1.1-.33a6.74,6.74,0,0,1,1.18-.3c.34,0,.18.76,0,1.39a2.4,2.4,0,0,1-.51,1.1,2.71,2.71,0,0,0-1.15.11l-.87.29a7,7,0,0,1,.31-1A3,3,0,0,0,751.7,54Z"/></g></g></svg>