<svg xmlns="http://www.w3.org/2000/svg" viewBox="0 0 404.6 364.56"><defs><style>.cls-1{fill:none}.cls-2{fill:#f1f2f2}.cls-3{fill:#231f20}.cls-4{fill:#fff}.cls-5{fill:#00612c}.cls-6{fill:#e0e1e2}.cls-7{fill:#1b1c1c}.cls-8{fill:#d8773f}.cls-9{fill:#c4c6c8}.cls-10{fill:#f15a22}.cls-11{fill:#26432a}.cls-12{fill:#414042}.cls-13{clip-path:url(#clip-path)}.cls-14{fill:#00a4d3}.cls-15{fill:#d42027}.cls-16{fill:#a8caea}.cls-17{fill:#56729e}.cls-18{fill:#f26122}.cls-19{fill:#fdb81e}.cls-20{fill:#2fa265}</style><clipPath id="clip-path"><path class="cls-1" d="M235.85 321.44c-4.44-.46-16.07-2.24-22.61-9.44-5.14-5.65-7.29-9-8.72-10.74-1-3.55-4.2-6.1-6.62-6.2-6.35-.26-24-1.21-48.08-3.22-25.72-2.14-99.35-7.66-124.63-11.24a188.87 188.87 0 0 0-22.33-2c-.72-.13-2.27.26-1.33 5.71s9.87 66.46 25.12 69.15c14.86 2.62 24.53 3.28 80.95 5.13 112 3.66 270.65 1.5 275.87.78 7.84-1.08 16.4-35.15 16.4-35.15s-159.58-2.33-164.02-2.78z"/></clipPath></defs><g id="Layer_2" data-name="Layer 2"><g id="Graphic"><path class="cls-2" d="M284.52 35.63L278 247.86s27.53-3.81 49.55-2.56 38.27 3.48 38.27 3.48z"/><path class="cls-3" d="M365.8 249.34h-.08c-.16 0-16.48-2.25-38.23-3.48s-49.17 2.52-49.44 2.56a.55.55 0 0 1-.45-.14.56.56 0 0 1-.18-.43L284 35.61a.56.56 0 0 1 1.08-.18l81.28 213.16a.56.56 0 0 1-.52.75zm-47.73-4.85c3.22 0 6.41.08 9.49.25 18.85 1.07 33.63 2.88 37.39 3.36L285 38.42l-6.45 208.8a339.61 339.61 0 0 1 39.52-2.73z"/><path class="cls-4" d="M200.19 273.7s9.84-1.68 51.58-1.06a285 285 0 0 1 40.42 4l20.31-6.82s-19.62-5.08-53.54-5.94c-48.91-1.23-58.5 1.17-58.5 1.17z"/><path class="cls-3" d="M292.2 277.21h-.1a286.68 286.68 0 0 0-40.33-4c-41.13-.6-51.39 1-51.48 1.06a.56.56 0 0 1-.65-.57l.27-8.63a.56.56 0 0 1 .42-.52c.39-.1 10.21-2.41 58.65-1.19 33.59.85 53.47 5.9 53.67 6a.56.56 0 0 1 0 1.07l-20.31 6.82a.55.55 0 0 1-.14-.04zm-57.72-5.27c5 0 10.79 0 17.31.14a287.49 287.49 0 0 1 40.37 4l18.31-6.15c-5.7-1.25-24-4.78-51.52-5.48-43-1.08-55.65.67-57.94 1.08l-.23 7.53c2.28-.29 10.87-1.12 33.69-1.12z"/><path class="cls-4" d="M200.21 272.59s20.5-.39 47.27 0 44.72 4.08 44.72 4.08l.73 50.56-91.14-4.3z"/><path class="cls-3" d="M292.93 328l-91.14-4.3a.84.84 0 0 1-.8-.81l-1.58-50.32a.84.84 0 0 1 .82-.86c.2 0 20.82-.38 47.29 0s44.7 4.06 44.88 4.1a.84.84 0 0 1 .67.81l.73 50.56a.84.84 0 0 1-.84.85zm-90.33-5.93l89.48 4.22-.71-49a271.36 271.36 0 0 0-43.91-3.93c-23.42-.33-42.26-.07-46.39 0z"/><path class="cls-3" d="M281.5 327.12l-13-.37a.56.56 0 0 1-.54-.57l.36-24.54a.56.56 0 0 1 .56-.55l13 .19a.56.56 0 0 1 .55.57l-.36 24.71a.56.56 0 0 1-.56.55zm-12.44-1.46L281 326l.35-23.59-11.89-.18z"/><path class="cls-4" d="M292.2 276.65L292.93 327.21 313.43 322.5 312.5 269.83 292.2 276.65z"/><path class="cls-3" d="M292.93 327.77a.56.56 0 0 1-.56-.55l-.73-50.56a.56.56 0 0 1 .38-.54l20.31-6.82a.56.56 0 0 1 .73.52l.93 52.66a.56.56 0 0 1-.43.55l-20.5 4.71zm-.17-50.71l.72 49.46 19.39-4.46-.87-51.46zm-68.23 16.1a.56.56 0 0 1-.56-.55l-.18-15.8a.56.56 0 0 1 .55-.56.58.58 0 0 1 .56.55l.18 15.8a.56.56 0 0 1-.55.56zm45.47.21a.56.56 0 0 1-.56-.55l-.26-14.82a.56.56 0 0 1 .55-.57.6.6 0 0 1 .57.55l.24 14.81a.56.56 0 0 1-.55.57zm-21.59-.56a.56.56 0 0 1-.56-.55l-.17-14.84a.56.56 0 0 1 1.11 0l.17 14.84a.56.56 0 0 1-.55.56z"/><path class="cls-3" d="M292.44 295.34c-.29 0-29-2.37-51-2.56-20.17-.17-40.33 1.09-40.54 1.1a.53.53 0 0 1-.59-.52.56.56 0 0 1 .52-.59c.2 0 20.42-1.27 40.61-1.1s46.2 2.18 50.45 2.52l.11-13.64c-2.75-.3-16.55-1.76-34.32-2.83-19.79-1.18-56.8-.54-57.17-.53a.56.56 0 0 1-.57-.55.56.56 0 0 1 .55-.57c.37 0 37.43-.65 57.26.53s34.73 2.87 34.88 2.89a.56.56 0 0 1 .49.56l-.12 14.73a.56.56 0 0 1-.56.55z"/><path class="cls-3" d="M292.41 286.84h-.07l-.7-.09c-16.29-2.09-16.6-2.13-36.63-3.32-19.78-1.18-53.29-.28-53.63-.27a.58.58 0 0 1-.57-.54.56.56 0 0 1 .54-.57c.34 0 33.89-.92 53.73.27 20.07 1.2 20.38 1.24 36.7 3.33l.7.09a.56.56 0 0 1-.07 1.11zm.09 4.48h-.05l-.74-.07c-16.91-1.59-17.23-1.62-37.26-2.82-19.78-1.18-52.67.3-53 .32a.54.54 0 0 1-.58-.53.56.56 0 0 1 .53-.58c.33 0 33.27-1.5 53.11-.32 20.05 1.2 20.37 1.23 37.3 2.82l.74.07a.56.56 0 0 1-.05 1.11zm-72.24 33.02a.56.56 0 0 1-.56-.56v-31a.56.56 0 0 1 1.11 0v31a.56.56 0 0 1-.55.56zm21.16 1.3a.56.56 0 0 1-.56-.56V293a.56.56 0 0 1 1.11 0v32.13a.56.56 0 0 1-.55.51zm21.39.7a.56.56 0 0 1-.56-.56V293a.56.56 0 0 1 1.11 0v32.83a.56.56 0 0 1-.55.51z"/><circle class="cls-3" cx="235.42" cy="298.11" r="1.89"/><path class="cls-3" d="M259.06 300h-5.43a.28.28 0 0 1-.28-.28v-4.22a.28.28 0 0 1 .28-.28h5.43a.28.28 0 0 1 .28.28v4.22a.28.28 0 0 1-.28.28zm-5.15-.56h4.87v-3.66h-4.87zM217.48 309h-1.84a.28.28 0 0 1-.28-.28v-4.83a.28.28 0 0 1 .28-.28h1.84a.28.28 0 0 1 .28.28v4.83a.28.28 0 0 1-.28.28zm-1.57-.56h1.29v-4.24h-1.29z"/><path class="cls-2" d="M20 275.89L175.52 42s-27.9 67.43-30.13 111.09a595.9 595.9 0 0 0 1.26 79.24S68.1 244.86 20 275.89z"/><path class="cls-3" d="M20 276.45a.56.56 0 0 1-.46-.86L175.06 41.67a.56.56 0 0 1 1 .52c-.28.67-27.89 67.84-30.09 110.9a600.84 600.84 0 0 0 1.25 79.16.56.56 0 0 1-.47.6c-.2 0-19.91 3.22-45.24 10.15-23.36 6.39-56.41 17.37-81.2 33.36a.55.55 0 0 1-.31.09zM173 46.74L21.9 274c24.64-15.31 56.56-25.87 79.31-32.1 23.11-6.32 41.56-9.54 44.83-10.09a606.79 606.79 0 0 1-1.21-78.8c1.86-36.38 21.77-89.84 28.17-106.27z"/><path class="cls-4" d="M187 25.49s13.47 3.62 35.7 22.64a313.69 313.69 0 0 1 39.76 41.18s-24.3 31.48-45.5 76.89c-20.34 43.58-24.1 69.25-24.1 69.25z"/><path class="cls-3" d="M192.88 236a.56.56 0 0 1-.52-.54l-5.85-210a.56.56 0 0 1 .7-.55c.55.15 13.85 3.87 35.92 22.76A317.09 317.09 0 0 1 262.92 89a.56.56 0 0 1 0 .68 454.63 454.63 0 0 0-45.44 76.79c-20.07 43-24 68.84-24.06 69.09a.56.56 0 0 1-.54.44zm-5.27-209.75l5.69 204.18c2.09-9.48 8.1-32.16 23.18-64.47a459.19 459.19 0 0 1 45.3-76.65 317.82 317.82 0 0 0-39.41-40.76c-19-16.26-31.69-21.25-34.76-22.3z"/><path class="cls-4" d="M7 275.78S70.33 166.13 83 147s65.9-93.72 72.27-103.28S178.91 15 178.91 15s-41.39 60.08-49.18 119.58-7.81 77.92-7.81 77.92-30.31 3.31-54.68 15.81C35.45 244.63 3.36 283 7 275.78z"/><path class="cls-3" d="M6.8 277.26a.63.63 0 0 1-.38-.14c-.53-.39-.15-1.13.07-1.58.63-1.1 63.49-109.89 76-128.81 7.59-11.5 29.89-43.07 47.81-68.44 11.76-16.65 21.92-31 24.46-34.84 6.31-9.49 23.57-28.56 23.74-28.76a.56.56 0 0 1 .87.69C179 15.94 138 76 130.28 134.68s-7.81 77.66-7.81 77.84a.56.56 0 0 1-.5.55c-.3 0-30.49 3.45-54.49 15.75-21 10.76-41.79 30.89-53 41.71-5.58 5.47-6.98 6.73-7.68 6.73zM174.44 20.89c-5.62 6.4-14.6 16.88-18.76 23.14-2.54 3.82-12.71 18.21-24.47 34.87-17.92 25.36-40.21 56.92-47.79 68.41-11.88 18-69.5 117.61-75.45 127.9 1.31-1.14 3.44-3.2 5.78-5.48C25 258.88 45.85 238.67 67 227.83c22.5-11.54 50.37-15.31 54.38-15.81.07-3.32.77-23.79 7.81-77.49 6.27-47.94 34.65-96.76 45.25-113.64z"/><path class="cls-4" d="M79.17 258.56L87.88 291.27 200.52 297.62 200.01 261.88 79.17 258.56z"/><path class="cls-3" d="M200.52 298.18l-112.67-6.35a.56.56 0 0 1-.51-.41l-8.7-32.72a.56.56 0 0 1 .1-.49.54.54 0 0 1 .45-.21L200 261.32a.56.56 0 0 1 .54.55l.51 35.74a.56.56 0 0 1-.56.56zm-112.21-7.44L200 297l-.5-34.61-119.6-3.26z"/><path class="cls-5" d="M72 258.37l11.63-8.84 117.05 3.79 1.14 8.63s-55.53-1.84-82.19-2.06S72 258.37 72 258.37z"/><path class="cls-3" d="M201.79 262.51c-.55 0-55.83-1.84-82.18-2.06s-47.44-1.51-47.65-1.52a.56.56 0 0 1-.3-1l11.63-8.84a.6.6 0 0 1 .36-.11l117.06 3.79a.56.56 0 0 1 .53.48l1.14 8.63a.56.56 0 0 1-.55.63zm-128.28-4.6c5.27.29 23.78 1.25 46.09 1.43 24.8.21 75.21 1.83 81.55 2l-1-7.51-116.37-3.74z"/><path class="cls-6" d="M92.65 262.5L93.37 273.19 88.49 272.86 84.94 261.92 92.65 262.5z"/><path class="cls-7" d="M93.37 273.75l-4.88-.33A.56.56 0 0 1 88 273l-3.55-10.94a.56.56 0 0 1 .09-.52.54.54 0 0 1 .48-.21l7.71.58a.56.56 0 0 1 .51.52l.72 10.69a.56.56 0 0 1-.56.59zm-4.46-1.42l3.87.27-.65-9.6-6.4-.49z"/><path class="cls-6" d="M112.56 292.41L111.67 263.09 124.82 263.42 125.71 292.96 112.56 292.41z"/><path class="cls-7" d="M125.71 293.52l-13.17-.52a.56.56 0 0 1-.53-.54l-.89-29.32a.56.56 0 0 1 .16-.41.53.53 0 0 1 .41-.16l13.14.33a.56.56 0 0 1 .54.54l.9 29.54a.56.56 0 0 1-.56.57zm-12.61-1.64l12 .5-.82-28.38-12-.3z"/><path class="cls-6" d="M97.28 273.43L96.93 262.42 108.54 262.81 108.89 273.81 97.28 273.43z"/><path class="cls-7" d="M108.89 274.36L97.26 274a.56.56 0 0 1-.54-.54l-.35-11a.56.56 0 0 1 .16-.41.53.53 0 0 1 .41-.16l11.61.38a.56.56 0 0 1 .54.54l.35 11a.56.56 0 0 1-.56.57zm-11.07-1.48l10.5.34-.31-9.89L97.5 263z"/><path class="cls-6" d="M151.12 274.54L150.78 263.54 162.39 263.92 162.73 274.92 151.12 274.54z"/><path class="cls-7" d="M162.73 275.48l-11.61-.38a.56.56 0 0 1-.54-.54l-.35-11a.56.56 0 0 1 .16-.41.54.54 0 0 1 .41-.16l11.61.38a.56.56 0 0 1 .54.54l.35 11a.56.56 0 0 1-.56.57zM151.66 274l10.5.34-.31-9.89-10.49-.34z"/><path class="cls-6" d="M166.95 275.38L166.6 264.38 178.21 264.76 178.56 275.76 166.95 275.38z"/><path class="cls-7" d="M178.56 276.32l-11.61-.38a.56.56 0 0 1-.54-.54l-.35-11a.56.56 0 0 1 .16-.41.53.53 0 0 1 .41-.16l11.61.38a.56.56 0 0 1 .54.54l.35 11a.56.56 0 0 1-.56.57zm-11.07-1.48l10.5.34-.31-9.89-10.5-.34z"/><path class="cls-6" d="M182.06 275.82L181.71 264.82 193.32 265.2 193.66 276.2 182.06 275.82z"/><path class="cls-7" d="M193.67 276.76l-11.67-.38a.56.56 0 0 1-.54-.54l-.35-11a.56.56 0 0 1 .16-.41.55.55 0 0 1 .41-.16l11.61.38a.56.56 0 0 1 .54.54l.35 11a.56.56 0 0 1-.56.57zm-11.07-1.48l10.49.34-.31-9.89-10.49-.34z"/><path class="cls-6" d="M128.47 274.51L128.13 263.49 135.97 263.78 136.32 274.78 128.47 274.51z"/><path class="cls-7" d="M136.32 275.34l-7.84-.27a.56.56 0 0 1-.54-.54l-.35-11a.56.56 0 0 1 .16-.41.57.57 0 0 1 .41-.16l7.84.28a.56.56 0 0 1 .54.54l.35 11a.56.56 0 0 1-.56.57zM129 274l6.73.23-.31-9.89-6.73-.24zM181.07 0c-1.39 0-1.55 5-2 8.53s-30.4 243.18-30.4 243.18l10.23.7L177.63 57.3l4.92 236.6 8.34.4-8.56-287s.13-7.3-1.26-7.3z"/><path class="cls-7" d="M173.66 89.33L179.73 84.95 179.77 77.84 173.7 81.91 173.66 89.33z"/><path class="cls-7" d="M167.15 148.05L182.15 139.84 182.11 146.41 167.11 154.34 167.15 148.05z"/><path class="cls-7" d="M162.73 205.43L181.84 198.29 182.3 206.68 160.4 214.56 162.73 205.43z"/><path class="cls-7" d="M283.14 28.36c-1.39 0-1.46 5-1.82 8.57s-23 227.27-23 227.27l10.24.49 12.24-179 9.2 237.62 10 .24-15.48-287.92s.01-7.29-1.38-7.27z"/><path class="cls-7" d="M278.96 117.84L285.07 113.51 285.18 106.39 279.07 110.43 278.96 117.84z"/><path class="cls-7" d="M274.81 155.19L286.79 148.76 286.69 155.33 274.73 161.48 274.81 155.19z"/><path class="cls-7" d="M269.13 205.94L285.47 199.27 285.86 207.65 266.73 213.53 269.13 205.94z"/><path class="cls-4" d="M280.76 76s-35.49 47.77-54 85c-12.83 25.75-33.83 84.37-33.83 84.37S216.12 237 233.27 233s37.52-2.81 37.52-2.81z"/><path class="cls-3" d="M192.88 245.95a.56.56 0 0 1-.52-.74c.21-.59 21.16-58.94 33.86-84.43 18.37-36.87 53.74-84.62 54.1-85.1a.56.56 0 0 1 1 .37l-10 154.18a.54.54 0 0 1-.59.52c-.2 0-20.49-1.14-37.36 2.8s-40.1 12.29-40.33 12.37a.57.57 0 0 1-.16.03zm87.2-168.08c-6.19 8.47-36.4 50.34-52.87 83.4-11.7 23.48-30.44 75-33.41 83.2 4.84-1.71 24.49-8.54 39.34-12 15.46-3.61 33.74-3 37.13-2.85z"/><path class="cls-8" d="M65.73 280.26c-.16-.55-.14-1.16-.25-1.72a2.27 2.27 0 0 0-1.13-1.6c.4-1.51 1.59-6.71.28-11.47a32.79 32.79 0 0 0-3.84-8.88c-.47-1 1-1.81 2.55-2s.55-.83-2.23-1.91-3.36.71-7 .26-8.8-2.33-13.93 1.89c0 0 .06.75-1.16 1s-3.08.82-1.41 1.84 7 1.89 9.79 2.15a17.55 17.55 0 0 1 10.68 5.84c2.82 3.44 5 8.11 3.86 11-1.41.62-2.22 3-3.8 3.09a3.24 3.24 0 0 0 2.13 1.09 2.77 2.77 0 0 0 2.22-.91 2.49 2.49 0 0 0 1.81 2 3 3 0 0 0 2.6-.73c-.53.12-1.01-.39-1.17-.94z"/><path class="cls-3" d="M64.86 282.52a3 3 0 0 1-.71-.09 3 3 0 0 1-2-1.61 3.35 3.35 0 0 1-2 .51 3.78 3.78 0 0 1-2.51-1.27.56.56 0 0 1 .37-.93c.65 0 1.21-.71 1.79-1.42a6.18 6.18 0 0 1 1.59-1.51c.89-2.72-1.34-7.17-3.84-10.22a17.07 17.07 0 0 0-10.3-5.63c-2.46-.23-8.16-1.09-10-2.23-.7-.43-1-.9-.91-1.41 0-.25.19-1 2.51-1.45.54-.1.7-.31.7-.42a.5.5 0 0 1 .2-.44c4.49-3.69 8.91-2.92 12.47-2.3.66.11 1.29.22 1.87.3a8 8 0 0 0 3.46-.31 5.1 5.1 0 0 1 3.7.08c2.63 1 3.37 1.52 3.29 2.19s-.89.75-1.19.78a3.09 3.09 0 0 0-2.11.92.29.29 0 0 0 0 .29c.1.21.25.47.45.81a30.59 30.59 0 0 1 3.42 8.15c1.25 4.54.29 9.47-.18 11.37a2.82 2.82 0 0 1 1 1.74c0 .25.07.51.09.76a4.92 4.92 0 0 0 .14.91.9.9 0 0 0 .36.51.63.63 0 0 1 .7.28.56.56 0 0 1-.08.7 3.71 3.71 0 0 1-2.28.94zm-2.39-3.21h.16a.56.56 0 0 1 .39.45 1.93 1.93 0 0 0 1.4 1.56 2.13 2.13 0 0 0 1.25-.1 2.13 2.13 0 0 1-.47-.84 5.85 5.85 0 0 1-.2-1.08c0-.22 0-.44-.08-.66a1.71 1.71 0 0 0-.87-1.22.56.56 0 0 1-.26-.62c.39-1.46 1.55-6.56.28-11.18a29.6 29.6 0 0 0-3.3-7.88c-.22-.38-.4-.67-.51-.91a1.4 1.4 0 0 1 0-1.3 3.77 3.77 0 0 1 2.74-1.44c-.38-.2-1-.48-2-.88a4 4 0 0 0-3 0 9.05 9.05 0 0 1-3.89.34c-.61-.07-1.25-.19-1.93-.3-3.29-.57-7.37-1.28-11.4 1.93a1.79 1.79 0 0 1-1.58 1.23 3.81 3.81 0 0 0-1.6.55s.15.12.38.26c1.47.9 6.49 1.78 9.55 2.07a18 18 0 0 1 11.06 6c2.85 3.48 5.18 8.39 3.94 11.52a.56.56 0 0 1-.29.3 4.66 4.66 0 0 0-1.41 1.32 6.63 6.63 0 0 1-1.49 1.45 2.46 2.46 0 0 0 1.06.34 2.2 2.2 0 0 0 1.77-.72.56.56 0 0 1 .3-.18z"/><path class="cls-9" d="M321.04 261.97L336.95 265.2 347.9 273.4 347.74 275.84 348.03 287.6 355.51 287.64 354.6 272.16 339.3 260.99 321.21 259.68 321.04 261.97z"/><path class="cls-3" d="M356.1 288.2l-8.62-.05-.3-12.3.14-2.19-10.61-7.94-16.27-3.3.24-3.33 18.81 1.37.13.09 15.51 11.33zm-7.53-1.2h6.35l-.86-14.62-15-10.92-17.38-1.26-.09 1.25 15.65 3.23 11.19 8.38-.18 2.74z"/><path class="cls-4" transform="rotate(-89.9 351.992 291.558)" d="M348.06 288.45H355.88V294.67H348.06z"/><path class="cls-3" d="M355.63 296h-7.33v-8.94h7.33zm-6.22-1.12h5.11v-6.71h-5.11z"/><path class="cls-4" d="M355.83 323.54L348.04 323.48 348.85 298.18 355.09 298.18 355.83 323.54z"/><path class="cls-3" d="M356.4 324.1l-8.94-.07.85-26.41h7.32zm-7.78-1.17l6.64.05-.7-24.24h-5.16z"/><path class="cls-9" d="M355.88 298.19L348.04 298.17 348.05 295.75 355.88 295.77 355.88 298.19z"/><path class="cls-3" d="M356.44 298.75h-9v-3.53h9zm-7.84-1.14h6.72v-1.31h-6.72z"/><path class="cls-9" d="M355.52 295.77L348.43 295.74 348.43 293.55 355.5 293.57 355.52 295.77z"/><path class="cls-3" d="M356.08 296.33h-8.21V293h8.18zm-7.1-1.15h6v-1.09h-6z"/><path class="cls-3" d="M321.47 262.17H322.58000000000004V270.29H321.47z"/><path class="cls-9" d="M321.04 265.86H323.28000000000003V272.18H321.04z"/><path class="cls-3" d="M323.83 272.73h-3.35v-7.43h3.35zm-2.24-1.11h1.12v-5.21h-1.11z"/><path class="cls-10" d="M341.55 282.51l-20.91-.43-1.57-2.46h-10.3l-3-1.84s-3.89-.81-5.26.87c0 0 2.17 12.14 8.17 12.84 4.2.49 33.21-.63 33.21-.63h-.4a2.09 2.09 0 0 0 1.35-1.12c.63-1.16.54-6.21.54-6.21s.27-.97-1.83-1.02z"/><path class="cls-3" d="M313 292.15c-2.1 0-3.7 0-4.48-.13-6.33-.74-8.56-12.79-8.65-13.3v-.25l.16-.2c1.54-1.89 5.37-1.15 5.8-1.06l.18.07 2.91 1.76h10.45l1.57 2.47 20.62.42a2.54 2.54 0 0 1 2.15.76 1.07 1.07 0 0 1 .18.81c0 1 0 5.21-.61 6.41a2.74 2.74 0 0 1-1.41 1.31v.15c-.97.07-19.65.78-28.87.78zm-12-13.35c.36 1.77 2.59 11.52 7.63 12.11 3.74.44 27.87-.44 32.4-.6l.23-.05a1.55 1.55 0 0 0 1-.85c.41-.75.51-4 .47-5.93v-.19a3 3 0 0 0-1.27-.22l-21.21-.44-1.57-2.46h-10.15l-3.09-1.87c-.93-.21-3.34-.42-4.38.51z"/><path class="cls-3" d="M330.46 285.14h-11c-10.73-.1-17.39-.39-17.46-.4l.05-1.11c.07 0 6.71.29 17.42.39s23.71 0 23.84 0v1.11c-.06-.03-5.84.01-12.85.01z"/><path class="cls-3" transform="rotate(-31.17 314.961 275.918)" d="M307.72 275.33H322.07000000000005V276.44H307.72z"/><path class="cls-3" transform="rotate(-57.19 331.227 277.32)" d="M330.7 267.83H331.81V286.82H330.7z"/><path class="cls-3" d="M321.62 272.35H322.18V282.1H321.62z"/><path class="cls-4" d="M253.36 255.7l-7.25 11.3a156.1 156.1 0 0 1 18.41 0c10.73.68 23.22 1.66 23.22 1.66v-10.7z"/><path class="cls-3" d="M287.75 269.19c-.13 0-12.61-1-23.21-1.66a156.29 156.29 0 0 0-18.34 0 .56.56 0 0 1-.51-.86l7.25-11.28a.57.57 0 0 1 .5-.25l34.39 2.23a.56.56 0 0 1 .52.56v10.7a.56.56 0 0 1-.56.56zm-32.26-3c2.74 0 5.86.07 9.08.27 9.29.59 20 1.41 22.63 1.61v-9.58l-33.54-2.17-6.48 10.08c1.53-.12 4.56-.25 8.3-.25zM235 322.87c-4.45-.47-16.1-2.3-22.64-9.75-5.14-5.85-7.29-9.32-8.73-11.13-1-3.68-4.2-6.32-6.63-6.42-6.36-.26-24.07-1.22-48.17-3.27-25.77-2.19-99.55-7.81-124.87-11.49a182.9 182.9 0 0 0-22.37-2c-.72-.13-2.28.28-1.35 5.92s9.79 68.9 25.07 71.67c14.89 2.69 24.58 3.37 81.11 5.2 112.22 3.64 271.2 1.18 276.43.43 7.86-1.13 16.49-36.47 16.49-36.47s-159.85-2.22-164.34-2.69z"/><path class="cls-3" d="M399.86 326.38H287.02a.56.56 0 0 1-.56-.52l-1.15-16.41a.56.56 0 0 1 .16-.43.5.5 0 0 1 .42-.17c.37 0 37.51 1.73 66 2.69s47.75-1.18 47.94-1.21a.56.56 0 0 1 .62.55v15a.56.56 0 0 1-.56.56zm-112.32-1.15h111.77v-13.75a377.31 377.31 0 0 1-47.49 1.15c-26.44-.89-60.35-2.44-65.36-2.67z"/><path class="cls-3" d="M373.06 319.56c-7.43 0-15.59-.09-23.34-.36-23.12-.8-63.49-3-63.9-3a.56.56 0 0 1-.53-.59.53.53 0 0 1 .59-.53c.4 0 40.77 2.21 63.87 3s49.81 0 50.08 0a.58.58 0 0 1 .57.54.56.56 0 0 1-.54.57c-.16.02-12.05.37-26.8.37z"/><path class="cls-3" d="M307.09 326.38a.56.56 0 0 1-.56-.56v-15.5a.56.56 0 0 1 1.11 0v15.51a.56.56 0 0 1-.55.55zm18.11-.04a.56.56 0 0 1-.56-.56v-14.71a.56.56 0 0 1 1.11 0v14.72a.56.56 0 0 1-.55.55zm19.1-.7a.56.56 0 0 1-.56-.56v-13.27a.56.56 0 1 1 1.11 0v13.28a.56.56 0 0 1-.55.55zm18.32.74a.56.56 0 0 1-.56-.56v-14a.56.56 0 0 1 1.11 0v14a.56.56 0 0 1-.55.56zm18.38-.04a.56.56 0 0 1-.56-.56v-13.71a.56.56 0 1 1 1.11 0v13.72a.56.56 0 0 1-.55.55zm-147-1.29a.56.56 0 0 1-.56-.56v-15.93c-1-.23-3.18-1.12-8-4.17-11.51-7.26-20-22.52-21.27-24.82-5.45-.14-76.65-2-105.76-4.48-28.57-2.46-84.59-8.93-90.77-9.65l-2.2 19.17a.56.56 0 1 1-1.11-.13l2.3-19.72a.56.56 0 0 1 .62-.49c.61.07 61.19 7.11 91.29 9.71s105.26 4.47 106 4.49a.56.56 0 0 1 .48.3c.09.17 8.89 17 21 24.69 6.37 4 7.88 4.08 7.94 4.08a.5.5 0 0 1 .42.13.54.54 0 0 1 .17.43v16.4a.56.56 0 0 1-.55.55z"/><path class="cls-3" d="M204.53 285.39c-.33 0-33.3-.78-83.23-3.48S7.27 270 6.63 269.9a.56.56 0 0 1-.47-.63.56.56 0 0 1 .63-.47c.64.09 64.67 9.3 114.57 12s82.87 3.47 83.19 3.48a.56.56 0 0 1 0 1.11zm0 4.96c-.33 0-33.3-.88-83.23-3.58s-114-11.91-114.67-12a.56.56 0 0 1-.47-.63.57.57 0 0 1 .63-.47c.64.09 64.67 9.3 114.57 12s82.87 3.57 83.2 3.58a.56.56 0 0 1 0 1.11z"/><path class="cls-3" d="M204.53 308.64a.56.56 0 0 1-.56-.56V279a.56.56 0 0 1 1.11 0v29.06a.56.56 0 0 1-.55.58zM32.37 289.65a.56.56 0 0 1-.56-.55l-.21-21a.56.56 0 0 1 .55-.56.56.56 0 0 1 .56.55l.21 21a.56.56 0 0 1-.55.56zm20.84 2.75a.56.56 0 0 1-.56-.56v-21.17a.56.56 0 1 1 1.11 0v21.17a.56.56 0 0 1-.55.56zm25.96 1.12a.56.56 0 0 1-.56-.56v-20.07a.56.56 0 1 1 1.11 0V293a.56.56 0 0 1-.55.52zm22.83 2.55a.56.56 0 0 1-.56-.56v-20.32a.56.56 0 0 1 1.11 0v20.32a.56.56 0 0 1-.55.56zm21 .16a.56.56 0 0 1-.56-.56v-19.52a.56.56 0 0 1 1.11 0v19.52a.56.56 0 0 1-.55.56zm20.79 3.17a.56.56 0 0 1-.56-.56v-21.52a.56.56 0 1 1 1.11 0v21.52a.56.56 0 0 1-.55.56zm20.89-.3a.56.56 0 0 1-.56-.56v-19.78a.56.56 0 1 1 1.11 0v19.79a.56.56 0 0 1-.55.55zm48.62 13.53a.56.56 0 0 1-.56-.56v-19.79a.56.56 0 0 1 1.11 0v19.79a.56.56 0 0 1-.55.56zm11.14 11a.56.56 0 0 1-.56-.56v-19.78a.56.56 0 0 1 1.11 0v19.79a.56.56 0 0 1-.55.55zm-39.64-24.17a.56.56 0 0 1-.56-.56v-20.38a.56.56 0 0 1 1.11 0v20.39a.56.56 0 0 1-.55.55z"/><path class="cls-3" d="M234 312.36c-.21 0-5.25-.42-15.76-8.64C211 298 204.32 284.66 204 284.09a.56.56 0 0 1 1-.49c.07.14 6.85 13.73 13.9 19.25 10.17 8 15.1 8.4 15.15 8.4a.56.56 0 0 1 0 1.11z"/><path class="cls-3" d="M234 316.16h-.15a50.06 50.06 0 0 1-16.16-9A47.17 47.17 0 0 1 204 288.9a.56.56 0 1 1 1-.38 46 46 0 0 0 13.37 17.79 50 50 0 0 0 15.77 8.75.56.56 0 0 1-.15 1.09z"/><path class="cls-5" d="M235.85 321.44c-4.44-.46-16.07-2.24-22.61-9.44-5.14-5.65-7.29-9-8.72-10.74-1-3.55-4.2-6.1-6.62-6.2-6.35-.26-24-1.21-48.08-3.22-25.72-2.14-99.35-7.66-124.63-11.24a188.87 188.87 0 0 0-22.33-2c-.72-.13-2.27.26-1.33 5.71s9.87 66.46 25.12 69.15c14.86 2.62 24.53 3.28 80.95 5.13 112 3.66 270.65 1.5 275.87.78 7.84-1.08 16.4-35.15 16.4-35.15s-159.58-2.33-164.02-2.78z"/><path class="cls-3" d="M261.94 361.78c-49.52 0-106.28-.5-154.38-2.07-55.39-1.81-66-2.49-81.1-5.14C13.94 352.36 5.53 316.07.67 286c-.11-.68-.19-1.2-.25-1.51-.57-3.33-.36-5.35.67-6.38a2.19 2.19 0 0 1 2-.61c.18 0 .8.05 1.53.07a175.72 175.72 0 0 1 20.77 1.91c20.41 2.89 73.52 7.14 105.25 9.68 7.74.62 14.4 1.15 19.31 1.56 23.38 1.95 41.19 2.94 48 3.21 2.73.11 6.37 2.73 7.59 6.79.36.45.77 1 1.26 1.65a108.45 108.45 0 0 0 7.28 8.87c6.18 6.8 17.37 8.61 21.9 9.08 4.34.45 162.31 2.76 163.91 2.78a1.11 1.11 0 0 1 1.06 1.38c-.9 3.56-9 34.83-17.33 36-3.08.42-56.01 1.3-121.68 1.3zM2.66 279.71s-.69.67 0 4.42c.06.32.14.85.25 1.54 6.6 40.87 15.34 65.19 24 66.7 15 2.64 25.54 3.3 80.79 5.11 111.81 3.66 270.32 1.53 275.68.79 5-.69 11.75-20 15.13-33-16.82-.25-158.43-2.33-162.69-2.77-4.78-.49-16.62-2.43-23.32-9.79a110.69 110.69 0 0 1-7.42-9c-.53-.71-1-1.29-1.34-1.75a1.1 1.1 0 0 1-.21-.41c-.84-3.07-3.63-5.3-5.6-5.38-6.86-.28-24.71-1.27-48.12-3.22-4.91-.41-11.57-.94-19.31-1.56-33.89-2.7-84.98-6.79-105.5-9.69a173.69 173.69 0 0 0-20.52-1.89 15.85 15.85 0 0 1-1.85-.11z"/><path class="cls-3" d="M19.79 296.38s-2.26 9.21-2.65 11.81-1.14 7.73-1.14 7.73l13-7.25 5.94.53.43-10.74z"/><path class="cls-11" d="M29 308.67l5.94.53-.34 8.63-18.6-1.91s12.24-7.33 13-7.25z"/><path class="cls-12" d="M29.35 297.65L28.91 308.66 34.98 309.19 35.4 298.45 29.35 297.65z"/><path class="cls-3" d="M35.16 318.55l-19.85-2 .09-.58s.79-5.12 1.18-7.72 2.57-11.48 2.66-11.86l.12-.49L36 298.08zm-18.57-3l17.5 1.79.73-18.27-14.62-1.94c-.47 1.93-2.19 9.07-2.52 11.28s-.87 5.71-1.09 7.12zm164.1-7.79h-.08a2.1 2.1 0 1 1 .08 0zm0-3.56a1.5 1.5 0 0 0-.06 3 1.46 1.46 0 0 0 1.08-.4 1.5 1.5 0 0 0-1-2.61z"/><path class="cls-5" d="M1.17 282.81s-.57 5.3 92.89 11.63c41.68 2.82 110.48 6.43 110.48 6.43"/><path class="cls-3" d="M204.53 301.43c-.69 0-69.28-3.64-110.49-6.43C12 289.44 1.94 284.67.82 283.33a.77.77 0 0 1-.21-.58.56.56 0 0 1 1.08-.11c.58.67 7.7 5.51 92.39 11.24 41.2 2.79 109.78 6.39 110.47 6.43a.56.56 0 0 1 0 1.11z"/><g class="cls-13"><path class="cls-14" d="M51.41 325.73l-.06 2.35s45.16 16 87.93 35l11.69.3c-2.32-1.07-10-4.5-31.09-13.21-26.75-11.09-68.47-24.44-68.47-24.44z"/><path class="cls-15" d="M185.66 364.24l12.31.32c.8.32-53.25-22.57-74.44-29.74s-51.88-16-60.15-18.57-11.66-2.68-11.66-2.68l-.06 2.38S99 330 124.85 339.07c20.52 7.19 54.87 22.51 60.81 25.17z"/><path class="cls-16" d="M51.27 331.2l-.08 3.18 66.25 28.11 9.23.24a275.5 275.5 0 0 0-28.54-13.29c-18.35-7.54-42.74-16.69-46.86-18.24z"/><path class="cls-17" d="M51.27 331.2c4.12 1.54 28.5 10.69 46.85 18.23a275.5 275.5 0 0 1 28.54 13.29l12.62.32c-42.78-18.94-87.93-35-87.93-35z"/><path class="cls-18" d="M124.85 339.07C99 330 51.66 315.95 51.66 315.95l-.08 3.25s44.34 13.68 67.5 22.45 54.21 22.21 54.38 22.28l12.2.31c-5.94-2.66-40.29-17.98-60.81-25.17z"/><path class="cls-19" d="M51.58 319.2l-.09 3.49s44.19 13.82 68.93 23.52c21.51 8.43 38.51 15.7 42.6 17.45l10.44.27c-.16-.07-31.28-13.53-54.38-22.28s-67.5-22.45-67.5-22.45z"/><path class="cls-20" d="M51.49 322.69l-.08 3s41.72 13.35 68.47 24.41c21.07 8.71 28.77 12.15 31.09 13.21l12 .31c-4.08-1.76-21.08-9-42.6-17.45-24.69-9.66-68.88-23.48-68.88-23.48z"/><path class="cls-4" d="M42.73 322.47l2.93-3 4.05.1s.08-3.22-.76-4.56a2.79 2.79 0 0 1 1-4.14c1.78-1.05 6.59-.6 8.65.22a4.68 4.68 0 0 1 2.57 1.91H56a5 5 0 0 0-2.76.59 8.92 8.92 0 0 1 2.66 3 8.79 8.79 0 0 1 .56 3.7l5.79.59s1.83 1.14 1.86 4.54a7.53 7.53 0 0 1-2.33 5.42L56 326s-3.88 1.87-4 4.61 1.1 4.19 2.26 5.76l2.33 3.13s-3.64 1-7.79-4.15-3.14-5.79-3.1-7.37 3.3-4.58 3.3-4.58-5.54.21-6.27-.93z"/></g><path class="cls-3" d="M98.49 302.43h-.08a2.07 2.07 0 1 1 .08 0zm0-3.56a1.5 1.5 0 0 0-.06 3 1.45 1.45 0 0 0 1.08-.4 1.5 1.5 0 0 0-1-2.61zm18.58 4.3H117a2.06 2.06 0 0 1-2-2.14 2.06 2.06 0 1 1 4.12.16 2.06 2.06 0 0 1-2.05 2zm0-3.56a1.5 1.5 0 0 0-.06 3 1.47 1.47 0 0 0 1.08-.4 1.5 1.5 0 0 0-1-2.61z"/><path class="cls-4" d="M292.57 260.43l-.17 8.59 13.82-6.02v-1.64zm1.8 5.89v-4h9.54z"/><path class="cls-3" d="M292.41 269.44a.42.42 0 0 1-.41-.44l.17-8.59a.42.42 0 0 1 .13-.3.39.39 0 0 1 .31-.11l13.65.9a.42.42 0 0 1 .39.42V263a.42.42 0 0 1-.25.38l-13.81 6.05a.43.43 0 0 1-.18.01zm.57-8.56l-.14 7.5 13-5.68v-1zm1.39 5.87a.42.42 0 0 1-.42-.42v-4a.42.42 0 0 1 .42-.42h9.54a.42.42 0 0 1 .16.8l-9.54 4a.42.42 0 0 1-.16.03zm.42-4v3l7.07-3z"/><path class="cls-4" d="M304.81 262.37c-3-.34-6.92-1.06-6.31-6.34s3.54-8.27 6.5-8.28c3.24 0 7 1.46 7.7 8.68.46 4.75-4.91 6.28-7.89 5.94z"/><path class="cls-3" d="M305.66 262.84a8 8 0 0 1-.89 0c-2.05-.23-4.36-.63-5.7-2.32a5.9 5.9 0 0 1-1-4.48c.59-5.08 3.43-8.64 6.91-8.65 3.29 0 7.36 1.58 8.08 9.06a5.09 5.09 0 0 1-1.5 4.27 8.8 8.8 0 0 1-5.9 2.12zm-.8-.88a8.17 8.17 0 0 0 6.18-1.9 4.23 4.23 0 0 0 1.25-3.59c-.53-5.51-3-8.3-7.25-8.3-2.57 0-5.48 2.73-6.09 7.91a5 5 0 0 0 .8 3.87c1.15 1.45 3.26 1.8 5.14 2z"/><path class="cls-4" d="M248.1 246.29v1.64l13.81 6.07-.17-8.59zm2.3 1h9.6v4z"/><path class="cls-3" d="M261.91 254.4a.43.43 0 0 1-.17 0l-13.81-6.05a.42.42 0 0 1-.25-.38v-1.64a.42.42 0 0 1 .39-.42l13.65-.9a.4.4 0 0 1 .31.11.42.42 0 0 1 .13.3l.17 8.59a.42.42 0 0 1-.42.43zm-13.39-6.74l13 5.68-.14-7.5-12.82.85zm11.43 4a.42.42 0 0 1-.16 0l-9.54-4a.42.42 0 0 1 .16-.8H260a.42.42 0 0 1 .42.42v4a.42.42 0 0 1-.42.42zm-7.49-4l7.07 3v-3z"/><path class="cls-4" d="M249.51 247.34c3-.34 6.92-1.06 6.31-6.34s-3.54-8.27-6.5-8.28c-3.24 0-7 1.46-7.7 8.68-.46 4.74 4.91 6.28 7.89 5.94z"/><path class="cls-3" d="M248.66 247.8a8.8 8.8 0 0 1-6-2.18 5.1 5.1 0 0 1-1.5-4.27c.72-7.48 4.78-9.05 8.08-9.05 3.48 0 6.32 3.57 6.91 8.65a5.9 5.9 0 0 1-1 4.48c-1.46 1.84-4.22 2.15-5.7 2.32a8.06 8.06 0 0 1-.79.05zm.62-14.67c-4.27 0-6.71 2.79-7.24 8.3a4.24 4.24 0 0 0 1.25 3.59 8.2 8.2 0 0 0 6.18 1.9c1.89-.21 4-.56 5.14-2a5 5 0 0 0 .8-3.87c-.6-5.18-3.52-7.9-6.09-7.91z"/><path class="cls-4" d="M220.43 258.56H223.15V263.62H220.43z"/><path class="cls-3" d="M223.15 264h-2.72a.42.42 0 0 1-.42-.42v-5.06a.42.42 0 0 1 .42-.42h2.72a.42.42 0 0 1 .42.42v5.06a.42.42 0 0 1-.42.42zm-2.3-.84h1.89V259h-1.89z"/><path class="cls-4" d="M222 258.57c2.47-.34 5.72-1.06 5.22-6.34s-2.92-8.27-5.37-8.28c-2.68 0-5.79 1.46-6.36 8.68-.4 4.75 4.03 6.28 6.51 5.94z"/><path class="cls-3" d="M221.29 259a6.84 6.84 0 0 1-4.58-1.76 5.59 5.59 0 0 1-1.71-4.64c.48-6 2.75-9.06 6.75-9.06 2.92 0 5.3 3.57 5.79 8.66.57 6-3.58 6.52-5.57 6.8a5.5 5.5 0 0 1-.68 0zm.51-14.67c-3.49 0-5.48 2.79-5.92 8.29a4.72 4.72 0 0 0 1.4 4 6.06 6.06 0 0 0 4.65 1.49c2.71-.37 5.31-1.13 4.86-5.89-.5-5.18-2.87-7.89-5-7.9z"/><path class="cls-5" d="M300.31 321.66s43.83 1.12 58.64 1.61 42 .56 43.65.77.65 3.54-.2 4.25-39.74-.42-49.68-.71c-11.11-.32-49.72-.43-51.33-.89s-1.17-3.14-1.08-5.03z"/><path class="cls-3" d="M395.78 329.62c-6.48 0-18.91-.23-43-.93h-.13c-4.49-.13-13.36-.22-22.75-.32-18.87-.2-27.86-.33-28.86-.6-2.28-.64-2.08-3.4-1.94-5.41v-.75a1.11 1.11 0 0 1 1.11-1.06c.44 0 44 1.13 58.65 1.61 8.29.27 20.26.41 29.88.52 8.6.1 13.13.16 13.88.25a2 2 0 0 1 1.73 1.52 5.42 5.42 0 0 1-1.35 4.68c-.16.24-.46.49-7.22.49zm-94.43-6.82c-.07 1-.14 2.68.34 2.81 1.2.23 16.21.39 28.28.52 9.4.1 18.27.19 22.79.32h.13c38.42 1.11 47.3 1 48.92.82a3.87 3.87 0 0 0 .55-2.15c-1.05-.08-7.11-.15-13.52-.23-9.63-.11-21.61-.25-29.92-.52-13.35-.43-50.75-1.37-57.56-1.57z"/><path class="cls-10" d="M258.52 319.31a7.89 7.89 0 1 1 7.89-7.89 7.9 7.9 0 0 1-7.89 7.89zm0-11.87a4 4 0 1 0 4 4 4 4 0 0 0-4-4.01z"/><path class="cls-3" d="M258.52 319.72a8.3 8.3 0 1 1 8.3-8.3 8.31 8.31 0 0 1-8.3 8.3zm0-15.77a7.47 7.47 0 1 0 7.47 7.47 7.48 7.48 0 0 0-7.47-7.42zm0 11.87a4.41 4.41 0 1 1 4.41-4.41 4.41 4.41 0 0 1-4.41 4.42zm0-8a3.57 3.57 0 1 0 3.57 3.57 3.57 3.57 0 0 0-3.57-3.54z"/><path class="cls-4" d="M68.11 308.85l.63-8.27 3.51.27a6 6 0 0 1 1.91.37 1.91 1.91 0 0 1 .9.86 2.4 2.4 0 0 1 .26 1.33 2.22 2.22 0 0 1-.66 1.5 2.64 2.64 0 0 1-1.69.64 3.89 3.89 0 0 1 .84.76 9.5 9.5 0 0 1 .85 1.41l.89 1.69-2-.15-1.07-1.89a11.62 11.62 0 0 0-.79-1.28 1.26 1.26 0 0 0-.48-.38 2.72 2.72 0 0 0-.83-.16h-.34l-.26 3.45zm2-4.64l1.24.09a6.42 6.42 0 0 0 1.51 0 .91.91 0 0 0 .49-.31 1.08 1.08 0 0 0 .22-.61 1 1 0 0 0-.17-.69 1 1 0 0 0-.6-.37c-.13 0-.54-.07-1.22-.12l-1.3-.1z"/><path class="cls-4" d="M83.55 310l-1.82-.14-.58-1.93-3.31-.25-.84 1.85-1.77-.13 3.85-8 1.77.13zm-2.83-3.5l-.91-3.15-1.35 3zm3.28 3.56l.63-8.27 1.67.13-.63 8.27zm3 .22l.6-8.28 1.62.12 3 5.78.42-5.52 1.55.12-.63 8.27-1.67-.13-2.96-5.64-.41 5.39zm8.58-7.67l3.31.25a9.59 9.59 0 0 1 1.46.19 2.08 2.08 0 0 1 1.42 1.15 1.88 1.88 0 0 1 .18 1 2 2 0 0 1-1.3 1.71 2.18 2.18 0 0 1 1.1.84 2 2 0 0 1 .31 1.28 2.49 2.49 0 0 1-.35 1.08 2.21 2.21 0 0 1-.78.8 2.37 2.37 0 0 1-1.15.31c-.28 0-1 0-2-.1l-2.78-.24zm1.32 4.79l-.17 2.21 1.55.12a7.32 7.32 0 0 0 1.15 0 1 1 0 0 0 .63-.28 1 1 0 0 0 .29-.69 1.07 1.07 0 0 0-.13-.64 1 1 0 0 0-.49-.42 5.69 5.69 0 0 0-1.47-.23zm.25-3.29L97 306l1.09.08q1 .07 1.21.06a1.1 1.1 0 0 0 .7-.24.88.88 0 0 0 .3-.63.91.91 0 0 0-.17-.64 1 1 0 0 0-.61-.34q-.25 0-1.43-.14zm5.77 3.27a5.28 5.28 0 0 1 .54-2.09 3.91 3.91 0 0 1 .86-1.07 3.23 3.23 0 0 1 1.13-.66 4.56 4.56 0 0 1 1.81-.19 3.89 3.89 0 0 1 2.84 1.36 5.08 5.08 0 0 1-.47 6.29 3.86 3.86 0 0 1-3 .91 3.9 3.9 0 0 1-2.85-1.35 4.28 4.28 0 0 1-.86-3.2zm1.72.07a3.11 3.11 0 0 0 .49 2.18 2.24 2.24 0 0 0 3.29.25 3.17 3.17 0 0 0 .8-2.11 3.12 3.12 0 0 0-.46-2.17 2.32 2.32 0 0 0-3.32-.24 3.13 3.13 0 0 0-.8 2.09zm8.12 4.78l-1.35-8.42 1.71.13.82 5.77 1.94-5.57 2 .15 1 5.88 1.71-5.68 1.68.13-2.63 8.12-1.77-.13-1.18-6.31-2.11 6.06zm13.42 1.01l-1.35-8.42 1.71.13.82 5.77 1.94-5.57 2 .15 1 5.88 1.71-5.68 1.68.13-2.69 8.13-1.77-.13-1.18-6.31-2.05 6.06zm16.2 1.23l-1.82-.14-.58-1.93-3.31-.25-.82 1.83-1.77-.13 3.85-8 1.77.13zm-2.83-3.5l-.91-3.15-1.35 3zm3.37 3.54l.63-8.27 3.51.27a6 6 0 0 1 1.91.37 1.91 1.91 0 0 1 .9.86 2.4 2.4 0 0 1 .26 1.33 2.22 2.22 0 0 1-.66 1.5 2.64 2.64 0 0 1-1.69.64 3.92 3.92 0 0 1 .84.76 9.45 9.45 0 0 1 .85 1.41l.89 1.69-2-.15-1.07-1.92a11.39 11.39 0 0 0-.79-1.28 1.27 1.27 0 0 0-.48-.38 2.74 2.74 0 0 0-.83-.16h-.34l-.26 3.45zm2-4.65l1.24.09a6.4 6.4 0 0 0 1.51 0 .89.89 0 0 0 .49-.31 1.07 1.07 0 0 0 .22-.61 1 1 0 0 0-.17-.69 1 1 0 0 0-.6-.37c-.13 0-.54-.07-1.22-.12l-1.3-.1zm6 5.25l.63-8.27 3.51.27a6 6 0 0 1 1.91.37 1.91 1.91 0 0 1 .9.87 2.4 2.4 0 0 1 .26 1.33 2.22 2.22 0 0 1-.66 1.5 2.64 2.64 0 0 1-1.69.64 3.92 3.92 0 0 1 .84.76 9.53 9.53 0 0 1 .85 1.41l.89 1.69-2-.15-1.07-1.89a11.45 11.45 0 0 0-.79-1.28 1.29 1.29 0 0 0-.5-.36 2.74 2.74 0 0 0-.83-.16h-.34l-.26 3.45zm2-4.64l1.24.09a6.46 6.46 0 0 0 1.51 0 .91.91 0 0 0 .49-.31 1.08 1.08 0 0 0 .22-.61 1 1 0 0 0-.17-.69 1 1 0 0 0-.6-.37c-.13 0-.54-.07-1.22-.12l-1.3-.1zm5.94 5.24l.63-8.27 1.67.13-.63 8.27zm2.88-3.89a5.28 5.28 0 0 1 .54-2.09 3.91 3.91 0 0 1 .86-1.08 3.2 3.2 0 0 1 1.13-.66 4.56 4.56 0 0 1 1.81-.19 3.89 3.89 0 0 1 2.84 1.36 5.08 5.08 0 0 1-.47 6.29 3.86 3.86 0 0 1-3 .91 3.9 3.9 0 0 1-2.85-1.36 4.28 4.28 0 0 1-.86-3.18zm1.72.07a3.11 3.11 0 0 0 .49 2.18 2.12 2.12 0 0 0 1.59.85 2.1 2.1 0 0 0 1.69-.6 3.17 3.17 0 0 0 .8-2.11 3.12 3.12 0 0 0-.46-2.17 2.32 2.32 0 0 0-3.32-.24 3.13 3.13 0 0 0-.78 2.1zm6.96 4.69l.63-8.27 3.51.27a6 6 0 0 1 1.91.37 1.91 1.91 0 0 1 .9.87 2.4 2.4 0 0 1 .26 1.33 2.21 2.21 0 0 1-.66 1.5 2.64 2.64 0 0 1-1.69.64 3.92 3.92 0 0 1 .84.76 9.53 9.53 0 0 1 .85 1.41l.89 1.69-2-.15-1.07-1.89a11.45 11.45 0 0 0-.79-1.28 1.29 1.29 0 0 0-.48-.38 2.78 2.78 0 0 0-.83-.16h-.34l-.26 3.45zm2-4.64l1.24.09a6.46 6.46 0 0 0 1.51 0 .91.91 0 0 0 .49-.31 1.08 1.08 0 0 0 .22-.61 1 1 0 0 0-.17-.69 1 1 0 0 0-.6-.37c-.13 0-.54-.07-1.22-.12l-1.3-.1zm6.83 40.53h-.05l-1-.53a.2.2 0 0 0-.18-.14c-.73-.37-.35-1.22-.26-1.86a20.4 20.4 0 0 1-.07-2.18l-2.62.6a2.8 2.8 0 0 1-1.23.16c-1.2-.22-2.48.07-3.52-.47a1.73 1.73 0 0 1-.83-.27 4.14 4.14 0 0 1-1.86-1.17c-.08-.16-.26-.24-.28-.42l-.23-.25-.37-1.22-.17-1.12h.18c0-1.44-.22-2.92.45-4.26l1.49-2 .42-.35c0-.64.64-1 1.12-1.42.11-.06.26 0 .34 0a1.19 1.19 0 0 0 .22-.56 1.72 1.72 0 0 1 1.05-.72c1.3-1.14 2.47-2.8 4.8-3.2 1.67-.11 2.49 1 3.29 1.82 0 1 .91 2.07.29 3.1a1.22 1.22 0 0 1-1.05.54l-.73-.09-.45-.46-.23-.66c-.18-.06-.2-.2-.2-.36-.18-.22-.31-.55-.67-.57-.45.15-.92.34-1.37.54a13.39 13.39 0 0 0-3.25 2.58 12.48 12.48 0 0 0-1.86 2.19c-.08.3-.42.45-.48.77-.27.2-.27.52-.51.77a3.14 3.14 0 0 0-.48 2.63 1.55 1.55 0 0 0 1.37.8c.67.31 1.43.24 1.84.67a13.16 13.16 0 0 1 1.51.2 2.24 2.24 0 0 0 1.94-.29h.37c0 .06 0 .12.13.12l1.87-1.09a1.21 1.21 0 0 0 .33-1.05.4.4 0 0 0-.18 0l-.86.11c-.08 0-.08.12-.18.12-.92.13-1.88.23-2.83.4a3.22 3.22 0 0 0-.73.17 1.62 1.62 0 0 1-1.23-.08c0-.14-.21-.18-.21-.28s-.23-.34-.22-.56c-.18-.16-.18-.44-.36-.6.17-.74.13-1.59.66-2.15a2 2 0 0 1 .5-.17c1.39-.18 2.62-.5 3.92-.58.08 0 .08-.1.16-.1 1.62-.11 3.27-.69 4.94-.33a.75.75 0 0 1 .54.73l.31.32c.06.94.78 2 .17 2.88a8.78 8.78 0 0 0-.73 1.62 29.19 29.19 0 0 0-.76 4c-.07 1.13.25 2.44-.62 3.4m78.45-17.21l-.18-.24c0-.14.16-.26.14-.4h-.18a.42.42 0 0 1-.23-.16l-.09-.62a1.52 1.52 0 0 1-.21-.08l-.07-.66-.83-.55-4.3 1.17c-1.52.52-3.48.45-4.69 1.09-.08.1-.19.14-.21.24a11.73 11.73 0 0 0-.73 2 4 4 0 0 1-.48 1c-.27.49-.56 1-.85 1.4h-.1c0-1.14.37-2.37-.21-3.55a2.65 2.65 0 0 0-.28-.6 4.57 4.57 0 0 0-.95-1.43l-1.22-.38s-.05-.06-.05-.08a2.7 2.7 0 0 1-1.69-.24c-.08-.08-.1-.12-.18-.14a.43.43 0 0 0-.16.1 1.14 1.14 0 0 1-.89-.11h-.73l-.21.22h-2.5c-.08.06-.11.18-.16.26a2.12 2.12 0 0 1-1.49.14v-.1a.56.56 0 0 0-.52-.07l-.47.23a1.15 1.15 0 0 0-.94.17.8.8 0 0 1-.27.37l-.73.11-.21.1-.59.95a.33.33 0 0 1-.16 0c-.31-.28-.17-.74-.27-1.1a2.39 2.39 0 0 0-1.27-.92 1.71 1.71 0 0 0-1 .2c-.72 2.62-.39 5.52-1 8.2a.18.18 0 0 1-.1 0c-.72-.77-1.31-1.67-2.05-2.54a7.85 7.85 0 0 1-.88-1.87c-.22-1.26.14-2.45-.29-3.63a4 4 0 0 0-2.34-.79 1.85 1.85 0 0 0-1.11 1.06 7.7 7.7 0 0 0-.15 3.07c.18.4-.09.78.09 1.12a20.86 20.86 0 0 1-.53 4c-.19.38-.07.74-.25 1.1-.4 2-1 4.15-.35 6 0 0 .1 0 .13.06s.05.12.13.12l2.08.33.34-.27c.85-1.32.28-2.93.67-4.34a12.2 12.2 0 0 1 .36-1.21c0-.48.09-1.06.51-1.27a2.69 2.69 0 0 1 1 1.29 4.91 4.91 0 0 0 .28.7c.1.18.28.32.31.5a7.42 7.42 0 0 1 1.61 4.2 3.41 3.41 0 0 0 .61 1.12 1.12 1.12 0 0 0 .47.31 6.08 6.08 0 0 1 1.91-.07.28.28 0 0 0 .26-.2 6.11 6.11 0 0 0 .27-.71c.36-3.33 0-6.48.46-9.77v-1.73a1 1 0 0 1 .12-1.06l.11-.06c.21.1.2.32.39.42a2.52 2.52 0 0 0 1.72.16c.21-.15.32-.27.45-.37a5.56 5.56 0 0 1 2-.29c.38.62 0 1.5 0 2.23l-.26.24-1 .25c-.9.5-.78 1.58-1 2.42a2.62 2.62 0 0 0 1.18 1.79c.18.16.44.23.62.37 0 1.83-.76 3.88.1 5.57a.36.36 0 0 1 0 .12l1.11.72 1-.11c1.54-1.89.46-4.72 1.41-7 0-.16.11-.24.08-.38l1.05-.28 2.81-1.09.56-.71.66-.35.13-.24c.26-.3.94-.21 1.05-.64l.13-.1a.14.14 0 0 1 .1 0c-.06.32-.43.77-.46 1.15a6.91 6.91 0 0 1-.59 1.33c-.09.5-.28 1-.36 1.47a2.47 2.47 0 0 0-.12.86 5.82 5.82 0 0 0 .39 3.58 3.6 3.6 0 0 0 .92 1.15l.08.08a5.06 5.06 0 0 0 1.84 1c0 .06.1.08.21 0s.13.08.08.08a10.47 10.47 0 0 0 3.26.23 5.77 5.77 0 0 1 1.42-.7c1.39-.48 1.41-1.75 1.35-2.75-.15-.66-.32-1.52-1-1.87l-3.39 1.17c-.08 0-.08.06-.13.1h-.78c-.47-.37-1.43-.62-1.31-1.34a.87.87 0 0 1 0-.14 1.64 1.64 0 0 1 1.31-.52l.13-.1a5.67 5.67 0 0 0 1.91-.27 6.63 6.63 0 0 1 1.65-.14l.39-.15h.47l2-.39a.26.26 0 0 0 .16-.1s.1 0 .18-.06a2 2 0 0 0 .57-2c-.25-.48-.27-.94-.53-1.34v-.14a1.44 1.44 0 0 0-.73-.53h-.13a8.77 8.77 0 0 1-5.24 1.2c-.07-.14-.28-.26-.33-.46l1-1.44a.42.42 0 0 1 0-.18l1.67-.42 6-1.19c.05 0 .05 0 .16-.1l.08.06s.08-.06.11-.1c.44-.09.63-.43.82-.79a1.58 1.58 0 0 1 .14-.95zm-16.56 2.23a4 4 0 0 1-2.08 1.29l-.18.14-.63.09a4.59 4.59 0 0 1-.36-2.5c1.15.14 2.45 0 3.28.63zm-29.79 12.97h.05l.19-.44s.05 0 .11-.06l.67.47.53-.39c.68-.33 1.89-.41 2-1.27a4.55 4.55 0 0 0-.32-3l-.23-.26-.56-.65H215l-.71.55c-.37.11-.76.21-1.21.38a4.09 4.09 0 0 1-2.79-.44.63.63 0 0 1-.09-.78c.1 0 .1-.1.16-.18s.5-.11.68-.23a9.2 9.2 0 0 0 3.06-.55c1.3.22 2.43-.4 3.64-.71.58-.45.49-1.31.42-1.93-.15-.18-.15-.34-.28-.48a4.21 4.21 0 0 0-.53-1.11 1.4 1.4 0 0 0-.91-.57 9.52 9.52 0 0 1-4.22 1.07.25.25 0 0 1-.23-.2c.34-.29.4-.85.67-1.19s.79-.63 1.32-.84a26.52 26.52 0 0 1 3-.28c1-.16 2-.23 2.9-.36a3.16 3.16 0 0 0 .28-1.65c-.31-.42-.72-.91-.66-1.42a2.25 2.25 0 0 0-1.58-.66c-.55 0-1.07.12-1.46.14-1.33.16-2.54.64-3.93.7a5 5 0 0 0-2.36.74c-.37.27-.66.43-.82.76a3.3 3.3 0 0 1-.21 1.79c-.14.29-.19.55-.33.79s-.19.33-.27.55-.16.48-.35.65c-.55 1.49-.62 3.06-1.06 4.55a4.39 4.39 0 0 0 .47 3.44c.77.61.6 1.72 1.69 2.08a6.29 6.29 0 0 1 2.24.61h.47a.32.32 0 0 1 .16-.08l.54.41m-11.27-.16l1-.26c.11-.06.18-.18.39-.17.5-.17.92-.35 1.11-.78a3.53 3.53 0 0 0-.35-3.2c-.21-.28-.38-.64-.82-.69a2.94 2.94 0 0 1-2.59.48 1.94 1.94 0 0 1-1.35-.74 1 1 0 0 1 .17-.66c.05 0 .16-.06.18-.14.47-.41 1.49-.2 2.15-.43h.18a1.09 1.09 0 0 0 .16-.08c1.44-.26 3.16.13 4.42-.55.1-.1.23-.1.26-.18-.07-.26-.1-.48-.17-.74s-.2-.68-.19-1.06c-.23-.3-.17-.54-.35-.82s-.18-.28-.25-.46a1.26 1.26 0 0 1-.21-.24c-1.53-.46-3.27.75-4.91.27-.05 0-.13-.06-.18-.1a2.32 2.32 0 0 1 .38-1.31l.24-.14 2.26-.64a23.37 23.37 0 0 0 4.68-.69.84.84 0 0 0 .38-1c-.61-1-.44-2.24-1.6-2.88-2.45-.27-4.94.73-7.43 1-.53.21-.82.79-1.55.58-.58.11-.92.62-1.24 1a4.57 4.57 0 0 0 .22 2.78c.36.46.85.85.47 1.48-.22.6-.59 1.09-.81 1.68a8.74 8.74 0 0 0-.25 4.76 3 3 0 0 0 1 1.89 2.75 2.75 0 0 0 1.4.84l.78.31c.05 0 .08.08.15.1a.69.69 0 0 0 .18.06c.08 0 .08 0 .13-.06l1 .48m-5.47-4.25a5.29 5.29 0 0 0-1.34-1.22c-.8-.57-1.73-1.2-1.93-2 .24-.38.61-.77.8-1a3 3 0 0 0 .64-.93 7 7 0 0 0-.28-5.91 6.33 6.33 0 0 0-2.36-2.59 7.1 7.1 0 0 0-3.94.08c-.89.37-1.14 1.14-1.44 1.9a3.27 3.27 0 0 0 .38 2.28c.15.22.28.32.41.5l-.88 2.8-1 .33a.3.3 0 0 0-.11.08l-.11.44-.21.06a2.83 2.83 0 0 0 .64 3c.05 1.78-1.1 3.69 0 5.36a4.67 4.67 0 0 0 .79.91h.49l.21.1h.1l.42-.05a2.41 2.41 0 0 0 .61-2.66c-.09-1-.33-2.12.59-2.76.21.06.12.34.31.44a19.53 19.53 0 0 1 2 1.55 8.67 8.67 0 0 1 1.67 1.9s.13 0 .16.1a2.17 2.17 0 0 0 1.19.82 1.44 1.44 0 0 0 1-.14c.45-.29.56-.65.88-1a2.1 2.1 0 0 0 .31-2.39zm-5-7.32c-.37.43-.67 1-1.51 1.1.28-1.27.41-2.63.63-3.84a2.82 2.82 0 0 0 .34.07 1.22 1.22 0 0 1 1 .71c.36.56-.07 1.31-.46 1.96zm107.53-3.56c-.38-.68-.66-1.41-1.62-1.66-3.46.83-6.86 1.14-10.34 1.9a.74.74 0 0 0-.23-.06c-1 .2-2.33.28-2.81 1.06-.77 1-.16 2.09-.7 3-.38.81-.73 1.58-1.06 2.44a7.8 7.8 0 0 0-.33 1.09c-.4.93-.05 1.88-.51 2.76a.2.2 0 0 1-.15-.06l-.41-.73a2 2 0 0 0-1.26.62.54.54 0 0 1-.18.2 4.07 4.07 0 0 1-3.14.27c-.47-.17-1-.25-1.19-.54a10 10 0 0 1-2.81-2.2c.19-.55.17-1.11.57-1.57.11-.4.48-.63.67-1a9.35 9.35 0 0 1 1.51-1.57l1-.6c.16 0 .16-.14.34-.09l.76-.21a.45.45 0 0 1 .29-.06c.08 0 .1.06.21.1a.65.65 0 0 1 0 .72 2.71 2.71 0 0 0 0 2 .28.28 0 0 0 .1.16 4.37 4.37 0 0 0 1.47.8l1.12.06c.1 0 .18-.18.31-.22a4.9 4.9 0 0 0 .5-5.48 3.71 3.71 0 0 0-1.6-1.42 4.84 4.84 0 0 0-1.07 0 13.57 13.57 0 0 0-4.64 1.33 4.76 4.76 0 0 0-1.82 1.11c-.11.18-.34.18-.4.33l-.63.29c-.12.62-.87.93-1.07 1.54-.24.43-.4.87-.64 1.25h-.1c-.65-2.38-.58-5.23-2.66-7-.47-.09-.93-.45-1.43-.18-.1.06-.11.1-.16.2-.24.16-.4.39-.71.59-.42.41-.74.83-1.11 1.24-.38.59-.86 1.22-1.2 1.88-.7 1.33-1.29 2.67-2 4a1.91 1.91 0 0 1-.77.83 11.19 11.19 0 0 1-2 4.56c-.24.32-.17.74-.43 1a3 3 0 0 0 .23 1.86c.08.12.1.18.15.26a3.15 3.15 0 0 1 1.43.74 2.56 2.56 0 0 0 1.38-1.4 7 7 0 0 1 1.11-2.44c.53-.71 1.76-.61 2.68-1 .6 0 1.33-.18 1.85.11.48 1-.37 2.27.16 3.31a1.71 1.71 0 0 0 .95 1.39c.16 0 .23.1.34.12l.44.13H266.52l.34-.25c1.25-1.64.05-3.63.55-5.44a.33.33 0 0 1 .11-.18c.46.43.63 1.2 1.12 1.71l.8.61a.31.31 0 0 1 0 .1 13.94 13.94 0 0 0 5.35 3.21 8.47 8.47 0 0 0 1.38.2c.08 0 0 .06.15.06a3.33 3.33 0 0 0 2.28-.44 4.18 4.18 0 0 1 .48-.45c0-.14.16-.16.19-.26s.08-.18.19-.28l.68-1.52s.08-.06.11-.06c1.08 1 2.11 2.33 4.17 2.53h1.2a7.22 7.22 0 0 1 1.28-.24 7.34 7.34 0 0 0 2.67-.58l.5-.43a4 4 0 0 0 .35-2.67c-.26-.34-.65-.47-.9-.71a.26.26 0 0 1 .06-.26l1.21-.42a2.8 2.8 0 0 0 .62-3 3 3 0 0 0-1.28-1.63c-.16-.06-.29-.06-.42-.11-1.23.7-3.11.45-4.68.31-.23-.28.12-.73.25-1.13a1.84 1.84 0 0 1 1.63-1c.08 0 .08 0 .16-.08a1 1 0 0 0 .18 0l.89-.13c.08 0 .08-.06.16-.08l1.38-.12 4.16-.28 1.07-.2a1.25 1.25 0 0 0 .7-.05 1.46 1.46 0 0 0 .42 0l.78.31h.19c.08-.08.26-.07.42-.13l.24-.16a6.71 6.71 0 0 0-.13-2.51zm-33.66 6.07c-.08 0-.1.06-.16.06l-1.2.06a.37.37 0 0 1-.18-.08l1.51-3c.1 0 .34 0 .34.1a5.69 5.69 0 0 1-.31 2.86zM285 344.9c.6-.19 1.2.06 1.78-.09l2.22.29s-.08.08-.1.08c-.76-.07-1.28.42-1.89.47a.81.81 0 0 1-.26-.08c-.57-.21-1.05.38-1.68.33l-1.5-.7.14-.3c.29-.28.83-.05 1.29 0z"/></g></g></svg>