<svg xmlns="http://www.w3.org/2000/svg" viewBox="0 0 74.65 57.26"><defs><style>.cls-1{fill:#575756;fill-rule:evenodd}</style></defs><g id="Layer_2" data-name="Layer 2"><g id="Layer_4" data-name="Layer 4"><path class="cls-1" d="M64 10.14l2.56-1.66L68 7.57c.44-.27.88-.53 1.31-.81.6-.39 1.19-.8 1.78-1.21l.84-.55.26-.15a.24.24 0 0 1 .34.1c.08.13 0 .23-.1.31s-.44.37-.67.54l-2.11 1.56-2.95 2.26-1.46 1.1L63.55 12l-.36.25a.23.23 0 1 0 .23.4l.13-.05 2-1.24 1.45-.82c.34-.21.67-.44 1-.65.62-.39 1.24-.76 1.85-1.16l2.27-1.47c.38-.24.78-.47 1.17-.7.13-.08.27-.11.37 0s0 .25-.14.34l-2.27 1.75-.72.54L68 11.07l-2.21 1.6-1.5 1.11c-.23.17-.27.31-.17.45s.26.1.49 0l2.31-1.41.1-.06 3.56-2.25.63-.42 2.59-1.65.52-.3a.23.23 0 0 1 .34.06c.1.13 0 .22-.08.29l-2 1.57L71 11.25c-.27.22-.56.42-.83.63l-1.2 1c-.24.19-.5.37-.74.55l-2.44 1.92-1.06.82c-.3.23-.59.46-.9.66a4.81 4.81 0 0 1-2.78.74h-1.36a6 6 0 0 0-2.4.54 6.58 6.58 0 0 0-.69.36c-.22.12-.44.24-.64.37-.36.24-.7.51-1.06.76l-.84.58-1.51 1-1.71 1.2L49 23.71l-1.63 1.14-3.32 2.3c-1.41 1-2.83 1.94-4.25 2.89-.56.37-1.14.71-1.71 1.06s-1.29.8-1.95 1.16c-.46.25-.95.46-1.42.68l-2 .87c-.32.14-.48.13-.68-.16a13 13 0 0 1-.82-1.28c-.17-.31-.12-.45.15-.71s.73-.71 1.11-1q.84-.72 1.7-1.4c.59-.46 1.17-.93 1.79-1.35q2-1.37 4.13-2.68c1.48-.94 3-1.85 4.47-2.77l2.66-1.65 3-1.85 1.44-.88 2.89-1.78a8.6 8.6 0 0 0 1.73-1.59 7.87 7.87 0 0 0 1.44-2.33A4.52 4.52 0 0 1 59 10.65a10.54 10.54 0 0 1 1.25-.82c.38-.23.77-.42 1.15-.64l2-1.17 1.67-1 2-1.19 1.56-.95 2.46-1.51c.18-.11.31-.09.4 0s0 .26-.11.35L70 4.84l-2 1.5-2.81 2.1-2.44 1.83-.52.41s-.1.07-.11.11-.06.21 0 .27a.27.27 0 0 0 .26 0 5.15 5.15 0 0 0 .69-.36c.32-.2.63-.42.94-.63zM25 42.69l-2.94-.83-1.62-.47c-.5-.15-1-.31-1.47-.45-.69-.19-1.39-.36-2.08-.54l-1-.26-.29-.14a.24.24 0 0 1-.15-.32c0-.14.17-.15.3-.13l.85.15 2.59.54 3.64.73 1.79.37 2.11.41.43.11a.23.23 0 0 0 .3-.13.23.23 0 0 0-.15-.31l-.13-.06-2.25-.68-1.58-.51-1.16-.33-2.09-.63-2.6-.73c-.44-.13-.87-.28-1.3-.42-.15 0-.26-.13-.2-.31s.2-.16.35-.12l2.75.57.88.19 3.11.7 2.66.61 1.82.4c.28.06.41 0 .45-.16s-.1-.26-.35-.34l-2.58-.8h-.12l-4-1.19-.74-.2-2.95-.86-.57-.2a.23.23 0 0 1-.21-.35c0-.16.16-.15.27-.13l2.46.44 2 .34 1 .2 1.54.25c.3.05.6.13.9.19l3.05.57 1.32.25c.37.07.73.14 1.09.24a4.82 4.82 0 0 1 2.4 1.65l.89 1a6 6 0 0 0 2 1.45 6.42 6.42 0 0 0 .72.28c.23.08.46.17.7.24.42.11.85.19 1.27.3l1 .25 1.77.46 2 .5 2.2.53 1.93.47 3.91 1c1.66.42 3.32.85 5 1.29.65.17 1.28.39 1.92.59s1.45.44 2.16.7c.49.18 1 .41 1.45.63l1.94.89c.31.15.41.28.33.62a12.81 12.81 0 0 1-.42 1.46c-.12.33-.26.39-.62.35s-1-.08-1.51-.16q-1.09-.16-2.18-.36c-.73-.14-1.47-.27-2.19-.46q-2.38-.64-4.74-1.34c-1.68-.5-3.36-1-5-1.54l-3-.91-3.34-1-1.61-.5-3.24-1a8.61 8.61 0 0 0-2.34-.25 7.86 7.86 0 0 0-2.71.45 4.53 4.53 0 0 1-2.09.19 10.26 10.26 0 0 1-1.45-.4c-.42-.13-.83-.3-1.25-.44l-2.19-.72-1.84-.62-2.24-.75-1.76-.55-2.76-.85c-.2-.07-.28-.17-.23-.33s.2-.17.34-.14l1.75.35 2.45.52 3.41.72 3 .63.65.12h.16c.04 0 .2-.1.22-.16a.28.28 0 0 0-.13-.22 5.4 5.4 0 0 0-.73-.28c-.36-.11-.72-.2-1.09-.29z"/><path class="cls-1" d="M17.45 54.74l-3 .23-1.68.11c-.52 0-1 0-1.54.08-.71.06-1.42.13-2.14.2l-1 .1H7.7a.24.24 0 0 1-.25-.25c0-.15.11-.2.23-.22l.85-.15 2.62-.38 3.67-.56 1.81-.26 2.12-.34h.44c.13 0 .24-.08.24-.22s-.1-.22-.24-.24H19l-2.34.13L15 53l-1.2.09-2.18.12-2.7.2c-.45 0-.91 0-1.36.05-.16 0-.29 0-.3-.22s.13-.21.29-.24l2.78-.41.89-.12 3.2-.47 2.71-.34 1.87-.23c.28 0 .39-.14.36-.31s-.18-.21-.44-.2l-2.7.13h-.12l-4.2.27-.76.07L8 51.6h-.6a.23.23 0 0 1-.27-.21c0-.16.1-.2.21-.21l2.46-.44 2-.36 1-.16 1.53-.3.91-.13 3.07-.51 1.33-.21c.37-.06.74-.12 1.11-.15a4.81 4.81 0 0 1 2.79.68l1.19.67a6 6 0 0 0 2.37.68 6.4 6.4 0 0 0 .78 0h.74c.43 0 .86-.11 1.29-.16l1-.11 1.82-.17 2.08-.23 2.31-.28 2-.22 4-.42c1.7-.17 3.41-.34 5.12-.49.67-.06 1.34-.08 2-.11s1.51-.08 2.26-.09c.53 0 1.05.05 1.58.09l2.13.17c.35 0 .48.12.52.46a12.66 12.66 0 0 1 .1 1.51c0 .36-.11.45-.47.55s-1 .27-1.48.37q-1.08.23-2.17.41c-.74.12-1.47.25-2.22.32q-2.45.22-4.91.37c-1.75.11-3.5.19-5.25.28l-3.13.17-3.49.2-1.71.14-3.39.17a8.61 8.61 0 0 0-2.28.56A7.91 7.91 0 0 0 24 55.79a4.49 4.49 0 0 1-1.9.9 10.27 10.27 0 0 1-1.49.12h-1.32L17 56.9l-2 .1h-2.35l-1.82.08-2.89.15c-.21 0-.32-.06-.33-.23s.13-.23.27-.25l1.76-.27 2.48-.35 3.45-.49 3-.43.66-.11h.15c.03 0 .15-.16.15-.23a.28.28 0 0 0-.2-.16 5.45 5.45 0 0 0-.78 0c-.38 0-.75.06-1.12.1z"/><path class="cls-1" d="M17.88 28.64l-2.2-2.11-1.21-1.17c-.37-.36-.72-.74-1.09-1.09s-1.05-1-1.58-1.46l-.8-.71a2.19 2.19 0 0 1-.2-.22.23.23 0 0 1 0-.35c.11-.1.22-.05.32 0s.46.35.68.53l2 1.69 2.87 2.35 1.4 1.17 1.67 1.35.33.3a.23.23 0 1 0 .34-.31.83.83 0 0 0-.08-.11l-1.66-1.66c-.39-.39-.76-.8-1.16-1.2s-.58-.55-.87-.83c-.52-.51-1-1-1.55-1.54s-1.31-1.24-2-1.87c-.32-.32-.63-.65-.95-1-.11-.11-.17-.24 0-.37s.25 0 .36.05l2.16 1.79.69.58 2.42 2.08 2.06 1.79 1.42 1.21c.22.18.37.19.47.06s0-.28-.15-.46l-1.9-1.92-.09-.08-3-3-.56-.52-2.2-2.14c-.14-.14-.27-.29-.41-.44a.23.23 0 0 1 0-.34c.11-.13.21-.05.3 0l2 1.54 1.59 1.23c.27.22.53.45.81.66l1.24.94c.24.19.47.4.71.59l2.43 1.94 1 .84c.29.24.58.47.85.72a4.82 4.82 0 0 1 1.36 2.54c.1.44.21.89.3 1.33a6 6 0 0 0 1.07 2.22 6.38 6.38 0 0 0 .51.59c.16.18.33.37.51.54s.65.57 1 .86l.76.68 1.35 1.24 1.56 1.39 1.69 1.5L36 41.46l3 2.7q1.9 1.73 3.79 3.48c.49.46.95.94 1.42 1.42s1.07 1.07 1.58 1.63c.35.39.67.82 1 1.23s.87 1.13 1.3 1.7c.21.28.23.44 0 .7A12.52 12.52 0 0 1 47 55.41c-.26.24-.41.22-.72 0s-.85-.55-1.26-.85q-.89-.65-1.75-1.34c-.58-.46-1.17-.93-1.72-1.43q-1.8-1.68-3.56-3.4c-1.25-1.23-2.48-2.48-3.72-3.72l-2.22-2.21L29.59 40l-1.19-1.2-2.4-2.4a8.64 8.64 0 0 0-1.95-1.32 7.91 7.91 0 0 0-2.6-.87 4.53 4.53 0 0 1-1.94-.81 10.4 10.4 0 0 1-1.09-1c-.31-.32-.59-.66-.89-1L16 29.72l-1.36-1.4L13 26.61l-1.28-1.3-2-2c-.15-.15-.17-.28 0-.4s.25-.06.37 0L11.36 24l1.92 1.61L16 27.87l2.34 2 .52.41s.09.08.13.08h.27a.28.28 0 0 0 0-.26 5.53 5.53 0 0 0-.51-.59c-.27-.26-.55-.51-.82-.77z"/><path class="cls-1" d="M.86 41.57c-.24-.2-.49-.4-.72-.62a.42.42 0 0 1 0-.59l1.21-1.69c.2-.27.41-.53.61-.8C2.63 36.93 3.31 36 4 35c.45-.6.92-1.18 1.38-1.77l1.66-2.08L8.85 29c.25-.3.51-.58.76-.88 1-1.2 2-2.41 3.07-3.59.68-.78 1.4-1.52 2.1-2.28a4.9 4.9 0 0 0 1.28-2.53c.1-.58.09-1.18.14-1.78 0-.29.08-.58.13-.86a9.3 9.3 0 0 1 .83-2.38c.19-.38.46-.73.68-1.1a9.11 9.11 0 0 1 2.59-2.51 10 10 0 0 1 2.2-1.23 16.66 16.66 0 0 1 2.12-.77 2.24 2.24 0 0 1 2.81 1.53 3.77 3.77 0 0 1 .08 1.19 14.14 14.14 0 0 1-1.21 4.52 10 10 0 0 1-1.14 1.94 8.53 8.53 0 0 1-4 3c-.49.18-1 .28-1.5.43a5 5 0 0 0-2.3 1.48c-.34.39-.59.85-.9 1.27s-.72 1-1.08 1.45l-1.87 2.54c-.36.49-.74 1-1.11 1.45l-1.3 1.66-.93 1.16c-.64.79-1.29 1.57-1.94 2.35s-1.14 1.37-1.73 2-1.29 1.38-1.94 2.07l-1.61 1.72c-.34.36-.7.72-1.05 1.07l-.12.08c-.26.17-.31.17-.55 0l-.5-.42z"/><path class="cls-1" d="M1.17 39.66c-.3-.1-.61-.18-.9-.29a.42.42 0 0 1-.27-.54c.16-.67.31-1.35.47-2 .08-.33.18-.65.26-1 .28-1.14.56-2.28.85-3.41.19-.73.39-1.44.6-2.16s.5-1.71.74-2.56.53-1.83.8-2.74c.11-.37.25-.73.37-1.1.49-1.5 1-3 1.46-4.49.33-1 .71-1.94 1.07-2.91a4.9 4.9 0 0 0 .21-2.82c-.13-.58-.37-1.13-.55-1.7-.08-.28-.15-.56-.21-.85A9.24 9.24 0 0 1 6 8.58c0-.43.15-.85.21-1.28A9.11 9.11 0 0 1 7.6 4a10 10 0 0 1 1.56-2A16.35 16.35 0 0 1 10.83.51 2.24 2.24 0 0 1 14 .84a3.69 3.69 0 0 1 .53 1.07 14.16 14.16 0 0 1 .61 4.64 9.85 9.85 0 0 1-.31 2.23 8.54 8.54 0 0 1-2.58 4.31c-.38.35-.82.64-1.22 1a5 5 0 0 0-1.56 2.25c-.16.49-.22 1-.34 1.52s-.3 1.17-.44 1.75c-.25 1-.5 2-.76 3.06-.15.59-.31 1.18-.47 1.76s-.37 1.36-.56 2c-.13.48-.27 1-.41 1.43-.29 1-.59 1.95-.89 2.92s-.53 1.7-.82 2.54-.66 1.77-1 2.65c-.27.72-.54 1.45-.82 2.17-.18.47-.37.93-.56 1.39a.76.76 0 0 1-.08.13c-.18.26-.22.28-.52.19l-.62-.2zm11.2-11.27c-.12-.29-.25-.58-.36-.88a.42.42 0 0 1 .25-.54L14.1 26l.91-.43c1.05-.52 2.1-1 3.16-1.55.67-.33 1.36-.63 2-.94L22.65 22l2.61-1.16c.36-.16.72-.28 1.08-.43 1.46-.59 2.91-1.2 4.38-1.78 1-.38 1.94-.71 2.91-1.05a4.91 4.91 0 0 0 2.3-1.66c.36-.47.62-1 .94-1.51.16-.24.33-.48.51-.7A9.2 9.2 0 0 1 39.21 12c.35-.25.74-.43 1.11-.66a9.1 9.1 0 0 1 3.45-1 10.11 10.11 0 0 1 2.52-.08 17.23 17.23 0 0 1 2.24.29 2.24 2.24 0 0 1 1.79 2.65 3.67 3.67 0 0 1-.48 1.09 14.11 14.11 0 0 1-3.15 3.46 9.76 9.76 0 0 1-1.91 1.2 8.52 8.52 0 0 1-5 .8c-.51-.06-1-.21-1.53-.3a5 5 0 0 0-2.73.26c-.48.19-.92.49-1.38.72l-1.62.79-2.83 1.4-1.65.78-1.92.88-1.36.6L22 26c-.82.34-1.64.69-2.47 1s-1.78.63-2.67.95l-2.19.78-1.43.46h-.15c-.31 0-.35 0-.48-.27s-.16-.4-.25-.6z"/></g></g></svg>