<svg xmlns="http://www.w3.org/2000/svg" viewBox="0 0 85.49 85.5"><defs><style>.cls-1{fill:#fff}.cls-2{fill:#e30613}.cls-3{fill:#005f67}</style></defs><g id="Layer_2" data-name="Layer 2"><g id="Layer_3" data-name="Layer 3"><path class="cls-1" d="M42.75 5a37.75 37.75 0 1 0 37.74 37.75A37.79 37.79 0 0 0 42.75 5z"/><path class="cls-2" d="M42.75 0a42.75 42.75 0 1 0 42.74 42.75A42.8 42.8 0 0 0 42.75 0zm0 80.5a37.75 37.75 0 1 1 37.74-37.75A37.79 37.79 0 0 1 42.75 80.5z"/><path class="cls-3" d="M29.7 52.48v-3.33L34 45c10.2-9.73 14.82-14.91 14.88-21 0-4.07-2-7.83-8-7.83a13.66 13.66 0 0 0-8.51 3.39l-1.73-3.82A17.59 17.59 0 0 1 42 11.71c8.63 0 12.27 5.92 12.27 11.66 0 7.4-5.37 13.38-13.82 21.53l-3.21 3v.1h18v4.5zM18.69 56h2.07v5.27h.05c.27-.44.56-.85.83-1.24l3-4h2.58l-3.94 4.87 4.2 6.58H25l-3.25-5.25-1 1.22v4h-2.06zm19.62 5.63c0 3.84-2.33 6-5.49 6s-5.27-2.46-5.27-5.83c0-3.52 2.21-6 5.44-6s5.32 2.57 5.32 5.83zm-8.55.17c0 2.33 1.17 4.18 3.18 4.18s3.16-1.87 3.16-4.27c0-2.16-1.07-4.2-3.16-4.2s-3.18 1.93-3.18 4.29zm10.35 5.68V56h2.38l3 4.91a31.52 31.52 0 0 1 2 3.84c-.14-1.53-.19-3-.19-4.76V56h1.94v11.48H47l-3-5a39.91 39.91 0 0 1-2.06-4h-.05c.08 1.48.1 3 .1 4.88v4.1zm13.69-9.71h-3.27V56h8.65v1.75h-3.3v9.71H53.8zm6.54 7.43a5.8 5.8 0 0 0 2.77.73c1.34 0 2.09-.63 2.09-1.56s-.58-1.38-2-1.9c-1.89-.68-3.09-1.68-3.09-3.33 0-1.87 1.56-3.3 4-3.3a6 6 0 0 1 2.75.58l-.51 1.68a4.85 4.85 0 0 0-2.28-.54c-1.33 0-1.9.71-1.9 1.38 0 .88.66 1.29 2.19 1.89 2 .75 3 1.75 3 3.4 0 1.84-1.39 3.43-4.35 3.43a6.8 6.8 0 0 1-3.09-.71z"/></g></g></svg>