<svg xmlns="http://www.w3.org/2000/svg" viewBox="0 0 585.18 300.36"><defs><style>.cls-1,.cls-2{fill:#333}.cls-1{opacity:.4}.cls-3{fill:#ffed00}.cls-4{fill:#d0b400}.cls-5{fill:#f7cd00}.cls-6{fill:#dadada}.cls-7{fill:#b2b2b2}.cls-8{fill:#ededed}.cls-9{font-size:15.8px;fill:#005f67;font-family:AdobeFanHeitiStd-Bold,AdobeFanHeitiStd Bold-B5pc-H;font-weight:700}.cls-10{fill:none;stroke:#005f67;stroke-linecap:round;stroke-linejoin:round;stroke-width:2px;stroke-dasharray:12 12}</style></defs><g id="Layer_2" data-name="Layer 2"><g id="Layer_3" data-name="Layer 3"><path class="cls-1" d="M290.92 110.93c-11.07-6.53-42.1-22.32-63.33-24.5S183.49 84.8 166.07 75c-14.28-8-28.39-16.58-43.71-22.52-12.13-4.71-25.05-6.67-38-7.61-12.14-.88-29 .64-41.2-1.38a31.23 31.23 0 0 0-4.69-.43 16.63 16.63 0 0 0-7.62 1.45c-5.49 2.71-6.5 8.78-4.28 14.7a22.29 22.29 0 0 0 4.61 7.3A23.36 23.36 0 0 0 35.27 70c14.36 9.57 37.92 15.13 53 22.74s19.27 18.79 25.86 33.25c6.16 13.53 15.42 25 25.8 35.59s22.27 23 36.27 29.05c16 6.89 61.56 2.07 61.56 2.07l102-57.79s-37.76-17.45-48.84-23.98z"/><path class="cls-2" d="M26.59 59.2c-2.23-5.92-1.21-12 4.28-14.7a16.63 16.63 0 0 1 7.62-1.45L15.1 30.91A7.34 7.34 0 0 0 5.2 34L.83 42.46A7.34 7.34 0 0 0 4 52.36L31.19 66.5a22.29 22.29 0 0 1-4.6-7.3z"/><path class="cls-3" d="M463.14 99.82L365.3 124.94 384.83 129.51 478.28 151.39 478.36 151.37 556.59 131.29 576.12 126.28 463.14 99.82z"/><path class="cls-4" d="M576.12 126.28L478.36 151.37 478.28 160.98 478.36 160.96 576.12 135.86 576.12 126.28z"/><path class="cls-5" d="M365.3 124.94L365.3 134.52 478.28 160.98 478.36 151.37 365.3 124.94z"/><path class="cls-2" d="M188.69 159.08L188.69 159.37 189.28 159.22 188.69 159.08z"/><path class="cls-2" d="M468.27 143.35L468.27 143.06 467.68 143.21 468.27 143.35z"/><path class="cls-2" d="M388.67 171.36L378.36 174 468.27 237.74 468.27 234.87 468.27 227.78 468.27 150.93 388.67 171.36z"/><path class="cls-6" d="M194.7 165.69L188.69 164.28 178.68 161.94 178.68 169.81 178.68 202.7 291.65 282.78 291.65 279.92 291.65 272.83 291.65 196.26 291.65 188.4 194.7 165.69z"/><path class="cls-7" d="M467.68 143.21L462.26 144.6 380.53 165.58 370.22 168.23 301.66 185.83 301.66 193.69 378.36 174 388.67 171.36 468.27 150.93 468.27 146.01 468.27 143.35 467.68 143.21z"/><path class="cls-7" d="M291.65 188.4L291.65 196.26 291.65 272.83 291.65 279.92 291.65 282.78 301.66 279.92 301.66 277.06 301.66 193.69 301.66 185.83 291.65 188.4z"/><path class="cls-7" d="M468.27 143.06L468.27 143.35 468.27 146.01 468.27 150.93 468.27 227.78 468.27 234.87 468.27 237.74 478.28 234.87 478.28 232.01 478.28 148.35 478.28 140.49 468.27 143.06z"/><path class="cls-8" d="M365.3 114.03L354.63 116.77 353.73 117 189.28 159.22 188.69 159.37 178.68 161.94 188.69 164.28 194.7 165.69 291.65 188.4 301.66 185.83 370.22 168.23 380.53 165.58 462.26 144.6 467.68 143.21 468.27 143.06 478.28 140.49 365.3 114.03z"/><path class="cls-3" d="M178.68 176.24L80.84 201.36 100.37 205.93 193.82 227.81 193.9 227.79 272.13 207.71 291.65 202.7 178.68 176.24z"/><path class="cls-4" d="M291.65 202.7L193.9 227.79 193.82 237.4 193.9 237.38 291.65 212.28 291.65 202.7z"/><path class="cls-5" d="M80.84 201.36L80.84 210.94 193.82 237.4 193.9 227.79 80.84 201.36z"/><path class="cls-2" d="M561.67 271.13L478.28 224.34 478.28 228.23 554.75 271.13 291.65 271.13 291.65 274.52 561.23 274.52 567.7 274.52 585.18 274.52 585.18 271.13 561.67 271.13z"/><path class="cls-2" transform="rotate(-15.39 242.319 109.082)" d="M217.19 108.25H267.43V109.94H217.19z"/><path class="cls-2" transform="rotate(-15.39 245.427 113.685)" d="M225.56 112.84H265.25V114.53H225.56z"/><path class="cls-2" transform="matrix(.96 -.27 .27 .96 -22.16 71)" d="M226.37 116.62H276.61V118.31H226.37z"/><path class="cls-2" transform="rotate(-58.18 252.605 113.59)" d="M251.76 97.07H253.45V130.10999999999999H251.76z"/><path class="cls-2" transform="rotate(-58.18 239.389 113.569)" d="M238.54 96.91H240.23V130.22H238.54z"/><path class="cls-2" transform="rotate(-58.18 261.525 110.926)" d="M260.65 89.73H262.34V132.13H260.65z"/><path class="cls-2" transform="rotate(-58.19 230.124 116.01)" d="M229.29 94.53H230.98V137.48000000000002H229.29z"/><path class="cls-2" transform="rotate(-15.41 141.142 115.022)" d="M121.31 114.15H160.84V115.84H121.31z"/><path class="cls-2" transform="rotate(-15.45 143.485 118.601)" d="M127.9 117.76H159.12V119.45H127.9z"/><path class="cls-2" transform="rotate(-15.39 148.311 121.589)" d="M128.54 120.73H168.07V122.42H128.54z"/><path class="cls-2" transform="rotate(-58.18 149.186 118.532)" d="M148.33 105.54H150.02V131.54000000000002H148.33z"/><path class="cls-2" transform="rotate(-58.18 138.777 118.52)" d="M137.93 105.41H139.62V131.62H137.93z"/><path class="cls-2" transform="rotate(-58.19 156.163 116.438)" d="M155.33 99.76H157.02V133.12H155.33z"/><path class="cls-2" transform="rotate(-58.19 131.498 120.434)" d="M130.66 103.54H132.35V137.33H130.66z"/><path class="cls-2" transform="matrix(.96 -.27 .27 .96 -12.58 27.79)" d="M76.76 59.61H116.29V61.3H76.76z"/><path class="cls-2" transform="rotate(-15.39 98.925 64.047)" d="M83.35 63.23H114.58V64.92H83.35z"/><path class="cls-2" transform="rotate(-15.39 103.721 67.031)" d="M83.99 66.2H123.52V67.89H83.99z"/><path class="cls-2" transform="rotate(-58.19 104.62 63.997)" d="M103.78 51H105.47V77H103.78z"/><path class="cls-2" transform="rotate(-58.18 94.234 63.985)" d="M93.38 50.88H95.07V77.09H93.38z"/><path class="cls-2" transform="rotate(-58 111.916 61.683)" d="M110.78 45.23H112.47V78.59H110.78z"/><path class="cls-2" transform="rotate(-58.19 86.952 65.909)" d="M86.11 49.01H87.8V82.8H86.11z"/></g><g id="Layer_4" data-name="Layer 4"><text class="cls-9" transform="translate(167.34 38.43)">拖網(5m)</text><text class="cls-9" transform="translate(387.44 295.77)">繩繫彩虹勇士號</text><text class="cls-9" transform="translate(87.74 98.6)">採集網(孔徑0.333mm)</text><text class="cls-9" transform="translate(151.69 204.24)">翼(木製)</text><text class="cls-9" transform="translate(302.41 240.22)">16cm</text><text class="cls-9" transform="translate(441.18 125.61)">翼(木製)</text><text class="cls-9" transform="rotate(-14.4 970.91 -754.864)">5</text><text class="cls-9" transform="rotate(-14 957.285 -792.046)">0</text><text class="cls-9" transform="rotate(-14 952.697 -826.476)">c</text><text class="cls-9" transform="rotate(-14.4 957.045 -864.742)">m</text><text class="cls-9" transform="rotate(-14.4 808.259 -1924.313)">5</text><text class="cls-9" transform="rotate(-14.4 803.88 -1959.045)">0</text><text class="cls-9" transform="rotate(-14.4 799.527 -1993.653)">c</text><text class="cls-9" transform="rotate(-14.4 794.394 -2034.19)">m</text><text class="cls-9" transform="rotate(13.18 -963.558 627.082)">5</text><text class="cls-9" transform="rotate(13.18 -967.915 664.908)">5</text><text class="cls-9" transform="matrix(.97 .23 -.23 .97 134.63 240.21)">c</text><text class="cls-9" transform="matrix(.97 .23 -.23 .97 144.59 242.54)">m</text><text class="cls-9" transform="rotate(-14.4 835.854 -1348.91)">9</text><text class="cls-9" transform="rotate(-14.4 831.431 -1383.607)">2</text><text class="cls-9" transform="rotate(-14 814.552 -1416.934)">c</text><text class="cls-9" transform="rotate(-14.4 821.97 -1458.63)">m</text><path class="cls-10" d="M322.68 121.06L322.68 105.45 38.48 1 38.48 30.08"/></g></g></svg>