<svg xmlns="http://www.w3.org/2000/svg" viewBox="0 0 121.99 52.81"><defs><style>.cls-1,.cls-2{fill:#333}.cls-1{opacity:.5}.cls-3{fill:#ffed00}.cls-4{fill:#d0b400}.cls-5{fill:#f7cd00}.cls-6{fill:#dadada}.cls-7{fill:#b2b2b2}.cls-8{fill:#ededed}</style></defs><g id="Layer_2" data-name="Layer 2"><g id="Layer_4" data-name="Layer 4"><path class="cls-1" d="M61.08 16c2.37-1.4 9-4.78 13.57-5.25s9.45-.35 13.18-2.45a74.35 74.35 0 0 1 9.36-4.82 28 28 0 0 1 8.13-1.63c2.6-.19 6.21.14 8.82-.3a4.34 4.34 0 0 1 2.64.22 2.35 2.35 0 0 1 .92 3.15 4.91 4.91 0 0 1-1.86 2.3c-3.08 2.05-8.12 3.24-11.36 4.87s-4.13 4-5.54 7.12a27 27 0 0 1-5.53 7.63c-2.25 2.29-4.77 4.93-7.77 6.22-3.42 1.48-13.18.45-13.18.45L50.63 21.13S58.71 17.4 61.08 16z"/><path class="cls-2" d="M116.78 1.77L120 .11a1 1 0 0 1 1.32.42l.58 1.12a1 1 0 0 1-.44 1.35l-3.76 2a2.35 2.35 0 0 0-.92-3.23z"/><path class="cls-3" d="M24.2 13.62L45.15 19 40.97 19.98 20.95 24.66 20.94 24.66 4.18 20.36 0 19.29 24.2 13.62z"/><path class="cls-4" d="M0 19.29L20.94 24.66 20.95 26.72 20.94 26.71 0 21.34 0 19.29z"/><path class="cls-5" d="M45.15 19L45.15 21.05 20.95 26.72 20.94 24.66 45.15 19z"/><path class="cls-2" d="M82.98 26.31L82.98 26.37 82.85 26.34 82.98 26.31z"/><path class="cls-2" d="M23.1 22.94L23.1 22.88 23.23 22.91 23.1 22.94z"/><path class="cls-2" d="M40.15 28.94L42.35 29.51 23.1 43.16 23.1 42.54 23.1 41.02 23.1 24.56 40.15 28.94z"/><path class="cls-6" d="M81.69 27.73L82.98 27.42 85.12 26.92 85.12 28.61 85.12 35.65 60.93 52.81 60.93 52.19 60.93 50.67 60.93 34.27 60.93 32.59 81.69 27.73z"/><path class="cls-7" d="M23.23 22.91L24.39 23.21 41.89 27.7 44.1 28.27 58.78 32.04 58.78 33.72 42.35 29.51 40.15 28.94 23.1 24.56 23.1 23.51 23.1 22.94 23.23 22.91z"/><path class="cls-7" d="M60.93 32.59L60.93 34.27 60.93 50.67 60.93 52.19 60.93 52.81 58.78 52.19 58.78 51.58 58.78 33.72 58.78 32.04 60.93 32.59z"/><path class="cls-7" d="M23.1 22.88L23.1 22.94 23.1 23.51 23.1 24.56 23.1 41.02 23.1 42.54 23.1 43.16 20.95 42.54 20.95 41.93 20.95 24.01 20.95 22.33 23.1 22.88z"/><path class="cls-8" d="M45.15 16.66L47.44 17.25 47.63 17.3 82.85 26.34 82.98 26.37 85.12 26.92 82.98 27.42 81.69 27.73 60.93 32.59 58.78 32.04 44.1 28.27 41.89 27.7 24.39 23.21 23.23 22.91 23.1 22.88 20.95 22.33 45.15 16.66z"/><path class="cls-3" d="M85.12 29.99L106.08 35.37 101.9 36.34 81.88 41.03 81.86 41.03 65.11 36.73 60.93 35.65 85.12 29.99z"/><path class="cls-4" d="M60.93 35.65L81.86 41.03 81.88 43.08 81.86 43.08 60.93 37.71 60.93 35.65z"/><path class="cls-5" d="M106.08 35.37L106.08 37.42 81.88 43.08 81.86 41.03 106.08 35.37z"/><path class="cls-2" d="M76.62 17.25L76.75 16.81 66.37 13.95 66.25 14.39 76.62 17.25z"/><path class="cls-2" transform="rotate(-74.56 70.831 16.593)" d="M70.6 12.34H71.05999999999999V20.84H70.6z"/><path class="cls-2" transform="rotate(-74.61 69.535 17.395)" d="M69.3 12.02H69.75999999999999V22.78H69.3z"/><path class="cls-2" transform="rotate(-31.8 68.976 16.352)" d="M65.75 16.34H72.83V16.8H65.75z"/><path class="cls-2" transform="rotate(-31.8 71.809 16.342)" d="M68.55 16.33H75.67999999999999V16.79H68.55z"/><path class="cls-2" d="M63.65 18.59L71.36 13.8 71.12 13.41 63.41 18.2 63.65 18.59z"/><path class="cls-2" transform="rotate(-31.82 74.088 17.079)" d="M69.5 16.86H78.7V17.32H69.5z"/><path class="cls-2" d="M96.16 18.53L96.28 18.08 87.18 15.57 87.06 16.02 96.16 18.53z"/><path class="cls-2" d="M94.62 19.13L94.74 18.68 87.55 16.7 87.43 17.14 94.62 19.13z"/><path class="cls-2" d="M94.43 20.1L94.56 19.66 85.45 17.15 85.33 17.59 94.43 20.1z"/><path class="cls-2" transform="rotate(-31.83 89.719 17.903)" d="M86.63 17.67H92.83999999999999V18.130000000000003H86.63z"/><path class="cls-2" transform="rotate(-31.82 92.195 17.897)" d="M89.09 17.66H95.35000000000001V18.12H89.09z"/><path class="cls-2" transform="rotate(-31.81 88.062 17.391)" d="M84.08 17.16H92.05V17.62H84.08z"/><path class="cls-2" transform="rotate(-31.81 93.955 18.35)" d="M89.92 18.12H97.99000000000001V18.580000000000002H89.92z"/><path class="cls-2" transform="rotate(-74.72 102.72 5.65)" d="M102.49 1.41H102.94999999999999V9.88H102.49z"/><path class="cls-2" transform="rotate(-74.55 102.204 6.42)" d="M101.97 3.08H102.42999999999999V9.77H101.97z"/><path class="cls-2" transform="matrix(.27 -.96 .96 .27 67.31 102.65)" d="M100.94 2.83H101.39999999999999V11.3H100.94z"/><path class="cls-2" transform="rotate(-31.79 101.004 6.401)" d="M98.2 6.18H103.77000000000001V6.64H98.2z"/><path class="cls-2" transform="rotate(-31.81 103.222 6.4)" d="M100.41 6.17H106.02V6.63H100.41z"/><path class="cls-2" transform="rotate(-31.82 99.486 5.96)" d="M95.91 5.73H103.05V6.19H95.91z"/><path class="cls-2" transform="rotate(-31.82 104.76 6.818)" d="M101.15 6.58H108.39V7.04H101.15z"/></g></g></svg>