<svg xmlns="http://www.w3.org/2000/svg" viewBox="0 0 132.63 136.59"><defs><style>.cls-1{fill:#fff}.cls-2{fill:#097b35}.cls-3{fill:#36a9e1}.cls-4{fill:#662483}.cls-5{fill:#312783}.cls-6{fill:#3aaa35}.cls-7{fill:#fcea10}.cls-8{fill:#e94e1b}.cls-9{fill:#e30613}</style></defs><g id="Layer_2" data-name="Layer 2"><g id="Layer_2-2" data-name="Layer 2"><path class="cls-1" d="M104.94 126.45L104.94 120.49 95.23 115.97 28.47 115.97 28.47 118.56 0 118.56 0 121.6 28.47 121.6 65.44 121.6 75.36 130.59 132.63 130.59 132.63 126.45 104.94 126.45z"/><path class="cls-2" d="M75.37 130.59l-9.93-9H0l3.2 15h127.3a2.14 2.14 0 0 0 2.14-2.14v-3.82z"/><path class="cls-1" d="M5.41 115.31L54.18 5.52 54.18 102.62 5.41 115.31z"/><path class="cls-1" d="M57.49 0L57.49 98.43 86.84 33.1 57.49 0z"/><path class="cls-1" d="M86.84 41.93L54.62 111.45 86.84 111.45 86.84 41.93z"/><path class="cls-1" d="M89.66 111.45L89.66 3.09 119.9 111.45 89.66 111.45z"/><path class="cls-3" d="M25.84 136.57s0 .01 0 0z"/><path class="cls-3" d="M25.54 136.23L25.55 136.23 25.49 136.19 25.54 136.23z"/><path class="cls-3" d="M25.26 135.9c0 .07.11.11.14.19a2 2 0 0 1-.14-.19zm-.06-.27zm.02.03zm-.14-.15h.05v-.06c0 .01-.06.01-.05.06zm-.08-.01zm.09.05h-.06s.03-.01.06 0zm.02.04s0 .08 0 0 .08.08 0 0zm.1.33s0-.01 0 0zm-.35-.73v.07s-.02-.05 0-.07zm-.03.07h-.07s.06.02.07 0z"/><path class="cls-3" d="M24.94 135.56L25.05 135.6 24.93 135.54 24.94 135.56z"/><path class="cls-3" d="M24.69 134.99L24.74 134.99 24.65 134.99 24.69 134.99z"/><path class="cls-3" d="M24.56 134.88s0-.08.05-.08a.2.2 0 0 0-.13 0s.06.01.08.08zm-.15-.12zm.28.38a.1.1 0 0 0 0-.08v.06zm-.02-.02zm.03.03zm.15.25h-.09c.03 0 .02-.02.09 0zm-.17-.18v.06z"/><path class="cls-3" d="M24.64 135.21L24.68 135.22 24.66 135.2 24.64 135.21z"/><path class="cls-3" d="M24.46 134.89a.16.16 0 0 1-.09 0 .42.42 0 0 0 .08.1s.05-.07.01-.1zm.1.11z"/><path class="cls-3" d="M24.1 134.58L24.1 134.59 24.11 134.58 24.1 134.58z"/><path class="cls-3" d="M24.45 135a.06.06 0 0 0 .06 0h-.06s-.01-.05 0 0zm-.13-.29v.06s.01-.07 0-.06zm.24.29zm0 0zm-.8-.16a.09.09 0 0 1 .15.05c.08 0 .16-.17.19-.3s0 0-.11 0 .07.16 0 .17 0-.06-.06-.12-.16 0-.21.12h.09s-.06.05-.05.08z"/><path class="cls-3" d="M24.19 134.69a.29.29 0 0 1 0-.13.09.09 0 0 0-.09 0l.1.11zm.12.1c-.05 0-.12 0-.13.08s.08 0 .13 0c-.11-.08 0 0 0-.09h.06v-.07l-.12-.07a.33.33 0 0 0 .06.15zm.33.68s-.01-.01 0 0zm-.02-.06h.05c.05 0 0 0 0 0s.07 0 0 0a.24.24 0 0 1 0-.15.38.38 0 0 0-.05.15zm-.17-.29l-.1-.05v.08c.07.02.08-.02.1-.03z"/><path class="cls-3" d="M24.11 134.54L24.16 134.5 24.06 134.53 24.11 134.54z"/><path class="cls-3" d="M23.99 134.45L24.04 134.41 23.98 134.41 23.99 134.45z"/><path class="cls-3" d="M16.28 131.6zm.23.07s-.01 0 0 0zm4.43.76v-.13.09a.07.07 0 0 1 0 .04zm-2.48-.49l.05-.05zm-.14.27v-.07zm-3.32-.88c0 .06 0 .02 0 0zm7.78 2.19a.21.21 0 0 0-.06-.1c.02.07.01.16.06.1zM16.54 131zm6.08 2.35a.18.18 0 0 1 .09 0c0 .02-.03-.02-.09 0zm-12.21-2.8zM9 130.37zM23.55 134zm-.05.37zm-1.43-.73s0 .02 0 0zm1.5.45zm.02-.03s.03.01 0 0zm-.07-.06zm-10.6-3.26s-.02.01 0 0z"/><path class="cls-3" d="M19.83 132.9L19.83 132.9 19.83 132.9 19.83 132.9z"/><path class="cls-3" d="M19.7 132.91c.08-.08.1-.05.13 0l.07-.24zm-3.96-1.44l.06.07c-.11.06-.17 0-.12.11.05-.18.29.06.35-.12v.05c.07.12.1-.11.22-.05s.06.06 0 .08h.26l.12-.07h.09c0 .06-.06.09-.11.07 0 .21.08 0 .21.13h-.08c0 .13.09.11.15.2s-.12-.23 0-.25 0 0 .11 0 0 .07.09.08v.09c.07 0 .08-.06.13-.09s.06.11.05.18 0-.14.1-.12.15.05.28 0 0 .05 0 .09l.08-.06s0-.09.12-.09.1.21.23.12 0 .06 0 .1a.76.76 0 0 0 .27-.09l.06.1c0-.1.08-.16.18-.2v-.11h.14s0 .05-.05.09c0 .05 0 .1-.06.15v-.08a.42.42 0 0 0-.12.17v.12l.12.13c.15-.07.31-.21.5-.19-.08.07-.06.14-.11.24 0-.13-.15 0-.23-.07a.05.05 0 0 1 0 .09h.19v.13c0-.18.16-.06.24-.08s-.06.11-.13.06c0 .17.19-.15.23 0s.16.06.11.09c.12.07.37.17.46 0l-.12.2.45-.41c-.08.12-.15.47-.28.5a.1.1 0 0 0 .07.17s0-.21.07-.21a.93.93 0 0 0 0 .27s.11-.24.16-.21a2 2 0 0 1-.12.22l.21-.15s-.09.17-.09.24.1.06.14.05v-.07c.11.1.27-.23.4-.15 0 0-.17.25-.12.3.08-.09.39-.45.56-.47v.07h.13a5.79 5.79 0 0 1-.62.48c0 .07 0 .08.05.11s-.08.07-.11.06l.15.12c.06-.13.19-.06.24-.16h-.24c.06-.13.29-.3.4-.21s-.14.21-.16.25.16 0 .15 0h-.09c0 .08.2-.11.21.05s0 .2 0 .13a2.4 2.4 0 0 1 .35-.69 1.18 1.18 0 0 1 .07.3c0 .13-.21.22-.23.33a.22.22 0 0 1 .09-.07s-.07.09 0 .11.12.08.09-.08c.08 0 0 .06.12.1a.43.43 0 0 1 .3-.22.25.25 0 0 0 0 .1c.12.09.15.18.27.25s0 .1 0 .13.07 0 .11 0-.09 0-.11.12c0-.06.15 0 .22 0s-.1-.1-.18-.08a.46.46 0 0 1 .42-.21c.12 0 0 .12 0 .11.16.14.3-.12.38.08s-.11.16-.13.23-.08-.13-.14-.16v.08h-.12c-.01 0 .29.21.38.37h.1c0-.09.14 0 .11-.09s.2 0 .25.08v.09s0-.09-.05-.08 0 .2.15.13v-.1c.09 0 .21 0 .26.06v-.14c0 .15-.17-.15-.19 0 0-.15-.05-.12 0-.27 0 0 0 .07-.06 0a.13.13 0 0 1 0 .07h-.22c-.06 0 0 0 0-.07h-.08c0-.07 0-.18.09-.15l-.07-.06c0-.07-.07-.13-.12-.13h-.22c-.11-.1-.31-.06-.37-.28a.22.22 0 0 1-.16-.08v-.08c-.07 0-.12-.17-.18-.12.05-.22-.23-.21-.31-.29l-.05.09a.5.5 0 0 0-.24-.06v.09c-.11 0-.15-.16-.27-.21s0 0 .06 0c0-.26-.36 0-.41-.21h-.07v-.06a.17.17 0 0 0 0 .06h-.11v-.1l-.06.1h-.07c0-.16-.12 0-.08-.17-.06.06-.21 0-.3.12s-.06-.07-.12 0v-.12l-.16.11c0-.09 0-.14.06-.2-.19.08-.13 0-.29.09v-.07s-.14.05-.14 0-.43-.19-.61-.39c0 .21-.07-.12-.14 0v-.11c-.13 0-.15-.13-.28 0s0-.06 0-.09-.05 0-.05 0h.06c-.12 0-.19.1-.24.22 0-.08-.07-.08-.14 0s0-.1.05-.09-.23-.15-.27 0-.06 0-.07 0a.87.87 0 0 0-.19-.07c-.07.11-.08 0-.16 0-.14-.14-.09 0-.22-.13v.07c-.06.15-.12-.14-.24-.1-.07 0-.09-.25-.14-.28s0 .09-.16.08.06-.12 0-.15-.25.1-.32 0v.1c0 .02-.17-.19-.27-.09-.07 0-.2 0-.25.06 0-.24-.39 0-.34-.18h-.18a.2.2 0 0 0-.21 0c-.16-.08-.18-.07-.34 0v-.06s-.23-.14-.4-.1c-.2 0-.42-.22-.53 0h-.13c.16 0 0 .08 0 .13s-.15-.09-.07-.08c0-.1-.19-.07-.18-.13-.31 0-.61-.13-.91-.16v.07h-.1s0-.06 0 0-.13 0-.13 0 .07-.07 0-.08c-.05 0-.06.05-.15 0h-.13v.05h-.07c-.08-.1-.48-.06-.53-.09a.64.64 0 0 1-.26 0s0 .06 0 0-.15-.05-.22-.12-.24 0-.15.07c-.07 0 0 0-.05-.06s-.37 0-.58 0h-.11s0 .05-.11 0H9.12c.06 0 0 0 0 0H8.71h.06c-.07 0 .1 0 .09.06s.22 0 .35 0a.36.36 0 0 1 .15 0 4.91 4.91 0 0 1 .54 0h0c.05 0 .36 0 .41.07s0 0 .06 0h.08a1.13 1.13 0 0 0 .21 0h-.08.99a.25.25 0 0 1 .13 0s.08 0 0 .06c.17 0 .09 0 .21-.07a.18.18 0 0 1 .13 0c-.07 0 .05 0 0 .08.18.09.28 0 .35.07.09-.08-.15-.07-.1-.08s.08-.06.13 0 .09.12.23.14h.17c.06 0 .09 0 .11-.06h-.14c.08 0 .16-.09.28 0h-.08H12.96c.07-.09.14 0 .25 0a.17.17 0 0 1 .08 0l-.06.05c.09 0 .15.07.23.06-.16 0 0-.06-.09-.11.21 0 .1.14.32.16 0 0-.11-.05-.06-.06a.29.29 0 0 1 .11.08c.15 0 0-.06.05-.07s.08 0 .14 0V131c.16.07.06-.1.21 0H14v.06a.21.21 0 0 1 .19 0s0-.1.1-.08 0 0 .07.06-.06.07-.1 0 .13 0 .17 0h.16v.05c0 .05.06 0 .1 0s0 .09-.09.1h.15s.06.07 0 .09.21 0 .31 0 .17.12.3.08v.11c.09 0-.06-.14.09-.13s0 .09.05.12.18-.1.26 0 .01.01-.02.01zm1.12.28h-.08s.04-.04.07-.01zm1.71.4h-.06a.07.07 0 0 1 .05 0zm4.68 1.73c-.03-.06-.03-.04-.01 0zm.06.1h-.06c-.06 0 .02.02.06.02zm-10.68-3.56s-.02 0 0-.01zm5.71 1.76zm-3.34-.86zm6.52 2.45a.11.11 0 0 1 0-.06v.06zm2.31.45h-.06a.08.08 0 0 1 0 .06s.04-.07.06-.06zm.17.78s0-.07 0 0zm-.28-.53c0 .06 0 .07.06.09.05-.07 0-.08-.06-.09zm.07.09s.02.01 0 0zm-.35-.56s.06-.07.06 0-.18 0-.06 0z"/><path class="cls-3" d="M23.62 134.67L23.65 134.59 23.59 134.63 23.62 134.67z"/><path class="cls-3" d="M23.36 134.4v.06s.01-.08 0-.06zm.08.05a.08.08 0 0 0 .06 0z"/><path class="cls-3" d="M23.52 134.63L23.52 134.6 23.48 134.56 23.52 134.63z"/><path class="cls-3" d="M22.71 133.92h-.08v.06c0 .01.07.02.08-.06zm.06.35a.17.17 0 0 1 0-.08l-.07.1zm-.22-.1s-.15 0-.06.06.11 0 .06-.06z"/><path class="cls-3" d="M21.58 133.41L21.6 133.41 21.7 133.23 21.58 133.41z"/><path class="cls-3" d="M20.4 133.35c.06.09.08-.11.13 0s0-.08 0-.11-.09-.02-.13.11zm.13-.12z"/><path class="cls-3" d="M8.81 130.37L8.74 130.37 8.78 130.38 8.81 130.37z"/><path class="cls-3" d="M8.69 130.4zM17 132z"/><path class="cls-3" d="M16.19 131.67L16.2 131.67 16.2 131.58 16.19 131.67z"/><path class="cls-3" d="M15.49 131.57h.09c-.06.01-.07-.09-.09 0z"/><path class="cls-4" d="M26.19 135.71L26.2 135.71 26.15 135.68 26.19 135.71z"/><path class="cls-4" d="M25.92 135.38c0 .07.11.11.15.19a1.8 1.8 0 0 1-.15-.19zm-.07-.27zm.03.04zm-.15-.15h.05v-.06c0 .01-.05.01-.05.06zm-.07 0s.02 0 0 0zm.09 0h-.06.06zm.01.07s0 .08 0 0 .09.09 0 0zm.1.34s.01-.02 0 0zm-.35-.74v.07s-.01-.05 0-.07zm-.03.07h-.06s.05.02.06 0z"/><path class="cls-4" d="M25.6 135.04L25.71 135.08 25.58 135.03 25.6 135.04z"/><path class="cls-4" d="M25.34 134.48L25.4 134.47 25.31 134.47 25.34 134.48z"/><path class="cls-4" d="M25.22 134.36v-.07a.21.21 0 0 0-.13 0 .14.14 0 0 1 .13.07zm-.15-.12zm.28.39a.09.09 0 0 0 0-.08v.06zm-.02-.02zm.02.02zm.16.25h-.09c.03 0 .02-.01.09 0zm-.18-.18v.06z"/><path class="cls-4" d="M25.3 134.69L25.33 134.7 25.32 134.68 25.3 134.69z"/><path class="cls-4" d="M25.12 134.37a.17.17 0 0 1-.09 0l.08.1s.04-.07.01-.1zm.1.12zm-.46-.43z"/><path class="cls-4" d="M25.1 134.44a.05.05 0 0 0 .06 0h-.06s-.01-.01 0 0zm-.1-.25v0zm.21.28s.01-.01 0 0zm0 0h-.05zm-.8-.15a.09.09 0 0 1 .15.05c.08 0 .16-.17.19-.3s0 0-.11 0 .07.16 0 .17 0-.07-.06-.12-.16 0-.21.12h.09s-.05.06-.05.08zm.44-.15a.27.27 0 0 1 0-.13h-.09l.1.11zm.15.11c-.05 0-.12 0-.13.08s.08 0 .13 0c-.11-.08.05 0 0-.09h.06v-.07l-.12-.07a.34.34 0 0 0 .06.15zm.29.72s-.01-.06 0 0zm-.02-.11h.05c.05 0 0 0 0 0s.07 0 0 0v-.15a.33.33 0 0 0-.05.15zm-.16-.29l-.1-.05v.08c.06.02.07-.02.1-.03z"/><path class="cls-4" d="M24.77 134.03L24.82 133.98 24.71 134.02 24.77 134.03z"/><path class="cls-4" d="M24.65 133.94L24.69 133.89 24.64 133.89 24.65 133.94z"/><path class="cls-4" d="M16.94 131.08zm.22.07zm4.44.76v-.13.09a.07.07 0 0 1 0 .04zm-2.49-.49l.05-.05zm-.11.27v-.07zm-3.32-.88c.01.06-.01.03 0 0zm7.76 2.19a.21.21 0 0 0-.06-.1c.01.1.01.16.06.1zm-6.24-2.53s0 .02 0 0zm6.07 2.37a.15.15 0 0 1 .09 0c.01.01-.02-.03-.09 0zM11.07 130zm-1.38-.15zm14.52 3.67zm-.05.33zm-1.43-.72s0 .01 0 0zm1.5.45zm.01-.04s.03.01 0 0zm-.06-.05zm-10.6-3.26s-.03 0 0 0z"/><path class="cls-4" d="M20.48 132.39L20.49 132.38 20.48 132.38 20.48 132.39z"/><path class="cls-4" d="M20.36 132.39c.08-.08.1-.05.13 0l.07-.24z"/><path class="cls-4" d="M16.39 131l.06.07c-.11.06-.17 0-.12.1.05-.18.29.06.35-.12v.05c.07.12.1-.11.22-.05s.06.06 0 .08h.26l.12-.07h.09c0 .06-.06.09-.11.07 0 .21.08 0 .21.13h-.08c0 .13.09.11.15.2s-.12-.23 0-.25a.08.08 0 0 0 .11 0c0 .07 0 .07.09.08v.09c.07 0 .08-.06.13-.09s.06.11.05.18 0-.14.1-.12.15.05.28 0 0 .05 0 .09l.08-.06s0-.09.12-.09.1.21.23.12 0 .06 0 .1a.78.78 0 0 0 .27-.09l.06.1c0-.1.08-.16.18-.2a.84.84 0 0 0 0-.1h.14s0 .05-.05.09c0 .05 0 .1-.06.15v-.08a.41.41 0 0 0-.12.17v.12l.12.13c.15-.07.31-.21.5-.19-.08.07-.06.14-.11.24 0-.13-.15 0-.23-.07s0 .07 0 .09h.19v.13c0-.18.16-.06.24-.08s-.06.11-.13.06c0 .16.19-.15.23 0s.16.05.11.09c.12.07.37.17.46 0l-.12.2.45-.41c-.08.12-.15.47-.28.5a.1.1 0 0 0 .13.05s0-.21.07-.21a.89.89 0 0 0 0 .27s.11-.24.16-.21a1.85 1.85 0 0 1-.12.22l.21-.15s-.09.17-.09.24.1.06.14.05v-.07c.11.1.27-.23.4-.15 0 0-.17.25-.12.31.08-.09.39-.45.56-.47v.07h.13a5.54 5.54 0 0 1-.62.48c0 .07 0 .08.05.11s-.08.07-.11.06l.15.12c.06-.13.19-.06.24-.16h-.24c.06-.13.29-.3.4-.21s-.14.21-.16.25.16 0 .15 0h-.09c0 .08.2-.1.21.05s0 .2 0 .13a2.4 2.4 0 0 1 .35-.69 1.15 1.15 0 0 1 .07.3c0 .13-.21.22-.23.33a.2.2 0 0 1 .09-.07s-.07.1 0 .11.12.08.09-.09c.08 0 0 .06.12.1a.44.44 0 0 1 .3-.22.25.25 0 0 0 0 .1c.12.08.15.18.27.25s0 .1 0 .13.07 0 .11 0-.09 0-.11.11c0-.06.15 0 .22 0s-.1-.1-.18-.08a.46.46 0 0 1 .43-.21c.11 0 0 .11 0 .11.16.14.3-.12.38.08s-.11.16-.13.23-.08-.13-.13-.16v.08h-.12c-.01 0 .29.21.38.37h.1c0-.09.14 0 .11-.09s.2 0 .25.08v.09s0-.09-.05-.08 0 .2.15.12v-.1c.09 0 .22 0 .26.06v-.13c0 .15-.17-.15-.19 0 0-.15-.05-.12 0-.27 0 0 0 .07-.06 0a.14.14 0 0 1 0 .07h-.22c-.06 0 0 0 0-.07h-.08c0-.07 0-.18.09-.15l-.07-.06c0-.07-.07-.13-.12-.13h-.22c-.11-.1-.32-.06-.37-.28a.22.22 0 0 1-.16-.08v-.07c-.06 0-.12-.17-.18-.12.05-.22-.23-.21-.31-.29l-.05.09a.48.48 0 0 0-.24-.06v.08c-.11 0-.15-.16-.27-.21s0 0 .06 0c0-.26-.36 0-.41-.21a.05.05 0 0 1-.07 0v-.07a.18.18 0 0 0 0 .06.25.25 0 0 0-.11 0v-.1l-.06.11h-.07c0-.16-.12 0-.08-.17-.06.06-.21 0-.3.12s-.06-.07-.12 0v-.12l-.16.11c0-.09 0-.14.06-.2-.19.08-.13 0-.29.09v-.07s-.14.05-.14 0-.43-.18-.61-.39c0 .21-.07-.12-.14 0v-.11c-.13 0-.15-.13-.28 0s0-.06 0-.09-.05 0-.05 0h.06c-.12 0-.19.1-.24.22 0-.08-.07-.08-.14 0s0-.1.05-.09-.23-.15-.27 0-.06 0-.07 0a.76.76 0 0 0-.19-.07c-.08.11-.09 0-.16 0-.14-.14-.09 0-.22-.13V131c-.06.15-.12-.14-.24-.1-.07 0-.09-.25-.14-.28s0 .09-.16.08.06-.12 0-.15-.25.1-.33 0v.1c0 .02-.17-.19-.27-.09-.07 0-.2 0-.25.05 0-.24-.39 0-.34-.18h-.18a.2.2 0 0 0-.21 0c-.16-.07-.18-.06-.34 0v-.06s-.22-.14-.4-.1c-.2 0-.42-.22-.53 0h-.13c.16 0 0 .08 0 .13s-.15-.09-.07-.08c0-.1-.19-.07-.18-.13-.31 0-.61-.13-.91-.16v.07h-.1s0-.06 0 0-.13 0-.13 0 .07-.07 0-.08h-.15c-.09 0 0 0 0 0h-.13v.05h-.07c-.08-.1-.48-.07-.53-.1a.62.62 0 0 1-.26 0s0 .06 0 0-.15-.05-.22-.12-.24 0-.15.07c-.07 0 0 0-.05-.06s-.37 0-.58 0h-.11s0 .05-.11 0H9.84c.06 0 0 0 0 0h-.46.06c-.07 0 .1 0 .09.06s.22 0 .35 0a.35.35 0 0 1 .15 0 4.86 4.86 0 0 1 .54 0h0c.05 0 .36 0 .41.07s0 0 .06 0h.08a1 1 0 0 0 .21 0h-.08.99a.26.26 0 0 1 .13 0s.08 0 0 .06c.17 0 .09 0 .21-.07a.19.19 0 0 1 .13 0c-.07 0 .05.05 0 .07.18.09.28 0 .35.08.09-.08-.15-.07-.1-.08s.08-.06.13 0 .09.13.23.15h.17c.06 0 .09 0 .11-.06h-.13c.08 0 .16-.09.28 0a.18.18 0 0 1-.08 0H13.64c.07-.09.14 0 .25 0a.17.17 0 0 1 .08 0l-.06.05c.09 0 .15.07.23.06-.16 0 0-.06-.09-.11.21 0 .1.14.32.16 0 0-.11-.05-.06-.06a.32.32 0 0 1 .11.08c.15 0 0-.06.05-.07s.08 0 .14 0v.05c.16.06.06-.1.21 0l-.08.06h.08v.06a.21.21 0 0 1 .2 0s0-.1.1-.08 0 0 .07.06-.06.07-.1 0 .13 0 .17 0h.16v.05c0 .05.06 0 .1 0s0 .09-.09.1h.15s.06.07 0 .09.21 0 .31 0 .17.12.3.08v.11c.09 0-.06-.14.09-.13s0 .09.05.12.18-.1.26 0-.16.18-.2.18zm1.12.28h-.08s.05-.09.08-.05zm1.71.4h-.06a.07.07 0 0 1 .06-.05zm4.68 1.73c-.03-.11-.02-.09 0-.05zm.07.09h-.06c-.06 0 .02-.05.09-.04zm-10.68-3.56s-.02-.03 0-.05z"/><path class="cls-4" d="M15.69 130.8L15.69 130.8 15.68 130.81 15.69 130.8z"/><path class="cls-4" d="M22.18 133.25a.1.1 0 0 1 0-.06v.06zm2.3.45h-.06a.08.08 0 0 1 0 .06s.05-.07.06-.06zm.17.75s-.02-.04 0 0zm-.27-.45c0 .06 0 .06.06.08.05-.08-.01-.08-.06-.08zm.06 0s.03.05 0 0zm-.34-.5s.06-.06.06 0-.16-.04-.06 0z"/><path class="cls-4" d="M24.28 134.15L24.31 134.08 24.25 134.11 24.28 134.15z"/><path class="cls-4" d="M24 133.88v0zm.09.05a.07.07 0 0 0 .06 0z"/><path class="cls-4" d="M24.18 134.11L24.17 134.08 24.13 134.05 24.18 134.11z"/><path class="cls-4" d="M23.36 133.4h-.08v.06c0 .01.07-.03.08-.06zm.07.35a.15.15 0 0 1 0-.08l-.07.1zm-.22-.1s-.15 0-.06.07.11-.01.06-.07z"/><path class="cls-4" d="M22.24 132.89L22.26 132.9 22.36 132.71 22.24 132.89z"/><path class="cls-4" d="M21.06 132.83c.06.09.08-.11.13 0s0-.08 0-.11-.09-.02-.13.11zm.13-.11z"/><path class="cls-4" d="M9.46 129.85L9.4 129.86 9.44 129.86 9.46 129.85z"/><path class="cls-4" d="M9.34 129.88zm8.28 1.59z"/><path class="cls-4" d="M16.84 131.15L16.86 131.16 16.85 131.07 16.84 131.15z"/><path class="cls-4" d="M16.15 131.06h.09c-.06.01-.08-.06-.09 0z"/><path class="cls-5" d="M26.46 134.98L26.48 134.98 26.42 134.94 26.46 134.98z"/><path class="cls-5" d="M26.19 134.64c0 .07.11.11.15.18a1.72 1.72 0 0 1-.15-.18zm-.07-.26zm.03.03zm-.15-.15h.05v-.06c0 .01-.05.01-.05.06zm-.07-.01s.07 0 0 0zm.07.05h-.06s.06-.01.06 0zm0 .04s0 .08 0 0 .12.08 0 0zm.13.33s.01-.01 0 0zm-.35-.73v.07s-.01-.01 0-.07zm-.03.06h-.06.06z"/><path class="cls-5" d="M25.87 134.3L25.98 134.34 25.85 134.29 25.87 134.3z"/><path class="cls-5" d="M25.61 133.74L25.66 133.74 25.57 133.74 25.61 133.74z"/><path class="cls-5" d="M25.49 133.62s0-.08.05-.07a.2.2 0 0 0-.13 0s.06.01.08.07zm-.15-.11zm.28.38a.1.1 0 0 0 0-.08v.06zm-.02-.02zm.02.02s0 .01 0 0zm.16.26h-.09c.03 0 .02-.02.09 0zm-.18-.15v.06z"/><path class="cls-5" d="M25.57 133.95L25.6 133.97 25.59 133.94 25.57 133.95z"/><path class="cls-5" d="M25.39 133.64a.17.17 0 0 1-.09 0l.08.1s.04-.08.01-.1zm.1.11z"/><path class="cls-5" d="M25.03 133.33L25.02 133.34 25.03 133.33 25.03 133.33z"/><path class="cls-5" d="M25.37 133.7a.05.05 0 0 0 .06 0h-.06s-.01 0 0 0zm-.12-.25a.35.35 0 0 0 0 .06s.01-.06 0-.06zm.23.28s.01-.01 0 0zm0 0h-.05zm-.8-.14a.09.09 0 0 1 .15.05c.08 0 .16-.17.19-.3s0 0-.11 0 .07.16 0 .17 0-.07-.06-.12-.16 0-.21.12h.09s-.06.05-.05.08zm.44-.15a.29.29 0 0 1 0-.13.09.09 0 0 0-.09 0l.1.11z"/><path class="cls-5" d="M25.24 133.54c-.05 0-.12 0-.13.09s.08 0 .13 0c-.11-.08 0 0 0-.09h.06v-.07l-.12-.07a.37.37 0 0 0 .06.14zm.32.67s-.01-.01 0 0zm-.02-.05s.07 0 0 0a.23.23 0 0 1 0-.15.36.36 0 0 0 0 .15zm-.17-.29l-.1-.05v.08s.08-.02.1-.03z"/><path class="cls-5" d="M25.04 133.29L25.09 133.25 24.98 133.28 25.04 133.29z"/><path class="cls-5" d="M24.92 133.2L24.96 133.16 24.91 133.16 24.92 133.2z"/><path class="cls-5" d="M17.21 130.35zm.22.07s-.01 0 0 0zm4.44.75v-.13.09a.07.07 0 0 1 0 .04zm-2.49-.48l.05-.05zm-.13.31v-.07zm-3.25-.92c0 .05-.06.02 0 0zm7.71 2.19a.2.2 0 0 0-.06-.1c.01.07.01.15.06.1zm-6.24-2.53s0 .01 0 0zm6.07 2.36a.15.15 0 0 1 .09 0c0 .02-.02-.03-.09 0zm-12.2-2.8zm-1.34-.18zm14.48 3.66zm-.05.34zm-1.43-.73s0 .02 0 0zm1.5.45zm.01-.03s.03.01 0 0zm-.06-.05zm-10.6-3.27s-.03.01 0 0z"/><path class="cls-5" d="M20.75 131.65L20.76 131.65 20.75 131.64 20.75 131.65z"/><path class="cls-5" d="M20.63 131.66c.08-.08.1-.05.13 0l.07-.24zm-3.97-1.45l.06.07c-.11.06-.17 0-.12.1.05-.18.29.06.35-.12v.05c.07.12.1-.11.22-.05s.06.06 0 .08h.26l.12-.07h.09c0 .06-.06.09-.11.06 0 .22.08 0 .21.14h-.08c0 .13.09.11.15.2s-.12-.23 0-.25 0 0 .11 0 0 .07.09.08v.09c.07 0 .08-.06.13-.09s.06.11.05.18 0-.14.09-.12.16.05.28 0 0 .05 0 .09l.08-.06s0-.09.12-.1.1.21.23.12 0 .06 0 .1a.76.76 0 0 0 .27-.09l.06.1c0-.1.08-.16.18-.2v-.1h.14s0 .05-.05.09c0 .05 0 .1-.07.15v-.08a.41.41 0 0 0-.12.17v.25l.12.13c.15-.07.31-.21.5-.19-.08.07-.06.14-.11.24 0-.13-.15 0-.23-.07a.05.05 0 0 1 0 .09h.19v.13c0-.18.16-.06.24-.08s-.06.11-.13.06c0 .16.19-.15.23 0s.16.05.11.1c.12.07.37.17.46 0l-.12.2.45-.41c-.08.12-.15.47-.28.5a.1.1 0 0 0 .13.05s0-.21.07-.21a1 1 0 0 0 0 .27s.11-.23.16-.21a1.85 1.85 0 0 1-.12.22l.21-.15s-.09.17-.09.24.1.06.14.05v-.07c.11.1.27-.23.4-.15 0 0-.17.25-.12.31.08-.09.39-.45.56-.47v.07h.13a5.66 5.66 0 0 1-.62.48c0 .07 0 .08.05.11s-.08.07-.11.06l.15.12c.06-.13.19-.06.24-.16h-.24c.06-.13.29-.3.4-.21s-.14.21-.16.25.16 0 .15 0h-.09c0 .08.2-.1.21.06s0 .2 0 .13a2.4 2.4 0 0 1 .35-.68 1 1 0 0 1 .07.3c0 .13-.21.22-.23.33a.21.21 0 0 1 .09-.07s-.07.1 0 .11.12.08.09-.09c.08 0 0 .06.12.1a.43.43 0 0 1 .3-.22.23.23 0 0 0 0 .1c.12.09.15.18.27.25s0 .1 0 .13.07 0 .11 0-.09 0-.11.12c0-.06.15 0 .22 0s-.1-.1-.18-.09a.45.45 0 0 1 .42-.21c.12 0 0 .11 0 .11s.3-.12.38.08-.11.16-.13.23-.08-.13-.13-.16v.08h-.12c0 .11.29.21.38.37h.1c0-.09.14 0 .11-.09s.2 0 .25.08v.09s0-.09-.05-.08 0 .2.15.13v-.1c.08 0 .22 0 .26.06v-.14c0 .15-.17-.15-.19 0 0-.15-.05-.12 0-.27 0 0 0 .07-.06 0a.13.13 0 0 1 0 .07h-.22c-.06 0 0 0 0-.07h-.08c0-.07 0-.18.09-.15l-.07-.06c0-.07-.07-.13-.12-.13h-.22c-.11-.1-.32-.06-.37-.28a.22.22 0 0 1-.16-.08v-.07c-.07 0-.12-.17-.18-.12.05-.22-.23-.21-.31-.29l-.05.09a.51.51 0 0 0-.24-.06v.08c-.11 0-.15-.16-.27-.21s0 0 .06 0c0-.26-.36 0-.41-.21h-.08v-.06a.17.17 0 0 0 0 .06.24.24 0 0 0-.11 0v-.1l-.06.1h-.07c0-.16-.12 0-.08-.17-.06.06-.21 0-.3.12s-.06-.07-.12 0v-.12l-.16.11c0-.09 0-.14.06-.2-.19.08-.13 0-.29.09v-.07s-.14.05-.14 0-.43-.19-.61-.39c0 .21-.07-.12-.14 0v-.11c-.13 0-.15-.13-.28 0s0-.06 0-.09-.05 0-.05 0h.06c-.12 0-.19.1-.24.22 0-.08-.07-.08-.15 0s0-.1.05-.09-.23-.15-.27 0-.06 0-.07 0a.88.88 0 0 0-.19-.07c-.08.11-.09 0-.16 0-.14-.14-.08 0-.22-.13v.07c-.06.15-.12-.14-.24-.1-.07 0-.09-.25-.14-.28s0 .09-.16.08.06-.12 0-.15-.25.1-.32 0v.1c0 .02-.17-.19-.27-.09-.07 0-.2 0-.25.06 0-.24-.39 0-.34-.18h-.18a.2.2 0 0 0-.21 0 .3.3 0 0 0-.34 0v-.06s-.22-.14-.4-.1c-.2 0-.42-.22-.53 0h-.13c.15 0 0 .08 0 .13s-.15-.09-.07-.08c0-.1-.19-.07-.18-.13-.31 0-.61-.13-.91-.16v.07h-.1s0-.06 0 0-.13 0-.13 0 .07-.07 0-.08c-.05 0-.06.05-.15 0h-.13v.06h-.07c-.08-.1-.48-.07-.53-.1a.63.63 0 0 1-.26 0s0 .06 0 0-.15 0-.22-.12-.24 0-.15.07c-.07 0 0 0-.06-.05s-.37 0-.58 0h-.11s0 .05-.11 0h-1.25c.06 0 0 0 0 0H9.65h.05c-.07 0 .1 0 .09.06s.22 0 .35 0a.37.37 0 0 1 .15 0 4.42 4.42 0 0 1 .54 0h0c.05 0 .36 0 .41.07s0 0 .06 0h.08a1.11 1.11 0 0 0 .21 0h-.07.99a.3.3 0 0 1 .13 0s.08 0 0 .06c.17 0 .09 0 .21-.07a.18.18 0 0 1 .13 0c-.07 0 .05.05 0 .08.18.09.28 0 .35.07.09-.08-.15-.07-.1-.08s.08-.06.13 0 .09.12.23.14h.17c.06 0 .09 0 .11-.06h-.14c.08 0 .16-.09.28 0h-.08H13.9c.07-.09.14 0 .25 0a.17.17 0 0 1 .08 0l-.06.05c.09 0 .15.07.23.06-.16 0 0-.06-.09-.11.21 0 .09.14.32.16 0 0-.11-.05-.06-.06a.28.28 0 0 1 .11.08c.15 0 0-.06.05-.07s.08 0 .14 0v.05c.16.06.06-.1.21 0l-.08.06v.06a.22.22 0 0 1 .2 0s0-.1.1-.08 0 0 .07.06-.06.07-.1 0 .13 0 .17 0h.16v.05c0 .05.06 0 .1 0s0 .09-.09.1h.15s.06.07 0 .09.21 0 .31 0c.09 0 .17.12.3.08v.11c.09 0-.06-.14.09-.13s0 .09.05.12.18-.1.26 0-.08-.27-.11-.27zm1.12.28h-.08s.05-.03.08 0zm1.71.4h-.06a.08.08 0 0 1 .06 0zm4.68 1.73c-.03-.05-.02-.03 0 0zm.06.09h-.06c-.06 0 .03.01.06.01zm-10.68-3.56s-.01.02 0 .01zm5.72 1.78z"/><path class="cls-5" d="M15.96 130.07L15.96 130.06 15.95 130.08 15.96 130.07z"/><path class="cls-5" d="M22.45 132.52a.11.11 0 0 1 0-.06v.06zm2.3.48h-.06v.06c0 .06.05-.06.06-.06zm.17.71s-.02-.03 0 0zm-.28-.49c0 .06 0 .06.06.08.06-.07 0-.08-.06-.08zm.07.09s.03.01 0 0zm-.34-.55s.06-.07.06 0-.19-.04-.06 0z"/><path class="cls-5" d="M24.55 133.41L24.58 133.34 24.52 133.38 24.55 133.41z"/><path class="cls-5" d="M24.28 133.14v.07s.02-.09 0-.07zm.08.06a.08.08 0 0 0 .06 0z"/><path class="cls-5" d="M24.45 133.38L24.44 133.35 24.4 133.31 24.45 133.38z"/><path class="cls-5" d="M23.63 132.67h-.08v.06c0 .01.08-.03.08-.06zm.07.33a.15.15 0 0 1 0-.08l-.07.09zm-.22-.09s-.15 0-.06.06.11.03.06-.06z"/><path class="cls-5" d="M22.51 132.15L22.53 132.16 22.63 131.98 22.51 132.15z"/><path class="cls-5" d="M21.33 132.1c.06.09.08-.11.13 0s0-.08 0-.11-.09.01-.13.11zm.12-.1z"/><path class="cls-5" d="M9.73 129.12L9.67 129.12 9.71 129.13 9.73 129.12z"/><path class="cls-5" d="M9.61 129.15zm8.27 1.58z"/><path class="cls-5" d="M17.11 130.41L17.13 130.42 17.12 130.33 17.11 130.41z"/><path class="cls-5" d="M16.42 130.32h.09c-.06.01-.08-.1-.09 0z"/><path class="cls-6" d="M26.77 134.56s0 .01 0 0z"/><path class="cls-6" d="M26.46 134.22L26.48 134.22 26.42 134.18 26.46 134.22z"/><path class="cls-6" d="M26.19 133.89c0 .07.11.11.15.19a1.8 1.8 0 0 1-.15-.19zm-.07-.27zm.03.03zm-.15-.15h.05v-.06c0 .01-.05.02-.05.06zm-.07 0s.07 0 0 0zm.07.05h-.06s.06-.01.06 0zm0 .03s0 .08 0 0 .12.09 0 0zm.13.33s.01-.01 0 0zm-.35-.73v.07s-.01-.05 0-.07zm-.03.07h-.06s.05.02.06 0z"/><path class="cls-6" d="M25.87 133.55L25.98 133.59 25.85 133.53 25.87 133.55z"/><path class="cls-6" d="M25.61 132.99L25.66 132.98 25.57 132.98 25.61 132.99z"/><path class="cls-6" d="M25.49 132.87s0-.08.05-.08a.22.22 0 0 0-.13 0 .14.14 0 0 1 .08.08zm-.15-.12zm.28.38a.1.1 0 0 0 0-.08v.06zm-.02-.01zm.02.02zm.16.25h-.09c.03 0 .02-.01.09 0zm-.18-.18v.06z"/><path class="cls-6" d="M25.57 133.2L25.6 133.21 25.59 133.19 25.57 133.2z"/><path class="cls-6" d="M25.39 132.88a.18.18 0 0 1-.09 0l.08.1s.04-.07.01-.1zm.1.12z"/><path class="cls-6" d="M25.03 132.57L25.02 132.59 25.03 132.58 25.03 132.57z"/><path class="cls-6" d="M25.37 132.94a.05.05 0 0 0 .06 0h-.06s-.01 0 0 0zm-.12-.24a.45.45 0 0 0 0 .07s.01-.08 0-.07zm.23.3s.01 0 0 0zm0 0h-.05zm-.8-.17a.09.09 0 0 1 .15.05c.08 0 .16-.17.19-.3s0 0-.11 0 .07.16 0 .16 0-.06-.06-.12-.16 0-.21.12h.09s-.06.07-.05.09zm.44-.15a.28.28 0 0 1 0-.13h-.09l.1.11z"/><path class="cls-6" d="M25.24 132.79c-.05 0-.12 0-.13.09s.08 0 .13 0c-.11-.08 0 0 0-.09h.06v-.07l-.12-.07a.35.35 0 0 0 .06.14zm.32.67s-.01-.01 0 0zm-.02-.06s.07 0 0 0 0-.15 0-.15a.36.36 0 0 0 0 .15zm-.17-.29l-.1-.05v.08c.07.02.08-.02.1-.03z"/><path class="cls-6" d="M25.04 132.54L25.09 132.49 24.98 132.53 25.04 132.54z"/><path class="cls-6" d="M24.92 132.44L24.96 132.4 24.91 132.4 24.92 132.44z"/><path class="cls-6" d="M17.21 129.59zm.22.07s-.01 0 0 0zm4.44.76v-.13.09a.07.07 0 0 1 0 .04zm-2.49-.49l.05-.05zm-.13.27v-.07zm-3.25-.88c0 .06-.06.03 0 0zm7.71 2.2a.2.2 0 0 0-.06-.1c.01.06.01.15.06.1zM17.47 129zm6.07 2.34a.15.15 0 0 1 .09 0c0 .02-.02-.02-.09 0zm-12.2-2.79zm-1.34-.19zM24.48 132zm-.05.36zm-1.43-.72s0 .01 0 0zm1.5.45zm.01-.04s.03.01 0 0zm-.06-.05zm-10.6-3.26s-.03 0 0 0z"/><path class="cls-6" d="M20.75 130.9L20.76 130.89 20.75 130.89 20.75 130.9z"/><path class="cls-6" d="M20.63 130.91c.08-.08.1-.05.13 0l.07-.24z"/><path class="cls-6" d="M16.66 129.46l.06.07c-.11.06-.17 0-.12.1.05-.17.29.06.35-.12v.05c.07.12.1-.11.22-.05s.06.06 0 .08h.26l.12-.07h.09c0 .06-.06.09-.11.07 0 .21.08 0 .21.13h-.08c0 .13.09.11.15.2s-.12-.23 0-.25a.08.08 0 0 0 .11 0c0 .07 0 .07.09.08v.09c.07 0 .08-.05.13-.08s.06.11.05.18 0-.14.09-.12.16.05.28 0 0 .05 0 .09l.08-.06s0-.09.12-.1.1.21.23.12 0 .06 0 .1a.72.72 0 0 0 .27-.09l.06.1c0-.1.08-.16.18-.2v-.1h.14s0 .05-.05.09c0 .05 0 .1-.07.15v-.08a.42.42 0 0 0-.12.17v.12l.12.13c.15-.07.31-.21.5-.19-.08.07-.06.14-.11.24 0-.13-.15 0-.23-.07a.05.05 0 0 1 0 .08h.19v.13c0-.18.16-.06.24-.08s-.06.11-.13.06c0 .16.19-.15.23 0s.16.05.11.09c.12.07.37.17.46 0l-.12.2.45-.41c-.08.12-.15.47-.28.5a.1.1 0 0 0 .13.06s0-.21.07-.21a1 1 0 0 0 0 .27s.11-.24.16-.21-.09.21-.12.22l.21-.15s-.09.17-.09.24.1.06.14.05v-.07c.11.1.27-.22.4-.15 0 0-.17.24-.12.3.08-.09.39-.45.56-.47v.07h.13a5.57 5.57 0 0 1-.62.48c0 .07 0 .08.05.11s-.08.07-.11.06l.15.12c.06-.13.19-.06.24-.16h-.24c.06-.13.29-.3.4-.21s-.14.21-.16.25.16 0 .15 0h-.09c0 .08.2-.11.21.05s0 .2 0 .13a2.43 2.43 0 0 1 .35-.69 1.07 1.07 0 0 1 .07.3c0 .13-.21.22-.23.33a.21.21 0 0 1 .09-.07s-.07.09 0 .11.12.08.09-.09c.08 0 0 .06.12.1a.45.45 0 0 1 .3-.22.24.24 0 0 0 0 .1c.12.09.15.18.27.25s0 .1 0 .13.07 0 .11 0-.09 0-.11.12c0-.06.15 0 .22 0s-.1-.1-.18-.08a.45.45 0 0 1 .42-.21c.12 0 0 .11 0 .11.16.14.3-.12.38.08s-.11.16-.13.23-.08-.13-.13-.16v.08h-.12c-.01 0 .29.21.38.37h.1c0-.09.14 0 .11-.09s.2 0 .25.08v.09s0-.09-.05-.08 0 .2.15.13v-.1c.08 0 .22 0 .26.06v-.13c0 .15-.17-.15-.19 0 0-.15-.05-.12 0-.27 0 0 0 .07-.06 0a.13.13 0 0 1 0 .07h-.22c-.06 0 0 0 0-.07h-.08c0-.07 0-.18.09-.15l-.07-.06c0-.07-.07-.13-.12-.13h-.22c-.11-.1-.32-.06-.37-.28a.23.23 0 0 1-.16-.08v-.08c-.07 0-.12-.17-.18-.12.05-.22-.23-.21-.31-.29l-.05.09a.5.5 0 0 0-.24-.06v.08c-.11 0-.15-.16-.27-.21s0 0 .06 0c0-.26-.36 0-.41-.21a.05.05 0 0 1-.08 0v-.07a.17.17 0 0 0 0 .06.27.27 0 0 0-.11 0v-.1l-.06.1h-.07c0-.16-.12 0-.08-.17-.06.06-.21 0-.3.12s-.06-.07-.12 0v-.12l-.16.11c0-.09 0-.14.06-.2-.19.08-.13 0-.29.09v-.07s-.14.05-.14 0-.43-.18-.61-.39c0 .21-.07-.12-.14 0v-.11c-.13 0-.15-.13-.28 0s0-.06 0-.09-.05 0-.05 0h.06c-.12 0-.19.1-.24.22 0-.08-.07-.08-.15 0s0-.1.05-.09-.23-.15-.27 0-.06 0-.07 0a.87.87 0 0 0-.19-.07c-.08.11-.09 0-.16 0-.14-.14-.08 0-.22-.13v.08c-.06.15-.12-.14-.24-.11v.05c-.07 0-.09-.25-.14-.28s0 .09-.16.08.06-.12 0-.15-.25.1-.32 0v.1c0 .01-.17-.19-.27-.09-.07 0-.2 0-.25.05 0-.24-.39 0-.34-.18h-.18a.2.2 0 0 0-.21 0 .3.3 0 0 0-.34 0v-.06s-.22-.14-.4-.1c-.2 0-.42-.22-.53 0h-.13c.15 0 0 .08 0 .13s-.15-.08-.07-.08c0-.1-.19-.06-.18-.13-.31 0-.61-.13-.91-.16v.07h-.1s0-.06 0 0-.13 0-.13 0 .07-.07 0-.08c-.05 0-.06.05-.15 0h-.13v.05h-.07c-.08-.1-.48-.07-.53-.1a.61.61 0 0 1-.26 0s0 .06 0 0-.15-.05-.22-.12-.24 0-.15.07c-.07 0 0 0-.06-.06s-.37 0-.58 0l-.11-.05s0 .05-.11 0h-1.25c.06 0 0 0 0 0H9.65h.05c-.07 0 .1 0 .09.06s.22 0 .35 0a.34.34 0 0 1 .15 0 4.85 4.85 0 0 1 .54 0h0c.05 0 .36 0 .41.07s0 0 .06 0h.08a1.23 1.23 0 0 0 .21 0h-.07.99a.27.27 0 0 1 .13 0s.08 0 0 .06c.17 0 .09 0 .21-.07a.19.19 0 0 1 .13 0c-.07 0 .05.05 0 .08.18.09.28 0 .35.07.09-.08-.15-.07-.1-.08s.08-.06.13 0 .09.13.23.15h.17c.06 0 .09 0 .11-.06h-.14c.08 0 .16-.09.28 0h-.08H13.9c.07-.09.14 0 .25 0a.18.18 0 0 1 .08 0l-.06.05c.09 0 .15.07.23.06-.16 0 0-.06-.09-.11.21 0 .09.14.32.16 0 0-.11 0-.06-.06a.29.29 0 0 1 .11.08c.15 0 0-.06.05-.07s.08 0 .14 0v.02c.16.06.06-.1.21 0l-.08.06v.06a.21.21 0 0 1 .2 0s0-.09.1-.08 0 0 .07.06-.06.07-.1 0 .13 0 .17 0h.16v.05c0 .05.06 0 .1 0s0 .09-.09.1h.15s.06.07 0 .09.21 0 .31 0c.09 0 .17.11.3.08v.11c.09 0-.06-.14.09-.13s0 .09.05.12.18-.1.26 0-.08-.06-.11-.06zm1.12.28h-.08s.05-.04.08 0zm1.71.4h-.06a.08.08 0 0 1 .06 0zm4.68 1.73c-.03-.06-.02-.04 0 0zm.06.1h-.06c-.06 0 .03.03.06.03zm-10.68-3.57s-.01.02 0 0z"/><path class="cls-6" d="M15.96 129.31L15.96 129.31 15.95 129.32 15.96 129.31z"/><path class="cls-6" d="M22.45 131.76a.11.11 0 0 1 0-.06v.06zm2.3.45h-.06v.06c0 .06.05-.07.06-.06zm.17.79s-.02-.08 0 0zm-.28-.54c0 .06 0 .07.06.08.06-.06 0-.07-.06-.08zm.07.09s.03.01 0 0zm-.34-.55s.06-.07.06 0-.19 0-.06 0z"/><path class="cls-6" d="M24.55 132.66L24.58 132.59 24.52 132.62 24.55 132.66z"/><path class="cls-6" d="M24.28 132.39v.07s.02-.09 0-.07zm.08.05a.08.08 0 0 0 .06 0z"/><path class="cls-6" d="M24.45 132.62L24.44 132.59 24.4 132.56 24.45 132.62z"/><path class="cls-6" d="M23.63 131.91h-.08v.06c0 .01.08-.02.08-.06zm.07.35a.16.16 0 0 1 0-.08l-.07.09zm-.22-.1s-.15 0-.06.07.11-.01.06-.07z"/><path class="cls-6" d="M22.51 131.4L22.53 131.41 22.63 131.22 22.51 131.4z"/><path class="cls-6" d="M21.33 131.34c.06.09.08-.11.13 0s0-.08 0-.11-.09-.02-.13.11zm.12-.11z"/><path class="cls-6" d="M9.73 128.37L9.67 128.37 9.71 128.37 9.73 128.37z"/><path class="cls-6" d="M9.61 128.39zm8.27 1.61z"/><path class="cls-6" d="M17.11 129.66L17.13 129.66 17.12 129.58 17.11 129.66z"/><path class="cls-6" d="M16.42 129.57h.09c-.06.01-.08-.1-.09 0z"/><path class="cls-7" d="M27.23 133.78L27.24 133.78 27.18 133.74 27.23 133.78z"/><path class="cls-7" d="M26.95 133.44c0 .07.11.11.15.18a2 2 0 0 1-.15-.18zm-.07-.27zm.03.04zm-.15-.15h.05V133c0 .01-.05 0-.05.06zm-.07-.01s.03 0 0 0zm.09.05h-.06s.03-.01.06 0zm.01.04s0 .08 0 0 .09.08 0 0zm.1.33s.01-.01 0 0zm-.35-.73v.07s-.01-.05 0-.07zm-.02.07h-.06s.05.01.06 0z"/><path class="cls-7" d="M26.63 133.1L26.74 133.14 26.61 133.09 26.63 133.1z"/><path class="cls-7" d="M26.37 132.54L26.43 132.54 26.34 132.54 26.37 132.54z"/><path class="cls-7" d="M26.25 132.42v-.07a.2.2 0 0 0-.13 0s.11.01.13.07zm-.15-.11zm.28.38a.1.1 0 0 0 0-.08v.06zm-.02-.02zm.02.02s0 .01 0 0zm.16.26h-.09c.03 0 .02-.02.09 0zm-.18-.19v.06z"/><path class="cls-7" d="M26.33 132.75L26.36 132.76 26.35 132.74 26.33 132.75z"/><path class="cls-7" d="M26.15 132.43a.16.16 0 0 1-.09 0l.08.1s.04-.07.01-.1zm.1.12zm-.46-.42z"/><path class="cls-7" d="M26.13 132.5a.06.06 0 0 0 .06 0h-.06zm-.13-.25v0zm.25.28s0-.01 0 0zm0 0h-.05.05zm-.8-.14a.09.09 0 0 1 .15.05c.08 0 .16-.17.19-.3s0 0-.11 0 .07.16 0 .17 0-.07-.06-.12-.16 0-.21.12h.09s-.06.05-.05.08z"/><path class="cls-7" d="M25.88 132.24a.28.28 0 0 1 0-.13h-.09l.1.11zm.12.1c-.05 0-.12 0-.13.08s.08 0 .13 0c-.11-.08.05 0 0-.09h.06v-.07l-.12-.07a.36.36 0 0 0 .06.15zm.33.66s-.02 0 0 0zm-.03 0h.05c.05 0 0 0 0 0s.07 0 0 0 0-.15 0-.15a.36.36 0 0 0-.05.15zm-.16-.33l-.1-.05v.08c.06.01.08-.02.1-.03z"/><path class="cls-7" d="M25.8 132.09L25.85 132.05 25.74 132.08 25.8 132.09z"/><path class="cls-7" d="M25.68 132L25.72 131.96 25.67 131.96 25.68 132z"/><path class="cls-7" d="M18 129.15zm.2.07s-.01 0 0 0zm4.43.78v-.13.09a.07.07 0 0 1 0 .04zm-2.49-.51l.05-.05zm-.14.27v-.07zm-3.28-.88c0 .05-.01.02 0 0zm7.75 2.19a.21.21 0 0 0-.06-.1c.01.03.01.15.06.1zm-6.24-2.53s0 .01 0 0zm6.07 2.36a.16.16 0 0 1 .09 0c.01.02-.02-.03-.09 0zm-12.2-2.8zm-1.38-.18zm14.52 3.66zm-.05.34zm-1.43-.73s0 .02 0 0zm1.5.45zm.02-.03s.02.01 0 0zm-.07-.05zm-10.6-3.27s-.03.01 0 0z"/><path class="cls-7" d="M21.51 130.45L21.52 130.45 21.52 130.44 21.51 130.45z"/><path class="cls-7" d="M21.39 130.46c.08-.07.1-.05.13 0l.07-.24z"/><path class="cls-7" d="M17.42 129l.06.07c-.11.06-.17 0-.12.1.05-.18.29.06.35-.12v.05c.07.12.1-.11.22 0s.06.06 0 .08h.26l.12-.07h.09c0 .06-.06.09-.11.06 0 .21.08 0 .21.13h-.08c0 .13.09.11.15.2s-.12-.23 0-.25a.09.09 0 0 0 .11 0c0 .07 0 .07.09.08v.09c.07 0 .08-.06.13-.09s.06.11.05.18 0-.14.1-.12.15.05.28 0 0 .05 0 .09l.08-.06s0-.1.12-.1.1.21.23.12 0 .06 0 .1a.73.73 0 0 0 .27-.09l.07.1c0-.1.08-.16.17-.2a.93.93 0 0 0 0-.1h.14s0 .05-.05.09c0 .05 0 .1-.06.15v-.08a.41.41 0 0 0-.12.17v.12l.12.13c.15-.07.31-.21.5-.19-.08.07-.06.14-.11.24 0-.13-.15 0-.23-.07a.05.05 0 0 1 0 .09h.19v.13c0-.18.16-.06.24-.08s-.06.11-.13.06c0 .16.19-.15.23 0s.16.05.11.1c.12.07.37.17.46 0l-.12.2.45-.41c-.08.12-.15.47-.28.5a.1.1 0 0 0 .13.06s0-.21.07-.21a1 1 0 0 0 0 .27s.11-.24.16-.21a1.74 1.74 0 0 1-.12.22l.21-.15s-.09.17-.09.24.1.06.14.05v-.07c.11.1.27-.22.4-.15 0 0-.17.25-.12.3s.39-.45.56-.47v.07h.13a5.64 5.64 0 0 1-.62.48c0 .07 0 .08.05.11s-.08.07-.11.06l.15.12c.06-.13.19-.05.24-.16h-.24c.06-.13.29-.3.4-.21s-.14.21-.16.25.16 0 .15 0h-.09c0 .08.2-.1.21.06s0 .2 0 .13a2.35 2.35 0 0 1 .35-.69 1.18 1.18 0 0 1 .06.3c0 .13-.21.22-.23.33a.23.23 0 0 1 .09-.07s-.07.1 0 .11.12.08.09-.09c.08 0 0 .06.12.1a.44.44 0 0 1 .3-.22.25.25 0 0 0 0 .1c.12.09.15.18.27.25s0 .1 0 .13.07 0 .11 0-.09 0-.11.11c0-.06.15 0 .22 0s-.1-.1-.18-.08a.46.46 0 0 1 .43-.21c.11 0 0 .12 0 .11.16.14.3-.12.38.08s-.11.16-.13.23-.08-.13-.13-.16v.08h-.12c0 .11.29.21.38.37h.1c0-.09.14 0 .11-.09s.2 0 .25.08v.09s0-.09-.06-.08 0 .2.15.12v-.1c.09 0 .21 0 .26.06v-.13c0 .15-.17-.15-.19 0 0-.15-.05-.12 0-.27 0 0 0 .07-.06 0a.15.15 0 0 1 0 .07h-.22c-.06 0 0 0 0-.07h-.08c0-.07 0-.18.09-.15l-.07-.06c0-.07-.07-.13-.12-.13h-.22c-.11-.1-.32-.06-.37-.28a.22.22 0 0 1-.16-.08v-.08c-.07 0-.12-.17-.18-.12.05-.22-.23-.21-.31-.29l-.05.09a.51.51 0 0 0-.24-.06v.08c-.11 0-.15-.16-.27-.21s0 0 .06 0c0-.26-.36 0-.41-.21h-.07v-.07a.16.16 0 0 0 0 .06h-.11v-.1l-.06.1h-.07c0-.16-.12 0-.08-.17-.06.06-.21 0-.3.12s-.06-.07-.12 0v-.12l-.16.11c0-.09 0-.14.06-.2-.19.08-.13 0-.29.09v-.07s-.14.05-.14 0-.43-.19-.61-.39c0 .21-.07-.13-.14 0v-.11c-.13 0-.15-.13-.28 0s0-.06 0-.09-.05 0-.05 0h.06c.06 0-.19.1-.24.22 0-.08-.07-.08-.14 0s0-.1.05-.09-.23-.15-.27 0-.06 0-.07 0a.88.88 0 0 0-.19-.07c-.08.11-.09 0-.16 0-.14-.14-.09 0-.22-.13V129c-.06.15-.12-.14-.24-.11-.07 0-.09-.25-.14-.28s0 .09-.16.08.06-.12 0-.15-.25.1-.33 0v.1c0 .01-.17-.19-.27-.09-.07 0-.2 0-.25.05 0-.24-.39 0-.34-.18h-.18a.2.2 0 0 0-.21 0c-.16-.08-.18-.07-.34 0v-.06s-.22-.14-.4-.1c-.2 0-.42-.22-.53 0h-.13c.16 0 0 .08 0 .13s-.15-.09-.07-.08c0-.1-.19-.06-.18-.13-.31 0-.61-.13-.91-.16v.07h-.1s0-.06 0 0-.13 0-.13 0 .07-.07 0-.08c-.05 0-.06.05-.15 0h-.16v.05h-.07c-.08-.1-.48-.07-.53-.1a.66.66 0 0 1-.26 0s0 .06 0 0-.15-.05-.22-.12-.24 0-.15.07c-.07 0 0 0-.05-.06s-.37 0-.58 0h-.11s0 .05-.11 0h-1.25c.06 0 0 0 0 0h-.37.05c-.07 0 .1 0 .09.06s.22 0 .35 0a.36.36 0 0 1 .15 0 4.44 4.44 0 0 1 .54 0h0c.05 0 .36 0 .41.07s0 0 .06 0h.08a1.12 1.12 0 0 0 .21 0h-.08.99a.27.27 0 0 1 .13 0s.08 0 0 .06c.18 0 .09 0 .21-.07a.18.18 0 0 1 .13 0c-.07 0 .05.05 0 .08.18.09.28 0 .35.08.09-.08-.15-.07-.1-.08s.08-.06.13 0 .09.12.23.14h.17c.06 0 .09 0 .11-.05h-.14c.08 0 .16-.09.28 0h-.08H14.69c.07-.09.14 0 .25 0a.19.19 0 0 1 .08 0l-.06.05c.09 0 .15.07.23.06-.16 0 0-.06-.09-.11.21 0 .1.14.32.16 0 0-.11 0-.06-.06a.29.29 0 0 1 .11.08c.15 0 0-.06.05-.07s.08 0 .14 0v.05c.16.06.06-.1.21 0l-.08.06h.08v.06a.21.21 0 0 1 .2 0s0-.1.1-.08 0 0 .07.06-.06.07-.1 0 .13 0 .17 0h.16v.05c0 .05.06 0 .1 0s0 .09-.09.1h.15s.06.07 0 .09.21 0 .31 0c.09 0 .17.12.3.08v.11c.09 0-.06-.14.09-.13s0 .09.05.12.18-.1.26 0-.18.18-.22.18zm1.12.28h-.08s.05-.02.08.01zm1.71.4h-.06a.07.07 0 0 1 .06.01zm4.68 1.73c-.03-.04-.02-.02 0 .01zm.06.09h-.06c-.06 0 .07.02.07.02zM14.32 128s-.02 0 0 0z"/><path class="cls-7" d="M20 129.73zm-3.28-.86zm6.49 2.45a.11.11 0 0 1 0-.06v.06zm2.3.45h-.07v.06c0 .06.06-.08.07-.06zm.18.74s-.03-.03 0 0zm-.28-.51c0 .06 0 .07.06.09.05-.09-.01-.09-.06-.09zm.06.11s.03.01 0 0zm-.34-.55s.06-.06.06 0-.19-.04-.06 0z"/><path class="cls-7" d="M25.31 132.22L25.34 132.14 25.28 132.18 25.31 132.22z"/><path class="cls-7" d="M25 131.94v.07s.06-.09 0-.07zm.13.06a.07.07 0 0 0 .06 0z"/><path class="cls-7" d="M25.21 132.18L25.2 132.15 25.16 132.11 25.21 132.18z"/><path class="cls-7" d="M24.39 131.47h-.08v.06c0 .01.08-.03.08-.06zm.07.35a.14.14 0 0 1 0-.08l-.07.09zm-.22-.11s-.15 0-.06.07.11 0 .06-.07z"/><path class="cls-7" d="M23.27 130.95L23.29 130.96 23.39 130.78 23.27 130.95z"/><path class="cls-7" d="M22.09 130.9c.06.09.08-.1.13 0s0-.08 0-.1-.09-.04-.13.1zm.13-.12z"/><path class="cls-7" d="M10.49 127.92L10.43 127.92 10.47 127.93 10.49 127.92z"/><path class="cls-7" d="M10.38 127.95zm8.27 1.58z"/><path class="cls-7" d="M17.87 129.22L17.89 129.22 17.88 129.13 17.87 129.22z"/><path class="cls-7" d="M17.18 129.12h.09c-.06.01-.08-.12-.09 0z"/><path class="cls-8" d="M27.8 133.47s-.01 0 0 0z"/><path class="cls-8" d="M27.49 133.12L27.5 133.12 27.44 133.09 27.49 133.12z"/><path class="cls-8" d="M27.21 132.79c0 .07.11.11.15.18a1.9 1.9 0 0 1-.15-.18zm-.06-.27zm.02.04zm-.17-.16h.06v-.06c0 .01-.06.02-.06.06zm0 0zm0 .05h-.06s.06-.01.06 0zm.06.03s0 .08 0 0 .08.09 0 0zm.1.34s.01-.02 0 0zm-.35-.74v.07s-.02-.05 0-.07zm-.03.07h-.06s.05.02.06 0z"/><path class="cls-8" d="M26.9 132.45L27.01 132.49 26.88 132.43 26.9 132.45z"/><path class="cls-8" d="M26.64 131.89L26.69 131.88 26.6 131.88 26.64 131.89z"/><path class="cls-8" d="M26.51 131.77v-.08a.22.22 0 0 0-.13 0 .14.14 0 0 1 .13.08zm-.15-.12zm.28.35a.1.1 0 0 0 0-.08v.06zm-.02 0zm.03 0s-.01 0 0 0zm.15.29h-.09c.03 0 .03-.01.09 0zm-.17-.18v.06z"/><path class="cls-8" d="M26.59 132.1L26.63 132.11 26.61 132.09 26.59 132.1z"/><path class="cls-8" d="M26.42 131.78a.17.17 0 0 1-.09 0l.08.1s.04-.07.01-.1zm.1.12zm-.47-.43z"/><path class="cls-8" d="M26.4 131.85a.06.06 0 0 0 .06 0h-.06s-.01-.01 0 0zm-.13-.25v.06s.02-.07 0-.06zm.24.28s0-.01 0 0zm0 0h-.05.05zm-.8-.15a.09.09 0 0 1 .15 0c.08 0 .16-.17.19-.3s0 0-.11 0 .07.16 0 .16 0-.06-.06-.12-.16 0-.21.12h.09s-.06.12-.05.14zm.43-.15a.27.27 0 0 1 0-.13h-.09l.1.11z"/><path class="cls-8" d="M26.26 131.69c-.05 0-.12 0-.13.09s.08 0 .13 0c-.11-.08 0 0 0-.09h.06v-.07l-.12-.07a.36.36 0 0 0 .06.14zm.33.67s-.01-.01 0 0zm-.02-.06s.07 0 0 0a.23.23 0 0 1 0-.15.37.37 0 0 0 0 .15zm-.17-.3l-.1-.05v.05c.07.06.08 0 .1 0z"/><path class="cls-8" d="M26.06 131.44L26.12 131.4 26.01 131.43 26.06 131.44z"/><path class="cls-8" d="M25.95 131.35L25.99 131.3 25.94 131.31 25.95 131.35z"/><path class="cls-8" d="M18.24 128.5zm.22.07s-.01-.01 0 0zm4.44.75v-.13.09a.07.07 0 0 1 0 .04zm-2.49-.49l.05-.05zm-.13.27v-.07a.2.2 0 0 0 0 .07zm-3.28-.88c0 .06 0 .03 0 0zm7.73 2.2a.23.23 0 0 0-.06-.1c.02.06.01.15.06.1zm-6.24-2.54s0 .02 0 0zm6.08 2.37a.17.17 0 0 1 .09 0c0 .01-.02-.03-.09 0zm-12.21-2.8zm-1.36-.19zm14.51 3.67zm-.05.33zm-1.46-.72s0 .01 0 0zm1.53.46zm.01 0s.03 0 0 0zm-.07-.1zm-10.6-3.27s-.02.01 0 0z"/><path class="cls-8" d="M21.78 129.79L21.78 129.79 21.78 129.79 21.78 129.79z"/><path class="cls-8" d="M21.66 129.8c.08-.08.1-.05.13 0l.07-.24z"/><path class="cls-8" d="M17.69 128.36l.06.07c-.11.06-.17 0-.11.1.05-.18.29.06.35-.12v.05c.07.12.1-.11.22-.05s.06.06 0 .08h.26l.12-.07h.09c0 .06-.06.09-.12.07 0 .21.08 0 .21.13h-.08c0 .13.09.1.15.2s-.12-.23 0-.25 0 0 .11 0 0 .07.09.08v.09c.07 0 .08-.06.13-.09s.06.11.05.17 0-.14.09-.12.15.05.28 0 0 .05 0 .09l.08-.06s0-.09.12-.09.1.21.23.12 0 .06 0 .1a.76.76 0 0 0 .27-.09l.06.1c0-.1.08-.16.18-.21v-.1h.14s0 .05-.05.09c0 .05 0 .1-.07.15v-.08a.4.4 0 0 0-.12.17v.12l.12.13c.15-.07.31-.21.5-.19-.08.07-.06.14-.11.24 0-.13-.15 0-.23-.07s0 .07 0 .09h.19v.13c0-.18.16-.06.24-.08s-.06.11-.13.06c0 .16.19-.15.23 0s.15.05.11.09c.12.07.37.17.46 0l-.12.2.45-.41c-.08.12-.15.47-.28.49a.1.1 0 0 0 .13.06s0-.21.07-.21a1 1 0 0 0 0 .27s.11-.23.16-.21a1.79 1.79 0 0 1-.12.22l.21-.15s-.09.17-.09.24.1.06.14.05v-.07c.11.1.27-.23.4-.15 0 0-.17.25-.12.3s.39-.44.56-.47v.07h.13a6 6 0 0 1-.62.48c0 .07 0 .08.05.11s-.08.07-.11.06l.15.12c.06-.13.19-.05.24-.16h-.24c.06-.13.29-.3.4-.21s-.14.21-.16.25.16 0 .15 0h-.09c0 .08.2-.1.21.06s0 .2 0 .13a2.35 2.35 0 0 1 .35-.69 1.17 1.17 0 0 1 .07.3c0 .13-.22.22-.23.34a.2.2 0 0 1 .09-.07s-.07.1 0 .12.12.08.09-.09c.08 0 0 .06.12.1a.43.43 0 0 1 .3-.22.23.23 0 0 0 0 .1c.12.08.15.18.27.25s0 .1 0 .13.07 0 .11 0-.09 0-.11.12c0-.06.15 0 .22 0s-.1-.1-.18-.08a.46.46 0 0 1 .43-.21c.12 0 0 .12 0 .11s.3-.12.38.08-.11.16-.13.23-.08-.13-.14-.16v.08h-.12c0 .11.29.21.38.37h.1c0-.09.14 0 .11-.09s.19 0 .25.08v.09s0-.09-.05-.08 0 .2.15.12v-.1c.08 0 .21 0 .26.06v-.14c0 .15-.17-.15-.19 0 0-.15-.05-.12 0-.27 0 0 0 .07-.06 0a.12.12 0 0 1 0 .07h-.22c-.06 0 0 0 0-.07h-.08c0-.07 0-.18.09-.16l-.07-.06c0-.07-.07-.13-.12-.13h-.22c-.11-.1-.31-.06-.37-.28a.22.22 0 0 1-.16-.08v-.08c-.07 0-.12-.17-.18-.11.05-.22-.23-.21-.31-.3l-.06.09a.49.49 0 0 0-.24-.06v.09c-.11 0-.15-.16-.26-.21s0 0 .06 0c0-.26-.36 0-.41-.21a.05.05 0 0 1-.08 0v-.06a.17.17 0 0 0 0 .06h-.35v-.1l-.06.1h-.07c0-.16-.12 0-.08-.17-.06.06-.21 0-.3.12s-.06-.07-.12 0v-.12l-.16.11c0-.09 0-.14.06-.2-.19.08-.13 0-.29.09v-.07s-.14.05-.14 0-.43-.18-.61-.39c0 .21-.07-.12-.14 0v-.11c-.13 0-.15-.13-.28 0s0-.06 0-.09-.05 0-.06 0h.06c-.12 0-.19.1-.24.22 0-.08-.07-.08-.14 0s0-.1.05-.09-.23-.15-.27 0-.06 0-.07 0a.85.85 0 0 0-.19-.07c-.08.11-.09 0-.16 0-.14-.14-.09 0-.22-.13v.07c-.06.15-.12-.14-.24-.1-.07 0-.09-.25-.14-.28s0 .09-.16.08.06-.12 0-.15-.25.1-.33 0v.1c0 .02-.17-.19-.27-.09-.07 0-.2 0-.25.06 0-.24-.39 0-.34-.18h-.18a.2.2 0 0 0-.21 0c-.16-.07-.18-.07-.34 0v-.06s-.22-.14-.4-.1c-.2 0-.42-.22-.53 0h-.13c.16 0 0 .08 0 .13s-.15-.09-.07-.09c0-.1-.19-.07-.18-.13-.31 0-.61-.13-.91-.16v.07h-.1s0-.06 0 0-.13 0-.13 0 .07-.07 0-.08c-.05 0-.06.05-.15 0h-.13v.05h-.07c-.08-.1-.48-.07-.53-.1a.66.66 0 0 1-.26 0s0 .06 0 0-.15-.05-.22-.12-.24 0-.15.07c-.07 0 0 0-.06-.06s-.37 0-.58 0h-.11s0 .05-.12 0h-1.25c.06 0 0 0 0 0h-.37.05c-.07 0 .1 0 .1.06s.21 0 .35 0a.31.31 0 0 1 .15 0 4.41 4.41 0 0 1 .54 0h0c.06 0 .36 0 .41.07s0 0 .06 0h.08-.05a.91.91 0 0 0 .21 0h1.13a.29.29 0 0 1 .13 0s.08 0 0 .06c.17 0 .09 0 .21-.07a.19.19 0 0 1 .13 0c-.07 0 .05.05 0 .08.18.09.28 0 .35.07.09-.08-.15-.07-.1-.08s.08-.06.13 0 .09.13.23.15h.17c.06 0 .09 0 .11-.06h-.14c.08 0 .16-.09.28 0h-.08H14.88c.07-.09.14 0 .25 0a.19.19 0 0 1 .08 0l-.06.05c.09 0 .15.07.23.06-.16 0 0-.06-.09-.11.21 0 .09.14.32.16 0 0-.11-.05-.06-.07a.33.33 0 0 1 .11.08c.15 0 0-.06.05-.07s.07 0 .14 0v.05c.16.06.06-.1.2 0l-.07.06H16v.06a.21.21 0 0 1 .2 0s0-.1.1-.08 0 0 .07.06-.06.07-.1 0 .13 0 .17 0h.16v.05c0 .05.06 0 .1 0s0 .09-.09.1h.15s.06.07 0 .09.21 0 .31 0 .17.12.3.08v.11c.09 0-.06-.14.1-.13s0 .09.05.12.18-.1.26 0-.06-.08-.09-.08zm1.12.28h-.08s.04-.04.07 0zm1.71.4h-.06a.07.07 0 0 1 .06-.04zm4.68 1.73c-.03-.06-.02-.03 0 0zm.06.09h-.06c-.06 0 .02 0 .06.01zm-10.68-3.56s-.01.02 0 0z"/><path class="cls-8" d="M16.99 128.21L16.99 128.21 16.98 128.22 16.99 128.21z"/><path class="cls-8" d="M23.47 130.67a.11.11 0 0 1 0-.06v.06zm2.31.44h-.06v.06c0 .06.04-.07.06-.06zm.17.75s-.02-.04 0 0zm-.28-.49c0 .06 0 .06.06.08.06-.07 0-.08-.06-.08zm.07.08s.02.01 0 0zm-.35-.54s.06-.06.06 0-.18-.04-.06 0z"/><path class="cls-8" d="M25.57 131.56L25.61 131.49 25.55 131.52 25.57 131.56z"/><path class="cls-8" d="M25.31 131.29v.06s.01-.08 0-.06zm.08.05a.07.07 0 0 0 .06 0z"/><path class="cls-8" d="M25.48 131.52L25.47 131.49 25.43 131.46 25.48 131.52z"/><path class="cls-8" d="M24.66 130.81h-.08v.06c0 .01.07-.02.08-.06zm.06.35v-.08l-.07.09zm-.21-.1s-.15 0-.06.06.1 0 .06-.06z"/><path class="cls-8" d="M23.54 130.3L23.55 130.31 23.66 130.12 23.54 130.3z"/><path class="cls-8" d="M22.36 130.24c.06.09.08-.1.13 0s0-.08 0-.11-.1-.02-.13.11zm.12-.11z"/><path class="cls-8" d="M10.76 127.27L10.7 127.27 10.74 127.27 10.76 127.27z"/><path class="cls-8" d="M10.64 127.29zm8.27 1.59z"/><path class="cls-8" d="M18.14 128.56L18.15 128.57 18.15 128.48 18.14 128.56z"/><path class="cls-8" d="M17.44 128.47h.09c-.06.01-.07-.1-.09 0z"/><path class="cls-9" d="M27.8 132.95s-.01.05 0 0z"/><path class="cls-9" d="M27.49 132.6L27.5 132.6 27.44 132.57 27.49 132.6z"/><path class="cls-9" d="M27.21 132.27c0 .07.11.11.15.18a1.9 1.9 0 0 1-.15-.18zm-.06-.27zm.02 0zm-.17-.11h.06v-.06c0 .01-.06.01-.06.06zm0-.01zm0 .05h-.06s.06-.01.06 0zm.06.07s0 .08 0 0 .08 0 0 0zm.1.3s.01-.02 0 0zm-.35-.74v.07s-.02-.04 0-.07zm-.03.07h-.06s.05.02.06 0z"/><path class="cls-9" d="M26.9 131.93L27.01 131.97 26.88 131.92 26.9 131.93z"/><path class="cls-9" d="M26.64 131.37L26.69 131.37 26.6 131.37 26.64 131.37z"/><path class="cls-9" d="M26.51 131.25v-.07a.21.21 0 0 0-.13 0 .14.14 0 0 1 .13.07zm-.15-.12zm.28.39a.1.1 0 0 0 0-.08v.06zm-.02-.02zm.03.02zm.15.25h-.09c.03 0 .03-.01.09 0zm-.17-.18v.06z"/><path class="cls-9" d="M26.59 131.58L26.63 131.59 26.61 131.57 26.59 131.58z"/><path class="cls-9" d="M26.42 131.26a.17.17 0 0 1-.09 0l.08.1s.04-.07.01-.1zm.1.12s-.01.01 0 0z"/><path class="cls-9" d="M26.05 130.96L26.05 130.97 26.06 130.96 26.05 130.96z"/><path class="cls-9" d="M26.4 131.33a.06.06 0 0 0 .06 0h-.06s-.01-.01 0 0zm-.13-.25v.06s.02-.07 0-.06zm.24.28s0-.01 0 0zm0 0h-.05.05zm-.8-.14a.09.09 0 0 1 .15.05c.08 0 .16-.17.19-.3s0 0-.11 0 .07.16 0 .17 0-.06-.06-.12-.16 0-.21.12h.09s-.06.05-.05.08z"/><path class="cls-9" d="M26.14 131.07a.27.27 0 0 1 0-.13h-.09l.1.11zm.12.1c-.05 0-.12 0-.13.08s.08 0 .13 0c-.11-.08 0 0 0-.09h.06v-.07l-.12-.07a.33.33 0 0 0 .06.15zm.33.67s-.01-.01 0 0zm-.02-.06s.07 0 0 0a.23.23 0 0 1 0-.15.38.38 0 0 0 0 .15zm-.17-.29l-.1-.05v.08c.07.02.08-.01.1-.03z"/><path class="cls-9" d="M26.06 130.92L26.12 130.88 26.01 130.91 26.06 130.92z"/><path class="cls-9" d="M25.95 130.83L25.99 130.78 25.94 130.79 25.95 130.83z"/><path class="cls-9" d="M18.24 128zm.22 0s-.01 0 0 0zm4.44.8v-.13.09a.07.07 0 0 1 0 .04zm-2.49-.48l.05-.05zm-.13.27v-.07a.18.18 0 0 0 0 .07zM17 127.7c0 .06 0 .03 0 0zm7.73 2.2a.23.23 0 0 0-.06-.1c.02.07.01.2.06.1zm-6.24-2.53s0 .01 0 0zm6.08 2.36a.16.16 0 0 1 .09 0c0 .02-.02-.03-.09 0zm-12.21-2.8zm-1.36-.19zm14.51 3.67zm-.05.34zM24 130zm1.53.47zm.01-.03s.03.01 0 0zm-.07-.05zm-10.6-3.27s-.02.01 0 0z"/><path class="cls-9" d="M21.78 129.28L21.78 129.28 21.78 129.27 21.78 129.28z"/><path class="cls-9" d="M21.66 129.29c.08-.08.1-.05.13 0l.07-.24z"/><path class="cls-9" d="M17.69 127.84l.06.07c-.11.06-.17 0-.11.1.05-.18.29.06.35-.12v.05c.07.12.1-.11.22-.05s.06.06 0 .08h.26l.12-.07h.09c0 .06-.06.09-.12.07 0 .21.08 0 .21.13h-.08c0 .13.09.11.15.2s-.12-.23 0-.25 0 0 .11 0 0 .07.09.08v.09c.07 0 .08-.06.13-.09s.06.11.05.18 0-.14.09-.12.15.05.28 0 0 .05 0 .09l.08-.06s0-.09.12-.09.1.21.23.12 0 .06 0 .1a.74.74 0 0 0 .27-.09l.06.1c0-.1.08-.16.18-.2v-.1h.14s0 .05-.05.09c0 .05 0 .1-.07.15v-.08a.41.41 0 0 0-.12.17v.12l.12.13c.15-.07.31-.21.5-.19-.08.07-.06.14-.11.24 0-.13-.15 0-.23-.07s0 .07 0 .08h.19v.13c0-.18.16-.06.24-.08s-.06.11-.13.06c0 .16.19-.15.23 0s.15.06.11.09c.12.07.37.17.46 0l-.12.2.45-.41c-.08.12-.15.47-.28.49a.1.1 0 0 0 .13.06s0-.21.07-.21a1 1 0 0 0 0 .27s.11-.24.16-.21a1.92 1.92 0 0 1-.12.22l.21-.15s-.09.17-.09.24.1.06.14.05v-.07c.11.1.27-.22.4-.15 0 0-.17.25-.12.3.08-.09.39-.45.56-.47v.07h.13a5.75 5.75 0 0 1-.62.48c0 .07 0 .08.05.11s-.08.07-.11.06l.15.12c.06-.13.19-.06.24-.16h-.24c.06-.13.29-.3.4-.21s-.14.21-.16.25.16 0 .15 0L23 130c0 .08.2-.1.21.06s0 .2 0 .13a2.33 2.33 0 0 1 .35-.69 1.16 1.16 0 0 1 .07.3c0 .13-.22.22-.23.33a.2.2 0 0 1 .09-.07s-.07.09 0 .11.12.08.09-.09c.08 0 0 .06.12.1a.43.43 0 0 1 .3-.22.25.25 0 0 0 0 .09c.12.09.15.18.27.25s0 .1 0 .13.07 0 .11 0-.09 0-.11.12c0-.06.15 0 .22 0s-.1-.1-.18-.08a.46.46 0 0 1 .43-.21c.12 0 0 .12 0 .11.16.14.3-.12.38.08s-.11.16-.13.23-.08-.13-.14-.16v.08h-.12c0 .11.29.21.38.37h.1c0-.09.14 0 .11-.1s.19 0 .25.08v.09s0-.09-.05-.08 0 .2.15.13v-.1c.08 0 .21 0 .26.06v-.13c0 .15-.17-.15-.19 0 0-.15-.05-.12 0-.27 0 0 0 .07-.06 0a.12.12 0 0 1 0 .07h-.22c-.06 0 0 0 0-.07h-.08c0-.07 0-.18.09-.15l-.07-.06c0-.07-.07-.13-.12-.13h-.22c-.11-.1-.31-.06-.37-.28a.23.23 0 0 1-.16-.08v-.08c-.07 0-.12-.17-.18-.11.05-.22-.23-.21-.31-.29l-.06.09a.5.5 0 0 0-.24-.06v.09c-.11 0-.15-.16-.26-.21s0 0 .06 0c0-.26-.36 0-.41-.21a.05.05 0 0 1-.08 0v-.06a.17.17 0 0 0 0 .06h-.25v-.1l-.06.1h-.07c0-.16-.12 0-.08-.17-.06.06-.21 0-.3.12s-.06-.07-.12 0V129l-.16.11c0-.09 0-.14.06-.2-.19.08-.13 0-.29.09v-.07s-.14.05-.14 0-.43-.19-.61-.39c0 .21-.07-.12-.14 0v-.11c-.13 0-.15-.13-.28 0s0-.06 0-.09-.05 0-.06 0h.06c-.12 0-.19.1-.24.22 0-.08-.07-.08-.14 0s0-.1.05-.09-.23-.15-.27 0-.06 0-.07 0a.84.84 0 0 0-.19-.07c-.08.11-.09 0-.16 0-.14-.14-.09 0-.22-.13v.07c-.06.15-.12-.14-.24-.11v.05c-.07 0-.09-.25-.14-.28s0 .09-.16.08.06-.12 0-.15-.25.1-.33 0v.1c0 .02-.17-.19-.27-.09-.07 0-.2 0-.25.06 0-.24-.39 0-.34-.18h-.18a.19.19 0 0 0-.21 0c-.16-.07-.18-.06-.34 0v-.06s-.22-.14-.4-.1c-.2 0-.42-.22-.53 0h-.13c.16 0 0 .08 0 .13s-.15-.08-.07-.08c0-.1-.19-.07-.18-.13-.31 0-.61-.13-.91-.16v.07h-.1s0-.06 0 0-.13 0-.13 0 .07-.07 0-.08c-.05 0-.06.05-.15 0h-.13v.05h-.07c-.08-.1-.48-.07-.53-.1a.66.66 0 0 1-.26 0s0 .06 0 0-.15-.05-.22-.12-.24 0-.15.07c-.07 0 0 0-.06-.06s-.37 0-.58 0h-.11s0 .05-.12 0h-1.25c.06 0 0 0 0 0h-.37.05c-.07 0 .1 0 .1.06s.21 0 .35 0a.33.33 0 0 1 .15 0 4.41 4.41 0 0 1 .54 0h0c.06 0 .36 0 .41.07s0 0 .06 0h.08-.05a1.15 1.15 0 0 0 .21 0h-.08.99a.28.28 0 0 1 .13 0s.08 0 0 .06c.17 0 .09 0 .21-.07a.2.2 0 0 1 .13 0c-.07 0 .05.05 0 .08.18.09.28 0 .35.07.09-.08-.15-.07-.1-.08s.08-.06.13 0 .09.12.23.14h.17c.06 0 .09 0 .11-.06h-.14c.08 0 .16-.09.28 0h-.08H14.66c.07-.09.14 0 .25 0a.18.18 0 0 1 .08 0h-.06c.09 0 .15.07.23.06-.16 0 0-.06-.09-.11.21 0 .09.14.32.16 0 0-.11-.05-.06-.07a.31.31 0 0 1 .11.08c.15 0 0-.06.05-.07s.08 0 .14 0v.05c.16.06.06-.1.2 0l-.07.06H16v.06a.21.21 0 0 1 .2 0s0-.1.1-.08 0 0 .07.06-.06.07-.1 0 .13 0 .17 0h.16v.05c0 .05.06 0 .1 0s0 .09-.09.1h.15s.06.07 0 .09.21 0 .31 0 .17.12.3.08v.11c.09 0-.06-.14.1-.13s0 .09.05.12.18-.1.26 0-.06-.3-.09-.3zm1.12.28h-.08s.04-.03.07 0zm1.71.4h-.06a.08.08 0 0 1 .06 0zm4.68 1.73c-.03-.05-.02-.03 0 0zm.06.09h-.06c-.06 0 .02 0 .06.01zm-10.68-3.56s-.01.02 0 .01z"/><path class="cls-9" d="M16.99 127.69L16.99 127.69 16.98 127.7 16.99 127.69z"/><path class="cls-9" d="M23.47 130.15a.11.11 0 0 1 0-.06v.06zm2.31.45h-.06v.06c0 .06.04-.08.06-.06zm.17.74s-.02-.04 0 0zm-.28-.49c0 .06 0 .06.06.08.06-.07 0-.08-.06-.08zm.07.09s.02.01 0 0zm-.35-.55s.06-.06.06 0-.18-.04-.06 0z"/><path class="cls-9" d="M25.57 131.04L25.61 130.97 25.55 131.01 25.57 131.04z"/><path class="cls-9" d="M25.31 130.77v.06s.01-.08 0-.06zm.08.06a.07.07 0 0 0 .06 0z"/><path class="cls-9" d="M25.48 131L25.47 130.98 25.43 130.94 25.48 131z"/><path class="cls-9" d="M24.66 130.29h-.08v.06c0 .01.07-.02.08-.06zm.06.36v-.08l-.07.09zm-.21-.11s-.15 0-.06.06.1 0 .06-.06z"/><path class="cls-9" d="M23.54 129.78L23.55 129.79 23.66 129.6 23.54 129.78z"/><path class="cls-9" d="M22.36 129.73c.06.09.08-.1.13 0s0-.08 0-.11-.1-.03-.13.11zm.12-.12z"/><path class="cls-9" d="M10.76 126.75L10.7 126.75 10.74 126.75 10.76 126.75z"/><path class="cls-9" d="M10.64 126.78zm8.27 1.58z"/><path class="cls-9" d="M18.14 128.04L18.15 128.05 18.15 127.96 18.14 128.04z"/><path class="cls-9" d="M17.44 127.95h.09c-.06.05-.07-.1-.09 0z"/><path class="cls-1" d="M13 126.07s0 .01 0 0zm-4.91 4.07zm.15.33s0-.01 0 0zm2.06 1.19a.17.17 0 0 0 0-.08zm.39-6.34zm2.14 4.57s.01 0 0 0zm-3.94-2.72c.11-.02.04-.01 0 0z"/><path class="cls-1" d="M10.27 129.48L10.27 129.47 10.27 129.47 10.27 129.48z"/><path class="cls-1" d="M10.16 129.39a1.3 1.3 0 0 0 0 .19c0-.08.05-.09.09-.1zm-2.42-1.59zm1.39.41z"/><path class="cls-1" d="M9.15 128.16L9.15 128.16 9.15 128.17 9.15 128.17 9.15 128.18 9.15 128.16 9.15 128.16z"/><path class="cls-1" d="M13.25 129.1c-.07 0 0 .19 0 .29a.13.13 0 0 1-.07-.07 1.55 1.55 0 0 0 0-.62 1 1 0 0 0-.27-.62h-.1l-.77-.17H11.63a1.69 1.69 0 0 0 0-.55c-.09-.3-.59-.63-.44-.85s.81-.11 1.61-.08h.1-.06.16l-.2-.15v-.15c-.14 0-.22-.28-.45-.24s-.12 0-.22-.06l-.37-.13a3.11 3.11 0 0 0-.4-.13v.05a.44.44 0 0 1-.12 0c-.1.06.21 0 .12.1-.09-.12-.53-.06-.59-.17s0 .06-.09.05c-.08 0-.12 0-.12-.07h.07-.32.12H9.82a.42.42 0 0 0-.27.21.55.55 0 0 0 0 .33 1.47 1.47 0 0 1 .09.26.66.66 0 0 0 .07.21l.05.07a.15.15 0 0 1 0 .05.65.65 0 0 0 0 .15.48.48 0 0 1 .05.12.26.26 0 0 1 0 .18c0-.09-.07 0-.09-.05a.19.19 0 0 0 0 .15v.07l-.05-.05s0 .08.07.09h-.06a.37.37 0 0 1-.11-.1l-.06-.06h-.07c-.08 0-.17 0-.27-.05s-.17 0-.18.06h.23-.46s.06-.05.1-.07-.12 0-.2 0 .05-.07.15-.09.22 0 .31 0a.39.39 0 0 0-.19 0h-.07c.03 0-.12.06-.2.09a.37.37 0 0 0-.22.13.79.79 0 0 1-.1.1v-.09a.55.55 0 0 1-.2.13.46.46 0 0 0-.19.14c.22-.2.12 0 .26-.1l-.13.12-.12.06a.51.51 0 0 0-.25.2c0-.05.12-.11.11-.06a2.46 2.46 0 0 1-.19.18c-.14.23.09 0 .06 0h.12-.1a.1.1 0 0 0 0 .05c.21 0 .25-.07.45 0h-.27.21-.13a1.51 1.51 0 0 1 .5 0s.12-.07.26-.05-.09 0 .14.06a.23.23 0 0 1-.22 0h-.1a1 1 0 0 0 .27.05.93.93 0 0 0-.39.27H8.3c-.1.12.17 0 0 .16s-.09 0-.15.05a3.41 3.41 0 0 1-.16.47.69.69 0 0 1 0-.18v.14c0-.22.09-.34 0-.22.06 0 0 .2 0 .35s0 .28.1.28V129.38c0 .18.12.1.17.29s0 .12 0 .08v.13l.06.1.06.1.13.09c0 .06 0 0 0 0l.09.09c0 .06-.09 0-.13-.09-.05.17.08.07.16.33l-.08-.09a.21.21 0 0 0 0 .14v.08s.06.1.07.12a.2.2 0 0 0 0-.07v-.06c0-.06 0-.1.06 0a.24.24 0 0 0 0 .07.24.24 0 0 0 .09.06s0 .08.09.13c.08.05.1 0 .16 0a.17.17 0 0 1 0 .18c.12.12 0-.14.12 0l.07.07.09.07.13.08.14.07c.11.11 0 0 0 .08h.03s0-.07.12 0 .07 0 .16.1a.26.26 0 0 0 .22.06v.06a.18.18 0 0 0 .13-.11.32.32 0 0 0 0-.19v-.09c0 .06-.11-.12-.2-.26v-.08a.29.29 0 0 1 .09.08.88.88 0 0 0 .16.17v-.08-.08h.07v-.31l-.12-.16-.1-.11a.93.93 0 0 1-.18-.28h.15c.07 0 .08.18.11.31 0-.07 0-.06 0 0l-.13-.21v-.12c0-.06-.11-.15-.16-.24s.07 0 .09.12c0-.13-.15-.14-.1-.27s0-.21 0-.17a.75.75 0 0 1 .07-.27c0-.09.11-.16.09-.21l.05.11a.29.29 0 0 1 0-.06 1.33 1.33 0 0 1 0-.14v-.08h.1c0 .07.1.14 0 .21a.36.36 0 0 0 .16-.08s-.11-.07-.07-.09a1.41 1.41 0 0 0 .24 0v-.14.13l.07-.08.08-.07s0 .09.06.12.08 0 .11 0H11a.19.19 0 0 1 .18.08s-.15.05-.09.14h.24l.16.17-.34-.09c0 .08 0 0 .07.13s-.08 0-.1 0l.17.22c0-.06.19.11.23.06l-.25-.17c0-.05.26 0 .38.15s-.11.05-.13.07a.37.37 0 0 1 .16.13h-.08c.06.1.18.06.24.22s.1.22.13.19a.33.33 0 0 1 .06-.27l.1.11h.15a.12.12 0 0 1 0 .09s-.07.09 0 .11a.37.37 0 0 1 .07-.08c.06 0 0 .07.12 0s.23-.12 0-.08c.09-.07.11 0 .21-.12s0-.08 0-.16l.1-.1a1.88 1.88 0 0 0 .17-.2.71.71 0 0 0 .12-.22s.08-.1.09 0a.64.64 0 0 1 0-.12c.08-.1 0 .14.07.07s.03-.06.02-.15zm-3.1 2.19a.31.31 0 0 1 0-.12.14.14 0 0 1 .01.12zm-.93-3zm-.06.13zm-.16-.27zm.11 0v.07zm0 .05v-.06.06zm0-.07zm-.29.14zm-.41 2.51c.07 0 .06 0 .08.1s-.04-.03-.03-.07zm1.89.78s-.01.02 0 0z"/><path class="cls-1" d="M8.81 128.34L8.82 128.33 8.82 128.32 8.81 128.34z"/><path class="cls-1" d="M12.37 130.42h-.08s.02.03.08 0z"/><path class="cls-1" d="M12.48 128.02L12.38 127.98 12.4 128 12.48 128.02z"/><path class="cls-1" d="M13.26 128.64a.11.11 0 0 1 0 .06h.06zm.03.36s0 .19 0 0 .02-.11 0 0zm-2.29.36h.06c.06 0 0-.09 0-.08s-.06.02-.06.08zm.05-.03z"/><path class="cls-1" d="M12.77 126.43L12.75 126.38 12.71 126.37 12.77 126.43z"/><path class="cls-1" d="M12.86 126.46h.07zm-4.22 4.75v-.07z"/><path class="cls-1" d="M7.99 130.07L8.03 130.01 7.98 130.05 7.99 130.07z"/><path class="cls-1" d="M8.11 128.75a1.1 1.1 0 0 0-.11.14c.07-.11.17-.1.11-.14zm26.52-.12a.39.39 0 0 1 0-.13v-.13a.42.42 0 0 0 0-.14s0-.05-.06-.07 0-.06 0-.11a.13.13 0 0 0-.05-.08h-.82a.15.15 0 0 0-.09 0h-.51l-.1.03H31.59s-.1 0-.12.06a.24.24 0 0 0-.05.09s0 .13-.05.13 0 .09 0 .13a.19.19 0 0 0 0 .07.4.4 0 0 1 0 .09v.07c0 .07.07.15.08.17s0 .08.06.09 0 0 0 .07 0 0 .07 0h.1c.04 0 .44-.07.44-.09h1.12c.08 0 0 .15 0 .15a.25.25 0 0 1-.06.14l-.08.07-.07.06-.12.06-.14.06s-.06 0-.11.05h-.14a1.07 1.07 0 0 0-.26 0h-.51a1.17 1.17 0 0 0-.18 0h-.14a1.08 1.08 0 0 0-.16-.05h-.24l-.19-.06h-.14c-.06 0-.12 0-.14-.06a.12.12 0 0 0 0-.05.42.42 0 0 1-.07-.19v-.24a.42.42 0 0 1 0-.13v-.07-.07a.09.09 0 0 1 0-.06v-.07-.06c0-.01.06 0 .06-.08a.15.15 0 0 0 .05-.09s.07-.06.07-.1a.08.08 0 0 0 0-.06v-.06l.33.03a.17.17 0 0 1 .06-.09s.06-.07.09-.1.05 0 .05-.06.07-.06.09-.08 0-.05.07-.07.08-.09.1-.11.06 0 .08-.07l.09-.09a.21.21 0 0 1 .1-.08.44.44 0 0 1 .27-.25l.08-.08h.15a.11.11 0 0 1 .07-.05.38.38 0 0 0 .09-.06H32.84c.04 0 .05 0 .08.05s.1.09.1.13a.42.42 0 0 1 .06.11s0 .12.06.12a.11.11 0 0 0 0 .08v.07c0 .07 0 0 0 0h.09a1.51 1.51 0 0 0 .16 0s.15 0 .18-.07l.08-.08a1.14 1.14 0 0 1 0-.12.78.78 0 0 0 0-.11v-.12s0-.14-.06-.14 0-.14 0-.21 0-.1-.06-.11a.39.39 0 0 0-.12-.16 1.48 1.48 0 0 0-.22-.19h-.18a1.39 1.39 0 0 1-.19 0H32.22 32.07s-.1 0-.13.08A.17.17 0 0 0 32 126l-.06.06c-.06.06-.08 0-.11.07a.12.12 0 0 1-.06 0c-.06.07-.3.26-.31.28h-.08-.06c-.06 0-.23.24-.28.27a.18.18 0 0 0-.07.05s-.08.05-.08.08 0 0-.06.06a.22.22 0 0 0-.07.11s-.1.14-.12.16l-.06.06-.08.09v.06c0 .06 0 .05-.06.07s-.06 0-.06.08 0 .09-.09.12-.07.1-.07.15-.05.15-.05.17v1.31a.8.8 0 0 0 0 .15v.19c0 .07 0 0 .05 0s.05.06.08.06a.73.73 0 0 0 .09.09l.1.06s.1.06.14.06H30.8a.36.36 0 0 1 .13.05h.37s.46.06.46 0a1.18 1.18 0 0 1 .16 0h.63a1.35 1.35 0 0 1 .16 0h.54c.03 0 0 .1 0 .13a2.1 2.1 0 0 1 0 .22V130.96c0 .03.06.07.1.1h.14a.15.15 0 0 0 .07 0s.39-.16.43-.17.07-.1.07-.18v-.21-.23a.5.5 0 0 0 0-.13.39.39 0 0 1 0-.1v-.07-.1-.15-.07a.6.6 0 0 0 0-.16.89.89 0 0 1 0-.1v-.11-.09-.18a.66.66 0 0 1 .05-.13v-.15-.07-.08a.15.15 0 0 1 0-.06.13.13 0 0 1 0-.06.11.11 0 0 0 0-.06v-.08a.36.36 0 0 0 0-.17.72.72 0 0 1 .52.48zm7.32-1.54a.22.22 0 0 0 .1 0s.06 0 .06-.09v-.06-.08-.07a.82.82 0 0 0 0-.12s0-.11-.07-.11a.88.88 0 0 0 0-.13v-.06-.06a.18.18 0 0 1-.06-.09.38.38 0 0 1-.07-.09H40.93a.84.84 0 0 1-.16 0h-.08a.16.16 0 0 0-.08 0s-.19 0-.19.06l-.45.1h-.29a.78.78 0 0 0-.21.06c-.07 0-.12.08-.2.09a.57.57 0 0 0-.16 0 .34.34 0 0 0-.13.09s-.06.07-.09.09a.35.35 0 0 1 0 .08.77.77 0 0 1 0 .12 1 1 0 0 0 0 .2.52.52 0 0 0 0 .22.23.23 0 0 0 .06.07s0 .05.06.08 0 0 0 .06a.19.19 0 0 1 .08.19v.14s0 .1-.06.17 0 .06 0 .07a.08.08 0 0 1 0 .06c0 .07 0 .1-.05.17a1.47 1.47 0 0 0-.08.32v.2a1.39 1.39 0 0 1 0 .17.63.63 0 0 0 0 .15v.48c0 .05 0 .1.06.12s.06 0 .06.08.06 0 .06 0v.06c0 .06.06 0 .07.05a.14.14 0 0 1 .07 0h.08a.13.13 0 0 0 .07 0s.11.06.13.06.16 0 .16.06h.12a.46.46 0 0 1 .15 0H40.34a.18.18 0 0 0 .1 0 1.64 1.64 0 0 0 .45-.12s.16-.09.16-.15v-.07a.46.46 0 0 1 0-.14.52.52 0 0 1 0-.14v-.1-.06-.15a.61.61 0 0 0-.11-.23s-.09-.14-.12-.16a.1.1 0 0 0-.07 0h-.14s-.11.06-.11.08-.11 0-.11 0H39.82s-.14 0-.14-.06h-.06-.07c-.07 0-.07-.09-.05-.17s0-.06 0-.09.06-.05.06-.07a.11.11 0 0 1 .07 0h1.53a.49.49 0 0 0 .14 0H41.58a.1.1 0 0 0 .09-.1.53.53 0 0 0-.05-.19v-.15-.1-.14a.79.79 0 0 0-.06-.13v-.09a.14.14 0 0 0 0-.07s-.09-.07-.13-.07h-.19c-.05 0-.16 0-.18.06H40.48a.71.71 0 0 1-.23 0h-.18v-.22a.42.42 0 0 1 0-.11.14.14 0 0 0 .06-.07l.12-.08H42c.04 0-.06.21-.06.19zm3.86-.37l-.06-.11a.12.12 0 0 1 0-.05.31.31 0 0 1-.11-.2 1.06 1.06 0 0 1-.11-.1h-.06c-.06 0 0 0 0 0h-.15a1.45 1.45 0 0 0-.29 0h-1.21a.45.45 0 0 1-.12 0h-.46l-.22.1-.08.05-.07.05a.54.54 0 0 0 0 .12 1.69 1.69 0 0 1 0 .23.63.63 0 0 1-.06.17.4.4 0 0 1 0 .09.56.56 0 0 1 0 .14V127.51s-.07.11-.07.16a1 1 0 0 0 0 .15v.18a.89.89 0 0 1 0 .16v.47c0 .03-.05.21-.06.32s0 .14 0 .21a.42.42 0 0 0 0 .17v.19a.58.58 0 0 1 0 .16s.06 0 .08.07a.19.19 0 0 1 0 .08s0 .13.08.13 0 0 0 .07l.06.06v.06c0 .06.05.06.08.06H43.57a.16.16 0 0 0 .14 0 .09.09 0 0 1 .08 0 .13.13 0 0 0 .09 0h.34l.4-.05h.1s.12 0 .13-.05.12 0 .15-.1.08-.09.09-.14v-.06-.13a.35.35 0 0 0 0-.13s0-.23-.05-.25 0-.09-.05-.11 0 0 0-.07v-.05l-.06-.06a.13.13 0 0 1 0-.06c-.06 0-.07-.08-.14-.07h-.13-.07c-.07 0 0 .06-.07.06h-.11-.15-.12a.8.8 0 0 1-.37 0h-.35c-.02 0-.06-.06-.07-.11a.27.27 0 0 1 0-.14s.06 0 .07-.09h.81a3.46 3.46 0 0 0 .54-.08h.36c.07 0 .09 0 .16-.05h.16s.12 0 .12-.07a.15.15 0 0 0 .06-.11V128v-.15a.07.07 0 0 1 0-.06s0-.12-.07-.12a.27.27 0 0 0-.08-.16v-.06h-.64a.73.73 0 0 1-.16 0 1.55 1.55 0 0 1-.32.06H44.07s-.05 0-.09-.06 0-.08 0-.11a.15.15 0 0 0 0-.06.22.22 0 0 0 .06-.11v-.08l.06-.05.05-.06a.12.12 0 0 0 .07 0H44.43a2.34 2.34 0 0 1 .39-.06h.76s.3-.06.34-.05a.94.94 0 0 0 .23 0h.07a.56.56 0 0 0-.42-.14zm10.6 2.28a19.63 19.63 0 0 0 .06-.14v-.09-.37a.62.62 0 0 0 0-.13s0-.1-.06-.16 0-.07 0-.07-.06-.07-.09-.09a.39.39 0 0 0-.15 0s-.06 0-.08.06h-.07-.07l-.13.06a.47.47 0 0 0-.11 0H55.42h-.23a1.07 1.07 0 0 1-.28 0h-.21a.1.1 0 0 1-.07 0h-.06V128v-.07c0-.01 0-.06.06-.08a.14.14 0 0 1 0-.07l.06-.08c.06-.08 0 0 .06 0H55.35a.53.53 0 0 0 .15 0h.92a1.4 1.4 0 0 0 .3-.05h.36l.11-.06.07-.06a.23.23 0 0 0 0-.12v-.17c0-.01 0-.3-.06-.3s0-.14-.05-.17a1.4 1.4 0 0 0-.1-.25L57 126h-.53c-.02 0-.37.09-.37.11s-.91.21-.91.23-.25.07-.31.07a.88.88 0 0 1-.21 0h-.32s-.12 0-.12.11 0 0-.05.07 0 0 0 .06v.14c0 .06 0 0 0 0s0 .09-.06.16a.48.48 0 0 0 0 .12.31.31 0 0 0 0 .11v.06c0 .01 0 .06-.06.08s0 0 0 .06 0 .06-.05.07-.05.07-.07.09 0 0-.05.06-.07-.11-.05-.17 0-.2 0-.2v-.12-.09-.18-.11a.71.71 0 0 0 0-.11v-.05a.13.13 0 0 1 0-.09s0-.11-.09-.13-.05-.07-.08-.08-.06-.05-.06-.07-.11 0-.11 0h-.2l-.3-.06h-.17L52 126h-1a4.31 4.31 0 0 0-.83.07.92.92 0 0 1-.22 0s-.15 0-.16.06-.06.06-.07.08a2.44 2.44 0 0 1-.26.07l-.1.1c-.03.03 0 0 0 .08a.11.11 0 0 0 0 .05l-.06.05c-.06.05-.1-.08-.1-.12v-.1c0-.03 0 0 0 0a.25.25 0 0 0-.18-.09h-.18a.38.38 0 0 0-.17.1.18.18 0 0 0-.05.11v.36a.33.33 0 0 0 0 .15v.25a.91.91 0 0 0 0 .21.88.88 0 0 0 0 .22V128.11a1.48 1.48 0 0 1 0 .23v.13c0 .05 0 0 0 0v.11c0 .04 0 0 0 0h-.05c-.05 0-.08-.09-.13-.13s-.07-.09-.09-.11a.13.13 0 0 0 0-.07s-.08-.08-.1-.11a.14.14 0 0 0 0-.07s-.05-.08-.08-.09-.11-.11-.13-.17 0-.06 0-.09 0-.06-.06-.07v-.06a.11.11 0 0 0 0-.08v-.08-.07a.29.29 0 0 0 0-.11.61.61 0 0 1 0-.21v-.21-.2-.09-.24s0-.08-.06-.08a.08.08 0 0 0-.06 0h-.1s-.07 0-.11-.06h-.49l-.07.06h-.05c-.05 0-.08.14-.08.14v.39a.39.39 0 0 1 0 .08v.08a.38.38 0 0 0 0 .21v.38a1 1 0 0 1 0 .1v.15a1.28 1.28 0 0 1 0 .14.54.54 0 0 0 0 .15.51.51 0 0 1 0 .15v.15a1.07 1.07 0 0 0 0 .23 1.81 1.81 0 0 1-.05.21v.32a3.09 3.09 0 0 1-.06.31 1.94 1.94 0 0 1 0 .28v.35a.3.3 0 0 1 0 .1.28.28 0 0 0 0 .09.48.48 0 0 1 0 .13.62.62 0 0 0 0 .1v.26c0 .03 0 0 0 0h.07c.07 0 .18 0 .18.05h.37c.09 0 .09-.07.14-.09a.45.45 0 0 1 0-.1v-.07-.12a.49.49 0 0 0 0-.14v-.15-.24a.77.77 0 0 0 0-.15v-.16a.32.32 0 0 1 0-.09v-.21a1.94 1.94 0 0 0 .06-.24v-.11-.05c0-.05 0 0 0 0a.06.06 0 0 1 .06 0s.06.08.09.09.06.05.06.09v.06a.23.23 0 0 0 0 .09s0 .07.06.1a.1.1 0 0 1 0 .07v.14a.2.2 0 0 1 .05.07l.06.07c.06.07 0 .05 0 .08s0 .09.06.1 0 .06 0 .07v.09a.45.45 0 0 1 0 .09v.54a.27.27 0 0 1 0 .1v.09a.08.08 0 0 0 0 .05l.08.09.08.08a.57.57 0 0 0 .17 0H48.92v-.08V130.78v-.15a1.32 1.32 0 0 0 0-.24v-.15-.07-.26-.15a1.38 1.38 0 0 1 0-.24 1.56 1.56 0 0 0 0-.27 1.59 1.59 0 0 1 0-.16v-.13-.12a1.18 1.18 0 0 1 0-.14v-.13-.15a.42.42 0 0 1 0-.09 1.29 1.29 0 0 0 0-.29v-.14a.47.47 0 0 0 0-.08v-.2c0-.07-.08-.09-.06-.17a.38.38 0 0 0 0-.1.12.12 0 0 1 0-.09h.1a.6.6 0 0 0 .1.1h.5a.1.1 0 0 0 .08 0h.06s.09-.06.13-.06H50a.31.31 0 0 0 .13 0 .17.17 0 0 1 .09 0h.08l.06.07v.33a.59.59 0 0 1 0 .16v.11a.21.21 0 0 0-.05.05h-.3L50 128v.1s-.09.49-.08.49v.11a.17.17 0 0 0 .06.12s0 .06.06.06v.07s.05.05.07.08.06 0 .08.07 0 0 .08 0h.1a1.79 1.79 0 0 1 0 .26v.52a1.32 1.32 0 0 0 0 .24v.37s0 .15.05.16a.27.27 0 0 0 .13.13h.13a.26.26 0 0 0 .08 0H51.11a.3.3 0 0 1 .06-.05v-.07-.3a.42.42 0 0 1 0-.09.23.23 0 0 0 0-.1 1.17 1.17 0 0 1 0-.22v-.26-.16-.24-.14-.22a.64.64 0 0 1 0-.1h.06l.26-.06s.09 0 .09-.05h.71c.06 0 .54-.43.57-.43H53v.21a.78.78 0 0 0 0 .14s0 .11-.06.11a.16.16 0 0 1 0 .06v.34s-.05.16 0 .16 0 .11 0 .17a.63.63 0 0 1 0 .16v.09a.74.74 0 0 1 0 .14.58.58 0 0 0 0 .18.33.33 0 0 0 0 .13 1.38 1.38 0 0 1 0 .19v.21a.13.13 0 0 0 0 .06v.07c0 .07 0 0 0 0s0 .06.07.09.06.13.12.13.06.05.09.08 0 .05.08.05a.14.14 0 0 0 .08.05H53.83a1 1 0 0 0 .15 0h.4a1.82 1.82 0 0 0 .26 0 .41.41 0 0 0 .15 0 .66.66 0 0 1 .12 0s.14 0 .14-.07.12 0 .13-.06.08 0 .09-.05a.13.13 0 0 0 .07 0s.1-.08.1-.11 0-.07.06-.11a1.23 1.23 0 0 1 0-.14v-.19-.27-.14-.09c0-.01 0 0-.05-.06s-.07-.08-.12-.08h-.88a.79.79 0 0 1-.28 0 .73.73 0 0 1-.19 0h-.13a.12.12 0 0 0-.08-.05l-.05-.06s-.05-.08-.06-.08a.65.65 0 0 1 0-.1l.06-.08h.06c.06 0 .09-.05.15-.05h.22c.08 0 1.06-.15 1.11-.15l.45-.07H56.06s.33-.1.35-.1zm-4-1.73a.25.25 0 0 1-.09.14h-.06a.16.16 0 0 1-.08.05h-.13a.22.22 0 0 1-.12.07.53.53 0 0 1-.15 0h-.11a.17.17 0 0 1-.11 0v-.12-.16-.09-.08-.08c0-.08 0-.1.06-.11H52.44c.04 0 .13 0 .15.07s-.13.31-.16.31zm16.46-.51v-.09a.24.24 0 0 0 0-.09s0-.07-.06-.11 0-.08-.06-.08 0 0 0-.06l-.09-.09v-.06c0-.06-.05 0-.07-.06h-.07a.26.26 0 0 0-.13 0 .77.77 0 0 1-.18 0s-.11 0-.11.06l-.33.07h-.14s-.35.07-.42.07h-.38a1 1 0 0 1-.24 0c-.1 0-.19 0-.28.05l-.56.09-.54.08h-.52a.09.09 0 0 0-.08 0s-.05 0-.07.07-.05.05-.07.07 0 .09 0 .12-.06.1-.06.13V127.23a.29.29 0 0 1 0 .15v.26c0 .04-.06.11-.06.14a.18.18 0 0 0 0 .06v.05a.67.67 0 0 0-.06.16.57.57 0 0 0-.06.16v.13a.43.43 0 0 0 0 .14V129.17s-.08.11-.13.07 0 0-.05 0h-.07a.11.11 0 0 0-.06 0s-.08 0-.1.07a.24.24 0 0 1-.1.06h-.06c-.06 0 0 0 0 0H63.37a.86.86 0 0 1-.2 0 .82.82 0 0 1-.17 0 .45.45 0 0 1-.15 0h-.15s-.11 0-.11-.05-.07 0-.11 0-.11 0-.11-.06 0 0-.08 0a.08.08 0 0 0-.05 0s0-.05-.07-.05-.13-.09-.15-.12-.06 0-.08-.06 0 0-.07 0 0 0-.08-.05-.06 0-.06-.07v-.12-.15a.39.39 0 0 0 0-.1.21.21 0 0 1 .05-.07v-.05c0-.05 0 0 .06-.06a.15.15 0 0 1 0-.08.16.16 0 0 1 .06-.07.21.21 0 0 1 .07-.09v-.07c0-.07 0 0 .06-.07a.19.19 0 0 1 .09-.09l.08-.07s.06 0 .06-.07a.24.24 0 0 1 .1-.06l.09-.08h.13l.09-.06c.09-.06.09 0 .09 0H63.17v.1a.23.23 0 0 1 0 .12.88.88 0 0 0 0 .21v.21a.27.27 0 0 0 0 .16.1.1 0 0 1 .06 0h.22c.02 0 0 0 0 0h.3s.05 0 .09-.06a.09.09 0 0 1 0-.06v-.06-.05c0-.05 0-.07.06-.11s0-.16.06-.16 0 0 0-.07v-.08-.21a1 1 0 0 0 0-.18v-.17-.11a.24.24 0 0 0 0-.11s0-.09-.08-.12-.05 0-.05-.07a.37.37 0 0 1-.07-.07s-.06 0-.08-.07-.05-.07-.09-.08h-.07a.31.31 0 0 0-.12 0h-.17a1.22 1.22 0 0 0-.33 0h-.26l-.31.08H61.99a1.2 1.2 0 0 1-.13 0s-.11.07-.15.07-.06 0-.09.05-.07 0-.08 0L61 127h-.07s0 .05-.07.05a.5.5 0 0 1-.15.1h-.06l-.07.05h-.06v.05c0 .05-.09.09-.1.11s0 .07-.09.07a.1.1 0 0 0 0 .05.13.13 0 0 0 0 .08v.09c0 .04 0 .08-.06.09s0 .05 0 .05 0 .09-.07.09-.07-.11-.07-.15v-.07-.09-.16a1.17 1.17 0 0 1 0-.17v-.14-.17a1.45 1.45 0 0 0 0-.27v-.06a.1.1 0 0 0 0-.07l-.05-.08c-.05-.08 0 0 0-.06a.17.17 0 0 0-.05-.08v-.07a2.16 2.16 0 0 1-.17-.24s0-.06-.07-.06-.08-.06-.12-.08H59c-.06 0-.2-.05-.24 0s0 0-.07 0 0 .05-.06.05a.4.4 0 0 1-.09.08l-.07.07-.07.07-.07.07s-.1.1-.12.14a.21.21 0 0 0 0 .08s0 .09-.08.11a.09.09 0 0 1 0 .06.09.09 0 0 1 0 .05c0 .08-.09.11-.11.19s0 .06 0 .06V127.48a.1.1 0 0 1 0 .07c0 .05 0 .07-.06.12s0 .07 0 .1a.28.28 0 0 0-.06.11v.09a.25.25 0 0 1-.07.11s-.06.07-.08.07h-.06c-.06 0-.06.05-.08.08a.8.8 0 0 1 0 .11.47.47 0 0 0 0 .11v.08c0 .03 0 .15-.06.15s0 .07 0 .07v.07c0 .02 0 .11-.05.11s-.05.1-.07.16a.21.21 0 0 0-.07.11.18.18 0 0 0-.06.08.12.12 0 0 0 0 .06l-.06.06c-.06.06 0 0 0 0s-.06.1-.08.16 0 .13-.06.19 0 .1 0 .12v.06a1.79 1.79 0 0 0 0 .2s0 .13.07.15 0 0 .06.06a3.22 3.22 0 0 1 .38.19h.13l.1-.09c0-.05 0-.08.06-.14s0 0 0-.06.08-.21.1-.21a.52.52 0 0 1 0-.08v-.06-.06-.06-.06c0-.06 0-.08.05-.09l.1-.11H59.31a.17.17 0 0 1 .11.14 1.4 1.4 0 0 1 0 .25 1.1 1.1 0 0 0 0 .22 1.43 1.43 0 0 0 0 .34c0 .06 0 .18.06.21s0 0 0 .08a.29.29 0 0 1 .07.08.21.21 0 0 0 .13.05h.1a.18.18 0 0 0 .08 0h.1c.02 0 0 0 0 0a.23.23 0 0 0 .08-.06.3.3 0 0 0 .07-.12.88.88 0 0 0 0-.1v-.09-.19-.31-.26-.3a.54.54 0 0 0 0-.15H60l.05.06v.06c0 .06 0 0 0 0s.06.1.11.14a.34.34 0 0 0 .11.14v.05c0 .05.1.08.15.13s.1.08.15.11.06 0 .09.07.05 0 .06.05h.07a.16.16 0 0 0 .08.05.26.26 0 0 1 .08.06h.06a.09.09 0 0 0 .06 0s.06 0 .07.05h.15s.06.05.09.05H62.39a2.25 2.25 0 0 0 .25 0H63.21c.05 0 .09-.06.12-.1l.09-.08s0-.06.06-.08a.12.12 0 0 0 0-.06.68.68 0 0 0 .06-.1.22.22 0 0 0 .05-.11v-.08-.07c0-.07 0-.11.09-.11h.06l.05.06a.13.13 0 0 0 0 .06s.06.07.08.07 0 0 0 .06l.09.08h.08a.16.16 0 0 0 .07 0c0 .05.31.12.33.12a.67.67 0 0 0 .19 0h.19a5.88 5.88 0 0 0 1.08-.14 2.35 2.35 0 0 0 .32-.13c.05 0 .13-.26.13-.28a3.87 3.87 0 0 0 0-.49.12.12 0 0 0-.09-.09.16.16 0 0 0-.06-.07s-.12-.12-.08-.17.06 0 .06 0h.09a.43.43 0 0 1 .14 0s.12-.08.13-.11.06-.11.09-.13a.08.08 0 0 0 0-.06v-.2-.14-.09-.1c0-.02-.21-.34-.21-.36s0-.05-.06-.05H64.76a.14.14 0 0 1-.05-.14s.1-.16.1-.19v-.08l.12-.09.07-.05a3.57 3.57 0 0 1 .47-.07h.99a.3.3 0 0 0 .11 0 .23.23 0 0 1 .11 0H67.04a.55.55 0 0 1 .16 0h.06a.25.25 0 0 0 .09 0h.96a.14.14 0 0 0 .11 0 .08.08 0 0 0 0-.09 2.48 2.48 0 0 0 .47.1zm-10 1.22v.17c0 .06 0 0 0 0s0 .06-.06.07a.16.16 0 0 1-.13 0h-.26v-.18c0-.06 0 0 0 0v-.06a.19.19 0 0 1 .06-.1v-.1-.09-.07a.72.72 0 0 0 0-.08l.06-.11s.07-.06.1 0 0 .09.05.13a2.12 2.12 0 0 0 0 .24 1.19 1.19 0 0 1 .23.2zm6.59 1.53H65.91a.36.36 0 0 0 .1 0h.09a.11.11 0 0 1 .08 0 .08.08 0 0 1 0 .07.11.11 0 0 1 0 .06l-.53.07a3.59 3.59 0 0 1-.6.07h-.07-.19s-.16-.08-.14-.13a.16.16 0 0 1 .2-.11h.11c.02 0 0 0 0 0zm-27.2.24h-.06s0-.06-.06-.06v-.06c-.07 0-.08-.1-.14-.12h-.14l-.06-.06H37.65s-.06-.09-.09-.09h-.07l-.07-.07a.83.83 0 0 0-.07-.09s-.07-.05-.07-.08v-.08a.18.18 0 0 1 0-.05.09.09 0 0 0 0-.07.6.6 0 0 0 .13-.13.25.25 0 0 1 .06-.07v-.07s0-.05.05-.08.05-.07.05-.12v-.14-.11-.06-.08a.4.4 0 0 1 0-.09.18.18 0 0 0 0-.06v-.09-.15-.08-.12-.15a.33.33 0 0 1 0-.11v-.09-.06c0-.06 0-.14-.06-.14s-.05 0-.05-.08a.81.81 0 0 1-.12-.21v-.06c0-.06-.08-.07-.08-.1s0-.07-.08-.07a.18.18 0 0 0-.1-.07c-.05 0 0 0-.07-.07a.14.14 0 0 0-.1 0h-.14-1.08a.2.2 0 0 0-.12.06.14.14 0 0 1-.07.05s-.06 0-.06.08-.08.16-.12.23a.3.3 0 0 0 0 .19.71.71 0 0 0 0 .2.4.4 0 0 1 0 .09v.12a.09.09 0 0 0 0 .06.29.29 0 0 0 .06.09l.05.07c.05.07 0 .08 0 .08v.34s-.07.15-.08.25a1 1 0 0 0 0 .1v.07h-.06-.13c-.01 0-.06 0-.06.06v.09c0 .02-.05 0-.06.06s0 .08 0 .13a.46.46 0 0 0 0 .12 1.19 1.19 0 0 0 0 .13.49.49 0 0 0 0 .13v.06c0 .06 0 .06.05.09L35 129v.12a2.49 2.49 0 0 0 0 .25v.25a1.06 1.06 0 0 1 0 .18 2.13 2.13 0 0 1 0 .23v.25a1.13 1.13 0 0 1 0 .14.17.17 0 0 1 0 .06.21.21 0 0 1 0 .06s0 .05.06.07 0 0 .05.06.09.12.17.14.19 0 .19 0h.07a.17.17 0 0 0 .14 0 .16.16 0 0 1 0-.08v-.06-.07-.08a1.64 1.64 0 0 0 0-.21v-.19-.13-.1a.62.62 0 0 0 0-.13.2.2 0 0 1 0-.11.93.93 0 0 0 0-.17s.07-.12.07-.14 0-.06.07-.06h.08c.08 0 .05.08.09.08s.06.06.08.08 0 0 .07 0h.06s.1.06.13.11.07 0 .08.06a.2.2 0 0 0 .08.06l.06.06.08.07s.05.07.08.07a.34.34 0 0 0 .07.08l.06.06c.06.06 0 .05.06.07s.06.08.09.08.05.05.06.08l.09.09s.06 0 .08.07.05.06.09.06h.39a.19.19 0 0 0 .14-.09h.06v-.08s.05 0 .05-.08.07-.05.07-.08a.16.16 0 0 0 .06-.14v-.28zm-1.38-2.45a1 1 0 0 0 0 .09.22.22 0 0 0 0 .07.15.15 0 0 0 0 .07v.05a.23.23 0 0 1-.07.09s-.06.09-.09.09a.19.19 0 0 0-.07 0h-.11v-.07-.22a.67.67 0 0 0 0-.08v-.11-.09-.12a.45.45 0 0 0 0-.17.42.42 0 0 1 0-.16.22.22 0 0 1 .07-.11h.16l.13.06s.07 0 .09.08 0 0 .06.05a.16.16 0 0 0 0 .06.37.37 0 0 1 0 .11s-.1.31-.13.31z"/></g></g></svg>