<svg xmlns="http://www.w3.org/2000/svg" viewBox="0 0 845.49 73.03"><defs><style>.cls-1{fill:#7fbe26;}.cls-2{fill:#fff;}</style></defs><g id="圖層_2" data-name="圖層 2"><g id="Back"><rect class="cls-1" width="845.49" height="73.03"/><path class="cls-2" d="M31.72,24a28.4,28.4,0,0,1-.55,3.27A6.9,6.9,0,0,0,30,27a23.55,23.55,0,0,0,.51-3.18Zm2.47-.82-.16-.6a14.4,14.4,0,0,0-3.49.72,11.51,11.51,0,0,0-.47-1.4c.33-.09.64-.4,1.08-.94A13.14,13.14,0,0,0,32,19.8a6.55,6.55,0,0,0-1.58.3c-.09-.3-.33-1-.48-1.4.25-.07.46-.33.73-.74a15.57,15.57,0,0,0,1.51-3.38l1.47.58a19.16,19.16,0,0,1-1.75,3.33l1-.07a20.77,20.77,0,0,0,1-1.94l1.32.81a27.77,27.77,0,0,1-2.9,4.31l1.36-.18c-.11-.38-.24-.74-.37-1.08l1-.32a24.77,24.77,0,0,1,.95,2.77Zm-1,.47a22.51,22.51,0,0,1,.37,2.88l-1.2.31A20.61,20.61,0,0,0,32,24ZM38,24.94c-.81.58-1.73,1.19-2.49,1.68L35,26l-.75.28a20.83,20.83,0,0,0-.73-2.61l1-.36c.22.6.46,1.28.63,1.89.66-.4,1.46-.91,2.27-1.43ZM39.79,21v5.06c0,.73-.13,1.11-.62,1.33a4.22,4.22,0,0,1-2,.25,5.74,5.74,0,0,0-.48-1.41H38c.19,0,.23,0,.23-.21V21H34.9V19.56h4.6l.15-.69H35.57a44,44,0,0,0,1.1-4.3l1.55.15c-.06.26-.13.54-.2.83h2.41l.26-.05,1.13.15c-.18,1.23-.48,2.67-.76,3.91h2.06V21Zm-3.14,2.78a13.25,13.25,0,0,0-1.4-1.85l1.09-.74A12.3,12.3,0,0,1,37.8,23Zm3.27-6.18.15-.8H37.72l-.2.8Zm.88,6.11a24.53,24.53,0,0,1,2.38,1.79l-.9,1.16a24.65,24.65,0,0,0-2.34-1.92Zm-.69-.79a14.78,14.78,0,0,0,1.57-1.8l1.19.81a20,20,0,0,1-1.78,1.72Z"/><path class="cls-2" d="M53.82,25.89c1.34,0,1.55-.31,1.73-2.05a5.75,5.75,0,0,0,1.57.59c-.29,2.3-.86,3-3.22,3H49.11c-2.6,0-3.4-.5-3.4-2.51V19.78c-.28.23-.56.44-.83.62a8.17,8.17,0,0,0-.9-1.58,12.25,12.25,0,0,0,4.29-4.35l1.51.58-.35.6h3.22l.33-.08,1.06.79a17,17,0,0,1-1.72,2.09h3.42v5.27H54.1v-.48H47.32v1.65c0,.86.24,1,1.76,1Zm-5.45-8.76a16.56,16.56,0,0,1-1.18,1.32h3.14a10.85,10.85,0,0,0,1.18-1.32Zm-1,4.53h2.6V20h-2.6ZM54.1,20H51.55v1.67H54.1Z"/><path class="cls-2" d="M62.42,20.51c.56.56,1.83,2,2.13,2.41l-.95,1.39a19.86,19.86,0,0,0-1.18-1.84v5.17H60.74v-5a12.49,12.49,0,0,1-2,3.35,7.19,7.19,0,0,0-.84-1.57,12.67,12.67,0,0,0,2.4-4.16H58.25V18.73h2.49V16.91c-.68.11-1.36.21-2,.29a6.09,6.09,0,0,0-.45-1.3,25.15,25.15,0,0,0,5.14-1.2L64.51,16a18.23,18.23,0,0,1-2.09.59v2.14h2v1.54h-2Zm8-4.62v11H68.7v-1H66.46V27H64.82V15.89ZM68.7,24.28v-6.8H66.46v6.8Z"/><path class="cls-2" d="M85,23H79.46v4.63H77.73V23H72.28V21.34h5.45V17.09H73V15.44H84.16v1.65h-4.7v4.25H85Zm-9.58-5.48a13.15,13.15,0,0,1,1.12,2.86l-1.63.5a13.78,13.78,0,0,0-1-2.91Zm5.2,2.91A16.61,16.61,0,0,0,81.8,17.5l1.78.45A23.34,23.34,0,0,1,82,20.87Z"/><path class="cls-2" d="M94.68,23.44a13.42,13.42,0,0,0,4.53,2.63A7.07,7.07,0,0,0,98,27.51a13.88,13.88,0,0,1-4.6-3.26v3.4H91.7V24.32a13.85,13.85,0,0,1-4.51,3.17A9.12,9.12,0,0,0,86,26.09a12.77,12.77,0,0,0,4.41-2.65H87.62V18.09H91.7v-.8H86.43V15.73H91.7V14.58h1.72v1.15h5.39v1.56H93.42v.8h4.27v5.35Zm-5.45-3.28H91.7v-.83H89.23Zm0,2H91.7v-.85H89.23Zm4.19-2.86v.83H96v-.83Zm2.58,2H93.42v.85H96Z"/><path class="cls-2" d="M112.94,25.57v1.51H100.26V25.57h3.95v-2h-3V18.53h3v-1.7H100.5V15.31h12.22v1.52h-3.85v1.69H112v5.07h-3.12v2Zm-7.13-3.39v3.39h1.46V22.18h3V19.94h-3V16.83h-1.44v3.11h-3v2.24Z"/><path class="cls-2" d="M123.29,14.78a8.57,8.57,0,0,0,4,5,9.22,9.22,0,0,0-1.18,1.54,8.13,8.13,0,0,1-1.07-.81c-.15,4.13-.32,5.75-.81,6.32a1.67,1.67,0,0,1-1.27.67,13.87,13.87,0,0,1-2.12,0,4.14,4.14,0,0,0-.54-1.68c.77.06,1.49.07,1.84.07s.43,0,.56-.19c.29-.31.44-1.56.57-4.47h-2.76c-.35,2.69-1.27,5.08-4.89,6.44a5.63,5.63,0,0,0-1.11-1.54c3.17-1,3.89-2.87,4.17-4.9h-2.36v-.93a11,11,0,0,1-1,1,12,12,0,0,0-1.4-1.23,9.85,9.85,0,0,0,3.47-5.11l1.75.42a14.51,14.51,0,0,1-2.2,4.21h7.26a11.65,11.65,0,0,1-2.12-3.34h-2.22V14.78Z"/><path class="cls-2" d="M134.82,17.86c-.29.67-.57,1.4-.86,2h1.66v1.51h-7.41V19.85H130a10.75,10.75,0,0,0-.7-2l1.14-.28h-1.87v-1.5h2.64a10.48,10.48,0,0,0-.45-1.22l1.52-.43a14.05,14.05,0,0,1,.68,1.65h2.36v1.5h-1.63Zm-6,4.51h6.24v5.2h-1.66V27h-3v.63h-1.57Zm1.57,1.49v1.71h3V23.86Zm.35-6.25a8.79,8.79,0,0,1,.76,2l-.84.24h1.68a14.16,14.16,0,0,0,.78-2.24Zm10.37-1.72c-.48,1.34-1,2.95-1.59,4.16a4.67,4.67,0,0,1,1.33,3.28,2.33,2.33,0,0,1-.74,2.05,2,2,0,0,1-.92.34,5.46,5.46,0,0,1-1.08,0,3.58,3.58,0,0,0-.41-1.54c.31,0,.59,0,.79,0a1,1,0,0,0,.52-.14c.23-.14.32-.49.32-1A4.24,4.24,0,0,0,138,20.24c.39-1,.83-2.45,1.15-3.51h-1.57V27.6h-1.46V15.23h3.62l.23-.06Z"/><path class="cls-2" d="M35.84,37a22,22,0,0,1,3.27,2.08l-.42.59A21.35,21.35,0,0,0,35,37.28V39H34.2V37.24a9.89,9.89,0,0,1-3.69,2.36A3.16,3.16,0,0,0,30,39,9.57,9.57,0,0,0,33.48,37H30.2v-.67h4v-1c-1,.1-2.05.17-3,.21A2.4,2.4,0,0,0,31,34.9a38.47,38.47,0,0,0,6.35-.75l.56.58a20.37,20.37,0,0,1-2.95.51v1.12h4V37Zm-4.18,2.26h6v3.89H36.9v-.32H32.39v.34h-.73Zm.73.59v.9H36.9v-.9Zm4.51,2.38v-.94H32.39v.94Z"/><path class="cls-2" d="M41.68,38.42A7.29,7.29,0,0,0,40,37.37l.42-.55a7.14,7.14,0,0,1,1.72,1Zm5.75-.65a5,5,0,0,0,1.92,2,2.63,2.63,0,0,0-.52.58,5.21,5.21,0,0,1-1.3-1.24V41h-3v1c0,.34.1.41.73.41h2.13c.49,0,.58-.16.63-1.13a2.21,2.21,0,0,0,.65.28c-.1,1.18-.33,1.5-1.23,1.5H45.2c-1.07,0-1.37-.2-1.37-1.05V39.34a5.76,5.76,0,0,1-1.19,1.14,2.43,2.43,0,0,0-.31-.37c-.43,1-1,2.1-1.43,3l-.66-.46a28.3,28.3,0,0,0,1.63-3.19l.47.36a5.94,5.94,0,0,0,1.73-2H42.29V37.1h1.76V35.94H42.71v-.68h1.34V34.09h.72v1.17h1.94V34.09h.72v1.17h1.49v.68H47.43V37.1H49.2v.67Zm-5.26-2a7.08,7.08,0,0,0-1.69-1.12l.43-.54a6.54,6.54,0,0,1,1.69,1.07Zm5.1,3a6.37,6.37,0,0,1-.56-1h-1.9a6.5,6.5,0,0,1-.58,1Zm-.41.59H44.51v1h2.35ZM44.77,37.1h1.94V35.94H44.77Z"/><path class="cls-2" d="M58.26,42.33c.28,0,.33-.24.36-1.44a2.09,2.09,0,0,0,.69.33c-.07,1.39-.26,1.83-1,1.83H57.13c-.77,0-1-.23-1-1.14V37.36H53.83c-.21,2.5-.91,4.62-3.32,5.84a2,2,0,0,0-.55-.59c2.26-1.07,2.91-3,3.1-5.25H50.42v-.74h2.69c0-.78,0-1.6,0-2.44h.79c0,.83,0,1.65,0,2.44h3v5.29c0,.35.05.41.37.41Z"/><path class="cls-2" d="M63.9,35.83c-.16.39-.34.8-.51,1.13h1.23v.64H60.05V37h1.16a5.44,5.44,0,0,0-.33-1.15l.59-.14a5.7,5.7,0,0,1,.39,1.22l-.25.07h1.12a9.48,9.48,0,0,0,.5-1.29Zm.26,6.48c0,.37-.08.56-.33.68a3,3,0,0,1-1.21.13,2.71,2.71,0,0,0-.25-.67h.91c.12,0,.15,0,.15-.15V41l-1.92.88-.26-.59c.57-.19,1.37-.5,2.18-.81V38.75H61.26v1.39a6.5,6.5,0,0,1-.61,3.1,2,2,0,0,0-.53-.39,5.76,5.76,0,0,0,.5-2.71v-2h3.54Zm.28-6.73H60.22v-.64H62.1a5.52,5.52,0,0,0-.27-.75l.65-.17a5.77,5.77,0,0,1,.35.92h1.61Zm-2.75,3.63a17.38,17.38,0,0,1,1.64.66l-.29.44a14.6,14.6,0,0,0-1.64-.71Zm6.43,3.31c.35,0,.42-.13.45-.81a1.93,1.93,0,0,0,.65.26c-.09.91-.29,1.17-1,1.17H66.33c-.93,0-1.21-.19-1.21-1V37.79h2.81v-.9H65.12V34.08h.72v.79H69v.62h-3.2v.81h2.81v2.07H65.84V39h2.8v.49h-2.8v.61h2.74v.49H65.84v.65h2.84v.49H65.84v.42c0,.32.08.39.56.39Z"/><path class="cls-2" d="M71.62,40.4a7.92,7.92,0,0,1-1,2,5.27,5.27,0,0,0-.52-.36,5.5,5.5,0,0,0,.94-1.8Zm1.23-.7v3.46h-.73V39.7h-2v-.64h2V38h-2v-.63h2.76a14,14,0,0,0,.54-1.58l.68.14c-.18.48-.37,1-.56,1.44h1.27V38H72.85v1.05h1.81v.64Zm1.77-4H70.24v-.62h2c-.13-.3-.3-.64-.44-.91l.72-.19a8.9,8.9,0,0,1,.57,1.1h1.57Zm-3.35,1.6A7.11,7.11,0,0,0,70.89,36l.59-.14a5,5,0,0,1,.41,1.36Zm2.54,2.83a10.16,10.16,0,0,1,.84,1.57l-.53.3a10.58,10.58,0,0,0-.82-1.6Zm5.32-2.05H78v5h-.72v-5H76v.35a8.56,8.56,0,0,1-1,4.69,2,2,0,0,0-.57-.45,7.55,7.55,0,0,0,.92-4.24V35a16,16,0,0,0,3.11-.78l.59.55a16,16,0,0,1-3,.72v1.9h3.18Z"/><path class="cls-2" d="M81.72,39.44A8.06,8.06,0,0,0,80,38.51l.4-.53a7.51,7.51,0,0,1,1.7.89Zm.51-4.12h-2v-.65h2v-.6H83v.6h1.42v.65H83V36h-.73Zm-2,7.38A29.64,29.64,0,0,0,81.88,40l.51.43c-.44.89-1,1.93-1.51,2.73Zm.62-6.6a7.35,7.35,0,0,1,1.66.89l-.44.57a7,7,0,0,0-1.62-1Zm5.23,1.38v.77h2.49v4.2c0,.35-.08.52-.33.63A3.27,3.27,0,0,1,87,43.2a2.05,2.05,0,0,0-.22-.6h.91c.12,0,.16,0,.16-.15v-1H86.12v1.65h-.71V41.49H83.8v1.69h-.71V38.25h2.32v-.77H82.72v-.61h2.69V36h.71v.84H88.2a7.12,7.12,0,0,0-1.26-.76l.34-.41a7.21,7.21,0,0,1,1.28.71l-.34.46H89v.61ZM83.8,38.83v.76h1.61v-.76Zm1.61,2.1v-.78H83.8v.78Zm.84-5.61H84.79v-.65h1.46v-.6H87v.6h2v.65H87v.61h-.73Zm-.13,3.51v.76h1.77v-.76Zm1.77,2.1v-.78H86.12v.78Z"/><path class="cls-2" d="M98.56,42.35c0,.41-.1.62-.4.73a5.44,5.44,0,0,1-1.62.12,2.88,2.88,0,0,0-.23-.66c.6,0,1.16,0,1.32,0s.21,0,.21-.2V37.45H91.47V43.2h-.72V36.82h7.81Zm-.13-6.21H90.82V34.4h.74v1.12h2.65V34.07H95v1.45h2.7V34.4h.77Zm-6,5.71v-2h.62v1.41h1.21V39.35H92v-.57h3.37a11.26,11.26,0,0,0,.52-1.23l.65.17c-.16.36-.34.74-.51,1.06h1.21v.57H94.92v1.93h1.24V39.87h.63v2Zm.89-4.27a4.41,4.41,0,0,1,.57,1l-.61.2a5.08,5.08,0,0,0-.54-1Z"/><path class="cls-2" d="M105.27,37.47a7.5,7.5,0,0,0,4,5.07,3.33,3.33,0,0,0-.56.68,8.2,8.2,0,0,1-4-5.27,7.81,7.81,0,0,1-1.24,2.94l.29-.2a13.66,13.66,0,0,1,2,1.91l-.63.48a13.78,13.78,0,0,0-1.83-1.89,6.79,6.79,0,0,1-2.65,2,2.24,2.24,0,0,0-.55-.61,6.4,6.4,0,0,0,4-5.12h-3.73v-.75h3.85a22.67,22.67,0,0,0,.1-2.64h.8a25.4,25.4,0,0,1-.13,2.64H109v.75Z"/><path class="cls-2" d="M119.09,39.24H115v3c0,.5-.13.73-.51.83a7.05,7.05,0,0,1-2,.15,2.8,2.8,0,0,0-.32-.76c.81,0,1.54,0,1.76,0s.27-.06.27-.24v-3h-4.12V38.5h4.12V37.06a12.27,12.27,0,0,0,2.5-1.58h-5.63v-.73h6.44l.16,0,.56.42A14.14,14.14,0,0,1,115,37.44V38.5h4.08Z"/><path class="cls-2" d="M122.68,39a8.3,8.3,0,0,1-.66,2.25c.67,1,1.91,1.19,3.73,1.19,1,0,2.49,0,3.51-.13a2.24,2.24,0,0,0-.25.7c-.93.06-2.17.08-3.26.08-2,0-3.24-.2-4-1.28a4.47,4.47,0,0,1-1.33,1.45,2.58,2.58,0,0,0-.49-.5,4.9,4.9,0,0,0,2-3.27h-1.08a1,1,0,0,0-.59.14,5.11,5.11,0,0,0-.28-.68.9.9,0,0,0,.48-.29A16.86,16.86,0,0,0,121.7,37h-1.6v-.61h2.07l.13-.05.49.23c-.43.58-1.18,1.61-1.75,2.28h1.14l.13,0Zm-1-3a19.86,19.86,0,0,0-1.25-1.59l.55-.33a14,14,0,0,1,1.27,1.52Zm3.41.8a7.32,7.32,0,0,0,.23-.8h-2.63v-.62h1.67a5.45,5.45,0,0,0-.65-1l.59-.24a4.73,4.73,0,0,1,.7,1.09l-.42.2h1.79a8.13,8.13,0,0,0,.77-1.31l.72.21c-.24.36-.49.77-.73,1.1H129V36h-2.86c-.11.28-.23.55-.34.8h2.36v4.67h-4.64V36.81Zm2.33.56h-3.21v.82h3.21Zm0,1.34h-3.21v.84h3.21Zm0,1.36h-3.21v.84h3.21Z"/><path class="cls-2" d="M135.57,40.2a9.67,9.67,0,0,0,3.61,2.23,2.48,2.48,0,0,0-.52.64,10.6,10.6,0,0,1-3.72-2.59V43.2h-.75V40.51a10.47,10.47,0,0,1-3.64,2.54,3.06,3.06,0,0,0-.52-.62,9.65,9.65,0,0,0,3.54-2.23h-2.42V36.56h3v-.84h-3.91V35h3.91v-.94h.75V35h4v.7h-4v.84h3.21V40.2Zm-3.7-2.1h2.32v-1h-2.32Zm0,1.52h2.32v-1h-2.32Zm3.07-2.47v1h2.46v-1Zm2.46,1.5h-2.46v1h2.46Z"/><path class="cls-2" d="M140.13,39.15c0-2.87,1.29-4,2.72-4a2.25,2.25,0,0,1,1.71.75l-.51.57a1.55,1.55,0,0,0-1.17-.56c-1,0-1.85.77-1.89,3a2.3,2.3,0,0,1,1.67-.89,1.93,1.93,0,0,1,2,2.19,2.15,2.15,0,0,1-2.1,2.29C141.18,42.57,140.13,41.43,140.13,39.15Zm.88.57c.12,1.39.67,2.14,1.57,2.14.71,0,1.25-.63,1.25-1.58s-.44-1.51-1.32-1.51A1.87,1.87,0,0,0,141,39.72Z"/><path class="cls-2" d="M145.72,41.82l.51-.57a1.51,1.51,0,0,0,1.17.56c1,0,1.85-.78,1.89-3.06a2.27,2.27,0,0,1-1.67.92,1.94,1.94,0,0,1-2-2.21,2.15,2.15,0,0,1,2.1-2.28c1.41,0,2.46,1.14,2.46,3.43,0,2.86-1.29,4-2.71,4A2.24,2.24,0,0,1,145.72,41.82ZM147.77,39a1.93,1.93,0,0,0,1.5-1c-.12-1.38-.68-2.12-1.59-2.12-.7,0-1.24.62-1.24,1.56S146.88,39,147.77,39Z"/><path class="cls-2" d="M151.14,40.62a2.27,2.27,0,0,1,1.35-1.93v0a2,2,0,0,1-1-1.65,2,2,0,0,1,4,.07,2.35,2.35,0,0,1-1,1.72v.05a2.09,2.09,0,0,1,1.24,1.83,2,2,0,0,1-2.3,1.9A2.1,2.1,0,0,1,151.14,40.62Zm3.77,0c0-.93-.9-1.26-1.94-1.67a1.89,1.89,0,0,0-1,1.56,1.41,1.41,0,0,0,1.53,1.35A1.27,1.27,0,0,0,154.91,40.65Zm-.17-3.53a1.19,1.19,0,0,0-1.24-1.26A1.1,1.1,0,0,0,152.33,37c0,.86.79,1.22,1.65,1.56A1.94,1.94,0,0,0,154.74,37.12Z"/><path class="cls-2" d="M159.87,39.58s0,.2,0,.3c-.14,1.92-.28,2.68-.54,2.94a.68.68,0,0,1-.58.26,6.53,6.53,0,0,1-1,0,1.71,1.71,0,0,0-.18-.61c.38,0,.75,0,.89,0a.4.4,0,0,0,.32-.1c.16-.16.28-.76.4-2.22h-2a15.41,15.41,0,0,0,.38-1.61h-.86v-.66h3.59v.66h-2.09c-.06.34-.14.7-.2,1Zm.16-2.45h-2.88V34.51H160Zm-.59-2.06h-1.72v1.5h1.72Zm1.92,3.51a8.89,8.89,0,0,1-1,4.64,3,3,0,0,0-.56-.42,7.79,7.79,0,0,0,.91-4.23V36h2v-2h.7v.7h2v.61h-2V36h1.93l.12,0,.45.12c-.12.59-.29,1.28-.42,1.73l-.56-.14a9.49,9.49,0,0,0,.22-1.07h-3.74Zm1.43,1.25c-.08,1.59-.32,2.71-1.4,3.37a1.69,1.69,0,0,0-.43-.49c.94-.55,1.13-1.51,1.19-2.88Zm1.77-1.08a3.67,3.67,0,0,0,.61,0c0,.18,0,.38.06.55a2.36,2.36,0,0,1-.64,0h-1.2c-.64,0-.78-.27-.78-.91v-.31l-1,.1-.07-.53,1.05-.11v-.83h.64v.76l1.29-.13.07.53-1.36.14v.38c0,.27,0,.36.25.36Zm.33,3.57a.59.59,0,0,0,.26,0,.29.29,0,0,0,.13-.21,6.18,6.18,0,0,0,0-1,1.47,1.47,0,0,0,.55.3,6.37,6.37,0,0,1-.1,1.14.68.68,0,0,1-.3.38,1.42,1.42,0,0,1-.52.1h-.54a.88.88,0,0,1-.59-.17c-.16-.12-.19-.26-.19-.72V39.83h.63v2.29a.15.15,0,0,0,.08.16.39.39,0,0,0,.21,0Z"/><path class="cls-2" d="M172.76,41.89c1.05.27,2.14.61,2.84.87l-.65.46a23,23,0,0,0-3-1l.39-.33H170l.49.3a11.7,11.7,0,0,1-3.24,1,6.48,6.48,0,0,0-.44-.49,13.3,13.3,0,0,0,2.87-.8h-1.57V38.7h6.39v3.19Zm-5.13-5.77H167V34.75h3.93a5,5,0,0,0-.28-.57l.72-.17a4.73,4.73,0,0,1,.39.74h3.72v1.37h-.7v-.77h-7.1v.54h3.19v.47h-1.32v.48h1.18v.44h-1.18v.46l1.37-.09v.51l-3.68.26-.06-.55,1.75-.09v-.5h-1.17v-.44h1.17v-.48h-1.29Zm1.2,3.49h4.93v-.46h-4.93Zm0,.91h4.93v-.47h-4.93Zm0,.92h4.93V41h-4.93Zm4.62-4.19v.66h.91v-.5h.57v.94h-3.54v-.94H172v.5h.87v-.66h-1.75v-.44h.36a1.66,1.66,0,0,0-.38-.25,3.41,3.41,0,0,0,.86-1.11l.55.09a2.93,2.93,0,0,1-.21.39h2.48v.44h-1.28v.44h1.78v.44Zm-.63-.44v-.44H172a4.08,4.08,0,0,1-.4.44Z"/><path class="cls-2" d="M184.61,42.49c.39,0,.46-.25.51-1.68a2.15,2.15,0,0,0,.68.33c-.09,1.61-.29,2-1.13,2h-1.44c-.88,0-1.13-.25-1.13-1.08V38.57h-1.84c-.19,2.18-.69,3.81-3.18,4.63a2.17,2.17,0,0,0-.46-.63c2.33-.7,2.7-2.11,2.86-4h-2.66v-.71h4V34.07h.74v3.79h4.11v.71h-2.84v3.52c0,.33.08.4.46.4Zm-5.78-5.2a10.78,10.78,0,0,0-1.18-2.48l.67-.25A9.73,9.73,0,0,1,179.53,37Zm6.1-2.56a21,21,0,0,1-1.39,2.53l-.62-.25a14.86,14.86,0,0,0,1.26-2.56Z"/><path class="cls-2" d="M195.61,35.15v.64h-8.72v-.64H191c-.1-.3-.23-.66-.35-.94l.69-.18c.14.35.32.79.43,1.12Zm-.55,7.23c0,.38-.1.55-.39.67a7.16,7.16,0,0,1-1.65.09,2.07,2.07,0,0,0-.23-.56c.62,0,1.2,0,1.36,0s.22,0,.22-.21V37.85h-2v.65c0,.22,0,.3.19.3h.9a3.31,3.31,0,0,0,.55,0c0,.17,0,.37,0,.53a1.92,1.92,0,0,1-.58.05h-1.05c-.61,0-.73-.26-.73-.85v-.64h-1.13c-.15,1-.62,1.59-2,1.9a1.52,1.52,0,0,0-.36-.52c1.17-.21,1.56-.61,1.7-1.38h-1.72v5.33h-.71v-6h4.62a9,9,0,0,0,.73-1.36l.75.17c-.24.4-.51.84-.77,1.19h2.27Zm-5.42-6.56a11.13,11.13,0,0,1,.63,1.11l-.64.26c-.14-.29-.41-.79-.62-1.16Zm.4,6.11v.46h-.65V39.66H193v2.27Zm0-1.71v1.16h2.38V40.22Z"/><path class="cls-2" d="M200.38,41.6a9.29,9.29,0,0,1-3.07,1.29,2.7,2.7,0,0,0-.45-.56,9,9,0,0,0,3-1Zm5.22-1.39v.63h-4V43.2h-.73V40.84h-4v-.63h4v-.75h-3v-.57h3v-.72h-3.52v-.6h2.16a4.27,4.27,0,0,0-.51-1l.53-.14h-2.58v-.62h1.61a7.88,7.88,0,0,0-.8-1.45l.63-.22a6.13,6.13,0,0,1,.85,1.47l-.5.2H200V34.08h.7v1.77h1.19V34.08h.71v1.77h1.21l-.4-.13a8.35,8.35,0,0,0,.77-1.52l.76.21c-.28.51-.61,1.06-.87,1.44h1.54v.62H203l.65.18a11,11,0,0,1-.69.92h2.29v.6h-3.62v.72h3.13v.57h-3.13v.75Zm-5.89-3.74a4,4,0,0,1,.53,1l-.41.11h2.76l-.35-.11a7.82,7.82,0,0,0,.59-1Zm3,4.82c.94.31,2.21.79,2.9,1.11l-.46.47c-.66-.32-1.93-.83-2.88-1.18Z"/><path class="cls-2" d="M215.23,35.85v4.68h-.76V40H211.6V43.2h-.77V40H208v.62h-.73V35.85h3.59V34.07h.77v1.78Zm-4.4,3.38V36.58H208v2.65Zm3.64,0V36.58H211.6v2.65Z"/><path class="cls-2" d="M218.34,37.73a20.12,20.12,0,0,1-.88,3.92l-.74-.31a15.69,15.69,0,0,0,.9-3.75Zm1.62-.89v4.93c0,.46.12.55.69.55h1.91c.62,0,.71-.35.79-2.07a2.36,2.36,0,0,0,.7.33c-.11,1.89-.34,2.43-1.45,2.43h-2c-1.08,0-1.38-.26-1.38-1.25V36.84Zm.21-2.42a18.27,18.27,0,0,1,2.69,2.21l-.53.55a18.76,18.76,0,0,0-2.65-2.27Zm4.35,2.91a18,18,0,0,1,1.34,3.75l-.73.29a18,18,0,0,0-1.3-3.77Z"/><path class="cls-2" d="M227.12,41.68h1.63V36.42h-1.3v-.59a4.22,4.22,0,0,0,1.52-.52h.7v6.37h1.47v.76h-4Z"/><path class="cls-2" d="M232.28,38.85c0-2.39.87-3.67,2.29-3.67s2.28,1.29,2.28,3.67-.86,3.72-2.28,3.72S232.28,41.24,232.28,38.85Zm3.68,0c0-2.09-.56-2.94-1.39-2.94s-1.4.85-1.4,2.94.56,3,1.4,3S236,40.94,236,38.85Z"/><path class="cls-2" d="M240.34,39.52c-.13-.33-.45-.91-.72-1.4V43.2h-.68V38.34a14.65,14.65,0,0,1-.93,2.81,5,5,0,0,0-.37-.73,14.35,14.35,0,0,0,1.19-3.73h-1.05V36h1.16V34.07h.68V36h1v.7h-1v.52c.26.35,1,1.51,1.17,1.78Zm5.33,1.24a3.25,3.25,0,0,1-.88,1.21,18.16,18.16,0,0,1,2,.74l-.55.47a14.75,14.75,0,0,0-2-.8,9.26,9.26,0,0,1-3.17.84,1.85,1.85,0,0,0-.28-.54,10.34,10.34,0,0,0,2.63-.57c-.66-.19-1.32-.37-1.93-.51.23-.24.5-.53.75-.84h-1.34v-.59h1.79a7.42,7.42,0,0,0,.5-.74H241.2V37.81h2.26v-.5h-2.05v-1h-.58V35.7h.58v-1h2.05v-.64h.7v.64h2.05v1h.62v.58h-.62v1h-2.05v.5h2.3v1.62h-2.57c-.14.24-.31.49-.49.74h1.79c0-.14.08-.29.11-.43H246c0,.14-.07.29-.09.43h1v.59Zm-3.8-1.83h1.59v-.61h-1.59Zm.19-3.72v.55h1.4v-.55Zm1.4,1.6v-.6h-1.4v.6Zm-.5,3.95-.47.56c.51.12,1,.26,1.59.42a2.64,2.64,0,0,0,.88-1Zm1.2-5.55v.55h1.38v-.55Zm1.38,1.6v-.6h-1.38v.6Zm-1.38,1.51v.61h1.6v-.61Z"/><path class="cls-2" d="M30.51,55.33A9.34,9.34,0,0,1,32,50.26l.57.26a9.66,9.66,0,0,0,0,9.61L32,60.4A9.31,9.31,0,0,1,30.51,55.33Z"/><path class="cls-2" d="M33.42,56.62a2.27,2.27,0,0,1,1.35-1.93v0a2,2,0,0,1-1-1.65,2,2,0,0,1,4,.07,2.35,2.35,0,0,1-1,1.72v.05a2.09,2.09,0,0,1,1.24,1.83,2,2,0,0,1-2.3,1.9A2.1,2.1,0,0,1,33.42,56.62Zm3.77,0c0-.93-.9-1.26-1.94-1.67a1.89,1.89,0,0,0-1,1.56,1.41,1.41,0,0,0,1.53,1.35A1.27,1.27,0,0,0,37.19,56.65ZM37,53.12a1.19,1.19,0,0,0-1.24-1.26A1.1,1.1,0,0,0,34.61,53c0,.86.79,1.22,1.65,1.56A1.94,1.94,0,0,0,37,53.12Z"/><path class="cls-2" d="M38.8,57.6l.45-.6a2.41,2.41,0,0,0,1.8.81,1.53,1.53,0,0,0,1.56-1.62,1.44,1.44,0,0,0-1.52-1.58,2,2,0,0,0-1.22.44l-.49-.31.23-3.43h3.57v.78H40.41l-.18,2.13a2.14,2.14,0,0,1,1.09-.3,2.05,2.05,0,0,1,2.21,2.24,2.33,2.33,0,0,1-2.4,2.41A3.11,3.11,0,0,1,38.8,57.6Z"/><path class="cls-2" d="M44.51,57.9c2.15-2.14,3.36-3.42,3.36-4.59a1.26,1.26,0,0,0-1.35-1.39,2.08,2.08,0,0,0-1.52.85l-.53-.51a2.8,2.8,0,0,1,2.16-1.08,2,2,0,0,1,2.13,2.09c0,1.34-1.22,2.67-2.91,4.45.38,0,.82-.07,1.2-.07h2.07v.79H44.51Z"/><path class="cls-2" d="M50.05,60.13a9.66,9.66,0,0,0,0-9.61l.56-.26a9.42,9.42,0,0,1,0,10.14Z"/><path class="cls-2" d="M55.68,57.9C57.83,55.76,59,54.48,59,53.31a1.26,1.26,0,0,0-1.35-1.39,2.08,2.08,0,0,0-1.52.85l-.53-.51a2.8,2.8,0,0,1,2.16-1.08,2,2,0,0,1,2.13,2.09c0,1.34-1.22,2.67-2.91,4.45.38,0,.82-.07,1.2-.07h2.07v.79H55.68Z"/><path class="cls-2" d="M61.24,56.62a2.27,2.27,0,0,1,1.35-1.93v0a2,2,0,0,1-1-1.65,2,2,0,0,1,4,.07,2.35,2.35,0,0,1-1,1.72v.05a2.09,2.09,0,0,1,1.24,1.83,2,2,0,0,1-2.3,1.9A2.1,2.1,0,0,1,61.24,56.62Zm3.77,0c0-.93-.9-1.26-1.94-1.67a1.89,1.89,0,0,0-1,1.56,1.41,1.41,0,0,0,1.53,1.35A1.27,1.27,0,0,0,65,56.65Zm-.17-3.53a1.19,1.19,0,0,0-1.24-1.26A1.1,1.1,0,0,0,62.43,53c0,.86.79,1.22,1.65,1.56A1.94,1.94,0,0,0,64.84,53.12Z"/><path class="cls-2" d="M66.62,57.6l.45-.6a2.41,2.41,0,0,0,1.8.81,1.53,1.53,0,0,0,1.56-1.62,1.44,1.44,0,0,0-1.52-1.58,2,2,0,0,0-1.22.44l-.49-.31.23-3.43H71v.78H68.23l-.18,2.13a2.14,2.14,0,0,1,1.09-.3,2.05,2.05,0,0,1,2.21,2.24A2.33,2.33,0,0,1,69,58.57,3.11,3.11,0,0,1,66.62,57.6Z"/><path class="cls-2" d="M75.29,56.47h-3.2v-.6l3-4.56h1v4.43h1v.73h-1v2h-.86Zm0-.73V53.65c0-.37,0-1,0-1.36h0c-.18.34-.38.65-.59,1L73,55.74Z"/><path class="cls-2" d="M80.13,56.62a2.27,2.27,0,0,1,1.35-1.93v0a2,2,0,0,1-1-1.65,2,2,0,0,1,4,.07,2.35,2.35,0,0,1-1,1.72v.05a2.09,2.09,0,0,1,1.24,1.83,2,2,0,0,1-2.3,1.9A2.1,2.1,0,0,1,80.13,56.62Zm3.77,0c0-.93-.9-1.26-1.94-1.67a1.89,1.89,0,0,0-1,1.56,1.41,1.41,0,0,0,1.53,1.35A1.27,1.27,0,0,0,83.9,56.65Zm-.17-3.53a1.19,1.19,0,0,0-1.24-1.26A1.1,1.1,0,0,0,81.32,53c0,.86.79,1.22,1.65,1.56A1.94,1.94,0,0,0,83.73,53.12Z"/><path class="cls-2" d="M85.52,57.57,86,57a2.42,2.42,0,0,0,1.82.84,1.34,1.34,0,0,0,1.49-1.31c0-.85-.59-1.41-2.28-1.41v-.7c1.51,0,2-.59,2-1.34a1.11,1.11,0,0,0-1.24-1.13,2.15,2.15,0,0,0-1.52.72l-.49-.57a2.9,2.9,0,0,1,2-.89c1.23,0,2.13.65,2.13,1.81a1.75,1.75,0,0,1-1.3,1.69v0a1.87,1.87,0,0,1,1.55,1.82,2.11,2.11,0,0,1-2.35,2A3,3,0,0,1,85.52,57.57Z"/><path class="cls-2" d="M91.66,57.68h1.63V52.42H92v-.59a4.22,4.22,0,0,0,1.52-.52h.7v6.37h1.47v.76h-4Z"/><path class="cls-2" d="M96.78,56.62a2.27,2.27,0,0,1,1.35-1.93v0a2,2,0,0,1-1-1.65,2,2,0,0,1,4,.07,2.35,2.35,0,0,1-1,1.72v.05a2.09,2.09,0,0,1,1.24,1.83,2,2,0,0,1-2.3,1.9A2.1,2.1,0,0,1,96.78,56.62Zm3.77,0c0-.93-.9-1.26-1.94-1.67a1.89,1.89,0,0,0-1,1.56,1.41,1.41,0,0,0,1.53,1.35A1.27,1.27,0,0,0,100.55,56.65Zm-.17-3.53a1.19,1.19,0,0,0-1.24-1.26A1.1,1.1,0,0,0,98,53c0,.86.79,1.22,1.65,1.56A1.94,1.94,0,0,0,100.38,53.12Z"/><path class="cls-2" d="M107.09,59.63h-.42v-10h.42Z"/><path class="cls-2" d="M112.41,55.73c0-1.76,1.11-2.86,2.35-2.86a2.21,2.21,0,0,1,1.53.64l0-.94V50.48h.9v8h-.74l-.08-.64h0a2.42,2.42,0,0,1-1.65.77C113.29,58.57,112.41,57.54,112.41,55.73Zm3.84,1.33V54.21a2,2,0,0,0-1.33-.57c-.88,0-1.57.84-1.57,2.08s.54,2.09,1.5,2.09A1.9,1.9,0,0,0,116.25,57.06Z"/><path class="cls-2" d="M118.59,55.73a2.54,2.54,0,1,1,2.52,2.84A2.61,2.61,0,0,1,118.59,55.73Zm4.1,0c0-1.25-.64-2.1-1.58-2.1s-1.57.85-1.57,2.1.63,2.08,1.57,2.08S122.69,57,122.69,55.73Z"/><path class="cls-2" d="M125.06,53h.75l.08.78h0a2.6,2.6,0,0,1,1.82-.92c1.14,0,1.66.74,1.66,2.13v3.44h-.91V55.12c0-1-.31-1.45-1-1.45a2.07,2.07,0,0,0-1.49.83v3.94h-.91Z"/><path class="cls-2" d="M130.76,55.73a2.54,2.54,0,1,1,2.52,2.84A2.61,2.61,0,0,1,130.76,55.73Zm4.1,0c0-1.25-.64-2.1-1.58-2.1s-1.57.85-1.57,2.1.63,2.08,1.57,2.08S134.86,57,134.86,55.73Z"/><path class="cls-2" d="M137.23,53H138l.08,1h0a1.87,1.87,0,0,1,1.54-1.13,1.16,1.16,0,0,1,.58.12l-.17.8a1.28,1.28,0,0,0-.53-.09c-.45,0-1,.32-1.37,1.25v3.49h-.91Z"/><path class="cls-2" d="M140.29,57.88a.66.66,0,1,1,1.32,0,.66.66,0,1,1-1.32,0Z"/><path class="cls-2" d="M142.65,57.82l.45-.6a2.46,2.46,0,0,0,1.61.64c.72,0,1.07-.38,1.07-.85s-.64-.8-1.24-1c-.76-.28-1.59-.65-1.59-1.57s.7-1.54,1.88-1.54a2.76,2.76,0,0,1,1.68.61l-.44.59a2,2,0,0,0-1.23-.48c-.69,0-1,.36-1,.78s.56.71,1.17.94c.79.3,1.66.62,1.66,1.65s-.7,1.61-2,1.61A3.28,3.28,0,0,1,142.65,57.82Z"/><path class="cls-2" d="M147.53,55.73A2.63,2.63,0,0,1,150,52.87c1.38,0,2.16,1,2.16,2.55a3.55,3.55,0,0,1,0,.52h-3.66a1.8,1.8,0,0,0,1.8,1.9,2.34,2.34,0,0,0,1.36-.43l.33.6a3.23,3.23,0,0,1-1.8.56A2.6,2.6,0,0,1,147.53,55.73Zm3.81-.45c0-1.09-.5-1.68-1.35-1.68a1.67,1.67,0,0,0-1.56,1.68Z"/><path class="cls-2" d="M153.48,53h.75l.08,1h0a1.87,1.87,0,0,1,1.54-1.13,1.16,1.16,0,0,1,.58.12l-.17.8a1.28,1.28,0,0,0-.53-.09c-.45,0-1,.32-1.37,1.25v3.49h-.91Z"/><path class="cls-2" d="M156.86,53h.95l1,3.09c.17.53.34,1.09.51,1.6h0c.17-.51.34-1.07.5-1.6l1-3.09h.9l-1.93,5.43h-1.06Z"/><path class="cls-2" d="M162.71,51.28a.61.61,0,1,1,.61.61A.57.57,0,0,1,162.71,51.28Zm.15,1.73h.91v5.43h-.91Z"/><path class="cls-2" d="M165.2,55.73a2.64,2.64,0,0,1,2.62-2.86,2.32,2.32,0,0,1,1.59.64l-.47.6a1.61,1.61,0,0,0-1.08-.48c-1,0-1.71.85-1.71,2.1s.68,2.08,1.68,2.08a1.91,1.91,0,0,0,1.28-.54l.4.61a2.63,2.63,0,0,1-1.76.69A2.55,2.55,0,0,1,165.2,55.73Z"/><path class="cls-2" d="M170.05,55.73a2.63,2.63,0,0,1,2.45-2.86c1.38,0,2.16,1,2.16,2.55a3.55,3.55,0,0,1,0,.52H171a1.8,1.8,0,0,0,1.8,1.9,2.34,2.34,0,0,0,1.36-.43l.33.6a3.23,3.23,0,0,1-1.8.56A2.6,2.6,0,0,1,170.05,55.73Zm3.81-.45c0-1.09-.5-1.68-1.35-1.68A1.67,1.67,0,0,0,171,55.28Z"/><path class="cls-2" d="M175.39,57.82l.45-.6a2.46,2.46,0,0,0,1.61.64c.72,0,1.07-.38,1.07-.85s-.64-.8-1.24-1c-.76-.28-1.59-.65-1.59-1.57s.7-1.54,1.88-1.54a2.76,2.76,0,0,1,1.68.61l-.44.59a2,2,0,0,0-1.23-.48c-.69,0-1,.36-1,.78s.56.71,1.17.94c.79.3,1.66.62,1.66,1.65s-.7,1.61-2,1.61A3.28,3.28,0,0,1,175.39,57.82Z"/><path class="cls-2" d="M180.49,57.88a.66.66,0,1,1,1.32,0,.66.66,0,1,1-1.32,0Z"/><path class="cls-2" d="M183.46,50.48h.91v2.18l0,1.12a2.55,2.55,0,0,1,1.8-.91c1.14,0,1.66.74,1.66,2.13v3.44h-.91V55.12c0-1-.31-1.45-1-1.45a2.07,2.07,0,0,0-1.49.83v3.94h-.91Z"/><path class="cls-2" d="M189.53,50.48h.9v5.4h0L192.77,53h1L192,55.2,194,58.44h-1l-1.59-2.62-1,1.19v1.43h-.9Z"/><path class="cls-2" d="M194.69,56.17a4.71,4.71,0,0,1,4.66-5,3.46,3.46,0,0,1,3.66,3.7c0,1.95-1.21,3-2.22,3a1,1,0,0,1-1.15-.85h0a1.94,1.94,0,0,1-1.36.77c-.76,0-1.34-.57-1.34-1.59,0-1.18.84-2.59,2.15-2.59a1,1,0,0,1,.89.55h0l.13-.46h.6L200.26,56c-.21.9,0,1.31.61,1.31s1.51-.85,1.51-2.3a2.89,2.89,0,0,0-3.1-3.13,4.09,4.09,0,0,0-3.91,4.31,3.16,3.16,0,0,0,3.32,3.41,3.58,3.58,0,0,0,1.82-.5l.24.54a4,4,0,0,1-2.12.57A3.73,3.73,0,0,1,194.69,56.17Zm4.78.35.31-1.78a.77.77,0,0,0-.72-.47c-.88,0-1.42,1.06-1.42,1.9s.34,1,.79,1A1.48,1.48,0,0,0,199.47,56.52Z"/><path class="cls-2" d="M204.1,59.47a1.51,1.51,0,0,1,.8-1.22v0a1,1,0,0,1-.5-.89,1.32,1.32,0,0,1,.61-1v0a1.91,1.91,0,0,1-.71-1.46,1.93,1.93,0,0,1,2-1.94,2.24,2.24,0,0,1,.76.14H209v.7h-1.11a1.55,1.55,0,0,1,.44,1.12,1.86,1.86,0,0,1-2,1.89,1.89,1.89,0,0,1-.81-.19.81.81,0,0,0-.35.65c0,.35.22.59.95.59h1.06c1.26,0,1.9.4,1.9,1.28s-1.07,1.88-2.75,1.88C205,60.93,204.1,60.41,204.1,59.47Zm4.1-.27c0-.5-.39-.67-1.11-.67h-.94a3.05,3.05,0,0,1-.7-.09,1.12,1.12,0,0,0-.55.91c0,.58.59,1,1.57,1S208.2,59.76,208.2,59.2Zm-.7-4.39a1.16,1.16,0,1,0-2.32,0,1.17,1.17,0,1,0,2.32,0Z"/><path class="cls-2" d="M210.14,53h.75l.08,1h0a1.87,1.87,0,0,1,1.54-1.13,1.16,1.16,0,0,1,.58.12l-.17.8a1.28,1.28,0,0,0-.53-.09c-.45,0-1,.32-1.37,1.25v3.49h-.91Z"/><path class="cls-2" d="M213.5,55.73A2.63,2.63,0,0,1,216,52.87c1.38,0,2.16,1,2.16,2.55a3.55,3.55,0,0,1,0,.52h-3.66a1.8,1.8,0,0,0,1.8,1.9,2.34,2.34,0,0,0,1.36-.43l.33.6a3.23,3.23,0,0,1-1.8.56A2.6,2.6,0,0,1,213.5,55.73Zm3.81-.45c0-1.09-.5-1.68-1.35-1.68a1.67,1.67,0,0,0-1.56,1.68Z"/><path class="cls-2" d="M219,55.73a2.63,2.63,0,0,1,2.45-2.86c1.38,0,2.16,1,2.16,2.55a3.55,3.55,0,0,1,0,.52H220a1.8,1.8,0,0,0,1.8,1.9,2.34,2.34,0,0,0,1.36-.43l.33.6a3.23,3.23,0,0,1-1.8.56A2.6,2.6,0,0,1,219,55.73Zm3.81-.45c0-1.09-.5-1.68-1.35-1.68a1.67,1.67,0,0,0-1.56,1.68Z"/><path class="cls-2" d="M225,53h.75l.08.78h0a2.6,2.6,0,0,1,1.82-.92c1.14,0,1.66.74,1.66,2.13v3.44h-.91V55.12c0-1-.31-1.45-1-1.45a2.07,2.07,0,0,0-1.49.83v3.94H225Z"/><path class="cls-2" d="M231.1,53h.75l.08.62h0a2.9,2.9,0,0,1,1.73-.76c1.4,0,2.16,1.1,2.16,2.77,0,1.86-1.11,2.93-2.36,2.93a2.45,2.45,0,0,1-1.5-.63l0,1v1.83h-.91Zm3.8,2.64c0-1.2-.4-2-1.43-2a2.26,2.26,0,0,0-1.46.75v2.85a2.1,2.1,0,0,0,1.33.57C234.24,57.81,234.9,57,234.9,55.65Z"/><path class="cls-2" d="M236.89,55.73a2.63,2.63,0,0,1,2.45-2.86c1.38,0,2.16,1,2.16,2.55a3.55,3.55,0,0,1,0,.52H237.8a1.8,1.8,0,0,0,1.8,1.9,2.34,2.34,0,0,0,1.36-.43l.33.6a3.23,3.23,0,0,1-1.8.56A2.6,2.6,0,0,1,236.89,55.73Zm3.81-.45c0-1.09-.5-1.68-1.35-1.68a1.67,1.67,0,0,0-1.56,1.68Z"/><path class="cls-2" d="M242.34,57c0-1.18,1-1.77,3.34-2,0-.7-.23-1.37-1.12-1.37a3,3,0,0,0-1.63.58l-.36-.63a4.08,4.08,0,0,1,2.14-.71c1.32,0,1.88.89,1.88,2.23v3.34h-.75l-.08-.65h0a2.91,2.91,0,0,1-1.8.78A1.47,1.47,0,0,1,242.34,57Zm3.34.09V55.6c-1.83.22-2.45.67-2.45,1.37s.42.87,1,.87A2.22,2.22,0,0,0,245.68,57.12Z"/><path class="cls-2" d="M247.91,55.73a2.64,2.64,0,0,1,2.62-2.86,2.32,2.32,0,0,1,1.59.64l-.47.6a1.61,1.61,0,0,0-1.08-.48c-1,0-1.71.85-1.71,2.1s.68,2.08,1.68,2.08a1.91,1.91,0,0,0,1.28-.54l.4.61a2.63,2.63,0,0,1-1.76.69A2.55,2.55,0,0,1,247.91,55.73Z"/><path class="cls-2" d="M252.76,55.73a2.63,2.63,0,0,1,2.45-2.86c1.38,0,2.16,1,2.16,2.55a3.55,3.55,0,0,1,0,.52h-3.66a1.8,1.8,0,0,0,1.8,1.9,2.34,2.34,0,0,0,1.36-.43l.33.6a3.23,3.23,0,0,1-1.8.56A2.6,2.6,0,0,1,252.76,55.73Zm3.81-.45c0-1.09-.5-1.68-1.35-1.68a1.67,1.67,0,0,0-1.56,1.68Z"/><path class="cls-2" d="M258.52,57.88a.66.66,0,1,1,1.32,0,.66.66,0,1,1-1.32,0Z"/><path class="cls-2" d="M261,55.73a2.54,2.54,0,1,1,2.52,2.84A2.61,2.61,0,0,1,261,55.73Zm4.1,0c0-1.25-.64-2.1-1.58-2.1s-1.57.85-1.57,2.1.63,2.08,1.57,2.08S265.05,57,265.05,55.73Z"/><path class="cls-2" d="M267.42,53h.75l.08,1h0a1.87,1.87,0,0,1,1.54-1.13,1.16,1.16,0,0,1,.58.12l-.17.8a1.28,1.28,0,0,0-.53-.09c-.45,0-1,.32-1.37,1.25v3.49h-.91Z"/><path class="cls-2" d="M270.78,59.47a1.51,1.51,0,0,1,.8-1.22v0a1,1,0,0,1-.5-.89,1.32,1.32,0,0,1,.61-1v0a1.91,1.91,0,0,1-.71-1.46,1.93,1.93,0,0,1,2-1.94,2.24,2.24,0,0,1,.76.14h1.89v.7h-1.11a1.55,1.55,0,0,1,.44,1.12,1.86,1.86,0,0,1-2,1.89,1.89,1.89,0,0,1-.81-.19.81.81,0,0,0-.35.65c0,.35.22.59.95.59h1.06c1.26,0,1.9.4,1.9,1.28s-1.07,1.88-2.75,1.88C271.69,60.93,270.78,60.41,270.78,59.47Zm4.1-.27c0-.5-.39-.67-1.11-.67h-.94a3.05,3.05,0,0,1-.7-.09,1.12,1.12,0,0,0-.55.91c0,.58.59,1,1.57,1S274.88,59.76,274.88,59.2Zm-.7-4.39a1.16,1.16,0,1,0-2.32,0,1.17,1.17,0,1,0,2.32,0Z"/><path class="cls-2" d="M614.1,30c-.42.36-1.12.45-4.78,1.08a3.7,3.7,0,0,0-.73.3,7.29,7.29,0,0,0-2.65.87c-.17.09-.38.57-.45,1.46.25.3.38.27.69.27a33,33,0,0,0,4.56-.82c1.14.25,1.67,2,1.67,2.91a6.57,6.57,0,0,1-.14.72c-.14.39-.83.7-1.66.78-3.94.36-5.78.67-6.23,1a1.44,1.44,0,0,0-.23.74c0,.93,2,1.17,2.31,1.17,1.22,0,1.83-.66,2.28-.66s1.63,1.3,1.63,2.76c0,1-.56,2.52-3,2.52a11.56,11.56,0,0,1-5.25-1.83s.06-.39-.75-1a9,9,0,0,1-.77-3.38c0-2.81,1.39-4.67,1.58-5.75l-.92-1.28a1.33,1.33,0,0,1-.3-1.05c0-2.18,1.43-2.59,1.5-2.59h.5a6.29,6.29,0,0,0,1.21-.68l.78-.06c.46-.06,5.71-1.41,6.76-1.41.83,0,1.16.14,1.49.65a8.71,8.71,0,0,1,1.11,2.55A1.52,1.52,0,0,1,614.1,30Z"/><path class="cls-2" d="M616.7,38.52a1.93,1.93,0,0,0-.28.82c0,.33,1.18.87,2.29.92,3.25.17,2.83-1.33,3.78-.86.62.31,1.17,1.88,1.17,2.79,0,2.1-2,2.7-3.86,2.7a11.4,11.4,0,0,1-4.71-1.17s-1.91-2.38-1.91-4.09a22.58,22.58,0,0,1,2.19-8.47s.17-1.13.27-1.86.68-1,1.14-1.52a69.81,69.81,0,0,1,8.88-1.59c.75-.08,1.68,1,2.18,2.53.09.28-.06,1.38-.43,1.49-.22.07-.82.14-5.61.64a5.34,5.34,0,0,0-2,.47,5.38,5.38,0,0,0-1.22,1.9c-.11.42.1.64.64.59a14.08,14.08,0,0,0,4.42-1.38c.91,0,1.76,1.2,2,2.52a1.66,1.66,0,0,1-.3,1.56,9.6,9.6,0,0,1-3.17,1,3.84,3.84,0,0,1-1.15.07c-.1,0-.37.18-.52.2C618.66,38.05,617,38.21,616.7,38.52Z"/><path class="cls-2" d="M671.17,28.24c0,1-.29,1.63-.64,1.76-1.54.59-6.72,1.33-9.11,2.13a3.22,3.22,0,0,0-1.21,1.95c0,.26.3.35.74.29,3.46-.45,4.06-.75,5.5-1.4a1.23,1.23,0,0,1,.79.26,3.85,3.85,0,0,1,.83,2.59,1.71,1.71,0,0,1-1.69,1.8c-1.79.27-5.9.88-7.11,1a2.07,2.07,0,0,0-1,.31c-.54.78-.33,2.42,3.36,1.61,1.55-.34,1.86-.91,2.74-.91a.83.83,0,0,1,.22,0,2.82,2.82,0,0,1,.92,2.44,2.7,2.7,0,0,1-1.62,2.61,4.26,4.26,0,0,1-.53.14c-.05,0-.55.29-.78.35a5.8,5.8,0,0,1-1.38.21c-2.53,0-6.56-1.17-6.56-5.84,0-4.25,2.88-7.21,3.65-10a3,3,0,0,0,.38-.49c.06-.48.49-1.61,1-1.67a62.24,62.24,0,0,0,9.19-2.24.87.87,0,0,1,.82.1A4,4,0,0,1,671.17,28.24Z"/><path class="cls-2" d="M600.08,40.48c-.75-.85-3.17-2.18-4-3,.36-.41,2.31-3.14,2.31-5.31,0-3.05-2.22-6.72-5.2-6.72,0,0-.87,0-1.93.1-.19.3-.82.23-.82.23-1,.47-2,1.26-2,3.79,0,.45.63.92,1,1.27A13.35,13.35,0,0,1,588.7,34c-.14.35-1.1.48-1.1.48l-.51.66c-.33,2,0,2.19.68,3.08.09,1-.31,2.83-.31,3.85,0,.73.28.65.13,1.41a.75.75,0,0,1,.17.3,2.29,2.29,0,0,0,2,1.46,1.16,1.16,0,0,0,1.24-1c0-.87-.22-3.53-.2-3.77a2.71,2.71,0,0,1,.42-1.31c.57,0,3.12,2.32,5.3,4.54a2.46,2.46,0,0,0,1.56.67c1.33,0,1.87-1.49,2.25-1.83A2.29,2.29,0,0,0,600.08,40.48Zm-7.6-5.89a.79.79,0,0,1-.55-.11s.67-3.93.73-4.78a1.66,1.66,0,0,1,2.19,1.51C594.85,32.29,594.36,33.58,592.48,34.59Z"/><path class="cls-2" d="M654.67,26.5l-.95-.28-.49-.25a27.53,27.53,0,0,0-5.38-.19,6.71,6.71,0,0,1-1.13-.22,7.28,7.28,0,0,1-1.45.65,3.12,3.12,0,0,1-.66-.2,11.14,11.14,0,0,0-3.51,1,2.27,2.27,0,0,0-.79.93l0,0c0,.07-.15.19-.16,0h0a3.42,3.42,0,0,0-.09-.53,2.44,2.44,0,0,0-2-1.58c-.27,0-.85.3-.9.63s-.11,2.27-.3,4.07a29.63,29.63,0,0,1-.37,4.7c-.07,0-.31.11-.39,0-.85-1.28-3.08-3.5-3.27-5s.05-3.49-.65-4.05a5.66,5.66,0,0,0-1.94-.58,1.5,1.5,0,0,0-1.21.57l-.05.41-.39.59a9.92,9.92,0,0,0-.22,2.43l.32,1.67a1.25,1.25,0,0,1-.3.72l.09,1.29c0,1.45-1.33,6.43-1.33,7.94,0,3.37,2.95,3.09,3.12,2.95a3.11,3.11,0,0,0,.65-1.11c.2-2,.41-5.39,1-6.39.1-.2.39-.3.53-.17a8.91,8.91,0,0,1,1.06,1.54c.52.75,2.05,2.6,2.34,4.27,0,.14,0,.48,0,.74A3,3,0,0,0,636.9,45a2.83,2.83,0,0,0,1.61.19c.56-.1,1.58-.21,1.58-2.84a19.43,19.43,0,0,0-.26-2.73,76.39,76.39,0,0,0,.4-7.79,6,6,0,0,1-.28-.63,4.79,4.79,0,0,0,.18-.87h0c0-.11.08-.18.12-.1h0a1.28,1.28,0,0,0,.11.2,1.55,1.55,0,0,0,1.3.65c.94,0,2.16-1.1,3-.9.12,0,.24-.18.91-.24a21.79,21.79,0,0,1-.09,2.51c0,.56-.31.69-1.36.69a.84.84,0,0,0-.73.54,10.63,10.63,0,0,0-.41,2.19,2.73,2.73,0,0,0,2,2.18c.07.35-.26,3-.26,4.35a3.93,3.93,0,0,0,.37,2,3.67,3.67,0,0,0,1.76.77,1.74,1.74,0,0,0,1.27-.54,2.61,2.61,0,0,0,.23-1.14c.07-3.06.42-6.29.8-6.4a16.94,16.94,0,0,0,5.44-2.55A5,5,0,0,0,656.76,31,6.29,6.29,0,0,0,654.67,26.5Zm-5.4,6.12c-.23,0-.38-.07-.44-.26a12.37,12.37,0,0,1-.31-2.89c.8-.16,4.32.05,4.32,1S650.47,32.63,649.27,32.62Z"/><path class="cls-2" d="M586.56,37.41a7.33,7.33,0,0,0-.92-2.81,2.15,2.15,0,0,0-1.78-.68c-.46,0-8.32,1.21-9.31,1.82-.47.29-.65,1-.65,1.93a1.91,1.91,0,0,0,1.15,2c.58,0,4.57-.78,6-1,.3-.06.41.06.41.18a1.56,1.56,0,0,1-.26.93A4.71,4.71,0,0,1,579.09,41c-1.14-.22-2.09.75-3.23.19-.49,0-1.19.35-1.53-.2a7.47,7.47,0,0,1-3.27-1.09,1.47,1.47,0,0,1-.44-1.18c0-1.24,1.85-4.41,5-7.36.65-.61,3-2.32,4-2.32.68,0,.92,1.53,1.47,2.12a1.23,1.23,0,0,0,1,0c.6-.26,1.07-.58,1.07-1.29A5.81,5.81,0,0,0,582,26.34a5.08,5.08,0,0,0-2.48-1.06c-1.32,0-1.94.78-2.42.8a16.69,16.69,0,0,0-3.28,2.66.9.9,0,0,1-.35.19,2.9,2.9,0,0,1-.31.71c-.08,0-.76.5-.76.5-.9.87-4.79,5.72-4.79,7.54a9,9,0,0,0,1.55,4.47,10.66,10.66,0,0,0,7,2.26,10.86,10.86,0,0,0,4.61-1.14h0c.14-.08.24-.07.22.08s0,.42-.06.61-.11,1.23-.11,1.92a2.86,2.86,0,0,0,.66,2.15,4.7,4.7,0,0,0,1.84.4,1.65,1.65,0,0,0,1.37-1.58c0-.63-.07-1.47-.06-1.68C585,39.78,586.56,38.3,586.56,37.41Z"/><path class="cls-2" d="M715.05,28.37a3.65,3.65,0,0,0-2.15-2.69c-.76.17-7.06,1.38-11.2,1.92-.57.07-1.27.1-1.27.1l-.47.24a3,3,0,0,0-1.22.36,3.59,3.59,0,0,0-1.45,2.34l.08,1.08c-1.28,2.54-2.14,4.59-2.14,7.35a1.09,1.09,0,0,0,0,.18c0,.2,0,.3-.08.25a3.09,3.09,0,0,0-.23-.31c-.5-.57-.66-.64-.89-.64-.68,0-1.19,1.27-3.48,1.27-2,0-5.91-2.15-5.91-3.28,0-2.47,3.29-5.56,5.74-5.56.43,0,.54.12.54.41,0,.49-.36,1.26-.36,1.74,0,1.18,1.77,2,2.71,2,.27,0,2.18-.7,2.18-3.49,0-1.63-1.19-4.33-3.15-4.33a17.52,17.52,0,0,0-8.64,3,1.66,1.66,0,0,1-.35.51,9.79,9.79,0,0,1-.81.61,10.91,10.91,0,0,0-1.22,2.12c0,.11-.1.25-.15.39h0c-.1.28-.28.38-.31.21a5.5,5.5,0,0,1-.05-.56,19.42,19.42,0,0,0-.34-2.47s-.27-.74-.34-1.08c0-.1,0-.51,0-.51a7.64,7.64,0,0,0-2.11-3.73c-.9-.32-1.12-.41-1.51-.16-1.53,1-3.33,3.95-6.09,9a4.77,4.77,0,0,1-1.07.88,3.77,3.77,0,0,1,0,1.42c-.55,1.75-2.14,4-2.07,4.4l.09.54-.06.63a3.15,3.15,0,0,0,2.31,1.88l.24,0c1.06-.94,1.36-2.77,2.3-4.3.11-.17.14-.2.4-.29a12.72,12.72,0,0,1,2.37-.5,3,3,0,0,1,1,0l.47-.16c.44,0,.67.11.67.46a24.61,24.61,0,0,0,.16,3.67c.18.83,1,1.39,2.47,1.51a1.59,1.59,0,0,0,1-.93,9.65,9.65,0,0,0,.11-3c0-1.43,0-2.29.08-2.75,0-.16.15-.21.2-.06h0a5.24,5.24,0,0,0,.75,1.38,13.78,13.78,0,0,0,9.6,5.2,3.64,3.64,0,0,0,3.8-2.55c.15-.39.25-.72.31-.91s.1,0,.15.06h0a4.66,4.66,0,0,0,.48.7c1.54,1.94,3.73,2.55,6.49,2.13,3.08-.46,3.5-.78,3.76-1.12a4.07,4.07,0,0,0,.65-2.06,1.77,1.77,0,0,0-.31-1.5c-.48-.47-2,0-3.9.34-2.58.44-3.67-.65-3.64-1s.12-.6.39-.67a2.71,2.71,0,0,1,1,.1,18.54,18.54,0,0,1,2.61-.28c.4,0,.86.06,1,.07,0,0,1.69-.13,2.7-.33a1.65,1.65,0,0,0,1.23-1,3.29,3.29,0,0,0-.15-2c-.71-1.47-1.55-1.63-1.73-1.59a17.24,17.24,0,0,1-5.11.59c-.29,0-.47-.36-.45-.59a2.48,2.48,0,0,1,1.58-1.78c1.93-.38,7.67-.95,9.77-1.05,1.32-.07,2.71.33,3-.11A3.41,3.41,0,0,0,715.05,28.37Zm-37.92,6c-.15.31-1.07.53-2.62.55-.07,0-.14-.13-.11-.22a29.37,29.37,0,0,1,2.05-4.23.69.69,0,0,1,.54.21A8.86,8.86,0,0,1,677.13,34.33Z"/><path class="cls-2" d="M722.67,38.93c.83.92,1.51.16,2.49-.37l.9-.39a.43.43,0,0,0,.07.24c.24.31.56.11,1,0a1.15,1.15,0,0,0,.68-.34,4.15,4.15,0,0,0,.33-.52c.11-.2,0-.74,0-.74a2,2,0,0,0-.22-.93.9.9,0,0,0-.73-.34c-.26,0-.28-.08-.51-.11a.43.43,0,0,0-.36.12s0,.43-.08.83l-.14,0c-.42.14-.48.18-1.19.4l1.22-1.45L727.32,34c.54-.79.55-.78.54-1.11,0-.6-.3-1.09-1.48-1.17a5.19,5.19,0,0,1-1.14-.2c.23-.34,1.53-1.46,2.26-2.18A5.31,5.31,0,0,0,728.78,27s-.09-.36-.1-.38-.28-1-1-1.19a1.18,1.18,0,0,0-1.22.12l-.06.06v.09s-.35.9-.62,1.42a11.7,11.7,0,0,1-1.63,2.39s-1.13,1.26-1.54,1.6-.44.69-.31,1.3.49.57.86.6a10.79,10.79,0,0,1,2,.18,8.79,8.79,0,0,1-1.07,1.65c-.76,1-1.39,1.64-1.94,2.29a1,1,0,0,0,0,1A3.19,3.19,0,0,0,722.67,38.93ZM742,42.64c-.23-.68-.1-.56-.59-1l-.58-.54A12.1,12.1,0,0,0,739.31,40l-.48-.11c-.28-.15-.69.08-.81.12s-.72-.1-.73.09-.31.18.38.74a23.17,23.17,0,0,1,1.72,2.28l.79,1.08a.74.74,0,0,0,.75,0l.51-.32C741.66,43.5,742.05,42.88,742,42.64Zm-7.63-1.83c.22-.31,0-.85,0-1l0-.39-.39-.08a16.22,16.22,0,0,1-1.94,1.16,11.74,11.74,0,0,1-2,.88s-.8.14-.83.38a2.32,2.32,0,0,0,.74,1.36,2.82,2.82,0,0,0,1.43.37c.29,0,.28-.2,1.07-.79l.73-.84C733.68,41.44,734.12,41.13,734.34,40.81ZM738,39.17l.57-.09c.13,0,.33-.27.9-.63l1.1-.58c.34-.36,1-.8.92-1.12a1.31,1.31,0,0,0-.79-.86l-.48-.27a1.45,1.45,0,0,0-1-.15l-.08,0s-.26.43-.28.48a11.9,11.9,0,0,1-1.5,1.55l-.19.13.12-1.31a7.61,7.61,0,0,1,.07-.83,17.31,17.31,0,0,1,1.86-.33c.54-.09,1-.12,1.57-.25,0,0,.79-.1.79-.76,0-.41-.78-1.26-.87-1.41-.25-.43-1.69,0-2.23,0l-1.76.44c.35-.36.27-.4,1.23-1.44a15,15,0,0,0,2-1.93c.19-.28,0-.58-.34-.93a6.14,6.14,0,0,1-.5-.61,3.51,3.51,0,0,1-.24-.47c-.26-.37-.62-.6-.85-.53a10.28,10.28,0,0,1-1.41.4h-.11a4.68,4.68,0,0,0,.31-1.38s-.11-.34-.12-.36-.84-1.32-1.09-1.37a.88.88,0,0,0-1.06.43l-.06.07v.09s-.27.92-.49,1.46a11.9,11.9,0,0,1-1.38,2.5s-1.14,1.65-1.5,2-.37.71-.21,1.31.44.68.8.69c1.39-.32,2.12-.54,2.49-.59l.55-.15c-.09.11-.17.23-.25.34s-.5.64-.88,1.11l-.9.17c-1.57.27-2.31.56-3.59.68a1.86,1.86,0,0,0-.55.66c-.41.64.71,1.38,1,1.67l1.27-.29a.41.41,0,0,0-.11.07l-.22.5,0,.16a1.06,1.06,0,0,0,0,.72c.08.28.36.39.62.51l.39.19a3.19,3.19,0,0,0,1.21.47,1.57,1.57,0,0,0,1.18-.56,1,1,0,0,0,.22-.74c0-.16.17-.16-2.73-1.34h0a.76.76,0,0,0-.24-.07l1.48-.35a21.14,21.14,0,0,1,2.59-.59c.31-.27-.06,1.35,0,2.1s-.3,2.8-.51,4.47a4.48,4.48,0,0,1-.28.92,2,2,0,0,1-.86.65,2.12,2.12,0,0,1-.53.13,6.64,6.64,0,0,0,.91,1.11s.54.48,1,.25a3.68,3.68,0,0,0,1.41-1c.18-.37.38-1,.38-1l.24-2.69A14.88,14.88,0,0,1,737,39C737.08,38.5,737.52,39.28,738,39.17Zm-1.72-8.75a2.25,2.25,0,0,1-1.18.4c-.64.08-1,.11-1,.05a10.29,10.29,0,0,1,.84-1.07.55.55,0,0,0,.57,0,7,7,0,0,1,1.21-.29c.14,0,0,.21,0,.33A6.45,6.45,0,0,1,736.27,30.42ZM723.65,42.61a.39.39,0,0,0-.13-.39l-.08.15a.32.32,0,0,1-.21.1c-.12,0-.14-.17-.14-.17l-.26-.85-.15-.68a.35.35,0,0,0-.19-.34c-.22-.12-.5.08-.5.08a6.46,6.46,0,0,0-.72,1.27A6.39,6.39,0,0,0,721,43.2a.92.92,0,0,0,.64.91,6.74,6.74,0,0,0,1.15.09l.71,0c.23,0,.21-.32.13-.63A1.76,1.76,0,0,1,723.65,42.61Zm2.23-2.47c-.14-.15-1.07-.18-1.07-.18l-.2.43s-.42.36-.42.68.14,1.21.14,1.21a.87.87,0,0,0,.55.53,1.51,1.51,0,0,0,.9-.16h.41a.36.36,0,0,0,.41-.46A8.18,8.18,0,0,0,725.88,40.14Zm2.44-.94c-.26-.06-.36-.05-.68-.11a1.53,1.53,0,0,0-.7.11v.11a.6.6,0,0,1,.19.39c0,.22-.13,1.15-.13,1.15s0,.49.16.63a2.79,2.79,0,0,0,.8.23l.54-.08a1.72,1.72,0,0,0,.47-.18c.16-.11.12-.9,0-1.45S728.57,39.25,728.32,39.2Z"/><path class="cls-2" d="M767.7,37.71,766.22,37l-.36-.35,0-.41.45-1.14-.1-.56,2.29-1,.13-.06.07-.82v0s-.27-.33-.72-1c-.35-.48-1.6.29-1.76.4l-.09,0,0-.43.07-1.05a3.81,3.81,0,0,0,0-.78c0-.17-.3-.38-.46-.5.83-.33,2.62-1.08,2.78-1.49s-1.07-1.57-1.85-2.08a1.78,1.78,0,0,0-.82-.18l-.58.18L764,26.86c-1,.7-2.79,1.95-3.3,2.27a1.46,1.46,0,0,0-.52.47l0,.17.1.24c.26.2,1,.95,1.45.95a11.64,11.64,0,0,0,1.86-.69c0,.59-.11,1.6-.17,2.71-2,.8-3.93,1.47-4.63,1.68s-1.07.27-1.7.45c-.2.06-.3.93-.3.93a3.24,3.24,0,0,0,.15.89c.18.5,1,.59,1.42.77.61.27,2.52-.81,3.85-1.39l.63-.27c-1,1.54-2.24,3.19-2.7,3.74a9.59,9.59,0,0,1-1.25,1.33,7.38,7.38,0,0,1-.77.53c-.09,0-.11.35.06.53l.65.37a3.46,3.46,0,0,0,1.26.25,3,3,0,0,0,1.37-.68l.78-.78a12.72,12.72,0,0,0,.82-1.15c-.12,2-.32,4.4-.32,4.44l-.09.57.17.08a1.7,1.7,0,0,0,2.64-1.62l.26-4,1.69,1.51a1,1,0,0,0,.6.11,2.78,2.78,0,0,0,.89-1.28C769.16,38.9,768.69,38.43,767.7,37.71Z"/><path class="cls-2" d="M776.44,32.84a2.09,2.09,0,0,0-2.08-.34l-3.21.86a1,1,0,0,0-.3-.27l-.76-.59-.37-.1-1.19.17,0,.54s.59,4.31.61,5,.28,2.73.29,2.81v0l0,.31a.85.85,0,0,0,1,.38c.31-.09,1.13-.26,1.41-.7l.06-.1a4.17,4.17,0,0,0,1.39.81,2.61,2.61,0,0,0,1.55-.42l.9-.54c1.53-.86,2.55-3.62,2.7-4.65S777.57,33.59,776.44,32.84Zm-1.35,4.58a4.22,4.22,0,0,1-2,1.35l-1,.14c-.11-.94-.28-2.09-.43-3,.59-.18,1.59-.51,1.84-.63a1.69,1.69,0,0,1,1.67-.07,4.71,4.71,0,0,1,.56.72C776,36.44,775.46,36.88,775.09,37.42Z"/><path class="cls-2" d="M780.36,31l-.37.51,0,.51.82,2.17c.17.42,1,1.44,1.44,1.44s2.11-.89,1.92-1.12c0-.09-1.25-3.28-1.25-3.28l0,0a1.62,1.62,0,0,0-1.07-.57A6.73,6.73,0,0,0,780.36,31Z"/><path class="cls-2" d="M792,28.78l.06.27-1.22,1.74a8.19,8.19,0,0,1-1.37,1.56l-.07.06-.33.93.43.67a3.12,3.12,0,0,0,1.44.41c.63-.08,2.11-1.72,2.43-1.94,1-.71,1.65-1.27,1.62-1.79,0,0,.42-.91-1.46-1.61A4.5,4.5,0,0,0,792,28.78Z"/><path class="cls-2" d="M796.4,36.12l-.44-.53a2.35,2.35,0,0,0-1.36-1l-.9.39-1.4.24c-.25,0-2.2.26-3.88.48v-.36l0-.74v-1l0-1,.06-1.44-.07-.37V30a7.24,7.24,0,0,0-.36-1.27c2.08-.36,4.38-.83,4.8-.91l.07,0,.06,0s.66,0,.5-.87A5.15,5.15,0,0,0,792,25.1c-.54-.3-.72,0-2.68.4-.58.14-3,.63-4.1.8-1.69.26-4.52.46-4.55.46l-.38,0,.15.31a10.08,10.08,0,0,0,1,1.79c.43.46,2,.19,3.09.28a6.35,6.35,0,0,0,1-.06l0,.57s.07.86,0,1.73a10.78,10.78,0,0,1,0,1.87,14.13,14.13,0,0,0-.1,1.44c0,.84,0,.89,0,1.31a.74.74,0,0,1,0,.15c-1.38.2-5.16.65-5.2.65l-1,.13a2.31,2.31,0,0,0-.91.4c-.26.27-.13.77,0,1.25l.06.23c.13.53.7,1,1,1l1.07.09c.69-.19,3.6-.91,4.73-1.13-.06.73-.12,1.58-.14,2.61,0,1.53-.28,3.46-.29,3.57a1.64,1.64,0,0,0,.17.91l.3.4.93.35a1.72,1.72,0,0,0,1.07,0c.63-.48.61-1.54.65-1.77s.36-2.68.43-4.6V38.41l3-.35,3.75-.09c.08,0,1.37.19,1.46-.31A3.24,3.24,0,0,0,796.4,36.12Z"/><path class="cls-2" d="M747.15,40.31c0,.17.83.41,1.1.37.81-.11.16-.06.75-.32a14.28,14.28,0,0,1,1.52-.45s1-.2,1.16-.27a12.75,12.75,0,0,0,1.7-.45l.07,0,.33.31c.37.39.94-.54,1.31-.91a3.7,3.7,0,0,0,.75-1.3,22.74,22.74,0,0,0,.93-3.22,3.13,3.13,0,0,0,0-.35,2.23,2.23,0,0,0-.86-1.35c-.19-.12-.54-.69-.83-.61-.46.13-2,.58-3.79,1.12l.73-.67a11.19,11.19,0,0,0,1-1.08c.17-.22.68-.71.67-1.05a4.15,4.15,0,0,0-.75-1.8c-.18-.31-.94-.23-1.47.06-.82.17-1.34.51-2.06.63.24-.4,1-1.36,1-1.36a.58.58,0,0,0,.13-.44,6.21,6.21,0,0,0-.26-.73c0-.05-.31-.27-.74-.71-.8-.8-1.19-.45-1.31-.43l-.17.19-1,2c-.21.49-1.41,2.43-1.81,3.13-.3.53-.8,1.21-1.13,1.71-.22.34.1.48.6.84a2.35,2.35,0,0,0,1.82,0,11.48,11.48,0,0,0,1.53-2.07,17.37,17.37,0,0,1,2.66-.69c.13,0-.33.57-.84,1.08A15.94,15.94,0,0,1,746,34.18l-1.32.68-.56.18-1.12.34s-.66.15-.67.39a2.55,2.55,0,0,0,.7,1.45,5.7,5.7,0,0,0,1,.57l1.32-.58a11,11,0,0,0-.35,1.06c-.15.53-.12.79-.31,1.69a7,7,0,0,0-.28,1.86c.11.9,1,1.44,1.33,2a4.14,4.14,0,0,0,1.66,1,8.5,8.5,0,0,0,4.82.18,7.68,7.68,0,0,0,3.17-1.29,4,4,0,0,0,.41-2.23c-.09-.28-.81-1.69-.94-1.37a2.38,2.38,0,0,1-1.08,1,9.46,9.46,0,0,1-1.94.82c-1.11.35-2.7.78-3.55.42-1.17-.49-1.42-.91-1.4-1.8A4.32,4.32,0,0,1,747,40,.89.89,0,0,1,747.15,40.31Zm2.39-3.79c-.13.37-.32,1.15-.43,1.64l-.27.09a17.26,17.26,0,0,0-1.65.64c.17-.87.4-1.86.61-2.62l0-.07,1.88-.56A3.23,3.23,0,0,1,749.54,36.52ZM751.7,35l1.1-.33A7,7,0,0,1,754,34.4c.34,0,.18.77,0,1.39a2.3,2.3,0,0,1-.51,1.1,2.74,2.74,0,0,0-1.15.12c-.28.08-.57.18-.87.29a7,7,0,0,1,.31-1A2.94,2.94,0,0,0,751.7,35Z"/></g></g></svg>