<svg xmlns="http://www.w3.org/2000/svg" viewBox="0 0 845.49 73.03"><defs><style>.cls-1{fill:#7fbe26;}.cls-2{fill:#fff;}</style></defs><g id="圖層_2" data-name="圖層 2"><g id="Back"><rect class="cls-1" width="845.49" height="73.03"/><path class="cls-2" d="M30.35,21.3c0-3.42,2.21-5.43,5-5.43a4.39,4.39,0,0,1,3.21,1.33l-1.09,1.32a2.79,2.79,0,0,0-2-.87c-1.72,0-2.93,1.35-2.93,3.57s1,3.62,3.09,3.62a2.05,2.05,0,0,0,1.28-.39V22.4H35V20.71h3.68v4.68a4.91,4.91,0,0,1-3.36,1.24C32.51,26.63,30.35,24.76,30.35,21.3Z"/><path class="cls-2" d="M40.74,18.59h1.68L42.57,20h0a2.75,2.75,0,0,1,2.23-1.59,2.37,2.37,0,0,1,.93.17l-.35,1.78a2.78,2.78,0,0,0-.83-.12c-.62,0-1.36.4-1.79,1.54v4.68H40.74Z"/><path class="cls-2" d="M46.18,22.51a3.85,3.85,0,0,1,3.66-4.12c2.16,0,3.28,1.59,3.28,3.75a4.15,4.15,0,0,1-.1.95H48.19a2,2,0,0,0,2.17,2,3.23,3.23,0,0,0,1.76-.55l.7,1.26a4.87,4.87,0,0,1-2.73.87A3.81,3.81,0,0,1,46.18,22.51Zm5.17-.79c0-1.06-.47-1.73-1.48-1.73a1.76,1.76,0,0,0-1.71,1.73Z"/><path class="cls-2" d="M54.32,22.51A3.85,3.85,0,0,1,58,18.39c2.16,0,3.28,1.59,3.28,3.75a3.65,3.65,0,0,1-.1.95H56.32a2.06,2.06,0,0,0,2.17,2,3.27,3.27,0,0,0,1.77-.55l.7,1.26a4.9,4.9,0,0,1-2.74.87A3.81,3.81,0,0,1,54.32,22.51Zm5.17-.79C59.49,20.66,59,20,58,20a1.77,1.77,0,0,0-1.71,1.73Z"/><path class="cls-2" d="M62.94,18.59h1.68l.16,1h0a3.61,3.61,0,0,1,2.55-1.24c1.69,0,2.42,1.18,2.42,3.16v4.89H67.73V21.8c0-1.22-.33-1.64-1.1-1.64A2.22,2.22,0,0,0,65,21v5.4H62.94Z"/><path class="cls-2" d="M71.92,18.59H73.6l.15.81h0a3.73,3.73,0,0,1,2.31-1c1.94,0,3.09,1.59,3.09,4,0,2.69-1.62,4.24-3.34,4.24a3,3,0,0,1-1.95-.85L74,27.07v2.38h-2Zm5.15,3.83c0-1.5-.48-2.33-1.56-2.33A2.2,2.2,0,0,0,74,20.9v3.45a2.17,2.17,0,0,0,1.42.59C76.34,24.94,77.07,24.12,77.07,22.42Z"/><path class="cls-2" d="M80.44,22.51a3.85,3.85,0,0,1,3.66-4.12c2.15,0,3.27,1.59,3.27,3.75a4.26,4.26,0,0,1-.09.95H82.44a2.06,2.06,0,0,0,2.18,2,3.23,3.23,0,0,0,1.76-.55l.7,1.26a4.87,4.87,0,0,1-2.73.87A3.81,3.81,0,0,1,80.44,22.51Zm5.17-.79c0-1.06-.48-1.73-1.49-1.73a1.76,1.76,0,0,0-1.7,1.73Z"/><path class="cls-2" d="M88.48,24.31c0-1.68,1.36-2.57,4.52-2.9,0-.77-.38-1.36-1.34-1.36a4.44,4.44,0,0,0-2.16.74l-.74-1.36a6.28,6.28,0,0,1,3.28-1c2,0,3,1.2,3,3.46v4.59H93.37l-.14-.85h-.06a3.69,3.69,0,0,1-2.37,1A2.22,2.22,0,0,1,88.48,24.31ZM93,24.25V22.67c-1.92.24-2.56.77-2.56,1.47s.43.88,1,.88A2.13,2.13,0,0,0,93,24.25Z"/><path class="cls-2" d="M96.65,22.51a3.92,3.92,0,0,1,4-4.12,3.43,3.43,0,0,1,2.28.87l-1,1.33a1.79,1.79,0,0,0-1.19-.51c-1.2,0-2,1-2,2.43s.83,2.44,2,2.44a2.48,2.48,0,0,0,1.53-.63l.82,1.36a3.93,3.93,0,0,1-2.57.95C98.31,26.63,96.65,25.12,96.65,22.51Z"/><path class="cls-2" d="M103.61,22.51a3.85,3.85,0,0,1,3.66-4.12c2.15,0,3.27,1.59,3.27,3.75a4.26,4.26,0,0,1-.09.95h-4.84a2.06,2.06,0,0,0,2.18,2,3.23,3.23,0,0,0,1.76-.55l.7,1.26a4.87,4.87,0,0,1-2.73.87A3.81,3.81,0,0,1,103.61,22.51Zm5.17-.79c0-1.06-.48-1.73-1.49-1.73a1.76,1.76,0,0,0-1.7,1.73Z"/><path class="cls-2" d="M115.58,16.06h6.36v1.73h-4.29v2.4h3.65v1.74h-3.65V24.7h4.44v1.74h-6.51Z"/><path class="cls-2" d="M123.63,24.31c0-1.68,1.36-2.57,4.53-2.9,0-.77-.38-1.36-1.35-1.36a4.44,4.44,0,0,0-2.16.74l-.74-1.36a6.31,6.31,0,0,1,3.28-1c2,0,3,1.2,3,3.46v4.59h-1.68l-.14-.85h-.06a3.67,3.67,0,0,1-2.36,1A2.22,2.22,0,0,1,123.63,24.31Zm4.53-.06V22.67c-1.92.24-2.57.77-2.57,1.47s.44.88,1,.88A2.15,2.15,0,0,0,128.16,24.25Z"/><path class="cls-2" d="M131.55,25.52l.94-1.28a3.45,3.45,0,0,0,2.1.85c.79,0,1.14-.33,1.14-.83s-.81-.85-1.64-1.17c-1-.38-2.1-1-2.1-2.3s1.13-2.4,2.93-2.4a4.37,4.37,0,0,1,2.66,1l-.93,1.25a2.87,2.87,0,0,0-1.68-.67c-.71,0-1.05.3-1.05.75s.73.79,1.56,1.1c1,.39,2.18.91,2.18,2.36s-1.08,2.48-3.12,2.48A5,5,0,0,1,131.55,25.52Z"/><path class="cls-2" d="M139.2,23.69V20.22h-1.11V18.69l1.22-.1.24-2.11h1.71v2.11h1.93v1.63h-1.93v3.47c0,.9.36,1.32,1.06,1.32a2.4,2.4,0,0,0,.77-.17l.34,1.5a5.1,5.1,0,0,1-1.65.29C139.91,26.63,139.2,25.44,139.2,23.69Z"/><path class="cls-2" d="M150.12,16.06h2.44l3.33,10.38h-2.17L153,23.77h-3.36l-.73,2.67h-2.1Zm0,6.1h2.46L152.23,21c-.32-1.08-.6-2.27-.89-3.39h-.07c-.27,1.13-.58,2.31-.88,3.39Z"/><path class="cls-2" d="M156.46,25.52l.94-1.28a3.43,3.43,0,0,0,2.1.85c.78,0,1.13-.33,1.13-.83s-.81-.85-1.64-1.17c-1-.38-2.1-1-2.1-2.3s1.14-2.4,2.93-2.4a4.32,4.32,0,0,1,2.66,1l-.92,1.25a2.9,2.9,0,0,0-1.68-.67c-.72,0-1,.3-1,.75s.72.79,1.55,1.1c1,.39,2.19.91,2.19,2.36s-1.08,2.48-3.13,2.48A4.92,4.92,0,0,1,156.46,25.52Z"/><path class="cls-2" d="M164,16.2a1.2,1.2,0,1,1,1.21,1.13A1.1,1.1,0,0,1,164,16.2Zm.17,2.39h2.06v7.85h-2.06Z"/><path class="cls-2" d="M168,24.31c0-1.68,1.35-2.57,4.52-2.9,0-.77-.38-1.36-1.34-1.36a4.44,4.44,0,0,0-2.16.74l-.74-1.36a6.28,6.28,0,0,1,3.27-1c2,0,3,1.2,3,3.46v4.59h-1.69l-.14-.85h-.05a3.69,3.69,0,0,1-2.37,1A2.22,2.22,0,0,1,168,24.31Zm4.52-.06V22.67c-1.92.24-2.56.77-2.56,1.47s.43.88,1,.88A2.13,2.13,0,0,0,172.52,24.25Z"/><path class="cls-2" d="M30.47,41.68H32.1V36.42H30.8v-.59a4.22,4.22,0,0,0,1.52-.52H33v6.37h1.47v.76h-4Z"/><path class="cls-2" d="M35.63,38.85c0-2.39.87-3.67,2.29-3.67s2.28,1.29,2.28,3.67-.86,3.72-2.28,3.72S35.63,41.24,35.63,38.85Zm3.68,0c0-2.09-.56-2.94-1.39-2.94s-1.4.85-1.4,2.94.56,3,1.4,3S39.31,40.94,39.31,38.85Z"/><path class="cls-2" d="M43.8,34.5h.66l-3,9.72H40.8Z"/><path class="cls-2" d="M45.61,35.1h4.23v.79h-3.3v2.48h2.8v.78h-2.8v3.29h-.93Z"/><path class="cls-2" d="M49.85,43.8a1.51,1.51,0,0,0,1-1.36h-.11a.63.63,0,0,1-.67-.64.65.65,0,0,1,.69-.64c.48,0,.77.41.77,1.08a2.21,2.21,0,0,1-1.46,2.08Z"/><path class="cls-2" d="M54.81,41.48l.56-.63a2.84,2.84,0,0,0,2,.91c1,0,1.54-.48,1.54-1.2s-.53-1-1.22-1.3l-1.06-.46A2,2,0,0,1,57.47,35a3,3,0,0,1,2.16.91l-.49.59a2.37,2.37,0,0,0-1.67-.69c-.83,0-1.37.42-1.37,1.08s.64,1,1.21,1.22l1,.45a2,2,0,0,1,1.51,2,2.21,2.21,0,0,1-2.49,2.08A3.5,3.5,0,0,1,54.81,41.48Z"/><path class="cls-2" d="M61.12,40.76v-3h-.81v-.69l.85-.05.11-1.53H62V37H63.5v.74H62v3c0,.67.21,1,.84,1a1.92,1.92,0,0,0,.62-.14l.18.68a3.42,3.42,0,0,1-1,.2C61.51,42.57,61.12,41.84,61.12,40.76Z"/><path class="cls-2" d="M64.17,39.73a2.63,2.63,0,0,1,2.45-2.86c1.38,0,2.16,1,2.16,2.55a3.55,3.55,0,0,1,0,.52H65.08a1.8,1.8,0,0,0,1.8,1.9,2.34,2.34,0,0,0,1.36-.43l.33.6a3.23,3.23,0,0,1-1.8.56A2.6,2.6,0,0,1,64.17,39.73ZM68,39.28c0-1.09-.5-1.68-1.35-1.68a1.67,1.67,0,0,0-1.56,1.68Z"/><path class="cls-2" d="M70.12,41.36V34.48H71v6.94c0,.28.12.39.26.39l.19,0,.13.7a1.4,1.4,0,0,1-.53.08C70.4,42.57,70.12,42.13,70.12,41.36Z"/><path class="cls-2" d="M72.9,40.45V37h.91v3.33c0,1,.3,1.44,1,1.44.56,0,1-.27,1.47-.92V37h.91v5.43h-.76l-.07-.85h0a2.33,2.33,0,0,1-1.8,1C73.41,42.57,72.9,41.83,72.9,40.45Z"/><path class="cls-2" d="M80.06,39.61,78.41,37h1l.73,1.19c.17.31.36.61.54.91h0c.17-.3.33-.6.49-.91L81.86,37h1L81.16,39.7,83,42.44H82l-.8-1.27c-.18-.33-.38-.66-.58-1h0c-.19.31-.37.64-.56,1l-.73,1.27h-1Z"/><path class="cls-2" d="M86.34,35.1h.93v3.08h3.42V35.1h.92v7.34h-.92V39H87.27v3.46h-.93Z"/><path class="cls-2" d="M93.13,39.73a2.54,2.54,0,1,1,5,0,2.54,2.54,0,1,1-5,0Zm4.1,0c0-1.25-.64-2.1-1.58-2.1s-1.57.85-1.57,2.1.63,2.08,1.57,2.08S97.23,41,97.23,39.73Z"/><path class="cls-2" d="M99.53,40.45V37h.91v3.33c0,1,.3,1.44,1,1.44.56,0,1-.27,1.47-.92V37h.91v5.43h-.76l-.07-.85h0a2.33,2.33,0,0,1-1.8,1C100,42.57,99.53,41.83,99.53,40.45Z"/><path class="cls-2" d="M105.06,41.82l.45-.6a2.46,2.46,0,0,0,1.61.64c.72,0,1.07-.38,1.07-.85s-.64-.8-1.24-1c-.76-.28-1.59-.65-1.59-1.57s.7-1.54,1.88-1.54a2.76,2.76,0,0,1,1.68.61l-.44.59a2,2,0,0,0-1.23-.48c-.69,0-1,.36-1,.78s.56.71,1.17.94c.79.3,1.66.62,1.66,1.65s-.7,1.61-2,1.61A3.28,3.28,0,0,1,105.06,41.82Z"/><path class="cls-2" d="M109.94,39.73a2.63,2.63,0,0,1,2.45-2.86c1.38,0,2.16,1,2.16,2.55a3.55,3.55,0,0,1,0,.52h-3.66a1.8,1.8,0,0,0,1.8,1.9,2.34,2.34,0,0,0,1.36-.43l.33.6a3.23,3.23,0,0,1-1.8.56A2.6,2.6,0,0,1,109.94,39.73Zm3.81-.45c0-1.09-.5-1.68-1.35-1.68a1.67,1.67,0,0,0-1.56,1.68Z"/><path class="cls-2" d="M115.5,43.8a1.51,1.51,0,0,0,1-1.36h-.11a.63.63,0,0,1-.67-.64.65.65,0,0,1,.69-.64c.48,0,.77.41.77,1.08a2.21,2.21,0,0,1-1.46,2.08Z"/><path class="cls-2" d="M120.53,39.15c0-2.87,1.29-4,2.72-4a2.25,2.25,0,0,1,1.71.75l-.51.57a1.55,1.55,0,0,0-1.17-.56c-1,0-1.85.77-1.89,3a2.3,2.3,0,0,1,1.67-.89,1.93,1.93,0,0,1,2,2.19,2.15,2.15,0,0,1-2.1,2.29C121.58,42.57,120.53,41.43,120.53,39.15Zm.88.57c.12,1.39.67,2.14,1.57,2.14.71,0,1.25-.63,1.25-1.58s-.44-1.51-1.32-1.51A1.87,1.87,0,0,0,121.41,39.72Z"/><path class="cls-2" d="M126.12,41.82l.51-.57a1.51,1.51,0,0,0,1.17.56c1,0,1.85-.78,1.89-3.06a2.27,2.27,0,0,1-1.67.92,1.94,1.94,0,0,1-2-2.21,2.15,2.15,0,0,1,2.1-2.28c1.41,0,2.46,1.14,2.46,3.43,0,2.86-1.29,4-2.71,4A2.24,2.24,0,0,1,126.12,41.82Zm2-2.83a1.93,1.93,0,0,0,1.5-1c-.12-1.38-.68-2.12-1.59-2.12-.7,0-1.24.62-1.24,1.56S127.28,39,128.17,39Z"/><path class="cls-2" d="M131.54,40.62a2.27,2.27,0,0,1,1.35-1.93v0a2,2,0,0,1-1-1.65,2,2,0,0,1,4,.07,2.35,2.35,0,0,1-1,1.72v.05a2.09,2.09,0,0,1,1.24,1.83,2,2,0,0,1-2.3,1.9A2.1,2.1,0,0,1,131.54,40.62Zm3.77,0c0-.93-.9-1.26-1.94-1.67a1.89,1.89,0,0,0-1,1.56,1.41,1.41,0,0,0,1.53,1.35A1.27,1.27,0,0,0,135.31,40.65Zm-.17-3.53a1.19,1.19,0,0,0-1.24-1.26A1.1,1.1,0,0,0,132.73,37c0,.86.79,1.22,1.65,1.56A1.94,1.94,0,0,0,135.14,37.12Z"/><path class="cls-2" d="M139.88,35.1H142c1.64,0,2.74.56,2.74,2.16s-1.09,2.27-2.7,2.27h-1.21v2.91h-.93Zm2,3.68c1.29,0,1.9-.47,1.9-1.52s-.65-1.4-1.94-1.4h-1.05v2.92Z"/><path class="cls-2" d="M146.12,37h.75l.08,1h0a1.87,1.87,0,0,1,1.54-1.13,1.16,1.16,0,0,1,.58.12l-.17.8a1.28,1.28,0,0,0-.53-.09c-.45,0-1,.32-1.37,1.25v3.49h-.91Z"/><path class="cls-2" d="M149.85,35.28a.61.61,0,1,1,.61.61A.57.57,0,0,1,149.85,35.28ZM150,37h.91v5.43H150Z"/><path class="cls-2" d="M152.75,37h.75l.08.78h0a2.6,2.6,0,0,1,1.82-.92c1.14,0,1.66.74,1.66,2.13v3.44h-.91V39.12c0-1-.31-1.45-1-1.45a2.07,2.07,0,0,0-1.49.83v3.94h-.91Z"/><path class="cls-2" d="M158.45,39.73a2.64,2.64,0,0,1,2.62-2.86,2.32,2.32,0,0,1,1.59.64l-.47.6a1.61,1.61,0,0,0-1.08-.48c-1,0-1.71.85-1.71,2.1s.68,2.08,1.68,2.08a1.91,1.91,0,0,0,1.28-.54l.4.61a2.63,2.63,0,0,1-1.76.69A2.55,2.55,0,0,1,158.45,39.73Z"/><path class="cls-2" d="M163.3,39.73a2.63,2.63,0,0,1,2.45-2.86c1.38,0,2.16,1,2.16,2.55a3.55,3.55,0,0,1,0,.52h-3.66a1.8,1.8,0,0,0,1.8,1.9,2.34,2.34,0,0,0,1.36-.43l.33.6a3.23,3.23,0,0,1-1.8.56A2.6,2.6,0,0,1,163.3,39.73Zm3.81-.45c0-1.09-.5-1.68-1.35-1.68a1.67,1.67,0,0,0-1.56,1.68Z"/><path class="cls-2" d="M171.57,35.1h4.23v.79h-3.3v2.3h2.78V39H172.5v2.67h3.41v.79h-4.34Z"/><path class="cls-2" d="M176.87,39.73c0-1.76,1.11-2.86,2.35-2.86a2.21,2.21,0,0,1,1.53.64l0-.94V34.48h.9v8h-.74l-.08-.64h0a2.42,2.42,0,0,1-1.65.77C177.75,42.57,176.87,41.54,176.87,39.73Zm3.84,1.33V38.21a2,2,0,0,0-1.33-.57c-.88,0-1.57.84-1.57,2.08s.54,2.09,1.5,2.09A1.9,1.9,0,0,0,180.71,41.06Z"/><path class="cls-2" d="M182.81,37h.93l.81,3.14c.11.52.22,1,.32,1.52h0c.12-.51.23-1,.37-1.52l.84-3.14H187l.85,3.14.38,1.52h0c.12-.51.22-1,.34-1.52l.8-3.14h.86l-1.46,5.43h-1.1l-.79-2.93c-.14-.51-.24-1-.37-1.56h0c-.12.55-.23,1.06-.37,1.58l-.76,2.91h-1.07Z"/><path class="cls-2" d="M191,41c0-1.18,1-1.77,3.34-2,0-.7-.23-1.37-1.12-1.37a3,3,0,0,0-1.63.58l-.36-.63a4.08,4.08,0,0,1,2.14-.71c1.32,0,1.88.89,1.88,2.23v3.34h-.75l-.08-.65h0a2.91,2.91,0,0,1-1.8.78A1.47,1.47,0,0,1,191,41Zm3.34.09V39.6c-1.83.22-2.45.67-2.45,1.37s.42.87,1,.87A2.22,2.22,0,0,0,194.37,41.12Z"/><path class="cls-2" d="M197,37h.75l.08,1h0a1.87,1.87,0,0,1,1.54-1.13A1.16,1.16,0,0,1,200,37l-.17.8a1.28,1.28,0,0,0-.53-.09c-.45,0-1,.32-1.37,1.25v3.49H197Z"/><path class="cls-2" d="M200.39,39.73c0-1.76,1.11-2.86,2.35-2.86a2.21,2.21,0,0,1,1.53.64l0-.94V34.48h.9v8h-.74l-.08-.64h0a2.42,2.42,0,0,1-1.65.77C201.27,42.57,200.39,41.54,200.39,39.73Zm3.84,1.33V38.21a2,2,0,0,0-1.33-.57c-.88,0-1.57.84-1.57,2.08s.54,2.09,1.5,2.09A1.9,1.9,0,0,0,204.23,41.06Z"/><path class="cls-2" d="M209.3,35.1h2.3c1.49,0,2.56.54,2.56,2.07a2,2,0,0,1-1.66,2.06l1.88,3.21h-1l-1.78-3.11h-1.32v3.11h-.93Zm2.16,3.48c1.15,0,1.78-.46,1.78-1.41s-.63-1.31-1.78-1.31h-1.23v2.72Z"/><path class="cls-2" d="M215.06,39.73a2.54,2.54,0,1,1,5,0,2.54,2.54,0,1,1-5,0Zm4.1,0c0-1.25-.64-2.1-1.58-2.1s-1.57.85-1.57,2.1.63,2.08,1.57,2.08S219.16,41,219.16,39.73Z"/><path class="cls-2" d="M221,41c0-1.18,1-1.77,3.34-2,0-.7-.23-1.37-1.12-1.37a3,3,0,0,0-1.63.58l-.36-.63a4.08,4.08,0,0,1,2.14-.71c1.32,0,1.88.89,1.88,2.23v3.34h-.75l-.08-.65h0a2.91,2.91,0,0,1-1.8.78A1.47,1.47,0,0,1,221,41Zm3.34.09V39.6c-1.83.22-2.45.67-2.45,1.37s.42.87,1,.87A2.22,2.22,0,0,0,224.37,41.12Z"/><path class="cls-2" d="M226.62,39.73c0-1.76,1.11-2.86,2.35-2.86a2.21,2.21,0,0,1,1.53.64l0-.94V34.48h.9v8h-.74l-.08-.64h0a2.42,2.42,0,0,1-1.65.77C227.5,42.57,226.62,41.54,226.62,39.73Zm3.84,1.33V38.21a2,2,0,0,0-1.33-.57c-.88,0-1.57.84-1.57,2.08s.54,2.09,1.5,2.09A1.9,1.9,0,0,0,230.46,41.06Z"/><path class="cls-2" d="M235.53,35.1h4.23v.79h-3.3v2.3h2.78V39h-2.78v2.67h3.41v.79h-4.34Z"/><path class="cls-2" d="M241,41c0-1.18,1-1.77,3.34-2,0-.7-.23-1.37-1.12-1.37a3,3,0,0,0-1.63.58l-.36-.63a4.08,4.08,0,0,1,2.14-.71c1.32,0,1.88.89,1.88,2.23v3.34h-.75l-.08-.65h0a2.91,2.91,0,0,1-1.8.78A1.47,1.47,0,0,1,241,41Zm3.34.09V39.6c-1.83.22-2.45.67-2.45,1.37s.42.87,1,.87A2.22,2.22,0,0,0,244.33,41.12Z"/><path class="cls-2" d="M246.36,41.82l.45-.6a2.46,2.46,0,0,0,1.61.64c.72,0,1.07-.38,1.07-.85s-.64-.8-1.24-1c-.76-.28-1.59-.65-1.59-1.57s.7-1.54,1.88-1.54a2.76,2.76,0,0,1,1.68.61l-.44.59a2,2,0,0,0-1.23-.48c-.69,0-1,.36-1,.78s.56.71,1.17.94c.79.3,1.66.62,1.66,1.65s-.7,1.61-2,1.61A3.28,3.28,0,0,1,246.36,41.82Z"/><path class="cls-2" d="M251.59,40.76v-3h-.81v-.69l.85-.05.11-1.53h.76V37H254v.74H252.5v3c0,.67.21,1,.84,1a1.92,1.92,0,0,0,.62-.14l.18.68a3.42,3.42,0,0,1-1,.2C252,42.57,251.59,41.84,251.59,40.76Z"/><path class="cls-2" d="M254.88,43.8a1.51,1.51,0,0,0,1-1.36h-.11a.63.63,0,0,1-.67-.64.65.65,0,0,1,.69-.64c.48,0,.77.41.77,1.08a2.21,2.21,0,0,1-1.46,2.08Z"/><path class="cls-2" d="M259.84,41.48l.56-.63a2.84,2.84,0,0,0,2,.91c1,0,1.54-.48,1.54-1.2s-.53-1-1.22-1.3l-1.06-.46A2,2,0,0,1,262.5,35a3,3,0,0,1,2.16.91l-.49.59a2.37,2.37,0,0,0-1.67-.69c-.83,0-1.37.42-1.37,1.08s.64,1,1.21,1.22l1.05.45a2,2,0,0,1,1.51,2,2.21,2.21,0,0,1-2.49,2.08A3.5,3.5,0,0,1,259.84,41.48Z"/><path class="cls-2" d="M265.92,41c0-1.18,1-1.77,3.34-2,0-.7-.23-1.37-1.12-1.37a3,3,0,0,0-1.63.58l-.36-.63a4.08,4.08,0,0,1,2.14-.71c1.32,0,1.88.89,1.88,2.23v3.34h-.75l-.08-.65h0a2.91,2.91,0,0,1-1.8.78A1.47,1.47,0,0,1,265.92,41Zm3.34.09V39.6c-1.83.22-2.45.67-2.45,1.37s.42.87,1,.87A2.22,2.22,0,0,0,269.26,41.12Z"/><path class="cls-2" d="M271.9,37h.75l.08.78h0a2.6,2.6,0,0,1,1.82-.92c1.14,0,1.66.74,1.66,2.13v3.44h-.91V39.12c0-1-.31-1.45-1-1.45a2.07,2.07,0,0,0-1.49.83v3.94h-.91Z"/><path class="cls-2" d="M280.33,35.1h2.1c1.64,0,2.74.56,2.74,2.16s-1.09,2.27-2.7,2.27h-1.21v2.91h-.93Zm2,3.68c1.29,0,1.9-.47,1.9-1.52s-.65-1.4-1.94-1.4h-1.05v2.92Z"/><path class="cls-2" d="M285.89,39.73a2.54,2.54,0,1,1,5,0,2.54,2.54,0,1,1-5,0Zm4.1,0c0-1.25-.64-2.1-1.58-2.1s-1.57.85-1.57,2.1.63,2.08,1.57,2.08S290,41,290,39.73Z"/><path class="cls-2" d="M294.68,35.1h.93v3.69h0l3.06-3.69h1l-2.29,2.8,2.65,4.54h-1l-2.2-3.82-1.26,1.5v2.32h-.93Z"/><path class="cls-2" d="M300.57,39.73a2.54,2.54,0,1,1,5,0,2.54,2.54,0,1,1-5,0Zm4.1,0c0-1.25-.64-2.1-1.58-2.1s-1.57.85-1.57,2.1.63,2.08,1.57,2.08S304.67,41,304.67,39.73Z"/><path class="cls-2" d="M307,37h.75l.08.78h0a2.6,2.6,0,0,1,1.82-.92c1.14,0,1.66.74,1.66,2.13v3.44h-.91V39.12c0-1-.31-1.45-1-1.45a2.07,2.07,0,0,0-1.49.83v3.94H307Z"/><path class="cls-2" d="M312.74,43.47a1.51,1.51,0,0,1,.8-1.22v0a1,1,0,0,1-.5-.89,1.32,1.32,0,0,1,.61-1v0a1.91,1.91,0,0,1-.71-1.46,1.93,1.93,0,0,1,2-1.94,2.24,2.24,0,0,1,.76.14h1.89v.7h-1.11a1.55,1.55,0,0,1,.44,1.12,1.86,1.86,0,0,1-2,1.89,1.89,1.89,0,0,1-.81-.19.81.81,0,0,0-.35.65c0,.35.22.59.95.59h1.06c1.26,0,1.9.4,1.9,1.28s-1.07,1.88-2.75,1.88C313.65,44.93,312.74,44.41,312.74,43.47Zm4.1-.27c0-.5-.39-.67-1.11-.67h-.94a3.05,3.05,0,0,1-.7-.09,1.13,1.13,0,0,0-.55.91c0,.58.59,1,1.57,1S316.84,43.76,316.84,43.2Zm-.7-4.39a1.16,1.16,0,1,0-2.32,0,1.17,1.17,0,1,0,2.32,0Z"/><path class="cls-2" d="M318.39,43.8a1.51,1.51,0,0,0,1-1.36h-.11a.63.63,0,0,1-.67-.64.65.65,0,0,1,.69-.64c.48,0,.77.41.77,1.08a2.21,2.21,0,0,1-1.46,2.08Z"/><path class="cls-2" d="M323.88,35.1h.93v3.69h0l3.06-3.69h1l-2.29,2.8,2.65,4.54h-1l-2.2-3.82-1.26,1.5v2.32h-.93Z"/><path class="cls-2" d="M329.77,39.73a2.54,2.54,0,1,1,5,0,2.54,2.54,0,1,1-5,0Zm4.1,0c0-1.25-.64-2.1-1.58-2.1s-1.57.85-1.57,2.1.63,2.08,1.57,2.08S333.87,41,333.87,39.73Z"/><path class="cls-2" d="M335.55,37h.93l.81,3.14c.11.52.22,1,.32,1.52h.05c.12-.51.23-1,.37-1.52l.84-3.14h.89l.85,3.14.38,1.52h0c.12-.51.22-1,.34-1.52l.8-3.14H343l-1.46,5.43h-1.1l-.79-2.93c-.14-.51-.24-1-.37-1.56h-.05c-.12.55-.23,1.06-.37,1.58l-.76,2.91h-1.07Z"/><path class="cls-2" d="M344.22,41.36V34.48h.91v6.94c0,.28.12.39.26.39l.19,0,.13.7a1.4,1.4,0,0,1-.53.08C344.5,42.57,344.22,42.13,344.22,41.36Z"/><path class="cls-2" d="M346.66,39.73a2.54,2.54,0,1,1,5,0,2.54,2.54,0,1,1-5,0Zm4.1,0c0-1.25-.64-2.1-1.58-2.1s-1.57.85-1.57,2.1.63,2.08,1.57,2.08S350.76,41,350.76,39.73Z"/><path class="cls-2" d="M352.72,39.73a2.54,2.54,0,1,1,5,0,2.54,2.54,0,1,1-5,0Zm4.1,0c0-1.25-.64-2.1-1.58-2.1s-1.57.85-1.57,2.1.63,2.08,1.57,2.08S356.82,41,356.82,39.73Z"/><path class="cls-2" d="M359.19,37h.75l.08.78h0a2.6,2.6,0,0,1,1.82-.92c1.14,0,1.66.74,1.66,2.13v3.44h-.91V39.12c0-1-.31-1.45-1-1.45a2.07,2.07,0,0,0-1.49.83v3.94h-.91Z"/><path class="cls-2" d="M364.91,43.8a1.51,1.51,0,0,0,1-1.36h-.11a.63.63,0,0,1-.67-.64.65.65,0,0,1,.69-.64c.48,0,.77.41.77,1.08a2.21,2.21,0,0,1-1.46,2.08Z"/><path class="cls-2" d="M370.4,35.1h.93v3.08h3.42V35.1h.92v7.34h-.92V39h-3.42v3.46h-.93Z"/><path class="cls-2" d="M377.19,39.73a2.54,2.54,0,1,1,5,0,2.54,2.54,0,1,1-5,0Zm4.1,0c0-1.25-.64-2.1-1.58-2.1s-1.57.85-1.57,2.1.63,2.08,1.57,2.08S381.29,41,381.29,39.73Z"/><path class="cls-2" d="M383.66,37h.75l.08.78h0a2.6,2.6,0,0,1,1.82-.92c1.14,0,1.66.74,1.66,2.13v3.44h-.91V39.12c0-1-.31-1.45-1-1.45a2.07,2.07,0,0,0-1.49.83v3.94h-.91Z"/><path class="cls-2" d="M389.36,43.47a1.51,1.51,0,0,1,.8-1.22v0a1,1,0,0,1-.5-.89,1.32,1.32,0,0,1,.61-1v0a1.91,1.91,0,0,1-.71-1.46,1.93,1.93,0,0,1,2-1.94,2.24,2.24,0,0,1,.76.14h1.89v.7h-1.11a1.55,1.55,0,0,1,.44,1.12,1.86,1.86,0,0,1-2,1.89,1.89,1.89,0,0,1-.81-.19.81.81,0,0,0-.35.65c0,.35.22.59.95.59h1.06c1.26,0,1.9.4,1.9,1.28s-1.07,1.88-2.75,1.88C390.27,44.93,389.36,44.41,389.36,43.47Zm4.1-.27c0-.5-.39-.67-1.11-.67h-.94a3.05,3.05,0,0,1-.7-.09,1.13,1.13,0,0,0-.55.91c0,.58.59,1,1.57,1S393.46,43.76,393.46,43.2Zm-.7-4.39a1.16,1.16,0,1,0-2.32,0,1.17,1.17,0,1,0,2.32,0Z"/><path class="cls-2" d="M397.72,35.1h.93v3.69h0l3.06-3.69h1l-2.29,2.8,2.64,4.54h-1l-2.2-3.82-1.26,1.5v2.32h-.93Z"/><path class="cls-2" d="M403.61,39.73a2.54,2.54,0,1,1,5,0,2.54,2.54,0,1,1-5,0Zm4.1,0c0-1.25-.64-2.1-1.58-2.1s-1.57.85-1.57,2.1.63,2.08,1.57,2.08S407.71,41,407.71,39.73Z"/><path class="cls-2" d="M410.08,37h.75l.08.78h0a2.6,2.6,0,0,1,1.82-.92c1.14,0,1.66.74,1.66,2.13v3.44h-.91V39.12c0-1-.31-1.45-1-1.45a2.07,2.07,0,0,0-1.49.83v3.94h-.91Z"/><path class="cls-2" d="M415.78,43.47a1.51,1.51,0,0,1,.8-1.22v0a1,1,0,0,1-.5-.89,1.32,1.32,0,0,1,.61-1v0a1.91,1.91,0,0,1-.71-1.46,1.93,1.93,0,0,1,2-1.94,2.24,2.24,0,0,1,.76.14h1.89v.7h-1.11a1.55,1.55,0,0,1,.44,1.12,1.86,1.86,0,0,1-2,1.89,1.89,1.89,0,0,1-.81-.19.81.81,0,0,0-.35.65c0,.35.22.59.95.59h1.06c1.26,0,1.9.4,1.9,1.28s-1.07,1.88-2.75,1.88C416.69,44.93,415.78,44.41,415.78,43.47Zm4.1-.27c0-.5-.39-.67-1.11-.67h-.94a3.05,3.05,0,0,1-.7-.09,1.13,1.13,0,0,0-.55.91c0,.58.59,1,1.57,1S419.88,43.76,419.88,43.2Zm-.7-4.39a1.16,1.16,0,1,0-2.32,0,1.17,1.17,0,1,0,2.32,0Z"/><path class="cls-2" d="M30.51,55.33A9.34,9.34,0,0,1,32,50.26l.57.26a9.68,9.68,0,0,0,0,9.62L32,60.4A9.31,9.31,0,0,1,30.51,55.33Z"/><path class="cls-2" d="M33.42,56.62a2.27,2.27,0,0,1,1.35-1.93v0a2,2,0,0,1-1-1.65,2,2,0,0,1,4,.07,2.35,2.35,0,0,1-1,1.72v.05a2.09,2.09,0,0,1,1.24,1.83,2,2,0,0,1-2.3,1.9A2.1,2.1,0,0,1,33.42,56.62Zm3.77,0c0-.93-.9-1.26-1.94-1.67a1.89,1.89,0,0,0-1,1.56,1.41,1.41,0,0,0,1.53,1.35A1.27,1.27,0,0,0,37.19,56.65ZM37,53.12a1.19,1.19,0,0,0-1.24-1.26A1.1,1.1,0,0,0,34.61,53c0,.86.79,1.22,1.65,1.56A1.94,1.94,0,0,0,37,53.12Z"/><path class="cls-2" d="M38.8,57.6l.45-.6a2.41,2.41,0,0,0,1.8.81,1.53,1.53,0,0,0,1.56-1.62,1.44,1.44,0,0,0-1.52-1.58,2,2,0,0,0-1.22.44l-.49-.31.23-3.43h3.57v.78H40.41l-.18,2.13a2.14,2.14,0,0,1,1.09-.3,2.05,2.05,0,0,1,2.21,2.24,2.33,2.33,0,0,1-2.4,2.41A3.11,3.11,0,0,1,38.8,57.6Z"/><path class="cls-2" d="M44.51,57.9c2.15-2.14,3.36-3.42,3.36-4.59a1.26,1.26,0,0,0-1.35-1.39,2.08,2.08,0,0,0-1.52.85l-.53-.51a2.8,2.8,0,0,1,2.16-1.08,2,2,0,0,1,2.13,2.09c0,1.34-1.22,2.67-2.91,4.45.38,0,.82-.07,1.2-.07h2.07v.79H44.51Z"/><path class="cls-2" d="M50.05,60.14a9.68,9.68,0,0,0,0-9.62l.56-.26a9.42,9.42,0,0,1,0,10.14Z"/><path class="cls-2" d="M55.68,57.9C57.83,55.76,59,54.48,59,53.31a1.26,1.26,0,0,0-1.35-1.39,2.08,2.08,0,0,0-1.52.85l-.53-.51a2.8,2.8,0,0,1,2.16-1.08,2,2,0,0,1,2.13,2.09c0,1.34-1.22,2.67-2.91,4.45.38,0,.82-.07,1.2-.07h2.07v.79H55.68Z"/><path class="cls-2" d="M61.24,56.62a2.27,2.27,0,0,1,1.35-1.93v0a2,2,0,0,1-1-1.65,2,2,0,0,1,4,.07,2.35,2.35,0,0,1-1,1.72v.05a2.09,2.09,0,0,1,1.24,1.83,2,2,0,0,1-2.3,1.9A2.1,2.1,0,0,1,61.24,56.62Zm3.77,0c0-.93-.9-1.26-1.94-1.67a1.89,1.89,0,0,0-1,1.56,1.41,1.41,0,0,0,1.53,1.35A1.27,1.27,0,0,0,65,56.65Zm-.17-3.53a1.19,1.19,0,0,0-1.24-1.26A1.1,1.1,0,0,0,62.43,53c0,.86.79,1.22,1.65,1.56A1.94,1.94,0,0,0,64.84,53.12Z"/><path class="cls-2" d="M66.62,57.6l.45-.6a2.41,2.41,0,0,0,1.8.81,1.53,1.53,0,0,0,1.56-1.62,1.44,1.44,0,0,0-1.52-1.58,2,2,0,0,0-1.22.44l-.49-.31.23-3.43H71v.78H68.23l-.18,2.13a2.14,2.14,0,0,1,1.09-.3,2.05,2.05,0,0,1,2.21,2.24A2.33,2.33,0,0,1,69,58.57,3.11,3.11,0,0,1,66.62,57.6Z"/><path class="cls-2" d="M75.29,56.47h-3.2v-.6l3-4.56h1v4.43h1v.73h-1v2h-.86Zm0-.73V53.65c0-.37,0-1,0-1.36h0c-.18.34-.38.65-.59,1L73,55.74Z"/><path class="cls-2" d="M80.13,56.62a2.27,2.27,0,0,1,1.35-1.93v0a2,2,0,0,1-1-1.65,2,2,0,0,1,4,.07,2.35,2.35,0,0,1-1,1.72v.05a2.09,2.09,0,0,1,1.24,1.83,2,2,0,0,1-2.3,1.9A2.1,2.1,0,0,1,80.13,56.62Zm3.77,0c0-.93-.9-1.26-1.94-1.67a1.89,1.89,0,0,0-1,1.56,1.41,1.41,0,0,0,1.53,1.35A1.27,1.27,0,0,0,83.9,56.65Zm-.17-3.53a1.19,1.19,0,0,0-1.24-1.26A1.1,1.1,0,0,0,81.32,53c0,.86.79,1.22,1.65,1.56A1.94,1.94,0,0,0,83.73,53.12Z"/><path class="cls-2" d="M85.52,57.57,86,57a2.42,2.42,0,0,0,1.82.84,1.34,1.34,0,0,0,1.49-1.31c0-.85-.59-1.41-2.28-1.41v-.7c1.51,0,2-.59,2-1.34a1.11,1.11,0,0,0-1.24-1.13,2.15,2.15,0,0,0-1.52.72l-.49-.57a2.9,2.9,0,0,1,2-.89c1.23,0,2.13.65,2.13,1.81a1.75,1.75,0,0,1-1.3,1.69v0a1.87,1.87,0,0,1,1.55,1.82,2.11,2.11,0,0,1-2.35,2A3,3,0,0,1,85.52,57.57Z"/><path class="cls-2" d="M91.66,57.68h1.63V52.42H92v-.59a4.22,4.22,0,0,0,1.52-.52h.7v6.37h1.47v.76h-4Z"/><path class="cls-2" d="M96.78,56.62a2.27,2.27,0,0,1,1.35-1.93v0a2,2,0,0,1-1-1.65,2,2,0,0,1,4,.07,2.35,2.35,0,0,1-1,1.72v.05a2.09,2.09,0,0,1,1.24,1.83,2,2,0,0,1-2.3,1.9A2.1,2.1,0,0,1,96.78,56.62Zm3.77,0c0-.93-.9-1.26-1.94-1.67a1.89,1.89,0,0,0-1,1.56,1.41,1.41,0,0,0,1.53,1.35A1.27,1.27,0,0,0,100.55,56.65Zm-.17-3.53a1.19,1.19,0,0,0-1.24-1.26A1.1,1.1,0,0,0,98,53c0,.86.79,1.22,1.65,1.56A1.94,1.94,0,0,0,100.38,53.12Z"/><path class="cls-2" d="M107.09,59.64h-.42v-10h.42Z"/><path class="cls-2" d="M112.41,55.73c0-1.76,1.11-2.86,2.35-2.86a2.21,2.21,0,0,1,1.53.64l0-.94V50.48h.9v8h-.74l-.08-.64h0a2.42,2.42,0,0,1-1.65.77C113.29,58.57,112.41,57.54,112.41,55.73Zm3.84,1.33V54.21a2,2,0,0,0-1.33-.57c-.88,0-1.57.84-1.57,2.08s.54,2.09,1.5,2.09A1.9,1.9,0,0,0,116.25,57.06Z"/><path class="cls-2" d="M118.59,55.73a2.54,2.54,0,1,1,2.52,2.84A2.61,2.61,0,0,1,118.59,55.73Zm4.1,0c0-1.25-.64-2.1-1.58-2.1s-1.57.85-1.57,2.1.63,2.08,1.57,2.08S122.69,57,122.69,55.73Z"/><path class="cls-2" d="M125.06,53h.75l.08.78h0a2.6,2.6,0,0,1,1.82-.92c1.14,0,1.66.74,1.66,2.13v3.44h-.91V55.12c0-1-.31-1.45-1-1.45a2.07,2.07,0,0,0-1.49.83v3.94h-.91Z"/><path class="cls-2" d="M130.76,55.73a2.54,2.54,0,1,1,2.52,2.84A2.61,2.61,0,0,1,130.76,55.73Zm4.1,0c0-1.25-.64-2.1-1.58-2.1s-1.57.85-1.57,2.1.63,2.08,1.57,2.08S134.86,57,134.86,55.73Z"/><path class="cls-2" d="M137.23,53H138l.08,1h0a1.87,1.87,0,0,1,1.54-1.13,1.16,1.16,0,0,1,.58.12l-.17.8a1.28,1.28,0,0,0-.53-.09c-.45,0-1,.32-1.37,1.25v3.49h-.91Z"/><path class="cls-2" d="M140.29,57.88a.66.66,0,1,1,1.32,0,.66.66,0,1,1-1.32,0Z"/><path class="cls-2" d="M142.65,57.82l.45-.6a2.46,2.46,0,0,0,1.61.64c.72,0,1.07-.38,1.07-.85s-.64-.8-1.24-1c-.76-.28-1.59-.65-1.59-1.57s.7-1.54,1.88-1.54a2.76,2.76,0,0,1,1.68.61l-.44.59a2,2,0,0,0-1.23-.48c-.69,0-1,.36-1,.78s.56.71,1.17.94c.79.3,1.66.62,1.66,1.65s-.7,1.61-2,1.61A3.28,3.28,0,0,1,142.65,57.82Z"/><path class="cls-2" d="M147.53,55.73A2.63,2.63,0,0,1,150,52.87c1.38,0,2.16,1,2.16,2.55a3.55,3.55,0,0,1,0,.52h-3.66a1.8,1.8,0,0,0,1.8,1.9,2.34,2.34,0,0,0,1.36-.43l.33.6a3.23,3.23,0,0,1-1.8.56A2.6,2.6,0,0,1,147.53,55.73Zm3.81-.45c0-1.09-.5-1.68-1.35-1.68a1.67,1.67,0,0,0-1.56,1.68Z"/><path class="cls-2" d="M153.48,53h.75l.08,1h0a1.87,1.87,0,0,1,1.54-1.13,1.16,1.16,0,0,1,.58.12l-.17.8a1.28,1.28,0,0,0-.53-.09c-.45,0-1,.32-1.37,1.25v3.49h-.91Z"/><path class="cls-2" d="M156.86,53h.95l1,3.09c.17.53.34,1.09.51,1.6h0c.17-.51.34-1.07.5-1.6l1-3.09h.9l-1.93,5.43h-1.06Z"/><path class="cls-2" d="M162.71,51.28a.61.61,0,1,1,.61.61A.57.57,0,0,1,162.71,51.28Zm.15,1.73h.91v5.43h-.91Z"/><path class="cls-2" d="M165.2,55.73a2.64,2.64,0,0,1,2.62-2.86,2.32,2.32,0,0,1,1.59.64l-.47.6a1.61,1.61,0,0,0-1.08-.48c-1,0-1.71.85-1.71,2.1s.68,2.08,1.68,2.08a1.91,1.91,0,0,0,1.28-.54l.4.61a2.63,2.63,0,0,1-1.76.69A2.55,2.55,0,0,1,165.2,55.73Z"/><path class="cls-2" d="M170.05,55.73a2.63,2.63,0,0,1,2.45-2.86c1.38,0,2.16,1,2.16,2.55a3.55,3.55,0,0,1,0,.52H171a1.8,1.8,0,0,0,1.8,1.9,2.34,2.34,0,0,0,1.36-.43l.33.6a3.23,3.23,0,0,1-1.8.56A2.6,2.6,0,0,1,170.05,55.73Zm3.81-.45c0-1.09-.5-1.68-1.35-1.68A1.67,1.67,0,0,0,171,55.28Z"/><path class="cls-2" d="M175.39,57.82l.45-.6a2.46,2.46,0,0,0,1.61.64c.72,0,1.07-.38,1.07-.85s-.64-.8-1.24-1c-.76-.28-1.59-.65-1.59-1.57s.7-1.54,1.88-1.54a2.76,2.76,0,0,1,1.68.61l-.44.59a2,2,0,0,0-1.23-.48c-.69,0-1,.36-1,.78s.56.71,1.17.94c.79.3,1.66.62,1.66,1.65s-.7,1.61-2,1.61A3.28,3.28,0,0,1,175.39,57.82Z"/><path class="cls-2" d="M180.49,57.88a.66.66,0,1,1,1.32,0,.66.66,0,1,1-1.32,0Z"/><path class="cls-2" d="M183.46,50.48h.91v2.18l0,1.12a2.55,2.55,0,0,1,1.8-.91c1.14,0,1.66.74,1.66,2.13v3.44h-.91V55.12c0-1-.31-1.45-1-1.45a2.07,2.07,0,0,0-1.49.83v3.94h-.91Z"/><path class="cls-2" d="M189.53,50.48h.9v5.4h0L192.77,53h1L192,55.2,194,58.44h-1l-1.59-2.62-1,1.19v1.43h-.9Z"/><path class="cls-2" d="M194.69,56.17a4.71,4.71,0,0,1,4.66-5,3.47,3.47,0,0,1,3.67,3.7c0,1.95-1.22,3-2.23,3a1,1,0,0,1-1.15-.85h0a1.94,1.94,0,0,1-1.36.77c-.76,0-1.34-.57-1.34-1.59,0-1.18.84-2.59,2.15-2.59a1,1,0,0,1,.89.55h0l.13-.46h.6L200.26,56c-.21.9,0,1.31.61,1.31s1.51-.85,1.51-2.3a2.89,2.89,0,0,0-3.1-3.13,4.09,4.09,0,0,0-3.91,4.31,3.16,3.16,0,0,0,3.32,3.41,3.68,3.68,0,0,0,1.82-.5l.24.54a4,4,0,0,1-2.12.57A3.73,3.73,0,0,1,194.69,56.17Zm4.78.35.31-1.78a.77.77,0,0,0-.72-.47c-.88,0-1.42,1.06-1.42,1.9s.34,1,.79,1A1.48,1.48,0,0,0,199.47,56.52Z"/><path class="cls-2" d="M204.1,59.47a1.51,1.51,0,0,1,.8-1.22v0a1,1,0,0,1-.5-.89,1.32,1.32,0,0,1,.61-1v0a1.91,1.91,0,0,1-.71-1.46,1.93,1.93,0,0,1,2-1.94,2.24,2.24,0,0,1,.76.14H209v.7h-1.11a1.55,1.55,0,0,1,.44,1.12,1.86,1.86,0,0,1-2,1.89,1.89,1.89,0,0,1-.81-.19.81.81,0,0,0-.35.65c0,.35.22.59.95.59h1.06c1.26,0,1.9.4,1.9,1.28s-1.07,1.88-2.75,1.88C205,60.93,204.1,60.41,204.1,59.47Zm4.1-.27c0-.5-.39-.67-1.11-.67h-.94a3.05,3.05,0,0,1-.7-.09,1.13,1.13,0,0,0-.55.91c0,.58.59,1,1.57,1S208.2,59.76,208.2,59.2Zm-.7-4.39a1.16,1.16,0,1,0-2.32,0,1.17,1.17,0,1,0,2.32,0Z"/><path class="cls-2" d="M210.14,53h.75l.08,1h0a1.87,1.87,0,0,1,1.54-1.13,1.16,1.16,0,0,1,.58.12l-.17.8a1.28,1.28,0,0,0-.53-.09c-.45,0-1,.32-1.37,1.25v3.49h-.91Z"/><path class="cls-2" d="M213.5,55.73A2.63,2.63,0,0,1,216,52.87c1.38,0,2.16,1,2.16,2.55a3.55,3.55,0,0,1,0,.52h-3.66a1.8,1.8,0,0,0,1.8,1.9,2.34,2.34,0,0,0,1.36-.43l.33.6a3.23,3.23,0,0,1-1.8.56A2.6,2.6,0,0,1,213.5,55.73Zm3.81-.45c0-1.09-.5-1.68-1.35-1.68a1.67,1.67,0,0,0-1.56,1.68Z"/><path class="cls-2" d="M219,55.73a2.63,2.63,0,0,1,2.45-2.86c1.38,0,2.16,1,2.16,2.55a3.55,3.55,0,0,1,0,.52H220a1.8,1.8,0,0,0,1.8,1.9,2.34,2.34,0,0,0,1.36-.43l.33.6a3.23,3.23,0,0,1-1.8.56A2.6,2.6,0,0,1,219,55.73Zm3.81-.45c0-1.09-.5-1.68-1.35-1.68a1.67,1.67,0,0,0-1.56,1.68Z"/><path class="cls-2" d="M225,53h.75l.08.78h0a2.6,2.6,0,0,1,1.82-.92c1.14,0,1.66.74,1.66,2.13v3.44h-.91V55.12c0-1-.31-1.45-1-1.45a2.07,2.07,0,0,0-1.49.83v3.94H225Z"/><path class="cls-2" d="M231.1,53h.75l.08.62h0a2.9,2.9,0,0,1,1.73-.76c1.4,0,2.16,1.1,2.16,2.77,0,1.86-1.11,2.93-2.36,2.93a2.45,2.45,0,0,1-1.5-.63l0,1v1.83h-.91Zm3.8,2.64c0-1.2-.4-2-1.43-2a2.26,2.26,0,0,0-1.46.75v2.85a2.1,2.1,0,0,0,1.33.57C234.24,57.81,234.9,57,234.9,55.65Z"/><path class="cls-2" d="M236.89,55.73a2.63,2.63,0,0,1,2.45-2.86c1.38,0,2.16,1,2.16,2.55a3.55,3.55,0,0,1,0,.52H237.8a1.8,1.8,0,0,0,1.8,1.9,2.34,2.34,0,0,0,1.36-.43l.33.6a3.23,3.23,0,0,1-1.8.56A2.6,2.6,0,0,1,236.89,55.73Zm3.81-.45c0-1.09-.5-1.68-1.35-1.68a1.67,1.67,0,0,0-1.56,1.68Z"/><path class="cls-2" d="M242.34,57c0-1.18,1-1.77,3.34-2,0-.7-.23-1.37-1.12-1.37a3,3,0,0,0-1.63.58l-.36-.63a4.08,4.08,0,0,1,2.14-.71c1.32,0,1.88.89,1.88,2.23v3.34h-.75l-.08-.65h0a2.91,2.91,0,0,1-1.8.78A1.47,1.47,0,0,1,242.34,57Zm3.34.09V55.6c-1.83.22-2.45.67-2.45,1.37s.42.87,1,.87A2.22,2.22,0,0,0,245.68,57.12Z"/><path class="cls-2" d="M247.91,55.73a2.64,2.64,0,0,1,2.62-2.86,2.32,2.32,0,0,1,1.59.64l-.47.6a1.61,1.61,0,0,0-1.08-.48c-1,0-1.71.85-1.71,2.1s.68,2.08,1.68,2.08a1.91,1.91,0,0,0,1.28-.54l.4.61a2.63,2.63,0,0,1-1.76.69A2.55,2.55,0,0,1,247.91,55.73Z"/><path class="cls-2" d="M252.76,55.73a2.63,2.63,0,0,1,2.45-2.86c1.38,0,2.16,1,2.16,2.55a3.55,3.55,0,0,1,0,.52h-3.66a1.8,1.8,0,0,0,1.8,1.9,2.34,2.34,0,0,0,1.36-.43l.33.6a3.23,3.23,0,0,1-1.8.56A2.6,2.6,0,0,1,252.76,55.73Zm3.81-.45c0-1.09-.5-1.68-1.35-1.68a1.67,1.67,0,0,0-1.56,1.68Z"/><path class="cls-2" d="M258.52,57.88a.66.66,0,1,1,1.32,0,.66.66,0,1,1-1.32,0Z"/><path class="cls-2" d="M261,55.73a2.54,2.54,0,1,1,2.52,2.84A2.61,2.61,0,0,1,261,55.73Zm4.1,0c0-1.25-.64-2.1-1.58-2.1s-1.57.85-1.57,2.1.63,2.08,1.57,2.08S265.05,57,265.05,55.73Z"/><path class="cls-2" d="M267.42,53h.75l.08,1h0a1.87,1.87,0,0,1,1.54-1.13,1.16,1.16,0,0,1,.58.12l-.17.8a1.28,1.28,0,0,0-.53-.09c-.45,0-1,.32-1.37,1.25v3.49h-.91Z"/><path class="cls-2" d="M270.78,59.47a1.51,1.51,0,0,1,.8-1.22v0a1,1,0,0,1-.5-.89,1.32,1.32,0,0,1,.61-1v0a1.91,1.91,0,0,1-.71-1.46,1.93,1.93,0,0,1,2-1.94,2.24,2.24,0,0,1,.76.14h1.89v.7h-1.11a1.55,1.55,0,0,1,.44,1.12,1.86,1.86,0,0,1-2,1.89,1.89,1.89,0,0,1-.81-.19.81.81,0,0,0-.35.65c0,.35.22.59.95.59h1.06c1.26,0,1.9.4,1.9,1.28s-1.07,1.88-2.75,1.88C271.69,60.93,270.78,60.41,270.78,59.47Zm4.1-.27c0-.5-.39-.67-1.11-.67h-.94a3.05,3.05,0,0,1-.7-.09,1.13,1.13,0,0,0-.55.91c0,.58.59,1,1.57,1S274.88,59.76,274.88,59.2Zm-.7-4.39a1.16,1.16,0,1,0-2.32,0,1.17,1.17,0,1,0,2.32,0Z"/><path class="cls-2" d="M614.1,30c-.42.36-1.12.45-4.78,1.08a3.7,3.7,0,0,0-.73.3,7.29,7.29,0,0,0-2.65.87c-.17.09-.38.57-.45,1.46.25.3.38.27.69.27a33,33,0,0,0,4.56-.82c1.14.25,1.67,2,1.67,2.91a6.57,6.57,0,0,1-.14.72c-.14.39-.83.7-1.66.78-3.94.36-5.78.67-6.23,1a1.44,1.44,0,0,0-.23.74c0,.93,2,1.17,2.31,1.17,1.22,0,1.83-.66,2.28-.66s1.63,1.3,1.63,2.76c0,1-.56,2.52-3,2.52a11.56,11.56,0,0,1-5.25-1.83s.06-.39-.75-1a9,9,0,0,1-.77-3.38c0-2.81,1.39-4.67,1.58-5.75l-.92-1.28a1.33,1.33,0,0,1-.3-1.05c0-2.18,1.43-2.59,1.5-2.59h.5a6.29,6.29,0,0,0,1.21-.68l.78-.06c.46-.06,5.71-1.41,6.76-1.41.83,0,1.16.14,1.49.65a8.71,8.71,0,0,1,1.11,2.55A1.52,1.52,0,0,1,614.1,30Z"/><path class="cls-2" d="M616.7,38.52a1.93,1.93,0,0,0-.28.82c0,.33,1.18.87,2.29.92,3.25.17,2.83-1.33,3.78-.86.62.31,1.17,1.88,1.17,2.79,0,2.1-2,2.7-3.86,2.7a11.4,11.4,0,0,1-4.71-1.17s-1.91-2.38-1.91-4.09a22.58,22.58,0,0,1,2.19-8.47s.17-1.13.27-1.86.68-1,1.14-1.52a69.81,69.81,0,0,1,8.88-1.59c.75-.08,1.68,1,2.18,2.53.09.28-.06,1.38-.43,1.49-.22.07-.82.14-5.61.64a5.34,5.34,0,0,0-2,.47,5.38,5.38,0,0,0-1.22,1.9c-.11.42.1.64.64.59a14.08,14.08,0,0,0,4.42-1.38c.91,0,1.76,1.2,2,2.52a1.66,1.66,0,0,1-.3,1.56,9.6,9.6,0,0,1-3.17,1,3.84,3.84,0,0,1-1.15.07c-.1,0-.37.18-.52.2C618.66,38.05,617,38.21,616.7,38.52Z"/><path class="cls-2" d="M671.17,28.24c0,1-.29,1.63-.64,1.76-1.54.59-6.72,1.33-9.11,2.13a3.22,3.22,0,0,0-1.21,1.95c0,.26.3.35.74.29,3.46-.45,4.06-.75,5.5-1.4a1.23,1.23,0,0,1,.79.26,3.85,3.85,0,0,1,.83,2.59,1.71,1.71,0,0,1-1.69,1.8c-1.79.27-5.9.88-7.11,1a2.07,2.07,0,0,0-1,.31c-.54.78-.33,2.42,3.36,1.61,1.55-.34,1.86-.91,2.74-.91a.83.83,0,0,1,.22,0,2.82,2.82,0,0,1,.92,2.44,2.7,2.7,0,0,1-1.62,2.61,4.26,4.26,0,0,1-.53.14c-.05,0-.55.29-.78.35a5.8,5.8,0,0,1-1.38.21c-2.53,0-6.56-1.17-6.56-5.84,0-4.25,2.88-7.21,3.65-10a3,3,0,0,0,.38-.49c.06-.48.49-1.61,1-1.67a62.24,62.24,0,0,0,9.19-2.24.87.87,0,0,1,.82.1A4,4,0,0,1,671.17,28.24Z"/><path class="cls-2" d="M600.08,40.48c-.75-.85-3.17-2.18-4-3,.36-.41,2.31-3.14,2.31-5.31,0-3.05-2.22-6.72-5.2-6.72,0,0-.87,0-1.93.1-.19.3-.82.23-.82.23-1,.47-2,1.26-2,3.79,0,.45.63.92,1,1.27A13.35,13.35,0,0,1,588.7,34c-.14.35-1.1.48-1.1.48l-.51.66c-.33,2,0,2.19.68,3.08.09,1-.31,2.83-.31,3.85,0,.73.28.65.13,1.41a.75.75,0,0,1,.17.3,2.29,2.29,0,0,0,2,1.46,1.16,1.16,0,0,0,1.24-1c0-.87-.22-3.53-.2-3.77a2.71,2.71,0,0,1,.42-1.31c.57,0,3.12,2.32,5.3,4.54a2.46,2.46,0,0,0,1.56.67c1.33,0,1.87-1.49,2.25-1.83A2.29,2.29,0,0,0,600.08,40.48Zm-7.6-5.89a.79.79,0,0,1-.55-.11s.67-3.93.73-4.78a1.66,1.66,0,0,1,2.19,1.51C594.85,32.29,594.36,33.58,592.48,34.59Z"/><path class="cls-2" d="M654.67,26.5l-.95-.28-.49-.25a27.53,27.53,0,0,0-5.38-.19,6.71,6.71,0,0,1-1.13-.22,7.28,7.28,0,0,1-1.45.65,3.12,3.12,0,0,1-.66-.2,11.14,11.14,0,0,0-3.51,1,2.27,2.27,0,0,0-.79.93l0,0c0,.07-.15.19-.16,0h0a3.42,3.42,0,0,0-.09-.53,2.44,2.44,0,0,0-2-1.58c-.27,0-.85.3-.9.63s-.11,2.27-.3,4.07a29.63,29.63,0,0,1-.37,4.7c-.07,0-.31.11-.39,0-.85-1.28-3.08-3.5-3.27-5s.05-3.49-.65-4.05a5.66,5.66,0,0,0-1.94-.58,1.5,1.5,0,0,0-1.21.57l-.05.41-.39.59a9.92,9.92,0,0,0-.22,2.43l.32,1.67a1.25,1.25,0,0,1-.3.72l.09,1.29c0,1.45-1.33,6.43-1.33,7.94,0,3.37,2.95,3.09,3.12,2.95a3.11,3.11,0,0,0,.65-1.11c.2-2,.41-5.39,1-6.39.1-.2.39-.3.53-.17a8.91,8.91,0,0,1,1.06,1.54c.52.75,2.05,2.6,2.34,4.27,0,.14,0,.48,0,.74A3,3,0,0,0,636.9,45a2.83,2.83,0,0,0,1.61.19c.56-.1,1.58-.21,1.58-2.84a19.43,19.43,0,0,0-.26-2.73,76.39,76.39,0,0,0,.4-7.79,6,6,0,0,1-.28-.63,4.79,4.79,0,0,0,.18-.87h0c0-.11.08-.18.12-.1h0a1.28,1.28,0,0,0,.11.2,1.55,1.55,0,0,0,1.3.65c.94,0,2.16-1.1,3-.9.12,0,.24-.18.91-.24a21.79,21.79,0,0,1-.09,2.51c0,.56-.31.69-1.36.69a.84.84,0,0,0-.73.54,10.63,10.63,0,0,0-.41,2.19,2.73,2.73,0,0,0,2,2.18c.07.35-.26,3-.26,4.35a3.93,3.93,0,0,0,.37,2,3.67,3.67,0,0,0,1.76.77,1.74,1.74,0,0,0,1.27-.54,2.61,2.61,0,0,0,.23-1.14c.07-3.06.42-6.29.8-6.4a16.94,16.94,0,0,0,5.44-2.55A5,5,0,0,0,656.76,31,6.29,6.29,0,0,0,654.67,26.5Zm-5.4,6.12c-.23,0-.38-.07-.44-.26a12.37,12.37,0,0,1-.31-2.89c.8-.16,4.32.05,4.32,1S650.47,32.63,649.27,32.62Z"/><path class="cls-2" d="M586.56,37.41a7.33,7.33,0,0,0-.92-2.81,2.15,2.15,0,0,0-1.78-.68c-.46,0-8.32,1.21-9.31,1.82-.47.29-.65,1-.65,1.93a1.91,1.91,0,0,0,1.15,2c.58,0,4.57-.78,6-1,.3-.06.41.06.41.18a1.56,1.56,0,0,1-.26.93A4.71,4.71,0,0,1,579.09,41c-1.14-.22-2.09.75-3.23.19-.49,0-1.19.35-1.53-.2a7.47,7.47,0,0,1-3.27-1.09,1.47,1.47,0,0,1-.44-1.18c0-1.24,1.85-4.41,5-7.36.65-.61,3-2.32,4-2.32.68,0,.92,1.53,1.47,2.12a1.23,1.23,0,0,0,1,0c.6-.26,1.07-.58,1.07-1.29A5.81,5.81,0,0,0,582,26.34a5.08,5.08,0,0,0-2.48-1.06c-1.32,0-1.94.78-2.42.8a16.69,16.69,0,0,0-3.28,2.66.9.9,0,0,1-.35.19,2.9,2.9,0,0,1-.31.71c-.08,0-.76.5-.76.5-.9.87-4.79,5.72-4.79,7.54a9,9,0,0,0,1.55,4.47,10.66,10.66,0,0,0,7,2.26,10.86,10.86,0,0,0,4.61-1.14h0c.14-.08.24-.07.22.08s0,.42-.06.61-.11,1.23-.11,1.92a2.86,2.86,0,0,0,.66,2.15,4.7,4.7,0,0,0,1.84.4,1.65,1.65,0,0,0,1.37-1.58c0-.63-.07-1.47-.06-1.68C585,39.78,586.56,38.3,586.56,37.41Z"/><path class="cls-2" d="M715.05,28.37a3.65,3.65,0,0,0-2.15-2.69c-.76.17-7.06,1.38-11.2,1.92-.57.07-1.27.1-1.27.1l-.47.24a3,3,0,0,0-1.22.36,3.59,3.59,0,0,0-1.45,2.34l.08,1.08c-1.28,2.54-2.14,4.59-2.14,7.35a1.09,1.09,0,0,0,0,.18c0,.2,0,.3-.08.25a3.09,3.09,0,0,0-.23-.31c-.5-.57-.66-.64-.89-.64-.68,0-1.19,1.27-3.48,1.27-2,0-5.91-2.15-5.91-3.28,0-2.47,3.29-5.56,5.74-5.56.43,0,.54.12.54.41,0,.49-.36,1.26-.36,1.74,0,1.18,1.77,2,2.71,2,.27,0,2.18-.7,2.18-3.49,0-1.63-1.19-4.33-3.15-4.33a17.52,17.52,0,0,0-8.64,3,1.66,1.66,0,0,1-.35.51,9.79,9.79,0,0,1-.81.61,10.91,10.91,0,0,0-1.22,2.12c0,.11-.1.25-.15.39h0c-.1.28-.28.38-.31.21a5.5,5.5,0,0,1-.05-.56,19.42,19.42,0,0,0-.34-2.47s-.27-.74-.34-1.08c0-.1,0-.51,0-.51a7.64,7.64,0,0,0-2.11-3.73c-.9-.32-1.12-.41-1.51-.16-1.53,1-3.33,3.95-6.09,9a4.77,4.77,0,0,1-1.07.88,3.77,3.77,0,0,1,0,1.42c-.55,1.75-2.14,4-2.07,4.4l.09.54-.06.63a3.15,3.15,0,0,0,2.31,1.88l.24,0c1.06-.94,1.36-2.77,2.3-4.3.11-.17.14-.2.4-.29a12.72,12.72,0,0,1,2.37-.5,3,3,0,0,1,1,0l.47-.16c.44,0,.67.11.67.46a24.61,24.61,0,0,0,.16,3.67c.18.83,1,1.39,2.47,1.51a1.59,1.59,0,0,0,1-.93,9.65,9.65,0,0,0,.11-3c0-1.43,0-2.29.08-2.75,0-.16.15-.21.2-.06h0a5.24,5.24,0,0,0,.75,1.38,13.78,13.78,0,0,0,9.6,5.2,3.64,3.64,0,0,0,3.8-2.55c.15-.39.25-.72.31-.91s.1,0,.15.06h0a4.66,4.66,0,0,0,.48.7c1.54,1.94,3.73,2.55,6.49,2.13,3.08-.46,3.5-.78,3.76-1.12a4.07,4.07,0,0,0,.65-2.06,1.77,1.77,0,0,0-.31-1.5c-.48-.47-2,0-3.9.34-2.58.44-3.67-.65-3.64-1s.12-.6.39-.67a2.71,2.71,0,0,1,1,.1,18.54,18.54,0,0,1,2.61-.28c.4,0,.86.06,1,.07,0,0,1.69-.13,2.7-.33a1.65,1.65,0,0,0,1.23-1,3.29,3.29,0,0,0-.15-2c-.71-1.47-1.55-1.63-1.73-1.59a17.24,17.24,0,0,1-5.11.59c-.29,0-.47-.36-.45-.59a2.48,2.48,0,0,1,1.58-1.78c1.93-.38,7.67-.95,9.77-1.05,1.32-.07,2.71.33,3-.11A3.41,3.41,0,0,0,715.05,28.37Zm-37.92,6c-.15.31-1.07.53-2.62.55-.07,0-.14-.13-.11-.22a29.37,29.37,0,0,1,2.05-4.23.69.69,0,0,1,.54.21A8.86,8.86,0,0,1,677.13,34.33Z"/><path class="cls-2" d="M722.67,38.93c.83.92,1.51.16,2.49-.37l.9-.39a.43.43,0,0,0,.07.24c.24.31.56.11,1,0a1.15,1.15,0,0,0,.68-.34,4.15,4.15,0,0,0,.33-.52c.11-.2,0-.74,0-.74a2,2,0,0,0-.22-.93.9.9,0,0,0-.73-.34c-.26,0-.28-.08-.51-.11a.43.43,0,0,0-.36.12s0,.43-.08.83l-.14,0c-.42.14-.48.18-1.19.4l1.22-1.45L727.32,34c.54-.79.55-.78.54-1.11,0-.6-.3-1.09-1.48-1.17a5.19,5.19,0,0,1-1.14-.2c.23-.34,1.53-1.46,2.26-2.18A5.31,5.31,0,0,0,728.78,27s-.09-.36-.1-.38-.28-1-1-1.19a1.18,1.18,0,0,0-1.22.12l-.06.06v.09s-.35.9-.62,1.42a11.7,11.7,0,0,1-1.63,2.39s-1.13,1.26-1.54,1.6-.44.69-.31,1.3.49.57.86.6a10.79,10.79,0,0,1,2,.18,8.79,8.79,0,0,1-1.07,1.65c-.76,1-1.39,1.64-1.94,2.29a1,1,0,0,0,0,1A3.19,3.19,0,0,0,722.67,38.93ZM742,42.64c-.23-.68-.1-.56-.59-1l-.58-.54A12.1,12.1,0,0,0,739.31,40l-.48-.11c-.28-.15-.69.08-.81.12s-.72-.1-.73.09-.31.18.38.74a23.17,23.17,0,0,1,1.72,2.28l.79,1.08a.74.74,0,0,0,.75,0l.51-.32C741.66,43.5,742.05,42.88,742,42.64Zm-7.63-1.83c.22-.31,0-.85,0-1l0-.39-.39-.08a16.22,16.22,0,0,1-1.94,1.16,11.74,11.74,0,0,1-2,.88s-.8.14-.83.38a2.32,2.32,0,0,0,.74,1.36,2.82,2.82,0,0,0,1.43.37c.29,0,.28-.2,1.07-.79l.73-.84C733.68,41.44,734.12,41.13,734.34,40.81ZM738,39.17l.57-.09c.13,0,.33-.27.9-.63l1.1-.58c.34-.36,1-.8.92-1.12a1.31,1.31,0,0,0-.79-.86l-.48-.27a1.45,1.45,0,0,0-1-.15l-.08,0s-.26.43-.28.48a11.9,11.9,0,0,1-1.5,1.55l-.19.13.12-1.31a7.61,7.61,0,0,1,.07-.83,17.31,17.31,0,0,1,1.86-.33c.54-.09,1-.12,1.57-.25,0,0,.79-.1.79-.76,0-.41-.78-1.26-.87-1.41-.25-.43-1.69,0-2.23,0l-1.76.44c.35-.36.27-.4,1.23-1.44a15,15,0,0,0,2-1.93c.19-.28,0-.58-.34-.93a6.14,6.14,0,0,1-.5-.61,3.51,3.51,0,0,1-.24-.47c-.26-.37-.62-.6-.85-.53a10.28,10.28,0,0,1-1.41.4h-.11a4.68,4.68,0,0,0,.31-1.38s-.11-.34-.12-.36-.84-1.32-1.09-1.37a.88.88,0,0,0-1.06.43l-.06.07v.09s-.27.92-.49,1.46a11.9,11.9,0,0,1-1.38,2.5s-1.14,1.65-1.5,2-.37.71-.21,1.31.44.68.8.69c1.39-.32,2.12-.54,2.49-.59l.55-.15c-.09.11-.17.23-.25.34s-.5.64-.88,1.11l-.9.17c-1.57.27-2.31.56-3.59.68a1.86,1.86,0,0,0-.55.66c-.41.64.71,1.38,1,1.67l1.27-.29a.41.41,0,0,0-.11.07l-.22.5,0,.16a1.06,1.06,0,0,0,0,.72c.08.28.36.39.62.51l.39.19a3.19,3.19,0,0,0,1.21.47,1.57,1.57,0,0,0,1.18-.56,1,1,0,0,0,.22-.74c0-.16.17-.16-2.73-1.34h0a.76.76,0,0,0-.24-.07l1.48-.35a21.14,21.14,0,0,1,2.59-.59c.31-.27-.06,1.35,0,2.1s-.3,2.8-.51,4.47a4.48,4.48,0,0,1-.28.92,2,2,0,0,1-.86.65,2.12,2.12,0,0,1-.53.13,6.64,6.64,0,0,0,.91,1.11s.54.48,1,.25a3.68,3.68,0,0,0,1.41-1c.18-.37.38-1,.38-1l.24-2.69A14.88,14.88,0,0,1,737,39C737.08,38.5,737.52,39.28,738,39.17Zm-1.72-8.75a2.25,2.25,0,0,1-1.18.4c-.64.08-1,.11-1,.05a10.29,10.29,0,0,1,.84-1.07.55.55,0,0,0,.57,0,7,7,0,0,1,1.21-.29c.14,0,0,.21,0,.33A6.45,6.45,0,0,1,736.27,30.42ZM723.65,42.61a.39.39,0,0,0-.13-.39l-.08.15a.32.32,0,0,1-.21.1c-.12,0-.14-.17-.14-.17l-.26-.85-.15-.68a.35.35,0,0,0-.19-.34c-.22-.12-.5.08-.5.08a6.46,6.46,0,0,0-.72,1.27A6.39,6.39,0,0,0,721,43.2a.92.92,0,0,0,.64.91,6.74,6.74,0,0,0,1.15.09l.71,0c.23,0,.21-.32.13-.63A1.76,1.76,0,0,1,723.65,42.61Zm2.23-2.47c-.14-.15-1.07-.18-1.07-.18l-.2.43s-.42.36-.42.68.14,1.21.14,1.21a.87.87,0,0,0,.55.53,1.51,1.51,0,0,0,.9-.16h.41a.36.36,0,0,0,.41-.46A8.18,8.18,0,0,0,725.88,40.14Zm2.44-.94c-.26-.06-.36-.05-.68-.11a1.53,1.53,0,0,0-.7.11v.11a.6.6,0,0,1,.19.39c0,.22-.13,1.15-.13,1.15s0,.49.16.63a2.79,2.79,0,0,0,.8.23l.54-.08a1.72,1.72,0,0,0,.47-.18c.16-.11.12-.9,0-1.45S728.57,39.25,728.32,39.2Z"/><path class="cls-2" d="M767.7,37.71,766.22,37l-.36-.35,0-.41.45-1.14-.1-.56,2.29-1,.13-.06.07-.82v0s-.27-.33-.72-1c-.35-.48-1.6.29-1.76.4l-.09,0,0-.43.07-1.05a3.81,3.81,0,0,0,0-.78c0-.17-.3-.38-.46-.5.83-.33,2.62-1.08,2.78-1.49s-1.07-1.57-1.85-2.08a1.78,1.78,0,0,0-.82-.18l-.58.18L764,26.86c-1,.7-2.79,1.95-3.3,2.27a1.46,1.46,0,0,0-.52.47l0,.17.1.24c.26.2,1,.95,1.45.95a11.64,11.64,0,0,0,1.86-.69c0,.59-.11,1.6-.17,2.71-2,.8-3.93,1.47-4.63,1.68s-1.07.27-1.7.45c-.2.06-.3.93-.3.93a3.24,3.24,0,0,0,.15.89c.18.5,1,.59,1.42.77.61.27,2.52-.81,3.85-1.39l.63-.27c-1,1.54-2.24,3.19-2.7,3.74a9.59,9.59,0,0,1-1.25,1.33,7.38,7.38,0,0,1-.77.53c-.09,0-.11.35.06.53l.65.37a3.46,3.46,0,0,0,1.26.25,3,3,0,0,0,1.37-.68l.78-.78a12.72,12.72,0,0,0,.82-1.15c-.12,2-.32,4.4-.32,4.44l-.09.57.17.08a1.7,1.7,0,0,0,2.64-1.62l.26-4,1.69,1.51a1,1,0,0,0,.6.11,2.78,2.78,0,0,0,.89-1.28C769.16,38.9,768.69,38.43,767.7,37.71Z"/><path class="cls-2" d="M776.44,32.84a2.09,2.09,0,0,0-2.08-.34l-3.21.86a1,1,0,0,0-.3-.27l-.76-.59-.37-.1-1.19.17,0,.54s.59,4.31.61,5,.28,2.73.29,2.81v0l0,.31a.85.85,0,0,0,1,.38c.31-.09,1.13-.26,1.41-.7l.06-.1a4.17,4.17,0,0,0,1.39.81,2.61,2.61,0,0,0,1.55-.42l.9-.54c1.53-.86,2.55-3.62,2.7-4.65S777.57,33.59,776.44,32.84Zm-1.35,4.58a4.22,4.22,0,0,1-2,1.35l-1,.14c-.11-.94-.28-2.09-.43-3,.59-.18,1.59-.51,1.84-.63a1.69,1.69,0,0,1,1.67-.07,4.71,4.71,0,0,1,.56.72C776,36.44,775.46,36.88,775.09,37.42Z"/><path class="cls-2" d="M780.36,31l-.37.51,0,.51.82,2.17c.17.42,1,1.44,1.44,1.44s2.11-.89,1.92-1.12c0-.09-1.25-3.28-1.25-3.28l0,0a1.62,1.62,0,0,0-1.07-.57A6.73,6.73,0,0,0,780.36,31Z"/><path class="cls-2" d="M792,28.78l.06.27-1.22,1.74a8.19,8.19,0,0,1-1.37,1.56l-.07.06-.33.93.43.67a3.12,3.12,0,0,0,1.44.41c.63-.08,2.11-1.72,2.43-1.94,1-.71,1.65-1.27,1.62-1.79,0,0,.42-.91-1.46-1.61A4.5,4.5,0,0,0,792,28.78Z"/><path class="cls-2" d="M796.4,36.12l-.44-.53a2.35,2.35,0,0,0-1.36-1l-.9.39-1.4.24c-.25,0-2.2.26-3.88.48v-.36l0-.74v-1l0-1,.06-1.44-.07-.37V30a7.24,7.24,0,0,0-.36-1.27c2.08-.36,4.38-.83,4.8-.91l.07,0,.06,0s.66,0,.5-.87A5.15,5.15,0,0,0,792,25.1c-.54-.3-.72,0-2.68.4-.58.14-3,.63-4.1.8-1.69.26-4.52.46-4.55.46l-.38,0,.15.31a10.08,10.08,0,0,0,1,1.79c.43.46,2,.19,3.09.28a6.35,6.35,0,0,0,1-.06l0,.57s.07.86,0,1.73a10.78,10.78,0,0,1,0,1.87,14.13,14.13,0,0,0-.1,1.44c0,.84,0,.89,0,1.31a.74.74,0,0,1,0,.15c-1.38.2-5.16.65-5.2.65l-1,.13a2.31,2.31,0,0,0-.91.4c-.26.27-.13.77,0,1.25l.06.23c.13.53.7,1,1,1l1.07.09c.69-.19,3.6-.91,4.73-1.13-.06.73-.12,1.58-.14,2.61,0,1.53-.28,3.46-.29,3.57a1.64,1.64,0,0,0,.17.91l.3.4.93.35a1.72,1.72,0,0,0,1.07,0c.63-.48.61-1.54.65-1.77s.36-2.68.43-4.6V38.41l3-.35,3.75-.09c.08,0,1.37.19,1.46-.31A3.24,3.24,0,0,0,796.4,36.12Z"/><path class="cls-2" d="M747.15,40.31c0,.17.83.41,1.1.37.81-.11.16-.06.75-.32a14.28,14.28,0,0,1,1.52-.45s1-.2,1.16-.27a12.75,12.75,0,0,0,1.7-.45l.07,0,.33.31c.37.39.94-.54,1.31-.91a3.7,3.7,0,0,0,.75-1.3,22.74,22.74,0,0,0,.93-3.22,3.13,3.13,0,0,0,0-.35,2.23,2.23,0,0,0-.86-1.35c-.19-.12-.54-.69-.83-.61-.46.13-2,.58-3.79,1.12l.73-.67a11.19,11.19,0,0,0,1-1.08c.17-.22.68-.71.67-1.05a4.15,4.15,0,0,0-.75-1.8c-.18-.31-.94-.23-1.47.06-.82.17-1.34.51-2.06.63.24-.4,1-1.36,1-1.36a.58.58,0,0,0,.13-.44,6.21,6.21,0,0,0-.26-.73c0-.05-.31-.27-.74-.71-.8-.8-1.19-.45-1.31-.43l-.17.19-1,2c-.21.49-1.41,2.43-1.81,3.13-.3.53-.8,1.21-1.13,1.71-.22.34.1.48.6.84a2.35,2.35,0,0,0,1.82,0,11.48,11.48,0,0,0,1.53-2.07,17.37,17.37,0,0,1,2.66-.69c.13,0-.33.57-.84,1.08A15.94,15.94,0,0,1,746,34.18l-1.32.68-.56.18-1.12.34s-.66.15-.67.39a2.55,2.55,0,0,0,.7,1.45,5.7,5.7,0,0,0,1,.57l1.32-.58a11,11,0,0,0-.35,1.06c-.15.53-.12.79-.31,1.69a7,7,0,0,0-.28,1.86c.11.9,1,1.44,1.33,2a4.14,4.14,0,0,0,1.66,1,8.5,8.5,0,0,0,4.82.18,7.68,7.68,0,0,0,3.17-1.29,4,4,0,0,0,.41-2.23c-.09-.28-.81-1.69-.94-1.37a2.38,2.38,0,0,1-1.08,1,9.46,9.46,0,0,1-1.94.82c-1.11.35-2.7.78-3.55.42-1.17-.49-1.42-.91-1.4-1.8A4.32,4.32,0,0,1,747,40,.89.89,0,0,1,747.15,40.31Zm2.39-3.79c-.13.37-.32,1.15-.43,1.64l-.27.09a17.26,17.26,0,0,0-1.65.64c.17-.87.4-1.86.61-2.62l0-.07,1.88-.56A3.23,3.23,0,0,1,749.54,36.52ZM751.7,35l1.1-.33A7,7,0,0,1,754,34.4c.34,0,.18.77,0,1.39a2.3,2.3,0,0,1-.51,1.1,2.74,2.74,0,0,0-1.15.12c-.28.08-.57.18-.87.29a7,7,0,0,1,.31-1A2.94,2.94,0,0,0,751.7,35Z"/></g></g></svg>