<svg xmlns="http://www.w3.org/2000/svg" width="1009.449" height="706.465"><path fill="none" stroke="#80C45B" stroke-width=".75" stroke-miterlimit="10" d="M325.883 357.892s63-32.666 79-50.333c0 0 11.667-13 15-9.667 0 0 8.333 12 20.667 3 0 0 4.333-2.667 10 0 0 0 10.334.333 11.667 3.333 0 0 3 3 5.667-3 0 0 1.333-8.666 9.667-9.333 0 0 7 1 5.667-5 0 0-.333-6.667 5.667-7 0 0 6.333-9.667 11-2 0 0 9.001-2.667 12.667 4 0 0 2.667 3.333 4-1.333 0 0 7.334-11.667 19-9.667 0 0 7.334 3.333 8-1.667 0 0 1.665-17.001 10.332-13.668 0 0 3-4.333 6 2 0 0 3.667-4.333 6.667 2.667 0 0 4 2.667 13 1.333 0 0 17-7.667 26 5.333 0 0 3 5.667 8.333-.333 0 0 5.667-6.334 19.667-8.667 0 0 13-7.666 21.333-6.333 0 0 14.334 1 26-1.333 0 0 28.666-2 43.333 1.333 0 0 8.333 1.333 22 1.667 0 0 37.333-3.667 44 13 0 0 7 1.667 3.667 42.667 0 0-1.333 19 2 26.333 0 0 22.334 50 31.334 66.334 0 0 8.333 14 5.333 32l.333 145.003s-.333 14.332-8 14.666l-159.666.333s-11-.332-17 2.001c0 0-16 8.667-20.333 5.667l-10-5s-1.334-2.334-13.667-2.667l-221.668-.331s-9-1.667-14 2.999c0 0-8.334 9.667-15.667 8 0 0-18-2.998-22.667-8.332 0 0-28-17.335-38-23.668 0 0-9.666-5.999-11.333-12.666 0 0-6-14.667-7.667-15.667 0 0-5-4.999.333-11.666 0 0 8-11.667 8.333-18.667 0 0 2.333-13.666 8-18.333 0 0 5.667-.999 7.333-9.333 0 0 6.333-21.668 12.333-33.334 0 0 2.333-3.999 3-14.666l.333-66.001s-1.667-4.999 5-9.333l8.002-4.671z"/><path fill="#80C45B" d="M99.883 65.892H123.883V89.892H99.883z"/><path fill="#80C45B" d="M179.883 190.559H203.883V214.559H179.883z"/><path fill="#80C45B" d="M187.883 332.559H211.883V356.559H187.883z"/><path fill="#80C45B" d="M272.55 514.559H296.55V538.559H272.55z"/><path fill="#80C45B" d="M191.216 466.559H215.216V490.559H191.216z"/><path fill="#80C45B" d="M383.216 527.893H407.216V551.893H383.216z"/><path fill="#80C45B" d="M571.883 539.226H595.883V563.226H571.883z"/><path fill="#80C45B" d="M703.883 471.226H727.883V495.226H703.883z"/><path fill="#80C45B" d="M650.883 320.226H674.883V344.226H650.883z"/><path fill="#80C45B" d="M697.549 272.226H721.549V296.226H697.549z"/><path fill="#80C45B" d="M600.216 340.226H624.216V364.226H600.216z"/><path fill="#80C45B" d="M740.216 374.893H764.216V398.893H740.216z"/><g fill="none" stroke="#80C45B" stroke-width="2" stroke-miterlimit="10"><path d="M111.87 77.395s.89.536 2.494 1.66"/><path stroke-dasharray="6.0227,6.0227" d="M119.185 82.658c24.179 19.11 99.087 92.854 82.681 263.223 0 0-43.498 188.991 85.496 181.491 0 0 73.496-.001 106.495 11.999 0 0 266.987 56.997 320.984-55.497 0 0 89.994-127.493-9-199.49 0 0-44.997-15-43.497 43.498 0 0-9.52 38.072-45.385 26.183"/><path d="M614.115 353.038a65.614 65.614 0 0 1-2.771-1.157"/></g></svg>