<svg xmlns="http://www.w3.org/2000/svg" viewBox="0 0 95.58 163.03"><defs><style>.cls-1{fill:#c7cfd5;}.cls-2{fill:#e73d23;fill-rule:evenodd;opacity:0.6;}.cls-3{fill:none;stroke:#e73d23;stroke-miterlimit:10;stroke-width:2px;}.cls-4{font-size:11px;}.cls-4,.cls-5{fill:#fff;}.cls-4,.cls-6{font-family:AdobeFanHeitiStd-Bold, AdobeFanHeitiStd Bold-B5pc-H;font-weight:700;}.cls-6{font-size:14px;fill:#575756;}</style></defs><title>Asset 6</title><g id="Layer_2" data-name="Layer 2"><g id="Layer_4" data-name="Layer 4"><circle class="cls-1" cx="47.79" cy="47.79" r="47.79"/><path class="cls-2" d="M24.53,58.36h6.16c.39,0,.78.12,1.17.13a32.4,32.4,0,0,1,6.16.82,12.38,12.38,0,0,0,4.35.28,13.08,13.08,0,0,1,3.06,0,11.56,11.56,0,0,1,5,2.08.56.56,0,0,0,.68.05c.66-.39,1.32-.76,2-1.13l1-.53c.17.63-.46.85-.54,1.35A3.54,3.54,0,0,1,56,60.81a1.24,1.24,0,0,0-.71,1.07A4,4,0,0,1,54.73,64l.47.54a5,5,0,0,1,1.32,2.31,1.09,1.09,0,0,0,.36.63c.82.57,1.68,1.08,2.5,1.63.12.08.27.28.25.4a4.08,4.08,0,0,1-.28,1.08c-.44,1-.68,1.11-1.73.76l-.18-.06a1.5,1.5,0,0,0-1.49.22.65.65,0,0,1-.37.16c-.61,0-1.22.05-1.83.05-.33,0-.66-.2-1,.13-.08.09-.32.06-.47,0s-.43-.14-.65-.17a1.74,1.74,0,0,0-.82,0,9.42,9.42,0,0,1-3.44.8.46.46,0,0,0-.32.14A5.4,5.4,0,0,0,45.91,77c.09.57.41,1.1.53,1.66a2.94,2.94,0,0,0,1,1.46.66.66,0,0,1,.13.14c.06.12.18.29.15.35s-.24.13-.37.18a.36.36,0,0,1-.11,0c-.05.15-.07.37-.15.39a.57.57,0,0,1-.44-.09,3,3,0,0,1-.66-.66,1.84,1.84,0,0,0-.88-.82.46.46,0,0,1-.19-.72.77.77,0,0,0,.08-.87l-1.13-2.74a.78.78,0,0,0-.09.12A6.24,6.24,0,0,0,43,78.7a.73.73,0,0,0,.17.51,1.54,1.54,0,0,1,.41.77,5,5,0,0,0,.35.55c.11.19.18.4.27.61l-.48,0c-.19.11-.41.28-.45.25-.41-.31-.91-.54-1.06-1.11a.66.66,0,0,0-.33-.37c-.36-.16-.44-.29-.36-.69a3.45,3.45,0,0,0,.15-1,19.64,19.64,0,0,1-.48-4.31c-.59.08-1.14.12-1.66.25s-1.28.41-1.94.57a21.38,21.38,0,0,1-7.31.25c-1-.12-2-.33-3.13-.52A19.85,19.85,0,0,0,27,76.58a1.81,1.81,0,0,0,.85,1.58.56.56,0,0,1,.27.3c.08.4.41.58.67.83a6.16,6.16,0,0,1,.54.52,2,2,0,0,1,.2.49l-.52,0h-.07c-.2.51-.32.57-.85.16a4.47,4.47,0,0,1-.6-.75c-.1-.12-.22-.3-.34-.31-.63-.07-.82-.46-.9-1a1.78,1.78,0,0,0-1-1.46,1.7,1.7,0,0,1-.9-2.35c.07-.21.15-.42.22-.6-.3-.26-.48-.17-.69.1a9.3,9.3,0,0,1-2.14,2.19,1.28,1.28,0,0,0-.6,1.57,2.88,2.88,0,0,1,0,1.69.38.38,0,0,0,.08.32c.26.31.57.59.82.91s.19.46-.21.55c-.06,0-.16,0-.17,0a.39.39,0,0,1-.57.24,1.39,1.39,0,0,1-.57-.38,8.22,8.22,0,0,1-.45-1,.64.64,0,0,0-.25-.31.51.51,0,0,1-.34-.65,3.67,3.67,0,0,0-.3-2.47,1.2,1.2,0,0,1,.26-1.53c.43-.44.84-.89,1.23-1.36s.46-.88,0-1.42a6.21,6.21,0,0,1-1.41-3.22,7.19,7.19,0,0,0-.48-1.64,10.25,10.25,0,0,1-.38-1.06,2.34,2.34,0,0,1,0-1.43,6.79,6.79,0,0,0,.28-1.27c0-.29-.15-.38-.43-.27a1.32,1.32,0,0,0-.86,1c-.09.43-.11.88-.17,1.32a3.35,3.35,0,0,1-.36-1,2.17,2.17,0,0,1,.7-1.81A7.44,7.44,0,0,1,17,61.9a1.11,1.11,0,0,1,.58-1.14c.73-.5,1.53,0,2,.74a2,2,0,0,0,.19-.17c.49-.55,1-1.12,1.48-1.64a4.12,4.12,0,0,1,2.07-1.15C23.72,58.46,24.13,58.42,24.53,58.36Zm-6.09,4c.18-.15.44-.27.53-.46s-.34-.52-.69-.51-.33.3-.34.52S18.11,62.29,18.45,62.35Z"/><path class="cls-2" d="M24.29,28.88a1.77,1.77,0,0,0,1.08,1.69.81.81,0,0,1,.37.29,1.11,1.11,0,0,0,.94.61,7.69,7.69,0,0,0,1.59,0,6.73,6.73,0,0,1,2.32.15,7.16,7.16,0,0,0,3.56,0,.84.84,0,0,1,.54.08,6.32,6.32,0,0,1,2.39,2.16,4,4,0,0,1,.8,2.1,6.26,6.26,0,0,0,1.34,3.55,18.65,18.65,0,0,1,1.42,2.07,5,5,0,0,0,3.12,2.16.66.66,0,0,1,.58.53,24.26,24.26,0,0,1,.93,6.19,13.24,13.24,0,0,1-.4,3.73,2.7,2.7,0,0,1-.45.78c-.43.61-.92,1.19-1.31,1.83s-.12.88.49.91a7.4,7.4,0,0,0,1.81-.17,1.72,1.72,0,0,0,1.13-1,1.34,1.34,0,0,1,.58-.74c.2-.11.32-.52.34-.81.09-1.27.13-2.53.19-3.8a15.86,15.86,0,0,1,.58-4.38c.07-.22.18-.42.32-.73.14.29.23.48.32.67a7.68,7.68,0,0,0,.47,1.07A6.39,6.39,0,0,1,50.15,52c-.09,1-.18,1.94-.29,2.91a1.63,1.63,0,0,1-.21.53c-.26.51-.57,1-.79,1.52-.33.8.06,1.37.93,1.37A5.08,5.08,0,0,0,51,58.22a1.83,1.83,0,0,0,1.56-1.9c0-.21,0-.42,0-.62.55-.21.72-.49.57-1.12a22,22,0,0,1-.38-6.33c.06-1.11.24-2.22.34-3.33,0-.5,0-1,0-1.53a11.68,11.68,0,0,1,4-.44c1.79.08,3.57.24,5.35.32A16.12,16.12,0,0,0,70,42.19a1,1,0,0,1,1.36.29A12.71,12.71,0,0,0,73,43.84a.7.7,0,0,1,.32.61,4.15,4.15,0,0,0,.16,1.11c.13.46.36.49.72.16.49.44.56.38.81-.66.42,0,.65.18.66.63a1.18,1.18,0,0,0,.16.47c0,.09.15.21.23.22.34,0,.68,0,1,0A15.64,15.64,0,0,1,76,52.61a12.82,12.82,0,0,1-1.24,1.72c-.42.61-.85,1.21-1.21,1.85s-.21.82.46,1A3.89,3.89,0,0,0,76.2,57a1.6,1.6,0,0,0,1.16-1.47c.46,0,.66-.27.71-.64a33.58,33.58,0,0,1,2.28-7.85c.2-.52.35-1.05.54-1.63a6.58,6.58,0,0,1,1.55,2.6,10.4,10.4,0,0,1,.23,4.4c-.09.77-.23,1.54-.37,2.31a1.28,1.28,0,0,1-.22.43,17,17,0,0,0-1,1.64c-.31.62,0,1.07.66,1.17A3.74,3.74,0,0,0,84,57.62a2.18,2.18,0,0,0,1-1.73c0-.18,0-.36.08-.56.49,0,.61-.32.6-.72,0-1-.05-2-.12-3a23.65,23.65,0,0,1,.31-5.79c.07-.35.08-.72.12-1.08,0-.12,0-.23.07-.36l.81.4.08-.08c-.18-.27-.34-.55-.53-.81a3.66,3.66,0,0,1-.46-2.17,18.69,18.69,0,0,0-.12-1.87,1.27,1.27,0,0,0-.68-1,.45.45,0,0,1-.17-.34,32.55,32.55,0,0,1-.07-3.63c.17-2.2.5-4.38.72-6.57a7.79,7.79,0,0,0-.31-3.52,3.34,3.34,0,0,0-3-2.41,15.9,15.9,0,0,1-2.76-.54,13.44,13.44,0,0,0-5.16-.19,25.58,25.58,0,0,0-6.7,1.89,1.11,1.11,0,0,1-.36.08,65.85,65.85,0,0,1-9-.14c-3-.23-6-.48-9.06-.69-1.61-.11-3.23-.2-4.85-.21-1.21,0-2.42.13-3.63.2a.79.79,0,0,1-.37,0c-.62-.3-1.24-.61-1.88-.93.09-.14.12-.2.16-.26.43-.58.32-1-.39-1.17a5.47,5.47,0,0,0-1.52-.08c-.42,0-.7-.17-.63-.58a1.12,1.12,0,0,0-.47-1.17,7.42,7.42,0,0,1-.77-.57c-.44-.42-.85-.88-1.28-1.31a2.52,2.52,0,0,0-.45-.29c0,.17-.17.38-.12.51a12,12,0,0,0,.65,1.29,3.56,3.56,0,0,0,.38.47,3.89,3.89,0,0,0-1.23,0,1.59,1.59,0,0,1-1.61-.37c-.5-.37-1-.79-1.43-1.17-.09.6.11.92,1.52,2.39-.48.58-1,1.14-1.43,1.76s-.87,1.35-1.31,2c-.16.25-.32.51-.5.75-.58.77-1.14,1.55-1.77,2.28a4,4,0,0,1-1.16.92A1.57,1.57,0,0,0,24.29,28.88Zm60.66,1c-.07.55-.12,1.1-.21,1.65a24.65,24.65,0,0,0-.33,6,3.2,3.2,0,0,1-.54,2.16C83.32,36.33,84.07,33.11,85,29.93Z"/><line class="cls-3" x1="49.61" y1="129.02" x2="49.61" y2="65.96"/><text class="cls-4" transform="translate(22.01 145.84)">NP</text><text class="cls-4" transform="translate(22.01 159.84)">PCBs </text><path class="cls-5" d="M77,111.49H22.19a4.6,4.6,0,0,0-4.6,4.6v11a4.6,4.6,0,0,0,4.6,4.6H77a4.6,4.6,0,0,0,4.6-4.6v-11A4.6,4.6,0,0,0,77,111.49Z"/><text class="cls-6" transform="translate(21.67 127.1)">毒害動物</text></g></g></svg>