<svg xmlns="http://www.w3.org/2000/svg" viewBox="0 0 166.24 163.85"><defs><style>.cls-1{fill:#c7cfd5}.cls-2{fill:#cc8fbe;fill-rule:evenodd;opacity:.6}.cls-3{fill:none;stroke:#cc8fbe;stroke-miterlimit:10;stroke-width:2px}.cls-4{fill:#fff}.cls-5{font-size:14px;fill:#575756;font-family:AdobeFanHeitiStd-Bold,AdobeFanHeitiStd Bold-B5pc-H;font-weight:700}</style></defs><g id="Layer_2" data-name="Layer 2"><g id="Layer_4" data-name="Layer 4"><circle class="cls-1" cx="63.55" cy="63.55" r="63.55"/><path class="cls-2" d="M118.76 56.37c-.23-.42-.37-.9-.62-1.31-.55-.89-.8-2.25-2.14-2.15s-1.65 1.25-2.11 2.26c-.6 1.3-.79 2.82-2 3.81a34.19 34.19 0 0 0 0-6c-.3-3.27-2.3-5.26-5-6.57-2.1-1-3.9.45-3.69 2.76.05.6.19 1.19.22 1.79.11 2.09.55 4.17.1 6.27-.31 1.46-.89 2.45-2.63 2.26s-3.25-.2-4.87-.33c-7.21-.57-14.25-.15-20.76 3.43-.65-.78-.11-1.74-.4-2.57a79 79 0 0 0-.08-8.87c-.12-1.72-.88-3.25-2.52-3.57s-2.1-1.42-2.45-2.77a9.27 9.27 0 0 0-5.57-6.58 1.73 1.73 0 0 0-1.16-.23 5.19 5.19 0 0 0-4.21 5.12 22.87 22.87 0 0 0 .13 2.75c.06.59 0 1.17-.55 1.39s-1-.37-1.28-.79a5.75 5.75 0 0 1-1.17-3.7c.6-5.75-1.69-10.24-6.19-13.71a23.21 23.21 0 0 0-12.69-4.67c-9.34-.78-19.68 5-23.54 13.67a11.21 11.21 0 0 0-1.21 4.49l-.13.87a35.84 35.84 0 0 0 .49 9.37C14.11 59 18.41 63.12 23 67l.78.66v-.15.15a13.27 13.27 0 0 0 2.07 1.73c3.4 1.85 4.91 4.82 5.3 8.52.06.54.19 1.07.29 1.6.83 4.37 2.06 8.61 4.87 12.15a49.9 49.9 0 0 0 13.52 11.6c10.62 6.4 22.29 7.85 34.35 7.5 5.74-.17 10.12-2.87 13.37-7.5a8 8 0 0 0 1.57-4.55 44.8 44.8 0 0 0-.9-10.26c-.9-4.13-3.27-7.56-5.69-10.93-.49-.68-1.3-1.38-.82-2.22s1.55-.76 2.47-.62a2.54 2.54 0 0 1 .53.11 13.63 13.63 0 0 0 10.71-.71 7.9 7.9 0 0 1 6-.27c2.58.84 3.59.2 3.91-2.59a18.25 18.25 0 0 1 3.12-8.58 5.46 5.46 0 0 0 .31-6.27zm-95 10.77zm0 0zm-.05 0h-.06zm-.06 0c-.18 0-.43 0-.61-.06.18-.08.43-.08.61-.08zm-.72-1.16a.59.59 0 0 0-.07-.12.59.59 0 0 1 .07.02zm.1 1.07A8.28 8.28 0 0 0 23 66a8.28 8.28 0 0 1 0 .95zM23 66v-.12zm.88 1.46a.58.58 0 0 0 0-.08.58.58 0 0 1-.02.09zm0-.33zm0 .06zm0 .08a.46.46 0 0 1 0 .06.46.46 0 0 0-.01-.04zm39.4-5.86c.58 1.79.1 3.57-.09 5.34-.09.84-1 1.26-1.42.76-1.6-1.83-3.79-1-5.67-1.54 2.93-1.24 4.07-3.55 4-6.61-.1-1.36-.1-2.76-.24-4.13a2.3 2.3 0 0 1 .39-1.87c.36-.4.74-1 1.29-.86s.42.89.47 1.37c.21 1.85.37 3.71.51 5.56a4 4 0 0 0 .74 2 3.31 3.31 0 0 1 2.54-1.63 3.31 3.31 0 0 0-2.53 1.63z"/><path class="cls-3" d="M56.54 94.22v35s-.05 24.53 24.46 24.53h33.81"/><path class="cls-4" d="M161.64 143.64h-54.85a4.6 4.6 0 0 0-4.6 4.6v11a4.6 4.6 0 0 0 4.6 4.6h54.84a4.6 4.6 0 0 0 4.6-4.6v-11a4.6 4.6 0 0 0-4.59-4.6z"/><text class="cls-5" transform="translate(106.27 159.25)">影響成長</text></g></g></svg>