<svg xmlns="http://www.w3.org/2000/svg" viewBox="0 0 467.32 690.03"><defs><style>.cls-1{fill:#c7cfd5;}.cls-2{fill:#00a19a;opacity:0.2;}.cls-3{fill:#6a6b6a;}.cls-3,.cls-4,.cls-6,.cls-7,.cls-9{opacity:0.6;}.cls-5{fill:#612d27;}.cls-6{fill:#5eb673;}.cls-7{fill:#314e64;}.cls-8{fill:#47b0b0;}.cls-9{fill:#f5bd4a;}.cls-10{fill:#e73d23;}.cls-11{fill:#cc8fbe;}.cls-12,.cls-13,.cls-14,.cls-15,.cls-16,.cls-20{fill:none;stroke-miterlimit:10;stroke-width:2px;}.cls-12{stroke:#fff;}.cls-13{stroke:#cc8fbe;}.cls-14{stroke:#5eb673;}.cls-15{stroke:#00a19a;}.cls-16{stroke:#f5bd4a;}.cls-17{font-size:11px;}.cls-17,.cls-18{fill:#fff;}.cls-17,.cls-19{font-family:AdobeFanHeitiStd-Bold, AdobeFanHeitiStd Bold-B5pc-H;font-weight:700;}.cls-19{font-size:14px;fill:#575756;}.cls-20{stroke:#612d27;}</style></defs><title>Asset 8</title><g id="Layer_2" data-name="Layer 2"><g id="Layer_3" data-name="Layer 3"><path class="cls-1" d="M346.49,380.17a32.61,32.61,0,0,0-2.51-2.93c-2-4.76-3.19-9.42-7.36-13.3-5.24-4.87-11.27-11.17-14.47-18.2-1.67-16.79-1.4-33.52-2.83-50.32a181.23,181.23,0,0,0-3.76-24,179.92,179.92,0,0,0-6.25-18.67c-.14-1.11-.3-2.21-.43-3.33-.69-6.84-.16-13.37-.19-20.2,0-6.56.29-13.33-.66-19.84A52,52,0,0,0,305.16,199c-.41-1.13-.85-2.25-1.28-3.38,4.62-15.43,2.27-31.3-5.51-45.79-3.14-5.87-7.4-11-13.48-14-4.47-2.16-9.17-2.83-13.89-4.08-2.79-.73-5.27-2.27-7.94-3.29-7.94-4.24-16.07-8.11-24-12.41a38.58,38.58,0,0,1,2.93-16.84,24.5,24.5,0,0,0,2.1-9.26,27.51,27.51,0,0,0-.16-3.74,11,11,0,0,1,3.14-2.08,5.34,5.34,0,0,0,1.93-1.58c1.72-2.25,2.48-6,3.12-8.69.55-2.3,2-6.21,1.22-8.64-.5-1.64-1.69-2-2.89-2.57,1.47-7,2-15.59-.65-22.53-2.51-6.5-6.06-11.62-12.13-15.31-7.91-4.82-16.43-6.61-25.32-3.67a34,34,0,0,0-11.05,6c-3.45,2.87-4.72,6.07-6.94,9.73-4.44,7.32-3.95,17.67-2.24,25.78-1.2.53-2.38.92-2.89,2.57-.76,2.42.66,6.34,1.22,8.64.65,2.64,1.41,6.43,3.13,8.69a5.34,5.34,0,0,0,1.93,1.58,11,11,0,0,1,3.14,2.08,27.05,27.05,0,0,0-.16,3.74,24.48,24.48,0,0,0,2.1,9.26A38.55,38.55,0,0,1,203.58,116c-7.89,4.3-16,8.17-24,12.41-2.67,1-5.14,2.55-7.94,3.29-4.72,1.25-9.42,1.93-13.89,4.08-6.08,3-10.34,8.14-13.48,14-7.78,14.49-10.13,30.36-5.51,45.79-.43,1.13-.87,2.25-1.28,3.38a52.21,52.21,0,0,0-2.89,10.44c-.95,6.51-.65,13.29-.66,19.84,0,6.84.51,13.36-.19,20.2-.13,1.13-.28,2.22-.43,3.33a180.67,180.67,0,0,0-6.25,18.67,181.58,181.58,0,0,0-3.76,24c-1.42,16.79-1.15,33.52-2.83,50.32-3.2,7-9.23,13.33-14.47,18.2-4.17,3.88-5.32,8.54-7.35,13.3a32.77,32.77,0,0,0-2.51,2.93,1,1,0,0,0,.63,1.53c3,.74,5.86-2.36,7.89-4.24,1.34-1.24,2.51-2.54,3.69-3.79.5,0,.66.31.46,1,.33.25.46,1,.46,1.93,0,4.08-2.37,13.08-2.76,15.32-.8,4.68-2.45,9.5-2.73,14.19a2,2,0,0,0,3.36,1.38c2.65-3.1,3.25-6.93,4.7-10.66l.33-.83c-.1,1.22-.14,2.14-.19,2.38-.88,4.7-2.34,9.3-2.76,14.07a2.25,2.25,0,0,0,2.23,2.21c2.9.16,4.34-3,5.6-5.55,3.68.23,6.87-5.2,9.17-8.81,5.9-2.69,8.84-12.05,10.43-17.61,3.09-10.75,3.58-22.52,2.48-33.6a1.85,1.85,0,0,0-.17-.58c.79-2.47,1.88-4.91,2.65-7.18,1.67-4.93,3.88-9.53,6-14.26a123.53,123.53,0,0,0,9.6-32.8c1.61-10.69,2.41-21.41,3-32.19a108.11,108.11,0,0,1,6.19-31.3c4,11.55,7.31,22.21,6.94,34.88-.46,16.45-5.36,31.52-9.42,47.28-7.05,27.39-8.93,55.73-4.5,83.63a1.61,1.61,0,0,0,.54,1c.38,26.48,13,51.86,15.12,78.28,2.59,32.52-9.77,63.79-3.55,96.33a1.38,1.38,0,0,0,.58.91c.06,1.74.13,3,.17,3.21,1.63,8.33,4.29,16.6,6.14,24.92a195.61,195.61,0,0,1,4.48,26.14c.6,7,.08,13.94.51,21-.46.83-.95,1.67-1.45,2.52a116.71,116.71,0,0,1-12.36,16.64c-1.7,1.92-4.47,4-4.48,6.82s2.38,3.08,2.65,5.38a2,2,0,0,0,2,2,8,8,0,0,0,1.61-.09,10.94,10.94,0,0,0,.77,2.29,1.92,1.92,0,0,0,2.15.88c.14-.06,1.25-.52,2.07-.91l.13.16c1,1,.28,1.75,2.1,2.86a1.86,1.86,0,0,0,1.89,0c2.34-1.74,3.79-4.1,5.66-6.18-.87,3-2.26,6.57-.36,8.45s6.71.8,8.36-.67c1.36-1.21,1.85-3.73,2.35-5.34,1.15-3.68,3.22-6.12,4.91-9.44s1.85-6.67,3.66-10.24a25.63,25.63,0,0,0,2.79-8.34,1.58,1.58,0,0,0-.88-1.72,33.73,33.73,0,0,0-.9-6.07c-.57-2.46-.38-5.3-.47-8a19.29,19.29,0,0,0,.87-4.27,17.79,17.79,0,0,0-1.78-8.19c.63-7.53.7-15.2,1.49-22.57,1.13-10.56,1.72-21.24,3.06-31.77,1.29-10.09,3-20.31,2.43-30.5-.38-6.31-2.37-12.11-4.2-18,1.06-9.48,4-18.47,4.54-28.09.63-12,3.41-23.48,4.7-35.39,1.25-11.47-.79-23,.21-34.49a356.54,356.54,0,0,1,4.44-35.56A356.53,356.53,0,0,1,225.78,426c1,11.52-1,23,.2,34.49,1.29,11.91,4.07,23.37,4.7,35.39.5,9.63,3.49,18.61,4.54,28.09-1.83,5.85-3.82,11.66-4.2,18-.61,10.19,1.14,20.41,2.43,30.5,1.34,10.53,1.92,21.21,3.06,31.77.79,7.37.85,15,1.48,22.57a17.83,17.83,0,0,0-1.78,8.19,19.4,19.4,0,0,0,.87,4.27c-.1,2.71.09,5.55-.47,8a33.64,33.64,0,0,0-.9,6.07,1.58,1.58,0,0,0-.88,1.72,25.67,25.67,0,0,0,2.79,8.34c1.81,3.57,1.94,6.87,3.66,10.24s3.75,5.76,4.91,9.44c.5,1.61,1,4.13,2.35,5.34,1.66,1.47,6.58,2.42,8.37.67s.5-5.48-.36-8.45c1.88,2.08,3.33,4.44,5.66,6.18a1.86,1.86,0,0,0,1.89,0c1.82-1.11,1.07-1.91,2.1-2.86l.13-.16c.82.39,1.92.85,2.07.91a1.92,1.92,0,0,0,2.15-.88,11,11,0,0,0,.77-2.29,8,8,0,0,0,1.61.09,2,2,0,0,0,2-2c.27-2.3,2.65-2.68,2.65-5.38s-2.78-4.9-4.48-6.82a116.78,116.78,0,0,1-12.36-16.64c-.5-.85-1-1.69-1.45-2.52.43-7-.09-14,.5-21a195.92,195.92,0,0,1,4.48-26.14c1.85-8.31,4.51-16.59,6.14-24.92,0-.25.11-1.47.17-3.21a1.39,1.39,0,0,0,.58-.91c6.22-32.54-6.14-63.81-3.55-96.33,2.12-26.42,14.74-51.8,15.12-78.28a1.59,1.59,0,0,0,.54-1c4.44-27.9,2.56-56.25-4.5-83.63-4.05-15.76-9-30.83-9.42-47.28-.36-12.68,3-23.33,6.95-34.88a108,108,0,0,1,6.18,31.3c.54,10.78,1.34,21.5,3,32.19a123.64,123.64,0,0,0,9.6,32.8c2.13,4.73,4.34,9.33,6,14.26.77,2.27,1.86,4.71,2.65,7.18a2,2,0,0,0-.17.58c-1.1,11.08-.62,22.85,2.48,33.6,1.59,5.56,4.53,14.91,10.43,17.61,2.3,3.62,5.49,9,9.17,8.81,1.26,2.55,2.7,5.71,5.6,5.55a2.25,2.25,0,0,0,2.23-2.21c-.43-4.77-1.88-9.37-2.76-14.07,0-.23-.1-1.16-.19-2.38l.33.83c1.45,3.72,2.05,7.56,4.7,10.66a2,2,0,0,0,3.36-1.38c-.28-4.7-1.92-9.52-2.73-14.19-.39-2.24-2.76-11.24-2.76-15.32,0-1,.13-1.68.46-1.93-.2-.69,0-1,.46-1,1.18,1.25,2.35,2.55,3.69,3.79,2,1.88,4.88,5,7.89,4.24a1,1,0,0,0,.63-1.53"/><path class="cls-2" d="M334.24,369.47c-5.63-7.19-13.84-12.25-17.85-20.36a91.27,91.27,0,0,0-2.82-10.74,166.19,166.19,0,0,0-3.3-26.66,123.61,123.61,0,0,0-3.79-13.79,81.46,81.46,0,0,0-.26-17.28,84.93,84.93,0,0,0-7.39-25.11q-.93-1.93-1.89-3.85a1.08,1.08,0,0,0,0-.26c-2.35-14.12,1.87-27.84,1.42-41.9-.43-13.38-7.38-26.09-13.16-37.83-.66-1.35-1.36-2.63-2.1-3.87l.36.22c3.61,2.09,7,4.19,10.45,6.61.63.45,1.36-.55.81-1.05-2.62-2.38-5.26-4.81-8.5-6.32a27.13,27.13,0,0,1-5.13-3.08c-.33-.24-.65-.51-1-.77a35.5,35.5,0,0,0-6.31-6.27c-5-3.83-10.59-6.68-15.6-10.47-5.78-4.37-11.15-9.24-17.34-13.06-4.36-2.69-9.61-6-14.75-7.36q-.1-4.14-.33-8.26c1.46,2,4.15,5,4.6,5.52a41,41,0,0,0,6.89,6.46,80.9,80.9,0,0,0,18.52,10.28c6.6,2.66,13.82,3.59,20.41,6.21.48,1,1,1.95,1.46,2.95a27.09,27.09,0,0,0,2.7,4.93.6.6,0,0,0,1-.61c-1.22-2.23-2.34-4.49-3.68-6.63.55.25,1.11.51,1.65.78,7.67,3.93,12.34,10.81,17.68,17.25.25.3.78-.11.55-.42-3.22-4.34-6.1-8.88-9.82-12.73.41.26.81.53,1.17.74,1.06.62,2.11,1.26,3.11,2,.47.34.93-.45.46-.78a23.32,23.32,0,0,0-3.83-2.13,12.14,12.14,0,0,0-2.07-.93,32.42,32.42,0,0,0-2.85-2.45c-6.26-4.71-13.76-6.11-21.1-8.27a80.21,80.21,0,0,1-24.11-11.86c-4.71-3.44-8.18-8.58-12.89-11.9q-.24-3.86-.56-7.7a82.26,82.26,0,0,1,0-12.57c.72,1.15,2,2.48,2.47,3.25a23.73,23.73,0,0,1,3.12,6.5c.39,1.28.66,2.61.93,3.93.13,1.05.28,2.1.48,3.14,1.51,7.91,7.06,14.17,13.15,19.08.33.27.8-.17.48-.48a49.61,49.61,0,0,1-7.64-9.39,31.51,31.51,0,0,0,5,4c5.4,3.45,11.42,4.79,17.39,6.85,5.59,1.93,10,6,15.45,7.94.58.21.95-.7.42-1a44.69,44.69,0,0,1-4.54-2.82,12,12,0,0,0,2,.26c.78,0,.73-1.09,0-1.18a16.66,16.66,0,0,1-4-.78c-.37-.14-.68-.26-1-.36a36.39,36.39,0,0,0-6.47-3.74c-6.05-2.56-12.47-3.54-18.13-7.15a24.17,24.17,0,0,1-8.94-9.66,25,25,0,0,1-1.37-3.92c-.6-4-.71-8.06-1.27-12-.45-3.16-2-12.71-6.54-13.9a126.23,126.23,0,0,0,.74-13.59c0-.33-.54-.43-.6-.08-2,11.52-4.34,23.31-3.55,35.08q.94,14.12,1.31,28.23c-.15.1-.21.34,0,.43h0q.14,5.31.23,10.62a.61.61,0,0,0,.16.42c.06,4.36.2,8.73.17,13-.06,8-.2,15.86-.57,23.81a.16.16,0,0,0,0,.23l0,0c0,.52,0,1-.07,1.56-.83,16.1-.14,32,.23,48.08.41,18.22,2.8,35.88,1,54.15-.72,7.47-1.63,14.9-2,22.42s.42,15.38,0,23a.67.67,0,0,0-.57.56,6.73,6.73,0,0,1-.93,2.93,1.57,1.57,0,0,1-1.93.44,2.79,2.79,0,0,1-1.08-1.23.56.56,0,0,0,.25-.53c0-.2,0-.4,0-.6h0a.42.42,0,0,0,0-.5c-.57-8,.37-16.08,0-24.09-.39-7.52-1.3-14.95-2-22.42-1.76-18.27.63-35.93,1-54.15.37-16.09,1.05-32,.23-48.08,0-.52,0-1-.07-1.56l0,0a.16.16,0,0,0,0-.23c-.37-7.95-.52-15.85-.57-23.81,0-4.29.11-8.66.17-13a.6.6,0,0,0,.16-.42q.08-5.31.23-10.62h0c.2-.09.14-.33,0-.43q.39-14.13,1.31-28.23c.79-11.77-1.52-23.57-3.55-35.08-.06-.35-.59-.25-.6.08a126,126,0,0,0,.74,13.59c-4.54,1.19-6.1,10.74-6.54,13.9-.55,3.92-.67,8-1.27,12a24.88,24.88,0,0,1-1.37,3.92,24.17,24.17,0,0,1-8.94,9.66c-5.66,3.61-12.08,4.59-18.13,7.15a36.43,36.43,0,0,0-6.47,3.74c-.32.1-.63.22-1,.36a16.65,16.65,0,0,1-4,.78c-.73.09-.78,1.21,0,1.18a12,12,0,0,0,2-.26A44.7,44.7,0,0,1,165.7,140c-.53.28-.17,1.19.42,1,5.5-1.94,9.86-6,15.45-7.94,6-2.06,12-3.4,17.39-6.85a31.54,31.54,0,0,0,5-4,49.71,49.71,0,0,1-7.63,9.39c-.32.31.15.75.48.48,6.09-4.91,11.64-11.17,13.15-19.08.2-1,.35-2.08.48-3.14.27-1.32.54-2.65.93-3.93a23.73,23.73,0,0,1,3.12-6.5c.5-.76,1.75-2.1,2.47-3.25a82.13,82.13,0,0,1,0,12.57q-.32,3.83-.56,7.7c-4.71,3.31-8.18,8.46-12.89,11.9a80.18,80.18,0,0,1-24.11,11.86c-7.34,2.16-14.84,3.56-21.1,8.27a32.39,32.39,0,0,0-2.85,2.45,12.09,12.09,0,0,0-2.07.93,23.26,23.26,0,0,0-3.83,2.13c-.47.33,0,1.12.46.78,1-.72,2-1.36,3.11-2,.36-.21.76-.48,1.17-.74-3.72,3.85-6.6,8.39-9.82,12.73-.23.31.29.72.55.42,5.34-6.44,10-13.32,17.68-17.25.54-.28,1.1-.54,1.65-.78-1.34,2.14-2.46,4.41-3.68,6.63a.6.6,0,0,0,1,.61,27.09,27.09,0,0,0,2.7-4.93c.45-1,1-2,1.46-2.95,6.6-2.62,13.81-3.55,20.42-6.21A80.9,80.9,0,0,0,204.85,130a41.12,41.12,0,0,0,6.89-6.46c.45-.55,3.14-3.55,4.6-5.52q-.24,4.12-.33,8.26c-5.14,1.41-10.39,4.67-14.75,7.36-6.19,3.82-11.56,8.69-17.34,13.06-5,3.79-10.64,6.64-15.6,10.47a35.54,35.54,0,0,0-6.31,6.27c-.32.27-.65.53-1,.77a27.18,27.18,0,0,1-5.13,3.08c-3.24,1.5-5.88,3.94-8.5,6.32-.55.5.19,1.5.81,1.05,3.42-2.43,6.83-4.53,10.44-6.61l.36-.22c-.74,1.24-1.44,2.53-2.1,3.87-5.79,11.75-12.74,24.45-13.17,37.83-.45,14.05,3.77,27.78,1.42,41.9a1,1,0,0,0,0,.26c-.64,1.28-1.27,2.57-1.89,3.85a84.93,84.93,0,0,0-7.39,25.11,81.46,81.46,0,0,0-.26,17.28,124.24,124.24,0,0,0-3.79,13.79,166.51,166.51,0,0,0-3.3,26.66,91.86,91.86,0,0,0-2.81,10.74c-4,8.11-12.22,13.17-17.85,20.36-.24.3.18.74.43.43,5-6.13,12.39-10,16.61-16.3-.3,1.9-.54,3.8-.75,5.69-1.59,2-4,3.74-5.23,6-1.51,2.75-2.23,6.17-3,9.17-2.32,8.59-4.45,17.5-6,26.26a.42.42,0,0,0,.8.22c2.52-8.62,4.16-17.46,6.53-26.11.41-1.52.83-3.06,1.31-4.58-.35,4.21.29,8.89.45,12.44a84,84,0,0,1-2.75,24.68.48.48,0,0,0,.92.26,70.3,70.3,0,0,0,3.43-20.12c.08-6.12-2.05-13.6-1.07-20a22.55,22.55,0,0,1,2.35-4.48c.59-.84,1.41-1.63,2.13-2.47-.25,2.5-.43,5-.52,7.4,0,.61.85.57.92,0a158.57,158.57,0,0,1,3.94-20.64c0,1.13,0,2.27,0,3.41q0,1,0,1.94c-.18,0-.37.15-.29.34a9.27,9.27,0,0,1,.31.9c.2,13.25-.16,26.79-5.26,39.23-.22.53.7.93.94.4a73.26,73.26,0,0,0,5.52-20.9c0,.47,0,.94,0,1.41-.25,7.15-1.86,14-3.24,21a.67.67,0,0,0,1.29.36,73,73,0,0,0,3.4-22.37,99.06,99.06,0,0,0-.7-9.9q.11-3.19.06-6.35c-.08-5.77-.07-11.43.14-17,.8-2.5,1.66-5,2.6-7.42,1.41-3.65,3-7.23,4.67-10.8.11,2.24.19,4.48.17,6.72,0,3-.1,5.92-.22,8.89-1.59,4.6-3.37,9.13-5.07,13.73-.17.46.59.79.8.34,1.4-3.08,2.78-6.14,4.06-9.22a306.74,306.74,0,0,1-4.87,39.77.45.45,0,0,0,.87.24c3.67-13.09,5.32-27.44,5.74-41.32a.35.35,0,0,0,.06-.15c.25-1.55.43-3.1.56-4.65a87.19,87.19,0,0,0,2.55-8.34c1.82-7.33,2.42-15.07,2.91-22.63,1-2.48,2-5,2.8-7.52,3.81-11.64,5-24,6-36.1a111.11,111.11,0,0,0-.28-17.63c-.09-1.29-.21-2.56-.32-3.83,1.13-2.5,2.24-5,3.27-7.59,7.24-18,3-38.54,16.58-54.07,6.39-7.32,14.25-11.09,23-14.84a74.55,74.55,0,0,0,11.32-5.73c1.58-1,3.21-2.06,4.7-3.21.93-.71,2.11-2.23,3.29-3.12q0,3.19-.07,6.38c-2.89,4.11-8.61,7.2-12.8,9.56-5,2.83-10.41,5.06-15.65,7.51-7.49,3.5-14.74,8-16.2,16.65-.15.91,1.18,1.32,1.41.39,2.82-11.29,16.73-15.34,25.93-20a67.41,67.41,0,0,0,11.62-7.2c1-.82,4.35-3.18,5.67-5.18,0,2.54,0,5.07,0,7.59a73.75,73.75,0,0,1-14.11,10.56c-5.6,3.18-11.84,5-17.67,7.71-8,3.7-18.52,9-15.94,19.33.21.84,1.65.69,1.55-.21-1.32-12.63,17-17.65,26.17-21.72,7.29-3.26,14.92-8.09,20-14.47,0,2.31.07,4.61.12,6.92-1.24,1.46-3.62,2.87-4.62,3.66a103.66,103.66,0,0,1-9.67,6.56c-6,3.73-12.43,6.44-18.61,9.81-7.64,4.16-16.65,10.94-11.73,20.45a.69.69,0,0,0,1.26-.53c-4.75-14.29,17.38-20.39,26.49-26a96.84,96.84,0,0,0,12.43-8.79,41.09,41.09,0,0,0,4.48-3.84q.11,4,.3,8s0,.06,0,.09c-1.15,1.16-2.22,2.45-3.47,3.6a69.58,69.58,0,0,1-9.23,6.81c-5.3,3.43-11.3,5.55-17,8.27-8.65,4.15-16.36,10-13.83,20.57a.83.83,0,0,0,1.13.53,6.78,6.78,0,0,0,2.78,6.44.78.78,0,0,0,.78.12,8.3,8.3,0,0,0,3,7.77c-1,2.76-.77,5.58,1.95,7.6a.29.29,0,0,0,.35,0l.19-.19c.21-.2-.06-.57-.32-.41a8.27,8.27,0,0,1-.92-6.39,13.79,13.79,0,0,1,5-6.75,39.35,39.35,0,0,1,4-2.3c4.52-2.46,9.4-3.82,14.13-5.79,3.21-1.34,8.76-2.93,11.57-6,0,1.56-.09,3.13-.13,4.69a.92.92,0,0,0-.27.15c-8.22,6.87-19,9-27.54,15.29-3.81,2.82-8.72,9.79-2.82,13.42.31.19.54-.26.27-.47-6.76-5.17,3.46-12.19,7.24-14.17,3.48-1.83,7.34-3.05,10.92-4.73,4-1.88,8.89-3.54,12.13-6.76-.05,1.58-.11,3.17-.17,4.76a1.13,1.13,0,0,0-.3.17c-7.93,6.51-18.71,8.46-26.25,15.39-2.51,2.3-6.22,9.44-1,11.16a.14.14,0,0,0,.18-.14c0-.05,0-.11,0-.17a.1.1,0,0,0-.19-.05,5.11,5.11,0,0,1-1.36-3.78,6.29,6.29,0,0,1,2.1-4.85,20.23,20.23,0,0,1,4.68-3.56,61.43,61.43,0,0,1,8.61-4.3c4.36-1.88,9.92-3.68,13.44-7.18v.34q-.09,2.35-.21,4.68c-5.61,6.21-15.26,8-21.82,13-3.53,2.68-6.48,7.36-3.42,11.52a.11.11,0,0,0,.17,0l.19-.21c0-.06,0-.15-.08-.11s-.37-4.33-.36-4.37c.72-3.07,3.12-4.76,5.52-6.3a81.46,81.46,0,0,1,8.49-4.24c3.09-1.51,8.1-3.46,11.16-6.22q-.15,2.76-.31,5.52a.91.91,0,0,0-.55.42c-2,3.59-7.84,5.06-11.36,6.51a25.88,25.88,0,0,0-8.55,5.21c-2.54,2.57-5.44,7.57-1.32,10.11.21.13.47-.18.27-.35-4.44-3.89,2.66-9.45,5.55-11.1s6.05-2.48,9.08-3.75c1.94-.81,4.89-1.62,6.67-3.22q-.11,1.89-.2,3.77a94.19,94.19,0,0,1-7.1,8c-3.93,3.68-8.32,6.59-12.65,9.75A83.32,83.32,0,0,0,177.72,290c-.17.23.21.53.4.31,6.59-8.18,14.63-13.42,23-19.48a49,49,0,0,0,13.54-14.63c-.17,3.42-.3,6.83-.38,10.25a89.75,89.75,0,0,0-14,15.33,60.21,60.21,0,0,0-5,8.74,58.93,58.93,0,0,0-14.13,16.4,71,71,0,0,0-5.66,13.58c-2.37,3.58-4.53,7.06-5.6,11.35-1.26,5.05-3,9.9-6,14.16-.06.09.08.2.15.12a30.41,30.41,0,0,0,5.64-9.6c1.19-3,1.77-6.2,3.24-9.12.36-.71.75-1.39,1.17-2.07-2.83,10.68-4.41,21.8-7.9,32.26-.24.72.85,1,1.12.31,6.39-15.94,7.21-33.76,15.38-49a55.14,55.14,0,0,1,9.56-12.65,97.29,97.29,0,0,0-8.9,21.92c-2.73,10.24-5,20.52-7.89,30.72a114.49,114.49,0,0,0-4.83,33.21,102.91,102.91,0,0,0-3.06,19.47c-.47,10.88.76,21.54,2.35,32.27.08.51,1,.39.91-.12-1.26-10.37-2.41-20.68-2.12-31.16a111.4,111.4,0,0,1,2.1-17.1c0,.73,0,1.46,0,2.2a191.53,191.53,0,0,0,1.08,24.3q.77,6.39,2,12.71c.35,2.55.75,5.1,1.15,7.63a247.82,247.82,0,0,1,2.91,27.89c.35,8.49.15,17,.63,25.44a199.46,199.46,0,0,1-.07,27.95c0,.6,1,.75,1.06.14,1.26-8.7.88-17.21.42-26s-.3-17.65-.65-26.48a217.45,217.45,0,0,0-3-25.52,136.58,136.58,0,0,0,5.84,17.57c1.11,2.69,2.29,5.36,3.49,8-.21,5.51-.36,11-.25,16.53a.41.41,0,0,0,0,.07v.14c.08,3.57.26,7.13.62,10.71a.76.76,0,0,0,.44.62q.6,5.75,1.39,11.49l0,.08a78.34,78.34,0,0,0-3.25,11.41c-1.63,5.2-2.85,10.6-4.38,15.74-2.38,7.95-5.07,15.72-5.23,24.1,0,.88,1.29.86,1.36,0,.68-8.55,3.43-16.45,5.67-24.66q.39-1.43.75-2.88c-.64,6.61-.83,13.26-.93,19.79-.14,9.51-1.66,18.85-2.08,28.33-.43,9.65,1.42,18.57,4.4,27.68a.43.43,0,0,0,.82-.23,88.27,88.27,0,0,1-3.12-35.13c1.13-9.68,1.7-19.34,1.89-29.09.19-10.05,2.27-19.94,4.86-29.63,1,9,.37,17.79-.46,26.88-.86,9.46-1.44,19-2.7,28.38-1.19,8.93-.92,16.5,1.81,25.08a.09.09,0,0,0,.18-.05,62.48,62.48,0,0,1-2.16-13.07c-.2-5.44,1.12-10.67,1.88-16,1.28-9,1.82-18.21,2.73-27.3a147.82,147.82,0,0,0-.12-27.78c1.84-5.39,4.45-10.49,6.76-15.71.82,2.31,1.58,4.65,2.24,7,.16.58.3,1.16.44,1.73.16,3.15.29,6.29.52,9.43.3,4.16.94,8.39,1.12,12.6-5.23,12.07-12.72,23.23-10,37.06.59,3,1.37,5.92,2.19,8.84q-.62,3.16-1.23,6.33a.82.82,0,0,0,.43.9,65.4,65.4,0,0,0-2.09,14.13,111.39,111.39,0,0,0-.32,28.37c-.21,5.08-1.76,10.15-1.88,15.24a34.46,34.46,0,0,0,.92,8.32c-.94,6.75-1.24,14.06-3.91,20.09a28.84,28.84,0,0,1-1.43,2.77c-2.38,2.16-5.34,3.62-7.59,6s-4.51,5.56-5.08,9c0,.08.1.11.12,0,1-3.93,4.33-7.54,7.57-9.86.93-.67,1.91-1.25,2.86-1.84-2.58,3.76-5.45,7.34-7,11.85-.16.46.59.78.8.34,2.47-5.33,6.57-9.63,9.47-14.61.23-.22.45-.45.65-.7a.7.7,0,0,0,.12-.7,26.1,26.1,0,0,0,1.21-2.66c1.37-3.56,1.61-7.18,1.81-11,.12-2.3.53-4.74.8-7.13.55,2.2,1.19,4.39,1.81,6.61a22.42,22.42,0,0,1-.39,13.54c-3.39,7.88-10.86,13.73-15.2,21.13-.35.59.52,1.07.9.53,2.69-3.88,6.46-7.75,9.68-11.91-2.42,4.29-5,8.62-6.59,13.49-.15.47.54.63.72.2,3.67-9,11.9-17.68,13.29-27.56.12,4.27-1.11,9.91-1.52,12.32-.89,5.34-2,10.55-2.15,16,0,.76,1.09.73,1.17,0,.73-7.21,2.72-14.34,3-21.59.08-2.2.65-6.63-.3-9.39a19.1,19.1,0,0,0-.19-2.86c-1-7-4.19-13.22-4.11-20.42,0-3.65.7-7.3,1-10.94.75,5.61,1.77,11.23,2.94,16.9.12.58,1,.32.87-.24-1.35-9.19-2.82-18.59-3.23-27.87s.85-18.31,2.33-27.41q.75-4.61,1.56-9.22c.79,2.75,1.55,5.5,2.17,8.3a76.88,76.88,0,0,1,.72,29.45c-1.35,8.79-4,17.68-3.47,26.64.26,4.09,1.46,8,2.36,12a78.94,78.94,0,0,1,1.61,15.74,50.34,50.34,0,0,1-2.48,6.2,15.53,15.53,0,0,0-.84,9,.52.52,0,0,0,1-.14,19.07,19.07,0,0,1,.54-7.34c.63-2.09,1.66-3.82,2.12-6l.14-.68.14,0c0,.26,0,.45,0,.51,0,1.91.31,3.81.45,5.7.05.68,1.11.7,1.08,0-.09-2.14-.58-4.24-.67-6.38,0-1.1.2-2.35-.32-3.37a.15.15,0,0,0-.19-.06,118.27,118.27,0,0,0-2.49-19.61,47.26,47.26,0,0,1-.2-15.28,37.17,37.17,0,0,0,.84,4c2.22,8.26,4.64,15.89,4.52,24.6,0,.62.91.61,1,0a52.92,52.92,0,0,0-2.11-18.52c-1.23-4.47-3.2-9.17-3.64-13.91.53-3.16,1.16-6.32,1.73-9.51,1.5-8.34,2.48-16.68,1.38-25.13a134.92,134.92,0,0,0-4.64-20.35c.75-4.12,1.55-8.22,2.44-12.3,1.34-6.15,3.06-12.63,3.09-19,.37-2.16.68-4.33,1-6.49.79,11.89,1.2,23.79,1.65,35.77.36,9.69,0,19.32-.08,29s-1.55,19.33-1.92,29c0,.14.2.13.21,0,.64-9.69,2.25-19.25,2.51-29,.27-10,.71-20,.52-30-.28-15.08.26-30.57-1.67-45.65.44-1,.87-2.1,1.26-3.17,2.53-7,3.45-14.15,1.75-21.41a58.08,58.08,0,0,0-2.7-8.34c-.67-3.36-1.59-6.64-2.4-10a107.68,107.68,0,0,0,4.82-20.82,128.68,128.68,0,0,0,.35-19h0c1.59,13.09,2.64,26,1.57,39.14-.06.72,1,.7,1.11,0a158.59,158.59,0,0,0-.2-36.21c-.43-3.85-.78-7.7-1.06-11.55a153,153,0,0,0,3.89-22.47A315.42,315.42,0,0,0,214,366c0-6.46-.4-12.91-.91-19.37A52.44,52.44,0,0,1,217.71,336a3.08,3.08,0,0,0,2.39,2.14c1.93.38,3.35-1.09,3.93-2.82a54.35,54.35,0,0,1,5,11.29c-.5,6.45-.91,12.91-.91,19.37a315.2,315.2,0,0,0,2.25,37,153.18,153.18,0,0,0,3.89,22.47c-.29,3.85-.63,7.7-1.06,11.55a158.65,158.65,0,0,0-.2,36.21c.08.7,1.17.72,1.11,0-1.08-13.17,0-26,1.57-39.14h0a128.43,128.43,0,0,0,.35,19,107.54,107.54,0,0,0,4.82,20.82c-.8,3.32-1.72,6.6-2.4,10a58.09,58.09,0,0,0-2.7,8.34c-1.7,7.26-.78,14.42,1.75,21.41.39,1.07.82,2.12,1.26,3.17-1.93,15.08-1.39,30.57-1.67,45.65-.19,10,.26,20,.52,30,.26,9.75,1.87,19.31,2.51,29,0,.13.21.14.21,0-.37-9.68-1.82-19.28-1.92-29s-.45-19.33-.08-29c.45-12,.86-23.88,1.65-35.77.28,2.17.59,4.33,1,6.49,0,6.38,1.75,12.86,3.09,19,.89,4.08,1.69,8.18,2.44,12.3a135,135,0,0,0-4.64,20.35c-1.1,8.45-.12,16.79,1.38,25.13.57,3.19,1.21,6.35,1.73,9.51-.44,4.74-2.4,9.44-3.64,13.91a53,53,0,0,0-2.11,18.52c0,.61,1,.62,1,0-.12-8.71,2.31-16.34,4.53-24.6a37.45,37.45,0,0,0,.84-4,47.29,47.29,0,0,1-.2,15.28,118.08,118.08,0,0,0-2.5,19.61.15.15,0,0,0-.19.06c-.52,1-.27,2.26-.32,3.37-.09,2.14-.58,4.24-.68,6.38,0,.7,1,.68,1.08,0,.14-1.9.45-3.8.45-5.7,0-.05,0-.25,0-.51l.14,0,.14.68c.47,2.15,1.49,3.88,2.12,6a19.05,19.05,0,0,1,.54,7.34.52.52,0,0,0,1,.14,15.53,15.53,0,0,0-.84-9,50.34,50.34,0,0,1-2.48-6.2A79.1,79.1,0,0,1,245.44,646c.9-4,2.1-7.89,2.36-12,.56-9-2.12-17.85-3.47-26.64a76.86,76.86,0,0,1,.72-29.45c.63-2.79,1.38-5.55,2.17-8.3q.8,4.61,1.56,9.22c1.48,9.1,2.74,18.17,2.33,27.41s-1.88,18.68-3.23,27.87c-.08.56.75.82.87.24,1.17-5.67,2.19-11.29,2.94-16.9.28,3.64.94,7.29,1,10.94.08,7.2-3.11,13.43-4.11,20.42a19.1,19.1,0,0,0-.18,2.86c-1,2.75-.38,7.19-.3,9.39.27,7.25,2.26,14.38,3,21.59.07.73,1.19.76,1.17,0-.18-5.42-1.26-10.64-2.15-16-.4-2.42-1.63-8.05-1.51-12.32,1.39,9.88,9.62,18.52,13.29,27.56.17.43.87.27.72-.2-1.57-4.87-4.17-9.2-6.59-13.49,3.22,4.15,7,8,9.68,11.91.38.54,1.25.06.9-.53-4.34-7.4-11.81-13.25-15.2-21.13A22.43,22.43,0,0,1,251,645c.62-2.22,1.27-4.41,1.81-6.61.27,2.39.67,4.83.8,7.13.2,3.77.44,7.4,1.81,11a25.48,25.48,0,0,0,1.21,2.66.69.69,0,0,0,.12.7c.21.25.43.48.66.7,2.9,5,7,9.28,9.47,14.61.21.45,1,.13.79-.34-1.57-4.5-4.43-8.09-7-11.85,1,.59,1.93,1.17,2.86,1.84,3.24,2.32,6.52,5.93,7.57,9.86,0,.08.13,0,.12,0-.57-3.42-2.74-6.5-5.08-9s-5.21-3.85-7.59-6a29.27,29.27,0,0,1-1.43-2.77c-2.67-6-3-13.34-3.91-20.09a34.38,34.38,0,0,0,.92-8.32c-.13-5.09-1.67-10.16-1.88-15.24a111.4,111.4,0,0,0-.32-28.37,65.53,65.53,0,0,0-2.09-14.13.81.81,0,0,0,.43-.9L249,563.46c.82-2.92,1.6-5.86,2.19-8.84,2.75-13.84-4.74-25-10-37.06.18-4.21.82-8.44,1.12-12.6.23-3.13.35-6.28.52-9.43.14-.58.28-1.16.44-1.73.67-2.36,1.42-4.69,2.24-7,2.31,5.22,4.93,10.32,6.76,15.71a147.9,147.9,0,0,0-.12,27.78c.91,9.08,1.45,18.26,2.73,27.3.76,5.36,2.08,10.59,1.88,16a62.55,62.55,0,0,1-2.16,13.07.09.09,0,0,0,.18.05c2.74-8.58,3-16.15,1.81-25.08-1.26-9.41-1.84-18.92-2.7-28.38-.82-9.09-1.49-17.84-.46-26.88,2.58,9.68,4.66,19.57,4.86,29.63.19,9.74.76,19.4,1.89,29.09a88.24,88.24,0,0,1-3.12,35.13.43.43,0,0,0,.82.23c3-9.11,4.83-18,4.4-27.68-.42-9.48-1.93-18.81-2.08-28.33-.1-6.52-.29-13.18-.93-19.79.24,1,.49,1.92.75,2.88,2.24,8.21,5,16.11,5.67,24.66.07.86,1.37.88,1.36,0-.16-8.38-2.85-16.15-5.23-24.1-1.53-5.14-2.76-10.54-4.38-15.74A78.73,78.73,0,0,0,254.23,501l0-.08q.79-5.75,1.39-11.49a.76.76,0,0,0,.44-.62c.36-3.57.54-7.14.62-10.71v-.14a.43.43,0,0,0,0-.07c.11-5.51,0-11-.25-16.53,1.2-2.67,2.37-5.34,3.49-8a136.25,136.25,0,0,0,5.84-17.57,218.09,218.09,0,0,0-3,25.52c-.35,8.83-.19,17.64-.65,26.48s-.84,17.25.43,26c.09.6,1.11.46,1.06-.14a199.76,199.76,0,0,1-.07-27.95c.49-8.49.28-17,.63-25.44a248.28,248.28,0,0,1,2.91-27.89c.39-2.54.79-5.08,1.15-7.63q1.2-6.31,2-12.71a191.73,191.73,0,0,0,1.08-24.3c0-.74,0-1.46,0-2.2a111.4,111.4,0,0,1,2.1,17.1c.3,10.48-.86,20.78-2.12,31.16-.06.52.83.63.91.12,1.59-10.73,2.82-21.39,2.35-32.27a102.92,102.92,0,0,0-3.06-19.47,114.53,114.53,0,0,0-4.83-33.21c-2.92-10.2-5.17-20.48-7.89-30.72a97.35,97.35,0,0,0-8.9-21.92,55.17,55.17,0,0,1,9.56,12.65c8.17,15.26,9,33.08,15.38,49,.27.68,1.37.41,1.12-.31-3.49-10.46-5.07-21.58-7.9-32.26.42.68.81,1.36,1.17,2.07,1.47,2.92,2.06,6.1,3.24,9.12a30.43,30.43,0,0,0,5.64,9.6c.07.08.21,0,.15-.12-3-4.26-4.74-9.1-6-14.16-1.07-4.29-3.22-7.77-5.6-11.35a71,71,0,0,0-5.66-13.58,58.9,58.9,0,0,0-14.13-16.4,60.37,60.37,0,0,0-5-8.74,89.91,89.91,0,0,0-14-15.33c-.08-3.42-.21-6.83-.38-10.25A49,49,0,0,0,241,270.81c8.41,6.05,16.46,11.3,23,19.48.18.22.57-.08.4-.31A83.32,83.32,0,0,0,247.1,272.3c-4.34-3.16-8.73-6.07-12.65-9.75a94.37,94.37,0,0,1-7.1-8q-.1-1.88-.2-3.77c1.78,1.6,4.73,2.4,6.67,3.22,3,1.27,6.21,2.11,9.08,3.75s10,7.21,5.55,11.1c-.2.17.06.49.27.35,4.12-2.54,1.22-7.54-1.32-10.11a25.86,25.86,0,0,0-8.55-5.21c-3.52-1.46-9.32-2.93-11.36-6.51a.9.9,0,0,0-.55-.42q-.15-2.75-.31-5.52c3.06,2.76,8.07,4.71,11.16,6.22a81.25,81.25,0,0,1,8.49,4.24c2.4,1.54,4.8,3.22,5.52,6.3,0,0-.15,4.51-.37,4.37s-.13.05-.08.11l.19.21a.11.11,0,0,0,.17,0c3.07-4.16.11-8.84-3.42-11.52-6.55-5-16.21-6.77-21.82-13q-.12-2.33-.21-4.68c0-.11,0-.23,0-.34,3.52,3.5,9.07,5.29,13.44,7.18a61.35,61.35,0,0,1,8.61,4.3,20.26,20.26,0,0,1,4.68,3.56,6.27,6.27,0,0,1,2.1,4.85,5.11,5.11,0,0,1-1.36,3.78.1.1,0,0,0-.19.05c0,.06,0,.11,0,.17a.14.14,0,0,0,.18.14c5.22-1.72,1.5-8.86-1-11.16-7.54-6.93-18.32-8.88-26.25-15.39a1.11,1.11,0,0,0-.3-.17c-.06-1.59-.12-3.18-.17-4.76,3.24,3.21,8.12,4.88,12.13,6.76,3.58,1.68,7.43,2.91,10.92,4.73,3.78,2,14,9,7.24,14.17-.27.2,0,.65.27.47,5.9-3.63,1-10.6-2.82-13.42-8.51-6.3-19.33-8.43-27.55-15.29a.91.91,0,0,0-.27-.15c0-1.56-.1-3.13-.13-4.69,2.81,3.1,8.36,4.69,11.57,6,4.73,2,9.62,3.33,14.13,5.79a39.53,39.53,0,0,1,4,2.3,13.81,13.81,0,0,1,5,6.75,8.28,8.28,0,0,1-.92,6.39c-.25-.16-.53.21-.32.41l.19.19a.29.29,0,0,0,.35,0c2.72-2,2.94-4.84,1.95-7.6a8.3,8.3,0,0,0,3-7.77.78.78,0,0,0,.78-.12,6.79,6.79,0,0,0,2.79-6.44.83.83,0,0,0,1.13-.53c2.53-10.61-5.18-16.42-13.83-20.57-5.67-2.72-11.67-4.84-17-8.27a69.52,69.52,0,0,1-9.23-6.81c-1.25-1.15-2.32-2.44-3.47-3.6,0,0,0-.06,0-.09q.19-4,.3-8a41.38,41.38,0,0,0,4.48,3.84,96.84,96.84,0,0,0,12.43,8.79c9.11,5.61,31.23,11.7,26.49,26a.69.69,0,0,0,1.26.53c4.92-9.51-4.09-16.29-11.73-20.45-6.18-3.37-12.61-6.08-18.61-9.81a103.91,103.91,0,0,1-9.66-6.56c-1-.79-3.38-2.2-4.62-3.66.06-2.31.1-4.61.12-6.92,5.09,6.39,12.72,11.21,20,14.47,9.12,4.08,27.49,9.09,26.17,21.72-.1.91,1.34,1.05,1.55.21,2.58-10.31-8-15.63-15.94-19.33-5.82-2.71-12.07-4.53-17.67-7.71A73.73,73.73,0,0,1,226.41,167c0-2.52,0-5.05,0-7.59,1.32,2,4.64,4.37,5.67,5.18a67.37,67.37,0,0,0,11.62,7.2c9.2,4.65,23.1,8.71,25.93,20,.23.93,1.56.52,1.41-.39-1.46-8.67-8.71-13.15-16.2-16.65-5.23-2.45-10.6-4.68-15.65-7.51-4.19-2.35-9.9-5.44-12.8-9.56q0-3.19-.07-6.38c1.18.9,2.35,2.41,3.29,3.13,1.49,1.14,3.12,2.19,4.7,3.21a74.34,74.34,0,0,0,11.32,5.73c8.78,3.75,16.65,7.52,23,14.84,13.55,15.53,9.34,36.09,16.58,54.07,1,2.56,2.14,5.09,3.27,7.59-.11,1.27-.22,2.54-.32,3.83a111,111,0,0,0-.29,17.63c1.06,12.12,2.21,24.46,6,36.1.83,2.54,1.78,5,2.81,7.52.49,7.56,1.08,15.3,2.9,22.63.71,2.85,1.58,5.62,2.55,8.34.13,1.55.31,3.09.56,4.65a.34.34,0,0,0,.06.15c.42,13.87,2.07,28.23,5.74,41.32a.45.45,0,0,0,.87-.24A306.59,306.59,0,0,1,304.54,342c1.28,3.09,2.66,6.14,4.06,9.22.21.45,1,.12.79-.34-1.7-4.6-3.48-9.13-5.07-13.73-.12-3-.2-5.93-.22-8.89,0-2.24.06-4.48.17-6.72,1.65,3.57,3.26,7.15,4.67,10.8.95,2.44,1.8,4.92,2.6,7.42.21,5.61.22,11.27.14,17q0,3.16.06,6.35a98.23,98.23,0,0,0-.7,9.9,73,73,0,0,0,3.4,22.37.67.67,0,0,0,1.29-.36c-1.39-7-3-13.84-3.24-21,0-.47,0-.94,0-1.41a73.32,73.32,0,0,0,5.52,20.9c.24.53,1.16.14.94-.4-5.1-12.44-5.45-26-5.26-39.23a9.54,9.54,0,0,1,.31-.9c.08-.2-.11-.34-.29-.34q0-1,0-1.94c0-1.14,0-2.28,0-3.41A158.24,158.24,0,0,1,317.7,368c.07.57.95.61.92,0-.1-2.42-.27-4.9-.52-7.4.72.84,1.55,1.63,2.13,2.47a22.64,22.64,0,0,1,2.35,4.48c1,6.38-1.15,13.85-1.07,20a70.3,70.3,0,0,0,3.42,20.12.48.48,0,0,0,.92-.26,84.17,84.17,0,0,1-2.75-24.68c.16-3.55.8-8.23.45-12.44.48,1.52.9,3.06,1.31,4.58,2.37,8.65,4,17.49,6.53,26.11a.42.42,0,0,0,.8-.22c-1.52-8.76-3.65-17.67-6-26.26-.81-3-1.53-6.42-3-9.17-1.25-2.28-3.64-4-5.23-6-.21-1.89-.45-3.79-.75-5.69,4.22,6.25,11.6,10.17,16.61,16.3.25.31.67-.13.43-.43M226,86.33c.15.18.31.34.44.53a11.43,11.43,0,0,1,2.67,4.6,44,44,0,0,1,1.64,9.24c0,.3.06.6.09.89A22.17,22.17,0,0,0,225.23,95c.22-2.88.52-5.76.8-8.63M211.25,101.6c0-.3.06-.6.09-.89A43.91,43.91,0,0,1,213,91.46a11.42,11.42,0,0,1,2.67-4.6c.13-.19.29-.36.44-.53.29,2.88.58,5.75.8,8.63a22.17,22.17,0,0,0-5.64,6.64m-54,74.75c2.84-6.24,5.91-12,11.26-16.47,4.88-4.07,10.68-6.9,15.74-10.75,5.29-4,10.19-8.53,15.63-12.37,2.52-1.78,5.18-3.24,7.85-4.78,2.27-1.31,5.79-2.93,8.25-4.65q-.07,3.61,0,7.21c-7.88-.43-16.81,8.56-22.1,13.23-1.56,1.38-3.11,2.8-4.66,4.23-1,.38-1.92.77-2.87,1.19a62.47,62.47,0,0,0-24,19.23c-6.27,8.33-9.21,18-10.62,28.17-.73,5.25-.57,10.59-.63,15.88-.06,6.15,1.3,12.12.49,18.26a.81.81,0,0,0,0,.39c-.06.61-.52,1.23-.58,1.84a5.92,5.92,0,0,0,0,.86v.09c-1.11,2.73-2.16,5.42-3.5,8.11.7-9.58-.73-19.16-1.51-28.72-1.24-15.25,5-27.46,11.16-40.95m-5.76,68.13c-.25,2.73-.48,5.45-1,8.09a112.76,112.76,0,0,1-3.23,13.14c0-3.92,0-7.84-.23-11.75,1.43-3.17,2.93-6.32,4.41-9.49M131,331.87a152.58,152.58,0,0,1,2.74-19.63c.66-3.17,1.48-6.28,2.39-9.37.18,1.51.37,3,.59,4.51.26,3,.54,6.09.78,9.13-2.22,5.1-4.42,10.21-6.49,15.36m10-5.73q-.36,1.62-.79,3.22c0-3.85-.27-7.68-.64-11.52,1.18-2.52,2.37-5,3.52-7.57A110,110,0,0,1,141,326.14m2.74-26.4c-.06.91-.11,1.83-.16,2.75-.22.53-.43,1.07-.66,1.59q-1.91,4.42-3.85,8.82c-.54-4.94-1.12-9.88-1.43-14.85,2.26-6.87,4.93-13.63,7.49-20.4-.43,7.38-.95,14.75-1.4,22.09M144.86,273c-2.41,6.61-5,13.13-7.43,19.74,0-2.24,0-4.48.2-6.73.81-10.69,4.25-20.27,8.38-29.64q-.14,7.43-.53,14.88c-.21.59-.41,1.17-.62,1.76m7-9.89c-1.08,11.11-2.54,22.12-5.89,32.69.51-7.89,1-15.83,1.22-23.77,3.06-8.6,4.29-17,5.13-25.64v.09a121.2,121.2,0,0,1-.46,16.63m1.36-47.5c0-3.38.09-6.79.27-10.09.54-10.17,3.13-20.23,8.59-28.89A60.51,60.51,0,0,1,185,156.07a188.45,188.45,0,0,0-17.78,19.8c-6.42,8.35-11.34,18.32-12.8,28.81-.5,3.63-.87,7.29-1.18,11m62.63-68c0,1,0,2,0,3a3.64,3.64,0,0,1-.58.43c-2.25,1.43-4.22,3-6.59,4.3a133.1,133.1,0,0,1-14.59,6.56c-8,3.21-15.12,7.08-21.09,13.34a47.2,47.2,0,0,0-11.51,21.51c-2.3,9.76-2,19.9-5,29.51-.7,2.24-1.53,4.44-2.41,6.61.67-7.43,1.15-14.91,1.89-22.33a65.42,65.42,0,0,1,14-34.72,196.91,196.91,0,0,1,20.95-22.45c3.84-1.54,7.8-2.83,11.69-4.2,2.62-.93,5.21-1.93,7.84-2.86,1.06-.37,4.09-.81,5.44-1.66,0,1.38,0,2.49,0,2.92m0-3.66c-4.7.52-9.23,2.31-13.71,3.74-2.59.83-5.2,1.63-7.79,2.49,3.38-3.08,6.84-6.07,10.5-8.8,3.49-2.61,7.25-4,11.12-5.67,0,.92.07,1.83.1,2.74-.14,1.74-.2,3.77-.22,5.49m-41.63,78.58c-.25-7.12,3-11.77,9.45-15.31,4.55-2.5,9.37-4.4,14-6.7a52.54,52.54,0,0,0,18.49-15.1c.11,2.51.19,5,.25,7.52-2.36,2.14-7.34,6.4-7.29,6.37a56.17,56.17,0,0,1-9.89,5.46c-5.37,2.26-11,4.33-15.93,7.49-3.17,2-7.59,6.07-9.09,10.29m26.42-16.3c5.14-2.3,12.29-6.37,15.82-11.59.06,3,.08,6,.08,8.94a.92.92,0,0,0-1,.56c-2.28,5.39-12.72,8.29-17.47,10.15s-9.79,3.71-14,6.86c-3,2.25-5.6,5.35-6.54,8.61-7.28-12.67,14.82-19.85,23-23.54m.52,17.5a89.63,89.63,0,0,0-14,6.63,18.29,18.29,0,0,0-6.78,8.14c-8.75-12.59,10.23-19.54,19.13-22.79,4.75-1.73,13.36-4.13,17-8.73q0,3.78-.11,7.56l0,0c-3.21,4.79-10.12,7.09-15.22,9.16m-1.29,304.85q-3,15.45-6,30.9c-2-7.69-2.41-15.08.44-22.83,1.73-4.7,4-9.16,6.19-13.67-.18,1.87-.4,3.74-.63,5.6m17-205.78c-1.91,1.09-3.91,4-4.85,5.11-.16.19-.3.38-.46.56q-.29-3.9-.66-7.8c1.89-3.07,3.89-6.09,6-9,.1,3.71,0,7.45-.06,11.18m0-12.71c0,.19,0,.38,0,.57a7.73,7.73,0,0,0-2,1.69c-1,1.17-2,2.34-3,3.53-.45.56-.89,1.14-1.33,1.71q-.49-4.37-1.24-8.7c-.13-1.2-.27-2.41-.35-3.62-.1-1.37-1.12-5.14-.52-6.34a.9.9,0,0,0,0-.81,40.19,40.19,0,0,1,6.92-5.57c.6,5.83,1.22,11.65,1.49,17.52M198.75,396.4c.71,14.23,1.43,28.19.19,42.33-2.66-9.51-6.4-18.57-7.53-28.63a149,149,0,0,1,.4-35.21,134.62,134.62,0,0,1,17.67-51.83q.29,3.73.54,7.46a34.9,34.9,0,0,0-2.19,3.5A76.15,76.15,0,0,0,201,352.67c-3.34,14-2.94,29.48-2.22,43.73M214.27,269c0,3,0,6,.08,9-3.87,2.7-8,5-12,7.46,4.16-5.33,8.72-10.52,11.9-16.47m-28.37,187.5a189.67,189.67,0,0,1-7.31-21.66c1,1.94,2,3.86,3.13,5.76,1.62,2.81,3.07,5.73,4.46,8.7-.08,2.4-.18,4.8-.28,7.21m.38-10.15c-2.79-5.69-6.45-11-9-16.78a167.21,167.21,0,0,1-3.19-17.63c-1.06-8.43-1.11-16.79-1.33-25.27,0-1,0-2,0-3a1.05,1.05,0,0,0,.21-.62,130.71,130.71,0,0,1,5.58-35.51c2.89-9.81,4.8-19.82,7.57-29.64a94.89,94.89,0,0,1,12.58-27.37c5.05-4,11.21-7.25,15.71-11.83.1,2.92.28,5.84.55,8.78.13,1.4.27,2.79.42,4.19-5.24,2.3-9.59,6.91-13.54,10.81a88,88,0,0,0-13.92,18.69c-8.78,15.2-10.17,31.9-8,49,1.15,9.2,2.67,18.34,3.87,27.53,1.34,10.22,1.68,20.45,2.36,30.72.39,6,.37,11.94.21,17.91m-2.75-65.58c-2.81-18.54-4.46-36.17,3.65-53.73a86.41,86.41,0,0,1,13.87-20.9c1.7-1.89,3.51-3.94,5.41-5.93,0,2.36.79,5.31,1,7.16.37,2.74.84,5.47,1.3,8.21.13,1.31.26,2.61.37,3.92-.67.92-1.33,1.85-1.94,2.8A90.27,90.27,0,0,0,200,336.49a144.27,144.27,0,0,0-10.13,36.15,154.76,154.76,0,0,0-.72,37.46c1.29,11.79,5.68,22.17,9.29,33.25l-.07.61c-.89,7.19-1.68,14.3-.73,21.53a67.08,67.08,0,0,0,1.47,7.45l-.15.41-.63-1.4c-3.16-7.16-6.56-14.22-10-21.27.2-5.66.29-11.32.11-17a452.22,452.22,0,0,0-5-52.94m5.77,116.58c-.52-4.64-1.16-9.27-1.87-13.88-.09-5.88.08-11.76.32-17.63,2.6,5.71,5.2,11.43,7.46,17.27-2,4.75-4,9.47-5.9,14.24m7.13-17.26c-2.66-6.34-5.76-12.54-8.5-18.74.11-2.5.23-5,.33-7.51,1.35,3,2.68,6.06,4.08,9,1.93,4.13,4,8.29,5.91,12.5q-.88,2.38-1.82,4.74m6.69,31.81a92.65,92.65,0,0,0-.89-12.39,72.46,72.46,0,0,0-4.34-15.78c.63-1.55,1.22-3.12,1.73-4.72l.1-.3c4.48,10.62,7.32,21.59,3.4,33.2m1.78-129.57c-.62,6.43-1.17,12.9-1.35,19.34-.48,17.82,2.29,35.63,0,53.38a81.51,81.51,0,0,1-3.3,14.44c-.19-1.05-.37-2.11-.49-3.18-.78-6.82-.24-13.4.56-20.17a.68.68,0,0,0,.22-.66l-.09-.41v0a233.56,233.56,0,0,0,.81-43.2c-1.42-22.68-2.19-47.86,9-67.94.31,4.3.65,8.6,1,12.91-1.39,5.08-2.52,10.25-3.72,15.36a110.16,110.16,0,0,0-2.59,20.17m2.44,35.49c-.27-5-.46-9.94-.61-14.92-.37-12.22-.39-25.14,2-37.14.88-4.41,1.81-8.84,2.83-13.24.26,4.49.44,9,.44,13.46a292.4,292.4,0,0,1-4.68,51.84m5.36-75.61c-.31-3.66-.62-7.31-.89-11a58.79,58.79,0,0,1,5.1-7,72.36,72.36,0,0,0,.47,8.67,10,10,0,0,0,0,1.51,45.85,45.85,0,0,0-4.69,7.78m35.07,194.44c2.85,7.76,2.4,15.14.44,22.83q-3-15.45-6-30.9c-.23-1.86-.45-3.73-.63-5.6,2.17,4.51,4.46,9,6.19,13.67m-22.63-225c2.14,3,4.14,6,6,9-.26,2.6-.47,5.21-.66,7.8l-.46-.56c-.94-1.09-2.94-4-4.85-5.11,0-3.73-.16-7.47-.06-11.18m-.57,22.57a67.46,67.46,0,0,0,.63-9.95,58.77,58.77,0,0,1,5.1,7c-.27,3.65-.58,7.3-.89,11a47.57,47.57,0,0,0-4.84-8m10.81,68.69c-.15,5-.34,10-.61,14.92A292,292,0,0,1,230.1,366c0-4.49.18-9,.43-13.46,1,4.39,1.95,8.83,2.83,13.24,2.41,12,2.39,24.93,2,37.14M238.53,455c-2.25-17.75.52-35.56,0-53.38-.18-6.45-.73-12.91-1.35-19.34a110.42,110.42,0,0,0-2.59-20.17c-1.21-5.12-2.33-10.28-3.72-15.36.3-4.31.64-8.61,1-12.91,11.15,20.09,10.38,45.26,9,67.94a233.65,233.65,0,0,0,.81,43.2v0l-.09.41a.67.67,0,0,0,.22.66c.8,6.77,1.33,13.34.56,20.17-.12,1.08-.29,2.13-.49,3.18a81.6,81.6,0,0,1-3.3-14.44m2.62-102.36A76.15,76.15,0,0,0,234.28,334a34.73,34.73,0,0,0-2.18-3.5q.25-3.73.54-7.46a134.58,134.58,0,0,1,17.67,51.83,148.86,148.86,0,0,1,.4,35.21c-1.12,10.07-4.86,19.13-7.53,28.63-1.24-14.14-.53-28.1.19-42.33s1.12-29.77-2.22-43.73m-1.26,146.82a92.81,92.81,0,0,0-.89,12.39c-3.92-11.61-1.08-22.58,3.4-33.2l.1.3c.51,1.6,1.1,3.17,1.74,4.72a72.46,72.46,0,0,0-4.34,15.78m4-24.16c1.9-4.21,4-8.37,5.92-12.5,1.39-3,2.72-6,4.08-9,.1,2.5.21,5,.33,7.51-2.73,6.2-5.83,12.41-8.49,18.74q-.95-2.36-1.82-4.74m10.83,8.12c-.71,4.61-1.36,9.24-1.87,13.88-1.89-4.77-3.94-9.5-5.9-14.24,2.25-5.83,4.86-11.56,7.46-17.27.24,5.87.41,11.74.32,17.63m-1.06-49.76c-.19,5.67-.09,11.32.11,17-3.41,7-6.81,14.11-10,21.27l-.63,1.4-.15-.41a67.08,67.08,0,0,0,1.47-7.45c1-7.23.16-14.33-.73-21.53,0-.2,0-.41-.07-.61,3.61-11.08,8-21.46,9.29-33.25a154.76,154.76,0,0,0-.72-37.46,144.35,144.35,0,0,0-10.13-36.15,90.36,90.36,0,0,0-7.21-14.21c-.62-1-1.28-1.88-1.94-2.8.11-1.31.24-2.62.37-3.92.46-2.74.93-5.47,1.3-8.21.25-1.85,1.09-4.8,1-7.16,1.91,2,3.71,4,5.41,5.93A86.39,86.39,0,0,1,254.94,327c8.11,17.56,6.47,35.19,3.65,53.73a451.59,451.59,0,0,0-5,52.94m2.58,22.79q-.15-3.6-.28-7.21c1.39-3,2.84-5.89,4.46-8.7,1.09-1.9,2.15-3.81,3.13-5.76a189.68,189.68,0,0,1-7.31,21.66M227.85,269c3.18,5.95,7.74,11.14,11.9,16.47-4-2.51-8.11-4.76-12-7.46.1-3,.12-6,.08-9m-.66,18.49c.28-2.94.45-5.87.55-8.78,4.5,4.59,10.66,7.84,15.71,11.83A94.94,94.94,0,0,1,256,317.88c2.77,9.83,4.67,19.83,7.57,29.64A130.71,130.71,0,0,1,269.19,383a1.06,1.06,0,0,0,.21.62c0,1,0,2,0,3-.23,8.48-.28,16.83-1.33,25.27a167.18,167.18,0,0,1-3.19,17.63c-2.57,5.78-6.22,11.09-9,16.78-.16-6-.18-11.93.21-17.91.67-10.27,1-20.5,2.36-30.72,1.2-9.19,2.72-18.34,3.87-27.53,2.13-17.11.74-33.81-8-49a88,88,0,0,0-13.92-18.69c-4-3.9-8.3-8.51-13.54-10.81.14-1.4.29-2.79.42-4.19m-.51,5.08a40.34,40.34,0,0,1,6.92,5.57.89.89,0,0,0,0,.81c.6,1.2-.42,5-.52,6.34-.09,1.21-.22,2.42-.35,3.62q-.76,4.32-1.24,8.7c-.44-.57-.87-1.15-1.33-1.71-1-1.19-2-2.36-3-3.53a7.73,7.73,0,0,0-2-1.69c0-.19,0-.38,0-.57.27-5.87.9-11.69,1.5-17.52m35-54.07a18.29,18.29,0,0,0-6.78-8.14,89.58,89.58,0,0,0-14-6.63c-5.11-2.07-12-4.37-15.22-9.16l0,0q-.07-3.78-.11-7.56c3.61,4.6,12.22,7,17,8.73,8.91,3.25,27.89,10.2,19.13,22.79m2.81-8.74c-.94-3.26-3.54-6.37-6.54-8.61-4.19-3.15-9.15-5-14-6.86s-15.19-4.76-17.48-10.15a.92.92,0,0,0-1-.56c0-3,0-6,.08-8.94,3.53,5.22,10.68,9.29,15.82,11.59,8.23,3.68,30.33,10.87,23.05,23.54m-20.1-29.25c4.64,2.3,9.47,4.2,14,6.7,6.45,3.54,9.7,8.19,9.45,15.31-1.5-4.21-5.92-8.25-9.09-10.29-4.92-3.16-10.56-5.23-15.93-7.49a56.13,56.13,0,0,1-9.9-5.46c.05,0-4.92-4.23-7.29-6.37.06-2.5.14-5,.25-7.52a52.53,52.53,0,0,0,18.48,15.1m-18.27-73.15c2.45,1.72,6,3.34,8.25,4.65,2.67,1.54,5.33,3,7.85,4.78,5.45,3.84,10.34,8.33,15.63,12.37,5.06,3.86,10.86,6.68,15.74,10.75,5.35,4.46,8.42,10.23,11.26,16.47,6.15,13.49,12.31,25.7,11.07,40.95-.78,9.56-2.51,19.14-1.81,28.72-1.34-2.68-2.78-5.38-3.89-8.11v-.09c0-.16.43-.44.39-.86-.06-.61-.23-1.22-.28-1.84a.79.79,0,0,0,.09-.39c-.81-6.14.58-12.11.51-18.26-.05-5.29.11-10.63-.62-15.88-1.41-10.18-4.34-19.84-10.61-28.17a62.47,62.47,0,0,0-24-19.23c-.95-.42-1.9-.81-2.87-1.19-1.54-1.43-3.09-2.85-4.65-4.23-5.28-4.67-14.22-13.66-22.09-13.23,0-2.4.05-4.8,0-7.21M295,254c-.18,3.91-.25,7.83-.23,11.75a112.58,112.58,0,0,1-3.23-13.14c-.48-2.64-.71-5.37-1-8.09,1.48,3.17,3,6.32,4.41,9.49M226,138.43c0-.91.08-1.83.1-2.74,3.87,1.64,7.63,3.05,11.12,5.67,3.66,2.74,7.12,5.73,10.5,8.8-2.59-.86-5.2-1.66-7.79-2.49-4.48-1.43-9-3.22-13.71-3.74,0-1.73-.08-3.75-.22-5.49m59.63,87.84c-3-9.61-2.68-19.75-5-29.51a47.2,47.2,0,0,0-11.51-21.51c-6-6.26-13.13-10.13-21.09-13.34a133.19,133.19,0,0,1-14.59-6.56c-2.37-1.3-4.34-2.88-6.59-4.3a3.64,3.64,0,0,1-.58-.43c0-1,0-2,0-3,0-.44,0-1.54,0-2.92,1.35.86,4.38,1.29,5.44,1.66,2.62.92,5.22,1.93,7.84,2.86,3.89,1.38,7.85,2.66,11.69,4.2a196.82,196.82,0,0,1,20.95,22.45,65.4,65.4,0,0,1,14,34.72c.74,7.43,1.23,14.9,1.89,22.33-.88-2.18-1.7-4.37-2.4-6.61m2.08-21.59c-1.46-10.49-6.38-20.46-12.8-28.81a188.44,188.44,0,0,0-17.78-19.8A60.5,60.5,0,0,1,280,176.64c5.46,8.66,8.05,18.73,8.59,28.89.18,3.31.29,6.71.27,10.09-.31-3.66-.68-7.32-1.18-11m2.54,58.46a121,121,0,0,1-.46-16.63v-.09c.84,8.65,2.07,17,5.13,25.64.22,7.94.71,15.88,1.22,23.77-3.35-10.57-4.81-21.59-5.89-32.69m6.39,8.13q-.38-7.44-.53-14.88c4.13,9.37,7.58,19,8.38,29.64.17,2.25.22,4.49.2,6.73-2.38-6.61-5-13.13-7.43-19.74-.21-.59-.42-1.17-.62-1.76m5.27,58.1q-.42-1.6-.79-3.22A109.61,109.61,0,0,1,299,310.28c1.14,2.53,2.33,5.05,3.52,7.57-.36,3.83-.63,7.67-.64,11.52M303,312.91q-1.93-4.41-3.85-8.82c-.23-.53-.44-1.06-.66-1.59-.05-.92-.1-1.84-.16-2.75-.45-7.34-1-14.71-1.4-22.09,2.57,6.78,5.23,13.53,7.49,20.4-.3,5-.89,9.91-1.43,14.85m1.57,3.6c.24-3,.52-6.09.78-9.13.22-1.5.41-3,.59-4.51.91,3.09,1.73,6.21,2.39,9.37a152.92,152.92,0,0,1,2.74,19.63c-2.08-5.16-4.27-10.27-6.49-15.36"/><path id="_Path_" data-name="&lt;Path&gt;" class="cls-3" d="M265.8,171.5c-3.55-13.44-19.29-38.71-24.87-43s-11.17-2.15-12.69,1.61-1.52,18.82-2,22.58-2.54,0-2.54,0l.48-28.08a2.35,2.35,0,0,0-1.24-2.14l-.06,0a3.89,3.89,0,0,0-3.62,0h0a2.35,2.35,0,0,0-1.22,2.13l.48,28.1s-2,3.76-2.54,0-.51-18.82-2-22.58-7.11-5.92-12.69-1.61-21.31,29.57-24.87,43-5.58,30.11-5.07,36.56,2.54,11.83,8.63,11.29,12.69-4.3,14.21-5.91,2-3.76,7.1-3.76,11.67-1.07,13.19-5.91S218,186,218.51,180.64s-.51-8.6,0-12.9a77.43,77.43,0,0,0,.51-8.07,3.42,3.42,0,0,0,2,.72,3.88,3.88,0,0,0,2.12-.72,77.28,77.28,0,0,0,.51,8.07c.51,4.3-.51,7.53,0,12.9s2.54,18.28,4.06,23.12,8.12,5.91,13.2,5.91,5.58,2.15,7.1,3.76,8.12,5.38,14.21,5.91,8.12-4.84,8.63-11.29S269.36,184.94,265.8,171.5Z"/><g id="_Group_" data-name="&lt;Group&gt;" class="cls-4"><path id="_Path_2" data-name="&lt;Path&gt;" class="cls-5" d="M248.15,297.06s-10.25-2.46-6.23-12.94c1.63-4.25,6.71-9.11,12-8.15s12.46,4.31,16.29,16.29c3.44,10.74,3.35,16.29-.48,21.57s-10,8-13.9,4.79a21,21,0,0,1-5.75-7.67s-.48,3.24-.84,6.29c-.34,2.86-3,10.48-3,10.48l-2.16.18s1.08-5.57,2.16-16.47a33.48,33.48,0,0,1,1-5.27s-2-.48-4.43-1a14.43,14.43,0,0,1-3.24-1.08,7,7,0,0,1,.36-4.67,8.27,8.27,0,0,1,2-2.34Z"/><path id="_Path_3" data-name="&lt;Path&gt;" class="cls-5" d="M198,297.06s10.24-2.46,6.23-12.94c-1.63-4.25-6.71-9.11-12-8.15s-12.46,4.31-16.29,16.29c-3.44,10.74-3.35,16.29.48,21.57s10,8,13.9,4.79a20.94,20.94,0,0,0,5.75-7.67s.48,3.24.84,6.29c.34,2.86,3,10.48,3,10.48l2.16.18S201,322.34,200,311.44a33.75,33.75,0,0,0-1-5.27s2-.48,4.43-1a14.43,14.43,0,0,0,3.23-1.08,7,7,0,0,0-.36-4.67,8.25,8.25,0,0,0-2-2.34Z"/></g><path id="_Path_4" data-name="&lt;Path&gt;" class="cls-6" d="M239.59,32c-4.08-5.74-9-5.89-12.83-5.74-5.69.23-5.72,5-5.72,5s0-4.76-5.66-5c-3.82-.15-8.76,0-12.83,5.74-4.8,6.76-7.7,11.78-5.89,19.48,1.16,4.93,3.32,6.94,6.34,8.15,2.26.91,4.38,1.51,4.38,1.51a7.2,7.2,0,0,0,5.23,4.73c2.92.55,6.09,1.31,6.09,1.31l.51,5.62a1.52,1.52,0,0,0,1.08,1.32l.75.16.81-.16a1.52,1.52,0,0,0,1.08-1.32l.51-5.62s3.17-.76,6.09-1.31a7.2,7.2,0,0,0,5.23-4.73s2.11-.6,4.38-1.51c3-1.21,5.18-3.22,6.34-8.15C247.29,43.74,244.39,38.72,239.59,32Z"/><path id="_Path_5" data-name="&lt;Path&gt;" class="cls-7" d="M225.21,191.43s-4.14,21.63,2.2,31a14.71,14.71,0,0,0,8.74,5.83,8.75,8.75,0,0,0,1,5.34C238.58,236,240,238,240,238a10.67,10.67,0,0,0-1.94,3.88,23.12,23.12,0,0,0-1,6.31,14.56,14.56,0,0,0-3.88,2.43c-2.43,1.94-4.85,6.8-4.85,6.8a6.49,6.49,0,0,0-5.34-1.45c-3.4.49-5.34,1.94-6.8,1.94s-2.88-3.07-7.77-3.88c-5.83-1-8.25,1.94-9.71,9.71-1.3,6.95.22,16.53.22,16.53l5.52-.92s-.88-10.26.09-12.69,1.94-3.88,3.88-2.91,2.91,2.43,4.86,1.94-1-1.45,1.94-.48,4.86,4.86,12.14,6.8,21.37,1.94,30.1-8.25,11.66-23.79,5.83-36.42-10.2-11.17-15.05-11.17-6.8,4.86-11.17,4.86-4.12-1.07-5.83-5.34c-1-2.43-1.49-10.39-1.49-10.39Z"/><g id="_Group_2" data-name="&lt;Group&gt;" class="cls-4"><path id="_Path_6" data-name="&lt;Path&gt;" class="cls-8" d="M197.67,348.65a27.26,27.26,0,0,1-4.59-5.05,26.86,26.86,0,0,1-2.3-6,4.61,4.61,0,0,1-6.43.46c-3.67-2.76-4.13-8.27-4.13-8.27a7.27,7.27,0,0,1-1.84-6.43l.92-3.67a8,8,0,0,1-.46-4.13c.46-1.84,1.38-2.76.92-5.51s-.46-2.3.46-4.59,0-5.05,0-6.89v-1.84s-1.38-.46-.92-3.22-1.38-4.59.92-9.64,4.13-5.51,4.13-5.51-.46-1.84,3.67-2.76a22.62,22.62,0,0,1,7.35-.46l1.38,1.84a3.74,3.74,0,0,1,3.21.92,6.73,6.73,0,0,1,2.3,3.67,4.09,4.09,0,0,1,3.67,0,4.72,4.72,0,0,1,2.76,3.21,35.42,35.42,0,0,0,4.59.46,9.48,9.48,0,0,1,3.67.92,7.67,7.67,0,0,1,4.13-1.38,26.82,26.82,0,0,1,4.59.46,10.86,10.86,0,0,1,4.13-3.67l2.76-1.38a8.21,8.21,0,0,0,4.59-2.76c1.84-2.3,3.67-.92,3.67-.92a5.87,5.87,0,0,1,2.75-3.22c2.3-1.38,4.13,1.38,4.13,1.38a4.07,4.07,0,0,1,4.59-2.76c3.68.46,6.89,3.21,6.89,6a14.25,14.25,0,0,1-1.38,5.51s2.75,1.38,2.75,4.13a9.12,9.12,0,0,1-1.84,5.05s3.67,1.38,2.76,3.67l-.92,2.3s1.84,2.3.92,4.13a20.3,20.3,0,0,0-1.38,3.67,2.07,2.07,0,0,1,.92,3.21c-1.38,2.3-.92,2.3-.46,5.51s-1.38,4.13-.92,6.43.46,3.22.92,7.35-1.38,7.81-2.75,10.56,0,5.05-2.76,9.64-2.3,4.59-6,4.59-6.89-1.38-9.64,0-6.43.46-6.89-1.38-1.38-5.05-2.76-2.76-.46,4.59-2.3,7.81-.92,6.89-2.76,7.81-4.13-.46-4.13-.46-3.68,3.21-5.05.92,0-4.13-.92-6-4.13-7.35-3.67-11.94.92-7.35,5.05-9.64,7.35-2.76,10.1-1.38,6.43,3.67,6.43,3.67a7.67,7.67,0,0,1,4.13-1.38c2.3,0,4.13,2.3,4.13,2.3l3.67-3.67s-1.38-.92.46-2.76l1.84-1.84s-1.38-.92,0-4.13l1.38-3.22a7.13,7.13,0,0,1-.92-6l.92-3.67s-2.3-4.13-1.84-7.35a13.77,13.77,0,0,1,2.75-6,39.82,39.82,0,0,0-1.38-6c-.92-2.76.46-9.64.46-9.64a26.47,26.47,0,0,1-5.51,3.21c-3.21,1.38-5,.46-5,.46s-1.84,2.3-3.67,2.75-5.51-.46-5.51-.46-.92,3.67-4.13,3.67-6.89-2.3-6.89-2.3a19.63,19.63,0,0,1-6.89,1.38c-3.67,0-6-3.21-6-3.21s-2.3,2.75-4.59,1.84-3.67-5.05-3.67-5.05l-3.67-.46s1.38,2.3,0,4.13a30.63,30.63,0,0,0-2.76,5.05s3.21,4.13,2.76,6-1.38,6-1.38,6,.92,0,1.38,2.75a19.23,19.23,0,0,1-.46,6.43s1.84-.92,3.21,2.76,3.22,6,1.84,8.73a25.71,25.71,0,0,1-4.13,5.51s.46,3.67,1.84,5.05,5.51,2.75,5.05,4.59S200.88,348.65,197.67,348.65Z"/></g><path id="_Path_7" data-name="&lt;Path&gt;" class="cls-9" d="M253.84,216.78s1.52-1-4.57-3.55-8.62-2.54-16.24-1.52-14.21,3-20.81-.51-11.67-4.57-16.75-3.55c-6.47,1.29-11.67,3-14.72,6.09-4.68,4.68-3,7.11-2.54,13.2s1.52,13.7,1.52,20.3-.51,9.64,1.52,12.18,3.31,2.39,8.12,1c7.11-2,4.57-5.58,9.64-7.11s9.64-2.54,9.64-2.54c4.06-1,7.61-7.11,7.61-7.11a39,39,0,0,0,2,3.55c1,1.52,1.52,5.08,1.52,5.08l2-.51a13.63,13.63,0,0,1,0-5.08c.51-3-1-3.55,4.57-4.06s9.13-2.54,13.19-9.13,5.08-10.15,7.61-12.18S251.3,219.32,253.84,216.78Z"/><g id="_Group_3" data-name="&lt;Group&gt;" class="cls-4"><path class="cls-10" d="M213.41,151.41c-2.06.29-2.61-.12-4.7,1.08,1.13,4.89,2.45,9.83,5,14.16l.13,1.47c-.77,10.07,7,19.78,16.73,22.63,8.3,2.44,17.15-.11,25.41-2.64,1-.32,3.8-1.61,4.11-2.66,1-3.46-1.17-5.16-1.34-6.09-2-10.52-7.11-17.43-16.63-22.33-3.49-1.8-6.38-3-6.38-3a3,3,0,0,0-.6-2.92c-.2-1.4.61-3.48,0-5.28-1.83-5.13-5.1-3.32-5.1-3.32s-6-4-9-1.8c-.46-1.36-3.32-2.89-4.61-2.26s-2.37,3.14-1.59,4.34c-2.2-.48-2.32-1.57-3.25-.92-1.24.86-2.17,3.78-2.17,3.78a3.68,3.68,0,0,1,2.9,2.14c1,2,1.41,1.61,1.17,3.63"/></g><g id="_Group_4" data-name="&lt;Group&gt;" class="cls-4"><path id="_Path_8" data-name="&lt;Path&gt;" class="cls-11" d="M226.22,386.1s-6.7.11-9,0-2.84.42-3.37-1.7-.79-12.2-1.06-17.23-3.71-11.4-5.3-17.76-.53-11.93,1.86-13.52,7.69-3.18,12.73-2.92,11.14,1.59,12.73,4.51.27,9.28-1.86,15.38-3.71,11.4-3.71,16.7.26,11.4-.26,13.52S229.32,385.42,226.22,386.1Z"/><path id="_Path_9" data-name="&lt;Path&gt;" class="cls-11" d="M199.64,354.72c.1,3.32-3.66,6-8.09,5.9-4.72-.13-8-2.57-8-5.74s3.59-5.74,8-5.74S199.54,351.14,199.64,354.72Z"/><path id="_Path_10" data-name="&lt;Path&gt;" class="cls-11" d="M244.12,355c-.1-3.32,3.66-6,8.09-5.9,4.71.13,8,2.57,8,5.74s-3.59,5.74-8,5.74S244.22,358.63,244.12,355Z"/><path id="_Path_11" data-name="&lt;Path&gt;" class="cls-11" d="M260.13,328.57c-5.73-1.78-12,.77-16.14,3.1s-7.34,3.87-13.48,6.88a23.14,23.14,0,0,1-8.67,2.15,23.91,23.91,0,0,1-8.92-2.15c-6.14-3-9.36-4.56-13.48-6.88s-10.4-4.88-16.13-3.1c-6.09,1.89-7.59,6.88-7.47,11.61.17,6.54,3.43,8.6,5.24,10.66.8.92,2.08,1.6,2.18,3.14.16,2.51,1.25,3,1.25,3a3.48,3.48,0,0,1-.58-2,9.36,9.36,0,0,1,.26-1.93,8.9,8.9,0,0,1,.71,1.61c.32,1,.64,2.84.64,2.84s-.19-1.81-.32-2.77a7.29,7.29,0,0,1,.06-2.13,9.58,9.58,0,0,1,1,1.16c.58.77,1.29,1.93,1.29,1.93s-.56-1.4-.71-1.87a5,5,0,0,1-.26-1.29,3.78,3.78,0,0,1,1,.58c.71.58,1.8,1.55,1.8,1.55s-.77-1.1-1.16-1.68a6.5,6.5,0,0,1-.64-1.42,6.42,6.42,0,0,1,1.22.39c.62.31,1.61.9,1.61.9s-.5-.6-.87-1.13a4.35,4.35,0,0,1-.42-.94,3.59,3.59,0,0,1,1.22.32c.51.29,1.61,1,1.61,1a15.19,15.19,0,0,1-1.45-1.58,5.9,5.9,0,0,1-.52-1.06,3.3,3.3,0,0,1,1,0l1.94.38a6,6,0,0,0-2.66-1.46c-3.84-1.1-4.81-.77-7.64-3.35-2.21-2-3-6.54-2.23-8.94s3.24-5.16,8.67-5,14,6.55,17.51,8.52c3.09,1.72,4.81,1.29,8.33,5.76,2.94,3.74,4.89,13.16,5.66,20.38s-1,9-2.83,9.8-1.29-.52-2.06,1,1.54,9.55,1.54,9.55l4.38.26,4.63-.26s2.32-8,1.54-9.55-.26-.26-2.06-1-3.6-2.58-2.83-9.8,2.73-16.65,5.66-20.38c3.52-4.47,5.24-4,8.33-5.76,3.52-2,11.93-8.34,17.51-8.52s7.88,2.53,8.67,5,0,7-2.23,8.94c-4,3.52-4.66,1.83-8.07,3.7-1.63.89-1.54,1-1.54,1s.9-.22,1.25-.29a3.29,3.29,0,0,1,1,0,5.73,5.73,0,0,1-.51,1.06,15.17,15.17,0,0,1-1.45,1.58s1.1-.68,1.61-1a3.61,3.61,0,0,1,1.22-.32,4.44,4.44,0,0,1-.42.94c-.37.53-.87,1.13-.87,1.13s1-.59,1.61-.9a6.37,6.37,0,0,1,1.22-.39,6.47,6.47,0,0,1-.64,1.42c-.38.58-1.16,1.68-1.16,1.68s1.09-1,1.8-1.55a3.77,3.77,0,0,1,1-.58,4.92,4.92,0,0,1-.26,1.29c-.14.47-.71,1.87-.71,1.87s.71-1.16,1.29-1.93a9.39,9.39,0,0,1,1-1.16,7.29,7.29,0,0,1,.06,2.13c-.13,1-.32,2.77-.32,2.77s.32-1.81.64-2.84a8.7,8.7,0,0,1,.71-1.61,9.39,9.39,0,0,1,.26,1.93,8.65,8.65,0,0,1-.35,2.48,5.85,5.85,0,0,0,1-3.45c.1-1.54,1.38-2.22,2.18-3.14,1.8-2.06,5.06-4.13,5.24-10.66C267.72,335.45,266.22,330.46,260.13,328.57Z"/></g></g><g id="Layer_4" data-name="Layer 4"><line class="cls-12" x1="12.05" y1="278.83" x2="145.14" y2="278.83"/><path class="cls-13" d="M221,360.41V327.06s-.05-24.48,24.48-24.48H391.05"/><path class="cls-14" d="M236,53.66V34.59s-.05-24.48,24.48-24.48H373.67"/><path class="cls-14" d="M209,53.66V34.59s.05-24.48-24.48-24.48H39"/><path class="cls-15" d="M181.08,141.16V107.81s.05-24.48-24.48-24.48H74.72"/><path class="cls-16" d="M202.39,227.56V194.21s.05-24.48-24.48-24.48H46.55"/><text class="cls-17" transform="translate(365.38 326.66)">BPA</text><text class="cls-17" transform="translate(365.38 369)">塑化劑</text><text class="cls-17" transform="translate(365.38 340.66)">NP</text><text class="cls-17" transform="translate(365.38 354.66)">PAHs</text><text class="cls-17" transform="translate(365.38 47.66)">NP</text><text class="cls-17" transform="translate(365.38 61.66)">PBDEs</text><text class="cls-17" transform="translate(365.38 129.16)">PBDEs</text><text class="cls-17" transform="translate(365.38 75.66)">農藥殘留</text><path class="cls-18" d="M91.38,88.83v-11a4.6,4.6,0,0,0-4.6-4.6H4.6A4.6,4.6,0,0,0,0,77.82v11a4.6,4.6,0,0,0,4.6,4.6H86.78A4.6,4.6,0,0,0,91.38,88.83Z"/><text class="cls-19" transform="translate(3.68 88.83)">損害免疫系統</text><path class="cls-18" d="M91.38,15.61V4.6A4.6,4.6,0,0,0,86.78,0H4.6A4.6,4.6,0,0,0,0,4.6v11a4.6,4.6,0,0,0,4.6,4.6H86.78A4.6,4.6,0,0,0,91.38,15.61Z"/><text class="cls-19" transform="translate(3.68 15.61)">影響神經系統</text><path class="cls-18" d="M437.8,15.61V4.6A4.6,4.6,0,0,0,433.2,0H366a4.6,4.6,0,0,0-4.6,4.6v11a4.6,4.6,0,0,0,4.6,4.6H433.2A4.6,4.6,0,0,0,437.8,15.61Z"/><text class="cls-19" transform="translate(362.85 15.61)"><tspan xml:space="preserve"> 干擾內分泌</tspan></text><path class="cls-15" d="M221.06,105.71H373.67"/><path class="cls-18" d="M462.72,95.6H366a4.6,4.6,0,0,0-4.6,4.6v11a4.6,4.6,0,0,0,4.6,4.6h96.7a4.6,4.6,0,0,0,4.6-4.6v-11A4.6,4.6,0,0,0,462.72,95.6Z"/><text class="cls-19" transform="translate(362.69 111.21)"><tspan xml:space="preserve"> 影響甲狀線功能</tspan></text><text class="cls-17" transform="translate(0 237.36)">農藥殘留</text><path class="cls-18" d="M420.87,292.47H366a4.6,4.6,0,0,0-4.6,4.6v11a4.6,4.6,0,0,0,4.6,4.6h54.84a4.6,4.6,0,0,0,4.6-4.6v-11A4.6,4.6,0,0,0,420.87,292.47Z"/><text class="cls-17" transform="translate(365.38 33.19)">BPA</text><text class="cls-19" transform="translate(365.5 308.07)">影響生殖</text><path class="cls-20" d="M265.62,290.16v-70s-.05-24.48,24.48-24.48H420.55"/><text class="cls-17" transform="translate(365.38 218.8)">農藥殘留</text><path class="cls-18" d="M420.87,185.61H366a4.6,4.6,0,0,0-4.6,4.6v11a4.6,4.6,0,0,0,4.6,4.6h54.84a4.6,4.6,0,0,0,4.6-4.6v-11A4.6,4.6,0,0,0,420.87,185.61Z"/><text class="cls-19" transform="translate(365.5 201.22)">毒害腎臟</text><path class="cls-18" d="M59.44,160.58H4.6a4.6,4.6,0,0,0-4.6,4.6v11a4.6,4.6,0,0,0,4.6,4.6H59.44a4.6,4.6,0,0,0,4.6-4.6v-11A4.6,4.6,0,0,0,59.44,160.58Z"/><text class="cls-19" transform="translate(4.08 176.19)">損害肝臟</text><text class="cls-17" transform="translate(0 332)">農藥殘留</text></g></g></svg>