<svg xmlns="http://www.w3.org/2000/svg" viewBox="0 0 585.18 300.36"><defs><style>.cls-1,.cls-2{fill:#333;}.cls-1{opacity:0.4;}.cls-3{fill:#ffed00;}.cls-4{fill:#d0b400;}.cls-5{fill:#f7cd00;}.cls-6{fill:#dadada;}.cls-7{fill:#b2b2b2;}.cls-8{fill:#ededed;}.cls-9{font-size:15.8px;fill:#005f67;font-family:AdobeFanHeitiStd-Bold, AdobeFanHeitiStd Bold-B5pc-H;font-weight:700;}.cls-10{fill:none;stroke:#005f67;stroke-linecap:round;stroke-linejoin:round;stroke-width:2px;stroke-dasharray:12 12;}</style></defs><title>Asset 4</title><g id="Layer_2" data-name="Layer 2"><g id="Layer_3" data-name="Layer 3"><path class="cls-1" d="M290.92,110.93c-11.07-6.53-42.1-22.32-63.33-24.5S183.49,84.8,166.07,75c-14.28-8-28.39-16.58-43.71-22.52-12.13-4.71-25.05-6.67-38-7.61-12.14-.88-29,.64-41.2-1.38a31.23,31.23,0,0,0-4.69-.43,16.63,16.63,0,0,0-7.62,1.45c-5.49,2.71-6.5,8.78-4.28,14.7a22.29,22.29,0,0,0,4.61,7.3A23.36,23.36,0,0,0,35.27,70c14.36,9.57,37.92,15.13,53,22.74s19.27,18.79,25.86,33.25c6.16,13.53,15.42,25,25.8,35.59s22.27,23,36.27,29.05c16,6.89,61.56,2.07,61.56,2.07l102-57.79S302,117.46,290.92,110.93Z"/><path class="cls-2" d="M26.59,59.2c-2.23-5.92-1.21-12,4.28-14.7a16.63,16.63,0,0,1,7.62-1.45L15.1,30.91A7.34,7.34,0,0,0,5.2,34L.83,42.46A7.34,7.34,0,0,0,4,52.36L31.19,66.5A22.29,22.29,0,0,1,26.59,59.2Z"/><polygon class="cls-3" points="463.14 99.82 365.3 124.94 384.83 129.51 478.28 151.39 478.36 151.37 556.59 131.29 576.12 126.28 463.14 99.82"/><polygon class="cls-4" points="576.12 126.28 478.36 151.37 478.28 160.98 478.36 160.96 576.12 135.86 576.12 126.28"/><polygon class="cls-5" points="365.3 124.94 365.3 134.52 478.28 160.98 478.36 151.37 365.3 124.94"/><polygon class="cls-2" points="188.69 159.08 188.69 159.37 189.28 159.22 188.69 159.08"/><polygon class="cls-2" points="468.27 143.35 468.27 143.06 467.68 143.21 468.27 143.35"/><polygon class="cls-2" points="388.67 171.36 378.36 174 468.27 237.74 468.27 234.87 468.27 227.78 468.27 150.93 388.67 171.36"/><polygon class="cls-6" points="194.7 165.69 188.69 164.28 178.68 161.94 178.68 169.81 178.68 202.7 291.65 282.78 291.65 279.92 291.65 272.83 291.65 196.26 291.65 188.4 194.7 165.69"/><polygon class="cls-7" points="467.68 143.21 462.26 144.6 380.53 165.58 370.22 168.23 301.66 185.83 301.66 193.69 378.36 174 388.67 171.36 468.27 150.93 468.27 146.01 468.27 143.35 467.68 143.21"/><polygon class="cls-7" points="291.65 188.4 291.65 196.26 291.65 272.83 291.65 279.92 291.65 282.78 301.66 279.92 301.66 277.06 301.66 193.69 301.66 185.83 291.65 188.4"/><polygon class="cls-7" points="468.27 143.06 468.27 143.35 468.27 146.01 468.27 150.93 468.27 227.78 468.27 234.87 468.27 237.74 478.28 234.87 478.28 232.01 478.28 148.35 478.28 140.49 468.27 143.06"/><polygon class="cls-8" points="365.3 114.03 354.63 116.77 353.73 117 189.28 159.22 188.69 159.37 178.68 161.94 188.69 164.28 194.7 165.69 291.65 188.4 301.66 185.83 370.22 168.23 380.53 165.58 462.26 144.6 467.68 143.21 468.27 143.06 478.28 140.49 365.3 114.03"/><polygon class="cls-3" points="178.68 176.24 80.84 201.36 100.37 205.93 193.82 227.81 193.9 227.79 272.13 207.71 291.65 202.7 178.68 176.24"/><polygon class="cls-4" points="291.65 202.7 193.9 227.79 193.82 237.4 193.9 237.38 291.65 212.28 291.65 202.7"/><polygon class="cls-5" points="80.84 201.36 80.84 210.94 193.82 237.4 193.9 227.79 80.84 201.36"/><polygon class="cls-2" points="561.67 271.13 478.28 224.34 478.28 228.23 554.75 271.13 291.65 271.13 291.65 274.52 561.23 274.52 567.7 274.52 585.18 274.52 585.18 271.13 561.67 271.13"/><rect class="cls-2" x="217.19" y="108.25" width="50.24" height="1.69" transform="translate(-20.26 68.22) rotate(-15.39)"/><rect class="cls-2" x="225.56" y="112.84" width="39.69" height="1.69" transform="translate(-21.37 69.21) rotate(-15.39)"/><rect class="cls-2" x="226.37" y="116.62" width="50.24" height="1.69" transform="matrix(0.96, -0.27, 0.27, 0.96, -22.16, 71)"/><rect class="cls-2" x="251.76" y="97.07" width="1.69" height="33.04" transform="translate(22.9 268.34) rotate(-58.18)"/><rect class="cls-2" x="238.54" y="96.91" width="1.69" height="33.31" transform="translate(16.67 257.1) rotate(-58.18)"/><rect class="cls-2" x="260.65" y="89.73" width="1.69" height="42.4" transform="translate(29.38 274.66) rotate(-58.18)"/><rect class="cls-2" x="229.29" y="94.53" width="1.69" height="42.95" transform="translate(10.24 250.42) rotate(-58.19)"/><rect class="cls-2" x="121.31" y="114.15" width="39.53" height="1.69" transform="translate(-25.49 41.64) rotate(-15.41)"/><rect class="cls-2" x="127.9" y="117.76" width="31.22" height="1.69" transform="translate(-26.41 42.51) rotate(-15.45)"/><rect class="cls-2" x="128.54" y="120.73" width="39.53" height="1.69" transform="translate(-26.95 43.72) rotate(-15.39)"/><rect class="cls-2" x="148.33" y="105.54" width="1.69" height="26" transform="translate(-30.19 182.8) rotate(-58.18)"/><rect class="cls-2" x="137.93" y="105.41" width="1.69" height="26.21" transform="translate(-35.1 173.95) rotate(-58.18)"/><rect class="cls-2" x="155.33" y="99.76" width="1.69" height="33.36" transform="translate(-25.1 187.77) rotate(-58.19)"/><rect class="cls-2" x="130.66" y="103.54" width="1.69" height="33.79" transform="translate(-40.16 168.7) rotate(-58.19)"/><rect class="cls-2" x="76.76" y="59.61" width="39.53" height="1.69" transform="matrix(0.96, -0.27, 0.27, 0.96, -12.58, 27.79)"/><rect class="cls-2" x="83.35" y="63.23" width="31.23" height="1.69" transform="translate(-13.45 28.55) rotate(-15.39)"/><rect class="cls-2" x="83.99" y="66.2" width="39.53" height="1.69" transform="translate(-14.07 29.93) rotate(-15.39)"/><rect class="cls-2" x="103.78" y="51" width="1.69" height="26" transform="translate(-4.91 119.17) rotate(-58.19)"/><rect class="cls-2" x="93.38" y="50.88" width="1.69" height="26.21" transform="translate(-9.82 110.32) rotate(-58.18)"/><rect class="cls-2" x="110.78" y="45.23" width="1.69" height="33.36" transform="matrix(0.53, -0.85, 0.85, 0.53, 0.17, 124.12)"/><rect class="cls-2" x="86.11" y="49.01" width="1.69" height="33.79" transform="translate(-14.89 105.06) rotate(-58.19)"/></g><g id="Layer_4" data-name="Layer 4"><text class="cls-9" transform="translate(167.34 38.43)">拖網(5m)</text><text class="cls-9" transform="translate(387.44 295.77)">繩繫彩虹勇士號</text><text class="cls-9" transform="translate(87.74 98.6)">採集網(孔徑0.333mm)</text><text class="cls-9" transform="translate(151.69 204.24)">翼(木製)</text><text class="cls-9" transform="translate(302.41 240.22)">16cm</text><text class="cls-9" transform="translate(441.18 125.61)">翼(木製)</text><text class="cls-9" transform="translate(218.23 217.74) rotate(-14.4)">5</text><text class="cls-9" transform="matrix(0.97, -0.25, 0.25, 0.97, 226.73, 215.56)">0</text><text class="cls-9" transform="matrix(0.97, -0.25, 0.25, 0.97, 235.2, 213.38)">c</text><text class="cls-9" transform="translate(245.12 210.84) rotate(-14.4)">m</text><text class="cls-9" transform="translate(503.95 140.55) rotate(-14.4)">5</text><text class="cls-9" transform="translate(512.45 138.37) rotate(-14.4)">0</text><text class="cls-9" transform="translate(520.92 136.2) rotate(-14.4)">c</text><text class="cls-9" transform="translate(530.84 133.65) rotate(-14.4)">m</text><text class="cls-9" transform="translate(117.6 236.22) rotate(13.18)">5</text><text class="cls-9" transform="translate(126.11 238.21) rotate(13.18)">5</text><text class="cls-9" transform="matrix(0.97, 0.23, -0.23, 0.97, 134.63, 240.21)">c</text><text class="cls-9" transform="matrix(0.97, 0.23, -0.23, 0.97, 144.59, 242.54)">m</text><text class="cls-9" transform="translate(361.72 165.49) rotate(-14.4)">9</text><text class="cls-9" transform="translate(370.21 163.3) rotate(-14.4)">2</text><text class="cls-9" transform="matrix(0.97, -0.25, 0.25, 0.97, 378.67, 161.13)">c</text><text class="cls-9" transform="translate(388.57 158.59) rotate(-14.4)">m</text><polyline class="cls-10" points="322.68 121.06 322.68 105.45 38.48 1 38.48 30.08"/></g></g></svg>