<svg xmlns="http://www.w3.org/2000/svg" viewBox="0 0 96.06 174.08"><defs><style>.cls-1{fill:#c7cfd5}.cls-2{fill:#314e64;fill-rule:evenodd;opacity:.6}.cls-3{fill:none;stroke:#314e64;stroke-miterlimit:10;stroke-width:2px}.cls-4{font-size:11px}.cls-4,.cls-5{fill:#fff}.cls-4,.cls-6{font-family:AdobeFanHeitiStd-Bold,AdobeFanHeitiStd Bold-B5pc-H;font-weight:700}.cls-6{font-size:14px;fill:#575756}</style></defs><g id="Layer_2" data-name="Layer 2"><g id="Layer_4" data-name="Layer 4"><circle class="cls-1" cx="48.27" cy="47.79" r="47.79"/><path class="cls-2" d="M87.05 26.08v.17l-.34 1c0 .11-.13.21-.13.32A2.61 2.61 0 0 1 86 29a.11.11 0 0 1-.09 0v-.08c0-.03-.06-.09-.08-.08a2.64 2.64 0 0 0-.37.17v.13a.21.21 0 0 0 .15 0l.4-.1a.94.94 0 0 1-.82.7h.49a1.3 1.3 0 0 0-.47.71 4.22 4.22 0 0 1-.46.73l-.21.06s.05.1 0 .13c-.12.2-.24.39-.36.58s-.21.4-.38.47-.17.18-.22.31-.15.41-.23.61a.88.88 0 0 0 0 .17h-1.46v.07h1.51c0 .47 0 .63-.19.71 0 0 .12.07.14.12a3.52 3.52 0 0 1 .1.44c.21 1.16.11.86.71 1.66.21.33.43.64.63 1s.54.84.76 1.29c.13.26.15.57.29.83a2.58 2.58 0 0 1 .38 1.35v.37c0 .12 0 .36-.05.54a2.72 2.72 0 0 1-.49-.18l-3.1-2c-.76-.49-1.52-1-2.25-1.5s-1.7-1.27-2.55-1.92a4.58 4.58 0 0 0-1.51-.7 3.41 3.41 0 0 0-.74-.06h-.59a6.83 6.83 0 0 0-.75 0c-.31 0-.61.14-.91.2s-.36 0-.52.06c-.38.12-.76.27-1.14.4l-1.7.54c.08.38.41.47.66.63l1.47.86c.06 0 .09.11.14.16l-.06.07-1.26-.82-.06.08 1 .85v.08l-.63-.44.44.55c-.33.31-.56 0-.82-.14v.17l-.58-.34c.16.23.35.44.52.65a.68.68 0 0 1 .07.21.8.8 0 0 1-.25 0c-.21-.09-.41-.2-.61-.3l.2.22v.05l-.49-.39.67.86c-.16 0-.29.12-.4.09a2.5 2.5 0 0 1-.55-.26l-.75-.44a12.07 12.07 0 0 1 .78 1.21l-.06.06-1.06-.54.23.39-.37-.21c.18.24.33.44.47.64a.56.56 0 0 1 0 .21h-.24c-.06 0-.41-.25-.68-.41l.4.51v.06l-.66-.43c.13.21.26.39.36.59a.72.72 0 0 1 0 .27.88.88 0 0 1-.24-.06c-.17-.1-.32-.23-.48-.34l-.08.07.4.48-.6-.48h-.05c.08.12.15.24.22.37s.11.21.16.32l-.09.06-1-.73.72.71-.06.05-.88-.72c.19.33.21.74.52 1v.11a.17.17 0 0 1-.13 0l-.58-.31.25.31-.06.06-.56-.54-.07.06c.12.23.25.46.36.7a.28.28 0 0 1 0 .24.25.25 0 0 1-.23 0c-.25-.13-.49-.29-.73-.43l-.37-.2v.06l.66.77h-.05l-.33-.27.2.25-.54.69-.3-.24.23.29v.08l-1.3-.62a11.56 11.56 0 0 0 .74 1.11.74.74 0 0 1 .06.26h-.3c-.37-.24-.72-.51-1.09-.76s-.46-.24-.77 0a.36.36 0 0 0 0 .52l.67.58c.15.14.29.3.43.45a.28.28 0 0 1-.23-.05l-1.6-1.25a2.68 2.68 0 0 0-1.16-.71.39.39 0 0 0-.54.63.27.27 0 0 0 0 .26c.21.37.44.72.67 1.08.11.18.24.35.38.56a16.79 16.79 0 0 1-2.59-3.77l-.82.09c-1 .14-2 .34-3 .41-1.31.09-2.63.11-3.94.12-1 0-2.06-.05-3.09-.11a8 8 0 0 1-1.06-.16L44 42.14l-.06.08a10.83 10.83 0 0 0 1.23 1.4 11.62 11.62 0 0 0 1.61 1l-.26.59a1.83 1.83 0 0 1-.82 1.13 1.34 1.34 0 0 0-.32.2c-.22.2-.53.27-.63.61s-.67.42-.82.21a3 3 0 0 1-.39-.66c-.29-.75-.58-1.5-.8-2.27a8.17 8.17 0 0 1-.53-2.43.27.27 0 0 0-.31-.3 3.66 3.66 0 0 1-.81-.14c-.74-.18-1.48-.37-2.21-.58s-1.53-.43-2.26-.72a20.32 20.32 0 0 1-2.18-1c-.59-.32-1.15-.7-1.71-1.07-.21-.14-.39-.33-.6-.48s-.46-.38-.7-.55-.43-.22-.63-.36-.92-.62-.55-1c.15-.17.24-.14.47-.14a4.58 4.58 0 0 1 .56 0c.36 0 .7.17 1.05.2a6.19 6.19 0 0 1 .9.08 3.7 3.7 0 0 0 .82.09 1.53 1.53 0 0 0 .87-.34c.45-.31-.14-.39-.4-.44a14.2 14.2 0 0 0-3.21-.17 11 11 0 0 1-1.18.11c-.74-.07-.46-1.46-.32-1.91a2.3 2.3 0 0 1 .17-.49c.23-.36.49-.7.73-1A3.06 3.06 0 0 1 32 30.46a5.22 5.22 0 0 0 .8-.46c.15-.1.3-.22.46-.31s.61-.32.9-.5.61-.46.94-.63a4.77 4.77 0 0 0 1.09-.8 5.37 5.37 0 0 1 1-.76c.68-.38 1.39-.71 2.07-1.09a17.38 17.38 0 0 1 3.85-1.69l.63-.15c-.33-1.45-.32-3.39 0-3.92 0 .27.07.52.08.77s.17.25.28.2a1.1 1.1 0 0 0 .47-.4c.25-.49.44-1 .66-1.52 0-.11.1-.22.15-.33a.32.32 0 0 1 0 .22 7.62 7.62 0 0 0 0 .87c0 .08.2.23.25.21a1.56 1.56 0 0 0 .72-.38 8 8 0 0 0 .58-1.2c.06-.12.13-.23.2-.34a5.22 5.22 0 0 1 0 .94c0 .2 0 .4.22.45a.44.44 0 0 0 .58-.21c.22-.42.48-.82.72-1.23h.06a6.28 6.28 0 0 1-.18.75c-.1.27.06.41.22.54a.87.87 0 0 0 1.13-.31c.14-.22.27-.44.4-.67h.07l-.18.87.21.15a.59.59 0 0 0 .84-.07 8.64 8.64 0 0 0 .58-.89.73.73 0 0 1 .12-.12.23.23 0 0 1 0 .17 5.31 5.31 0 0 0-.14.77.57.57 0 0 0 .59.53c.29 0 .52-.12.61-.44a1.51 1.51 0 0 1 .26-.42s.11-.07.24-.15l-.08.45c0 .13-.05.25-.07.38a.46.46 0 0 0 .36.55 1.16 1.16 0 0 0 .83-.51 2.54 2.54 0 0 1 .21-.36h.07l-.11.31-.12.31a.55.55 0 0 0 .39.62.77.77 0 0 0 .67-.41c.08-.17.17-.33.26-.51a9.44 9.44 0 0 0 .3 1.06.52.52 0 0 0 .39.23c.1 0 .24-.13.32-.23s.14-.3.23-.43.14-.1.21-.14a1 1 0 0 1 .08.22c0 .32.07.64.11 1a.4.4 0 0 0 .6.25c.28-.19.55-.4.83-.6 0 .11-.12.19-.16.28s-.1.31 0 .38.28 0 .4-.07c.18-.21.33-.24.6-.07a.79.79 0 0 0-.11.22v.32c0 .06.22.23.41.09a3.79 3.79 0 0 1 .49-.26l.52-.26v.06a.73.73 0 0 0-.15.13c-.08.11-.21.24-.19.34a.34.34 0 0 0 .42.27c.2 0 .4-.1.61-.15s.26 0 .23.23a1.48 1.48 0 0 0 .05.39 1.4 1.4 0 0 0 .45-.09.58.58 0 0 1 .71.09c.28.42.48.46.9.23l.23-.11c0 .16.08.29.11.43s.15.34.38.25.12-.14.19-.18.22-.13.3-.1.27.15.29.26c.1.47.31.6.74.4a.24.24 0 0 1 .34.19c0 .1 0 .28.08.29a.65.65 0 0 0 .44 0c.24-.15.34.05.49.12s0 .19 0 .3a1.13 1.13 0 0 0 0 .28.9.9 0 0 0 .25 0 2.7 2.7 0 0 0 .33-.23l.48.6-.16.17c.24.38.35.4.71.21h.29a.76.76 0 0 1 0 .25.37.37 0 0 0 .08.51l.33-.17-.1-.21c.15.06.26.15.38.15s.29.1.25.3-.09.2-.1.31 0 .26 0 .32.2 0 .3-.08.29-.07.38.07a.26.26 0 0 1 0 .24c-.38.4-.78.79-1.16 1.19-.2.2-.37.43-.56.65a1.9 1.9 0 0 0 .26.25 6.84 6.84 0 0 0 1.88.94c.43.11.84.31 1.26.42s1.08.23 1.61.34a3.64 3.64 0 0 0 .88.17 7.47 7.47 0 0 0 1.68-.29 5.93 5.93 0 0 0 1.4-.6c.66-.38 1.28-.83 2-1.16s1.25-.7 1.88-1L85.17 27l1.51-.85a1.52 1.52 0 0 1 .37-.07zM16.94 74.16c.29-.69.07-1.42.33-2.16A3.68 3.68 0 0 1 19 69.57c2.21-1.05 4.45-2 6.73-3.07-.09-.28-.53-.27-.53-.27a7.65 7.65 0 0 1-.9-.12.79.79 0 0 1-.53-.55c0-.7-.48-.71-1-.76-.28 0-.69-.19-.77-.4a1 1 0 0 1 .27-.83 4.63 4.63 0 0 1 1.13-.84c1-1.06 2-2.13 3-3.2l.2-.22a14.83 14.83 0 0 0 1.14-1.54v-.06a16.5 16.5 0 0 1 4.77-4.47l.87-.61a.51.51 0 0 0 0-.06l.47-.3a15 15 0 0 1 9.15-2.2 4.49 4.49 0 0 1 1.43.24l.42.12c2 .57 3.91 1.12 5.86 1.71l.26.1c.61.21 2 .74 2 .74 1.34.45 2.68.92 4.11 1.42.74.26.81.27.81.27a6 6 0 0 1 .71 0c.67 0 .9.19.75.58l.18.12a2 2 0 0 1 .24-.16c1.07-.59 2.16-1.15 3.23-1.73a3.29 3.29 0 0 1 3.73 0 1.18 1.18 0 0 0 .71.24 1.66 1.66 0 0 1 1.57.84 1.33 1.33 0 0 0 .47.4c.55.27.5.65.26 1.09a11.58 11.58 0 0 1-.74 1.26 6.33 6.33 0 0 1-4.18 2.87 12.25 12.25 0 0 0-6.61 2.63c-.13.12-.27.22-.42.33l-.5.42c.29 1.08.58 2.16.85 3.24a12.44 12.44 0 0 1 0 7.6 22.67 22.67 0 0 1-2.53 4.6 13.6 13.6 0 0 1-7.85 5.76 3.21 3.21 0 0 1-.55.05l-.09-.17a2.91 2.91 0 0 1 .56-.73 1.37 1.37 0 0 0 .65-1.28c0-.26.29-.52.45-.78l.5-.81c.18-.28.31-.69.57-.82.41-.19.42-.42.44-.81a1.68 1.68 0 0 1 .42-1 .89.89 0 0 0 .3-.9 2.94 2.94 0 0 1 .21-1.11 6.15 6.15 0 0 0 .19-.64c.07-.55.08-1.1.17-1.65.16-1 .41-2 .51-2.94.14-1.43.18-2.87.27-4.3 0-.47.09-.94.15-1.4a1.76 1.76 0 0 0-.3.93 3 3 0 0 1-.24 1.27 4.45 4.45 0 0 1-.43 1.33c-1 4.58-7.74 11.38-11 10.65a3.76 3.76 0 0 1 .55-.7 1.46 1.46 0 0 0 .67-1.35c0-.23.27-.47.42-.71l.52-.8.56-.85c.14-.22.41-.47.38-.66a1.09 1.09 0 0 1 .42-1.09 1.16 1.16 0 0 0 .28-.82 2.32 2.32 0 0 1 0-.54 3.2 3.2 0 0 1 .2-.88 25.45 25.45 0 0 1-3.27.57 22.73 22.73 0 0 1-7.57-.51 4.84 4.84 0 0 0-.5.29c-.52.64-1.05 1.33-1.62 2a14.6 14.6 0 0 1-5.85 3.88c-.55.22-.78 0-.76-.55a3.7 3.7 0 0 0-.12-.66c0-.32-.1-.64-.13-1 0-.15.09-.33 0-.46a2.1 2.1 0 0 1 .52-2.12 15.53 15.53 0 0 1 2.32-2.11 2.28 2.28 0 0 0 .63-1.08l1.16-1.52a2 2 0 0 0-.79.64A15.63 15.63 0 0 1 23.73 73a17 17 0 0 1-6 1.81c-.62.07-.97-.21-.79-.65z"/><path class="cls-3" d="M46.6 128.12L46.6 65.06"/><text class="cls-4" transform="translate(5.49 170.89)">農藥殘留</text><path class="cls-5" d="M88.6 123.12h-84a4.6 4.6 0 0 0-4.6 4.6v11a4.6 4.6 0 0 0 4.6 4.6h84a4.6 4.6 0 0 0 4.6-4.6v-11a4.6 4.6 0 0 0-4.6-4.6z"/><text class="cls-6" transform="translate(4.68 138.72)">毒害海洋生物</text></g></g></svg>