<svg xmlns="http://www.w3.org/2000/svg" viewBox="0 0 85.49 85.5"><defs><style>.cls-1{fill:#fff;}.cls-2{fill:#005f67;fill-rule:evenodd;}</style></defs><title>Asset 12</title><g id="Layer_2" data-name="Layer 2"><g id="Layer_3" data-name="Layer 3"><path class="cls-1" d="M42.75,0A42.75,42.75,0,1,0,85.49,42.75,42.8,42.8,0,0,0,42.75,0Z"/><path class="cls-2" d="M50.87,40.37a7,7,0,0,0,4.06-4.77c6.56,6,10.13,20.68-.51,31.66H58.1A2.77,2.77,0,0,1,61.22,70c.1,1.13,0,2.29,0,3.5H22.87a34.83,34.83,0,0,1,.3-4.38,2.27,2.27,0,0,1,2.25-1.83c1.48-.07,3-.06,4.45-.07,3.28,0,6.56,0,9.83-.1a15,15,0,0,0,10.06-4.35,16.14,16.14,0,0,0,1.73-21.61Z"/><path class="cls-2" d="M49.16,16l4-6.94c-.14-.4-.45-.81-.35-1.06a6.86,6.86,0,0,1,1-1.69c.09-.11.55,0,.76.09,1.85,1,3.68,2.11,5.52,3.17.48.28.61.62.28,1.1a7.07,7.07,0,0,0-.46.8c-.28.56-.63.94-1.33.49l-4.11,7.12c.26.17.49.31.72.47a1.36,1.36,0,0,1,.49,1.9c-1.28,2.29-2.61,4.55-3.94,6.86a7,7,0,0,0-5.61-.53,6.68,6.68,0,0,0-4.3,8c.42,1.57.61,1.83,3.13,4.3L40,48.83l-9.15-5.28,3.54-6.14L46.24,16.8C47.08,15.34,47.53,15.2,49.16,16Z"/><path class="cls-2" d="M43.43,34.14a5,5,0,0,1,5-5,5,5,0,1,1-.06,10A4.93,4.93,0,0,1,43.43,34.14Z"/><path class="cls-2" d="M42.35,52.67a16.63,16.63,0,0,1-1.1,1.63c-.09.11-.53,0-.74-.08-4.79-2.75-9.57-5.53-14.36-8.29-.56-.32-.66-.65-.34-1.22.75-1.34.76-1.36,2.07-.6Q34.69,48,41.5,52A7.47,7.47,0,0,1,42.35,52.67Z"/><path class="cls-2" d="M33.93,52.79l4.19,2.43c-.79,1.37-1.53,2.71-2.34,4a.94.94,0,0,1-.89.18c-1-.52-2-1.12-3-1.7a.61.61,0,0,1-.26-1C32.39,55.45,33.13,54.17,33.93,52.79Z"/><path class="cls-2" d="M26.37,48.45l4.19,2.42c-.8,1.38-1.56,2.73-2.38,4a.8.8,0,0,1-.76.15c-1.06-.55-2.1-1.15-3.1-1.8a.84.84,0,0,1-.22-.79C24.81,51.13,25.59,49.82,26.37,48.45Z"/></g></g></svg>