<svg xmlns="http://www.w3.org/2000/svg" viewBox="0 0 64.49 64.5"><defs><style>.cls-1,.cls-3{fill:#fff;}.cls-2{fill:#005f67;opacity:0.5;}.cls-3{fill-rule:evenodd;}</style></defs><title>Asset 17</title><g id="Layer_2" data-name="Layer 2"><g id="Layer_4" data-name="Layer 4"><path class="cls-1" d="M32.25,0A32.22,32.22,0,0,0,.46,37.65q.15.87.34,1.72a32.24,32.24,0,0,0,62.83.26q.2-.84.35-1.69A32.21,32.21,0,0,0,32.25,0ZM61.19,37.44c-.09.53-.2,1-.32,1.55A29.3,29.3,0,0,1,32.25,61.66,29.62,29.62,0,0,1,3.57,38.75c-.12-.52-.22-1-.31-1.57a29.41,29.41,0,1,1,57.93.26Z"/><path class="cls-2" d="M32.25,7.87a24.36,24.36,0,0,0-24,28.46c.08.44.16.87.26,1.31a24.55,24.55,0,0,0,23.77,19A24.28,24.28,0,0,0,56,37.83c.1-.42.19-.84.27-1.29a24.35,24.35,0,0,0-24-28.68Z"/><path class="cls-3" d="M41.81,30.75c0,.14,0,.28,0,.41a.77.77,0,0,1,.68.89,3.08,3.08,0,0,0,0,.4c0,.21,0,.4-.28.49-.05,0-.08.11-.1.19.24-.08.51,0,.64-.33,0-.09.27-.17.4-.15a.45.45,0,0,1,.4.43c.19-.07.38-.13.56-.2s.08-.09.1-.14a.85.85,0,0,1,.92-.45c.25,0,.57.63.42.87l-.11.2a3.19,3.19,0,0,1,.4,0,.81.81,0,0,1,.71.6.91.91,0,0,1-.35,1,.79.79,0,0,1-.92,0,.52.52,0,0,0-.26,0l-1,.06a1.12,1.12,0,0,0,.16,1.15c.18.19-.17.75-.49.84a.79.79,0,0,1-1-.77.71.71,0,0,1-.84-.26c-.23-.33,0-.6.16-.89a.54.54,0,0,1-.35-.71s0-.11-.05-.17l-.23-.44a.25.25,0,0,0-.1-.11.53.53,0,0,1-.35-.67.28.28,0,0,0,0-.21.85.85,0,0,1-.19-.74.43.43,0,0,1,.46-.39,3.14,3.14,0,0,1,.39.05v-.24a.39.39,0,0,1-.55-.17,1.67,1.67,0,0,1,0-.59c-.43-.26-.43-.56.05-.85-.29-.2-.58-.15-.68.14a.53.53,0,0,1-.54.4c-.27,0-.43-.19-.5-.52v0a2.34,2.34,0,0,1-.6.1.74.74,0,0,1-.38-.25.61.61,0,0,1,0-.69.64.64,0,0,1,.7-.32c.34.1.48.29.49.78.31-.26.54-.72,1-.36a.26.26,0,0,0-.05-.41.51.51,0,0,1,0-.84.45.45,0,0,0,.13-.16.54.54,0,0,1,.58-.39c.12-.4.31-.59.6-.6s.46.14.66.54a1.58,1.58,0,0,0,.08-.36.55.55,0,0,1,.46-.62.6.6,0,0,1,.66.37.38.38,0,0,0,.2.16.56.56,0,0,1,.39.47,3.75,3.75,0,0,0,.35.71l.16-.32c-.37-.21-.5-.5-.36-.79a.51.51,0,0,1,.66-.23c.29.12.36.41.18.93l.43-.2c-.2-.52-.12-.8.24-.95a.67.67,0,0,1,.82.36c.14.33,0,.63-.5.83.14.27.17.56-.12.71a2.47,2.47,0,0,1-.76.11l.07.26c.33-.18.65-.19.82,0a.57.57,0,0,1,.11.64.56.56,0,0,1-.64.31c-.24,0-.36-.18-.43-.52-.23,0-.48,0-.64-.06s-.19-.35-.28-.54c-.11,0-.32,0-.45-.08s-.17-.32-.26-.48a2.1,2.1,0,0,0-.18-.23l-.08,0c0,.1,0,.21,0,.31a.47.47,0,0,1-.79.29,1.5,1.5,0,0,0-.3-.15l-.63,1.1c.34-.23.59.12.92,0s.4.07.5.44c.48.12.55.34.23.71,0,0,0,.12-.08.17s-.09.16-.15.18a4.17,4.17,0,0,1-.82.22C42.1,30.95,42,30.82,41.81,30.75Zm1,3.09.07.07a2.75,2.75,0,0,1,.12.32c.09.37.11.38.55.25l-.2-1Z"/><path class="cls-3" d="M47.59,43.73l.37-.07a2.08,2.08,0,0,0-.3.49.31.31,0,0,0,.27.39l-.11-.26.24.06c.08.26.16.47.2.69a2.79,2.79,0,0,1,.1.77.39.39,0,0,1-.45.36l.08.14a.72.72,0,0,1-.18,1.08.47.47,0,0,1-.22.08c-.31,0-.34.07-.24.36-.08.08-.19.13-.21.21s-.12.23-.3.22a3.23,3.23,0,0,0-.54,0c-.07.39-.19.49-.58.48-.05,0-.13,0-.14-.06-.08-.23-.24-.2-.43-.17l.19-.17h-.43c0,.45,0,.85-.56.94a.89.89,0,0,1-1-.46.85.85,0,0,1,.24-1c-.5-.19-.58-.32-.54-.82a.74.74,0,0,1-.44-1.29l-.35-.33.5-.27,0-.07.07,0v-1l.58.06L43.27,44l.21,0-.19-.22.25,0,.14-.37.23.16c0-.2,0-.36,0-.52h-.06l.19-.26.19.22.16-.35c.24.13.39,0,.49-.28l.12.08a.86.86,0,0,1,.27-.12c.05,0,.12.1.16.13s.36-.19.51.1.32.07.44,0,.48,0,.5.25a.35.35,0,0,0,0,.2c.11.12.26.23,0,.32,0,0,0,.14,0,.14.2.06.11.2.07.29h.39Zm-1.19-.91-.47,0-.12.28Z"/><path class="cls-3" d="M35.42,43.29c.35.67-.22,1.14-.75,1.36-.12.28-.23.5-.31.74a1.1,1.1,0,0,0,0,.35c0,.64-.35,1-1,.86,0,.3.28.56.1.88a.68.68,0,0,1-.8.36.87.87,0,0,1,.06.94.77.77,0,0,1-.84.32c.15.33.23.66,0,.92a1.24,1.24,0,0,1-.59.34.85.85,0,0,1-.9-.77c-.06-.53.26-.85.95-.92a.74.74,0,0,1,.16-1c-.27-.57-.23-.76.23-1.23l.07-.08c.31-.5.45-.56,1.07-.43,0-.1,0-.2,0-.29s0-.05,0-.08a2,2,0,0,1,.73-1.45.27.27,0,0,0,.13-.2.78.78,0,0,1,.44-.7c.32-.18.32-.22.16-.55a.83.83,0,0,1,.46-1.12,3.85,3.85,0,0,1,.75-.12c.38,0,.71.35.8.63a.85.85,0,0,1-.39,1Z"/><path class="cls-3" d="M40.3,39.35c0,.09,0,.14,0,.2a.7.7,0,0,1-.45.78A.73.73,0,0,1,39,40a.2.2,0,0,0-.3-.07.73.73,0,0,1-.86-.36.72.72,0,0,1,.07-.84c.45-.44.81-.42,1.25.05a.26.26,0,0,0,.15.08l.72,0a.65.65,0,0,1,.11-.78c.28-.29.55-.19.85,0-.09-.25-.17-.49-.26-.72a.66.66,0,0,1,.1-.69.64.64,0,0,1,.72-.18A.62.62,0,0,1,42,37c0,.12,0,.24.07.37a.82.82,0,0,1,.85.11s.16,0,.23,0a.8.8,0,0,1,.91.11.7.7,0,0,1,.17.85,2,2,0,0,1-.34.39c-.14.15-.24.27-.05.47a.67.67,0,0,1,0,.82.88.88,0,0,1-1,.34.72.72,0,0,1-.47-.79.85.85,0,0,0-.11-.8c-.54.11-.69,0-.88-.51,0-.09-.15-.15-.27-.19.2.37.41.73.05,1.1A.66.66,0,0,1,40.3,39.35Z"/><path class="cls-3" d="M40.64,45.62c.4-.53.64-.63,1-.42a.71.71,0,0,1,.24.85c-.18.36-.44.39-1.08.16,0,0,.05.13.1.14a.53.53,0,0,1,.46.56c0,.3-.22.44-.5.57a4.65,4.65,0,0,0,.52.21.64.64,0,0,1,.48.66.35.35,0,0,0,.07.21.69.69,0,0,1-.31,1.24.84.84,0,0,1,.18,1.38.8.8,0,0,1-1.18-.1.33.33,0,0,0-.21-.11.92.92,0,0,1-.7-.6c-.15-.31-.13-.71-.48-.94a.53.53,0,0,1-.13-.67.54.54,0,0,1,.56-.31.51.51,0,0,1,.49.44s0,.08.07.19l.15-.55a.62.62,0,0,1,.22-1.16.61.61,0,0,1-.3-.72c-.29,0-.56-.12-.59-.41a.68.68,0,0,1,.22-.69A.55.55,0,0,1,40.64,45.62Z"/><path class="cls-3" d="M26.94,51.43a1.06,1.06,0,0,1,0-.24,1,1,0,0,1,.13-.46c.31-.36.66-.69,1-1a.29.29,0,0,1,.2-.09,6.67,6.67,0,0,1,1.39.21.9.9,0,0,1,.24,1.37.73.73,0,0,1-1,.25c-.2-.07-.27,0-.35.15a.76.76,0,0,1-.93.49,1,1,0,0,1-.3,1.11,1,1,0,0,1-.72.18,1,1,0,0,1-.86-.92C25.8,51.84,26.21,51.47,26.94,51.43Z"/><path class="cls-3" d="M23.89,20.59a.88.88,0,0,1-.37,1.27c-.5.23-.93,0-1.21-.63-.62.11-1-.07-1.14-.53a.83.83,0,0,1,.48-1c.43-.17.8,0,1.12.66.07,0,.2-.12.19-.14a.53.53,0,0,0-.17-.26.78.78,0,0,1-.37-.87.8.8,0,0,1,.69-.59,1,1,0,0,1,.77.4.51.51,0,0,0,.16.2.8.8,0,0,1-.15,1.5Z"/><path class="cls-3" d="M49.34,44.47a1.13,1.13,0,0,1-.73-1.15,1,1,0,0,1,2-.27c.23.45.1.85-.45,1.4.5.33.68.71.54,1.15a.94.94,0,0,1-1.84,0A1,1,0,0,1,49.34,44.47Z"/><path class="cls-3" d="M24.12,14a1,1,0,0,1,.87-.93.32.32,0,0,0,.18-.18,1.33,1.33,0,0,1,.48-.64,1.07,1.07,0,0,1,1.41.44,1,1,0,0,1-.46,1.4.35.35,0,0,1-.18.06c-.3,0-.4.12-.53.37a.85.85,0,0,1-1.47.08A2.79,2.79,0,0,1,24.12,14Z"/><path class="cls-3" d="M11.49,39.24a2.38,2.38,0,0,1-.2.33.76.76,0,0,1-1.1.15.85.85,0,0,1-.39-1c.05-.18.11-.36.17-.54a.84.84,0,0,1,1-.49.46.46,0,0,0,.49-.09.93.93,0,0,1,1,0c.46.46.54.89.26,1.31a.93.93,0,0,1-1.12.38Z"/><path class="cls-3" d="M41,19.22a.86.86,0,0,1-.85-1,.35.35,0,0,0,0-.26.9.9,0,0,1,0-1,.56.56,0,0,0,.07-.34.93.93,0,0,1,.56-.86.8.8,0,0,1,.93.31c.28.45.27.59-.06,1a1.26,1.26,0,0,0,0,.79.71.71,0,0,1,.11.88A.8.8,0,0,1,41,19.22Z"/><path class="cls-3" d="M26,34.23a1,1,0,0,1,.65-.92,1,1,0,0,1,1.07.33.38.38,0,0,0,.22.13.94.94,0,0,1,.83,1,1,1,0,0,1-1,1,1,1,0,0,1-.72-.4.5.5,0,0,0-.23-.15A.93.93,0,0,1,26,34.23Z"/><path class="cls-3" d="M12,27.66c.22.11.39,0,.6-.19a.89.89,0,0,1,1.13.13,1,1,0,0,1,.19,1.08.91.91,0,0,1-1,.48c-.12,0-.17,0-.28.09a.89.89,0,0,1-1.14.12,1,1,0,0,1-.42-1.07A.87.87,0,0,1,12,27.66Z"/><path class="cls-3" d="M44.22,30.5l.12.6a.58.58,0,0,1,.62.34.46.46,0,0,1-.16.6c-.09.07-.17.15-.26.23s-.32.31-.5.45a.49.49,0,0,1-.76-.25c0-.08-.12-.12-.18-.19s-.29-.24-.3-.37a.53.53,0,0,1,.23-.41.56.56,0,0,1,.45.05c.25.14.39.1.5-.2a.48.48,0,0,1-.56-.43c-.06-.28.14-.38.27-.46,0-.23-.06-.41-.07-.6a.21.21,0,0,1,.06-.15.55.55,0,0,1,.19-.14,4.07,4.07,0,0,1,.91-.27c.24,0,.42.26.4.5a.58.58,0,0,1-.47.46A2.08,2.08,0,0,0,44.22,30.5Z"/><path class="cls-3" d="M50.17,27.68a.77.77,0,0,1-.52-1.22.85.85,0,0,1,1-.28A.67.67,0,0,1,51,27c-.08.22,0,.29.19.34a.7.7,0,0,1,.54.66.84.84,0,0,1-.44.8.89.89,0,0,1-1-.08.79.79,0,0,1-.15-1A.33.33,0,0,0,50.17,27.68Z"/><path class="cls-3" d="M19.43,24.64a.86.86,0,0,1-.6.87.83.83,0,0,1-.91-.19,1.25,1.25,0,0,0-.42-.22,1,1,0,0,1-.62-.87.93.93,0,0,1,.58-.85.88.88,0,0,1,1,.21.8.8,0,0,0,.28.15C19.11,23.89,19.49,24.27,19.43,24.64Z"/><path class="cls-3" d="M29.07,28.2a.88.88,0,0,1,.77-.81.86.86,0,0,1,.9.64.39.39,0,0,0,.19.25.83.83,0,0,1-.31,1.56.78.78,0,0,1-.84-.55.35.35,0,0,0-.23-.28A.77.77,0,0,1,29.07,28.2Z"/><path class="cls-3" d="M21.74,22.8a.83.83,0,0,1-.6.74,1,1,0,0,0-.29.18.83.83,0,0,1-.91.17,1,1,0,0,1-.56-.93.8.8,0,0,1,.52-.74,2.79,2.79,0,0,0,.44-.25.79.79,0,0,1,.88-.07A.9.9,0,0,1,21.74,22.8Z"/><path class="cls-3" d="M50.31,24.64c0-.54.12-.86.47-1a.79.79,0,0,1,.85,1.3c-.32.33-.59.33-1.11,0a1.76,1.76,0,0,1-.18.53.9.9,0,0,1-.46.29.68.68,0,0,1-.76-.4.72.72,0,0,1,.23-.88C49.68,24.24,50,24.4,50.31,24.64Z"/><path class="cls-3" d="M37.82,51.36c-.39.4-.81.43-1.13.11a.69.69,0,0,1,0-1c.35-.36.71-.32,1.17.13A.73.73,0,0,1,39,50.5a.72.72,0,0,1,.1,1C38.65,51.94,38.28,51.91,37.82,51.36Z"/><path class="cls-3" d="M25.2,55.35a1.09,1.09,0,0,1-1-1,1.07,1.07,0,0,1,1-1.12,1.1,1.1,0,0,1,1.06,1A1.05,1.05,0,0,1,25.2,55.35Z"/><path class="cls-3" d="M20.92,35.34a1.06,1.06,0,0,1,0-2.11,1.06,1.06,0,0,1,0,2.11Z"/><path class="cls-3" d="M49.3,29.14a1.09,1.09,0,0,1-.21.39.48.48,0,0,0-.17.43.78.78,0,0,1-.63.76.82.82,0,0,1-.84-.45.73.73,0,0,1,.15-.9.48.48,0,0,0,.21-.43.71.71,0,0,1,.73-.7A.83.83,0,0,1,49.3,29.14Z"/><path class="cls-3" d="M35.74,16.22a1,1,0,0,1,.93-1,1.09,1.09,0,0,1,1.08,1,1,1,0,0,1-1.05,1A1,1,0,0,1,35.74,16.22Z"/><path class="cls-3" d="M51.33,31.11a.93.93,0,0,1-.9-.94,1.08,1.08,0,0,1,1-1,1,1,0,0,1,1,1A1,1,0,0,1,51.33,31.11Z"/><path class="cls-3" d="M16.28,27.59a1,1,0,0,1,0-2,1.07,1.07,0,0,1,1,1A1,1,0,0,1,16.28,27.59Z"/><path class="cls-3" d="M31.61,37.43a1,1,0,0,1-.95-1,1,1,0,0,1,.91-1,1.16,1.16,0,0,1,1,1A1,1,0,0,1,31.61,37.43Z"/><path class="cls-3" d="M20.85,17.08A1,1,0,0,1,19.92,16,1,1,0,0,1,21,15.12a1,1,0,0,1,.86,1A1,1,0,0,1,20.85,17.08Z"/><path class="cls-3" d="M24.34,32.38a1,1,0,0,1,.91-1,1.06,1.06,0,0,1,1,1,1,1,0,0,1-1,.95A1,1,0,0,1,24.34,32.38Z"/><path class="cls-3" d="M34.9,22.61a1,1,0,0,1-.94.95,1,1,0,0,1-1-1,1,1,0,1,1,1.9,0Z"/><path class="cls-3" d="M31.19,54a.9.9,0,0,1,.94.93,1,1,0,0,1-1,1,1,1,0,0,1-.91-1A.94.94,0,0,1,31.19,54Z"/><path class="cls-3" d="M38.47,32.32A.69.69,0,0,1,37.9,32a.41.41,0,0,0-.23-.13.7.7,0,0,1-.64-.43.72.72,0,0,1,.12-.82.74.74,0,0,1,1.12.11c.06.1.09.16.26.16a.68.68,0,0,1,.65.73A.74.74,0,0,1,38.47,32.32Z"/><path class="cls-3" d="M26.49,21a1,1,0,0,1,.81-.93,1.06,1.06,0,0,1,1.09.65A.81.81,0,0,1,28,21.8a.37.37,0,0,1-.3,0c-.2-.12-.31.12-.48.08A1,1,0,0,1,26.49,21Z"/><path class="cls-3" d="M25.07,16.38a.89.89,0,0,1,.9,1,.91.91,0,0,1-1,.87,1,1,0,0,1-.9-1A1,1,0,0,1,25.07,16.38Z"/><path class="cls-3" d="M22.64,15.21a.87.87,0,0,1,.83-.9,1,1,0,0,1,1,1,.93.93,0,0,1-.93.89A.92.92,0,0,1,22.64,15.21Z"/><path class="cls-3" d="M39.3,14.71a.94.94,0,0,1-.86-.89.91.91,0,0,1,.83-1,.92.92,0,0,1,1,.92A.94.94,0,0,1,39.3,14.71Z"/><path class="cls-3" d="M27.31,31.6a1,1,0,0,1-.92-.93.94.94,0,0,1,.87-.91,1,1,0,0,1,.94,1A.91.91,0,0,1,27.31,31.6Z"/><path class="cls-3" d="M38.27,54.93a.83.83,0,0,1-.88-.84.93.93,0,0,1,.82-1,.87.87,0,0,1,1,.85A.92.92,0,0,1,38.27,54.93Z"/><path class="cls-3" d="M36.56,49.1c0-.58.19-.92.61-.91a.69.69,0,0,1,.63.72c0,.41-.32.6-.86.55,0,.52-.2.85-.61.86a.59.59,0,0,1-.59-.61C35.75,49.31,36.09,49.06,36.56,49.1Z"/><path class="cls-3" d="M13.12,34.12a.91.91,0,0,1-.86.9,1,1,0,0,1-.94-.86.66.66,0,0,1,.5-.73l.29-.09A.75.75,0,0,1,13.12,34.12Z"/><path class="cls-3" d="M10.87,37.12a.89.89,0,0,1-.87-.89.9.9,0,0,1,1.79,0A.92.92,0,0,1,10.87,37.12Z"/><path class="cls-3" d="M14.14,18.61a.85.85,0,0,1-.85-.8,1.07,1.07,0,0,1,.94-1,.91.91,0,0,1,.8.92A.89.89,0,0,1,14.14,18.61Z"/><path class="cls-3" d="M12.33,31.26a.85.85,0,0,1-.84.87c-.4,0-.89-.38-.89-.68,0-.7.28-1.1.79-1.1A.93.93,0,0,1,12.33,31.26Z"/><path class="cls-3" d="M33.25,49.13a.68.68,0,0,1,.82-.66,1.12,1.12,0,0,0,.34,0,.65.65,0,0,1,.68.24.71.71,0,0,1,0,.82.61.61,0,0,1-.66.29.44.44,0,0,0-.26,0C33.74,50,33.23,49.6,33.25,49.13Z"/><path class="cls-3" d="M30.19,53.3a.83.83,0,0,1-.83-.84.92.92,0,0,1,.87-.86.86.86,0,0,1,.87.84A.91.91,0,0,1,30.19,53.3Z"/><path class="cls-3" d="M36.42,51.92a.87.87,0,0,1,.92.9,1,1,0,0,1-.85.81.88.88,0,0,1-.86-.92A.8.8,0,0,1,36.42,51.92Z"/><path class="cls-3" d="M34.15,29.57a.81.81,0,0,1,.85.81.88.88,0,0,1-.86.88.89.89,0,0,1-.83-.86A.83.83,0,0,1,34.15,29.57Z"/><path class="cls-3" d="M49.42,17.93a.79.79,0,0,1,.84.85.9.9,0,0,1-.87.82.94.94,0,0,1-.82-.84A.85.85,0,0,1,49.42,17.93Z"/><path class="cls-3" d="M42.24,14.76a.83.83,0,0,1-.81-.8.83.83,0,1,1,1.66,0A.88.88,0,0,1,42.24,14.76Z"/><path class="cls-3" d="M46,15.87a.76.76,0,0,1-.81.83.77.77,0,0,1-.79-.82.85.85,0,0,1,.82-.82A.71.71,0,0,1,46,15.87Z"/><path class="cls-3" d="M9.32,34.35a.85.85,0,0,1,.8-.87.81.81,0,0,1,.83.77.82.82,0,1,1-1.63.1Z"/><path class="cls-3" d="M46.71,30.51a.71.71,0,0,1-.43.58.63.63,0,0,0-.24.19.55.55,0,0,1-.67.24.77.77,0,0,1-.49-.69.65.65,0,0,1,.48-.57.43.43,0,0,0,.22-.12.59.59,0,0,1,.71-.24A.87.87,0,0,1,46.71,30.51Z"/><path class="cls-3" d="M33.19,27.71a.8.8,0,0,1,.82.76.87.87,0,0,1-.81.88c-.45,0-.76-.36-.78-.92A.84.84,0,0,1,33.19,27.71Z"/><path class="cls-3" d="M51.42,22.27a.88.88,0,0,1,.83-.82.91.91,0,0,1,.75.85.84.84,0,0,1-.8.81A.88.88,0,0,1,51.42,22.27Z"/><path class="cls-3" d="M39.91,30.48a6.56,6.56,0,0,1,.6.28.33.33,0,0,1,.15.25,4.19,4.19,0,0,1-.18,1,.52.52,0,0,1-.72.26.67.67,0,0,1-.38-.74.64.64,0,0,0,0-.38C39.2,30.87,39.52,30.49,39.91,30.48Z"/><path class="cls-3" d="M41.52,23A.78.78,0,0,1,40,23a.79.79,0,0,1,.76-.84A.83.83,0,0,1,41.52,23Z"/><path class="cls-3" d="M8.88,31.79a.8.8,0,1,1,0,1.61.78.78,0,0,1-.72-.84A.73.73,0,0,1,8.88,31.79Z"/><path class="cls-3" d="M50.48,20.35a.78.78,0,0,1,.79-.81.83.83,0,0,1,.73.87.74.74,0,0,1-.8.69A.73.73,0,0,1,50.48,20.35Z"/><path class="cls-3" d="M36.54,28a.79.79,0,0,1-.77.8A.84.84,0,0,1,35,28a.76.76,0,0,1,1.52,0Z"/><path class="cls-3" d="M45.81,19.74c.43,0,.88.36.85.72a.78.78,0,1,1-1.56,0A.77.77,0,0,1,45.81,19.74Z"/><path class="cls-3" d="M42.06,21.8a.72.72,0,0,1,.73-.75.74.74,0,0,1,.79.71.81.81,0,0,1-.75.82A.78.78,0,0,1,42.06,21.8Z"/><path class="cls-3" d="M37.48,25.33a.78.78,0,0,1-.73.77.76.76,0,0,1,0-1.51A.75.75,0,0,1,37.48,25.33Z"/><path class="cls-3" d="M45.79,25.39c.08-.14.18-.29.25-.44a.68.68,0,0,1,.63-.35.72.72,0,0,1,.55.62,1,1,0,0,1-.29.76.55.55,0,0,1-.66.19.57.57,0,0,1-.44-.52c0-.09,0-.18,0-.27Z"/><path class="cls-3" d="M37.09,41.38a.71.71,0,0,1,.66-.73.79.79,0,0,1,.82.78c0,.4-.34.68-.83.68A.76.76,0,0,1,37.09,41.38Z"/><path class="cls-3" d="M46.24,22.64a.72.72,0,0,1,.75-.71.71.71,0,0,1,.71.71.77.77,0,0,1-.74.74A.72.72,0,0,1,46.24,22.64Z"/><path class="cls-3" d="M38.21,24a.71.71,0,0,1-.7-.69.74.74,0,0,1,.72-.74.71.71,0,1,1,0,1.43Z"/><path class="cls-3" d="M48.18,23.32a.74.74,0,0,1,.69-.77.78.78,0,0,1,.76.66.81.81,0,0,1-.81.8A.67.67,0,0,1,48.18,23.32Z"/><path class="cls-3" d="M37.89,45.79a.69.69,0,0,1-.67-.69.7.7,0,0,1,.66-.7.72.72,0,0,1,.74.69A.75.75,0,0,1,37.89,45.79Z"/><path class="cls-3" d="M38.46,26.13a.74.74,0,0,1,.72.68.76.76,0,0,1-.71.7.67.67,0,0,1-.64-.65A.7.7,0,0,1,38.46,26.13Z"/><path class="cls-3" d="M45.8,25.39c0,.1-.07.2-.11.29a.56.56,0,0,1-.6.36.85.85,0,0,1-.56-.61A.61.61,0,0,1,45,24.7a.72.72,0,0,1,.7.45c0,.08,0,.16.06.24Z"/><path class="cls-3" d="M45.8,23.53a.62.62,0,1,1,0,1.25.7.7,0,0,1-.64-.64A.62.62,0,0,1,45.8,23.53Z"/><path class="cls-3" d="M34.8,47.51a.66.66,0,0,1-.64-.62.77.77,0,0,1,.65-.67.67.67,0,0,1,.63.67A.67.67,0,0,1,34.8,47.51Z"/><path class="cls-3" d="M38.56,47.84a.55.55,0,0,1-.59-.61.59.59,0,0,1,.6-.58.6.6,0,0,1,.6.59A.57.57,0,0,1,38.56,47.84Z"/><path class="cls-3" d="M50.33,29.72c-.12-.16-.27-.26-.26-.34a.36.36,0,0,1,.27-.22c.07,0,.21.15.22.25S50.44,29.57,50.33,29.72Z"/><path class="cls-3" d="M47.59,43.73l-.25.06-.19-.21.11-.23C47.34,43.51,47.81,43.3,47.59,43.73Z"/></g></g></svg>