<svg xmlns="http://www.w3.org/2000/svg" viewBox="0 0 121.99 52.81"><defs><style>.cls-1,.cls-2{fill:#333;}.cls-1{opacity:0.5;}.cls-3{fill:#ffed00;}.cls-4{fill:#d0b400;}.cls-5{fill:#f7cd00;}.cls-6{fill:#dadada;}.cls-7{fill:#b2b2b2;}.cls-8{fill:#ededed;}</style></defs><title>Asset 1</title><g id="Layer_2" data-name="Layer 2"><g id="Layer_4" data-name="Layer 4"><path class="cls-1" d="M61.08,16c2.37-1.4,9-4.78,13.57-5.25s9.45-.35,13.18-2.45a74.35,74.35,0,0,1,9.36-4.82,28,28,0,0,1,8.13-1.63c2.6-.19,6.21.14,8.82-.3a4.34,4.34,0,0,1,2.64.22,2.35,2.35,0,0,1,.92,3.15,4.91,4.91,0,0,1-1.86,2.3c-3.08,2.05-8.12,3.24-11.36,4.87s-4.13,4-5.54,7.12a27,27,0,0,1-5.53,7.63c-2.25,2.29-4.77,4.93-7.77,6.22-3.42,1.48-13.18.45-13.18.45L50.63,21.13S58.71,17.4,61.08,16Z"/><path class="cls-2" d="M116.78,1.77,120,.11a1,1,0,0,1,1.32.42l.58,1.12A1,1,0,0,1,121.46,3l-3.76,2A2.35,2.35,0,0,0,116.78,1.77Z"/><polygon class="cls-3" points="24.2 13.62 45.15 19 40.97 19.98 20.95 24.66 20.94 24.66 4.18 20.36 0 19.29 24.2 13.62"/><polygon class="cls-4" points="0 19.29 20.94 24.66 20.95 26.72 20.94 26.71 0 21.34 0 19.29"/><polygon class="cls-5" points="45.15 19 45.15 21.05 20.95 26.72 20.94 24.66 45.15 19"/><polygon class="cls-2" points="82.98 26.31 82.98 26.37 82.85 26.34 82.98 26.31"/><polygon class="cls-2" points="23.1 22.94 23.1 22.88 23.23 22.91 23.1 22.94"/><polygon class="cls-2" points="40.15 28.94 42.35 29.51 23.1 43.16 23.1 42.54 23.1 41.02 23.1 24.56 40.15 28.94"/><polygon class="cls-6" points="81.69 27.73 82.98 27.42 85.12 26.92 85.12 28.61 85.12 35.65 60.93 52.81 60.93 52.19 60.93 50.67 60.93 34.27 60.93 32.59 81.69 27.73"/><polygon class="cls-7" points="23.23 22.91 24.39 23.21 41.89 27.7 44.1 28.27 58.78 32.04 58.78 33.72 42.35 29.51 40.15 28.94 23.1 24.56 23.1 23.51 23.1 22.94 23.23 22.91"/><polygon class="cls-7" points="60.93 32.59 60.93 34.27 60.93 50.67 60.93 52.19 60.93 52.81 58.78 52.19 58.78 51.58 58.78 33.72 58.78 32.04 60.93 32.59"/><polygon class="cls-7" points="23.1 22.88 23.1 22.94 23.1 23.51 23.1 24.56 23.1 41.02 23.1 42.54 23.1 43.16 20.95 42.54 20.95 41.93 20.95 24.01 20.95 22.33 23.1 22.88"/><polygon class="cls-8" points="45.15 16.66 47.44 17.25 47.63 17.3 82.85 26.34 82.98 26.37 85.12 26.92 82.98 27.42 81.69 27.73 60.93 32.59 58.78 32.04 44.1 28.27 41.89 27.7 24.39 23.21 23.23 22.91 23.1 22.88 20.95 22.33 45.15 16.66"/><polygon class="cls-3" points="85.12 29.99 106.08 35.37 101.9 36.34 81.88 41.03 81.86 41.03 65.11 36.73 60.93 35.65 85.12 29.99"/><polygon class="cls-4" points="60.93 35.65 81.86 41.03 81.88 43.08 81.86 43.08 60.93 37.71 60.93 35.65"/><polygon class="cls-5" points="106.08 35.37 106.08 37.42 81.88 43.08 81.86 41.03 106.08 35.37"/><polygon class="cls-2" points="76.62 17.25 76.75 16.81 66.37 13.95 66.25 14.39 76.62 17.25"/><rect class="cls-2" x="70.6" y="12.34" width="0.46" height="8.5" transform="translate(35.98 80.45) rotate(-74.56)"/><rect class="cls-2" x="69.3" y="12.02" width="0.46" height="10.76" transform="translate(34.31 79.82) rotate(-74.61)"/><rect class="cls-2" x="65.75" y="16.34" width="7.08" height="0.46" transform="matrix(0.85, -0.53, 0.53, 0.85, 1.68, 39.01)"/><rect class="cls-2" x="68.55" y="16.33" width="7.13" height="0.46" transform="matrix(0.85, -0.53, 0.53, 0.85, 2.11, 40.51)"/><polygon class="cls-2" points="63.65 18.59 71.36 13.8 71.12 13.41 63.41 18.2 63.65 18.59"/><rect class="cls-2" x="69.5" y="16.86" width="9.2" height="0.46" transform="translate(2.13 41.63) rotate(-31.82)"/><polygon class="cls-2" points="96.16 18.53 96.28 18.08 87.18 15.57 87.06 16.02 96.16 18.53"/><polygon class="cls-2" points="94.62 19.13 94.74 18.68 87.55 16.7 87.43 17.14 94.62 19.13"/><polygon class="cls-2" points="94.43 20.1 94.56 19.66 85.45 17.15 85.33 17.59 94.43 20.1"/><rect class="cls-2" x="86.63" y="17.67" width="6.21" height="0.46" transform="translate(4.05 50.01) rotate(-31.83)"/><rect class="cls-2" x="89.09" y="17.66" width="6.26" height="0.46" transform="translate(4.42 51.3) rotate(-31.82)"/><rect class="cls-2" x="84.08" y="17.16" width="7.97" height="0.46" transform="translate(4.06 49.03) rotate(-31.81)"/><rect class="cls-2" x="89.92" y="18.12" width="8.07" height="0.46" transform="translate(4.44 52.28) rotate(-31.81)"/><rect class="cls-2" x="102.49" y="1.41" width="0.46" height="8.47" transform="translate(70.2 103.25) rotate(-74.72)"/><rect class="cls-2" x="101.97" y="3.08" width="0.46" height="6.69" transform="translate(68.79 103.22) rotate(-74.55)"/><rect class="cls-2" x="100.94" y="2.83" width="0.46" height="8.47" transform="matrix(0.27, -0.96, 0.96, 0.27, 67.31, 102.65)"/><rect class="cls-2" x="98.2" y="6.18" width="5.57" height="0.46" transform="translate(11.78 54.17) rotate(-31.79)"/><rect class="cls-2" x="100.41" y="6.17" width="5.61" height="0.46" transform="translate(12.13 55.37) rotate(-31.81)"/><rect class="cls-2" x="95.91" y="5.73" width="7.14" height="0.46" transform="translate(11.81 53.35) rotate(-31.82)"/><rect class="cls-2" x="101.15" y="6.58" width="7.24" height="0.46" transform="translate(12.15 56.26) rotate(-31.82)"/></g></g></svg>