<svg xmlns="http://www.w3.org/2000/svg" viewBox="0 0 42.22 42.22"><defs><style>.cls-1{fill:#005f67}.cls-2,.cls-3,.cls-4{fill:#fff}.cls-3,.cls-4{font-size:12.61px;font-family:MyriadPro-Bold,MyriadPro Bold;font-weight:700}.cls-4{font-size:7.55px;letter-spacing:.1em}.cls-5{letter-spacing:.12em}.cls-6{letter-spacing:.1em}</style></defs><g id="Layer_2" data-name="Layer 2"><g id="Layer_4" data-name="Layer 4"><circle class="cls-1" cx="21.11" cy="21.11" r="21.11"/><path class="cls-2" d="M34.8 21.69l-2-3.53-2.63 1.52 2 3.53a2 2 0 0 1-1.72 3h-7.33v-1.54l-5.25 3 5.25 3V29.2h7.33a5 5 0 0 0 4.35-7.51zM17 5.93l-2 3.53L17.59 11l2-3.53a2 2 0 0 1 3.44 0l3.67 6.36-1.32.76 5.25 3v-6.05l-1.31.76-3.63-6.37a5 5 0 0 0-8.69 0zM12.25 29.2h4.08v-3h-4.08a2 2 0 0 1-1.72-3l3.68-6.37 1.31.76v-6.05l-5.25 3 1.31.76-3.67 6.39a5 5 0 0 0 4.35 7.51z"/><text class="cls-3" transform="translate(17.92 22.37)">1</text><text class="cls-4" transform="translate(12.36 37.25)">P<tspan class="cls-5" x="4.77" y="0">E</tspan><tspan class="cls-6" x="9.37" y="0">TE</tspan></text></g></g></svg>