<svg xmlns="http://www.w3.org/2000/svg" viewBox="0 0 88.86 58.39"><defs><style>.cls-1{fill:#a8a8a7}</style></defs><g id="Layer_2" data-name="Layer 2"><g id="Layer_4" data-name="Layer 4"><path class="cls-1" d="M88.75 47.85l-2.5-8.11a2.47 2.47 0 0 0-3.09-1.63l-2.31.71-21.47 6.64a2.29 2.29 0 0 0-.54.29 2.44 2.44 0 0 0-1.1 2.79l2.51 8.11a2.47 2.47 0 0 0 3.09 1.63l23.78-7.35a2.47 2.47 0 0 0 1.63-3.08zm-29.98-4.38l21.16-6.54a61 61 0 0 0-64.45-34l6.79 22v.19a38.16 38.16 0 0 1 35.56 18.82 3.65 3.65 0 0 1 .94-.47zM20.29 25.52l-.08-.24-6.82-22.06-.46-1.48A2.47 2.47 0 0 0 9.85.11L1.74 2.62A2.47 2.47 0 0 0 .11 5.7l7.35 23.78a2.47 2.47 0 0 0 3.09 1.63l8.11-2.51a2.47 2.47 0 0 0 1.63-3.08z"/></g></g></svg>