<svg xmlns="http://www.w3.org/2000/svg" viewBox="0 0 88.86 58.39"><defs><style>.cls-1{fill:#a8a8a7;}</style></defs><title>Asset 20</title><g id="Layer_2" data-name="Layer 2"><g id="Layer_4" data-name="Layer 4"><path class="cls-1" d="M88.75,47.85l-2.5-8.11a2.47,2.47,0,0,0-3.09-1.63l-2.31.71L59.38,45.46a2.29,2.29,0,0,0-.54.29,2.44,2.44,0,0,0-1.1,2.79l2.51,8.11a2.47,2.47,0,0,0,3.09,1.63l23.78-7.35A2.47,2.47,0,0,0,88.75,47.85Z"/><path class="cls-1" d="M58.77,43.47l21.16-6.54a61,61,0,0,0-64.45-34l6.79,22c0,.06,0,.13,0,.19A38.16,38.16,0,0,1,57.83,43.94,3.65,3.65,0,0,1,58.77,43.47Z"/><path class="cls-1" d="M20.29,25.52l-.08-.24L13.39,3.22l-.46-1.48A2.47,2.47,0,0,0,9.85.11L1.74,2.62A2.47,2.47,0,0,0,.11,5.7L7.46,29.48a2.47,2.47,0,0,0,3.09,1.63l8.11-2.51A2.47,2.47,0,0,0,20.29,25.52Z"/></g></g></svg>