<svg xmlns="http://www.w3.org/2000/svg" viewBox="0 0 99.19 72.43"><defs><style>.cls-1{fill:#a8a8a7;fill-rule:evenodd;}</style></defs><title>Asset 19</title><g id="Layer_2" data-name="Layer 2"><g id="Layer_4" data-name="Layer 4"><path class="cls-1" d="M15.05,37.2a12.67,12.67,0,0,1,7.33-3.86c3-.61,6-1.27,9-2.15,2.68-.8,5.29-1.92,7.92-2.92a36.61,36.61,0,0,1,4.83-1.83c2.36-.53,3.6-1.89,4.95-3.29.89-.94,1.81-1.85,2.72-2.77A22.53,22.53,0,0,1,56,16.48a29,29,0,0,1,2.65-1.25l.51,1.07.18-.05.12-.55,5.3-2c.74-.28.84-.76.69-1.18-.37-1-.73-2.08-1.1-3.11s-.8-2.05-1.19-3.08c-.16-.42-.55-.72-1.29-.45l-5.3,2-.45-.33-.17.08.31,1.14a28.85,28.85,0,0,1-2.82.78,22.56,22.56,0,0,1-5.74-.22c-1.29-.11-2.58-.21-3.87-.33-1.93-.19-3.76-.41-5.9.72a36.68,36.68,0,0,1-4.86,1.76c-2.65,1-5.36,1.81-7.91,2.95-2.82,1.26-5.54,2.74-8.22,4.23a12.67,12.67,0,0,1-8.08,1.84A7.54,7.54,0,0,0,5.69,21,11.76,11.76,0,0,0,.46,24.66a2,2,0,0,0-.39,1.75,23,23,0,0,0,1.63,2.8,2,2,0,0,1,.25,1c0,.5-.63.8-.07,2.32l0,.08,0,.08c.56,1.51,1.23,1.33,1.56,1.71a2,2,0,0,1,.44.89,22.91,22.91,0,0,0,.59,3.19A2,2,0,0,0,6,39.51a11.75,11.75,0,0,0,6.34-.64A7.52,7.52,0,0,0,15.05,37.2Z"/><path class="cls-1" d="M73.72,8.12c-.51,3.62-2.39,6.34-5.21,8.79s-5.72,5-8.33,7.78c-2.37,2.5-4.41,5.34-6.57,8a39.79,39.79,0,0,1-4,5c-2.21,2-2.57,4.3-3,6.72-.29,1.61-.62,3.21-.93,4.81-.47,2.36-.64,4.87-1.74,7a31.94,31.94,0,0,1-2,3l-1.36-.94-.16.17.27.71c-1.49,1.83-2.94,3.6-4.39,5.39a1.15,1.15,0,0,0,.12,1.77l3.54,3,3.62,2.87a1.15,1.15,0,0,0,1.76-.24c1.46-1.77,2.9-3.56,4.39-5.39l.75.12.13-.19-1.2-1.14A31.57,31.57,0,0,1,52,62.73c1.86-1.5,4.28-2.19,6.49-3.12,1.51-.64,3-1.28,4.52-1.89,2.28-.92,4.46-1.73,6-4.3a39.46,39.46,0,0,1,4-4.89c2.2-2.67,4.56-5.24,6.53-8.07,2.17-3.12,4.08-6.43,5.93-9.73s4.11-5.65,7.55-6.89a8.33,8.33,0,0,0,3.11-2.47,13.17,13.17,0,0,0,3.05-7.3,2.82,2.82,0,0,0-.88-2.25,35.59,35.59,0,0,0-3.89-2.28,3.09,3.09,0,0,1-1-1c-.37-.58.09-1.3-1.65-2.72l-.09-.08-.09-.07c-1.74-1.42-2.36-.82-3-1.06a3.07,3.07,0,0,1-1.15-.78,36.3,36.3,0,0,0-3-3.35A2.83,2.83,0,0,0,82,.1a13.14,13.14,0,0,0-6.52,4.47A8.28,8.28,0,0,0,73.72,8.12Z"/></g></g></svg>