<svg xmlns="http://www.w3.org/2000/svg" viewBox="0 0 101.81 93.49"><defs><style>.cls-1{fill:#575756;fill-rule:evenodd;}</style></defs><title>Asset 25</title><g id="Layer_2" data-name="Layer 2"><g id="Layer_4" data-name="Layer 4"><path class="cls-1" d="M101.81,32.11c-.23,1.88-.64,3.21-.48,4.47a7.59,7.59,0,0,1-1,4.11c-.5,1.16-1.23,2.22-1.7,3.39A15.21,15.21,0,0,1,95,49.87,95.49,95.49,0,0,0,88.46,57c-1,1.15-1.77,2.52-2.82,3.62-1.9,2-3.88,3.93-5.93,5.77C77.88,68,75.8,69.33,74,71c-1,1-1.52,2.45-2.39,3.6a33.09,33.09,0,0,1-2.85,3.23,3.11,3.11,0,0,0-1.23,2.32,3.71,3.71,0,0,1-2,3,2.32,2.32,0,0,0-.91,3,3.74,3.74,0,0,1-.52,3.26c-1.22,2.09-3,2.67-5.17,3.31-4.28,1.26-8.42.63-12.64.1-3-.38-6.1-.71-8.9-2.07-2.08-1-4.12-2.14-6.12-3.32-3.07-1.81-6.07-3.72-9.11-5.58a34.63,34.63,0,0,1-10.24-8.81c-2.79-3.77-6-7.24-8.82-11a25.44,25.44,0,0,1-3-5.53,2.82,2.82,0,0,1,.56-2.41C2.55,52,4.56,50,6.65,48a10.55,10.55,0,0,1,2.93-1.69,2.91,2.91,0,0,0,1.88-2,46.5,46.5,0,0,1,3.17-7.2c2.52-4.81,5.09-9.61,7.82-14.31,2.85-4.9,5.31-10.12,9.49-14.06,2.16-2,4.84-3.54,7.26-5.31A5.86,5.86,0,0,0,41,1.8C42-.14,43.61-.29,45.41.31c2.65.88,5.27,1.83,7.89,2.79A4.58,4.58,0,0,1,56.43,7c.94,7.26,1.94,14.51,2.72,21.78a2.74,2.74,0,0,0,1.76,2.64c1.52.67,3,1.43,4.5,2.12,2.72,1.25,4,1,5.86-1.36a22.4,22.4,0,0,1,11.31-7.79c2-.61,4.25-.4,6.39-.56.24,0,.54,0,.72-.09,1.47-1,2.62-.16,3.82.58,1,.62,2.08,1.13,3.07,1.77a5.27,5.27,0,0,1,1.14,1.23c.51.66.91,1.4,1.46,2C100.13,30.44,101.17,31.45,101.81,32.11ZM86.39,43.26c2.22,1.6,2.67,1.57,4.33-.48.41-.51.78-1.07,1.15-1.61a32.35,32.35,0,0,1,5.8-6.77,1.8,1.8,0,0,0-.19-3C95.63,30,93.87,28.5,92.06,27c-.19-.15-.43-.36-.64-.36A3.41,3.41,0,0,0,88.6,29.1c-.79,3.48-1.75,6.88-3.87,9.84a1.57,1.57,0,0,0-.13,1.34C85.1,41.32,85.78,42.27,86.39,43.26ZM49.3,4.8c-.54,1.58-.81,3.37-1.71,4.75a94.66,94.66,0,0,1-6.08,8.1c-1.26,1.54-1.51,2.6-.31,4a56.59,56.59,0,0,1,12-14.32C52.3,5.46,51.24,4.48,49.3,4.8Z"/></g></g></svg>