<svg xmlns="http://www.w3.org/2000/svg" viewBox="0 0 64.49 64.5"><defs><style>.cls-1{fill:#fff;}.cls-2,.cls-3{fill:#005f67;}.cls-3{fill-rule:evenodd;}</style></defs><title>Asset 1</title><g id="Layer_2" data-name="Layer 2"><g id="Layer_4" data-name="Layer 4"><path class="cls-1" d="M32.25,0A32.22,32.22,0,0,0,.46,37.65q.15.87.34,1.72a32.24,32.24,0,0,0,62.83.26q.2-.84.35-1.69A32.21,32.21,0,0,0,32.25,0Z"/><path class="cls-2" d="M41.3,51.5c2.23.74,3.22,1.65,3.22,2.22s-1,1.48-3.22,2.22a29.7,29.7,0,0,1-9,1.25,29.7,29.7,0,0,1-9-1.25C21,55.2,20,54.29,20,53.72s1-1.48,3.22-2.22A25.61,25.61,0,0,1,29,50.39l-.92-1.82c-5.45.58-10,2.33-10,5.16,0,3.53,7.13,5.37,14.18,5.37s14.17-1.85,14.17-5.37c0-2.83-4.59-4.57-10-5.16l-.92,1.82A25.61,25.61,0,0,1,41.3,51.5Z"/><path class="cls-3" d="M44.27,11.28a15,15,0,0,0-24,0,14.48,14.48,0,0,0-2.91,11.45,19.1,19.1,0,0,0,2.07,5.69q5.45,10.73,10.91,21.46c.69,1.35,1.31,2.73,2,4.1.65-1.37,1.27-2.75,2-4.1q5.44-10.73,10.91-21.46a19.13,19.13,0,0,0,2.07-5.69A14.48,14.48,0,0,0,44.27,11.28Zm-12,19.33A10.14,10.14,0,1,1,42.3,20.41,10.14,10.14,0,0,1,32.25,30.61Z"/></g></g></svg>