<svg xmlns="http://www.w3.org/2000/svg" viewBox="0 0 132.63 136.59"><defs><style>.cls-1{fill:#fff;}.cls-2{fill:#097b35;}.cls-3{fill:#36a9e1;}.cls-4{fill:#662483;}.cls-5{fill:#312783;}.cls-6{fill:#3aaa35;}.cls-7{fill:#fcea10;}.cls-8{fill:#e94e1b;}.cls-9{fill:#e30613;}</style></defs><title>Asset 9</title><g id="Layer_2" data-name="Layer 2"><g id="Layer_2-2" data-name="Layer 2"><polygon class="cls-1" points="104.94 126.45 104.94 120.49 95.23 115.97 28.47 115.97 28.47 118.56 0 118.56 0 121.6 28.47 121.6 65.44 121.6 75.36 130.59 132.63 130.59 132.63 126.45 104.94 126.45"/><path class="cls-2" d="M75.37,130.59l-9.93-9H0l3.2,15H130.5a2.14,2.14,0,0,0,2.14-2.14v-3.82Z"/><polygon class="cls-1" points="5.41 115.31 54.18 5.52 54.18 102.62 5.41 115.31"/><polygon class="cls-1" points="57.49 0 57.49 98.43 86.84 33.1 57.49 0"/><polygon class="cls-1" points="86.84 41.93 54.62 111.45 86.84 111.45 86.84 41.93"/><polygon class="cls-1" points="89.66 111.45 89.66 3.09 119.9 111.45 89.66 111.45"/><path class="cls-3" d="M25.84,136.57s0,0,0,0S25.84,136.58,25.84,136.57Z"/><polygon class="cls-3" points="25.54 136.23 25.55 136.23 25.49 136.19 25.54 136.23"/><path class="cls-3" d="M25.26,135.9c0,.07.11.11.14.19v0h0A2,2,0,0,1,25.26,135.9Z"/><path class="cls-3" d="M25.2,135.63s0,0,0,0h0Z"/><path class="cls-3" d="M25.22,135.66s0,0,0,0Z"/><path class="cls-3" d="M25.08,135.51l.05,0s0-.07,0-.06S25.07,135.46,25.08,135.51Z"/><path class="cls-3" d="M25,135.5l0,0S25,135.5,25,135.5Z"/><path class="cls-3" d="M25.09,135.55l-.06,0s0,0,0,0S25.06,135.54,25.09,135.55Z"/><path class="cls-3" d="M25.11,135.59s0,.08,0,0S25.19,135.67,25.11,135.59Z"/><path class="cls-3" d="M25.21,135.92l0,0h0S25.21,135.91,25.21,135.92Z"/><path class="cls-3" d="M24.86,135.19s0,.05,0,.07l0,0S24.84,135.21,24.86,135.19Z"/><path class="cls-3" d="M24.83,135.26l-.07,0S24.82,135.28,24.83,135.26Z"/><polygon class="cls-3" points="24.94 135.56 25.05 135.6 24.93 135.54 24.94 135.56"/><polygon class="cls-3" points="24.69 134.99 24.74 134.99 24.65 134.99 24.69 134.99"/><path class="cls-3" d="M24.56,134.88s0-.08.05-.08a.2.2,0,0,0-.13,0S24.54,134.81,24.56,134.88Z"/><path class="cls-3" d="M24.41,134.76h0Z"/><path class="cls-3" d="M24.69,135.14a.1.1,0,0,0,0-.08l0,.06Z"/><path class="cls-3" d="M24.67,135.12h0l0,0Z"/><path class="cls-3" d="M24.7,135.15h0Z"/><path class="cls-3" d="M24.85,135.4s-.12,0-.09,0S24.78,135.38,24.85,135.4Z"/><path class="cls-3" d="M24.68,135.22l0,.06s0,0,0,0Z"/><polygon class="cls-3" points="24.64 135.21 24.68 135.22 24.66 135.2 24.64 135.21"/><path class="cls-3" d="M24.46,134.89a.16.16,0,0,1-.09,0,.42.42,0,0,0,.08.1S24.5,134.92,24.46,134.89Z"/><path class="cls-3" d="M24.56,135h0Z"/><polygon class="cls-3" points="24.1 134.58 24.1 134.59 24.11 134.58 24.1 134.58"/><path class="cls-3" d="M24.45,135a.06.06,0,0,0,.06,0l-.06,0S24.44,134.95,24.45,135Z"/><path class="cls-3" d="M24.32,134.71l0,.06S24.33,134.7,24.32,134.71Z"/><path class="cls-3" d="M24.56,135h0S24.56,135,24.56,135Z"/><path class="cls-3" d="M24.56,135h0l0,0Z"/><path class="cls-3" d="M23.76,134.84a.09.09,0,0,1,.15.05c.08,0,.16-.17.19-.3s0,0-.11,0,.07.16,0,.17,0-.06-.06-.12-.16,0-.21.12l.09,0S23.75,134.81,23.76,134.84Z"/><path class="cls-3" d="M24.19,134.69h0a.29.29,0,0,1,0-.13.09.09,0,0,0-.09,0l.1.11Z"/><path class="cls-3" d="M24.31,134.79c-.05,0-.12,0-.13.08s.08,0,.13,0c-.11-.08,0,0,0-.09l.06,0,0-.07h0s0,0,0,0h0s0,0,0,0h0l-.12-.07A.33.33,0,0,0,24.31,134.79Z"/><path class="cls-3" d="M24.64,135.47h0S24.63,135.46,24.64,135.47Z"/><path class="cls-3" d="M24.62,135.41s0,0,.05,0,0,0,0,0,.07,0,0,0h0a.24.24,0,0,1,0-.15A.38.38,0,0,0,24.62,135.41Z"/><path class="cls-3" d="M24.45,135.12l-.1-.05v.08l0,0C24.42,135.17,24.43,135.13,24.45,135.12Z"/><polygon class="cls-3" points="24.11 134.54 24.16 134.5 24.06 134.53 24.11 134.54"/><polygon class="cls-3" points="23.99 134.45 24.04 134.41 23.98 134.41 23.99 134.45"/><path class="cls-3" d="M16.28,131.6h0Z"/><path class="cls-3" d="M16.51,131.67v0S16.5,131.67,16.51,131.67Z"/><path class="cls-3" d="M20.94,132.43c0-.09,0-.22,0-.13l0,.09A.07.07,0,0,1,20.94,132.43Z"/><path class="cls-3" d="M18.46,131.94v0l.05-.05Z"/><path class="cls-3" d="M18.32,132.21l0-.07Z"/><path class="cls-3" d="M15,131.33l0,0C15,131.39,15,131.35,15,131.33Z"/><path class="cls-3" d="M22.78,133.52a.21.21,0,0,0-.06-.1C22.74,133.49,22.73,133.58,22.78,133.52Z"/><path class="cls-3" d="M16.54,131s0,0,0,0S16.54,131,16.54,131Z"/><path class="cls-3" d="M22.62,133.35v0a.18.18,0,0,1,.09,0C22.71,133.37,22.68,133.33,22.62,133.35Z"/><path class="cls-3" d="M10.41,130.55h0Z"/><path class="cls-3" d="M9,130.37H9Z"/><path class="cls-3" d="M23.55,134s0,0,0,0Z"/><path class="cls-3" d="M23.5,134.37l0,0Z"/><path class="cls-3" d="M22.07,133.64h0S22.07,133.66,22.07,133.64Z"/><path class="cls-3" d="M23.57,134.09l0,0Z"/><path class="cls-3" d="M23.59,134.06l0,0S23.62,134.07,23.59,134.06Z"/><path class="cls-3" d="M23.52,134l0,0s0,0,0,0Z"/><path class="cls-3" d="M12.92,130.74h0S12.9,130.75,12.92,130.74Z"/><polygon class="cls-3" points="19.83 132.9 19.83 132.9 19.83 132.9 19.83 132.9"/><path class="cls-3" d="M19.7,132.91c.08-.08.1-.05.13,0l.07-.24Z"/><path class="cls-3" d="M15.74,131.47l.06.07c-.11.06-.17,0-.12.11.05-.18.29.06.35-.12l0,.05h0c.07.12.1-.11.22-.05s.06.06,0,.08l.11,0s0,0,0,0l.15,0h0l.12-.07s0,0,0,0l.09,0c0,.06-.06.09-.11.07,0,.21.08,0,.21.13h-.08c0,.13.09.11.15.2s-.12-.23,0-.25,0,0,.11,0,0,.07.09.08l0,.09c.07,0,.08-.06.13-.09s.06.11.05.18,0-.14.1-.12.15.05.28,0,0,.05,0,.09l.08-.06s0,0,0,0,0-.09.12-.09.1.21.23.12,0,.06,0,.1a.76.76,0,0,0,.27-.09l.06.1c0-.1.08-.16.18-.2l0-.11h.14s0,.05-.05.09l0,0c0,.05,0,.1-.06.15l0-.08a.42.42,0,0,0-.12.17h0a.06.06,0,0,0,0,0s0,0,0,0l0,.12,0,0,.12.13c.15-.07.31-.21.5-.19-.08.07-.06.14-.11.24,0-.13-.15,0-.23-.07a.05.05,0,0,1,0,.09l.19,0c0,.08,0,.08,0,.13,0-.18.16-.06.24-.08s-.06.11-.13.06c0,.17.19-.15.23,0,0,0,0,0,0,0s.16.06.11.09h0c.12.07.37.17.46,0l-.12.2.45-.41c-.08.12-.15.47-.28.5A.1.1,0,0,0,20,133s0-.21.07-.21a.93.93,0,0,0,0,.27s.11-.24.16-.21a2,2,0,0,1-.12.22l.21-.15s-.09.17-.09.24.1.06.14.05l0-.07c.11.1.27-.23.4-.15,0,0-.17.25-.12.3.08-.09.39-.45.56-.47v.07l.13,0a5.79,5.79,0,0,1-.62.48c0,.07,0,.08.05.11s-.08.07-.11.06l.15.12c.06-.13.19-.06.24-.16h-.12l-.12,0c.06-.13.29-.3.4-.21s-.14.21-.16.25.16,0,.15,0l-.09,0c0,.08.2-.11.21.05s0,.2,0,.13a2.4,2.4,0,0,1,.35-.69,1.18,1.18,0,0,1,.07.3c0,.13-.21.22-.23.33a.22.22,0,0,1,.09-.07s-.07.09,0,.11.12.08.09-.08c.08,0,0,.06.12.1a.43.43,0,0,1,.3-.22.25.25,0,0,0,0,.1c.12.09.15.18.27.25s0,.1,0,.13.07,0,.11,0-.09,0-.11.12c0-.06.15,0,.22,0s-.1-.1-.18-.08a.46.46,0,0,1,.42-.21c.12,0,0,.12,0,.11.16.14.3-.12.38.08s-.11.16-.13.23-.08-.13-.14-.16l0,.08s-.11,0-.12,0,.29.21.38.37c0,0,.1,0,.1,0l0,0c0-.09.14,0,.11-.09s.2,0,.25.08l0,.09s0-.09-.05-.08,0,.2.15.13v-.1c.09,0,.21,0,.26.06,0-.1,0,0,0-.14,0,.15-.17-.15-.19,0,0-.15-.05-.12,0-.27,0,0,0,.07-.06,0l0,0h0s0,0,0,0a.13.13,0,0,1,0,.07c-.07,0-.16,0-.22,0s0,0,0-.07l-.08,0c0-.07,0-.18.09-.15l-.07-.06c0-.07-.07-.13-.12-.13s-.14,0-.07,0l-.15,0v0c-.11-.1-.31-.06-.37-.28a.22.22,0,0,1-.16-.08l0-.08c-.07,0-.12-.17-.18-.12.05-.22-.23-.21-.31-.29l-.05.09a.5.5,0,0,0-.24-.06l0,.09c-.11,0-.15-.16-.27-.21s0,0,.06,0c0-.26-.36,0-.41-.21,0,0-.06,0-.07,0h0l0-.06a.17.17,0,0,0,0,.06h-.11l0-.1h0s0,0-.06.1l-.07,0c0-.16-.12,0-.08-.17-.06.06-.21,0-.3.12,0,0,0,0,0,0s-.06-.07-.12,0l0-.12-.16.11c0-.09,0-.14.06-.2-.19.08-.13,0-.29.09l0-.07s-.14.05-.14,0-.43-.19-.61-.39c0,.21-.07-.12-.14,0,0,0,0-.09,0-.11-.13,0-.15-.13-.28,0s0-.06,0-.09-.05,0-.05,0,0,0,.06,0c-.12,0-.19.1-.24.22,0-.08-.07-.08-.14,0s0-.1.05-.09-.23-.15-.27,0-.06,0-.07,0a.87.87,0,0,0-.19-.07l0,0c-.07.11-.08,0-.16,0h0c-.14-.14-.09,0-.22-.13v.07c-.06.15-.12-.14-.24-.1l0,0c-.07,0-.09-.25-.14-.28s0,0,0,0,0,.09-.16.08.06-.12,0-.15-.25.1-.32,0c0,0,0,.08,0,.1s-.17-.19-.27-.09a0,0,0,0,1,0,0c-.07,0-.2,0-.25.06,0-.24-.39,0-.34-.18l-.18,0v0a.2.2,0,0,0-.21,0s0,0,0,0c-.16-.08-.18-.07-.34,0v-.06s-.23-.14-.4-.1a0,0,0,0,1,0,0c-.2,0-.42-.22-.53,0l-.13,0c.16,0,0,.08,0,.13s-.15-.09-.07-.08h0c0-.1-.19-.07-.18-.13-.31,0-.61-.13-.91-.16l0,.07h-.1s0-.06,0,0-.13,0-.13,0,.07-.07,0-.08h0c-.05,0-.06.05-.15,0s0,0,0,0h0l-.13,0,0,.05c-.06,0-.12,0-.07,0-.08-.1-.48-.06-.53-.09a.64.64,0,0,1-.26,0s0,.06,0,0-.15-.05-.22-.12-.24,0-.15.07c-.07,0,0,0-.05-.06s-.37,0-.58,0c0,0,0,0,0,0l-.11,0s0,.05-.11,0,0,0,0,0c-.41,0-.84,0-1.25,0,.06,0,0,0,0,0s0,0,0,0H8.92s-.19,0-.21,0h.06c-.07,0,.1,0,.09.06s.22,0,.35,0,0,0,0,0a.36.36,0,0,1,.15,0h0a4.91,4.91,0,0,1,.54,0l0,0,.09,0c.06,0-.14,0-.09,0s.36,0,.41.07,0,0,.06,0l0,0,0,0c.05,0,.08,0,.08,0h0a1.13,1.13,0,0,0,.21,0l-.08,0c.22,0,.48,0,.69,0v0c.16,0,.13,0,.3,0h0a.25.25,0,0,1,.13,0s.08,0,0,.06c.17,0,.09,0,.21-.07l0,0a.18.18,0,0,1,.13,0c-.07,0,.05,0,0,.08.18.09.28,0,.35.07.09-.08-.15-.07-.1-.08s.08-.06.13,0,.09.12.23.14h0c.05,0,.11,0,.17,0s.09,0,.11-.06h-.14c.08,0,.16-.09.28,0l-.08,0s.07,0,.11,0-.16,0-.25,0,.16,0,.11,0c.07-.09.14,0,.25,0v0a.17.17,0,0,1,.08,0l-.06.05c.09,0,.15.07.23.06-.16,0,0-.06-.09-.11.21,0,.1.14.32.16,0,0-.11-.05-.06-.06a.29.29,0,0,1,.11.08c.15,0,0-.06.05-.07s.08,0,.14,0V131c.16.07.06-.1.21,0L14,131H14l0,.06a.21.21,0,0,1,.19,0s0-.1.1-.08,0,0,.07.06-.06.07-.1,0l0,0s.13,0,.17,0l0,0,.16,0s0,0,0,.05.06,0,.1,0,0,.09-.09.1l.15,0s.06.07,0,.09.21,0,.31,0l0,0c.1,0,.17.12.3.08l0,.11c.09,0-.06-.14.09-.13s0,.09.05.12.18-.1.26,0S15.77,131.47,15.74,131.47Zm1.12.28s-.08,0-.08,0S16.82,131.71,16.85,131.74Zm1.71.4s0,0-.06,0A.07.07,0,0,1,18.56,132.15Zm4.68,1.73h0C23.22,133.82,23.22,133.84,23.24,133.88Zm.06.1s0,0,0,0,0,0-.06,0S23.27,134,23.31,134Zm-10.68-3.56h0S12.61,130.42,12.63,130.41Z"/><path class="cls-3" d="M18.34,132.18a.12.12,0,0,1,0,0A0,0,0,0,0,18.34,132.18Z"/><path class="cls-3" d="M15,131.32h0Z"/><path class="cls-3" d="M21.52,133.77a.11.11,0,0,1,0-.06A0,0,0,0,0,21.52,133.77Z"/><path class="cls-3" d="M23.83,134.22l-.06,0a.08.08,0,0,1,0,.06S23.81,134.21,23.83,134.22Z"/><path class="cls-3" d="M24,135h0l0,0S24,134.93,24,135Z"/><path class="cls-3" d="M23.72,134.47c0,.06,0,.07.06.09h0C23.83,134.49,23.78,134.48,23.72,134.47Z"/><path class="cls-3" d="M23.79,134.56l0,0S23.81,134.57,23.79,134.56Z"/><path class="cls-3" d="M23.44,134s.06-.07.06,0S23.32,134,23.44,134Z"/><polygon class="cls-3" points="23.62 134.67 23.65 134.59 23.59 134.63 23.62 134.67"/><path class="cls-3" d="M23.36,134.4l0,.06h0S23.37,134.38,23.36,134.4Z"/><path class="cls-3" d="M23.44,134.45a.08.08,0,0,0,.06,0Z"/><polygon class="cls-3" points="23.52 134.63 23.52 134.6 23.48 134.56 23.52 134.63"/><path class="cls-3" d="M22.71,133.92l-.08,0s0,.05,0,.06S22.7,134,22.71,133.92Z"/><path class="cls-3" d="M22.77,134.27a.17.17,0,0,1,0-.08l-.07.1Z"/><path class="cls-3" d="M22.55,134.17s-.15,0-.06.06S22.6,134.23,22.55,134.17Z"/><polygon class="cls-3" points="21.58 133.41 21.6 133.41 21.7 133.23 21.58 133.41"/><path class="cls-3" d="M20.4,133.35c.06.09.08-.11.13,0s0-.08,0-.11S20.44,133.22,20.4,133.35Z"/><path class="cls-3" d="M20.53,133.23h0Z"/><polygon class="cls-3" points="8.81 130.37 8.74 130.37 8.78 130.38 8.81 130.37"/><path class="cls-3" d="M8.69,130.4h0l0,0Z"/><path class="cls-3" d="M17,132v0s0,0,0,0Z"/><polygon class="cls-3" points="16.19 131.67 16.2 131.67 16.2 131.58 16.19 131.67"/><path class="cls-3" d="M15.49,131.57h.09C15.52,131.58,15.51,131.48,15.49,131.57Z"/><path class="cls-4" d="M26.5,136.06s0,0,0,0S26.5,136.06,26.5,136.06Z"/><polygon class="cls-4" points="26.19 135.71 26.2 135.71 26.15 135.68 26.19 135.71"/><path class="cls-4" d="M25.92,135.38c0,.07.11.11.15.19v0h0A1.8,1.8,0,0,1,25.92,135.38Z"/><path class="cls-4" d="M25.85,135.11s0,0,0,0h0Z"/><path class="cls-4" d="M25.88,135.15s0,0,0,0Z"/><path class="cls-4" d="M25.73,135l.05,0s0-.07,0-.06S25.73,134.95,25.73,135Z"/><path class="cls-4" d="M25.66,135h0S25.68,135,25.66,135Z"/><path class="cls-4" d="M25.75,135l-.06,0s0,0,0,0S25.72,135,25.75,135Z"/><path class="cls-4" d="M25.76,135.07s0,.08,0,0S25.85,135.16,25.76,135.07Z"/><path class="cls-4" d="M25.86,135.41l0,0h0S25.87,135.39,25.86,135.41Z"/><path class="cls-4" d="M25.51,134.67s0,.05,0,.07l0,0S25.5,134.69,25.51,134.67Z"/><path class="cls-4" d="M25.48,134.74l-.06,0S25.47,134.76,25.48,134.74Z"/><polygon class="cls-4" points="25.6 135.04 25.71 135.08 25.58 135.03 25.6 135.04"/><polygon class="cls-4" points="25.34 134.48 25.4 134.47 25.31 134.47 25.34 134.48"/><path class="cls-4" d="M25.22,134.36s0-.08,0-.07a.21.21,0,0,0-.13,0A.14.14,0,0,1,25.22,134.36Z"/><path class="cls-4" d="M25.07,134.24h0Z"/><path class="cls-4" d="M25.35,134.63a.09.09,0,0,0,0-.08l0,.06Z"/><path class="cls-4" d="M25.33,134.61h0l0,0Z"/><path class="cls-4" d="M25.35,134.63h0Z"/><path class="cls-4" d="M25.51,134.88s-.12,0-.09,0S25.44,134.87,25.51,134.88Z"/><path class="cls-4" d="M25.33,134.7l0,.06s0,0,0,0Z"/><polygon class="cls-4" points="25.3 134.69 25.33 134.7 25.32 134.68 25.3 134.69"/><path class="cls-4" d="M25.12,134.37a.17.17,0,0,1-.09,0l.08.1S25.15,134.4,25.12,134.37Z"/><path class="cls-4" d="M25.22,134.49h0Z"/><path class="cls-4" d="M24.76,134.06h0Z"/><path class="cls-4" d="M25.1,134.44a.05.05,0,0,0,.06,0l-.06,0S25.09,134.43,25.1,134.44Z"/><path class="cls-4" d="M25,134.19l0,.06S25,134.18,25,134.19Z"/><path class="cls-4" d="M25.21,134.47h0S25.22,134.46,25.21,134.47Z"/><path class="cls-4" d="M25.21,134.47h-.05l0,0Z"/><path class="cls-4" d="M24.41,134.32a.09.09,0,0,1,.15.05c.08,0,.16-.17.19-.3s0,0-.11,0,.07.16,0,.17,0-.07-.06-.12-.16,0-.21.12l.09,0S24.41,134.3,24.41,134.32Z"/><path class="cls-4" d="M24.85,134.17h0a.27.27,0,0,1,0-.13c-.05,0-.07,0-.09,0l.1.11Z"/><path class="cls-4" d="M25,134.28c-.05,0-.12,0-.13.08s.08,0,.13,0c-.11-.08.05,0,0-.09l.06,0,0-.07h0s0,0,0,0h0s0,0,0,0h0l-.12-.07A.34.34,0,0,0,25,134.28Z"/><path class="cls-4" d="M25.29,135h0S25.28,134.94,25.29,135Z"/><path class="cls-4" d="M25.27,134.89s0,0,.05,0,0,0,0,0,.07,0,0,0h0c0-.05,0-.15,0-.15A.33.33,0,0,0,25.27,134.89Z"/><path class="cls-4" d="M25.11,134.6l-.1-.05v.08l0,0C25.07,134.65,25.08,134.61,25.11,134.6Z"/><polygon class="cls-4" points="24.77 134.03 24.82 133.98 24.71 134.02 24.77 134.03"/><polygon class="cls-4" points="24.65 133.94 24.69 133.89 24.64 133.89 24.65 133.94"/><path class="cls-4" d="M16.94,131.08h0Z"/><path class="cls-4" d="M17.16,131.15v0S17.16,131.15,17.16,131.15Z"/><path class="cls-4" d="M21.6,131.91c0-.09,0-.22,0-.13l0,.09A.07.07,0,0,1,21.6,131.91Z"/><path class="cls-4" d="M19.11,131.42v0l.05-.05Z"/><path class="cls-4" d="M19,131.69l0-.07Z"/><path class="cls-4" d="M15.68,130.81l0,0C15.69,130.87,15.67,130.84,15.68,130.81Z"/><path class="cls-4" d="M23.44,133a.21.21,0,0,0-.06-.1C23.39,133,23.39,133.06,23.44,133Z"/><path class="cls-4" d="M17.2,130.47s0,0,0,0S17.2,130.49,17.2,130.47Z"/><path class="cls-4" d="M23.27,132.84v0a.15.15,0,0,1,.09,0C23.37,132.85,23.34,132.81,23.27,132.84Z"/><path class="cls-4" d="M11.07,130h0Z"/><path class="cls-4" d="M9.69,129.85h0Z"/><path class="cls-4" d="M24.21,133.52s0,0,0,0Z"/><path class="cls-4" d="M24.16,133.85l0,0Z"/><path class="cls-4" d="M22.73,133.13h0S22.73,133.14,22.73,133.13Z"/><path class="cls-4" d="M24.23,133.58l0,0Z"/><path class="cls-4" d="M24.24,133.54l0,0S24.27,133.55,24.24,133.54Z"/><path class="cls-4" d="M24.18,133.49l0,0s0,0,0,0Z"/><path class="cls-4" d="M13.58,130.23h0S13.55,130.23,13.58,130.23Z"/><polygon class="cls-4" points="20.48 132.39 20.49 132.38 20.48 132.38 20.48 132.39"/><path class="cls-4" d="M20.36,132.39c.08-.08.1-.05.13,0l.07-.24Z"/><path class="cls-4" d="M16.39,131l.06.07c-.11.06-.17,0-.12.1.05-.18.29.06.35-.12l0,.05h0c.07.12.1-.11.22-.05s.06.06,0,.08l.11,0s0,0,0,0l.15,0h0l.12-.07s0,0,0,0l.09,0c0,.06-.06.09-.11.07,0,.21.08,0,.21.13h-.08c0,.13.09.11.15.2s-.12-.23,0-.25a.08.08,0,0,0,.11,0c0,.07,0,.07.09.08l0,.09c.07,0,.08-.06.13-.09s.06.11.05.18,0-.14.1-.12.15.05.28,0,0,.05,0,.09l.08-.06s0,0,0,0,0-.09.12-.09.1.21.23.12,0,.06,0,.1a.78.78,0,0,0,.27-.09l.06.1c0-.1.08-.16.18-.2a.84.84,0,0,0,0-.1h.14s0,.05-.05.09l0,0c0,.05,0,.1-.06.15l0-.08a.41.41,0,0,0-.12.17h0a.07.07,0,0,0,0,0s0,0,0,0l0,.12,0,0,.12.13c.15-.07.31-.21.5-.19-.08.07-.06.14-.11.24,0-.13-.15,0-.23-.07s0,.07,0,.09l.19,0c0,.08,0,.08,0,.13,0-.18.16-.06.24-.08s-.06.11-.13.06c0,.16.19-.15.23,0,0,0,0,0,0,0s.16.05.11.09h0c.12.07.37.17.46,0l-.12.2.45-.41c-.08.12-.15.47-.28.5a.1.1,0,0,0,.13.05s0-.21.07-.21a.89.89,0,0,0,0,.27s.11-.24.16-.21a1.85,1.85,0,0,1-.12.22l.21-.15s-.09.17-.09.24.1.06.14.05l0-.07c.11.1.27-.23.4-.15,0,0-.17.25-.12.31.08-.09.39-.45.56-.47v.07l.13,0a5.54,5.54,0,0,1-.62.48c0,.07,0,.08.05.11s-.08.07-.11.06l.15.12c.06-.13.19-.06.24-.16h-.12l-.12,0c.06-.13.29-.3.4-.21s-.14.21-.16.25.16,0,.15,0l-.09,0c0,.08.2-.1.21.05s0,.2,0,.13a2.4,2.4,0,0,1,.35-.69,1.15,1.15,0,0,1,.07.3c0,.13-.21.22-.23.33a.2.2,0,0,1,.09-.07s-.07.1,0,.11.12.08.09-.09c.08,0,0,.06.12.1a.44.44,0,0,1,.3-.22.25.25,0,0,0,0,.1c.12.08.15.18.27.25s0,.1,0,.13.07,0,.11,0-.09,0-.11.11c0-.06.15,0,.22,0s-.1-.1-.18-.08a.46.46,0,0,1,.43-.21c.11,0,0,.11,0,.11.16.14.3-.12.38.08s-.11.16-.13.23-.08-.13-.13-.16l0,.08s-.11,0-.12,0,.29.21.38.37c0,0,.1,0,.1,0l0,0c0-.09.14,0,.11-.09s.2,0,.25.08l0,.09s0-.09-.05-.08,0,.2.15.12v-.1c.09,0,.22,0,.26.06,0-.1,0,0,0-.13,0,.15-.17-.15-.19,0,0-.15-.05-.12,0-.27,0,0,0,.07-.06,0h0s0,0,0,0a.14.14,0,0,1,0,.07c-.07,0-.16,0-.22,0s0,0,0-.07l-.08,0c0-.07,0-.18.09-.15l-.07-.06c0-.07-.07-.13-.12-.13s-.14,0-.07,0l-.15,0v0c-.11-.1-.32-.06-.37-.28a.22.22,0,0,1-.16-.08l0-.07c-.06,0-.12-.17-.18-.12.05-.22-.23-.21-.31-.29l-.05.09a.48.48,0,0,0-.24-.06l0,.08c-.11,0-.15-.16-.27-.21s0,0,.06,0c0-.26-.36,0-.41-.21a.05.05,0,0,1-.07,0h0l0-.07a.18.18,0,0,0,0,.06.25.25,0,0,0-.11,0l0-.1h0s0,0-.06.11l-.07,0c0-.16-.12,0-.08-.17-.06.06-.21,0-.3.12,0,0,0,0,0,0s-.06-.07-.12,0l0-.12-.16.11c0-.09,0-.14.06-.2-.19.08-.13,0-.29.09l0-.07s-.14.05-.14,0-.43-.18-.61-.39c0,.21-.07-.12-.14,0,0,0,0-.09,0-.11-.13,0-.15-.13-.28,0s0-.06,0-.09-.05,0-.05,0,0,0,.06,0c-.12,0-.19.1-.24.22,0-.08-.07-.08-.14,0s0-.1.05-.09-.23-.15-.27,0-.06,0-.07,0a.76.76,0,0,0-.19-.07l0,0c-.08.11-.09,0-.16,0h0c-.14-.14-.09,0-.22-.13V131c-.06.15-.12-.14-.24-.1l0,0c-.07,0-.09-.25-.14-.28s0,0,0,0,0,.09-.16.08.06-.12,0-.15-.25.1-.33,0c0,0,0,.08,0,.1s-.17-.19-.27-.09a.05.05,0,0,1,0,0c-.07,0-.2,0-.25.05,0-.24-.39,0-.34-.18l-.18,0v0a.2.2,0,0,0-.21,0s0,0,0,0c-.16-.07-.18-.06-.34,0v-.06s-.22-.14-.4-.1l0,0c-.2,0-.42-.22-.53,0l-.13,0c.16,0,0,.08,0,.13s-.15-.09-.07-.08h0c0-.1-.19-.07-.18-.13-.31,0-.61-.13-.91-.16l0,.07-.1,0s0-.06,0,0-.13,0-.13,0,.07-.07,0-.08h0c-.05,0-.06,0-.15,0s0,0,0,0h0l-.13,0,0,.05c-.06,0-.12,0-.07,0-.08-.1-.48-.07-.53-.1a.62.62,0,0,1-.26,0s0,.06,0,0-.15-.05-.22-.12-.24,0-.15.07c-.07,0,0,0-.05-.06s-.37,0-.58,0c0,0,0,0,0,0l-.11,0s0,.05-.11,0,0,0,0,0c-.41,0-.84,0-1.25,0,.06,0,0,0,0,0s0,0,0,0H9.58s-.19,0-.2,0h.06c-.07,0,.1,0,.09.06s.22,0,.35,0,0,0,0,0a.35.35,0,0,1,.15,0h0a4.86,4.86,0,0,1,.54,0l0,0,.09,0c.06,0-.14,0-.09,0s.36,0,.41.07,0,0,.06,0l0,0,0,0c.05,0,.08,0,.08,0h0a1,1,0,0,0,.21,0l-.08,0c.22,0,.48,0,.69,0l0,0c.16,0,.13,0,.3,0h0a.26.26,0,0,1,.13,0s.08,0,0,.06c.17,0,.09,0,.21-.07l0,0a.19.19,0,0,1,.13,0c-.07,0,.05.05,0,.07.18.09.28,0,.35.08.09-.08-.15-.07-.1-.08s.08-.06.13,0,.09.13.23.15h0c.05,0,.11,0,.17,0s.09,0,.11-.06h-.13c.08,0,.16-.09.28,0a.18.18,0,0,1-.08,0s.07,0,.11,0-.16,0-.25,0,.16,0,.11,0c.07-.09.14,0,.25,0v0a.17.17,0,0,1,.08,0l-.06.05c.09,0,.15.07.23.06-.16,0,0-.06-.09-.11.21,0,.1.14.32.16,0,0-.11-.05-.06-.06a.32.32,0,0,1,.11.08c.15,0,0-.06.05-.07s.08,0,.14,0v.05c.16.06.06-.1.21,0l-.08.06h.08l0,.06a.21.21,0,0,1,.2,0s0-.1.1-.08,0,0,.07.06-.06.07-.1,0l0,0s.13,0,.17,0l0,0,.16,0s0,0,0,.05.06,0,.1,0,0,.09-.09.1l.15,0s.06.07,0,.09.21,0,.31,0l0,0c.1,0,.17.12.3.08l0,.11c.09,0-.06-.14.09-.13s0,.09.05.12.18-.1.26,0S16.43,131,16.39,131Zm1.12.28s-.08,0-.08,0S17.48,131.19,17.51,131.23Zm1.71.4s0,0-.06,0A.07.07,0,0,1,19.22,131.63Zm4.68,1.73h0C23.87,133.3,23.88,133.32,23.9,133.36Zm.07.09a0,0,0,0,0,0,0s0,0-.06,0S23.93,133.45,24,133.46Zm-10.68-3.56h0S13.27,129.91,13.29,129.89Z"/><path class="cls-4" d="M19,131.66a.13.13,0,0,1,0,0A0,0,0,0,0,19,131.66Z"/><polygon class="cls-4" points="15.69 130.8 15.69 130.8 15.68 130.81 15.69 130.8"/><path class="cls-4" d="M22.18,133.25a.1.1,0,0,1,0-.06A0,0,0,0,0,22.18,133.25Z"/><path class="cls-4" d="M24.48,133.7l-.06,0a.08.08,0,0,1,0,.06S24.47,133.69,24.48,133.7Z"/><path class="cls-4" d="M24.65,134.45h0l0,0S24.63,134.41,24.65,134.45Z"/><path class="cls-4" d="M24.38,134c0,.06,0,.06.06.08h0C24.49,134,24.43,134,24.38,134Z"/><path class="cls-4" d="M24.44,134l0,0S24.47,134.05,24.44,134Z"/><path class="cls-4" d="M24.1,133.5s.06-.06.06,0S24,133.46,24.1,133.5Z"/><polygon class="cls-4" points="24.28 134.15 24.31 134.08 24.25 134.11 24.28 134.15"/><path class="cls-4" d="M24,133.88l0,.07s0,0,0,0S24,133.86,24,133.88Z"/><path class="cls-4" d="M24.09,133.93a.07.07,0,0,0,.06,0Z"/><polygon class="cls-4" points="24.18 134.11 24.17 134.08 24.13 134.05 24.18 134.11"/><path class="cls-4" d="M23.36,133.4l-.08,0s0,.05,0,.06S23.35,133.43,23.36,133.4Z"/><path class="cls-4" d="M23.43,133.75a.15.15,0,0,1,0-.08l-.07.1Z"/><path class="cls-4" d="M23.21,133.65s-.15,0-.06.07S23.26,133.71,23.21,133.65Z"/><polygon class="cls-4" points="22.24 132.89 22.26 132.9 22.36 132.71 22.24 132.89"/><path class="cls-4" d="M21.06,132.83c.06.09.08-.11.13,0s0-.08,0-.11S21.1,132.7,21.06,132.83Z"/><path class="cls-4" d="M21.19,132.72h0Z"/><polygon class="cls-4" points="9.46 129.85 9.4 129.86 9.44 129.86 9.46 129.85"/><path class="cls-4" d="M9.34,129.88h0l0,0Z"/><path class="cls-4" d="M17.62,131.47v0s0,0,0,0Z"/><polygon class="cls-4" points="16.84 131.15 16.86 131.16 16.85 131.07 16.84 131.15"/><path class="cls-4" d="M16.15,131.06h.09C16.18,131.07,16.16,131,16.15,131.06Z"/><path class="cls-5" d="M26.77,135.32s0,0,0,0S26.77,135.32,26.77,135.32Z"/><polygon class="cls-5" points="26.46 134.98 26.48 134.98 26.42 134.94 26.46 134.98"/><path class="cls-5" d="M26.19,134.64c0,.07.11.11.15.18v0h0A1.72,1.72,0,0,1,26.19,134.64Z"/><path class="cls-5" d="M26.12,134.38s0,0,0,0h0Z"/><path class="cls-5" d="M26.15,134.41s0,0,0,0Z"/><path class="cls-5" d="M26,134.26l.05,0s0-.07,0-.06S26,134.21,26,134.26Z"/><path class="cls-5" d="M25.93,134.25l0,0S26,134.25,25.93,134.25Z"/><path class="cls-5" d="M26,134.3l-.06,0s0,0,0,0S26,134.29,26,134.3Z"/><path class="cls-5" d="M26,134.34s0,.08,0,0S26.12,134.42,26,134.34Z"/><path class="cls-5" d="M26.13,134.67l0,0h0S26.14,134.66,26.13,134.67Z"/><path class="cls-5" d="M25.78,133.94s0,.05,0,.07l0,0S25.77,134,25.78,133.94Z"/><path class="cls-5" d="M25.75,134l-.06,0S25.74,134,25.75,134Z"/><polygon class="cls-5" points="25.87 134.3 25.98 134.34 25.85 134.29 25.87 134.3"/><polygon class="cls-5" points="25.61 133.74 25.66 133.74 25.57 133.74 25.61 133.74"/><path class="cls-5" d="M25.49,133.62s0-.08.05-.07a.2.2,0,0,0-.13,0S25.47,133.56,25.49,133.62Z"/><path class="cls-5" d="M25.34,133.51h0Z"/><path class="cls-5" d="M25.62,133.89a.1.1,0,0,0,0-.08l0,.06Z"/><path class="cls-5" d="M25.6,133.87h0l0,0Z"/><path class="cls-5" d="M25.62,133.89h0S25.62,133.9,25.62,133.89Z"/><path class="cls-5" d="M25.78,134.15s-.12,0-.09,0S25.71,134.13,25.78,134.15Z"/><path class="cls-5" d="M25.6,134l0,.06s0,0,0,0Z"/><polygon class="cls-5" points="25.57 133.95 25.6 133.97 25.59 133.94 25.57 133.95"/><path class="cls-5" d="M25.39,133.64a.17.17,0,0,1-.09,0l.08.1S25.42,133.66,25.39,133.64Z"/><path class="cls-5" d="M25.49,133.75h0Z"/><polygon class="cls-5" points="25.03 133.33 25.02 133.34 25.03 133.33 25.03 133.33"/><path class="cls-5" d="M25.37,133.7a.05.05,0,0,0,.06,0l-.06,0S25.36,133.7,25.37,133.7Z"/><path class="cls-5" d="M25.25,133.45a.35.35,0,0,0,0,.06S25.26,133.45,25.25,133.45Z"/><path class="cls-5" d="M25.48,133.73h0S25.49,133.72,25.48,133.73Z"/><path class="cls-5" d="M25.48,133.73h-.05l0,0Z"/><path class="cls-5" d="M24.68,133.59a.09.09,0,0,1,.15.05c.08,0,.16-.17.19-.3s0,0-.11,0,.07.16,0,.17,0-.07-.06-.12-.16,0-.21.12l.09,0S24.67,133.56,24.68,133.59Z"/><path class="cls-5" d="M25.12,133.44h0a.29.29,0,0,1,0-.13.09.09,0,0,0-.09,0l.1.11Z"/><path class="cls-5" d="M25.24,133.54c-.05,0-.12,0-.13.09s.08,0,.13,0c-.11-.08,0,0,0-.09l.06,0,0-.07h0s0,0,0,0h0s0,0,0,0h0l-.12-.07A.37.37,0,0,0,25.24,133.54Z"/><path class="cls-5" d="M25.56,134.21h0S25.55,134.2,25.56,134.21Z"/><path class="cls-5" d="M25.54,134.16s0,0,0,0,0,0,0,0,.07,0,0,0h0a.23.23,0,0,1,0-.15A.36.36,0,0,0,25.54,134.16Z"/><path class="cls-5" d="M25.37,133.87l-.1-.05v.08l0,0S25.35,133.88,25.37,133.87Z"/><polygon class="cls-5" points="25.04 133.29 25.09 133.25 24.98 133.28 25.04 133.29"/><polygon class="cls-5" points="24.92 133.2 24.96 133.16 24.91 133.16 24.92 133.2"/><path class="cls-5" d="M17.21,130.35h0Z"/><path class="cls-5" d="M17.43,130.42v0S17.42,130.42,17.43,130.42Z"/><path class="cls-5" d="M21.87,131.17c0-.09,0-.22,0-.13l0,.09A.07.07,0,0,1,21.87,131.17Z"/><path class="cls-5" d="M19.38,130.69v0l.05-.05Z"/><path class="cls-5" d="M19.25,131l0-.07Z"/><path class="cls-5" d="M16,130.08l0,0C16,130.13,15.94,130.1,16,130.08Z"/><path class="cls-5" d="M23.71,132.27a.2.2,0,0,0-.06-.1C23.66,132.24,23.66,132.32,23.71,132.27Z"/><path class="cls-5" d="M17.47,129.74s0,0,0,0S17.47,129.75,17.47,129.74Z"/><path class="cls-5" d="M23.54,132.1v0a.15.15,0,0,1,.09,0C23.63,132.12,23.61,132.07,23.54,132.1Z"/><path class="cls-5" d="M11.34,129.3h0Z"/><path class="cls-5" d="M10,129.12h0Z"/><path class="cls-5" d="M24.48,132.78s0,0,0,0Z"/><path class="cls-5" d="M24.43,133.12l0,0Z"/><path class="cls-5" d="M23,132.39h0S23,132.41,23,132.39Z"/><path class="cls-5" d="M24.5,132.84l0,0Z"/><path class="cls-5" d="M24.51,132.81l0,0S24.54,132.82,24.51,132.81Z"/><path class="cls-5" d="M24.45,132.76l0,0s0,0,0,0Z"/><path class="cls-5" d="M13.85,129.49h0S13.82,129.5,13.85,129.49Z"/><polygon class="cls-5" points="20.75 131.65 20.76 131.65 20.75 131.64 20.75 131.65"/><path class="cls-5" d="M20.63,131.66c.08-.08.1-.05.13,0l.07-.24Z"/><path class="cls-5" d="M16.66,130.21l.06.07c-.11.06-.17,0-.12.1.05-.18.29.06.35-.12l0,.05h0c.07.12.1-.11.22-.05s.06.06,0,.08l.11,0s0,0,0,0l.15,0h0l.12-.07s0,0,0,0l.09,0c0,.06-.06.09-.11.06,0,.22.08,0,.21.14h-.08c0,.13.09.11.15.2s-.12-.23,0-.25,0,0,.11,0,0,.07.09.08l0,.09c.07,0,.08-.06.13-.09s.06.11.05.18,0-.14.09-.12.16.05.28,0,0,.05,0,.09l.08-.06s0,0,0,0,0-.09.12-.1.1.21.23.12,0,.06,0,.1a.76.76,0,0,0,.27-.09l.06.1c0-.1.08-.16.18-.2l0-.1h.14s0,.05-.05.09l0,0c0,.05,0,.1-.07.15l0-.08a.41.41,0,0,0-.12.17h0a.07.07,0,0,0,0,0s0,0,0,0V131l0,0,.12.13c.15-.07.31-.21.5-.19-.08.07-.06.14-.11.24,0-.13-.15,0-.23-.07a.05.05,0,0,1,0,.09l.19,0c0,.08,0,.08,0,.13,0-.18.16-.06.24-.08s-.06.11-.13.06c0,.16.19-.15.23,0,0,0,0,0,0,0s.16.05.11.1h0c.12.07.37.17.46,0l-.12.2.45-.41c-.08.12-.15.47-.28.5a.1.1,0,0,0,.13.05s0-.21.07-.21a1,1,0,0,0,0,.27s.11-.23.16-.21a1.85,1.85,0,0,1-.12.22l.21-.15s-.09.17-.09.24.1.06.14.05l0-.07c.11.1.27-.23.4-.15,0,0-.17.25-.12.31.08-.09.39-.45.56-.47v.07l.13,0a5.66,5.66,0,0,1-.62.48c0,.07,0,.08.05.11s-.08.07-.11.06l.15.12c.06-.13.19-.06.24-.16h-.12l-.12,0c.06-.13.29-.3.4-.21s-.14.21-.16.25.16,0,.15,0l-.09,0c0,.08.2-.1.21.06s0,.2,0,.13a2.4,2.4,0,0,1,.35-.68,1,1,0,0,1,.07.3c0,.13-.21.22-.23.33a.21.21,0,0,1,.09-.07s-.07.1,0,.11.12.08.09-.09c.08,0,0,.06.12.1a.43.43,0,0,1,.3-.22.23.23,0,0,0,0,.1c.12.09.15.18.27.25s0,.1,0,.13.07,0,.11,0-.09,0-.11.12c0-.06.15,0,.22,0s-.1-.1-.18-.09a.45.45,0,0,1,.42-.21c.12,0,0,.11,0,.11s.3-.12.38.08-.11.16-.13.23-.08-.13-.13-.16l0,.08s-.11,0-.12,0c0,.11.29.21.38.37,0,0,.1,0,.1,0l0,0c0-.09.14,0,.11-.09s.2,0,.25.08l0,.09s0-.09-.05-.08,0,.2.15.13v-.1c.08,0,.22,0,.26.06,0-.1,0,0,0-.14,0,.15-.17-.15-.19,0,0-.15-.05-.12,0-.27,0,0,0,.07-.06,0h0s0,0,0,0a.13.13,0,0,1,0,.07c-.07,0-.16,0-.22,0s0,0,0-.07l-.08,0c0-.07,0-.18.09-.15l-.07-.06c0-.07-.07-.13-.12-.13s-.14,0-.07,0l-.15,0v0c-.11-.1-.32-.06-.37-.28a.22.22,0,0,1-.16-.08l0-.07c-.07,0-.12-.17-.18-.12.05-.22-.23-.21-.31-.29l-.05.09a.51.51,0,0,0-.24-.06l0,.08c-.11,0-.15-.16-.27-.21s0,0,.06,0c0-.26-.36,0-.41-.21,0,0-.06,0-.08,0h0l0-.06a.17.17,0,0,0,0,.06.24.24,0,0,0-.11,0l0-.1h0s0,0-.06.1l-.07,0c0-.16-.12,0-.08-.17-.06.06-.21,0-.3.12,0,0,0,0,0,0s-.06-.07-.12,0l0-.12-.16.11c0-.09,0-.14.06-.2-.19.08-.13,0-.29.09l0-.07s-.14.05-.14,0-.43-.19-.61-.39c0,.21-.07-.12-.14,0,0,0,0-.09,0-.11-.13,0-.15-.13-.28,0s0-.06,0-.09-.05,0-.05,0,0,0,.06,0c-.12,0-.19.1-.24.22,0-.08-.07-.08-.15,0s0-.1.05-.09-.23-.15-.27,0-.06,0-.07,0a.88.88,0,0,0-.19-.07l0,0c-.08.11-.09,0-.16,0h0c-.14-.14-.08,0-.22-.13v.07c-.06.15-.12-.14-.24-.1l0,0c-.07,0-.09-.25-.14-.28s0,0,0,0,0,.09-.16.08.06-.12,0-.15-.25.1-.32,0c0,0,0,.08,0,.1s-.17-.19-.27-.09a.05.05,0,0,1,0,0c-.07,0-.2,0-.25.06,0-.24-.39,0-.34-.18l-.18,0v0a.2.2,0,0,0-.21,0s0,0,0,0a.3.3,0,0,0-.34,0v-.06s-.22-.14-.4-.1a0,0,0,0,1,0,0c-.2,0-.42-.22-.53,0l-.13,0c.15,0,0,.08,0,.13s-.15-.09-.07-.08h0c0-.1-.19-.07-.18-.13-.31,0-.61-.13-.91-.16l0,.07-.1,0s0-.06,0,0-.13,0-.13,0,.07-.07,0-.08h0c-.05,0-.06.05-.15,0s0,0,0,0h0l-.13,0,0,.06c-.06,0-.12,0-.07,0-.08-.1-.48-.07-.53-.1a.63.63,0,0,1-.26,0s0,.06,0,0-.15,0-.22-.12-.24,0-.15.07c-.07,0,0,0-.06-.05s-.37,0-.58,0c0,0,0,0,0,0l-.11,0s0,.05-.11,0,0,0,0,0c-.41,0-.84,0-1.25,0,.06,0,0,0,0,0s0,0,0,0H9.85s-.19,0-.2,0H9.7c-.07,0,.1,0,.09.06s.22,0,.35,0,0,0,0,0a.37.37,0,0,1,.15,0h0a4.42,4.42,0,0,1,.54,0l0,0,.09,0c.06,0-.14,0-.09,0s.36,0,.41.07,0,0,.06,0l0,0,0,0c.05,0,.08,0,.08,0h0a1.11,1.11,0,0,0,.21,0l-.07,0c.21,0,.48,0,.69,0l0,0c.16,0,.13,0,.3,0h0a.3.3,0,0,1,.13,0s.08,0,0,.06c.17,0,.09,0,.21-.07l0,0a.18.18,0,0,1,.13,0c-.07,0,.05.05,0,.08.18.09.28,0,.35.07.09-.08-.15-.07-.1-.08s.08-.06.13,0,.09.12.23.14h0c.05,0,.11,0,.17,0s.09,0,.11-.06h-.14c.08,0,.16-.09.28,0l-.08,0s.07,0,.11,0-.17,0-.25,0,.16,0,.11,0c.07-.09.14,0,.25,0v0a.17.17,0,0,1,.08,0l-.06.05c.09,0,.15.07.23.06-.16,0,0-.06-.09-.11.21,0,.09.14.32.16,0,0-.11-.05-.06-.06a.28.28,0,0,1,.11.08c.15,0,0-.06.05-.07s.08,0,.14,0v.05c.16.06.06-.1.21,0l-.08.06H15l0,.06a.22.22,0,0,1,.2,0s0-.1.1-.08,0,0,.07.06-.06.07-.1,0l0,0s.13,0,.17,0l0,0,.16,0s0,0,0,.05.06,0,.1,0,0,.09-.09.1l.15,0s.06.07,0,.09.21,0,.31,0l0,0c.09,0,.17.12.3.08l0,.11c.09,0-.06-.14.09-.13s0,.09.05.12.18-.1.26,0S16.69,130.21,16.66,130.21Zm1.12.28s-.08,0-.08,0S17.75,130.46,17.78,130.49Zm1.71.4s0,0-.06,0A.08.08,0,0,1,19.49,130.89Zm4.68,1.73h0C24.14,132.57,24.15,132.59,24.17,132.62Zm.06.09a0,0,0,0,0,0,0s0,0-.06,0S24.2,132.72,24.23,132.72Zm-10.68-3.56h0S13.54,129.17,13.55,129.16Z"/><path class="cls-5" d="M19.27,130.93a.12.12,0,0,1,0,0A0,0,0,0,0,19.27,130.93Z"/><polygon class="cls-5" points="15.96 130.07 15.96 130.06 15.95 130.08 15.96 130.07"/><path class="cls-5" d="M22.45,132.52a.11.11,0,0,1,0-.06A0,0,0,0,0,22.45,132.52Z"/><path class="cls-5" d="M24.75,133l-.06,0s0,0,0,.06S24.74,133,24.75,133Z"/><path class="cls-5" d="M24.92,133.71h0l0,0S24.9,133.68,24.92,133.71Z"/><path class="cls-5" d="M24.64,133.22c0,.06,0,.06.06.08h0C24.76,133.23,24.7,133.22,24.64,133.22Z"/><path class="cls-5" d="M24.71,133.31l0,0S24.74,133.32,24.71,133.31Z"/><path class="cls-5" d="M24.37,132.76s.06-.07.06,0S24.24,132.72,24.37,132.76Z"/><polygon class="cls-5" points="24.55 133.41 24.58 133.34 24.52 133.38 24.55 133.41"/><path class="cls-5" d="M24.28,133.14l0,.07a0,0,0,0,1,0,0S24.3,133.12,24.28,133.14Z"/><path class="cls-5" d="M24.36,133.2a.08.08,0,0,0,.06,0Z"/><polygon class="cls-5" points="24.45 133.38 24.44 133.35 24.4 133.31 24.45 133.38"/><path class="cls-5" d="M23.63,132.67l-.08,0s0,.05,0,.06S23.63,132.7,23.63,132.67Z"/><path class="cls-5" d="M23.7,133a.15.15,0,0,1,0-.08l-.07.09Z"/><path class="cls-5" d="M23.48,132.91s-.15,0-.06.06S23.53,133,23.48,132.91Z"/><polygon class="cls-5" points="22.51 132.15 22.53 132.16 22.63 131.98 22.51 132.15"/><path class="cls-5" d="M21.33,132.1c.06.09.08-.11.13,0s0-.08,0-.11S21.37,132,21.33,132.1Z"/><path class="cls-5" d="M21.45,132h0Z"/><polygon class="cls-5" points="9.73 129.12 9.67 129.12 9.71 129.13 9.73 129.12"/><path class="cls-5" d="M9.61,129.15h0l0,0Z"/><path class="cls-5" d="M17.88,130.73v0s0,0,0,0Z"/><polygon class="cls-5" points="17.11 130.41 17.13 130.42 17.12 130.33 17.11 130.41"/><path class="cls-5" d="M16.42,130.32h.09C16.45,130.33,16.43,130.22,16.42,130.32Z"/><path class="cls-6" d="M26.77,134.56s0,0,0,0S26.77,134.57,26.77,134.56Z"/><polygon class="cls-6" points="26.46 134.22 26.48 134.22 26.42 134.18 26.46 134.22"/><path class="cls-6" d="M26.19,133.89c0,.07.11.11.15.19v0h0A1.8,1.8,0,0,1,26.19,133.89Z"/><path class="cls-6" d="M26.12,133.62s0,0,0,0h0Z"/><path class="cls-6" d="M26.15,133.65s0,0,0,0Z"/><path class="cls-6" d="M26,133.5l.05,0s0-.07,0-.06S26,133.46,26,133.5Z"/><path class="cls-6" d="M25.93,133.5h0S26,133.5,25.93,133.5Z"/><path class="cls-6" d="M26,133.55l-.06,0s0,0,0,0S26,133.54,26,133.55Z"/><path class="cls-6" d="M26,133.58s0,.08,0,0S26.12,133.67,26,133.58Z"/><path class="cls-6" d="M26.13,133.91l0,0,0,0S26.14,133.9,26.13,133.91Z"/><path class="cls-6" d="M25.78,133.18s0,.05,0,.07l0,0S25.77,133.2,25.78,133.18Z"/><path class="cls-6" d="M25.75,133.25l-.06,0S25.74,133.27,25.75,133.25Z"/><polygon class="cls-6" points="25.87 133.55 25.98 133.59 25.85 133.53 25.87 133.55"/><polygon class="cls-6" points="25.61 132.99 25.66 132.98 25.57 132.98 25.61 132.99"/><path class="cls-6" d="M25.49,132.87s0-.08.05-.08a.22.22,0,0,0-.13,0A.14.14,0,0,1,25.49,132.87Z"/><path class="cls-6" d="M25.34,132.75h0Z"/><path class="cls-6" d="M25.62,133.13a.1.1,0,0,0,0-.08l0,.06Z"/><path class="cls-6" d="M25.6,133.12h0l0,0Z"/><path class="cls-6" d="M25.62,133.14h0S25.62,133.14,25.62,133.14Z"/><path class="cls-6" d="M25.78,133.39s-.12,0-.09,0S25.71,133.38,25.78,133.39Z"/><path class="cls-6" d="M25.6,133.21l0,.06s0,0,0,0Z"/><polygon class="cls-6" points="25.57 133.2 25.6 133.21 25.59 133.19 25.57 133.2"/><path class="cls-6" d="M25.39,132.88a.18.18,0,0,1-.09,0l.08.1S25.42,132.91,25.39,132.88Z"/><path class="cls-6" d="M25.49,133h0Z"/><polygon class="cls-6" points="25.03 132.57 25.02 132.59 25.03 132.58 25.03 132.57"/><path class="cls-6" d="M25.37,132.94a.05.05,0,0,0,.06,0l-.06,0S25.36,132.94,25.37,132.94Z"/><path class="cls-6" d="M25.25,132.7a.45.45,0,0,0,0,.07S25.26,132.69,25.25,132.7Z"/><path class="cls-6" d="M25.48,133h0S25.49,133,25.48,133Z"/><path class="cls-6" d="M25.48,133h-.05l0,0Z"/><path class="cls-6" d="M24.68,132.83a.09.09,0,0,1,.15.05c.08,0,.16-.17.19-.3s0,0-.11,0,.07.16,0,.16,0-.06-.06-.12-.16,0-.21.12l.09,0S24.67,132.81,24.68,132.83Z"/><path class="cls-6" d="M25.12,132.68h0a.28.28,0,0,1,0-.13c-.05,0-.07,0-.09,0l.1.11Z"/><path class="cls-6" d="M25.24,132.79c-.05,0-.12,0-.13.09s.08,0,.13,0c-.11-.08,0,0,0-.09l.06,0,0-.07h0s0,0,0,0h0s0,0,0,0h0l-.12-.07A.35.35,0,0,0,25.24,132.79Z"/><path class="cls-6" d="M25.56,133.46h0S25.55,133.45,25.56,133.46Z"/><path class="cls-6" d="M25.54,133.4s0,0,0,0,0,0,0,0,.07,0,0,0h0s0-.15,0-.15A.36.36,0,0,0,25.54,133.4Z"/><path class="cls-6" d="M25.37,133.11l-.1-.05v.08l0,0C25.34,133.16,25.35,133.12,25.37,133.11Z"/><polygon class="cls-6" points="25.04 132.54 25.09 132.49 24.98 132.53 25.04 132.54"/><polygon class="cls-6" points="24.92 132.44 24.96 132.4 24.91 132.4 24.92 132.44"/><path class="cls-6" d="M17.21,129.59h0Z"/><path class="cls-6" d="M17.43,129.66v0S17.42,129.66,17.43,129.66Z"/><path class="cls-6" d="M21.87,130.42c0-.09,0-.22,0-.13l0,.09A.07.07,0,0,1,21.87,130.42Z"/><path class="cls-6" d="M19.38,129.93v0l.05-.05Z"/><path class="cls-6" d="M19.25,130.2l0-.07Z"/><path class="cls-6" d="M16,129.32l0,0C16,129.38,15.94,129.35,16,129.32Z"/><path class="cls-6" d="M23.71,131.52a.2.2,0,0,0-.06-.1C23.66,131.48,23.66,131.57,23.71,131.52Z"/><path class="cls-6" d="M17.47,129s0,0,0,0S17.47,129,17.47,129Z"/><path class="cls-6" d="M23.54,131.34v0a.15.15,0,0,1,.09,0C23.63,131.36,23.61,131.32,23.54,131.34Z"/><path class="cls-6" d="M11.34,128.55h0Z"/><path class="cls-6" d="M10,128.36h0Z"/><path class="cls-6" d="M24.48,132s0,0,0,0Z"/><path class="cls-6" d="M24.43,132.36l0,0Z"/><path class="cls-6" d="M23,131.64h0S23,131.65,23,131.64Z"/><path class="cls-6" d="M24.5,132.09l0,0Z"/><path class="cls-6" d="M24.51,132.05l0,0S24.54,132.06,24.51,132.05Z"/><path class="cls-6" d="M24.45,132l0,0s0,0,0,0Z"/><path class="cls-6" d="M13.85,128.74h0S13.82,128.74,13.85,128.74Z"/><polygon class="cls-6" points="20.75 130.9 20.76 130.89 20.75 130.89 20.75 130.9"/><path class="cls-6" d="M20.63,130.91c.08-.08.1-.05.13,0l.07-.24Z"/><path class="cls-6" d="M16.66,129.46l.06.07c-.11.06-.17,0-.12.1.05-.17.29.06.35-.12l0,.05h0c.07.12.1-.11.22-.05s.06.06,0,.08l.11,0s0,0,0,0l.15,0h0l.12-.07s0,0,0,0l.09,0c0,.06-.06.09-.11.07,0,.21.08,0,.21.13h-.08c0,.13.09.11.15.2s-.12-.23,0-.25a.08.08,0,0,0,.11,0c0,.07,0,.07.09.08l0,.09c.07,0,.08-.05.13-.08s.06.11.05.18,0-.14.09-.12.16.05.28,0,0,.05,0,.09l.08-.06s0,0,0,0,0-.09.12-.1.1.21.23.12,0,.06,0,.1a.72.72,0,0,0,.27-.09l.06.1c0-.1.08-.16.18-.2l0-.1h.14s0,.05-.05.09l0,0c0,.05,0,.1-.07.15l0-.08a.42.42,0,0,0-.12.17h0a.07.07,0,0,0,0,0s0,0,0,0v.12l0,0,.12.13c.15-.07.31-.21.5-.19-.08.07-.06.14-.11.24,0-.13-.15,0-.23-.07a.05.05,0,0,1,0,.08l.19,0c0,.08,0,.08,0,.13,0-.18.16-.06.24-.08s-.06.11-.13.06c0,.16.19-.15.23,0s0,0,0,0,.16.05.11.09h0c.12.07.37.17.46,0l-.12.2.45-.41c-.08.12-.15.47-.28.5a.1.1,0,0,0,.13.06s0-.21.07-.21a1,1,0,0,0,0,.27s.11-.24.16-.21-.09.21-.12.22l.21-.15s-.09.17-.09.24.1.06.14.05l0-.07c.11.1.27-.22.4-.15,0,0-.17.24-.12.3.08-.09.39-.45.56-.47v.07l.13,0a5.57,5.57,0,0,1-.62.48c0,.07,0,.08.05.11s-.08.07-.11.06l.15.12c.06-.13.19-.06.24-.16h-.12l-.12,0c.06-.13.29-.3.4-.21s-.14.21-.16.25.16,0,.15,0l-.09,0c0,.08.2-.11.21.05s0,.2,0,.13a2.43,2.43,0,0,1,.35-.69,1.07,1.07,0,0,1,.07.3c0,.13-.21.22-.23.33a.21.21,0,0,1,.09-.07s-.07.09,0,.11.12.08.09-.09c.08,0,0,.06.12.1a.45.45,0,0,1,.3-.22.24.24,0,0,0,0,.1c.12.09.15.18.27.25s0,.1,0,.13.07,0,.11,0-.09,0-.11.12c0-.06.15,0,.22,0s-.1-.1-.18-.08a.45.45,0,0,1,.42-.21c.12,0,0,.11,0,.11.16.14.3-.12.38.08s-.11.16-.13.23-.08-.13-.13-.16l0,.08s-.11,0-.12,0,.29.21.38.37c0,0,.1,0,.1,0l0,0c0-.09.14,0,.11-.09s.2,0,.25.08l0,.09s0-.09-.05-.08,0,.2.15.13v-.1c.08,0,.22,0,.26.06,0-.1,0,0,0-.13,0,.15-.17-.15-.19,0,0-.15-.05-.12,0-.27,0,0,0,.07-.06,0h0s0,0,0,0a.13.13,0,0,1,0,.07c-.07,0-.16,0-.22,0s0,0,0-.07l-.08,0c0-.07,0-.18.09-.15l-.07-.06c0-.07-.07-.13-.12-.13s-.14,0-.07,0l-.15,0v0c-.11-.1-.32-.06-.37-.28a.23.23,0,0,1-.16-.08l0-.08c-.07,0-.12-.17-.18-.12.05-.22-.23-.21-.31-.29l-.05.09a.5.5,0,0,0-.24-.06l0,.08c-.11,0-.15-.16-.27-.21s0,0,.06,0c0-.26-.36,0-.41-.21a.05.05,0,0,1-.08,0h0l0-.07a.17.17,0,0,0,0,.06.27.27,0,0,0-.11,0l0-.1h0s0,0-.06.1l-.07,0c0-.16-.12,0-.08-.17-.06.06-.21,0-.3.12,0,0,0,0,0,0s-.06-.07-.12,0l0-.12-.16.11c0-.09,0-.14.06-.2-.19.08-.13,0-.29.09l0-.07s-.14.05-.14,0-.43-.18-.61-.39c0,.21-.07-.12-.14,0,0,0,0-.09,0-.11-.13,0-.15-.13-.28,0s0-.06,0-.09-.05,0-.05,0,0,0,.06,0c-.12,0-.19.1-.24.22,0-.08-.07-.08-.15,0s0-.1.05-.09-.23-.15-.27,0-.06,0-.07,0a.87.87,0,0,0-.19-.07l0,0c-.08.11-.09,0-.16,0h0c-.14-.14-.08,0-.22-.13v.08c-.06.15-.12-.14-.24-.11l0,.05c-.07,0-.09-.25-.14-.28s0,0,0,0,0,.09-.16.08.06-.12,0-.15-.25.1-.32,0c0,0,0,.09,0,.1s-.17-.19-.27-.09a0,0,0,0,1,0,0c-.07,0-.2,0-.25.05,0-.24-.39,0-.34-.18l-.18,0v0a.2.2,0,0,0-.21,0s0,0,0,0a.3.3,0,0,0-.34,0v-.06s-.22-.14-.4-.1l0,0c-.2,0-.42-.22-.53,0l-.13,0c.15,0,0,.08,0,.13s-.15-.08-.07-.08h0c0-.1-.19-.06-.18-.13-.31,0-.61-.13-.91-.16l0,.07h-.1s0-.06,0,0-.13,0-.13,0,.07-.07,0-.08h0c-.05,0-.06.05-.15,0s0,0,0,0h0l-.13,0,0,.05c-.06,0-.12,0-.07,0-.08-.1-.48-.07-.53-.1a.61.61,0,0,1-.26,0s0,.06,0,0-.15-.05-.22-.12-.24,0-.15.07c-.07,0,0,0-.06-.06s-.37,0-.58,0c0,0,0,0,0,0l-.11-.05s0,.05-.11,0,0,0,0,0c-.41,0-.84,0-1.25,0,.06,0,0,0,0,0s0,0,0,0H9.85s-.19,0-.2,0H9.7c-.07,0,.1,0,.09.06s.22,0,.35,0,0,0,0,0a.34.34,0,0,1,.15,0h0a4.85,4.85,0,0,1,.54,0l0,0,.09,0c.06,0-.14,0-.09,0s.36,0,.41.07,0,0,.06,0l0,0,0,0c.05,0,.08,0,.08,0h0a1.23,1.23,0,0,0,.21,0l-.07,0c.21,0,.48,0,.69,0l0,0c.16,0,.13,0,.3,0h0a.27.27,0,0,1,.13,0s.08,0,0,.06c.17,0,.09,0,.21-.07l0,0a.19.19,0,0,1,.13,0c-.07,0,.05.05,0,.08.18.09.28,0,.35.07.09-.08-.15-.07-.1-.08s.08-.06.13,0,.09.13.23.15h0c.05,0,.11,0,.17,0s.09,0,.11-.06h-.14c.08,0,.16-.09.28,0l-.08,0s.07,0,.11,0-.17,0-.25,0,.16,0,.11,0c.07-.09.14,0,.25,0v0a.18.18,0,0,1,.08,0l-.06.05c.09,0,.15.07.23.06-.16,0,0-.06-.09-.11.21,0,.09.14.32.16,0,0-.11,0-.06-.06a.29.29,0,0,1,.11.08c.15,0,0-.06.05-.07s.08,0,.14,0V129c.16.06.06-.1.21,0l-.08.06H15l0,.06a.21.21,0,0,1,.2,0s0-.09.1-.08,0,0,.07.06-.06.07-.1,0l0,0s.13,0,.17,0l0,0,.16,0s0,0,0,.05.06,0,.1,0,0,.09-.09.1l.15,0s.06.07,0,.09.21,0,.31,0l0,0c.09,0,.17.11.3.08l0,.11c.09,0-.06-.14.09-.13s0,.09.05.12.18-.1.26,0S16.69,129.46,16.66,129.46Zm1.12.28s-.08,0-.08,0S17.75,129.7,17.78,129.74Zm1.71.4s0,0-.06,0A.08.08,0,0,1,19.49,130.14Zm4.68,1.73h0C24.14,131.81,24.15,131.83,24.17,131.87Zm.06.1a0,0,0,0,0,0,0s0,0-.06,0S24.2,132,24.23,132ZM13.55,128.4h0S13.54,128.42,13.55,128.4Z"/><path class="cls-6" d="M19.27,130.17a.12.12,0,0,1,0,0A0,0,0,0,0,19.27,130.17Z"/><polygon class="cls-6" points="15.96 129.31 15.96 129.31 15.95 129.32 15.96 129.31"/><path class="cls-6" d="M22.45,131.76a.11.11,0,0,1,0-.06A0,0,0,0,0,22.45,131.76Z"/><path class="cls-6" d="M24.75,132.21l-.06,0s0,0,0,.06S24.74,132.2,24.75,132.21Z"/><path class="cls-6" d="M24.92,133h0l0,0S24.9,132.92,24.92,133Z"/><path class="cls-6" d="M24.64,132.46c0,.06,0,.07.06.08h0C24.76,132.48,24.7,132.47,24.64,132.46Z"/><path class="cls-6" d="M24.71,132.55l0,0S24.74,132.56,24.71,132.55Z"/><path class="cls-6" d="M24.37,132s.06-.07.06,0S24.24,132,24.37,132Z"/><polygon class="cls-6" points="24.55 132.66 24.58 132.59 24.52 132.62 24.55 132.66"/><path class="cls-6" d="M24.28,132.39l0,.07h0S24.3,132.37,24.28,132.39Z"/><path class="cls-6" d="M24.36,132.44a.08.08,0,0,0,.06,0Z"/><polygon class="cls-6" points="24.45 132.62 24.44 132.59 24.4 132.56 24.45 132.62"/><path class="cls-6" d="M23.63,131.91l-.08,0s0,.05,0,.06S23.63,131.95,23.63,131.91Z"/><path class="cls-6" d="M23.7,132.26a.16.16,0,0,1,0-.08l-.07.09Z"/><path class="cls-6" d="M23.48,132.16s-.15,0-.06.07S23.53,132.22,23.48,132.16Z"/><polygon class="cls-6" points="22.51 131.4 22.53 131.41 22.63 131.22 22.51 131.4"/><path class="cls-6" d="M21.33,131.34c.06.09.08-.11.13,0s0-.08,0-.11S21.37,131.21,21.33,131.34Z"/><path class="cls-6" d="M21.45,131.23h0Z"/><polygon class="cls-6" points="9.73 128.37 9.67 128.37 9.71 128.37 9.73 128.37"/><path class="cls-6" d="M9.61,128.39h0l0,0Z"/><path class="cls-6" d="M17.88,130v0s0,0,0,0Z"/><polygon class="cls-6" points="17.11 129.66 17.13 129.66 17.12 129.58 17.11 129.66"/><path class="cls-6" d="M16.42,129.57h.09C16.45,129.58,16.43,129.47,16.42,129.57Z"/><path class="cls-7" d="M27.53,134.12s0,0,0,0S27.53,134.12,27.53,134.12Z"/><polygon class="cls-7" points="27.23 133.78 27.24 133.78 27.18 133.74 27.23 133.78"/><path class="cls-7" d="M26.95,133.44c0,.07.11.11.15.18v0h0A2,2,0,0,1,26.95,133.44Z"/><path class="cls-7" d="M26.88,133.17s0,0,0,0h0Z"/><path class="cls-7" d="M26.91,133.21s0,0,0,0Z"/><path class="cls-7" d="M26.76,133.06l.05,0s0-.07,0-.06S26.76,133,26.76,133.06Z"/><path class="cls-7" d="M26.69,133.05h0S26.72,133.05,26.69,133.05Z"/><path class="cls-7" d="M26.78,133.1l-.06,0s0,0,0,0S26.75,133.09,26.78,133.1Z"/><path class="cls-7" d="M26.79,133.14s0,.08,0,0S26.88,133.22,26.79,133.14Z"/><path class="cls-7" d="M26.89,133.47l0,0,0,0S26.9,133.46,26.89,133.47Z"/><path class="cls-7" d="M26.54,132.74s0,.05,0,.07l0,0S26.53,132.76,26.54,132.74Z"/><path class="cls-7" d="M26.52,132.81l-.06,0S26.51,132.82,26.52,132.81Z"/><polygon class="cls-7" points="26.63 133.1 26.74 133.14 26.61 133.09 26.63 133.1"/><polygon class="cls-7" points="26.37 132.54 26.43 132.54 26.34 132.54 26.37 132.54"/><path class="cls-7" d="M26.25,132.42s0-.08,0-.07a.2.2,0,0,0-.13,0S26.23,132.36,26.25,132.42Z"/><path class="cls-7" d="M26.1,132.31h0Z"/><path class="cls-7" d="M26.38,132.69a.1.1,0,0,0,0-.08l0,.06Z"/><path class="cls-7" d="M26.36,132.67h0l0,0Z"/><path class="cls-7" d="M26.38,132.69h0S26.38,132.7,26.38,132.69Z"/><path class="cls-7" d="M26.54,132.95s-.12,0-.09,0S26.47,132.93,26.54,132.95Z"/><path class="cls-7" d="M26.36,132.76l0,.06s0,0,0,0Z"/><polygon class="cls-7" points="26.33 132.75 26.36 132.76 26.35 132.74 26.33 132.75"/><path class="cls-7" d="M26.15,132.43a.16.16,0,0,1-.09,0l.08.1S26.18,132.46,26.15,132.43Z"/><path class="cls-7" d="M26.25,132.55h0Z"/><path class="cls-7" d="M25.79,132.13h0Z"/><path class="cls-7" d="M26.13,132.5a.06.06,0,0,0,.06,0l-.06,0S26.13,132.5,26.13,132.5Z"/><path class="cls-7" d="M26,132.25l0,.06S26,132.24,26,132.25Z"/><path class="cls-7" d="M26.25,132.53h0S26.25,132.52,26.25,132.53Z"/><path class="cls-7" d="M26.25,132.53h-.05l0,0A0,0,0,0,1,26.25,132.53Z"/><path class="cls-7" d="M25.45,132.39a.09.09,0,0,1,.15.05c.08,0,.16-.17.19-.3s0,0-.11,0,.07.16,0,.17,0-.07-.06-.12-.16,0-.21.12l.09,0S25.44,132.36,25.45,132.39Z"/><path class="cls-7" d="M25.88,132.24h0a.28.28,0,0,1,0-.13c-.05,0-.07,0-.09,0l.1.11Z"/><path class="cls-7" d="M26,132.34c-.05,0-.12,0-.13.08s.08,0,.13,0c-.11-.08.05,0,0-.09l.06,0,0-.07h0s0,0,0,0h0s0,0,0,0h0l-.12-.07A.36.36,0,0,0,26,132.34Z"/><path class="cls-7" d="M26.33,133h0S26.31,133,26.33,133Z"/><path class="cls-7" d="M26.3,133s0,0,.05,0,0,0,0,0,.07,0,0,0h0s0-.15,0-.15A.36.36,0,0,0,26.3,133Z"/><path class="cls-7" d="M26.14,132.67l-.1-.05v.08l0,0C26.1,132.71,26.12,132.68,26.14,132.67Z"/><polygon class="cls-7" points="25.8 132.09 25.85 132.05 25.74 132.08 25.8 132.09"/><polygon class="cls-7" points="25.68 132 25.72 131.96 25.67 131.96 25.68 132"/><path class="cls-7" d="M18,129.15h0Z"/><path class="cls-7" d="M18.2,129.22v0S18.19,129.22,18.2,129.22Z"/><path class="cls-7" d="M22.63,130c0-.09,0-.22,0-.13l0,.09A.07.07,0,0,1,22.63,130Z"/><path class="cls-7" d="M20.14,129.49v0l.05-.05Z"/><path class="cls-7" d="M20,129.76l0-.07Z"/><path class="cls-7" d="M16.72,128.88l0,0C16.72,128.93,16.71,128.9,16.72,128.88Z"/><path class="cls-7" d="M24.47,131.07a.21.21,0,0,0-.06-.1C24.42,131,24.42,131.12,24.47,131.07Z"/><path class="cls-7" d="M18.23,128.54s0,0,0,0S18.23,128.55,18.23,128.54Z"/><path class="cls-7" d="M24.3,130.9v0a.16.16,0,0,1,.09,0C24.4,130.92,24.37,130.87,24.3,130.9Z"/><path class="cls-7" d="M12.1,128.1h0Z"/><path class="cls-7" d="M10.72,127.92h0Z"/><path class="cls-7" d="M25.24,131.58s0,0,0,0Z"/><path class="cls-7" d="M25.19,131.92l0,0Z"/><path class="cls-7" d="M23.76,131.19h0S23.76,131.21,23.76,131.19Z"/><path class="cls-7" d="M25.26,131.64l0,0Z"/><path class="cls-7" d="M25.28,131.61l0,0S25.3,131.62,25.28,131.61Z"/><path class="cls-7" d="M25.21,131.56l0,0s0,0,0,0Z"/><path class="cls-7" d="M14.61,128.29h0S14.58,128.3,14.61,128.29Z"/><polygon class="cls-7" points="21.51 130.45 21.52 130.45 21.52 130.44 21.51 130.45"/><path class="cls-7" d="M21.39,130.46c.08-.07.1-.05.13,0l.07-.24Z"/><path class="cls-7" d="M17.42,129l.06.07c-.11.06-.17,0-.12.1.05-.18.29.06.35-.12l0,.05h0c.07.12.1-.11.22,0s.06.06,0,.08l.11,0s0,0,0,0l.15,0h0l.12-.07s0,0,0,0l.09,0c0,.06-.06.09-.11.06,0,.21.08,0,.21.13h-.08c0,.13.09.11.15.2s-.12-.23,0-.25a.09.09,0,0,0,.11,0c0,.07,0,.07.09.08l0,.09c.07,0,.08-.06.13-.09s.06.11.05.18,0-.14.1-.12.15.05.28,0,0,.05,0,.09l.08-.06s0,0,0,0,0-.1.12-.1.1.21.23.12,0,.06,0,.1a.73.73,0,0,0,.27-.09l.07.1c0-.1.08-.16.17-.2a.93.93,0,0,0,0-.1h.14s0,.05-.05.09l0,0c0,.05,0,.1-.06.15l0-.08a.41.41,0,0,0-.12.17h0l0,0s0,0,0,0l0,.12,0,0,.12.13c.15-.07.31-.21.5-.19-.08.07-.06.14-.11.24,0-.13-.15,0-.23-.07a.05.05,0,0,1,0,.09l.19,0c0,.08,0,.08,0,.13,0-.18.16-.06.24-.08s-.06.11-.13.06c0,.16.19-.15.23,0s0,0,0,0,.16.05.11.1h0c.12.07.37.17.46,0l-.12.2.45-.41c-.08.12-.15.47-.28.5a.1.1,0,0,0,.13.06s0-.21.07-.21a1,1,0,0,0,0,.27s.11-.24.16-.21a1.74,1.74,0,0,1-.12.22l.21-.15s-.09.17-.09.24.1.06.14.05l0-.07c.11.1.27-.22.4-.15,0,0-.17.25-.12.3s.39-.45.56-.47v.07l.13,0a5.64,5.64,0,0,1-.62.48c0,.07,0,.08.05.11s-.08.07-.11.06l.15.12c.06-.13.19-.05.24-.16h-.12l-.12,0c.06-.13.29-.3.4-.21s-.14.21-.16.25.16,0,.15,0l-.09,0c0,.08.2-.1.21.06s0,.2,0,.13a2.35,2.35,0,0,1,.35-.69,1.18,1.18,0,0,1,.06.3c0,.13-.21.22-.23.33a.23.23,0,0,1,.09-.07s-.07.1,0,.11.12.08.09-.09c.08,0,0,.06.12.1a.44.44,0,0,1,.3-.22.25.25,0,0,0,0,.1c.12.09.15.18.27.25s0,.1,0,.13.07,0,.11,0-.09,0-.11.11c0-.06.15,0,.22,0s-.1-.1-.18-.08a.46.46,0,0,1,.43-.21c.11,0,0,.12,0,.11.16.14.3-.12.38.08s-.11.16-.13.23-.08-.13-.13-.16l0,.08s-.11,0-.12,0c0,.11.29.21.38.37,0,0,.1,0,.1,0l0,0c0-.09.14,0,.11-.09s.2,0,.25.08l0,.09s0-.09-.06-.08,0,.2.15.12v-.1c.09,0,.21,0,.26.06,0-.1,0,0,0-.13,0,.15-.17-.15-.19,0,0-.15-.05-.12,0-.27,0,0,0,.07-.06,0h0s0,0,0,0a.15.15,0,0,1,0,.07c-.07,0-.16,0-.22,0s0,0,0-.07l-.08,0c0-.07,0-.18.09-.15l-.07-.06c0-.07-.07-.13-.12-.13s-.14,0-.07,0l-.15,0v0c-.11-.1-.32-.06-.37-.28a.22.22,0,0,1-.16-.08l0-.08c-.07,0-.12-.17-.18-.12.05-.22-.23-.21-.31-.29l-.05.09a.51.51,0,0,0-.24-.06l0,.08c-.11,0-.15-.16-.27-.21s0,0,.06,0c0-.26-.36,0-.41-.21,0,0-.06,0-.07,0h0l0-.07a.16.16,0,0,0,0,.06h-.11l0-.1h0s0,0-.06.1l-.07,0c0-.16-.12,0-.08-.17-.06.06-.21,0-.3.12,0,0,0,0,0,0s-.06-.07-.12,0l0-.12-.16.11c0-.09,0-.14.06-.2-.19.08-.13,0-.29.09l0-.07s-.14.05-.14,0-.43-.19-.61-.39c0,.21-.07-.13-.14,0,0,0,0-.09,0-.11-.13,0-.15-.13-.28,0s0-.06,0-.09-.05,0-.05,0,0,0,.06,0-.19.1-.24.22c0-.08-.07-.08-.14,0s0-.1.05-.09-.23-.15-.27,0-.06,0-.07,0a.88.88,0,0,0-.19-.07l0,0c-.08.11-.09,0-.16,0h0c-.14-.14-.09,0-.22-.13V129c-.06.15-.12-.14-.24-.11l0,0c-.07,0-.09-.25-.14-.28s0,0,0,0,0,.09-.16.08.06-.12,0-.15-.25.1-.33,0c0,0,0,.09,0,.1s-.17-.19-.27-.09a.05.05,0,0,1,0,0c-.07,0-.2,0-.25.05,0-.24-.39,0-.34-.18l-.18,0v0a.2.2,0,0,0-.21,0s0,0,0,0c-.16-.08-.18-.07-.34,0v-.06s-.22-.14-.4-.1l0,0c-.2,0-.42-.22-.53,0l-.13,0c.16,0,0,.08,0,.13s-.15-.09-.07-.08h0c0-.1-.19-.06-.18-.13-.31,0-.61-.13-.91-.16l0,.07-.1,0s0-.06,0,0-.13,0-.13,0,.07-.07,0-.08h0c-.05,0-.06.05-.15,0s0,0,0,0h-.16l0,.05c-.06,0-.12,0-.07,0-.08-.1-.48-.07-.53-.1a.66.66,0,0,1-.26,0s0,.06,0,0-.15-.05-.22-.12-.24,0-.15.07c-.07,0,0,0-.05-.06s-.37,0-.58,0c0,0,0,0,0,0l-.11,0s0,.05-.11,0,0,0,0,0c-.41,0-.84,0-1.25,0,.06,0,0,0,0,0s0,0,0,0h-.17s-.19,0-.2,0h.05c-.07,0,.1,0,.09.06s.22,0,.35,0,0,0,0,0a.36.36,0,0,1,.15,0h0a4.44,4.44,0,0,1,.54,0l0,0,.09,0c.06,0-.14,0-.09,0s.36,0,.41.07,0,0,.06,0l0,0,0,0c.05,0,.08,0,.08,0h0a1.12,1.12,0,0,0,.21,0l-.08,0c.22,0,.48,0,.69,0v0c.16,0,.13,0,.3,0h0a.27.27,0,0,1,.13,0s.08,0,0,.06c.18,0,.09,0,.21-.07l0,0a.18.18,0,0,1,.13,0c-.07,0,.05.05,0,.08.18.09.28,0,.35.08.09-.08-.15-.07-.1-.08s.08-.06.13,0,.09.12.23.14h0c.05,0,.11,0,.17,0s.09,0,.11-.05h-.14c.08,0,.16-.09.28,0l-.08,0s.07,0,.11,0-.16,0-.25,0,.16,0,.11,0c.07-.09.14,0,.25,0v0a.19.19,0,0,1,.08,0l-.06.05c.09,0,.15.07.23.06-.16,0,0-.06-.09-.11.21,0,.1.14.32.16,0,0-.11,0-.06-.06a.29.29,0,0,1,.11.08c.15,0,0-.06.05-.07s.08,0,.14,0v.05c.16.06.06-.1.21,0l-.08.06h.08l0,.06a.21.21,0,0,1,.2,0s0-.1.1-.08,0,0,.07.06-.06.07-.1,0l0,0s.13,0,.17,0l0,0,.16,0s0,0,0,.05.06,0,.1,0,0,.09-.09.1l.15,0s.06.07,0,.09.21,0,.31,0l0,0c.09,0,.17.12.3.08l0,.11c.09,0-.06-.14.09-.13s0,.09.05.12.18-.1.26,0S17.46,129,17.42,129Zm1.12.28s-.08,0-.08,0S18.51,129.26,18.54,129.29Zm1.71.4s0,0-.06,0A.07.07,0,0,1,20.25,129.69Zm4.68,1.73h0C24.9,131.37,24.91,131.39,24.93,131.42Zm.06.09s0,0,0,0,0,0-.06,0S25,131.52,25,131.52ZM14.32,128h0S14.3,128,14.32,128Z"/><path class="cls-7" d="M20,129.73a.14.14,0,0,1,0,0A0,0,0,0,0,20,129.73Z"/><path class="cls-7" d="M16.72,128.87h0Z"/><path class="cls-7" d="M23.21,131.32a.11.11,0,0,1,0-.06A0,0,0,0,0,23.21,131.32Z"/><path class="cls-7" d="M25.51,131.77l-.07,0s0,0,0,.06S25.5,131.75,25.51,131.77Z"/><path class="cls-7" d="M25.69,132.51h0l0,0S25.66,132.48,25.69,132.51Z"/><path class="cls-7" d="M25.41,132c0,.06,0,.07.06.09h0C25.52,132,25.46,132,25.41,132Z"/><path class="cls-7" d="M25.47,132.11l0,0S25.5,132.12,25.47,132.11Z"/><path class="cls-7" d="M25.13,131.56s.06-.06.06,0S25,131.52,25.13,131.56Z"/><polygon class="cls-7" points="25.31 132.22 25.34 132.14 25.28 132.18 25.31 132.22"/><path class="cls-7" d="M25,131.94l0,.07h0S25.06,131.92,25,131.94Z"/><path class="cls-7" d="M25.13,132a.07.07,0,0,0,.06,0Z"/><polygon class="cls-7" points="25.21 132.18 25.2 132.15 25.16 132.11 25.21 132.18"/><path class="cls-7" d="M24.39,131.47l-.08,0s0,.05,0,.06S24.39,131.5,24.39,131.47Z"/><path class="cls-7" d="M24.46,131.82a.14.14,0,0,1,0-.08l-.07.09Z"/><path class="cls-7" d="M24.24,131.71s-.15,0-.06.07S24.29,131.78,24.24,131.71Z"/><polygon class="cls-7" points="23.27 130.95 23.29 130.96 23.39 130.78 23.27 130.95"/><path class="cls-7" d="M22.09,130.9c.06.09.08-.1.13,0s0-.08,0-.1S22.13,130.76,22.09,130.9Z"/><path class="cls-7" d="M22.22,130.78l0,0Z"/><polygon class="cls-7" points="10.49 127.92 10.43 127.92 10.47 127.93 10.49 127.92"/><path class="cls-7" d="M10.38,127.95h0l0,0Z"/><path class="cls-7" d="M18.65,129.53v0s0,0,0,0Z"/><polygon class="cls-7" points="17.87 129.22 17.89 129.22 17.88 129.13 17.87 129.22"/><path class="cls-7" d="M17.18,129.12h.09C17.21,129.13,17.19,129,17.18,129.12Z"/><path class="cls-8" d="M27.8,133.47s0,0,0,0S27.79,133.47,27.8,133.47Z"/><polygon class="cls-8" points="27.49 133.12 27.5 133.12 27.44 133.09 27.49 133.12"/><path class="cls-8" d="M27.21,132.79c0,.07.11.11.15.18v0h0A1.9,1.9,0,0,1,27.21,132.79Z"/><path class="cls-8" d="M27.15,132.52s0,0,0,0h0Z"/><path class="cls-8" d="M27.17,132.56s0,0,0,0Z"/><path class="cls-8" d="M27,132.4l.06,0s0-.07,0-.06S27,132.36,27,132.4Z"/><path class="cls-8" d="M27,132.4l0,0S27,132.4,27,132.4Z"/><path class="cls-8" d="M27,132.45l-.06,0s0,0,0,0S27,132.44,27,132.45Z"/><path class="cls-8" d="M27.06,132.48s0,.08,0,0S27.14,132.57,27.06,132.48Z"/><path class="cls-8" d="M27.16,132.82l0,0,0,0S27.17,132.8,27.16,132.82Z"/><path class="cls-8" d="M26.81,132.08s0,0,0,.07l0,0S26.79,132.1,26.81,132.08Z"/><path class="cls-8" d="M26.78,132.15l-.06,0S26.77,132.17,26.78,132.15Z"/><polygon class="cls-8" points="26.9 132.45 27.01 132.49 26.88 132.43 26.9 132.45"/><polygon class="cls-8" points="26.64 131.89 26.69 131.88 26.6 131.88 26.64 131.89"/><path class="cls-8" d="M26.51,131.77s0-.08,0-.08a.22.22,0,0,0-.13,0A.14.14,0,0,1,26.51,131.77Z"/><path class="cls-8" d="M26.36,131.65h0Z"/><path class="cls-8" d="M26.64,132a.1.1,0,0,0,0-.08l0,.06Z"/><path class="cls-8" d="M26.62,132h0l0,0Z"/><path class="cls-8" d="M26.65,132h0S26.64,132,26.65,132Z"/><path class="cls-8" d="M26.8,132.29s-.12,0-.09,0S26.74,132.28,26.8,132.29Z"/><path class="cls-8" d="M26.63,132.11l0,.06s0,0,0,0Z"/><polygon class="cls-8" points="26.59 132.1 26.63 132.11 26.61 132.09 26.59 132.1"/><path class="cls-8" d="M26.42,131.78a.17.17,0,0,1-.09,0l.08.1S26.45,131.81,26.42,131.78Z"/><path class="cls-8" d="M26.52,131.9h0Z"/><path class="cls-8" d="M26.05,131.47h0Z"/><path class="cls-8" d="M26.4,131.85a.06.06,0,0,0,.06,0l-.06,0S26.39,131.84,26.4,131.85Z"/><path class="cls-8" d="M26.27,131.6l0,.06S26.29,131.59,26.27,131.6Z"/><path class="cls-8" d="M26.51,131.88h0S26.51,131.87,26.51,131.88Z"/><path class="cls-8" d="M26.51,131.88h-.05l0,0A0,0,0,0,1,26.51,131.88Z"/><path class="cls-8" d="M25.71,131.73a.09.09,0,0,1,.15,0c.08,0,.16-.17.19-.3s0,0-.11,0,.07.16,0,.16,0-.06-.06-.12-.16,0-.21.12l.09,0S25.7,131.71,25.71,131.73Z"/><path class="cls-8" d="M26.14,131.58h0a.27.27,0,0,1,0-.13c-.05,0-.07,0-.09,0l.1.11Z"/><path class="cls-8" d="M26.26,131.69c-.05,0-.12,0-.13.09s.08,0,.13,0c-.11-.08,0,0,0-.09l.06,0,0-.07h0s0,0,0,0h0s0,0,0,0h0l-.12-.07A.36.36,0,0,0,26.26,131.69Z"/><path class="cls-8" d="M26.59,132.36h0S26.58,132.35,26.59,132.36Z"/><path class="cls-8" d="M26.57,132.3s0,0,0,0,0,0,0,0,.07,0,0,0h0a.23.23,0,0,1,0-.15A.37.37,0,0,0,26.57,132.3Z"/><path class="cls-8" d="M26.4,132l-.1-.05V132l0,0C26.37,132.06,26.38,132,26.4,132Z"/><polygon class="cls-8" points="26.06 131.44 26.12 131.4 26.01 131.43 26.06 131.44"/><polygon class="cls-8" points="25.95 131.35 25.99 131.3 25.94 131.31 25.95 131.35"/><path class="cls-8" d="M18.24,128.5h0Z"/><path class="cls-8" d="M18.46,128.57v0S18.45,128.56,18.46,128.57Z"/><path class="cls-8" d="M22.9,129.32c0-.09,0-.22,0-.13l0,.09A.07.07,0,0,1,22.9,129.32Z"/><path class="cls-8" d="M20.41,128.83v0l.05-.05Z"/><path class="cls-8" d="M20.28,129.1l0-.07A.2.2,0,0,0,20.28,129.1Z"/><path class="cls-8" d="M17,128.22l0,0C17,128.28,17,128.25,17,128.22Z"/><path class="cls-8" d="M24.73,130.42a.23.23,0,0,0-.06-.1C24.69,130.38,24.68,130.47,24.73,130.42Z"/><path class="cls-8" d="M18.49,127.88s0,0,0,0S18.49,127.9,18.49,127.88Z"/><path class="cls-8" d="M24.57,130.25v0a.17.17,0,0,1,.09,0C24.66,130.26,24.64,130.22,24.57,130.25Z"/><path class="cls-8" d="M12.36,127.45h0Z"/><path class="cls-8" d="M11,127.26h0Z"/><path class="cls-8" d="M25.51,130.93s0,0,0,0Z"/><path class="cls-8" d="M25.46,131.26l0,0Z"/><path class="cls-8" d="M24,130.54h0S24,130.55,24,130.54Z"/><path class="cls-8" d="M25.53,131l0,0Z"/><path class="cls-8" d="M25.54,131l0,0S25.57,131,25.54,131Z"/><path class="cls-8" d="M25.47,130.9l0,0s0,0,0,0Z"/><path class="cls-8" d="M14.87,127.63h0S14.85,127.64,14.87,127.63Z"/><polygon class="cls-8" points="21.78 129.79 21.78 129.79 21.78 129.79 21.78 129.79"/><path class="cls-8" d="M21.66,129.8c.08-.08.1-.05.13,0l.07-.24Z"/><path class="cls-8" d="M17.69,128.36l.06.07c-.11.06-.17,0-.11.1.05-.18.29.06.35-.12l0,.05h0c.07.12.1-.11.22-.05s.06.06,0,.08l.11,0s0,0,0,0l.15,0h0l.12-.07s0,0,0,0l.09,0c0,.06-.06.09-.12.07,0,.21.08,0,.21.13h-.08c0,.13.09.1.15.2s-.12-.23,0-.25,0,0,.11,0,0,.07.09.08l0,.09c.07,0,.08-.06.13-.09s.06.11.05.17,0-.14.09-.12.15.05.28,0,0,.05,0,.09l.08-.06s0,0,0,0,0-.09.12-.09.1.21.23.12,0,.06,0,.1a.76.76,0,0,0,.27-.09l.06.1c0-.1.08-.16.18-.21l0-.1h.14s0,.05-.05.09l0,0c0,.05,0,.1-.07.15l0-.08a.4.4,0,0,0-.12.17h0a.07.07,0,0,0,0,0s0,0,0,0v.12l0,0,.12.13c.15-.07.31-.21.5-.19-.08.07-.06.14-.11.24,0-.13-.15,0-.23-.07s0,.07,0,.09l.19,0c0,.08,0,.08,0,.13,0-.18.16-.06.24-.08s-.06.11-.13.06c0,.16.19-.15.23,0,0,0,0,0,0,0s.15.05.11.09h0c.12.07.37.17.46,0l-.12.2.45-.41c-.08.12-.15.47-.28.49a.1.1,0,0,0,.13.06s0-.21.07-.21a1,1,0,0,0,0,.27s.11-.23.16-.21a1.79,1.79,0,0,1-.12.22l.21-.15s-.09.17-.09.24.1.06.14.05l0-.07c.11.1.27-.23.4-.15,0,0-.17.25-.12.3s.39-.44.56-.47v.07l.13,0a6,6,0,0,1-.62.48c0,.07,0,.08.05.11s-.08.07-.11.06l.15.12c.06-.13.19-.05.24-.16h-.12l-.12,0c.06-.13.29-.3.4-.21s-.14.21-.16.25.16,0,.15,0l-.09,0c0,.08.2-.1.21.06s0,.2,0,.13a2.35,2.35,0,0,1,.35-.69,1.17,1.17,0,0,1,.07.3c0,.13-.22.22-.23.34a.2.2,0,0,1,.09-.07s-.07.1,0,.12.12.08.09-.09c.08,0,0,.06.12.1a.43.43,0,0,1,.3-.22.23.23,0,0,0,0,.1c.12.08.15.18.27.25s0,.1,0,.13.07,0,.11,0-.09,0-.11.12c0-.06.15,0,.22,0s-.1-.1-.18-.08a.46.46,0,0,1,.43-.21c.12,0,0,.12,0,.11s.3-.12.38.08-.11.16-.13.23-.08-.13-.14-.16l0,.08s-.11,0-.12,0c0,.11.29.21.38.37,0,0,.1,0,.1,0l0,0c0-.09.14,0,.11-.09s.19,0,.25.08l0,.09s0-.09-.05-.08,0,.2.15.12v-.1c.08,0,.21,0,.26.06,0-.1,0,0,0-.14,0,.15-.17-.15-.19,0,0-.15-.05-.12,0-.27,0,0,0,.07-.06,0h0s0,0,0,0a.12.12,0,0,1,0,.07c-.07,0-.16,0-.22,0s0,0,0-.07l-.08,0c0-.07,0-.18.09-.16l-.07-.06c0-.07-.07-.13-.12-.13s-.14,0-.07,0l-.15,0v0c-.11-.1-.31-.06-.37-.28a.22.22,0,0,1-.16-.08l0-.08c-.07,0-.12-.17-.18-.11.05-.22-.23-.21-.31-.3l-.06.09a.49.49,0,0,0-.24-.06l0,.09c-.11,0-.15-.16-.26-.21s0,0,.06,0c0-.26-.36,0-.41-.21a.05.05,0,0,1-.08,0h0l0-.06a.17.17,0,0,0,0,.06H22.8l0-.1h0s0,0-.06.1l-.07,0c0-.16-.12,0-.08-.17-.06.06-.21,0-.3.12,0,0,0,0,0,0s-.06-.07-.12,0l0-.12-.16.11c0-.09,0-.14.06-.2-.19.08-.13,0-.29.09l0-.07s-.14.05-.14,0-.43-.18-.61-.39c0,.21-.07-.12-.14,0,0,0,0-.09,0-.11-.13,0-.15-.13-.28,0s0-.06,0-.09-.05,0-.06,0,0,0,.06,0c-.12,0-.19.1-.24.22,0-.08-.07-.08-.14,0s0-.1.05-.09-.23-.15-.27,0-.06,0-.07,0a.85.85,0,0,0-.19-.07l0,0c-.08.11-.09,0-.16,0h0c-.14-.14-.09,0-.22-.13v.07c-.06.15-.12-.14-.24-.1l0,0c-.07,0-.09-.25-.14-.28s0,0,0,0,0,.09-.16.08.06-.12,0-.15-.25.1-.33,0c0,0,0,.08,0,.1s-.17-.19-.27-.09a0,0,0,0,1,0,0c-.07,0-.2,0-.25.06,0-.24-.39,0-.34-.18l-.18,0v0a.2.2,0,0,0-.21,0s0,0,0,0c-.16-.07-.18-.07-.34,0v-.06s-.22-.14-.4-.1l0,0c-.2,0-.42-.22-.53,0l-.13,0c.16,0,0,.08,0,.13s-.15-.09-.07-.09h0c0-.1-.19-.07-.18-.13-.31,0-.61-.13-.91-.16l0,.07-.1,0s0-.06,0,0-.13,0-.13,0,.07-.07,0-.08h0c-.05,0-.06.05-.15,0s0,0,0,0h0l-.13,0,0,.05c-.06,0-.12,0-.07,0-.08-.1-.48-.07-.53-.1a.66.66,0,0,1-.26,0s0,.06,0,0-.15-.05-.22-.12-.24,0-.15.07c-.07,0,0,0-.06-.06s-.37,0-.58,0c0,0,0,0,0,0l-.11,0s0,.05-.12,0,0,0,0,0c-.41,0-.84,0-1.25,0,.06,0,0,0,0,0s0,0,0,0h-.17s-.19,0-.2,0h.05c-.07,0,.1,0,.1.06s.21,0,.35,0,0,0,0,0a.31.31,0,0,1,.15,0h0a4.41,4.41,0,0,1,.54,0l0,0,.09,0c.06,0-.15,0-.09,0s.36,0,.41.07,0,0,.06,0l0,0,0,0c.05,0,.08,0,.08,0h-.05a.91.91,0,0,0,.21,0H12.5c.22,0,.48,0,.69,0v0c.16,0,.13,0,.3,0h0a.29.29,0,0,1,.13,0s.08,0,0,.06c.17,0,.09,0,.21-.07l0,0a.19.19,0,0,1,.13,0c-.07,0,.05.05,0,.08.18.09.28,0,.35.07.09-.08-.15-.07-.1-.08s.08-.06.13,0,.09.13.23.15h0c.05,0,.11,0,.17,0s.09,0,.11-.06h-.14c.08,0,.16-.09.28,0l-.08,0s.07,0,.11,0-.16,0-.25,0,.16,0,.11,0c.07-.09.14,0,.25,0v0a.19.19,0,0,1,.08,0l-.06.05c.09,0,.15.07.23.06-.16,0,0-.06-.09-.11.21,0,.09.14.32.16,0,0-.11-.05-.06-.07a.33.33,0,0,1,.11.08c.15,0,0-.06.05-.07s.07,0,.14,0v.05c.16.06.06-.1.2,0l-.07.06H16l0,.06a.21.21,0,0,1,.2,0s0-.1.1-.08,0,0,.07.06-.06.07-.1,0l0,0s.13,0,.17,0l0,0,.16,0s0,0,0,.05.06,0,.1,0,0,.09-.09.1l.15,0s.06.07,0,.09.21,0,.31,0l0,0c.1,0,.17.12.3.08l0,.11c.09,0-.06-.14.1-.13s0,.09.05.12.18-.1.26,0S17.72,128.36,17.69,128.36Zm1.12.28s-.08,0-.08,0S18.77,128.6,18.8,128.64Zm1.71.4s0,0-.06,0A.07.07,0,0,1,20.52,129Zm4.68,1.73h0C25.17,130.71,25.18,130.74,25.2,130.77Zm.06.09a0,0,0,0,0,0,0s0,0-.06,0S25.22,130.86,25.26,130.87ZM14.58,127.3h0S14.57,127.32,14.58,127.3Z"/><path class="cls-8" d="M20.29,129.07a.23.23,0,0,1,0,0A0,0,0,0,0,20.29,129.07Z"/><polygon class="cls-8" points="16.99 128.21 16.99 128.21 16.98 128.22 16.99 128.21"/><path class="cls-8" d="M23.47,130.67a.11.11,0,0,1,0-.06A0,0,0,0,0,23.47,130.67Z"/><path class="cls-8" d="M25.78,131.11l-.06,0s0,0,0,.06S25.76,131.1,25.78,131.11Z"/><path class="cls-8" d="M25.95,131.86h0l0,0S25.93,131.82,25.95,131.86Z"/><path class="cls-8" d="M25.67,131.37c0,.06,0,.06.06.08h0C25.79,131.38,25.73,131.37,25.67,131.37Z"/><path class="cls-8" d="M25.74,131.45l0,0S25.76,131.46,25.74,131.45Z"/><path class="cls-8" d="M25.39,130.91s.06-.06.06,0S25.27,130.87,25.39,130.91Z"/><polygon class="cls-8" points="25.57 131.56 25.61 131.49 25.55 131.52 25.57 131.56"/><path class="cls-8" d="M25.31,131.29l0,.06s0,0,0,0S25.32,131.27,25.31,131.29Z"/><path class="cls-8" d="M25.39,131.34a.07.07,0,0,0,.06,0Z"/><polygon class="cls-8" points="25.48 131.52 25.47 131.49 25.43 131.46 25.48 131.52"/><path class="cls-8" d="M24.66,130.81l-.08,0s0,.05,0,.06S24.65,130.85,24.66,130.81Z"/><path class="cls-8" d="M24.72,131.16s0,0,0-.08l-.07.09Z"/><path class="cls-8" d="M24.51,131.06s-.15,0-.06.06S24.55,131.12,24.51,131.06Z"/><polygon class="cls-8" points="23.54 130.3 23.55 130.31 23.66 130.12 23.54 130.3"/><path class="cls-8" d="M22.36,130.24c.06.09.08-.1.13,0s0-.08,0-.11S22.39,130.11,22.36,130.24Z"/><path class="cls-8" d="M22.48,130.13l0,0Z"/><polygon class="cls-8" points="10.76 127.27 10.7 127.27 10.74 127.27 10.76 127.27"/><path class="cls-8" d="M10.64,127.29h0Z"/><path class="cls-8" d="M18.91,128.88v0s0,0,0,0Z"/><polygon class="cls-8" points="18.14 128.56 18.15 128.57 18.15 128.48 18.14 128.56"/><path class="cls-8" d="M17.44,128.47h.09C17.47,128.48,17.46,128.37,17.44,128.47Z"/><path class="cls-9" d="M27.8,132.95s0,0,0,0S27.79,133,27.8,132.95Z"/><polygon class="cls-9" points="27.49 132.6 27.5 132.6 27.44 132.57 27.49 132.6"/><path class="cls-9" d="M27.21,132.27c0,.07.11.11.15.18v0h0A1.9,1.9,0,0,1,27.21,132.27Z"/><path class="cls-9" d="M27.15,132s0,0,0,0h0Z"/><path class="cls-9" d="M27.17,132s0,0,0,0Z"/><path class="cls-9" d="M27,131.89l.06,0s0-.07,0-.06S27,131.84,27,131.89Z"/><path class="cls-9" d="M27,131.88l0,0S27,131.88,27,131.88Z"/><path class="cls-9" d="M27,131.93l-.06,0s0,0,0,0S27,131.92,27,131.93Z"/><path class="cls-9" d="M27.06,132s0,.08,0,0S27.14,132,27.06,132Z"/><path class="cls-9" d="M27.16,132.3l0,0h0S27.17,132.28,27.16,132.3Z"/><path class="cls-9" d="M26.81,131.56s0,0,0,.07l0,0S26.79,131.59,26.81,131.56Z"/><path class="cls-9" d="M26.78,131.63l-.06,0S26.77,131.65,26.78,131.63Z"/><polygon class="cls-9" points="26.9 131.93 27.01 131.97 26.88 131.92 26.9 131.93"/><polygon class="cls-9" points="26.64 131.37 26.69 131.37 26.6 131.37 26.64 131.37"/><path class="cls-9" d="M26.51,131.25s0-.08,0-.07a.21.21,0,0,0-.13,0A.14.14,0,0,1,26.51,131.25Z"/><path class="cls-9" d="M26.36,131.13h0Z"/><path class="cls-9" d="M26.64,131.52a.1.1,0,0,0,0-.08l0,.06Z"/><path class="cls-9" d="M26.62,131.5h0l0,0Z"/><path class="cls-9" d="M26.65,131.52h0Z"/><path class="cls-9" d="M26.8,131.77s-.12,0-.09,0S26.74,131.76,26.8,131.77Z"/><path class="cls-9" d="M26.63,131.59l0,.06s0,0,0,0Z"/><polygon class="cls-9" points="26.59 131.58 26.63 131.59 26.61 131.57 26.59 131.58"/><path class="cls-9" d="M26.42,131.26a.17.17,0,0,1-.09,0l.08.1S26.45,131.29,26.42,131.26Z"/><path class="cls-9" d="M26.52,131.38h0S26.51,131.39,26.52,131.38Z"/><polygon class="cls-9" points="26.05 130.96 26.05 130.97 26.06 130.96 26.05 130.96"/><path class="cls-9" d="M26.4,131.33a.06.06,0,0,0,.06,0l-.06,0S26.39,131.32,26.4,131.33Z"/><path class="cls-9" d="M26.27,131.08l0,.06S26.29,131.07,26.27,131.08Z"/><path class="cls-9" d="M26.51,131.36h0S26.51,131.35,26.51,131.36Z"/><path class="cls-9" d="M26.51,131.36h-.05l0,0A0,0,0,0,1,26.51,131.36Z"/><path class="cls-9" d="M25.71,131.22a.09.09,0,0,1,.15.05c.08,0,.16-.17.19-.3s0,0-.11,0,.07.16,0,.17,0-.06-.06-.12-.16,0-.21.12h.09S25.7,131.19,25.71,131.22Z"/><path class="cls-9" d="M26.14,131.07h0a.27.27,0,0,1,0-.13c-.05,0-.07,0-.09,0l.1.11Z"/><path class="cls-9" d="M26.26,131.17c-.05,0-.12,0-.13.08s.08,0,.13,0c-.11-.08,0,0,0-.09l.06,0,0-.07h0s0,0,0,0h0s0,0,0,0h0l-.12-.07A.33.33,0,0,0,26.26,131.17Z"/><path class="cls-9" d="M26.59,131.84h0S26.58,131.83,26.59,131.84Z"/><path class="cls-9" d="M26.57,131.78s0,0,0,0,0,0,0,0,.07,0,0,0h0a.23.23,0,0,1,0-.15A.38.38,0,0,0,26.57,131.78Z"/><path class="cls-9" d="M26.4,131.49l-.1-.05v.08l0,0C26.37,131.54,26.38,131.51,26.4,131.49Z"/><polygon class="cls-9" points="26.06 130.92 26.12 130.88 26.01 130.91 26.06 130.92"/><polygon class="cls-9" points="25.95 130.83 25.99 130.78 25.94 130.79 25.95 130.83"/><path class="cls-9" d="M18.24,128h0Z"/><path class="cls-9" d="M18.46,128v0S18.45,128,18.46,128Z"/><path class="cls-9" d="M22.9,128.8c0-.09,0-.22,0-.13l0,.09A.07.07,0,0,1,22.9,128.8Z"/><path class="cls-9" d="M20.41,128.32v0l.05-.05Z"/><path class="cls-9" d="M20.28,128.59l0-.07A.18.18,0,0,0,20.28,128.59Z"/><path class="cls-9" d="M17,127.7l0,0C17,127.76,17,127.73,17,127.7Z"/><path class="cls-9" d="M24.73,129.9a.23.23,0,0,0-.06-.1C24.69,129.87,24.68,130,24.73,129.9Z"/><path class="cls-9" d="M18.49,127.37s0,0,0,0S18.49,127.38,18.49,127.37Z"/><path class="cls-9" d="M24.57,129.73v0a.16.16,0,0,1,.09,0C24.66,129.75,24.64,129.7,24.57,129.73Z"/><path class="cls-9" d="M12.36,126.93h0Z"/><path class="cls-9" d="M11,126.74h0Z"/><path class="cls-9" d="M25.51,130.41s0,0,0,0Z"/><path class="cls-9" d="M25.46,130.75l0,0Z"/><path class="cls-9" d="M24,130h0S24,130,24,130Z"/><path class="cls-9" d="M25.53,130.47l0,0Z"/><path class="cls-9" d="M25.54,130.44l0,0S25.57,130.45,25.54,130.44Z"/><path class="cls-9" d="M25.47,130.39l0,0s0,0,0,0Z"/><path class="cls-9" d="M14.87,127.12h0S14.85,127.13,14.87,127.12Z"/><polygon class="cls-9" points="21.78 129.28 21.78 129.28 21.78 129.27 21.78 129.28"/><path class="cls-9" d="M21.66,129.29c.08-.08.1-.05.13,0l.07-.24Z"/><path class="cls-9" d="M17.69,127.84l.06.07c-.11.06-.17,0-.11.1.05-.18.29.06.35-.12l0,.05h0c.07.12.1-.11.22-.05s.06.06,0,.08l.11,0s0,0,0,0l.15,0h0l.12-.07s0,0,0,0l.09,0c0,.06-.06.09-.12.07,0,.21.08,0,.21.13h-.08c0,.13.09.11.15.2s-.12-.23,0-.25,0,0,.11,0,0,.07.09.08l0,.09c.07,0,.08-.06.13-.09s.06.11.05.18,0-.14.09-.12.15.05.28,0,0,.05,0,.09l.08-.06s0,0,0,0,0-.09.12-.09.1.21.23.12,0,.06,0,.1a.74.74,0,0,0,.27-.09l.06.1c0-.1.08-.16.18-.2l0-.1h.14s0,.05-.05.09l0,0c0,.05,0,.1-.07.15l0-.08a.41.41,0,0,0-.12.17h0a.06.06,0,0,0,0,0s0,0,0,0v.12l0,0,.12.13c.15-.07.31-.21.5-.19-.08.07-.06.14-.11.24,0-.13-.15,0-.23-.07s0,.07,0,.08l.19,0c0,.08,0,.08,0,.13,0-.18.16-.06.24-.08s-.06.11-.13.06c0,.16.19-.15.23,0,0,0,0,0,0,0s.15.06.11.09h0c.12.07.37.17.46,0l-.12.2.45-.41c-.08.12-.15.47-.28.49a.1.1,0,0,0,.13.06s0-.21.07-.21a1,1,0,0,0,0,.27s.11-.24.16-.21a1.92,1.92,0,0,1-.12.22l.21-.15s-.09.17-.09.24.1.06.14.05l0-.07c.11.1.27-.22.4-.15,0,0-.17.25-.12.3.08-.09.39-.45.56-.47v.07l.13,0a5.75,5.75,0,0,1-.62.48c0,.07,0,.08.05.11s-.08.07-.11.06l.15.12c.06-.13.19-.06.24-.16h-.12l-.12,0c.06-.13.29-.3.4-.21s-.14.21-.16.25.16,0,.15,0L23,130c0,.08.2-.1.21.06s0,.2,0,.13a2.33,2.33,0,0,1,.35-.69,1.16,1.16,0,0,1,.07.3c0,.13-.22.22-.23.33a.2.2,0,0,1,.09-.07s-.07.09,0,.11.12.08.09-.09c.08,0,0,.06.12.1a.43.43,0,0,1,.3-.22.25.25,0,0,0,0,.09c.12.09.15.18.27.25s0,.1,0,.13.07,0,.11,0-.09,0-.11.12c0-.06.15,0,.22,0s-.1-.1-.18-.08a.46.46,0,0,1,.43-.21c.12,0,0,.12,0,.11.16.14.3-.12.38.08s-.11.16-.13.23-.08-.13-.14-.16l0,.08s-.11,0-.12,0c0,.11.29.21.38.37,0,0,.1,0,.1,0l0,0c0-.09.14,0,.11-.1s.19,0,.25.08l0,.09s0-.09-.05-.08,0,.2.15.13v-.1c.08,0,.21,0,.26.06,0-.1,0,0,0-.13,0,.15-.17-.15-.19,0,0-.15-.05-.12,0-.27,0,0,0,.07-.06,0h0s0,0,0,0a.12.12,0,0,1,0,.07c-.07,0-.16,0-.22,0s0,0,0-.07l-.08,0c0-.07,0-.18.09-.15l-.07-.06c0-.07-.07-.13-.12-.13s-.14,0-.07,0l-.15,0v0c-.11-.1-.31-.06-.37-.28a.23.23,0,0,1-.16-.08l0-.08c-.07,0-.12-.17-.18-.11.05-.22-.23-.21-.31-.29l-.06.09a.5.5,0,0,0-.24-.06l0,.09c-.11,0-.15-.16-.26-.21s0,0,.06,0c0-.26-.36,0-.41-.21a.05.05,0,0,1-.08,0h0l0-.06a.17.17,0,0,0,0,.06H22.8l0-.1h0s0,0-.06.1l-.07,0c0-.16-.12,0-.08-.17-.06.06-.21,0-.3.12,0,0,0,0,0,0s-.06-.07-.12,0l0-.12-.16.11c0-.09,0-.14.06-.2-.19.08-.13,0-.29.09l0-.07s-.14.05-.14,0-.43-.19-.61-.39c0,.21-.07-.12-.14,0,0,0,0-.09,0-.11-.13,0-.15-.13-.28,0s0-.06,0-.09-.05,0-.06,0,0,0,.06,0c-.12,0-.19.1-.24.22,0-.08-.07-.08-.14,0s0-.1.05-.09-.23-.15-.27,0-.06,0-.07,0a.84.84,0,0,0-.19-.07l0,0c-.08.11-.09,0-.16,0h0c-.14-.14-.09,0-.22-.13v.07c-.06.15-.12-.14-.24-.11l0,.05c-.07,0-.09-.25-.14-.28s0,0,0,0,0,.09-.16.08.06-.12,0-.15-.25.1-.33,0c0,0,0,.08,0,.1s-.17-.19-.27-.09a0,0,0,0,1,0,0c-.07,0-.2,0-.25.06,0-.24-.39,0-.34-.18l-.18,0v0a.19.19,0,0,0-.21,0s0,0,0,0c-.16-.07-.18-.06-.34,0v-.06s-.22-.14-.4-.1a0,0,0,0,1,0,0c-.2,0-.42-.22-.53,0l-.13,0c.16,0,0,.08,0,.13s-.15-.08-.07-.08h0c0-.1-.19-.07-.18-.13-.31,0-.61-.13-.91-.16l0,.07-.1,0s0-.06,0,0-.13,0-.13,0,.07-.07,0-.08h0c-.05,0-.06.05-.15,0s0,0,0,0h0l-.13,0,0,.05c-.06,0-.12,0-.07,0-.08-.1-.48-.07-.53-.1a.66.66,0,0,1-.26,0s0,.06,0,0-.15-.05-.22-.12-.24,0-.15.07c-.07,0,0,0-.06-.06s-.37,0-.58,0c0,0,0,0,0,0l-.11,0s0,.05-.12,0,0,0,0,0c-.41,0-.84,0-1.25,0,.06,0,0,0,0,0s0,0,0,0h-.17s-.19,0-.2,0h.05c-.07,0,.1,0,.1.06s.21,0,.35,0,0,0,0,0a.33.33,0,0,1,.15,0h0a4.41,4.41,0,0,1,.54,0l0,0,.09,0c.06,0-.15,0-.09,0s.36,0,.41.07,0,0,.06,0l0,0,0,0c.05,0,.08,0,.08,0h-.05a1.15,1.15,0,0,0,.21,0l-.08,0c.22,0,.48,0,.69,0v0c.16,0,.13,0,.3,0h0a.28.28,0,0,1,.13,0s.08,0,0,.06c.17,0,.09,0,.21-.07l0,0a.2.2,0,0,1,.13,0c-.07,0,.05.05,0,.08.18.09.28,0,.35.07.09-.08-.15-.07-.1-.08s.08-.06.13,0,.09.12.23.14h0c.05,0,.11,0,.17,0s.09,0,.11-.06h-.14c.08,0,.16-.09.28,0l-.08,0s.07,0,.11,0-.16,0-.25,0,.16,0,.11,0c.07-.09.14,0,.25,0v0a.18.18,0,0,1,.08,0l-.06,0c.09,0,.15.07.23.06-.16,0,0-.06-.09-.11.21,0,.09.14.32.16,0,0-.11-.05-.06-.07a.31.31,0,0,1,.11.08c.15,0,0-.06.05-.07s.08,0,.14,0v.05c.16.06.06-.1.2,0l-.07.06H16l0,.06a.21.21,0,0,1,.2,0s0-.1.1-.08,0,0,.07.06-.06.07-.1,0l0,0s.13,0,.17,0l0,0,.16,0s0,0,0,.05.06,0,.1,0,0,.09-.09.1l.15,0s.06.07,0,.09.21,0,.31,0l0,0c.1,0,.17.12.3.08l0,.11c.09,0-.06-.14.1-.13s0,.09.05.12.18-.1.26,0S17.72,127.84,17.69,127.84Zm1.12.28s-.08,0-.08,0S18.77,128.09,18.8,128.12Zm1.71.4s0,0-.06,0A.08.08,0,0,1,20.52,128.52Zm4.68,1.73h0C25.17,130.2,25.18,130.22,25.2,130.25Zm.06.09a0,0,0,0,0,0,0s0,0-.06,0S25.22,130.34,25.26,130.35Zm-10.68-3.56h0S14.57,126.8,14.58,126.79Z"/><path class="cls-9" d="M20.29,128.56a.38.38,0,0,1,0,0A0,0,0,0,0,20.29,128.56Z"/><polygon class="cls-9" points="16.99 127.69 16.99 127.69 16.98 127.7 16.99 127.69"/><path class="cls-9" d="M23.47,130.15a.11.11,0,0,1,0-.06A0,0,0,0,0,23.47,130.15Z"/><path class="cls-9" d="M25.78,130.6l-.06,0s0,0,0,.06S25.76,130.58,25.78,130.6Z"/><path class="cls-9" d="M25.95,131.34h0l0,0S25.93,131.3,25.95,131.34Z"/><path class="cls-9" d="M25.67,130.85c0,.06,0,.06.06.08h0C25.79,130.86,25.73,130.85,25.67,130.85Z"/><path class="cls-9" d="M25.74,130.94l0,0S25.76,130.95,25.74,130.94Z"/><path class="cls-9" d="M25.39,130.39s.06-.06.06,0S25.27,130.35,25.39,130.39Z"/><polygon class="cls-9" points="25.57 131.04 25.61 130.97 25.55 131.01 25.57 131.04"/><path class="cls-9" d="M25.31,130.77l0,.06h0S25.32,130.75,25.31,130.77Z"/><path class="cls-9" d="M25.39,130.83a.07.07,0,0,0,.06,0Z"/><polygon class="cls-9" points="25.48 131 25.47 130.98 25.43 130.94 25.48 131"/><path class="cls-9" d="M24.66,130.29l-.08,0s0,.05,0,.06S24.65,130.33,24.66,130.29Z"/><path class="cls-9" d="M24.72,130.65s0,0,0-.08l-.07.09Z"/><path class="cls-9" d="M24.51,130.54s-.15,0-.06.06S24.55,130.6,24.51,130.54Z"/><polygon class="cls-9" points="23.54 129.78 23.55 129.79 23.66 129.6 23.54 129.78"/><path class="cls-9" d="M22.36,129.73c.06.09.08-.1.13,0s0-.08,0-.11S22.39,129.59,22.36,129.73Z"/><path class="cls-9" d="M22.48,129.61h0Z"/><polygon class="cls-9" points="10.76 126.75 10.7 126.75 10.74 126.75 10.76 126.75"/><path class="cls-9" d="M10.64,126.78h0l0,0Z"/><path class="cls-9" d="M18.91,128.36v0s0,0,0,0Z"/><polygon class="cls-9" points="18.14 128.04 18.15 128.05 18.15 127.96 18.14 128.04"/><path class="cls-9" d="M17.44,127.95h.09C17.47,128,17.46,127.85,17.44,127.95Z"/><path class="cls-1" d="M13,126.07s0,0,0,0S13,126.08,13,126.07Z"/><path class="cls-1" d="M8.09,130.14l0,0Z"/><path class="cls-1" d="M8.24,130.47h0S8.24,130.46,8.24,130.47Z"/><path class="cls-1" d="M10.3,131.66a.17.17,0,0,0,0-.08Z"/><path class="cls-1" d="M10.69,125.32h0Z"/><path class="cls-1" d="M12.83,129.89h0S12.84,129.89,12.83,129.89Z"/><path class="cls-1" d="M8.89,127.17h0C9,127.15,8.93,127.16,8.89,127.17Z"/><polygon class="cls-1" points="10.27 129.48 10.27 129.47 10.27 129.47 10.27 129.48"/><path class="cls-1" d="M10.16,129.39a1.3,1.3,0,0,0,0,.19c0-.08.05-.09.09-.1l0,0Z"/><path class="cls-1" d="M7.74,127.8l0,0Z"/><path class="cls-1" d="M9.13,128.21h0v0h0Z"/><polygon class="cls-1" points="9.15 128.16 9.15 128.16 9.15 128.17 9.15 128.17 9.15 128.18 9.15 128.16 9.15 128.16"/><path class="cls-1" d="M13.25,129.1c-.07,0,0,.19,0,.29a.13.13,0,0,1-.07-.07,1.55,1.55,0,0,0,0-.62,1,1,0,0,0-.27-.62l-.1,0-.77-.17a0,0,0,0,0,0,0h-.12s0,0,0,0,0,0,0,0l-.16,0h0l-.13,0s0,0,0,0h0a.07.07,0,0,1,0,0,1.69,1.69,0,0,0,0-.55c-.09-.3-.59-.63-.44-.85s.81-.11,1.61-.08c0,0,.08,0,.1,0l-.06,0H13l-.2-.15c0-.06,0-.12,0-.15-.14,0-.22-.28-.45-.24,0,0,0,0,0,0s-.12,0-.22-.06h0l-.37-.13a3.11,3.11,0,0,0-.4-.13l0,.05a.44.44,0,0,1-.12,0c-.1.06.21,0,.12.1-.09-.12-.53-.06-.59-.17s0,.06-.09.05l0,0,0,0c-.08,0-.12,0-.12-.07h.07c-.1,0-.29,0-.32,0h.12l-.26,0h-.16l-.19,0a.42.42,0,0,0-.27.21.55.55,0,0,0,0,.33l0,0a1.47,1.47,0,0,1,.09.26.66.66,0,0,0,.07.21h0l.05.07a.15.15,0,0,1,0,.05s0,0,0,0,0,0,0,0a.65.65,0,0,0,0,.15.48.48,0,0,1,.05.12l0,0a.26.26,0,0,1,0,.18c0-.09-.07,0-.09-.05a.19.19,0,0,0,0,.15s0,0,0,.07v0s0,0,0,0l-.05-.05s0,.08.07.09,0,0,0,0v0s0,0,0,0,0,0,0,0a.24.24,0,0,1,0,0s0,0,0,0l-.06,0a.37.37,0,0,1-.11-.1l-.06-.06,0,0-.07,0h0c-.08,0-.17,0-.27-.05s-.17,0-.18.06h.23l-.2,0-.26,0s.06-.05.1-.07-.12,0-.2,0,.05-.07.15-.09.22,0,.31,0a.39.39,0,0,0-.19,0c-.06,0-.1,0-.07,0s-.12.06-.2.09a.37.37,0,0,0-.22.13l0,0a.79.79,0,0,1-.1.1l0-.09a.55.55,0,0,1-.2.13.46.46,0,0,0-.19.14c.22-.2.12,0,.26-.1l-.13.12-.12.06a.51.51,0,0,0-.25.2c0-.05.12-.11.11-.06a2.46,2.46,0,0,1-.19.18c-.14.23.09,0,.06,0l0,0a0,0,0,0,0,0,0h0l.12,0-.1,0a.1.1,0,0,0,0,.05c.21,0,.25-.07.45,0l-.27,0h.21l-.13,0a1.51,1.51,0,0,1,.5,0s.12-.07.26-.05-.09,0,.14.06a.23.23,0,0,1-.22,0l-.1,0a1,1,0,0,0,.27.05h0l0,0,0,0a.93.93,0,0,0-.39.27l-.13,0c-.1.12.17,0,0,.16s-.09,0-.15.05a3.41,3.41,0,0,1-.16.47.69.69,0,0,1,0-.18l0,.07,0,.07c0-.22.09-.34,0-.22.06,0,0,.2,0,.35s0,.28.1.28v.09s0,0,0-.05c0,.18.12.1.17.29s0,.12,0,.08l0,.07,0,.06s0,0,0,0l.06.1.06.1h0l.13.09c0,.06,0,0,0,0l.09.09c0,.06-.09,0-.13-.09-.05.17.08.07.16.33l-.08-.09a.21.21,0,0,0,0,.14l0,.08s.06.1.07.12a.2.2,0,0,0,0-.07l0-.06a.25.25,0,0,1,0,0c0-.06,0-.1.06,0a.24.24,0,0,0,0,.07.24.24,0,0,0,.09.06s0,.08.09.13l0,0c.08.05.1,0,.16,0a.17.17,0,0,1,0,.18c.12.12,0-.14.12,0l.07.07.09.07.13.08.14.07c.11.11,0,0,0,.08H9.6s0,0,0,0,0-.07.12,0,.07,0,.16.1a.26.26,0,0,0,.22.06s0,0,0,.06a.18.18,0,0,0,.13-.11.32.32,0,0,0,0-.19l0-.09c0,.06-.11-.12-.2-.26h0v0l0,0h0l0,0,0-.08a.29.29,0,0,1,.09.08l0,0a.88.88,0,0,0,.16.17l0-.08,0,0s0,0,0-.08h.07l0,0s0-.07,0-.15l0-.16-.12-.16-.1-.11a.93.93,0,0,1-.18-.28c.07,0,.08,0,.15,0s.08.18.11.31c0-.07,0-.06,0,0l-.13-.21s0-.06,0-.12-.11-.15-.16-.24.07,0,.09.12c0-.13-.15-.14-.1-.27,0,0,0,0,0,0s0-.21,0-.17v0a.75.75,0,0,1,.07-.27c0-.09.11-.16.09-.21l.05.11a.29.29,0,0,1,0-.06,1.33,1.33,0,0,1,0-.14l0-.08.1,0c0,.07.1.14,0,.21a.36.36,0,0,0,.16-.08s-.11-.07-.07-.09a1.41,1.41,0,0,0,.24,0s0-.13,0-.14,0,.11,0,.13l.07-.08.08-.07s0,.09.06.12.08,0,.11,0l0,0s.05,0,.07,0h.06a.19.19,0,0,1,.18.08s-.15.05-.09.14h.24l.16.17-.34-.09c0,.08,0,0,.07.13s-.08,0-.1,0l.17.22c0-.06.19.11.23.06l-.25-.17c0-.05.26,0,.38.15s-.11.05-.13.07a.37.37,0,0,1,.16.13l-.08,0c.06.1.18.06.24.22s.1.22.13.19a.33.33,0,0,1,.06-.27l.1.11v0h0v0l.15,0a.12.12,0,0,1,0,.09s-.07.09,0,.11a.37.37,0,0,1,.07-.08c.06,0,0,.07.12,0s.23-.12,0-.08c.09-.07.11,0,.21-.12s0-.08,0-.16l.1-.1h0a1.88,1.88,0,0,0,.17-.2.71.71,0,0,0,.12-.22s.08-.1.09,0a.64.64,0,0,1,0-.12c.08-.1,0,.14.07.07S13.26,129.19,13.25,129.1Zm-3.1,2.19a.31.31,0,0,1,0-.12A.14.14,0,0,1,10.16,131.29Zm-.93-3h0Zm-.06.13ZM9,128.15l0,0h0l0,0S9,128.15,9,128.15Zm.11,0h0l0,.07h0v0h0Zm0,.05,0-.06,0,.06Zm0-.07h0Zm-.29.14h0Zm-.41,2.51c.07,0,.06,0,.08.1S8.45,130.85,8.46,130.81Z"/><path class="cls-1" d="M10.3,131.56h0S10.29,131.58,10.3,131.56Z"/><polygon class="cls-1" points="8.81 128.34 8.82 128.33 8.82 128.32 8.81 128.34"/><path class="cls-1" d="M12.37,130.42h-.08S12.31,130.45,12.37,130.42Z"/><polygon class="cls-1" points="12.48 128.02 12.38 127.98 12.4 128 12.48 128.02"/><path class="cls-1" d="M13.26,128.64a.11.11,0,0,1,0,.06h.06Z"/><path class="cls-1" d="M13.29,129s0,.19,0,0S13.31,128.89,13.29,129Z"/><path class="cls-1" d="M11,129.36s0,0,0,0,0,0,.06,0,0-.09,0-.08S11,129.3,11,129.36Z"/><path class="cls-1" d="M11.05,129.33l0,0Z"/><polygon class="cls-1" points="12.77 126.43 12.75 126.38 12.71 126.37 12.77 126.43"/><path class="cls-1" d="M12.86,126.46l.07,0s0,0,0,0Z"/><path class="cls-1" d="M8.64,131.21h0s0,0,0-.07Z"/><polygon class="cls-1" points="7.99 130.07 8.03 130.01 7.98 130.05 7.99 130.07"/><path class="cls-1" d="M8.11,128.75a1.1,1.1,0,0,0-.11.14C8.07,128.78,8.17,128.79,8.11,128.75Z"/><path class="cls-1" d="M34.63,128.63a.39.39,0,0,1,0-.13s0-.13,0-.13a.42.42,0,0,0,0-.14s0-.05-.06-.07,0-.06,0-.11a.13.13,0,0,0-.05-.08l-.06,0s-.06,0-.06,0l-.14,0H34s-.1,0-.11,0-.06,0-.09,0h-.1a.15.15,0,0,0-.09,0l-.06,0-.14,0-.1,0-.21,0L33,128h-.16c-.07,0-.11,0-.17,0s-.11,0-.18,0-.1,0-.1,0l-.06,0s-.22,0-.22,0h-.22s-.16,0-.18,0l-.12,0s-.1,0-.12.06a.24.24,0,0,0-.05.09.06.06,0,0,0,0,0s0,.13-.05.13,0,.09,0,.13a.19.19,0,0,0,0,.07.4.4,0,0,1,0,.09s0,0,0,.07.07.15.08.17,0,.08.06.09,0,0,0,.07,0,0,0,0,0,0,0,0,0,0,.07,0,.06,0,.1,0,.44-.07.44-.09l.17,0s.11,0,.13,0l.07,0s.18,0,.18,0,.09,0,.09,0h.11s.13,0,.13,0l.16,0s0,0,.08,0,0,.15,0,.15a.25.25,0,0,1-.06.14l-.08.07s0,0-.07.06l-.12.06-.14.06s-.06,0-.11.05l-.14,0a1.07,1.07,0,0,0-.26,0s-.24,0-.24,0l-.27,0a1.17,1.17,0,0,0-.18,0s-.14,0-.14,0a1.08,1.08,0,0,0-.16-.05l-.16,0s-.08,0-.08,0l-.19-.06c-.05,0-.08,0-.14,0s-.12,0-.14-.06l0,0a.12.12,0,0,0,0-.05.42.42,0,0,1-.07-.19s0-.24,0-.24a.42.42,0,0,1,0-.13s0,0,0-.07,0-.05,0-.07a.09.09,0,0,1,0-.06s0,0,0-.07,0-.05,0-.06.06,0,.06-.08a.15.15,0,0,0,.05-.09s.07-.06.07-.1a.08.08,0,0,0,0-.06l0-.06S31,128,31,128a.17.17,0,0,1,.06-.09s0,0,0,0,.06-.07.09-.1.05,0,.05-.06,0,0,0,0,0,0,0,0,.07-.06.09-.08,0-.05.07-.07.08-.09.1-.11.06,0,.08-.07l.09-.09a.21.21,0,0,1,.1-.08A.44.44,0,0,1,32,127s.06-.06.08-.08l.06,0s.06,0,.09,0a.11.11,0,0,1,.07-.05.38.38,0,0,0,.09-.06s.08,0,.08,0l.07,0,.06,0s.05,0,.09,0l.06,0s.05,0,.09,0,.05,0,.08.05.1.09.1.13a.42.42,0,0,1,.06.11s0,.12.06.12a.11.11,0,0,0,0,.08s0,0,0,.07,0,0,0,0l.09,0a1.51,1.51,0,0,0,.16,0s.15,0,.18-.07l.08-.08s0,0,0,0a1.14,1.14,0,0,1,0-.12.78.78,0,0,0,0-.11s0-.12,0-.12,0-.14-.06-.14,0-.14,0-.21,0-.1-.06-.11a.39.39,0,0,0-.12-.16,1.48,1.48,0,0,0-.22-.19l-.11,0-.07,0a1.39,1.39,0,0,1-.19,0h-.26s-.11,0-.11,0l-.11,0-.06,0s-.06,0-.06,0-.07,0-.08,0l-.07,0s-.1,0-.13.08A.17.17,0,0,0,32,126s0,0-.06.06-.08,0-.11.07,0,0,0,0l0,0,0,0s0,0,0,0a.12.12,0,0,1-.06,0c-.06.07-.3.26-.31.28l-.08,0s0,0-.06,0-.23.24-.28.27a.18.18,0,0,0-.07.05s-.08.05-.08.08,0,0,0,0l0,0s0,0-.06.06a.22.22,0,0,0-.07.11s-.1.14-.12.16a.08.08,0,0,0,0,0,.08.08,0,0,0,0,0s0,0-.06.06l-.08.09s0,0,0,.06,0,.05-.06.07-.06,0-.06.08,0,.09-.09.12-.07.1-.07.15-.05.15-.05.17,0,.18,0,.19,0,.12,0,.14,0,.7,0,.77,0,.12,0,.13l0,0,0,.08a.8.8,0,0,0,0,.15s0,.06,0,.06l0,.06s0,0,0,.07,0,0,.05,0,.05.06.08.06a.73.73,0,0,0,.09.09l.1.06s.1.06.14.06.1,0,.12,0,0,0,.05,0a.36.36,0,0,1,.13.05c.09,0,.13,0,.21,0s.16,0,.16,0,.46.06.46,0a1.18,1.18,0,0,1,.16,0c.05,0,.09,0,.15,0s.1,0,.15,0,.12,0,.17,0,.09,0,.16,0a1.35,1.35,0,0,1,.16,0s.16,0,.16,0l.09,0s.08,0,.08,0l.12,0s.06,0,.09,0,0,.1,0,.13a2.1,2.1,0,0,1,0,.22c0,.08,0,.18,0,.28s0,.16,0,.26,0,.06,0,.07,0,.06,0,.09.06.07.1.1l0,0s0,0,0,0l.14,0a.15.15,0,0,0,.07,0s0,0,0,0,0,0,0,0,.39-.16.43-.17.07-.1.07-.18,0-.14,0-.21,0-.23,0-.23a.5.5,0,0,0,0-.13.39.39,0,0,1,0-.1s0-.06,0-.07,0-.07,0-.1,0-.09,0-.15,0-.06,0-.07a.6.6,0,0,0,0-.16.89.89,0,0,1,0-.1s0-.11,0-.11,0,0,0,0,0-.05,0-.09,0-.1,0-.18a.66.66,0,0,1,.05-.13c0-.06,0-.1,0-.15s0-.05,0-.07,0-.08,0-.08a.15.15,0,0,1,0-.06.13.13,0,0,1,0-.06.11.11,0,0,0,0-.06s0-.05,0-.08a.36.36,0,0,0,0-.17A.72.72,0,0,1,34.63,128.63Zm7.32-1.54a.22.22,0,0,0,.1,0s.06,0,.06-.09,0,0,0,0,0,0,0-.06,0-.07,0-.08,0-.07,0-.07a.82.82,0,0,0,0-.12s0-.11-.07-.11a.88.88,0,0,0,0-.13s0,0,0-.06,0,0,0-.06a.18.18,0,0,1-.06-.09.38.38,0,0,1-.07-.09s0,0-.09,0-.16,0-.18,0l-.23,0-.19,0-.08,0-.13,0-.08,0a.84.84,0,0,1-.16,0h-.08a.16.16,0,0,0-.08,0s-.19,0-.19.06l-.45.1s0,0-.09,0h-.12s-.08,0-.08,0a.78.78,0,0,0-.21.06c-.07,0-.12.08-.2.09a.57.57,0,0,0-.16,0,.34.34,0,0,0-.13.09s0,0,0,0l0,0s-.06.07-.09.09a.35.35,0,0,1,0,.08.77.77,0,0,1,0,.12,1,1,0,0,0,0,.2.52.52,0,0,0,0,.22.23.23,0,0,0,.06.07s0,0,0,0,0,.05.06.08,0,0,0,.06,0,0,0,0a.19.19,0,0,1,.08.19s0,.14,0,.14,0,.1-.06.17,0,.06,0,.07,0,0,0,0a.1.1,0,0,1,0,0,.08.08,0,0,1,0,.06c0,.07,0,.1-.05.17a1.47,1.47,0,0,0-.08.32s0,0,0,.07,0,.08,0,.13a1.39,1.39,0,0,1,0,.17.63.63,0,0,0,0,.15s0,.05,0,.09,0,.24,0,.24,0,.1,0,.15,0,.1.06.12l0,0s0,0,0,0a.06.06,0,0,0,0,0s.06,0,.06.08,0,0,0,0,0,0,0,0,.06,0,.06,0l0,0s0,0,0,.06.06,0,.07.05a.14.14,0,0,1,.07,0s0,0,.08,0a.13.13,0,0,0,.07,0s.11.06.13.06.16,0,.16.06l.12,0s0,0,0,0a.46.46,0,0,1,.15,0l.13,0c.05,0,.12,0,.17,0l.11,0a.18.18,0,0,0,.1,0,1.64,1.64,0,0,0,.45-.12h0s.16-.09.16-.15,0-.05,0-.07a.46.46,0,0,1,0-.14.52.52,0,0,1,0-.14s0-.07,0-.1,0,0,0-.06,0-.15,0-.15a.61.61,0,0,0-.11-.23s-.09-.14-.12-.16l0,0a.1.1,0,0,0-.07,0h-.08l-.06,0s-.11.06-.11.08-.11,0-.11,0l-.18,0s-.12,0-.12,0h-.09s-.18,0-.18,0-.14,0-.14-.06l-.06,0s0,0-.07,0-.07-.09-.05-.17,0-.06,0-.09.06-.05.06-.07a.11.11,0,0,1,.07,0s.06,0,.06,0h.09l.07,0h.24l.15,0c.08,0,.12,0,.2,0l.25,0h.24l.23,0a.49.49,0,0,0,.14,0h.12l.05,0s.08,0,.11,0a.1.1,0,0,0,.09-.1.53.53,0,0,0-.05-.19l0-.15s0-.06,0-.1,0-.09,0-.14a.79.79,0,0,0-.06-.13s0-.05,0-.09a.14.14,0,0,0,0-.07s-.09-.07-.13-.07l-.19,0c-.05,0-.16,0-.18.06l-.25,0s-.14,0-.15,0h-.12l-.06,0a.71.71,0,0,1-.23,0h-.12s-.06,0-.06,0,0-.14,0-.22a.42.42,0,0,1,0-.11.14.14,0,0,0,.06-.07l.12-.08s.12,0,.12,0h.05s.07,0,.09,0,.07,0,.07,0,.06,0,.11,0,.1,0,.12,0,.14,0,.14,0l.09,0s.07,0,.13,0l.13,0,.17,0,.11,0s.09,0,.13,0l.18,0s.07,0,.11,0S41.94,127.12,41.94,127.1Zm3.86-.37-.06-.11a0,0,0,0,0,0,0,.12.12,0,0,0,0,0,.12.12,0,0,1,0-.05.31.31,0,0,1-.11-.2,1.06,1.06,0,0,1-.11-.1s0,0-.06,0,0,0,0,0-.1,0-.15,0a1.45,1.45,0,0,0-.29,0l-.13,0h-.09l-.08,0h-.08s-.16,0-.19,0-.08,0-.09,0l0,0-.2,0s-.15,0-.18,0-.17,0-.17,0a.45.45,0,0,1-.12,0h-.1l-.21,0s-.08,0-.09,0-.06,0-.06,0,0,0,0,0h0l-.22.1-.08.05-.07.05,0,0s0,0,0,0a.54.54,0,0,0,0,.12,1.69,1.69,0,0,1,0,.23.63.63,0,0,1-.06.17.4.4,0,0,1,0,.09.56.56,0,0,1,0,.14s0,.06,0,.08,0,.07,0,.07,0,0,0,.07,0,.08,0,.08-.07.11-.07.16a1,1,0,0,0,0,.15s0,.16,0,.18a.89.89,0,0,1,0,.16s0,.06,0,.06,0,.08,0,.1,0,.14,0,.16,0,.12,0,.15-.05.21-.06.32,0,.14,0,.21a.42.42,0,0,0,0,.17s0,.17,0,.19a.58.58,0,0,1,0,.16s0,0,0,0,0,0,0,0,0,0,0,0,.06,0,.08.07a.19.19,0,0,1,0,.08s0,.13.08.13,0,0,0,.07l.06.06s0,0,0,0,0,0,0,.06.05.06.08.06.07,0,.1,0,.11,0,.14,0,.11,0,.13,0l.06,0,.09,0,.07,0a.16.16,0,0,0,.14,0,.09.09,0,0,1,.08,0,.13.13,0,0,0,.09,0s.08,0,.08,0h0s.21,0,.26,0l.4-.05.1,0s.12,0,.13-.05.12,0,.15-.1.08-.09.09-.14l0-.06s0-.09,0-.13a.35.35,0,0,0,0-.13s0-.23-.05-.25,0-.09-.05-.11,0,0,0-.07,0,0,0-.05a.05.05,0,0,0,0,0l-.06-.06a.13.13,0,0,1,0-.06c-.06,0-.07-.08-.14-.07l-.07,0-.06,0s0,0-.07,0,0,.06-.07.06-.11,0-.11,0-.15,0-.15,0h0s0,0-.06,0h-.06a.8.8,0,0,1-.37,0l-.12,0s-.1,0-.12,0-.09,0-.11,0-.06-.06-.07-.11a.27.27,0,0,1,0-.14s.06,0,.07-.09,0,0,0,0h.16s.16,0,.16,0h.22l0,0s.21,0,.21,0l.06,0a3.46,3.46,0,0,0,.54-.08l.21,0s.06,0,.06,0l.09,0c.07,0,.09,0,.16-.05l.11,0s.05,0,.05,0,.12,0,.12-.07a.15.15,0,0,0,.06-.11s0-.19,0-.19v-.1s0-.06,0-.09l0-.06a.07.07,0,0,1,0-.06s0-.12-.07-.12a.27.27,0,0,0-.08-.16s0,0,0-.06l0,0s0,0,0,0,0,0-.05,0l-.06,0h-.07l-.08,0s-.1,0-.11,0l-.06,0s-.06,0-.1,0-.11,0-.11,0a.73.73,0,0,1-.16,0,1.55,1.55,0,0,1-.32.06s-.19,0-.19,0h-.1s-.05,0-.09-.06,0-.08,0-.11a.15.15,0,0,0,0-.06.22.22,0,0,0,.06-.11l0-.08.06-.05.05-.06,0,0a.12.12,0,0,0,.07,0s0,0,.07,0l.07,0s.05,0,.07,0a2.34,2.34,0,0,1,.39-.06c.15,0,.29,0,.45,0s.08,0,.08,0,.09,0,.09,0l.05,0h.09s.3-.06.34-.05a.94.94,0,0,0,.23,0l.07,0A.56.56,0,0,0,45.8,126.73ZM56.41,129a19.63,19.63,0,0,0,.06-.14s0-.07,0-.09,0-.22,0-.24l0-.13a.62.62,0,0,0,0-.13s0-.1-.06-.16,0-.07,0-.07-.06-.07-.09-.09a.39.39,0,0,0-.15,0s-.06,0-.08.06l-.07,0,0,0s0,0-.07,0l-.13.06a.47.47,0,0,0-.11,0s-.08,0-.1,0-.19,0-.19,0-.09,0-.09,0h-.14a1.07,1.07,0,0,1-.28,0s-.21,0-.21,0a.1.1,0,0,1-.07,0l-.06,0v-.07s0-.06,0-.07,0-.06.06-.08a.07.07,0,0,1,0,0s0,0,0,0,0,0,0,0a.14.14,0,0,1,0-.07s0,0,.06-.08,0,0,.06,0l.06,0s.14,0,.14,0,.1,0,.1,0,.05,0,.08,0,.22,0,.22,0a.53.53,0,0,0,.15,0l.19,0s.09,0,.09,0h.11s.14,0,.17,0,.14,0,.2,0,.16,0,.16,0a1.4,1.4,0,0,0,.3-.05l.19,0c.06,0,.12,0,.17,0l.11-.06.07-.06a.23.23,0,0,0,0-.12s0-.16,0-.17,0-.3-.06-.3,0-.14-.05-.17a1.4,1.4,0,0,0-.1-.25l0,0S57,126,57,126s0,0-.07,0-.06,0-.07,0-.21,0-.21,0l-.07,0s-.09,0-.11,0-.37.09-.37.11-.91.21-.91.23-.25.07-.31.07a.88.88,0,0,1-.21,0l-.16,0s-.16,0-.16,0-.12,0-.12.11,0,0,0,0,0,0-.05.07,0,0,0,.06,0,.05,0,.08,0,0,0,.06,0,0,0,0,0,0,0,0,0,.09-.06.16a.48.48,0,0,0,0,.12.31.31,0,0,0,0,.11s0,.05,0,.06,0,.06-.06.08,0,0,0,.06,0,.06-.05.07-.05.07-.07.09,0,0-.05.06-.07-.11-.05-.17,0-.2,0-.2v-.12s0-.06,0-.09,0-.12,0-.18,0-.11,0-.11a.71.71,0,0,0,0-.11s0,0,0,0,0,0,0-.05a.13.13,0,0,1,0-.09s0,0,0,0,0,0,0,0,0-.11-.09-.13-.05-.07-.08-.08-.06-.05-.06-.07-.11,0-.11,0l-.12,0s-.06,0-.08,0l-.3-.06-.17,0L52,126h0l-.53,0H51a4.31,4.31,0,0,0-.83.07.92.92,0,0,1-.22,0s-.15,0-.16.06-.06.06-.07.08a2.44,2.44,0,0,1-.26.07s-.07.07-.1.1,0,0,0,.08a.11.11,0,0,0,0,.05s0,0-.06.05-.1-.08-.1-.12,0-.07,0-.1,0,0,0,0a.07.07,0,0,1,0,0s0,0,0,0,0,0,0,0,0,0,0,0a.25.25,0,0,0-.18-.09s-.07,0-.09,0-.08,0-.09,0a.38.38,0,0,0-.17.1.18.18,0,0,0-.05.11s0,.1,0,.1,0,.16,0,.26a.33.33,0,0,0,0,.15s0,.06,0,.1,0,.12,0,.15a.91.91,0,0,0,0,.21.88.88,0,0,0,0,.22s0,.27,0,.27,0,.06,0,.1,0,.09,0,.09a1.48,1.48,0,0,1,0,.23s0,.08,0,.13,0,0,0,0,0,.07,0,.11,0,0,0,0,0,0-.05,0-.08-.09-.13-.13-.07-.09-.09-.11a.13.13,0,0,0,0-.07s-.08-.08-.1-.11a.14.14,0,0,0,0-.07s-.05-.08-.08-.09,0,0,0,0-.11-.11-.13-.17,0-.06,0-.09,0-.06-.06-.07l0-.06a.11.11,0,0,0,0-.08s0-.05,0-.08,0-.07,0-.07a.29.29,0,0,0,0-.11.61.61,0,0,1,0-.21v-.21c0-.07,0-.13,0-.2s0-.07,0-.09,0-.24,0-.24,0-.08-.06-.08a.08.08,0,0,0-.06,0s-.1,0-.1,0-.07,0-.11-.06l-.12,0s-.22,0-.22,0l-.08,0-.07,0-.07.06s0,0-.05,0-.08.14-.08.14,0,.11,0,.16,0,.15,0,.23a.39.39,0,0,1,0,.08s0,.05,0,.08a.38.38,0,0,0,0,.21s0,.1,0,.1,0,.18,0,.28a1,1,0,0,1,0,.1s0,.1,0,.15a1.28,1.28,0,0,1,0,.14.54.54,0,0,0,0,.15.51.51,0,0,1,0,.15l0,.15a1.07,1.07,0,0,0,0,.23,1.81,1.81,0,0,1-.05.21c0,.06,0,.12,0,.17s0,.15,0,.15a3.09,3.09,0,0,1-.06.31,1.94,1.94,0,0,1,0,.28s0,0,0,.06,0,.1,0,.12,0,.14,0,.17a.3.3,0,0,1,0,.1.28.28,0,0,0,0,.09.48.48,0,0,1,0,.13.62.62,0,0,0,0,.1s0,.07,0,.12,0,.11,0,.14,0,0,0,0,0,0,.07,0,.18,0,.18.05h.12l.25,0c.09,0,.09-.07.14-.09a.45.45,0,0,1,0-.1s0,0,0-.07,0-.1,0-.12a.49.49,0,0,0,0-.14v-.15c0-.09,0-.14,0-.24a.77.77,0,0,0,0-.15s0-.16,0-.16a.32.32,0,0,1,0-.09c0-.07,0-.15,0-.21a1.94,1.94,0,0,0,.06-.24s0-.09,0-.11,0,0,0-.05,0,0,0,0,0,0,0,0,0,0,0,0a.06.06,0,0,1,.06,0s0,0,0,0,.06.08.09.09.06.05.06.09,0,.06,0,.06a.23.23,0,0,0,0,.09s0,.07.06.1a.1.1,0,0,1,0,.07s0,0,0,0l0,.07s0,0,0,.07a.2.2,0,0,1,.05.07s0,0,.06.07,0,.05,0,.08,0,.09.06.1,0,.06,0,.07,0,.06,0,.09a.45.45,0,0,1,0,.09s0,.11,0,.12,0,.14,0,.14v.18s0,.08,0,.1a.27.27,0,0,1,0,.1s0,.09,0,.09a.08.08,0,0,0,0,.05l.08.09.08.08a.57.57,0,0,0,.17,0h.32l.08,0,.08,0s0-.05,0-.08,0,0,0-.06l0-.11s0-.13,0-.15a1.32,1.32,0,0,0,0-.24s0-.11,0-.15,0,0,0-.07,0-.19,0-.26,0-.12,0-.15a1.38,1.38,0,0,1,0-.24,1.56,1.56,0,0,0,0-.27,1.59,1.59,0,0,1,0-.16s0-.08,0-.13,0-.11,0-.12a1.18,1.18,0,0,1,0-.14s0-.08,0-.13,0-.1,0-.15a.42.42,0,0,1,0-.09,1.29,1.29,0,0,0,0-.29s0-.09,0-.14a.47.47,0,0,0,0-.08c0-.07,0-.13,0-.2s-.08-.09-.06-.17a.38.38,0,0,0,0-.1.12.12,0,0,1,0-.09s.05,0,.1,0a.6.6,0,0,0,.1.1s.09,0,.13,0,.2,0,.2,0,.17,0,.17,0a.1.1,0,0,0,.08,0l.06,0s.09-.06.13-.06l.07,0s.08,0,.1,0a.31.31,0,0,0,.13,0,.17.17,0,0,1,.09,0s.06,0,.08,0l.06.07c0,.11,0,.22,0,.33a.59.59,0,0,1,0,.16s0,.08,0,.11l0,0a.21.21,0,0,0-.05.05l-.1,0s-.07,0-.09,0h-.11S50,128,50,128s0,.1,0,.1-.09.49-.08.49l0,.11a.17.17,0,0,0,.06.12s0,.06.06.06l0,.07s.05.05.07.08.06,0,.08.07,0,0,.08,0l.1,0a1.79,1.79,0,0,1,0,.26s0,.06,0,.09,0,.25,0,.28,0,0,0,.07,0,0,0,.08a1.32,1.32,0,0,0,0,.24s0,.28,0,.28v.09s0,.15.05.16a.27.27,0,0,0,.13.13s.05,0,.07,0,0,0,.06,0l0,0a.26.26,0,0,0,.08,0s.22,0,.22,0,.07,0,.07,0l.06,0a.3.3,0,0,1,.06-.05l0,0s0,0,0-.07,0-.28,0-.3a.42.42,0,0,1,0-.09.23.23,0,0,0,0-.1,1.17,1.17,0,0,1,0-.22s0-.24,0-.26,0-.14,0-.16,0-.24,0-.24,0-.14,0-.14,0-.14,0-.22a.64.64,0,0,1,0-.1s0,0,0,0,0,0,.06,0l.26-.06s.09,0,.09-.05l.07,0s.07,0,.09,0,.12,0,.14,0l.07,0,.05,0,0,0h.06s.06,0,.06,0,.11,0,.11,0,0,0,.06,0,.54-.43.57-.43l.06,0,.08,0s0,0,0,0,0,.15,0,.15,0,0,0,.06a.78.78,0,0,0,0,.14s0,.11-.06.11a.16.16,0,0,1,0,.06s0,0,0,.06,0,.05,0,.08,0,.06,0,.07,0,.13,0,.13-.05.16,0,.16,0,.11,0,.17a.63.63,0,0,1,0,.16s0,.09,0,.09a.74.74,0,0,1,0,.14.58.58,0,0,0,0,.18.33.33,0,0,0,0,.13,1.38,1.38,0,0,1,0,.19s0,.21,0,.21a.13.13,0,0,0,0,.06s0,0,0,.07,0,0,0,0,0,0,0,0,0,.06.07.09.06.13.12.13.06.05.09.08,0,.05.08.05a.14.14,0,0,0,.08.05l.07,0s.08,0,.09,0l.06,0,.07,0s.13,0,.16,0a1,1,0,0,0,.15,0s.09,0,.11,0l.14,0h.15a1.82,1.82,0,0,0,.26,0s0,0,0,0a.41.41,0,0,0,.15,0,.66.66,0,0,1,.12,0s.14,0,.14-.07.12,0,.13-.06.08,0,.09-.05l0,0a.13.13,0,0,0,.07,0s.1-.08.1-.11,0-.07.06-.11a1.23,1.23,0,0,1,0-.14s0-.19,0-.19,0-.27,0-.27,0-.08,0-.14,0-.08,0-.09,0,0-.05-.06-.07-.08-.12-.08l-.17,0-.12,0s-.08,0-.12,0,0,0-.09,0l-.06,0s-.06,0-.06,0l-.09,0s-.06,0-.07,0-.09,0-.1,0a.79.79,0,0,1-.28,0,.73.73,0,0,1-.19,0s0,0-.06,0-.05,0-.07,0a.12.12,0,0,0-.08-.05l-.05-.06s-.05-.08-.06-.08a.65.65,0,0,1,0-.1l.06-.08s0,0,0,0,0,0,.06,0,.09-.05.15-.05l.22,0c.08,0,1.06-.15,1.11-.15l.45-.07h.13l.08,0,.08,0,.06,0S56.39,129,56.41,129Zm-4-1.73a.25.25,0,0,1-.09.14l-.06,0a.16.16,0,0,1-.08.05l-.05,0a.06.06,0,0,1,0,0l-.08,0a.22.22,0,0,1-.12.07.53.53,0,0,1-.15,0s-.09,0-.11,0a.17.17,0,0,1-.11,0s0,0,0,0,0,0,0,0,0-.12,0-.12,0-.16,0-.16,0-.09,0-.09,0-.06,0-.08,0,0,0-.08,0-.1.06-.11h.23s.07,0,.07,0h.33l.07,0s.08,0,.12,0,.13,0,.15.07S52.46,127.27,52.43,127.27Zm16.46-.51s0-.09,0-.09a.24.24,0,0,0,0-.09s0-.07-.06-.11,0-.08-.06-.08,0,0,0-.06l-.09-.09s0,0,0-.06-.05,0-.07-.06l-.07,0a.26.26,0,0,0-.13,0,.77.77,0,0,1-.18,0s-.11,0-.11.06l-.33.07-.14,0s-.35.07-.42.07-.17,0-.17,0h-.21a1,1,0,0,1-.24,0c-.1,0-.19,0-.28.05l-.56.09-.54.08H65l-.15,0s-.16,0-.16,0a.09.09,0,0,0-.08,0s-.05,0-.07.07-.05.05-.07.07,0,.09,0,.12-.06.1-.06.13,0,.11,0,.11,0,.07,0,.09,0,.06,0,.1a.29.29,0,0,1,0,.15s0,0,0,0,0,0,0,0,0,.07,0,.07,0,0,0,.07,0,.08,0,.12-.06.11-.06.14a.18.18,0,0,0,0,.06s0,0,0,.05a.67.67,0,0,0-.06.16.57.57,0,0,0-.06.16s0,.13,0,.13a.43.43,0,0,0,0,.14s0,.14,0,.14,0,.11,0,.16,0,.39,0,.39-.08.11-.13.07,0,0,0,0,0,0,0,0,0,0,0,0,0,0-.05,0,0,0,0,0-.07,0-.07,0a.11.11,0,0,0-.06,0s-.08,0-.1.07a.24.24,0,0,1-.1.06s0,0-.06,0,0,0,0,0l-.1,0s-.11,0-.11,0h-.08a.86.86,0,0,1-.2,0,.82.82,0,0,1-.17,0,.45.45,0,0,1-.15,0l-.15,0s-.11,0-.11-.05-.07,0-.11,0-.11,0-.11-.06,0,0-.08,0a.08.08,0,0,0-.05,0h0s0,0,0,0,0-.05-.07-.05-.13-.09-.15-.12-.06,0-.08-.06,0,0-.07,0,0,0,0,0l0,0s0,0-.08-.05-.06,0-.06-.07,0,0,0,0,0-.08,0-.12,0-.1,0-.15a.39.39,0,0,0,0-.1.21.21,0,0,1,.05-.07s0,0,0-.05,0,0,.06-.06a.15.15,0,0,1,0-.08.16.16,0,0,1,.06-.07.21.21,0,0,1,.07-.09s0,0,0-.07,0,0,.06-.07a.19.19,0,0,1,.09-.09l.08-.07s.06,0,.06-.07a.24.24,0,0,1,.1-.06l.09-.08.07,0s.06,0,.06,0,0,0,.09-.06.09,0,.09,0l.05,0,.1,0,.06,0h.13s.07,0,.07,0,0,.08,0,.1a.23.23,0,0,1,0,.12.88.88,0,0,0,0,.21s0,.06,0,.06,0,.14,0,.15a.27.27,0,0,0,0,.16l0,0,0,0,0,0,0,0a.1.1,0,0,1,.06,0s0,0,.07,0,.13,0,.15,0,0,0,0,0,.09,0,.09,0h.21s.05,0,.09-.06a.09.09,0,0,1,0-.06s0,0,0-.06,0,0,0-.05,0-.07.06-.11,0,0,0,0,0-.16.06-.16,0,0,0-.07,0-.06,0-.08,0-.17,0-.21a1,1,0,0,0,0-.18s0-.17,0-.17,0-.11,0-.11a.24.24,0,0,0,0-.11s0-.09-.08-.12-.05,0-.05-.07,0,0,0,0a.37.37,0,0,1-.07-.07s-.06,0-.08-.07-.05-.07-.09-.08,0,0,0,0l-.07,0a.31.31,0,0,0-.12,0h-.17a1.22,1.22,0,0,0-.33,0h-.12l-.06,0h-.08l-.31.08-.06,0-.07,0-.12,0-.09,0a1.2,1.2,0,0,1-.13,0s-.11.07-.15.07-.06,0-.09.05l0,0s-.07,0-.08,0L61,127l-.07,0s0,.05-.07.05a.5.5,0,0,1-.15.1s0,0-.06,0l-.07.05-.06,0s0,0,0,.05-.09.09-.1.11,0,.07-.09.07l0,0s0,0,0,0a.1.1,0,0,0,0,.05.13.13,0,0,0,0,.08s0,.05,0,.09,0,.08-.06.09,0,.05,0,.05,0,.09-.07.09-.07-.11-.07-.15,0,0,0-.07,0-.07,0-.09,0-.13,0-.16a1.17,1.17,0,0,1,0-.17s0-.14,0-.14,0-.11,0-.17a1.45,1.45,0,0,0,0-.27s0-.06,0-.06a.1.1,0,0,0,0-.07s0,0-.05-.08,0,0,0-.06a.17.17,0,0,0-.05-.08s0-.05,0-.07a2.16,2.16,0,0,1-.17-.24s0-.06-.07-.06-.08-.06-.12-.08H59l0,0c-.06,0-.2-.05-.24,0s0,0-.07,0,0,.05-.06.05a.4.4,0,0,1-.09.08s0,0-.07.07l-.07.07-.07.07s0,0,0,0-.1.1-.12.14a.21.21,0,0,0,0,.08s0,.09-.08.11a.09.09,0,0,1,0,.06.09.09,0,0,1,0,.05c0,.08-.09.11-.11.19s0,.06,0,.06,0,.07,0,.1,0,0,0,.06,0,.05,0,.08,0,0,0,.06,0,.05,0,.08,0,.07,0,.08,0,0,0,.07,0,.06,0,.06a.1.1,0,0,1,0,.07c0,.05,0,.07-.06.12s0,.07,0,.1a.28.28,0,0,0-.06.11s0,.07,0,.09a.25.25,0,0,1-.07.11s-.06.07-.08.07,0,0,0,0,0,0-.06,0-.06.05-.08.08a.8.8,0,0,1,0,.11.47.47,0,0,0,0,.11s0,.05,0,.08,0,.15-.06.15,0,.07,0,.07,0,.05,0,.07,0,.11-.05.11-.05.1-.07.16a.21.21,0,0,0-.07.11.18.18,0,0,0-.06.08.12.12,0,0,0,0,.06s0,0-.06.06,0,0,0,0-.06.1-.08.16,0,.13-.06.19,0,.1,0,.12,0,0,0,.06a1.79,1.79,0,0,0,0,.2s0,.13.07.15,0,0,.06.06a3.22,3.22,0,0,1,.38.19s.09,0,.13,0l.1-.09s0,0,0,0l0,0c0-.05,0-.08.06-.14s0,0,0,0,0,0,0-.06.08-.21.1-.21a.52.52,0,0,1,0-.08l0-.06s0,0,0-.06,0,0,0-.06,0,0,0-.06,0-.08.05-.09l.1-.11.08,0,0,0s.13,0,.13,0l.19,0,.14,0,.12,0h.28s.22,0,.22,0a.17.17,0,0,1,.11.14,1.4,1.4,0,0,1,0,.25,1.1,1.1,0,0,0,0,.22,1.43,1.43,0,0,0,0,.34c0,.06,0,.18.06.21s0,0,0,.08a.29.29,0,0,1,.07.08.21.21,0,0,0,.13.05s.08,0,.1,0a.18.18,0,0,0,.08,0s0,0,0,0h0s.08,0,.1,0,0,0,0,0a.23.23,0,0,0,.08-.06.3.3,0,0,0,.07-.12.88.88,0,0,0,0-.1s0-.06,0-.09,0-.19,0-.19,0-.2,0-.31,0-.17,0-.26,0-.2,0-.3a.54.54,0,0,0,0-.15s0,0,0,0H60l.05.06s0,0,0,.06,0,0,0,0,.06.1.11.14a.34.34,0,0,0,.11.14s0,0,0,0,0,0,0,0,0,0,0,.05.1.08.15.13.1.08.15.11.06,0,.09.07.05,0,.06.05l.07,0a.16.16,0,0,0,.08.05.26.26,0,0,1,.08.06l.06,0,0,0a.09.09,0,0,0,.06,0s.06,0,.07.05l.06,0,.09,0s.06.05.09.05,0,0,.06,0,.13,0,.13,0,0,0,.08,0,.07,0,.08,0,.07,0,.09,0l.09,0s.08,0,.13,0l.07,0s.07,0,.08,0l.08,0h.12a2.25,2.25,0,0,0,.25,0H63l.08,0s.08,0,.13,0,.09-.06.12-.1l.09-.08s0-.06.06-.08a.12.12,0,0,0,0-.06.68.68,0,0,0,.06-.1.22.22,0,0,0,.05-.11s0-.06,0-.08,0,0,0-.07,0-.11.09-.11l.06,0s0,0,.05.06a.13.13,0,0,0,0,.06s.06.07.08.07,0,0,0,.06,0,0,0,0l0,0,.09.08s0,0,0,0,0,0,0,0l.08,0a.16.16,0,0,0,.07,0c0,.05.31.12.33.12a.67.67,0,0,0,.19,0s.18,0,.19,0a5.88,5.88,0,0,0,1.08-.14,2.35,2.35,0,0,0,.32-.13c.05,0,.13-.26.13-.28a3.87,3.87,0,0,0,0-.49.12.12,0,0,0-.09-.09.16.16,0,0,0-.06-.07s-.12-.12-.08-.17.06,0,.06,0,.05,0,.09,0a.43.43,0,0,1,.14,0s.12-.08.13-.11.06-.11.09-.13a.08.08,0,0,0,0-.06s0-.17,0-.2,0-.09,0-.14,0-.05,0-.09,0-.08,0-.1-.21-.34-.21-.36,0-.05-.06-.05,0,0-.05,0l-.05,0-.06,0c-.07,0-.13,0-.18,0l-.16,0-.22,0h-.21l-.21,0h-.15s-.1,0-.1,0l-.21,0a.14.14,0,0,1-.05-.14s.1-.16.1-.19,0,0,0,0,0-.06,0-.08l.12-.09s0,0,.07-.05a3.57,3.57,0,0,1,.47-.07c.08,0,.1,0,.18,0l.29,0,.24,0s.15,0,.15,0h.13a.3.3,0,0,0,.11,0,.23.23,0,0,1,.11,0h.08l.28,0a.55.55,0,0,1,.16,0h.06a.25.25,0,0,0,.09,0h.35l.39,0,.15,0h.07a.14.14,0,0,0,.11,0,.08.08,0,0,0,0-.09A2.48,2.48,0,0,0,68.89,126.76Zm-10,1.22c0,.07,0,.11,0,.17s0,0,0,0,0,.06-.06.07a.16.16,0,0,1-.13,0s-.1,0-.14,0-.12,0-.12,0,0-.12,0-.18,0,0,0,0,0-.06,0-.06a.19.19,0,0,1,.06-.1s0-.06,0-.1,0-.08,0-.09,0,0,0-.07a.72.72,0,0,0,0-.08l.06-.11s0,0,0,0,.07-.06.1,0,0,.09.05.13a2.12,2.12,0,0,0,0,.24A1.19,1.19,0,0,1,58.92,128Zm6.59,1.53s.22,0,.28,0l.17,0s0,0,0,0a.36.36,0,0,0,.1,0h.09a.11.11,0,0,1,.08,0,.08.08,0,0,1,0,.07.11.11,0,0,1,0,.06l-.53.07a3.59,3.59,0,0,1-.6.07s-.07,0-.07,0-.12,0-.12,0,0,0,0,0,0,0,0,0l-.07,0s-.16-.08-.14-.13a.16.16,0,0,1,.2-.11s.09,0,.11,0,0,0,0,0Zm-27.2.24-.06,0s0-.06-.06-.06l0-.06c-.07,0-.08-.1-.14-.12l-.08,0-.06,0s0,0-.06-.06l-.07,0-.08,0s-.06-.09-.09-.09l-.07,0-.07-.07a.83.83,0,0,0-.07-.09s-.07-.05-.07-.08,0-.07,0-.08a.18.18,0,0,1,0-.05.09.09,0,0,0,0-.07.6.6,0,0,0,.13-.13.25.25,0,0,1,.06-.07s0,0,0,0,0-.07,0-.07,0-.05.05-.08.05-.07.05-.12,0-.12,0-.14,0-.11,0-.11,0-.06,0-.06,0,0,0-.08a.4.4,0,0,1,0-.09.18.18,0,0,0,0-.06s0-.07,0-.09,0-.1,0-.15,0,0,0-.08,0-.12,0-.12,0-.1,0-.15a.33.33,0,0,1,0-.11s0-.07,0-.09,0,0,0-.06,0-.14-.06-.14-.05,0-.05-.08a.81.81,0,0,1-.12-.21s0,0,0-.06-.08-.07-.08-.1,0-.07-.08-.07a.18.18,0,0,0-.1-.07c-.05,0,0,0-.07-.07a.14.14,0,0,0-.1,0s-.14,0-.14,0-.14,0-.21,0l-.07,0h-.07s0,0,0,0-.11,0-.14,0l-.18,0s-.22,0-.22,0H35.8s-.11,0-.11,0a.2.2,0,0,0-.12.06.14.14,0,0,1-.07.05s-.06,0-.06.08-.08.16-.12.23a.3.3,0,0,0,0,.19.71.71,0,0,0,0,.2.4.4,0,0,1,0,.09s0,.05,0,.06,0,.05,0,.06a.09.09,0,0,0,0,.06.29.29,0,0,0,.06.09s0,0,.05.07,0,.08,0,.08,0,0,0,.07,0,.12,0,.14,0,.13,0,.13-.07.15-.08.25a1,1,0,0,0,0,.1s0,0,0,0,0,0,0,0,0,0,0,.07h-.06s0,0-.06,0-.06,0-.07,0-.06,0-.06.06,0,.07,0,.09-.05,0-.06.06,0,.08,0,.13a.46.46,0,0,0,0,.12,1.19,1.19,0,0,0,0,.13.49.49,0,0,0,0,.13s0,0,0,.06,0,.06.05.09L35,129s0,0,0,0,0,.07,0,.12a2.49,2.49,0,0,0,0,.25c0,.09,0,.17,0,.25a1.06,1.06,0,0,1,0,.18,2.13,2.13,0,0,1,0,.23s0,.09,0,.09,0,.11,0,.16a1.13,1.13,0,0,1,0,.14.17.17,0,0,1,0,.06.21.21,0,0,1,0,.06s0,.05.06.07,0,0,.05.06.09.12.17.14.19,0,.19,0h.07a.17.17,0,0,0,.14,0,.16.16,0,0,1,0-.08s0,0,0-.06,0-.07,0-.07,0,0,0-.08a1.64,1.64,0,0,0,0-.21s0-.16,0-.19,0-.09,0-.13,0-.07,0-.1a.62.62,0,0,0,0-.13.2.2,0,0,1,0-.11.93.93,0,0,0,0-.17s.07-.12.07-.14,0-.06.07-.06,0,0,.08,0,.05.08.09.08.06.06.08.08,0,0,.07,0l.06,0s.1.06.13.11.07,0,.08.06a.2.2,0,0,0,.08.06s0,0,.06.06l.08.07s.05.07.08.07a.34.34,0,0,0,.07.08s0,0,.06.06,0,.05.06.07.06.08.09.08.05.05.06.08l.09.09s.06,0,.08.07.05.06.09.06l.07,0c.06,0,.09,0,.16,0s.16,0,.16,0a.19.19,0,0,0,.14-.09l.06,0s0,0,0-.08l0,0s.05,0,.05-.08.07-.05.07-.08,0,0,0,0a.16.16,0,0,0,.06-.14c0-.09,0-.19,0-.28Zm-1.38-2.45a1,1,0,0,0,0,.09.22.22,0,0,0,0,.07.15.15,0,0,0,0,.07l0,.05a.23.23,0,0,1-.07.09s-.06.09-.09.09,0,0,0,0,0,0,0,0a.19.19,0,0,0-.07,0l0,0h-.11s0,0,0-.07,0-.2,0-.22a.67.67,0,0,0,0-.08s0-.11,0-.11,0,0,0-.09,0-.1,0-.12a.45.45,0,0,0,0-.17.42.42,0,0,1,0-.16.22.22,0,0,1,.07-.11c.07,0,.1,0,.16,0l.13.06s.07,0,.09.08,0,0,.06.05a.16.16,0,0,0,0,.06.37.37,0,0,1,0,.11S36.95,127.3,36.92,127.3Z"/></g></g></svg>