<svg xmlns="http://www.w3.org/2000/svg" viewBox="0 0 64.49 64.5"><defs><style>.cls-1,.cls-2{fill:#fff;}.cls-2{opacity:0.3;}.cls-3,.cls-4{fill:#005f67;}.cls-3{opacity:0.6;}</style></defs><title>Asset 3</title><g id="Layer_2" data-name="Layer 2"><g id="Layer_4" data-name="Layer 4"><path class="cls-1" d="M3.95,34.44c.26-.28.14-.36.6.22a12.53,12.53,0,0,0,2.54,2.47c3,2.27,6,2.14,8.72-.53a22.12,22.12,0,0,0,1.87-2.12c.35-.45.53-.38.83,0a15.45,15.45,0,0,0,2.05,2.26c3.11,2.74,6.25,2.66,9.22-.25a8.9,8.9,0,0,0,1.59-1.76c.63-1.1.72-.67,1.25,0a11.88,11.88,0,0,0,3.45,3.07,5.31,5.31,0,0,0,6.42-.42A9.87,9.87,0,0,0,45,35c.9-1.43.93-.89,1.69,0a15.14,15.14,0,0,0,2.47,2.33c2.53,1.88,4.62,1.95,7.19.14a12.61,12.61,0,0,0,2.81-2.76c.46-.62.82-.57,1.27,0a13.41,13.41,0,0,0,3.11,2.94,5.22,5.22,0,0,0,.46.29A32.25,32.25,0,1,0,.46,37.65,8.58,8.58,0,0,0,1.38,37,34.54,34.54,0,0,0,3.95,34.44Z"/><path class="cls-2" d="M58.93,37.42a8.16,8.16,0,0,1-6.82,2.87,9,9,0,0,1-5.64-3c-.54-.54-.79-.5-1.28,0-2.14,2.27-4.69,3.53-7.9,2.87a9.15,9.15,0,0,1-4.73-2.92c-.5-.52-.73-.51-1.21,0a8.69,8.69,0,0,1-6.46,3h-.47l-.11,0-.1,0a8.26,8.26,0,0,1-5.36-2.84c-.64-.65-1-.6-1.58,0-2.11,2.16-4.6,3.4-7.73,2.73A9,9,0,0,1,5,37.41c-.56-.58-.92-.69-1.53,0a8.44,8.44,0,0,1-2.66,2,32.24,32.24,0,0,0,62.83.26,10.18,10.18,0,0,1-3.11-2.25C59.84,36.68,59.5,36.83,58.93,37.42Z"/><path class="cls-3" d="M63.52,37.65a13.41,13.41,0,0,1-3.11-2.94c-.45-.61-.8-.65-1.27,0a12.61,12.61,0,0,1-2.81,2.76c-2.57,1.8-4.65,1.74-7.19-.14A15.14,15.14,0,0,1,46.69,35c-.76-.88-.79-1.43-1.69,0a9.87,9.87,0,0,1-2.5,2.44,5.31,5.31,0,0,1-6.42.42,11.88,11.88,0,0,1-3.45-3.07c-.53-.68-.62-1.1-1.25,0a8.9,8.9,0,0,1-1.59,1.76c-3,2.91-6.11,3-9.22.25a15.45,15.45,0,0,1-2.05-2.26c-.3-.4-.48-.47-.83,0a22.12,22.12,0,0,1-1.87,2.12c-2.68,2.68-5.71,2.8-8.72.53a12.53,12.53,0,0,1-2.54-2.47c-.46-.58-.34-.5-.6-.22A34.54,34.54,0,0,1,1.38,37a8.58,8.58,0,0,1-.91.69q.15.87.34,1.72a8.44,8.44,0,0,0,2.66-2c.61-.66,1-.55,1.53,0a9,9,0,0,0,4.57,2.75c3.12.66,5.61-.57,7.73-2.73.61-.63.94-.68,1.58,0a8.26,8.26,0,0,0,5.36,2.84l.1,0,.11,0h.47a8.69,8.69,0,0,0,6.46-3c.48-.51.72-.52,1.21,0a9.15,9.15,0,0,0,4.73,2.92c3.21.66,5.75-.6,7.9-2.87.49-.52.74-.55,1.28,0a9,9,0,0,0,5.64,3,8.16,8.16,0,0,0,6.82-2.87c.57-.59.91-.74,1.59,0a10.18,10.18,0,0,0,3.11,2.25q.2-.84.35-1.69A5.22,5.22,0,0,1,63.52,37.65Z"/><path class="cls-4" d="M21.17,45.1a18.66,18.66,0,0,0,9.45,2.66c5.39,0,8.54-2.85,8.54-7,0-3.81-2.18-6-7.69-8.11-6.66-2.36-10.78-5.81-10.78-11.57C20.68,14.77,26,10,33.88,10a18.53,18.53,0,0,1,9,2l-1.45,4.3a16.27,16.27,0,0,0-7.75-1.94c-5.57,0-7.69,3.33-7.69,6.11,0,3.81,2.48,5.69,8.11,7.87,6.9,2.66,10.41,6,10.41,12,0,6.3-4.66,11.75-14.29,11.75-3.93,0-8.23-1.15-10.41-2.6Z"/></g></g></svg>