<svg xmlns="http://www.w3.org/2000/svg" viewBox="0 0 64.49 64.5"><defs><style>.cls-1{fill:#fff;}.cls-2{fill:#005f67;fill-rule:evenodd;}</style></defs><title>Asset 16</title><g id="Layer_2" data-name="Layer 2"><g id="Layer_4" data-name="Layer 4"><path class="cls-1" d="M32.25,0A32.22,32.22,0,0,0,.46,37.65q.15.87.34,1.72a32.24,32.24,0,0,0,62.83.26q.2-.84.35-1.69A32.21,32.21,0,0,0,32.25,0Z"/><path class="cls-2" d="M25,50.83l-3.05,5.38c-.41.73-.49.76-1.21.35-1.34-.75-2.66-1.53-4-2.27-.45-.25-.51-.5-.25-.94,1-1.62,1.91-3.25,2.86-4.88.11-.19.21-.38.34-.62L14,48.37c-.78.07-.92-.08-.78-.83.26-1.31.55-2.62.81-3.93a.67.67,0,0,1,.73-.59c2.43-.15,4.86-.33,7.29-.45a1.21,1.21,0,0,0,1.14-.67c1.34-2.31,2.73-4.59,4.14-7-.26,0-.45,0-.63,0L19.12,35a.71.71,0,0,0-.71.38C17,37.67,15.45,39.91,14,42.17c-.25.38-.55.35-.91.23l-3.8-1.27c-.65-.22-.72-.45-.32-1L12,36l.36-.52c-.27,0-.47,0-.67,0H6.18c-.82,0-.87,0-.88-.84,0-1.47,0-2.94,0-4.41,0-.65.23-.83.85-.82,2,0,4.08,0,6.25,0L12,28.76C11,27.4,10,26,9.07,24.68c-.43-.6-.36-.79.34-1,1.26-.43,2.54-.84,3.79-1.29a.67.67,0,0,1,.92.34q2,3.16,4.1,6.28a1.05,1.05,0,0,0,.69.48c2.79,0,5.57,0,8.38,0a3.77,3.77,0,0,0-.19-.38c-1.3-2.18-2.62-4.36-3.91-6.56a1,1,0,0,0-.93-.54c-2.48-.11-5-.26-7.43-.38a.65.65,0,0,1-.7-.62q-.39-2-.79-4.06c-.11-.54.07-.79.65-.73l5,.48.81.08-2.28-4c-.33-.57-.65-1.14-1-1.71-.21-.34-.18-.61.19-.82L21,7.88c.42-.24.63,0,.83.32.91,1.63,1.83,3.25,2.75,4.87.11.19.22.37.4.66.68-1.56,1.34-3,2-4.51.76-1.82.7-1.83,2.07-.5.73.7,1.48,1.38,2.26,2a.82.82,0,0,1,.23,1.18q-1.68,3.28-3.29,6.59a1,1,0,0,0,0,.76c1.29,2.39,2.62,4.77,3.93,7.14a1.58,1.58,0,0,0,.17.2l1.3-2.34c.89-1.61,1.77-3.23,2.68-4.83a1,1,0,0,0,0-1C35.1,16.21,34,14,32.87,11.79a.72.72,0,0,1,.19-1C34.05,9.9,35,9,36,8.13c.61-.54.83-.49,1.15.24l2.34,5.24c.13-.18.23-.31.31-.45.94-1.66,1.89-3.32,2.79-5,.3-.56.6-.63,1.14-.31,1.29.79,2.61,1.53,3.93,2.27.47.26.54.54.26,1-.94,1.58-1.86,3.18-2.79,4.77-.12.2-.22.41-.39.73l3.42-.34L50.66,16c.49-.06.73.14.63.63-.28,1.44-.58,2.88-.87,4.32-.08.4-.34.49-.72.51-2.37.12-4.73.28-7.1.39a1.43,1.43,0,0,0-1.35.79c-1.3,2.26-2.67,4.48-4.06,6.78a4.11,4.11,0,0,0,.48.05c2.55-.05,5.09-.11,7.64-.15a1,1,0,0,0,1-.53c1.3-2,2.65-4,3.95-6.07a.89.89,0,0,1,1.24-.44c1.21.44,2.45.8,3.68,1.22.69.23.74.4.33,1l-2.9,4.08-.45.68H53.9c1.49,0,3,0,4.48,0,.49,0,.73.14.73.67,0,1.56,0,3.12.09,4.68,0,.63-.23.8-.81.79-2.06,0-4.13,0-6.28,0l.52.73c.94,1.29,1.89,2.59,2.83,3.89.41.58.34.77-.32,1-1.29.44-2.58.86-3.86,1.31a.75.75,0,0,1-1-.39q-2-3.11-4-6.18a1.08,1.08,0,0,0-.69-.48c-2.72-.08-5.44-.13-8.17-.18a1.17,1.17,0,0,0-.23.06c.1.19.18.36.28.52,1.31,2.16,2.63,4.31,3.92,6.47a.9.9,0,0,0,.82.52c2.26.1,4.52.24,6.78.34,1.31.06,1.32.05,1.58,1.34.21,1.05.41,2.11.62,3.16s.07,1.06-.92,1c-1.53-.16-3.06-.31-4.58-.46-.28,0-.56,0-.95,0l1.43,2.38c.65,1.07,1.29,2.14,1.94,3.21.21.34.24.57-.17.79q-2.17,1.17-4.31,2.39c-.45.26-.7.16-.95-.28-1-1.84-2.05-3.67-3.14-5.61-.21.46-.39.84-.56,1.22L37.1,56.18c-.21.47-.45.6-.89.21Q34.64,55,33,53.64a.65.65,0,0,1-.18-.91C34,50.47,35.08,48.21,36.22,46a1,1,0,0,0,0-1.08c-1.33-2.32-2.62-4.66-4-7a3.85,3.85,0,0,0-.27.37c-1.28,2.3-2.56,4.6-3.8,6.92a1,1,0,0,0,0,.82q1.62,3.38,3.31,6.73a.84.84,0,0,1-.24,1.19c-1,.82-1.9,1.69-2.86,2.54-.52.46-.73.4-1-.24Z"/></g></g></svg>