<svg xmlns="http://www.w3.org/2000/svg" viewBox="0 0 78.71 45.56"><defs><style>.cls-1{fill:#575756;fill-rule:evenodd;}</style></defs><title>Asset 23</title><g id="Layer_2" data-name="Layer 2"><g id="Layer_4" data-name="Layer 4"><path class="cls-1" d="M78.71,42.71l-1.06,2.85L26.37,26.35l-.45.32c-.47.31-.73.23-.84-.31-.08-.37-.33-.32-.54-.24-.63.27-.62.28-.81-.34-.09-.28-.24-.35-.51-.2-.54.3-.64.25-.74-.34-.07-.39-.25-.47-.62-.27a4.77,4.77,0,0,1-.53.2c-.07-.22-.13-.39-.17-.56-.1-.46-.25-.53-.67-.33S20,24.44,20,24s-.15-.64-.65-.46-.59-.05-.57-.43,0-.55-.5-.46-.64,0-.59-.54c0-.4-.17-.58-.62-.44s-.47,0-.44-.37a3.17,3.17,0,0,0-.08-.6c-.21,0-.4,0-.59,0s-.5-.08-.4-.44a1.19,1.19,0,0,0,0-.25c0-.29-.08-.4-.39-.33a3,3,0,0,1-.71,0c.05-.19.07-.3.11-.4.23-.63-.22-1-.57-1.37-1.11-1.22-2.24-2.42-3.34-3.64C9.06,12.41,7.47,10.6,5.85,8.8S2.57,5.17.92,3.35C.72,3.12.48,2.91.3,2.66-.15,2-.11,1.68.53,1a4.11,4.11,0,0,1,1-.74A1,1,0,0,1,3,.52c.45.56.92,1.1,1.4,1.64.88,1,1.77,2,2.66,3,.54.59,1.11,1.17,1.65,1.77s1.15,1.29,1.73,1.94l3.18,3.53c1.11,1.22,2.22,2.43,3.32,3.66a.47.47,0,0,0,.62.18c.15-.06.36,0,.55.06-.21,1.1-.19,1,.76.82,0,.18.05.35.06.53s0,.35,0,.6a3.56,3.56,0,0,1,.4-.16c.44-.11.63.09.55.54s0,.46.34.33.63-.09.63.48c0,.12,0,.25,0,.39l.34-.07c.59-.1.6-.11.66.51,0,.24.15.29.34.24s.37-.11.59-.17a6,6,0,0,1,.13.61c0,.32.16.4.42.24.51-.3.65-.23.67.35a1.33,1.33,0,0,0,.1.33l.31-.12a2.31,2.31,0,0,1,.3-.16c.22-.08.38-.07.38.23a.71.71,0,0,0,0,.36c.07.1.25.21.34.17a3.21,3.21,0,0,0,.62-.38l.33,1,.83-.48c.33.31.11.64,0,1Z"/></g></g></svg>