<svg xmlns="http://www.w3.org/2000/svg" viewBox="0 0 122.2 66.25"><defs><style>.cls-1{fill:#a8a8a7;fill-rule:evenodd;}</style></defs><title>Asset 21</title><g id="Layer_2" data-name="Layer 2"><g id="Layer_3" data-name="Layer 3"><path class="cls-1" d="M118.5,17.4c.81,2.22,1.64,4.42,2.42,6.65a26.58,26.58,0,0,1,1.28,4.23.07.07,0,0,1,0,0l-.09.54a3.32,3.32,0,0,1-.5-.16c-.15-.07-.26-.21-.4-.28a.36.36,0,0,0-.26,0l-2.69.78c-1,.3-2.09.66-3.15.88a12.76,12.76,0,0,1-1.45.34c-.54,0-1,.32-1.54.34a7.36,7.36,0,0,0-1.32.34,1.6,1.6,0,0,1-.29,0,1,1,0,0,0-.29,0,2.94,2.94,0,0,1-.84.28c-.54,0-1,.35-1.47.35s-1,.31-1.44.32-1,.31-1.44.32a4.77,4.77,0,0,0-1.43.37s-.06,0-.08,0c-.42-.21-.75.12-1.12.2a3.72,3.72,0,0,1-.54,0,1.24,1.24,0,0,0-.3,0c-.27.08-.53.19-.79.28-.06,0-.14.07-.19.05-.35-.13-.63.09-.93.18a1.46,1.46,0,0,1-.77.11,2.44,2.44,0,0,0-1,.23l-3.58,1a7.57,7.57,0,0,1-.78.19.56.56,0,0,1-.35,0c-.28-.17-.5,0-.73.1-.38.17-.75.37-1.13.54a.54.54,0,0,1-.78-.2,9.21,9.21,0,0,1-.84-1.36c-.62-1.33-1.21-2.67-1.79-4-.22-.51-.39-1-.58-1.58-.3-.83-.62-1.66-.88-2.5s-.56-1.95-.8-2.93a3.94,3.94,0,0,1-.08-1,.51.51,0,0,1,.41-.51l1.35-.35c.2-.05.4-.07.46-.35a.61.61,0,0,1,.31-.33c.65-.32,1.31-.62,2-.94l3-1.41,0,0c.25-.46.74-.5,1.15-.67,0,0,.1,0,.12-.06.27-.39.71-.45,1.1-.63a2.78,2.78,0,0,0,.31-.23,5,5,0,0,1,.53-.3,3.29,3.29,0,0,0,.87-.48,4,4,0,0,1,.93-.44c.09,0,.16-.14.26-.19l.91-.47.32-.19c.22-.12.43-.26.66-.36a2.2,2.2,0,0,0,.77-.46,2.57,2.57,0,0,1,.84-.4c.08,0,.2,0,.25-.1a3,3,0,0,1,1-.56c.14-.07.26-.21.4-.29a5.51,5.51,0,0,1,.59-.31,2.17,2.17,0,0,0,.78-.44c.19-.2.56-.24.83-.37A1.81,1.81,0,0,0,106,11c.07-.05.14-.14.22-.16a9.86,9.86,0,0,0,1.82-.94l2.46-1.15,2.55-1.22a.46.46,0,0,0,.18-.26c.06-.18.07-.38.14-.56s.14-.27.21-.28a.48.48,0,0,1,.38.16,8.46,8.46,0,0,1,.58,1.05c1.4,3,2.5,6.15,3.69,9.25l.21.55Z"/></g><g id="Layer_4" data-name="Layer 4"><path class="cls-1" d="M58.52,56.63c-.68,2-1.56,3.91-3.76,4.71-3.8,1.39-7.61,2.79-11.42,4.16a8.87,8.87,0,0,1-7,0c-3-1.42-6-2.94-9-4.44a16.54,16.54,0,0,1-2.18-1.25c-2.29-1.64-3.58-4.09-4.65-6.53a8.79,8.79,0,0,0-4.08-4.12c-.78-.46-1.73-1-1.6-1.89a1.68,1.68,0,0,0-1.39-2c-2.15-.72-3-2.77-4.44-4.16-.05,0,0-.18,0-.27-.17-.9-.28-1.82-.51-2.7-.4-1.49-.84-3-1.33-4.42-.82-2.45-1.69-4.88-2.53-7.32C3.25,22.53,2,18.57.51,14.67a5.63,5.63,0,0,1,.77-6A8.55,8.55,0,0,1,4.64,6.47c3.63-1.39,7.31-2.7,11-3.81a65.57,65.57,0,0,1,8-1.71,65.68,65.68,0,0,1,8-.92c3.12-.12,6.26.15,9.4.12a7.5,7.5,0,0,1,7,4.88c1.38,4,2.89,7.91,4.35,11.86,1.21,3.28,2.49,6.54,3.59,9.86a6.91,6.91,0,0,1,.14,3.14,30.19,30.19,0,0,1-1.08,3.69.49.49,0,0,0,0,.3c1.71.35,3.34.55,4.87,1,3.82,1.21,7.6,2.55,11.4,3.84,2.67.9,5.34,1.78,8,2.74a1.81,1.81,0,0,1,1.07,1.1A1.65,1.65,0,0,1,79.87,44c-1.18.69-2.61,1-3.42,2.23-.08.12-.27.16-.37.27a6.69,6.69,0,0,0-1,1.16c-1,1.86-2,3.75-3,5.6a5.35,5.35,0,0,1-2.7,2.7c-1,.39-2,.88-3.1,1.17-2.25.62-4.48.78-6.6-.49a4.33,4.33,0,0,0-1.06-.3ZM20.5,5.52c0,.17.07.33.09.5a20,20,0,0,0,6.55-1.38C24.79,4.19,22.68,5,20.5,5.52Z"/></g></g></svg>