<svg xmlns="http://www.w3.org/2000/svg" viewBox="0 0 64.93 64.95"><defs><style>.cls-1{fill:#fff;}.cls-2,.cls-3{fill:#005f67;}.cls-3{fill-rule:evenodd;}</style></defs><title>Asset 4</title><g id="Layer_2" data-name="Layer 2"><g id="Layer_4" data-name="Layer 4"><path class="cls-1" d="M32.49,3.49a29,29,0,1,0,28.91,29A28.88,28.88,0,0,0,32.49,3.49Z"/><path class="cls-2" d="M32.61,0A32.48,32.48,0,1,0,64.93,32.68,32.33,32.33,0,0,0,32.61,0Zm-.21,61.4a29,29,0,1,1,29-28.89A28.75,28.75,0,0,1,32.39,61.4Z"/><path class="cls-3" d="M14.46,31.41v2.07H7V31.41Z"/><path class="cls-3" d="M51,33.49V31.42h7.48v2.07Z"/><path class="cls-3" d="M33.77,14.16H31.69V6.7h2.08Z"/><path class="cls-3" d="M31.69,50.73h2.1v7.47h-2.1Z"/><path class="cls-3" d="M9.91,20.1l.77-1.35,4.79,2.72-.76,1.35Z"/><path class="cls-3" d="M23.26,50.42l-2.81,4.73-1.34-.79,2.82-4.74Z"/><path class="cls-3" d="M19.07,10.46l1.34-.79,2.8,4.74-1.34.79Z"/><path class="cls-3" d="M10.81,46.09,10,44.76l4.74-2.81.79,1.34Z"/><path class="cls-3" d="M50.68,22.78l-.81-1.34,4.68-2.7L55.32,20Z"/><path class="cls-3" d="M50.84,42l4.69,2.66L54.79,46,50.1,43.31Z"/><path class="cls-3" d="M43.66,15l-1.3-.79,2.75-4.63,1.31.78Z"/><path class="cls-3" d="M42.32,50.51l1.31-.77,2.74,4.64-1.31.78Z"/><path class="cls-3" d="M7.15,35.62l-.08-1,2.16-.23.13.95Z"/><path class="cls-3" d="M35,6.78l1,.09c-.08.73-.15,1.44-.22,2.18l-1-.08Z"/><path class="cls-3" d="M58.41,34.67l-.07,1-2.21-.22.1-1Z"/><path class="cls-3" d="M30.52,58.11l-1-.07.23-2.21.95.11Z"/><path class="cls-3" d="M50.34,13.62l-1.47,1.63-.72-.63L49.63,13Z"/><path class="cls-3" d="M14.91,17l-1.65-1.49.64-.7,1.64,1.47Z"/><path class="cls-3" d="M35.91,58l-1,.07L34.72,56l.95-.13Z"/><path class="cls-3" d="M30.76,9l-1,.09-.24-2.19,1-.09Z"/><path class="cls-3" d="M23.58,54.18l-.89,2-.87-.39c.25-.57.5-1.11.73-1.66.11-.28.23-.39.52-.2A4,4,0,0,0,23.58,54.18Z"/><path class="cls-3" d="M41.88,54.18l.87-.39.91,2-.87.4Z"/><path class="cls-3" d="M15.14,13.62l.7-.65,1.49,1.64-.71.64Z"/><path class="cls-3" d="M40.25,7.79l.91.3-.69,2.11-.9-.32Z"/><path class="cls-3" d="M25,54.72l.9.29-.68,2.11-.91-.31Z"/><path class="cls-3" d="M18.51,13.67l-1.3-1.78.77-.57,1.3,1.78Z"/><path class="cls-3" d="M46.2,13.11l1.3-1.79.77.56L47,13.67Z"/><path class="cls-3" d="M56.09,21.53l.39.88-2,.9-.39-.87Z"/><path class="cls-3" d="M58.33,29.28c0,.34,0,.61.08.95l-2.17.24-.12-.95Z"/><path class="cls-3" d="M55.69,37.83l.2-.95,2.15.47-.18.92Z"/><path class="cls-3" d="M9,42.5l2-.9.39.87-2,.9Z"/><path class="cls-3" d="M56.48,42.5l-.39.87-2-.89.37-.88Z"/><path class="cls-3" d="M52.08,45.91l1.79,1.3L53.3,48l-1.78-1.29Z"/><path class="cls-3" d="M18.5,51.23l.77.56L18,53.58,17.2,53Z"/><path class="cls-3" d="M27.36,9.49l-.44-2.15.92-.19.47,2.15Z"/><path class="cls-3" d="M23.59,10.73l-.87.39-.9-2,.87-.4Z"/><path class="cls-3" d="M7.44,27.56l.19-.93,2.16.46L9.59,28Z"/><path class="cls-3" d="M11.4,22.43,11,23.3l-2-.9.39-.87Z"/><path class="cls-3" d="M14,46.69,12.18,48l-.58-.76,1.79-1.31Z"/><path class="cls-3" d="M55.3,25.63l-.3-.91L57.09,24l.31.9Z"/><path class="cls-3" d="M52.09,19l-.57-.76,1.78-1.31.57.77Z"/><path class="cls-3" d="M49.93,48.57l.65-.7,1.63,1.47-.63.72Z"/><path class="cls-3" d="M11.6,17.69l.57-.77L14,18.21l-.56.77Z"/><path class="cls-3" d="M16.61,49.64l.71.64-1.46,1.64-.72-.63Z"/><path class="cls-3" d="M50.34,51.29l-.71.64-1.48-1.63.7-.64Z"/><path class="cls-3" d="M52.22,15.56,50.57,17l-.63-.71,1.63-1.47Z"/><path class="cls-3" d="M7.63,38.27l-.19-.92,2.15-.47.2.94Z"/><path class="cls-3" d="M13.27,49.34l1.63-1.48.65.7-1.64,1.49Z"/><path class="cls-3" d="M9.24,30.46l-2.16-.23c0-.32,0-.6.06-.95l2.22.23Z"/><path class="cls-3" d="M40.25,57.12,39.56,55l.9-.29.69,2.08Z"/><path class="cls-3" d="M27.84,57.76l-.92-.21.45-2.15.94.19Z"/><path class="cls-3" d="M38.56,57.56l-.93.2-.47-2.15.94-.21Z"/><path class="cls-3" d="M46.2,51.8l.77-.57L48.27,53l-.77.56Z"/><path class="cls-3" d="M37.63,7.16l.93.17-.44,2.15-.95-.17Z"/><path class="cls-3" d="M57.86,26.63l.17.94L55.89,28l-.19-.94Z"/><path class="cls-3" d="M10.48,24.72l-.3.91-2.1-.68.3-.9Z"/><path class="cls-3" d="M55,40.19l.31-.9L57.4,40l-.3.91Z"/><path class="cls-3" d="M42.79,8.71l.87.39-.9,2-.87-.39Z"/><path class="cls-3" d="M25.92,9.88l-.91.31L24.32,8.1l.89-.31Z"/><path class="cls-3" d="M8.38,40.87,8.08,40l2.09-.68.31.9Z"/><rect class="cls-2" x="31.77" y="16.45" width="1.92" height="16"/><rect class="cls-2" x="32.46" y="31.81" width="20.13" height="1.28"/><circle class="cls-2" cx="32.73" cy="32.45" r="1.88"/></g></g></svg>