<svg xmlns="http://www.w3.org/2000/svg" viewBox="0 0 64.93 64.95"><defs><style>.cls-1{fill:#fff}.cls-2,.cls-3{fill:#005f67}.cls-3{fill-rule:evenodd}</style></defs><g id="Layer_2" data-name="Layer 2"><g id="Layer_4" data-name="Layer 4"><path class="cls-1" d="M32.49 3.49a29 29 0 1 0 28.91 29 28.88 28.88 0 0 0-28.91-29z"/><path class="cls-2" d="M32.61 0a32.48 32.48 0 1 0 32.32 32.68A32.33 32.33 0 0 0 32.61 0zm-.21 61.4a29 29 0 1 1 29-28.89A28.75 28.75 0 0 1 32.39 61.4z"/><path class="cls-3" d="M14.46 31.41v2.07H7v-2.07zM51 33.49v-2.07h7.48v2.07zM33.77 14.16h-2.08V6.7h2.08zm-2.08 36.57h2.1v7.47h-2.1zM9.91 20.1l.77-1.35 4.79 2.72-.76 1.35zm13.35 30.32l-2.81 4.73-1.34-.79 2.82-4.74zm-4.19-39.96l1.34-.79 2.8 4.74-1.34.79zm-8.26 35.63L10 44.76l4.74-2.81.79 1.34zm39.87-23.31l-.81-1.34 4.68-2.7.77 1.26zM50.84 42l4.69 2.66-.74 1.34-4.69-2.69zm-7.18-27l-1.3-.79 2.75-4.63 1.31.78zm-1.34 35.51l1.31-.77 2.74 4.64-1.31.78zM7.15 35.62l-.08-1 2.16-.23.13.95zM35 6.78l1 .09c-.08.73-.15 1.44-.22 2.18l-1-.08zm23.41 27.89l-.07 1-2.21-.22.1-1zM30.52 58.11l-1-.07.23-2.21.95.11zm19.82-44.49l-1.47 1.63-.72-.63L49.63 13zM14.91 17l-1.65-1.49.64-.7 1.64 1.47zm21 41l-1 .07-.19-2.07.95-.13zM30.76 9l-1 .09-.24-2.19 1-.09zm-7.18 45.18l-.89 2-.87-.39c.25-.57.5-1.11.73-1.66.11-.28.23-.39.52-.2a4 4 0 0 0 .51.25zm18.3 0l.87-.39.91 2-.87.4zM15.14 13.62l.7-.65 1.49 1.64-.71.64zm25.11-5.83l.91.3-.69 2.11-.9-.32zM25 54.72l.9.29-.68 2.11-.91-.31zm-6.49-41.05l-1.3-1.78.77-.57 1.3 1.78zm27.69-.56l1.3-1.79.77.56L47 13.67zm9.89 8.42l.39.88-2 .9-.39-.87zm2.24 7.75c0 .34 0 .61.08.95l-2.17.24-.12-.95zm-2.64 8.55l.2-.95 2.15.47-.18.92zM9 42.5l2-.9.39.87-2 .9zm47.48 0l-.39.87-2-.89.37-.88zm-4.4 3.41l1.79 1.3-.57.79-1.78-1.29zM18.5 51.23l.77.56L18 53.58l-.8-.58zm8.86-41.74l-.44-2.15.92-.19.47 2.15zm-3.77 1.24l-.87.39-.9-2 .87-.4zM7.44 27.56l.19-.93 2.16.46-.2.91zm3.96-5.13l-.4.87-2-.9.39-.87zM14 46.69L12.18 48l-.58-.76 1.79-1.31zm41.3-21.06l-.3-.91 2.09-.72.31.9zM52.09 19l-.57-.76 1.78-1.31.57.77zm-2.16 29.57l.65-.7 1.63 1.47-.63.72zM11.6 17.69l.57-.77L14 18.21l-.56.77zm5.01 31.95l.71.64-1.46 1.64-.72-.63zm33.73 1.65l-.71.64-1.48-1.63.7-.64zm1.88-35.73L50.57 17l-.63-.71 1.63-1.47zM7.63 38.27l-.19-.92 2.15-.47.2.94zm5.64 11.07l1.63-1.48.65.7-1.64 1.49zM9.24 30.46l-2.16-.23c0-.32 0-.6.06-.95l2.22.23zm31.01 26.66L39.56 55l.9-.29.69 2.08zm-12.41.64l-.92-.21.45-2.15.94.19zm10.72-.2l-.93.2-.47-2.15.94-.21zm7.64-5.76l.77-.57 1.3 1.77-.77.56zM37.63 7.16l.93.17-.44 2.15-.95-.17zm20.23 19.47l.17.94-2.14.43-.19-.94zm-47.38-1.91l-.3.91-2.1-.68.3-.9zM55 40.19l.31-.9 2.09.71-.3.91zM42.79 8.71l.87.39-.9 2-.87-.39zM25.92 9.88l-.91.31-.69-2.09.89-.31zM8.38 40.87l-.3-.87 2.09-.68.31.9z"/><path class="cls-2" d="M31.77 16.45H33.69V32.45H31.77z"/><path class="cls-2" d="M32.46 31.81H52.59V33.089999999999996H32.46z"/><circle class="cls-2" cx="32.73" cy="32.45" r="1.88"/></g></g></svg>