<svg xmlns="http://www.w3.org/2000/svg" viewBox="0 0 123.06 70.54"><defs><style>.cls-1{fill:#575756;fill-rule:evenodd}</style></defs><g id="Layer_2" data-name="Layer 2"><g id="Layer_4" data-name="Layer 4"><path class="cls-1" d="M13.87 63.59c-1.06.38-2.12.76-3.2 1s-2.54.11-3.55.5c-.29.11-1.29 1.08-1.45 1L.1 63.36a1.31 1.31 0 0 1 .52-1.56 16.49 16.49 0 0 0 2.83-3.21c.29-.44 0-1.44-.18-2.14-.33-1.29-.77-2.55-1.17-3.82s-.84-2.46-1.17-3.72a11.51 11.51 0 0 1-.26-2.19c-.08-1.31-.14-2.62-.2-3.93a6.64 6.64 0 0 1 1.81-5.26 5.68 5.68 0 0 0 1.43-1.62A7.53 7.53 0 0 0 4 33.69a7.53 7.53 0 0 0 3.66-.63c1.46-.82.23-2.27 1.45-3.6.71-.77 1.85-.32 2.46-1 .79-.82 0-2.75 0-3.79 0-2 1.06-4.1 1.79-5.9 1-2.38 1.8-4.82 2.64-7.26 1.42-4.1 3.41-7.71 6.8-10.17A19.53 19.53 0 0 0 24.39 0a27.83 27.83 0 0 0 2.16 1.86c.89.63 2.85 1 3.24 2.24.16.54-.87 3.45-.71 3.53 1.87 1 5 .51 6.36 2.49 1.07 1.53.48 4.1 1.38 5.75.4.73 2.33-4.18 2.68-4.49 1.58-1.38 4.86-1.78 6.77-1.85a1.64 1.64 0 0 1 1.75.78c1.25 2.32 3.24 1.39 5 1.43 1.06 0 3.9 2.22 5 2.34 1.9.21 2.88-2.15 3.63-3.59-.26.5 1.09 1.26 1.37 1.29.74.1 1.19-.66 1.87-.66s1.41.62 2.07.78c1.13.27 2.34 0 2.43 1.53S69 16.51 69 18c0 2.36.2 4.77.34 7.13a1.5 1.5 0 0 0 .4.84 8.79 8.79 0 0 1 2 5.73 3.49 3.49 0 0 1-.49 1.85c-.92 1.52-1.82 3.32-2.85 4.73s-2.59 1-3.92 1.81c1.22.28 2.23 1.14 3.42 1.49 1.47.43 1.67.66 2.76 2a9.14 9.14 0 0 0 .83.81C72 45.64 72.5 46.82 73 48c.77 1.74 1.57 3.47 2.35 5.21l2.34 5.23c-1 .7-1.94 1.43-2.93 2.11a15.05 15.05 0 0 1-2.83 1.83 10.57 10.57 0 0 1-2.55.09v1.83c-1.82.11-3.38-.41-4.91 1-.84.78-1.74 1.46-2.56 2.26a9.69 9.69 0 0 1-4.85 2.24 37.27 37.27 0 0 1-8.55.73 5.18 5.18 0 0 1-4-1.76c-.82-.82-2.07-1.13-2.82-2s-.59-2.29-.86-3.47c-2.8.52-5.48.65-8.15 1.88-1.82.83-3.76 1.3-5.62.28-1-.55-2.34-.58-3.27-1.19s-1.32-2.14-2.36-2.75c-.88-.51-2.72.5-3.85.81s-2.49.82-3.71 1.26zm90.36-27.07h-.47q-1.2 0-2.4-.07a2 2 0 0 1 .45-.47l.7-.68c.12-.11.25-.21.38-.31s.31-.34.44-.37c-.43.11-.88.06-1.3.16-.12 0-.37.16-.48.05s.13-.28.22-.37a3.59 3.59 0 0 0 .65-.85 9.38 9.38 0 0 1 .87-1 10.15 10.15 0 0 0 .8-1.05 5.59 5.59 0 0 0 .3-.51 2.68 2.68 0 0 1 .22-.5l-.63.26c-.1 0-.38.25-.49.22s-.16-.46-.27-.59a10 10 0 0 1-.74.86 3 3 0 0 1-.45.34 2.84 2.84 0 0 1-.45.31 1.05 1.05 0 0 1-.45 0c-.09 0-.54-.11-.6 0a3.94 3.94 0 0 0 .24-.43 12.15 12.15 0 0 1 1.21-1.2c.16-.16.35-.46.57-.52l-.21-.1c-.25-.16-.38-.46-.62-.6-.17.14-.21.41-.37.57a4.36 4.36 0 0 1-.68.45c0-.3 0-.61-.06-.91a4.89 4.89 0 0 0 0-.79 1.41 1.41 0 0 1-.6.37 4.52 4.52 0 0 1-1.38.25 19.07 19.07 0 0 0 0 2.3 2.13 2.13 0 0 1-.81 1.58c-.6.55-1.3 1-1.93 1.5-1.09.57-2.12 1.13-3.25 1.62a8.22 8.22 0 0 1-2.07.49c-1.8.28-3.56.1-5.3.21s-3.56.06-5.32.07a21 21 0 0 0-2.11.07 9.29 9.29 0 0 0-1.74.13c1.23.91 2.9 1.45 3.38 3.06.15.5.17.83.35 1.33.25.7.28.54 0 1.2s-.35.4-.11.94c.15.34.6.61.87.84a1.51 1.51 0 0 1 .67 1.31 3.68 3.68 0 0 0 .82 1.91 7.62 7.62 0 0 1 1.37 2.35 9.45 9.45 0 0 0 .31 2.32 15.46 15.46 0 0 1 2.45-3.69 41.94 41.94 0 0 1 3.66-2.5c.84-.65 1.63-1.4 2.38-2 .59-.51 1-1.28 1.64-1.69s1.34-.61 2-.94a7.23 7.23 0 0 0 1.51-.85 7.88 7.88 0 0 0 1-1.59 1.78 1.78 0 0 1 .59-.55l.54-.31a2.22 2.22 0 0 0 .48-.39c.73-.14 1.47-.29 2.22-.45 1.13-.31 2.77-.31 3.77-.94-.63.05-1.19.13-1.77.15z"/><path class="cls-1" d="M107.93 43.77h-.53c-.94 0-1.85.23-2.79.15-1.92-.17-3.31 1.33-4.82 2.34a3.7 3.7 0 0 0-1.51 2.32c-1.05.12-2.11.16-3.17.22s-1.77.29-2.69.38c-1.57.15-3.11 0-4.67.13a6.07 6.07 0 0 1 2 .48c.66.18 1.34.31 2 .52a5.44 5.44 0 0 0 1.47.46 15.47 15.47 0 0 1-1.82.29 23.52 23.52 0 0 0-2.35.58 3.85 3.85 0 0 1 1.65.43 12.18 12.18 0 0 0-1.44.52 4.77 4.77 0 0 0-1.34.63c.17-.18 1.36-.07 1.64-.08l1.8-.14c1-.05 1.94-.06 2.92-.09A18.29 18.29 0 0 1 92.19 55a6.58 6.58 0 0 0-1 1 11.31 11.31 0 0 0-.42 1.21 2.67 2.67 0 0 0 .72-.44 13.65 13.65 0 0 0 1.83-1.18 10.49 10.49 0 0 0 1-1.2 13.11 13.11 0 0 1 3.3-2.74c.45-.26.86-.61 1.34-.82s.58 0 1 .26a3.67 3.67 0 0 0 1.13.68 8.13 8.13 0 0 0 1.51.19 18.13 18.13 0 0 0 6.23-1.27c1.47-.47 3.43-.72 3.64-2.65.05-.5-.27-1-.22-1.49.52-.14 1.06.26 1.53.39s1 .12 1.48.22a2.29 2.29 0 0 0 1.38 0 14.86 14.86 0 0 1 2.16-.64c.62-.12 1.27-.16 1.88-.31-.18-.24-.5-.17-.79-.22-.59-.1-2.06-.7-2.55-.07a9 9 0 0 1 2.54-1.58c.82-.47 1.64-1.34 2.59-1.52a7.87 7.87 0 0 1-2 .25 17.21 17.21 0 0 1-3.08.71 8.31 8.31 0 0 1 1.93-1c.46-.25.89-.51 1.35-.76a16.89 16.89 0 0 0 2.34-1.4c-1 .27-2.14.27-3.19.51-.59.13-1.73.08-2.1.62a8.28 8.28 0 0 1 .3-1.09c.1-.43.55-1.31.42-1.71-1.45 1.32-3.15 2.41-4.49 3.85-.31.33-1.75 1.58-1.29 2.16-.42-.53-.92-.42-1.36-.05-.41-.61-.47-.82-1.21-.93s-1.42-.17-2.16-.21z"/></g></g></svg>