<svg xmlns="http://www.w3.org/2000/svg" viewBox="0 0 100.04 103.32"><defs><style>.cls-1{fill:#a8a8a7;fill-rule:evenodd;}</style></defs><title>Asset 18</title><g id="Layer_2" data-name="Layer 2"><g id="Layer_4" data-name="Layer 4"><path class="cls-1" d="M54.49.12C47.56,3.21,40.6,6.23,33.71,9.4a14.84,14.84,0,0,0-3.61,1.93,28.74,28.74,0,0,0-3.91,4.4c-1.57,2-3.09,4.08-4.64,6.12a8.63,8.63,0,0,0-1.86,3.49C19.35,27,19,28.72,18.57,30.4a23.73,23.73,0,0,1-2.06,5.88,27.38,27.38,0,0,1-8.6,9.26,6.79,6.79,0,0,0-2.44,2.87c-1.17,2.76-2.56,5.42-3.79,8.15A17,17,0,0,0,.09,65.43c.78,7.21,1.16,14.45,1.8,21.67.05.63.24.86.89.94Q12,89.18,21.21,90.4c.54.07.71-.06.83-.58.91-4.11,1.85-8.21,2.79-12.31.18-.77.2-.77.88-.36l42.71,25.66c1.24.74,1.74.7,2.81-.27A54.86,54.86,0,0,0,76.54,97a146.47,146.47,0,0,0,10.7-15.1q3.08-4.82,5.7-9.92a83.54,83.54,0,0,0,3.56-7.67c1.23-3.12,2.23-6.33,3.38-9.48a1.65,1.65,0,0,0-.78-2.24c-.59-.39-1.22-.74-1.83-1.11L77.38,39.54h0Q66.52,33,55.65,26.52c-.54-.32-.29-.48,0-.74,3.51-3,7-6,10.52-9.05.42-.36.48-.59.15-1.06Q60.87,8,55.46.37A.65.65,0,0,0,54.49.12Z"/></g></g></svg>