<svg xmlns="http://www.w3.org/2000/svg" viewBox="0 0 64.49 64.5"><defs><style>.cls-1{fill:#fff}.cls-2,.cls-3{fill:#005f67}.cls-2{fill-rule:evenodd}</style></defs><g id="Layer_2" data-name="Layer 2"><g id="Layer_4" data-name="Layer 4"><path class="cls-1" d="M32.25 0A32.22 32.22 0 0 0 .46 37.65q.15.87.34 1.72a32.24 32.24 0 0 0 62.83.26q.2-.84.35-1.69A32.21 32.21 0 0 0 32.25 0z"/><path class="cls-2" d="M52.61 36.36l-2.31-.71c0-.38.08-.69.08-1a18.08 18.08 0 0 0-.1-3.1 9.8 9.8 0 0 0-18.6-1.92 20.61 20.61 0 0 0-.81 2V31.8l-.18.5-.54-.16h-.2c-.65-.25-1.34-.44-2-.64a7.3 7.3 0 0 0-9.23 8c.13.92.2 1.85.31 2.89l-4.19-1.15a4.88 4.88 0 0 0-6 5.52A5 5 0 0 0 14 50.91h36.24a8.42 8.42 0 0 0 1.76-.29 7.35 7.35 0 0 0 .63-14.26z"/><path class="cls-3" d="M24.26 17.29V12A1.13 1.13 0 1 0 22 12v5.31c.38 0 .75-.06 1.13-.06s.75.01 1.13.04zm-9.75 3.1l-3.75-3.75a1.13 1.13 0 0 0-1.6 1.6L12.9 22a13.62 13.62 0 0 1 1.61-1.61zm-4.7 9.08H4.5a1.13 1.13 0 1 0 0 2.27h5.3v-1.13c0-.38-.02-.77.01-1.14zm27.27-12.83a1.14 1.14 0 0 0-1.61 0l-3.75 3.75A13.39 13.39 0 0 1 33.33 22l3.75-3.75a1.13 1.13 0 0 0 0-1.61z"/><path class="cls-3" d="M33.33 22a13.36 13.36 0 0 0-9.08-4.71c-.37 0-.75-.05-1.13-.05s-.76 0-1.13.06a13.29 13.29 0 0 0-7.48 3.09A13.62 13.62 0 0 0 12.9 22a13.29 13.29 0 0 0-3.09 7.48c0 .37-.06.75-.06 1.13v1.13a13.31 13.31 0 0 0 2.82 7.13 7 7 0 0 1 .88-.06 6.75 6.75 0 0 1 1.85.19l1.15.32a9.35 9.35 0 0 1 2.25-7.12c.15-.18.32-.34.48-.5a9.61 9.61 0 0 1 2-1.51 9.44 9.44 0 0 1 .85-.44c.19-.09.38-.16.58-.23l.22-.09c.21-.07.42-.13.63-.18s.56-.14.85-.19a9.24 9.24 0 0 1 1.5-.06h.54a9.32 9.32 0 0 1 2.09.36l.89.26.36-.82a11.89 11.89 0 0 1 4.65-5.4 13.49 13.49 0 0 0-1.01-1.4z"/></g></g></svg>